<svg width="229" height="319" viewBox="0 0 229 319" fill="none" xmlns="http://www.w3.org/2000/svg">
<path d="M205.068 69.3671C206.88 63.9057 204.98 57.6259 200.443 54.0862C197.127 51.4339 192.91 50.463 188.873 51.3422C184.79 52.197 181.351 54.7994 179.404 58.4351C178.48 60.162 179.159 62.2796 180.84 63.1798C182.567 64.1043 184.661 63.4708 185.585 61.7438C186.558 59.926 188.301 58.6369 190.297 58.1852C192.338 57.7578 194.399 58.2765 196.092 59.5922C198.282 61.2906 199.253 64.5003 198.373 67.1279C197.136 70.9679 193.428 72.4328 190.491 71.9127C186.98 71.2613 183.472 73.0085 181.72 76.2807L179.604 80.2345C178.679 81.9615 179.358 84.0791 181.04 84.9792C182.767 85.9037 184.86 85.2702 185.785 83.5433L187.901 79.5894C188.193 79.0441 188.755 78.7599 189.237 78.8425C196.212 80.1209 202.85 76.1317 205.068 69.3671Z" fill="#7B13FF"/>
<path d="M179.455 88.0485C177.274 86.8807 174.598 87.7286 173.455 89.8646C172.287 92.046 173.135 94.7218 175.271 95.8653C177.452 97.0331 180.128 96.1852 181.271 94.0492C182.46 91.9375 181.637 89.2163 179.455 88.0485Z" fill="#7B13FF"/>
<path d="M152.737 16.1425C149.256 8.60885 141.061 3.87756 132.796 4.62975C126.691 5.11117 121.297 8.24962 117.917 13.1576C114.466 18.0848 113.415 24.2159 114.954 29.9609C115.685 32.6897 118.489 34.2476 121.146 33.5356C123.875 32.8044 125.452 30.0728 124.72 27.344C123.951 24.4715 124.512 21.3963 126.166 18.952C127.892 16.4884 130.572 15.0006 133.651 14.7143C137.63 14.3408 141.819 16.759 143.485 20.3919C145.972 25.652 143.517 30.851 139.913 33.2019C135.578 35.9799 133.611 41.2789 134.997 46.4493L136.671 52.6969C137.402 55.4258 140.205 56.9836 142.862 56.2717C145.591 55.5405 147.168 52.8089 146.437 50.08L144.763 43.8324C144.532 42.9707 144.842 42.1179 145.431 41.7292C154.03 36.1925 157.077 25.4471 152.737 16.1425Z" fill="#7B13FF"/>
<path d="M144.223 61.0639C140.776 61.9876 138.798 65.5194 139.702 68.8946C140.626 72.3415 144.158 74.3199 147.533 73.4156C150.98 72.492 152.958 68.9601 152.054 65.585C151.221 62.1906 147.67 60.1403 144.223 61.0639Z" fill="#7B13FF"/>
<path d="M145.063 178.691C144.827 190.982 151.681 204.927 172.363 234.827C173.427 236.363 174.727 238.136 176.263 240.145C186.781 254.563 204.391 278.554 199.191 298.054C198.836 299.236 198.718 300.3 198.481 301.245C209.709 299.709 217.863 286.945 210.891 259.291C208.763 251.136 196.118 236.836 197.181 236.363C209.472 231.754 224.481 255.745 226.018 263.191C227.909 272.054 236.063 302.9 206.518 315.782C200.372 318.5 192.572 318.618 187.609 317.791C183.945 318.5 178.863 318.854 171.772 318.854C169.881 318.854 167.872 318.854 165.745 318.854C157.472 318.854 147.191 318.736 136.436 318.618C117.763 318.382 98.4996 318.145 89.7542 318.618C87.7451 318.736 84.6724 316.964 83.2542 313.891C82.3087 311.882 81.3633 307.745 85.8542 303.018C87.5087 301.245 89.2815 299.709 91.2905 298.409C91.2905 296.4 91.4087 294.627 91.5269 292.382C91.6451 289.9 91.8815 287.063 91.8815 282.927C91.9996 275.954 91.7633 247.827 91.5269 223.127C91.4087 211.545 91.2905 200.554 91.2905 192.518C91.2905 188.145 91.2905 184.954 91.2905 182.827C91.2905 181.291 91.2905 180.345 91.2905 179.636C90.2269 178.927 89.636 178.218 89.3996 177.627C88.8087 175.382 89.3996 168.882 90.6996 167.936C90.8178 167.818 91.0542 167.7 91.2905 167.7C91.2905 167.463 91.1724 167.227 91.1724 166.873C90.8178 164.627 90.3451 162.027 88.2178 161.318C82.6633 159.427 76.9905 152.1 75.9269 145.6C75.4542 142.291 76.1633 139.809 78.1724 138.273C81.1269 135.909 84.3178 134.018 87.8633 132.482C91.4087 130.827 91.9996 130.591 93.6542 120.782C94.0087 118.418 94.2451 116.054 94.3633 113.573C94.5996 109.909 94.5996 107.663 97.9087 100.809C98.6178 99.2726 99.6814 99.0362 100.391 99.1544C105.118 99.7453 111.263 119.127 111.736 121.018C111.972 121.254 113.509 122.318 123.436 122.318C123.909 120.782 124.381 118.891 124.972 116.882C126.509 111.563 128.281 105.063 128.872 101.045C129.109 98.3271 130.645 98.0908 131.354 98.0908C136.2 98.3271 144.591 113.336 145.181 128.936C145.3 133.191 145.063 141.582 144.709 149.618C144.472 156.236 144.236 163.682 144.354 166.045C144.591 166.045 144.827 166.163 144.945 166.282C146.127 166.991 146.009 169.118 146.009 171.836C146.009 171.954 145.181 178.218 145.063 178.691ZM126.863 305.854C130.645 302.427 135.254 298.173 131.827 289.782C126.745 277.491 132.772 258.345 141.636 248.182C146.363 242.745 151.327 240.382 155.7 241.563L156.172 239.791C151.091 238.491 145.418 241.091 140.218 247C135.609 252.318 131.709 260 129.7 267.8C127.454 276.309 127.691 284.464 130.172 290.491C133.127 297.7 129.345 301.127 125.681 304.436C123.2 306.682 120.954 308.691 121.191 311.645L123.081 311.527C122.845 309.518 124.618 307.745 126.863 305.854ZM91.6451 169.827C91.1724 171.363 90.6996 175.382 91.1724 177.154C91.2905 177.391 91.6451 177.745 92.3542 178.218L92.5905 178.336C96.3724 179.873 100.391 180.936 104.409 181.645C106.772 182 109.372 182.236 112.327 182.354H113.036C122.136 182.473 132.063 180.7 142.936 177.036C143.054 176.8 143.172 176.682 143.291 176.563C143.527 176.445 143.645 176.445 143.881 176.445C144 176.445 144.118 176.445 144.236 176.563C144 175.027 144 173.491 144.118 172.073C144.118 170.773 144.118 168.763 143.881 168.173H143.763C137.972 172.663 125.681 175.027 114.1 175.027C105.472 175.027 97.1996 173.727 92.4724 170.773C92.236 170.654 91.9996 170.418 91.8815 170.182L91.6451 169.827ZM136.081 126.454C136.081 125.627 135.609 120.427 134.9 115.463C133.481 105.063 132.3 104.827 131.591 104.709L131.236 106.482C131.118 106.482 131.118 106.482 131 106.363C132.418 107.782 134.191 124.091 134.191 126.336L136.081 126.454ZM103.936 123.027C103.936 118.773 102.518 114.4 101.1 110.263C100.745 109.082 100.272 107.9 99.9178 106.718L98.1451 107.191C98.4996 108.373 98.8542 109.554 99.3269 110.736C100.627 114.754 102.045 119.009 102.045 123.027H103.936ZM86.2087 140.636C83.7269 140.636 81.836 140.754 80.7724 142.054C79.8269 143.236 79.8269 145.009 80.6542 148.2C81.2451 150.563 82.6633 152.218 84.436 152.809C84.9087 152.927 85.4996 153.045 86.0905 153.045C87.3905 153.045 89.0451 152.573 91.0542 151.036L91.1724 150.918C93.0633 148.909 94.4814 145.363 93.4178 143C92.8269 141.818 91.5269 140.4 87.9814 140.518C87.3905 140.518 86.7996 140.636 86.2087 140.636Z" fill="#7B13FF"/>
<path d="M90.4639 170.773C90.4639 170.773 70.7275 193.109 65.6457 258.227C60.9184 318.5 50.282 312.591 50.282 312.591" stroke="#7B13FF" stroke-opacity="0.8" stroke-width="1.77273" stroke-miterlimit="10"/>
<path d="M26.055 317.318C12.6746 317.318 1.82768 315.202 1.82768 312.591C1.82768 309.98 12.6746 307.864 26.055 307.864C39.4353 307.864 50.2822 309.98 50.2822 312.591C50.2822 315.202 39.4353 317.318 26.055 317.318Z" stroke="#7B13FF" stroke-opacity="0.8" stroke-width="1.77273" stroke-miterlimit="10"/>
</svg>
