<svg width="76" height="76" viewBox="0 0 76 76" fill="none" xmlns="http://www.w3.org/2000/svg">
<path d="M21.4525 51.0369C21.5436 51.1273 21.5436 51.1273 21.6348 51.2177L21.8172 51.3081H21.9084L22.0908 51.3985C22.182 51.3985 22.2732 51.3985 22.3644 51.3985H23.2763C24.0059 51.3985 24.6442 50.7657 24.6442 50.0425C24.6442 49.9521 24.6442 49.8617 24.6442 49.6809L37.6848 36.9345C46.0746 28.6177 46.0746 15.0577 37.6848 6.6505C29.295 -1.7567 15.6161 -1.6663 7.13515 6.6505C-1.34579 14.9673 -1.2546 28.5273 7.13515 36.9345L21.4525 51.0369ZM9.1414 8.5489C16.2545 1.0457 28.2007 0.684097 35.7698 7.8257C43.3388 14.9673 43.7035 26.7193 36.4993 34.2225C36.2257 34.4937 36.0433 34.7649 35.7698 34.9457L22.4556 48.2345L9.1414 35.0361C1.75477 27.7137 1.75477 15.8713 9.1414 8.5489Z" fill="url(#paint0_linear)"/>
<path d="M45.7095 48.7767H44.7976C44.068 48.7767 43.4297 49.4095 43.4297 50.1327C43.4297 50.8559 44.068 51.4887 44.7976 51.4887H45.7095C46.4391 51.4887 47.0774 50.8559 47.0774 50.1327C47.0774 49.4095 46.5303 48.7767 45.7095 48.7767Z" fill="url(#paint1_linear)"/>
<path d="M46.0744 72.3713C45.3449 72.3713 44.7065 73.0041 44.7065 73.7273C44.7065 74.4505 45.3449 75.0833 46.0744 75.0833H46.9864C47.7159 75.0833 48.3543 74.4505 48.3543 73.7273C48.3543 73.0041 47.7159 72.3713 46.9864 72.3713H46.0744Z" fill="url(#paint2_linear)"/>
<path d="M40.6032 72.3713C39.8737 72.3713 39.2354 73.0041 39.2354 73.7273C39.2354 74.4505 39.8737 75.0833 40.6032 75.0833H41.5152C42.2447 75.0833 42.8831 74.4505 42.8831 73.7273C42.8831 73.0041 42.2447 72.3713 41.5152 72.3713H40.6032Z" fill="url(#paint3_linear)"/>
<path d="M41.8794 61.9755C41.8794 62.6987 42.5177 63.3315 43.2473 63.3315H44.1592C44.8888 63.3315 45.5271 62.6987 45.5271 61.9755C45.5271 61.2523 44.8888 60.6195 44.1592 60.6195H43.2473C42.5177 60.6195 41.8794 61.1619 41.8794 61.9755Z" fill="url(#paint4_linear)"/>
<path d="M36.4082 61.9755C36.4082 62.6987 37.0466 63.3315 37.7761 63.3315H38.688C39.4176 63.3315 40.0559 62.6987 40.0559 61.9755C40.0559 61.2523 39.4176 60.6195 38.688 60.6195H37.7761C37.0466 60.6195 36.4082 61.1619 36.4082 61.9755Z" fill="url(#paint5_linear)"/>
<path d="M40.2383 48.7767H39.3264C38.5968 48.7767 37.9585 49.4095 37.9585 50.1327C37.9585 50.8559 38.5968 51.4887 39.3264 51.4887H40.2383C40.9679 51.4887 41.6062 50.8559 41.6062 50.1327C41.6062 49.4095 41.0591 48.7767 40.2383 48.7767Z" fill="url(#paint6_linear)"/>
<path d="M29.6599 72.3713C28.9303 72.3713 28.292 73.0041 28.292 73.7273C28.292 74.4505 28.9303 75.0833 29.6599 75.0833H30.5718C31.3014 75.0833 31.9397 74.4505 31.9397 73.7273C31.9397 73.0041 31.3014 72.3713 30.5718 72.3713H29.6599Z" fill="url(#paint7_linear)"/>
<path d="M35.1311 72.3713C34.4015 72.3713 33.7632 73.0041 33.7632 73.7273C33.7632 74.4505 34.4015 75.0833 35.1311 75.0833H36.043C36.7725 75.0833 37.4109 74.4505 37.4109 73.7273C37.4109 73.0041 36.7725 72.3713 36.043 72.3713H35.1311Z" fill="url(#paint8_linear)"/>
<path d="M30.9365 61.9755C30.9365 62.6987 31.5749 63.3315 32.3044 63.3315H33.2163C33.9459 63.3315 34.5842 62.6987 34.5842 61.9755C34.5842 61.2523 33.9459 60.6195 33.2163 60.6195H32.3044C31.5749 60.6195 30.9365 61.1619 30.9365 61.9755Z" fill="url(#paint9_linear)"/>
<path d="M47.3516 61.9755C47.3516 62.6987 47.9899 63.3315 48.7195 63.3315H49.6314C50.3609 63.3315 50.9993 62.6987 50.9993 61.9755C50.9993 61.2523 50.3609 60.6195 49.6314 60.6195H48.7195C47.9899 60.6195 47.3516 61.1619 47.3516 61.9755Z" fill="url(#paint10_linear)"/>
<path d="M57.0178 72.3713C56.2883 72.3713 55.6499 73.0041 55.6499 73.7273C55.6499 74.4505 56.2883 75.0833 57.0178 75.0833H57.9297C58.6593 75.0833 59.2976 74.4505 59.2976 73.7273C59.2976 73.0041 58.6593 72.3713 57.9297 72.3713H57.0178Z" fill="url(#paint11_linear)"/>
<path d="M56.6529 48.7767H55.7409C55.0114 48.7767 54.373 49.4095 54.373 50.1327C54.373 50.8559 55.0114 51.4887 55.7409 51.4887H56.6529C57.3824 51.4887 58.0208 50.8559 58.0208 50.1327C58.0208 49.4095 57.4736 48.7767 56.6529 48.7767Z" fill="url(#paint12_linear)"/>
<path d="M62.489 75.0833H63.4009C64.1305 75.0833 64.7688 74.4505 64.7688 73.7273C64.7688 73.0041 64.1305 72.3713 63.4009 72.3713H62.489C61.7594 72.3713 61.1211 73.0041 61.1211 73.7273C61.1211 74.4505 61.7594 75.0833 62.489 75.0833Z" fill="url(#paint13_linear)"/>
<path d="M60.5743 60.6195H59.6623C58.9328 60.6195 58.2944 61.2523 58.2944 61.9755C58.2944 62.6987 58.9328 63.3315 59.6623 63.3315H60.5743C61.3038 63.3315 61.9422 62.6987 61.9422 61.9755C61.9422 61.2523 61.3038 60.6195 60.5743 60.6195Z" fill="url(#paint14_linear)"/>
<path d="M52.8228 61.9755C52.8228 62.6987 53.4611 63.3315 54.1906 63.3315H55.1026C55.8321 63.3315 56.4705 62.6987 56.4705 61.9755C56.4705 61.2523 55.8321 60.6195 55.1026 60.6195H54.1906C53.4611 60.6195 52.8228 61.1619 52.8228 61.9755Z" fill="url(#paint15_linear)"/>
<path d="M51.1812 48.7767H50.2693C49.5397 48.7767 48.9014 49.4095 48.9014 50.1327C48.9014 50.8559 49.5397 51.4887 50.2693 51.4887H51.1812C51.9107 51.4887 52.5491 50.8559 52.5491 50.1327C52.5491 49.4095 52.0019 48.7767 51.1812 48.7767Z" fill="url(#paint16_linear)"/>
<path d="M29.295 48.7767H28.383C27.6535 48.7767 27.0151 49.4095 27.0151 50.1327C27.0151 50.8559 27.6535 51.4887 28.383 51.4887H29.295C30.0245 51.4887 30.6628 50.8559 30.6628 50.1327C30.6628 49.4095 30.1157 48.7767 29.295 48.7767Z" fill="url(#paint17_linear)"/>
<path d="M51.5456 72.3713C50.8161 72.3713 50.1777 73.0041 50.1777 73.7273C50.1777 74.4505 50.8161 75.0833 51.5456 75.0833H52.4576C53.1871 75.0833 53.8255 74.4505 53.8255 73.7273C53.8255 73.0041 53.1871 72.3713 52.4576 72.3713H51.5456Z" fill="url(#paint18_linear)"/>
<path d="M22.2735 60.6195H21.3615C20.632 60.6195 19.9937 61.2523 19.9937 61.9755C19.9937 62.6987 20.632 63.3315 21.3615 63.3315H22.2735C23.003 63.3315 23.6414 62.6987 23.6414 61.9755C23.6414 61.2523 23.003 60.6195 22.2735 60.6195Z" fill="url(#paint19_linear)"/>
<path d="M73.8884 75.0833C74.618 75.0833 75.2563 74.4505 75.2563 73.7273C75.2563 73.0041 74.618 72.3713 73.8884 72.3713H73.5236C72.7941 72.3713 72.1558 73.0041 72.1558 73.7273C72.1558 74.4505 72.7941 75.0833 73.5236 75.0833H73.8884Z" fill="url(#paint20_linear)"/>
<path d="M3.48729 69.0266C3.57849 69.3882 3.66968 69.7499 3.76087 70.1115C3.94326 70.8346 4.76399 71.2866 5.49354 71.0154C6.22308 70.8346 6.67905 70.0211 6.40547 69.2979V69.2075C6.31428 69.0267 6.31428 68.7555 6.22308 68.4843C6.13189 67.7611 5.40235 67.2187 4.6728 67.3091C3.85207 67.5803 3.30491 68.3035 3.48729 69.0266Z" fill="url(#paint21_linear)"/>
<path d="M68.8731 75.0833C69.6026 75.0833 70.241 74.4505 70.241 73.7273C70.241 73.0041 69.6026 72.3713 68.8731 72.3713H67.9612C67.2316 72.3713 66.5933 73.0041 66.5933 73.7273C66.5933 74.4505 67.2316 75.0833 67.9612 75.0833H68.8731Z" fill="url(#paint22_linear)"/>
<path d="M71.4261 53.0257C71.9733 53.5681 72.794 53.6585 73.3412 53.1161C73.8883 52.5737 73.9795 51.7601 73.4324 51.2177C73.1588 50.9465 72.8852 50.6753 72.6116 50.4041C72.0645 49.8617 71.1525 49.9521 70.6966 50.4945C70.2406 51.0369 70.2406 51.9409 70.7878 52.3929C71.0614 52.6641 71.2437 52.8449 71.4261 53.0257Z" fill="url(#paint23_linear)"/>
<path d="M72.5203 56.2799C72.5203 56.5511 72.5203 56.7319 72.4291 57.0031C72.2467 57.7263 72.7027 58.4495 73.5234 58.6303C73.6146 58.6303 73.7058 58.6303 73.797 58.6303C74.4353 58.6303 74.9825 58.1783 75.1649 57.5455C75.256 57.1839 75.2561 56.8222 75.3472 56.4606C75.3472 55.7374 74.8001 55.1046 74.0705 55.0142C73.341 54.9238 72.6115 55.4662 72.5203 56.2799Z" fill="url(#paint24_linear)"/>
<path d="M70.5144 62.6985C70.6968 62.6985 70.8792 62.6081 71.0615 62.5177C71.4263 62.3369 71.6999 62.1561 72.0647 61.9753C72.703 61.5233 72.7942 60.7097 72.3382 60.0769C71.8823 59.5345 71.0615 59.3537 70.5144 59.7153C70.332 59.8057 70.1496 59.9865 69.876 60.0769C69.2377 60.4385 68.8729 61.2521 69.2377 61.8849C69.5113 62.4273 69.9672 62.6985 70.5144 62.6985Z" fill="url(#paint25_linear)"/>
<path d="M65.1335 63.3315H66.0455C66.775 63.3315 67.4133 62.6987 67.4133 61.9755C67.4133 61.2523 66.775 60.6195 66.0455 60.6195H65.1335C64.404 60.6195 63.7656 61.2523 63.7656 61.9755C63.7656 62.6987 64.404 63.3315 65.1335 63.3315Z" fill="url(#paint26_linear)"/>
<path d="M66.6843 51.4887H67.5962C68.3258 51.4887 68.9641 50.8559 68.9641 50.1327C68.9641 49.4095 68.3258 48.7767 67.5962 48.7767H66.6843C65.9548 48.7767 65.3164 49.4095 65.3164 50.1327C65.3164 50.8559 65.9548 51.4887 66.6843 51.4887Z" fill="url(#paint27_linear)"/>
<path d="M61.2126 51.4887H62.1246C62.8541 51.4887 63.4925 50.8559 63.4925 50.1327C63.4925 49.4095 62.8541 48.7767 62.1246 48.7767H61.2126C60.4831 48.7767 59.8447 49.4095 59.8447 50.1327C59.8447 50.8559 60.4831 51.4887 61.2126 51.4887Z" fill="url(#paint28_linear)"/>
<path d="M25.4648 61.9755C25.4648 62.6987 26.1032 63.3315 26.8327 63.3315H27.7447C28.4742 63.3315 29.1126 62.6987 29.1126 61.9755C29.1126 61.2523 28.4742 60.6195 27.7447 60.6195H26.8327C26.1032 60.6195 25.4648 61.1619 25.4648 61.9755Z" fill="url(#paint29_linear)"/>
<path d="M18.7165 72.3713C17.987 72.3713 17.3486 73.0041 17.3486 73.7273C17.3486 74.4505 17.987 75.0833 18.7165 75.0833H19.6285C20.358 75.0833 20.9964 74.4505 20.9964 73.7273C20.9964 73.0041 20.358 72.3713 19.6285 72.3713H18.7165Z" fill="url(#paint30_linear)"/>
<path d="M24.1877 72.3713C23.4582 72.3713 22.8198 73.0041 22.8198 73.7273C22.8198 74.4505 23.4582 75.0833 24.1877 75.0833H25.0996C25.8292 75.0833 26.4675 74.4505 26.4675 73.7273C26.4675 73.0041 25.8292 72.3713 25.0996 72.3713H24.1877Z" fill="url(#paint31_linear)"/>
<path d="M16.8013 60.6195H15.8894C15.1598 60.6195 14.5215 61.2523 14.5215 61.9755C14.5215 62.6987 15.1598 63.3315 15.8894 63.3315H16.8013C17.5309 63.3315 18.1692 62.6987 18.1692 61.9755C18.1692 61.2523 17.5309 60.6195 16.8013 60.6195Z" fill="url(#paint32_linear)"/>
<path d="M6.67901 72.3712C6.31423 73.004 6.58781 73.8176 7.22616 74.1792C7.59094 74.36 7.86452 74.5408 8.22929 74.6312C8.95883 74.9024 9.68838 74.5408 9.96195 73.8176C10.2355 73.0944 9.87076 72.3712 9.14122 72.1C8.95883 72.0096 8.68525 71.9192 8.50287 71.8288C7.86452 71.4672 7.04378 71.7384 6.67901 72.3712Z" fill="url(#paint33_linear)"/>
<path d="M5.40252 62.8793C5.12894 63.1505 4.94656 63.4216 4.67298 63.7832C4.21701 64.416 4.3994 65.2296 4.94656 65.6816C5.49372 66.1336 6.40565 65.9528 6.86161 65.4104C6.86161 65.4104 6.86161 65.32 6.9528 65.32C7.044 65.1392 7.22638 64.9584 7.40877 64.7776C7.95593 64.2352 7.86473 63.3312 7.31758 62.8793C6.77042 62.3369 5.85849 62.4273 5.40252 62.8793Z" fill="url(#paint34_linear)"/>
<path d="M11.33 60.6195H10.3269C9.59733 60.6195 8.95898 61.2523 8.95898 61.9755C8.95898 62.6987 9.59733 63.3315 10.3269 63.3315H11.2388C11.9684 63.3315 12.6067 62.6987 12.6067 61.9755C12.6067 61.2523 12.0595 60.6195 11.33 60.6195Z" fill="url(#paint35_linear)"/>
<path d="M13.2453 72.3713C12.5158 72.3713 11.8774 73.0041 11.8774 73.7273C11.8774 74.4505 12.5158 75.0833 13.2453 75.0833H14.1573C14.8868 75.0833 15.5252 74.4505 15.5252 73.7273C15.5252 73.0041 14.8868 72.3713 14.1573 72.3713H13.2453Z" fill="url(#paint36_linear)"/>
<path d="M34.7666 48.7767H33.8547C33.1252 48.7767 32.4868 49.4095 32.4868 50.1327C32.4868 50.8559 33.1252 51.4887 33.8547 51.4887H34.7666C35.4962 51.4887 36.1345 50.8559 36.1345 50.1327C36.1345 49.4095 35.5874 48.7767 34.7666 48.7767Z" fill="url(#paint37_linear)"/>
<path d="M16.5524 23.8429C16.2695 25.0602 15.7036 25.9993 14.7841 26.834C13.1573 28.26 12.5207 30.3816 13.1927 32.1902C13.7232 33.5814 14.8195 34.7639 16.3049 35.4943C17.0829 35.8769 18.0024 36.0856 18.8866 36.0856C19.5939 36.0856 20.3366 35.9465 21.0085 35.703C21.539 35.4943 22.1402 35.39 22.7061 35.3552C23.3073 35.3552 23.9085 35.4943 24.439 35.703C25.9244 36.2943 27.6573 36.2247 29.1073 35.5291C30.5927 34.7987 31.689 33.651 32.2195 32.225C32.8915 30.4164 32.2549 28.3296 30.628 26.8688C29.7085 26.0688 29.1427 25.095 28.8598 23.8777C28.5768 22.6603 27.9756 21.6517 27.0561 20.9561C26.1012 20.2257 24.8634 19.7736 23.5549 19.5997L22.8476 19.5301H22.7061H22.6L21.8573 19.5649V19.5997C20.5488 19.7736 19.311 20.2257 18.3561 20.9561C17.4719 21.5822 16.8354 22.5908 16.5524 23.8429ZM19.2049 22.0343C20.089 21.3735 21.2915 20.9561 22.5646 20.9213H22.6354H22.7768C24.05 20.9561 25.2524 21.3735 26.1366 22.0343C26.9146 22.6256 27.2683 23.4951 27.4098 24.1211C27.7634 25.6167 28.4707 26.834 29.6024 27.8426C30.8049 28.886 31.2646 30.3816 30.8049 31.6685C30.4159 32.7467 29.5671 33.6162 28.4 34.1727C27.339 34.6944 25.9951 34.7639 24.8988 34.3118C24.1915 34.0335 23.4488 33.8944 22.6354 33.8944C21.8573 33.8944 21.1146 34.0683 20.4073 34.3118C19.311 34.7292 17.9671 34.6944 16.9061 34.1727C15.739 33.6162 14.8902 32.7119 14.5012 31.6685C14.0415 30.4164 14.5012 28.9208 15.7036 27.8426C16.8354 26.834 17.578 25.6167 17.8963 24.1211C18.0732 23.4951 18.4268 22.6256 19.2049 22.0343Z" fill="url(#paint38_linear)" stroke="url(#paint39_linear)" stroke-width="1.15031" stroke-miterlimit="10"/>
<path d="M14.4305 20.5037C13.8646 17.8604 11.9903 16.0518 10.222 16.4344C8.45367 16.817 7.49879 19.1821 8.06465 21.8254C8.6305 24.4687 10.5049 26.2773 12.2732 25.8947C14.0415 25.5121 14.9964 23.1471 14.4305 20.5037ZM13.0159 20.782C13.4403 22.7645 12.8037 24.3296 11.9549 24.5035C11.1061 24.6774 9.86831 23.4949 9.44392 21.5124C9.01953 19.5299 9.65611 17.9648 10.5049 17.7909C11.3537 17.617 12.5915 18.7995 13.0159 20.782Z" fill="url(#paint40_linear)" stroke="url(#paint41_linear)" stroke-width="1.15031" stroke-miterlimit="10"/>
<path d="M21.1148 12.7479C20.7965 9.72203 18.9574 7.53086 16.977 7.73954C14.9965 7.94822 13.6526 10.4524 14.0062 13.4783C14.3245 16.5042 16.1635 18.6954 18.144 18.4867C20.1245 18.278 21.4331 15.739 21.1148 12.7479ZM19.7001 12.887C19.9477 15.2173 18.9928 16.9911 17.9672 17.0955C16.9416 17.1998 15.6331 15.7043 15.3855 13.3392C15.1379 11.0089 16.0928 9.2351 17.1184 9.13076C18.144 9.02642 19.4526 10.522 19.7001 12.887Z" fill="url(#paint42_linear)" stroke="url(#paint43_linear)" stroke-width="1.15031" stroke-miterlimit="10"/>
<path d="M33.0684 25.8947C34.8367 26.2773 36.6758 24.4687 37.277 21.8254C37.8782 19.1821 36.9233 16.7822 35.1197 16.4344C33.3514 16.0518 31.5123 17.8604 30.9111 20.5037C30.3099 23.147 31.2648 25.5121 33.0684 25.8947ZM34.8367 17.7908C35.6855 17.9647 36.3221 19.5299 35.8977 21.5123C35.4733 23.4948 34.2355 24.6774 33.3867 24.5035C32.538 24.3296 31.9014 22.7644 32.3258 20.782C32.7502 18.7995 33.988 17.6169 34.8367 17.7908Z" fill="url(#paint44_linear)" stroke="url(#paint45_linear)" stroke-width="1.15031" stroke-miterlimit="10"/>
<path d="M27.1976 18.4867C29.2134 18.6954 31.0171 16.4694 31.3354 13.4783C31.6537 10.4524 30.3451 7.94822 28.3647 7.73954C26.3842 7.53086 24.5451 9.72203 24.2268 12.7479C23.9085 15.739 25.2171 18.278 27.1976 18.4867ZM28.2232 9.13076C29.2488 9.2351 30.2037 10.9741 29.9561 13.3392C29.7086 15.6695 28.4 17.1998 27.3744 17.0955C26.3488 16.9911 25.3939 15.2521 25.6415 12.887C25.889 10.522 27.1976 9.02642 28.2232 9.13076Z" fill="url(#paint46_linear)" stroke="url(#paint47_linear)" stroke-width="1.15031" stroke-miterlimit="10"/>
<defs>
<linearGradient id="paint0_linear" x1="22.3929" y1="0.378952" x2="22.3929" y2="51.3985" gradientUnits="userSpaceOnUse">
<stop stop-color="#6367C8"/>
<stop stop-color="#6367C8"/>
<stop offset="0.0001" stop-color="#6367C8"/>
<stop offset="0.0002" stop-color="#6467C8"/>
<stop offset="0.0003" stop-color="#6367C8"/>
<stop offset="1" stop-color="#944DD7"/>
</linearGradient>
<linearGradient id="paint1_linear" x1="45.2535" y1="48.7767" x2="45.2535" y2="51.4887" gradientUnits="userSpaceOnUse">
<stop stop-color="#6367C8"/>
<stop stop-color="#6367C8"/>
<stop offset="0.0001" stop-color="#6367C8"/>
<stop offset="0.0002" stop-color="#6467C8"/>
<stop offset="0.0003" stop-color="#6367C8"/>
<stop offset="1" stop-color="#944DD7"/>
</linearGradient>
<linearGradient id="paint2_linear" x1="46.5304" y1="72.3713" x2="46.5304" y2="75.0833" gradientUnits="userSpaceOnUse">
<stop stop-color="#6367C8"/>
<stop stop-color="#6367C8"/>
<stop offset="0.0001" stop-color="#6367C8"/>
<stop offset="0.0002" stop-color="#6467C8"/>
<stop offset="0.0003" stop-color="#6367C8"/>
<stop offset="1" stop-color="#944DD7"/>
</linearGradient>
<linearGradient id="paint3_linear" x1="41.0592" y1="72.3713" x2="41.0592" y2="75.0833" gradientUnits="userSpaceOnUse">
<stop stop-color="#6367C8"/>
<stop stop-color="#6367C8"/>
<stop offset="0.0001" stop-color="#6367C8"/>
<stop offset="0.0002" stop-color="#6467C8"/>
<stop offset="0.0003" stop-color="#6367C8"/>
<stop offset="1" stop-color="#944DD7"/>
</linearGradient>
<linearGradient id="paint4_linear" x1="43.7033" y1="60.6195" x2="43.7033" y2="63.3315" gradientUnits="userSpaceOnUse">
<stop stop-color="#6367C8"/>
<stop stop-color="#6367C8"/>
<stop offset="0.0001" stop-color="#6367C8"/>
<stop offset="0.0002" stop-color="#6467C8"/>
<stop offset="0.0003" stop-color="#6367C8"/>
<stop offset="1" stop-color="#944DD7"/>
</linearGradient>
<linearGradient id="paint5_linear" x1="38.2321" y1="60.6195" x2="38.2321" y2="63.3315" gradientUnits="userSpaceOnUse">
<stop stop-color="#6367C8"/>
<stop stop-color="#6367C8"/>
<stop offset="0.0001" stop-color="#6367C8"/>
<stop offset="0.0002" stop-color="#6467C8"/>
<stop offset="0.0003" stop-color="#6367C8"/>
<stop offset="1" stop-color="#944DD7"/>
</linearGradient>
<linearGradient id="paint6_linear" x1="39.7824" y1="48.7767" x2="39.7824" y2="51.4887" gradientUnits="userSpaceOnUse">
<stop stop-color="#6367C8"/>
<stop stop-color="#6367C8"/>
<stop offset="0.0001" stop-color="#6367C8"/>
<stop offset="0.0002" stop-color="#6467C8"/>
<stop offset="0.0003" stop-color="#6367C8"/>
<stop offset="1" stop-color="#944DD7"/>
</linearGradient>
<linearGradient id="paint7_linear" x1="30.1159" y1="72.3713" x2="30.1159" y2="75.0833" gradientUnits="userSpaceOnUse">
<stop stop-color="#6367C8"/>
<stop stop-color="#6367C8"/>
<stop offset="0.0001" stop-color="#6367C8"/>
<stop offset="0.0002" stop-color="#6467C8"/>
<stop offset="0.0003" stop-color="#6367C8"/>
<stop offset="1" stop-color="#944DD7"/>
</linearGradient>
<linearGradient id="paint8_linear" x1="35.587" y1="72.3713" x2="35.587" y2="75.0833" gradientUnits="userSpaceOnUse">
<stop stop-color="#6367C8"/>
<stop stop-color="#6367C8"/>
<stop offset="0.0001" stop-color="#6367C8"/>
<stop offset="0.0002" stop-color="#6467C8"/>
<stop offset="0.0003" stop-color="#6367C8"/>
<stop offset="1" stop-color="#944DD7"/>
</linearGradient>
<linearGradient id="paint9_linear" x1="32.7604" y1="60.6195" x2="32.7604" y2="63.3315" gradientUnits="userSpaceOnUse">
<stop stop-color="#6367C8"/>
<stop stop-color="#6367C8"/>
<stop offset="0.0001" stop-color="#6367C8"/>
<stop offset="0.0002" stop-color="#6467C8"/>
<stop offset="0.0003" stop-color="#6367C8"/>
<stop offset="1" stop-color="#944DD7"/>
</linearGradient>
<linearGradient id="paint10_linear" x1="49.1754" y1="60.6195" x2="49.1754" y2="63.3315" gradientUnits="userSpaceOnUse">
<stop stop-color="#6367C8"/>
<stop stop-color="#6367C8"/>
<stop offset="0.0001" stop-color="#6367C8"/>
<stop offset="0.0002" stop-color="#6467C8"/>
<stop offset="0.0003" stop-color="#6367C8"/>
<stop offset="1" stop-color="#944DD7"/>
</linearGradient>
<linearGradient id="paint11_linear" x1="57.4738" y1="72.3713" x2="57.4738" y2="75.0833" gradientUnits="userSpaceOnUse">
<stop stop-color="#6367C8"/>
<stop stop-color="#6367C8"/>
<stop offset="0.0001" stop-color="#6367C8"/>
<stop offset="0.0002" stop-color="#6467C8"/>
<stop offset="0.0003" stop-color="#6367C8"/>
<stop offset="1" stop-color="#944DD7"/>
</linearGradient>
<linearGradient id="paint12_linear" x1="56.1969" y1="48.7767" x2="56.1969" y2="51.4887" gradientUnits="userSpaceOnUse">
<stop stop-color="#6367C8"/>
<stop stop-color="#6367C8"/>
<stop offset="0.0001" stop-color="#6367C8"/>
<stop offset="0.0002" stop-color="#6467C8"/>
<stop offset="0.0003" stop-color="#6367C8"/>
<stop offset="1" stop-color="#944DD7"/>
</linearGradient>
<linearGradient id="paint13_linear" x1="62.945" y1="72.3713" x2="62.945" y2="75.0833" gradientUnits="userSpaceOnUse">
<stop stop-color="#6367C8"/>
<stop stop-color="#6367C8"/>
<stop offset="0.0001" stop-color="#6367C8"/>
<stop offset="0.0002" stop-color="#6467C8"/>
<stop offset="0.0003" stop-color="#6367C8"/>
<stop offset="1" stop-color="#944DD7"/>
</linearGradient>
<linearGradient id="paint14_linear" x1="60.1183" y1="60.6195" x2="60.1183" y2="63.3315" gradientUnits="userSpaceOnUse">
<stop stop-color="#6367C8"/>
<stop stop-color="#6367C8"/>
<stop offset="0.0001" stop-color="#6367C8"/>
<stop offset="0.0002" stop-color="#6467C8"/>
<stop offset="0.0003" stop-color="#6367C8"/>
<stop offset="1" stop-color="#944DD7"/>
</linearGradient>
<linearGradient id="paint15_linear" x1="54.6466" y1="60.6195" x2="54.6466" y2="63.3315" gradientUnits="userSpaceOnUse">
<stop stop-color="#6367C8"/>
<stop stop-color="#6367C8"/>
<stop offset="0.0001" stop-color="#6367C8"/>
<stop offset="0.0002" stop-color="#6467C8"/>
<stop offset="0.0003" stop-color="#6367C8"/>
<stop offset="1" stop-color="#944DD7"/>
</linearGradient>
<linearGradient id="paint16_linear" x1="50.7252" y1="48.7767" x2="50.7252" y2="51.4887" gradientUnits="userSpaceOnUse">
<stop stop-color="#6367C8"/>
<stop stop-color="#6367C8"/>
<stop offset="0.0001" stop-color="#6367C8"/>
<stop offset="0.0002" stop-color="#6467C8"/>
<stop offset="0.0003" stop-color="#6367C8"/>
<stop offset="1" stop-color="#944DD7"/>
</linearGradient>
<linearGradient id="paint17_linear" x1="28.839" y1="48.7767" x2="28.839" y2="51.4887" gradientUnits="userSpaceOnUse">
<stop stop-color="#6367C8"/>
<stop stop-color="#6367C8"/>
<stop offset="0.0001" stop-color="#6367C8"/>
<stop offset="0.0002" stop-color="#6467C8"/>
<stop offset="0.0003" stop-color="#6367C8"/>
<stop offset="1" stop-color="#944DD7"/>
</linearGradient>
<linearGradient id="paint18_linear" x1="52.0016" y1="72.3713" x2="52.0016" y2="75.0833" gradientUnits="userSpaceOnUse">
<stop stop-color="#6367C8"/>
<stop stop-color="#6367C8"/>
<stop offset="0.0001" stop-color="#6367C8"/>
<stop offset="0.0002" stop-color="#6467C8"/>
<stop offset="0.0003" stop-color="#6367C8"/>
<stop offset="1" stop-color="#944DD7"/>
</linearGradient>
<linearGradient id="paint19_linear" x1="21.8175" y1="60.6195" x2="21.8175" y2="63.3315" gradientUnits="userSpaceOnUse">
<stop stop-color="#6367C8"/>
<stop stop-color="#6367C8"/>
<stop offset="0.0001" stop-color="#6367C8"/>
<stop offset="0.0002" stop-color="#6467C8"/>
<stop offset="0.0003" stop-color="#6367C8"/>
<stop offset="1" stop-color="#944DD7"/>
</linearGradient>
<linearGradient id="paint20_linear" x1="73.706" y1="72.3713" x2="73.706" y2="75.0833" gradientUnits="userSpaceOnUse">
<stop stop-color="#6367C8"/>
<stop stop-color="#6367C8"/>
<stop offset="0.0001" stop-color="#6367C8"/>
<stop offset="0.0002" stop-color="#6467C8"/>
<stop offset="0.0003" stop-color="#6367C8"/>
<stop offset="1" stop-color="#944DD7"/>
</linearGradient>
<linearGradient id="paint21_linear" x1="4.96893" y1="67.2992" x2="4.96893" y2="71.095" gradientUnits="userSpaceOnUse">
<stop stop-color="#6367C8"/>
<stop stop-color="#6367C8"/>
<stop offset="0.0001" stop-color="#6367C8"/>
<stop offset="0.0002" stop-color="#6467C8"/>
<stop offset="0.0003" stop-color="#6367C8"/>
<stop offset="1" stop-color="#944DD7"/>
</linearGradient>
<linearGradient id="paint22_linear" x1="68.4171" y1="72.3713" x2="68.4171" y2="75.0833" gradientUnits="userSpaceOnUse">
<stop stop-color="#6367C8"/>
<stop stop-color="#6367C8"/>
<stop offset="0.0001" stop-color="#6367C8"/>
<stop offset="0.0002" stop-color="#6467C8"/>
<stop offset="0.0003" stop-color="#6367C8"/>
<stop offset="1" stop-color="#944DD7"/>
</linearGradient>
<linearGradient id="paint23_linear" x1="72.0826" y1="50.0397" x2="72.0826" y2="53.4805" gradientUnits="userSpaceOnUse">
<stop stop-color="#6367C8"/>
<stop stop-color="#6367C8"/>
<stop offset="0.0001" stop-color="#6367C8"/>
<stop offset="0.0002" stop-color="#6467C8"/>
<stop offset="0.0003" stop-color="#6367C8"/>
<stop offset="1" stop-color="#944DD7"/>
</linearGradient>
<linearGradient id="paint24_linear" x1="73.8682" y1="55.0044" x2="73.8682" y2="58.6303" gradientUnits="userSpaceOnUse">
<stop stop-color="#6367C8"/>
<stop stop-color="#6367C8"/>
<stop offset="0.0001" stop-color="#6367C8"/>
<stop offset="0.0002" stop-color="#6467C8"/>
<stop offset="0.0003" stop-color="#6367C8"/>
<stop offset="1" stop-color="#944DD7"/>
</linearGradient>
<linearGradient id="paint25_linear" x1="70.858" y1="59.5272" x2="70.858" y2="62.6985" gradientUnits="userSpaceOnUse">
<stop stop-color="#6367C8"/>
<stop stop-color="#6367C8"/>
<stop offset="0.0001" stop-color="#6367C8"/>
<stop offset="0.0002" stop-color="#6467C8"/>
<stop offset="0.0003" stop-color="#6367C8"/>
<stop offset="1" stop-color="#944DD7"/>
</linearGradient>
<linearGradient id="paint26_linear" x1="65.5895" y1="60.6195" x2="65.5895" y2="63.3315" gradientUnits="userSpaceOnUse">
<stop stop-color="#6367C8"/>
<stop stop-color="#6367C8"/>
<stop offset="0.0001" stop-color="#6367C8"/>
<stop offset="0.0002" stop-color="#6467C8"/>
<stop offset="0.0003" stop-color="#6367C8"/>
<stop offset="1" stop-color="#944DD7"/>
</linearGradient>
<linearGradient id="paint27_linear" x1="67.1403" y1="48.7767" x2="67.1403" y2="51.4887" gradientUnits="userSpaceOnUse">
<stop stop-color="#6367C8"/>
<stop stop-color="#6367C8"/>
<stop offset="0.0001" stop-color="#6367C8"/>
<stop offset="0.0002" stop-color="#6467C8"/>
<stop offset="0.0003" stop-color="#6367C8"/>
<stop offset="1" stop-color="#944DD7"/>
</linearGradient>
<linearGradient id="paint28_linear" x1="61.6686" y1="48.7767" x2="61.6686" y2="51.4887" gradientUnits="userSpaceOnUse">
<stop stop-color="#6367C8"/>
<stop stop-color="#6367C8"/>
<stop offset="0.0001" stop-color="#6367C8"/>
<stop offset="0.0002" stop-color="#6467C8"/>
<stop offset="0.0003" stop-color="#6367C8"/>
<stop offset="1" stop-color="#944DD7"/>
</linearGradient>
<linearGradient id="paint29_linear" x1="27.2887" y1="60.6195" x2="27.2887" y2="63.3315" gradientUnits="userSpaceOnUse">
<stop stop-color="#6367C8"/>
<stop stop-color="#6367C8"/>
<stop offset="0.0001" stop-color="#6367C8"/>
<stop offset="0.0002" stop-color="#6467C8"/>
<stop offset="0.0003" stop-color="#6367C8"/>
<stop offset="1" stop-color="#944DD7"/>
</linearGradient>
<linearGradient id="paint30_linear" x1="19.1725" y1="72.3713" x2="19.1725" y2="75.0833" gradientUnits="userSpaceOnUse">
<stop stop-color="#6367C8"/>
<stop stop-color="#6367C8"/>
<stop offset="0.0001" stop-color="#6367C8"/>
<stop offset="0.0002" stop-color="#6467C8"/>
<stop offset="0.0003" stop-color="#6367C8"/>
<stop offset="1" stop-color="#944DD7"/>
</linearGradient>
<linearGradient id="paint31_linear" x1="24.6437" y1="72.3713" x2="24.6437" y2="75.0833" gradientUnits="userSpaceOnUse">
<stop stop-color="#6367C8"/>
<stop stop-color="#6367C8"/>
<stop offset="0.0001" stop-color="#6367C8"/>
<stop offset="0.0002" stop-color="#6467C8"/>
<stop offset="0.0003" stop-color="#6367C8"/>
<stop offset="1" stop-color="#944DD7"/>
</linearGradient>
<linearGradient id="paint32_linear" x1="16.3453" y1="60.6195" x2="16.3453" y2="63.3315" gradientUnits="userSpaceOnUse">
<stop stop-color="#6367C8"/>
<stop stop-color="#6367C8"/>
<stop offset="0.0001" stop-color="#6367C8"/>
<stop offset="0.0002" stop-color="#6467C8"/>
<stop offset="0.0003" stop-color="#6367C8"/>
<stop offset="1" stop-color="#944DD7"/>
</linearGradient>
<linearGradient id="paint33_linear" x1="8.28421" y1="71.6669" x2="8.28421" y2="74.7213" gradientUnits="userSpaceOnUse">
<stop stop-color="#6367C8"/>
<stop stop-color="#6367C8"/>
<stop offset="0.0001" stop-color="#6367C8"/>
<stop offset="0.0002" stop-color="#6467C8"/>
<stop offset="0.0003" stop-color="#6367C8"/>
<stop offset="1" stop-color="#944DD7"/>
</linearGradient>
<linearGradient id="paint34_linear" x1="6.09546" y1="62.5056" x2="6.09546" y2="65.9378" gradientUnits="userSpaceOnUse">
<stop stop-color="#6367C8"/>
<stop stop-color="#6367C8"/>
<stop offset="0.0001" stop-color="#6367C8"/>
<stop offset="0.0002" stop-color="#6467C8"/>
<stop offset="0.0003" stop-color="#6367C8"/>
<stop offset="1" stop-color="#944DD7"/>
</linearGradient>
<linearGradient id="paint35_linear" x1="10.7828" y1="60.6195" x2="10.7828" y2="63.3315" gradientUnits="userSpaceOnUse">
<stop stop-color="#6367C8"/>
<stop stop-color="#6367C8"/>
<stop offset="0.0001" stop-color="#6367C8"/>
<stop offset="0.0002" stop-color="#6467C8"/>
<stop offset="0.0003" stop-color="#6367C8"/>
<stop offset="1" stop-color="#944DD7"/>
</linearGradient>
<linearGradient id="paint36_linear" x1="13.7013" y1="72.3713" x2="13.7013" y2="75.0833" gradientUnits="userSpaceOnUse">
<stop stop-color="#6367C8"/>
<stop stop-color="#6367C8"/>
<stop offset="0.0001" stop-color="#6367C8"/>
<stop offset="0.0002" stop-color="#6467C8"/>
<stop offset="0.0003" stop-color="#6367C8"/>
<stop offset="1" stop-color="#944DD7"/>
</linearGradient>
<linearGradient id="paint37_linear" x1="34.3107" y1="48.7767" x2="34.3107" y2="51.4887" gradientUnits="userSpaceOnUse">
<stop stop-color="#6367C8"/>
<stop stop-color="#6367C8"/>
<stop offset="0.0001" stop-color="#6367C8"/>
<stop offset="0.0002" stop-color="#6467C8"/>
<stop offset="0.0003" stop-color="#6367C8"/>
<stop offset="1" stop-color="#944DD7"/>
</linearGradient>
<linearGradient id="paint38_linear" x1="22.7061" y1="19.5301" x2="22.7061" y2="36.1029" gradientUnits="userSpaceOnUse">
<stop stop-color="#6367C8"/>
<stop stop-color="#6367C8"/>
<stop offset="0.0001" stop-color="#6367C8"/>
<stop offset="0.0002" stop-color="#6467C8"/>
<stop offset="0.0003" stop-color="#6367C8"/>
<stop offset="1" stop-color="#944DD7"/>
</linearGradient>
<linearGradient id="paint39_linear" x1="22.7061" y1="19.5301" x2="22.7061" y2="36.1029" gradientUnits="userSpaceOnUse">
<stop stop-color="#6367C8"/>
<stop stop-color="#6367C8"/>
<stop offset="0.0001" stop-color="#6367C8"/>
<stop offset="0.0002" stop-color="#6467C8"/>
<stop offset="0.0003" stop-color="#6367C8"/>
<stop offset="1" stop-color="#944DD7"/>
</linearGradient>
<linearGradient id="paint40_linear" x1="11.2476" y1="16.3834" x2="11.2476" y2="25.9458" gradientUnits="userSpaceOnUse">
<stop stop-color="#6367C8"/>
<stop stop-color="#6367C8"/>
<stop offset="0.0001" stop-color="#6367C8"/>
<stop offset="0.0002" stop-color="#6467C8"/>
<stop offset="0.0003" stop-color="#6367C8"/>
<stop offset="1" stop-color="#944DD7"/>
</linearGradient>
<linearGradient id="paint41_linear" x1="11.2476" y1="16.3834" x2="11.2476" y2="25.9458" gradientUnits="userSpaceOnUse">
<stop stop-color="#6367C8"/>
<stop stop-color="#6367C8"/>
<stop offset="0.0001" stop-color="#6367C8"/>
<stop offset="0.0002" stop-color="#6467C8"/>
<stop offset="0.0003" stop-color="#6367C8"/>
<stop offset="1" stop-color="#944DD7"/>
</linearGradient>
<linearGradient id="paint42_linear" x1="17.5561" y1="7.7258" x2="17.5561" y2="18.5004" gradientUnits="userSpaceOnUse">
<stop stop-color="#6367C8"/>
<stop stop-color="#6367C8"/>
<stop offset="0.0001" stop-color="#6367C8"/>
<stop offset="0.0002" stop-color="#6467C8"/>
<stop offset="0.0003" stop-color="#6367C8"/>
<stop offset="1" stop-color="#944DD7"/>
</linearGradient>
<linearGradient id="paint43_linear" x1="17.5561" y1="7.7258" x2="17.5561" y2="18.5004" gradientUnits="userSpaceOnUse">
<stop stop-color="#6367C8"/>
<stop stop-color="#6367C8"/>
<stop offset="0.0001" stop-color="#6367C8"/>
<stop offset="0.0002" stop-color="#6467C8"/>
<stop offset="0.0003" stop-color="#6367C8"/>
<stop offset="1" stop-color="#944DD7"/>
</linearGradient>
<linearGradient id="paint44_linear" x1="34.0941" y1="16.3834" x2="34.0941" y2="25.9457" gradientUnits="userSpaceOnUse">
<stop stop-color="#6367C8"/>
<stop stop-color="#6367C8"/>
<stop offset="0.0001" stop-color="#6367C8"/>
<stop offset="0.0002" stop-color="#6467C8"/>
<stop offset="0.0003" stop-color="#6367C8"/>
<stop offset="1" stop-color="#944DD7"/>
</linearGradient>
<linearGradient id="paint45_linear" x1="34.0941" y1="16.3834" x2="34.0941" y2="25.9457" gradientUnits="userSpaceOnUse">
<stop stop-color="#6367C8"/>
<stop stop-color="#6367C8"/>
<stop offset="0.0001" stop-color="#6367C8"/>
<stop offset="0.0002" stop-color="#6467C8"/>
<stop offset="0.0003" stop-color="#6367C8"/>
<stop offset="1" stop-color="#944DD7"/>
</linearGradient>
<linearGradient id="paint46_linear" x1="27.7811" y1="7.7258" x2="27.7811" y2="18.5002" gradientUnits="userSpaceOnUse">
<stop stop-color="#6367C8"/>
<stop stop-color="#6367C8"/>
<stop offset="0.0001" stop-color="#6367C8"/>
<stop offset="0.0002" stop-color="#6467C8"/>
<stop offset="0.0003" stop-color="#6367C8"/>
<stop offset="1" stop-color="#944DD7"/>
</linearGradient>
<linearGradient id="paint47_linear" x1="27.7811" y1="7.7258" x2="27.7811" y2="18.5002" gradientUnits="userSpaceOnUse">
<stop stop-color="#6367C8"/>
<stop stop-color="#6367C8"/>
<stop offset="0.0001" stop-color="#6367C8"/>
<stop offset="0.0002" stop-color="#6467C8"/>
<stop offset="0.0003" stop-color="#6367C8"/>
<stop offset="1" stop-color="#944DD7"/>
</linearGradient>
</defs>
</svg>
