<svg width="37" height="42" viewBox="0 0 37 42" fill="none" xmlns="http://www.w3.org/2000/svg">
<path d="M16.7 8.0001H18.8C19.2 8.0001 19.5 7.7001 19.5 7.3001C19.5 6.9001 19.2 6.6001 18.8 6.6001H16.7C16.3 6.6001 16 6.9001 16 7.3001C16 7.7001 16.2 8.0001 16.7 8.0001Z" fill="url(#paint0_linear)"/>
<path d="M7.00002 9.39969C7.10002 9.39969 7.30002 9.29969 7.40002 9.29969C8.00002 8.89969 8.60002 8.59969 9.10002 8.39969C9.50002 8.29969 9.70002 7.89969 9.50002 7.49969C9.40002 6.99969 9.10002 6.89969 8.70002 6.99969C8.00002 7.29969 7.30002 7.59969 6.70002 8.09969C6.30002 8.29969 6.30002 8.69969 6.50002 9.09969C6.60002 9.19969 6.80002 9.39969 7.00002 9.39969Z" fill="url(#paint1_linear)"/>
<path d="M3.80004 13.1996C3.90004 13.2996 3.90004 13.2996 4.00004 13.2996C4.30004 13.2996 4.60004 13.0996 4.60004 12.7996C4.90004 12.0996 5.20004 11.4996 5.50004 10.9996C5.70004 10.5996 5.60004 10.1996 5.40004 9.99964C5.10004 9.79964 4.60004 9.89964 4.40004 10.0996C4.00004 10.7996 3.60004 11.4996 3.40004 12.1996C3.30004 12.6996 3.50004 12.9996 3.80004 13.1996Z" fill="url(#paint2_linear)"/>
<path d="M9.20029 22.0001C9.10029 22.4001 9.30029 22.7001 9.70029 22.8001C10.3003 22.9001 10.9003 23.0001 11.5003 23.0001H12.0003C12.4003 23.0001 12.7003 22.7001 12.7003 22.3001C12.7003 21.9001 12.4003 21.6001 12.0003 21.6001H11.4003C10.9003 21.6001 10.4003 21.5001 9.90029 21.5001C9.60029 21.4001 9.30029 21.6001 9.20029 22.0001Z" fill="url(#paint3_linear)"/>
<path d="M11.7 8.0001H13.8C14.2 8.0001 14.5 7.7001 14.5 7.3001C14.5 6.9001 14.2 6.6001 13.8 6.6001H11.7C11.2 6.6001 11 6.9001 11 7.3001C11 7.7001 11.3 8.0001 11.7 8.0001Z" fill="url(#paint4_linear)"/>
<path d="M4.1 18.1C4.2 18.1 4.2 18.1 4.4 18C4.8 17.9 5 17.4 4.8 17.1C4.6 16.5 4.4 15.9 4.4 15.3C4.4 14.9 4 14.6 3.6 14.7C3.2 14.7 3 15 3 15.4C3.1 16.2 3.2 16.9 3.5 17.7C3.6 17.9 3.8 18.1 4.1 18.1Z" fill="url(#paint5_linear)"/>
<path d="M14 22.3001C14 22.7001 14.3 23.0001 14.7 23.0001H16.8C17.2 23.0001 17.5 22.7001 17.5 22.3001C17.5 21.9001 17.2 21.6001 16.8 21.6001H14.7C14.4 21.6001 14 21.9001 14 22.3001Z" fill="url(#paint6_linear)"/>
<path d="M22.1999 21.6001H20.0999C19.6999 21.6001 19.3999 21.9001 19.3999 22.3001C19.3999 22.7001 19.6999 23.0001 20.0999 23.0001H22.1999C22.5999 23.0001 22.8999 22.7001 22.8999 22.3001C22.8999 21.9001 22.5999 21.6001 22.1999 21.6001Z" fill="url(#paint7_linear)"/>
<path d="M27.1998 21.7001C26.8998 21.7001 26.6998 21.6001 26.3998 21.6001H24.9998C24.5998 21.6001 24.2998 21.9001 24.2998 22.3001C24.2998 22.7001 24.5998 23.0001 24.9998 23.0001H26.3998C26.5998 23.0001 26.7998 23.0001 26.9998 23.0001H27.0998C27.4998 23.0001 27.6998 22.7001 27.7998 22.4001C27.8998 22.0001 27.5998 21.7001 27.1998 21.7001Z" fill="url(#paint8_linear)"/>
<path d="M19.8999 37.9002C19.8999 38.3002 20.1999 38.6002 20.5999 38.6002H22.6999C23.0999 38.6002 23.3999 38.3002 23.3999 37.9002C23.3999 37.5002 23.0999 37.2002 22.6999 37.2002H20.5999C20.2999 37.2002 19.8999 37.6002 19.8999 37.9002Z" fill="url(#paint9_linear)"/>
<path d="M15 37.9002C15 38.3002 15.3 38.6002 15.7 38.6002H17.8C18.2 38.6002 18.5 38.3002 18.5 37.9002C18.5 37.5002 18.2 37.2002 17.8 37.2002H15.7C15.4 37.2002 15 37.6002 15 37.9002Z" fill="url(#paint10_linear)"/>
<path d="M30.3001 37.6C30.4001 37.6 30.5001 37.6 30.7001 37.5C31.4001 37.1 32.0001 36.7 32.5001 36.1C32.8001 35.8 32.8001 35.4 32.5001 35.1C32.2001 34.8 31.8001 34.8 31.5001 35.1C31.1001 35.5 30.5001 35.9 30.0001 36.3C29.6001 36.5 29.6001 36.9 29.7001 37.3C29.9001 37.5 30.1001 37.6 30.3001 37.6Z" fill="url(#paint11_linear)"/>
<path d="M34.1002 29.1002C34.2002 29.1002 34.2002 29.1002 34.2002 29.1002C34.6002 29.0002 34.8002 28.7002 34.8002 28.3002C34.7002 27.5002 34.4002 26.8002 34.0002 26.1002C33.8002 25.7002 33.4002 25.6002 33.1002 25.8002C32.7002 26.0002 32.6002 26.4002 32.8002 26.7002C33.1002 27.3002 33.3002 27.9002 33.4002 28.5002C33.4002 28.9002 33.7002 29.1002 34.1002 29.1002Z" fill="url(#paint12_linear)"/>
<path d="M26.3999 37.2001H25.5999C25.1999 37.2001 24.8999 37.5001 24.8999 37.9001C24.8999 38.3001 25.1999 38.6001 25.5999 38.6001H26.3999C26.8999 38.6001 27.3999 38.5001 27.7999 38.5001C28.1999 38.4001 28.3999 38.1001 28.3999 37.7001C28.2999 37.3001 27.9999 37.1001 27.5999 37.1001C27.1999 37.2001 26.7999 37.2001 26.3999 37.2001Z" fill="url(#paint13_linear)"/>
<path d="M33.4003 33.8998C33.5003 33.9998 33.6003 33.9999 33.7003 33.9999C34.0003 33.9999 34.3003 33.8999 34.3003 33.5999C34.6003 32.8999 34.8003 32.0998 34.9003 31.2998C35.0003 30.8998 34.7003 30.5999 34.3003 30.4999C33.9003 30.3999 33.6003 30.6999 33.5003 31.0999C33.4003 31.6999 33.3003 32.3998 33.0003 32.8998C32.8003 33.2998 33.0003 33.7998 33.4003 33.8998Z" fill="url(#paint14_linear)"/>
<path d="M31.2003 24.8003C31.3003 24.9003 31.5003 24.9003 31.7003 24.9003C31.9003 24.9003 32.1003 24.8003 32.3003 24.7003C32.6003 24.4003 32.5003 24.0003 32.2003 23.7003C31.6003 23.2003 31.0003 22.8003 30.3003 22.4003C29.9003 22.3003 29.5003 22.4003 29.4003 22.8003C29.3003 23.2003 29.4003 23.6003 29.8003 23.7003C30.1003 24.0003 30.7003 24.3003 31.2003 24.8003Z" fill="url(#paint15_linear)"/>
<path d="M5.09974 19.1998C4.79974 19.4998 4.79974 19.8998 4.99974 20.1998C5.49974 20.7998 6.09974 21.2998 6.79974 21.6998C6.89974 21.7998 6.99974 21.7998 7.19974 21.7998C7.39974 21.7998 7.69974 21.6998 7.79974 21.3998C7.99974 20.9998 7.89974 20.5998 7.59974 20.3998C6.99974 19.9998 6.49974 19.5998 6.09974 19.1998C5.89974 18.9998 5.49974 18.9998 5.09974 19.1998Z" fill="url(#paint16_linear)"/>
<path d="M22.3507 11.4858C22.2338 11.5992 22.2338 11.7126 22.2338 11.8259L22 14.6599C22 14.7733 22.1169 15 22.3507 15L25.3904 14.7733C25.5073 14.7733 25.6242 14.7733 25.7411 14.6599L32.5219 7.8583L29.1315 4.79757L22.3507 11.4858ZM30.6514 2.98381L34.0418 6.04453L35.9123 4.11741C36.0292 4.00405 36.0292 3.66397 35.9123 3.43725L33.3403 1.17004C33.1065 0.94332 32.7557 0.94332 32.5219 1.17004L30.6514 2.98381Z" stroke="url(#paint17_linear)" stroke-width="1.3" stroke-miterlimit="10" stroke-linecap="round" stroke-linejoin="round"/>
<g clip-path="url(#clip0)">
<path d="M5.87016 35.7217C5.64118 35.7041 5.41125 35.7041 5.18227 35.7217C4.71825 35.7645 4.27564 35.9423 3.9061 36.2343C3.54914 36.5151 3.31425 36.9295 3.25245 37.3874C3.16732 37.7782 2.97249 38.1347 2.69217 38.4125C2.40475 38.6606 2.19519 38.9908 2.08993 39.3613C1.98468 39.7319 1.98845 40.1262 2.10078 40.4946C2.30703 41.0603 2.72048 41.5203 3.25245 41.7759C3.54088 41.929 3.86174 42.0061 4.18623 42.0001C4.45296 41.9962 4.71672 41.9419 4.96439 41.84C5.14337 41.767 5.33249 41.7237 5.52466 41.7118C5.71683 41.7237 5.90594 41.767 6.08493 41.84C6.3326 41.9419 6.59636 41.9962 6.86309 42.0001C7.17369 42.0014 7.48113 41.9359 7.76575 41.8079C7.79687 41.8079 7.828 41.7759 7.85912 41.7759C8.36574 41.5203 8.75627 41.0725 8.94854 40.5266C9.02826 40.1434 9.00679 39.7452 8.88636 39.3734C8.76594 39.0016 8.55096 38.6698 8.26376 38.4125C7.96211 38.1523 7.76293 37.7879 7.70349 37.3874C7.6265 36.935 7.39462 36.5259 7.04984 36.2343C6.70186 35.9671 6.2959 35.7912 5.86705 35.7217" fill="url(#paint18_linear)"/>
<path d="M1.93105 37.8657C2.5573 37.6294 2.78105 36.6408 2.43081 35.6574C2.08058 34.6741 1.28898 34.0685 0.662732 34.3047C0.0364834 34.5409 -0.187269 35.5296 0.162966 36.5129C0.513202 37.4963 1.3048 38.1019 1.93105 37.8657Z" fill="url(#paint19_linear)"/>
<path d="M3.96665 35.2978C4.72644 35.1797 5.20146 34.1239 5.02764 32.9397C4.85381 31.7554 4.09696 30.8912 3.33716 31.0093C2.57736 31.1274 2.10234 32.1832 2.27617 33.3674C2.45 34.5517 3.20685 35.416 3.96665 35.2978Z" fill="url(#paint20_linear)"/>
<path d="M10.8351 36.51C11.1853 35.5267 10.9616 34.538 10.3353 34.3018C9.7091 34.0656 8.9175 34.6712 8.56726 35.6546C8.21703 36.6379 8.44078 37.6266 9.06703 37.8628C9.69328 38.099 10.4849 37.4934 10.8351 36.51Z" fill="url(#paint21_linear)"/>
<path d="M8.72539 33.366C8.89922 32.1817 8.4242 31.1259 7.6644 31.0078C6.9046 30.8897 6.14775 31.754 5.97392 32.9382C5.8001 34.1225 6.27512 35.1783 7.03491 35.2964C7.79471 35.4145 8.55156 34.5502 8.72539 33.366Z" fill="url(#paint22_linear)"/>
</g>
<defs>
<linearGradient id="paint0_linear" x1="17.75" y1="6.6001" x2="17.75" y2="8.0001" gradientUnits="userSpaceOnUse">
<stop stop-color="#6367C8"/>
<stop offset="1" stop-color="#944DD7"/>
</linearGradient>
<linearGradient id="paint1_linear" x1="7.97357" y1="6.96484" x2="7.97357" y2="9.39969" gradientUnits="userSpaceOnUse">
<stop stop-color="#6367C8"/>
<stop offset="1" stop-color="#944DD7"/>
</linearGradient>
<linearGradient id="paint2_linear" x1="4.49154" y1="9.89062" x2="4.49154" y2="13.2996" gradientUnits="userSpaceOnUse">
<stop stop-color="#6367C8"/>
<stop offset="1" stop-color="#944DD7"/>
</linearGradient>
<linearGradient id="paint3_linear" x1="10.9375" y1="21.4746" x2="10.9375" y2="23.0001" gradientUnits="userSpaceOnUse">
<stop stop-color="#6367C8"/>
<stop offset="1" stop-color="#944DD7"/>
</linearGradient>
<linearGradient id="paint4_linear" x1="12.75" y1="6.6001" x2="12.75" y2="8.0001" gradientUnits="userSpaceOnUse">
<stop stop-color="#6367C8"/>
<stop offset="1" stop-color="#944DD7"/>
</linearGradient>
<linearGradient id="paint5_linear" x1="3.93923" y1="14.6807" x2="3.93923" y2="18.1" gradientUnits="userSpaceOnUse">
<stop stop-color="#6367C8"/>
<stop offset="1" stop-color="#944DD7"/>
</linearGradient>
<linearGradient id="paint6_linear" x1="15.75" y1="21.6001" x2="15.75" y2="23.0001" gradientUnits="userSpaceOnUse">
<stop stop-color="#6367C8"/>
<stop offset="1" stop-color="#944DD7"/>
</linearGradient>
<linearGradient id="paint7_linear" x1="21.1499" y1="21.6001" x2="21.1499" y2="23.0001" gradientUnits="userSpaceOnUse">
<stop stop-color="#6367C8"/>
<stop offset="1" stop-color="#944DD7"/>
</linearGradient>
<linearGradient id="paint8_linear" x1="26.0595" y1="21.6001" x2="26.0595" y2="23.0001" gradientUnits="userSpaceOnUse">
<stop stop-color="#6367C8"/>
<stop offset="1" stop-color="#944DD7"/>
</linearGradient>
<linearGradient id="paint9_linear" x1="21.6499" y1="37.2002" x2="21.6499" y2="38.6002" gradientUnits="userSpaceOnUse">
<stop stop-color="#6367C8"/>
<stop offset="1" stop-color="#944DD7"/>
</linearGradient>
<linearGradient id="paint10_linear" x1="16.75" y1="37.2002" x2="16.75" y2="38.6002" gradientUnits="userSpaceOnUse">
<stop stop-color="#6367C8"/>
<stop offset="1" stop-color="#944DD7"/>
</linearGradient>
<linearGradient id="paint11_linear" x1="31.1848" y1="34.875" x2="31.1848" y2="37.6" gradientUnits="userSpaceOnUse">
<stop stop-color="#6367C8"/>
<stop offset="1" stop-color="#944DD7"/>
</linearGradient>
<linearGradient id="paint12_linear" x1="33.7502" y1="25.7002" x2="33.7502" y2="29.1002" gradientUnits="userSpaceOnUse">
<stop stop-color="#6367C8"/>
<stop offset="1" stop-color="#944DD7"/>
</linearGradient>
<linearGradient id="paint13_linear" x1="26.6499" y1="37.1001" x2="26.6499" y2="38.6001" gradientUnits="userSpaceOnUse">
<stop stop-color="#6367C8"/>
<stop offset="1" stop-color="#944DD7"/>
</linearGradient>
<linearGradient id="paint14_linear" x1="33.9208" y1="30.4805" x2="33.9208" y2="33.9999" gradientUnits="userSpaceOnUse">
<stop stop-color="#6367C8"/>
<stop offset="1" stop-color="#944DD7"/>
</linearGradient>
<linearGradient id="paint15_linear" x1="30.9229" y1="22.3643" x2="30.9229" y2="24.9003" gradientUnits="userSpaceOnUse">
<stop stop-color="#6367C8"/>
<stop offset="1" stop-color="#944DD7"/>
</linearGradient>
<linearGradient id="paint16_linear" x1="6.38207" y1="19.0498" x2="6.38207" y2="21.7998" gradientUnits="userSpaceOnUse">
<stop stop-color="#6367C8"/>
<stop offset="1" stop-color="#944DD7"/>
</linearGradient>
<linearGradient id="paint17_linear" x1="29" y1="1" x2="29" y2="15" gradientUnits="userSpaceOnUse">
<stop stop-color="#6367C8"/>
<stop offset="1" stop-color="#944DD7"/>
</linearGradient>
<linearGradient id="paint18_linear" x1="5.50473" y1="35.7085" x2="5.50473" y2="42.0005" gradientUnits="userSpaceOnUse">
<stop stop-color="#6367C8"/>
<stop offset="1" stop-color="#944DD7"/>
</linearGradient>
<linearGradient id="paint19_linear" x1="0.662732" y1="34.3047" x2="1.99666" y2="37.8409" gradientUnits="userSpaceOnUse">
<stop stop-color="#6367C8"/>
<stop offset="1" stop-color="#944DD7"/>
</linearGradient>
<linearGradient id="paint20_linear" x1="3.33716" y1="31.0093" x2="4.00297" y2="35.2922" gradientUnits="userSpaceOnUse">
<stop stop-color="#6367C8"/>
<stop offset="1" stop-color="#944DD7"/>
</linearGradient>
<linearGradient id="paint21_linear" x1="8.56726" y1="35.6546" x2="10.8502" y2="36.4677" gradientUnits="userSpaceOnUse">
<stop stop-color="#6367C8"/>
<stop offset="1" stop-color="#944DD7"/>
</linearGradient>
<linearGradient id="paint22_linear" x1="5.97392" y1="32.9382" x2="8.72882" y2="33.3426" gradientUnits="userSpaceOnUse">
<stop stop-color="#6367C8"/>
<stop offset="1" stop-color="#944DD7"/>
</linearGradient>
<clipPath id="clip0">
<rect width="11" height="11" fill="white" transform="translate(0 31)"/>
</clipPath>
</defs>
</svg>
