<svg width="68" height="73" viewBox="0 0 68 73" fill="none" xmlns="http://www.w3.org/2000/svg">
<path d="M22.4791 39.218L25.9805 28.2234C26.3194 27.0899 27.3359 26.2965 28.4654 26.1831L32.8705 25.6164C33.5482 25.503 35.0166 26.7499 36.0331 28.11C37.0497 29.1301 38.1792 29.9236 39.5346 30.377L42.9231 31.2837C43.4879 31.3971 43.8267 32.0772 43.6008 32.5306C43.262 33.7774 42.5843 34.9108 41.6807 35.7043C41.1159 36.1577 40.3253 36.6111 39.3087 36.9511L35.4684 38.0846L35.1295 35.7043C35.0166 34.7975 34.6777 33.8907 34.2259 33.0973L33.7741 32.3039C33.4353 31.7371 32.7576 31.6238 32.3058 31.9638C31.741 32.3039 31.6281 32.9839 31.9669 33.4373L32.4187 34.2308C32.7576 34.7975 32.9835 35.3642 32.9835 36.0443L33.5482 40.8049C32.3058 41.5983 30.8374 42.0517 30.1597 41.5983C28.4654 40.3515 28.3525 36.271 28.3525 34.6842C28.3525 34.1174 27.9007 33.5507 27.223 33.5507C26.6582 33.5507 26.0935 34.0041 26.0935 34.6842C26.0935 38.0846 26.4323 41.7117 28.8043 43.4119C29.595 43.9786 30.4986 44.092 31.4022 43.9786C32.1928 43.8653 32.9835 43.5252 33.7741 43.1852L34.6777 50.0994C35.0166 52.3663 34.2259 54.6332 32.6446 56.1067C31.5151 57.2402 30.3856 57.807 30.3856 57.807L35.9202 56.2201L35.8072 55.54C36.7108 53.8398 37.1626 51.7996 36.9367 49.7593L35.6943 40.3515L39.8735 39.1047C41.1159 38.6513 42.2454 38.1979 43.0361 37.4045C44.2785 36.271 45.1821 34.7975 45.634 33.2106C46.0858 31.5104 45.0692 29.6969 43.3749 29.1302L39.9864 28.2234C39.0828 27.9967 38.1792 27.4299 37.5015 26.7499C37.0497 26.1831 34.6777 23.2361 32.3058 23.5761L27.9007 24.1429C25.9805 24.3696 24.2863 25.7297 23.6086 27.6566C23.6086 27.6566 23.6086 27.77 23.4956 27.77L20.333 38.538C19.7682 40.2382 18.2999 41.485 16.4927 41.7117L17.1704 43.8653C19.6553 43.4119 21.6884 41.5983 22.4791 39.218Z" fill="url(#paint0_linear)"/>
<path d="M54.7827 21.0824C54.3309 21.6492 54.4439 22.2159 54.8957 22.6693C56.9288 24.4828 58.2842 26.8631 58.9619 29.4701C59.7526 32.0771 59.7526 34.9108 58.849 37.4044C58.736 37.9711 58.9619 38.5379 59.4137 38.7646H59.5267C60.0914 38.9913 60.7691 38.7646 60.995 38.0845C61.8986 35.0241 62.0116 31.8504 61.108 28.79C60.3173 25.7297 58.6231 23.0093 56.364 20.8557C55.9122 20.5157 55.2345 20.629 54.7827 21.0824Z" fill="url(#paint1_linear)"/>
<path d="M57.4935 14.7352C57.1546 15.1886 57.1546 15.8686 57.6064 16.322C61.2209 19.2691 63.7058 23.3495 64.8353 27.8834C66.1907 32.4173 66.0777 37.1779 64.4964 41.5984C64.2705 42.1652 64.6094 42.7319 65.0612 42.9586C65.6259 43.1853 66.3036 42.9586 66.5295 42.2785C68.2238 37.4046 68.3368 32.1906 66.8684 27.2033C65.6259 22.2161 62.8022 17.6822 58.9619 14.3951C58.623 14.0551 57.8323 14.1684 57.4935 14.7352Z" fill="url(#paint2_linear)"/>
<path d="M9.0377 33.664C8.47295 33.4373 7.79524 33.664 7.56934 34.3441C6.66573 37.4045 6.55278 40.5782 7.45639 43.6386C8.24704 46.6989 9.9413 49.4193 12.2003 51.5729C12.6521 52.0262 13.4428 51.9129 13.7816 51.4595L13.8946 51.3462C14.2334 50.8928 14.1205 50.2127 13.7816 49.8727C11.7485 48.0591 10.3931 45.6788 9.7154 43.0718C8.92475 40.4648 8.92475 37.6312 9.82835 35.1375C9.9413 34.4574 9.7154 33.8907 9.0377 33.664Z" fill="url(#paint3_linear)"/>
<path d="M3.50316 29.4701C2.9384 29.2434 2.2607 29.4701 2.0348 30.1502C0.340539 35.0241 0.227588 40.2381 1.69595 45.2254C2.9384 50.2126 5.76217 54.7465 9.6025 58.0336C10.0543 58.487 10.845 58.3736 11.1838 57.8069C11.5227 57.3535 11.4097 56.6734 10.9579 56.22C7.45643 53.273 4.97152 49.1925 3.84201 44.6586C2.4866 40.1247 2.59955 35.3642 4.18086 30.9436C4.29381 30.3769 4.06791 29.6968 3.50316 29.4701Z" fill="url(#paint4_linear)"/>
<path d="M37.3879 0.226777L13.4423 6.80091C9.8279 7.82103 7.68184 11.5615 8.69839 15.1886L22.9302 67.6683C23.9467 71.2954 27.6741 73.449 31.2885 72.4288L55.2341 65.7414C58.8485 64.7212 60.9946 60.9808 59.978 57.3537L45.7462 4.98735C44.7297 1.36025 41.0023 -0.793347 37.3879 0.226777ZM12.3128 19.9492L44.9556 10.9947L55.6859 50.3262L23.0431 59.3939L12.3128 19.9492ZM14.0071 8.9545L37.9526 2.38037C40.3246 1.70029 42.8095 3.1738 43.4872 5.55409L44.3908 8.84115L11.7481 17.7956L10.8445 14.5085C10.1668 12.1282 11.6351 9.63458 14.0071 8.9545ZM54.6693 63.5878L30.7238 70.1619C28.3518 70.842 25.8669 69.3685 25.1892 66.9882L23.7208 61.5475L56.3636 52.5931L57.8319 58.0338C58.5096 60.4141 57.0413 62.9077 54.6693 63.5878Z" fill="url(#paint5_linear)"/>
<path d="M23.4952 11.6747L31.1759 9.63445C31.7406 9.5211 32.0795 8.84102 31.9665 8.27428C31.8536 7.70755 31.1759 7.36751 30.6111 7.48085L22.9305 9.5211C22.3657 9.63445 22.0269 10.3145 22.1398 10.8813C22.3657 11.448 22.9305 11.788 23.4952 11.6747Z" fill="url(#paint6_linear)"/>
<path d="M40.325 58.1468C38.179 58.7136 36.9365 60.8671 37.5013 63.0207C38.066 65.1743 40.2121 66.4211 42.3581 65.8544C44.5042 65.2877 45.7467 63.1341 45.1819 60.9805C44.6172 58.8269 42.3581 57.5801 40.325 58.1468ZM41.7934 63.5875C40.8898 63.8142 39.9862 63.2474 39.7603 62.3407C39.5344 61.4339 40.0991 60.5271 41.0027 60.3004C41.9063 60.0737 42.81 60.6405 43.0359 61.5472C43.2618 62.454 42.697 63.3608 41.7934 63.5875Z" fill="url(#paint7_linear)"/>
<defs>
<linearGradient id="paint0_linear" x1="31.117" y1="23.5489" x2="31.117" y2="57.807" gradientUnits="userSpaceOnUse">
<stop stop-color="#6367C8"/>
<stop offset="1" stop-color="#944DD7"/>
</linearGradient>
<linearGradient id="paint1_linear" x1="58.1135" y1="20.658" x2="58.1135" y2="38.8496" gradientUnits="userSpaceOnUse">
<stop stop-color="#6367C8"/>
<stop offset="1" stop-color="#944DD7"/>
</linearGradient>
<linearGradient id="paint2_linear" x1="62.5715" y1="14.2039" x2="62.5715" y2="43.0436" gradientUnits="userSpaceOnUse">
<stop stop-color="#6367C8"/>
<stop offset="1" stop-color="#944DD7"/>
</linearGradient>
<linearGradient id="paint3_linear" x1="10.4658" y1="33.579" x2="10.4658" y2="51.8615" gradientUnits="userSpaceOnUse">
<stop stop-color="#6367C8"/>
<stop offset="1" stop-color="#944DD7"/>
</linearGradient>
<linearGradient id="paint4_linear" x1="6.02708" y1="29.3851" x2="6.02708" y2="58.3133" gradientUnits="userSpaceOnUse">
<stop stop-color="#6367C8"/>
<stop offset="1" stop-color="#944DD7"/>
</linearGradient>
<linearGradient id="paint5_linear" x1="34.3382" y1="-0.0267029" x2="34.3382" y2="72.6823" gradientUnits="userSpaceOnUse">
<stop stop-color="#6367C8"/>
<stop offset="1" stop-color="#944DD7"/>
</linearGradient>
<linearGradient id="paint6_linear" x1="27.0532" y1="7.45914" x2="27.0532" y2="11.6964" gradientUnits="userSpaceOnUse">
<stop stop-color="#6367C8"/>
<stop offset="1" stop-color="#944DD7"/>
</linearGradient>
<linearGradient id="paint7_linear" x1="41.3416" y1="58.0103" x2="41.3416" y2="65.9909" gradientUnits="userSpaceOnUse">
<stop stop-color="#6367C8"/>
<stop offset="1" stop-color="#944DD7"/>
</linearGradient>
</defs>
</svg>
