<svg width="36" height="39" viewBox="0 0 36 39" fill="none" xmlns="http://www.w3.org/2000/svg">
<path d="M11.8097 21.1868L13.685 15.319C13.8664 14.714 14.4109 14.2906 15.0158 14.2301L17.375 13.9276C17.738 13.8671 18.5244 14.5326 19.0689 15.2585C19.6133 15.8029 20.2182 16.2264 20.9441 16.4683L22.7589 16.9523C23.0614 17.0128 23.2429 17.3757 23.1219 17.6177C22.9404 18.2831 22.5775 18.8881 22.0935 19.3115C21.791 19.5535 21.3676 19.7955 20.8232 19.977L18.7664 20.5819L18.5849 19.3115C18.5244 18.8276 18.3429 18.3436 18.101 17.9202L17.859 17.4967C17.6775 17.1943 17.3145 17.1338 17.0726 17.3153C16.7701 17.4967 16.7096 17.8597 16.8911 18.1017L17.1331 18.5251C17.3145 18.8276 17.4355 19.1301 17.4355 19.493L17.738 22.0337C17.0726 22.4572 16.2862 22.6992 15.9232 22.4572C15.0158 21.7918 14.9553 19.614 14.9553 18.7671C14.9553 18.4646 14.7133 18.1622 14.3504 18.1622C14.0479 18.1622 13.7454 18.4041 13.7454 18.7671C13.7454 20.5819 13.9269 22.5177 15.1973 23.4251C15.6207 23.7275 16.1047 23.788 16.5886 23.7275C17.0121 23.6671 17.4355 23.4856 17.859 23.3041L18.3429 26.9942C18.5244 28.2041 18.101 29.4139 17.2541 30.2003C16.6491 30.8053 16.0442 31.1077 16.0442 31.1077L19.0084 30.2608L18.9479 29.8979C19.4318 28.9905 19.6738 27.9016 19.5528 26.8127L18.8874 21.7918L21.1256 21.1263C21.7911 20.8844 22.396 20.6424 22.8194 20.2189C23.4849 19.614 23.9688 18.8276 24.2108 17.9807C24.4528 17.0733 23.9083 16.1054 23.0009 15.8029L21.1861 15.319C20.7022 15.198 20.2182 14.8955 19.8553 14.5326C19.6133 14.2301 18.3429 12.6573 17.0726 12.8387L14.7133 13.1412C13.685 13.2622 12.7776 13.9881 12.4146 15.0165C12.4146 15.0165 12.4146 15.077 12.3541 15.077L10.6603 20.8239C10.3578 21.7313 9.57141 22.3967 8.60352 22.5177L8.96647 23.6671C10.2973 23.4251 11.3862 22.4572 11.8097 21.1868Z" fill="url(#paint0_linear)"/>
<path d="M28.9797 11.2661C28.7377 11.5685 28.7982 11.871 29.0402 12.113C30.1291 13.0809 30.855 14.3512 31.218 15.7426C31.6414 17.1339 31.6414 18.6462 31.1575 19.9771C31.097 20.2796 31.218 20.582 31.4599 20.703H31.5204C31.8229 20.824 32.1859 20.703 32.3069 20.34C32.7908 18.7067 32.8513 17.0129 32.3673 15.3796C31.9439 13.7463 31.0365 12.2944 29.8266 11.1451C29.5847 10.9636 29.2217 11.0241 28.9797 11.2661Z" fill="url(#paint1_linear)"/>
<path d="M30.4316 7.87829C30.2501 8.12026 30.2501 8.48322 30.4921 8.72519C32.4279 10.298 33.7587 12.4758 34.3637 14.8955C35.0896 17.3152 35.0291 19.856 34.1822 22.2152C34.0612 22.5177 34.2427 22.8201 34.4847 22.9411C34.7871 23.0621 35.1501 22.9411 35.2711 22.5782C36.1785 19.9769 36.239 17.1943 35.4525 14.5326C34.7871 11.8708 33.2748 9.45111 31.218 7.69681C31.0365 7.51533 30.6131 7.57582 30.4316 7.87829Z" fill="url(#paint2_linear)"/>
<path d="M4.47986 17.9809C4.17739 17.8599 3.81444 17.9809 3.69345 18.3439C3.2095 19.9772 3.14901 21.671 3.63296 23.3043C4.05641 24.9376 4.96381 26.3895 6.17367 27.5389C6.41565 27.7808 6.8391 27.7203 7.02058 27.4784L7.08107 27.4179C7.26255 27.1759 7.20206 26.8129 7.02058 26.6315C5.9317 25.6636 5.20578 24.3932 4.84282 23.0019C4.41937 21.6105 4.41937 20.0982 4.90331 18.7673C4.96381 18.4044 4.84282 18.1019 4.47986 17.9809Z" fill="url(#paint3_linear)"/>
<path d="M1.51557 15.7426C1.21311 15.6216 0.850146 15.7426 0.72916 16.1056C-0.178239 18.7068 -0.238732 21.4895 0.54768 24.1512C1.21311 26.8129 2.72544 29.2326 4.78221 30.9869C5.02418 31.2289 5.44763 31.1684 5.62911 30.866C5.81059 30.624 5.7501 30.261 5.50813 30.0191C3.63284 28.4462 2.30198 26.2685 1.69705 23.8487C0.971133 21.429 1.03163 18.8883 1.87853 16.529C1.93903 16.2266 1.81804 15.8636 1.51557 15.7426Z" fill="url(#paint4_linear)"/>
<path d="M19.6637 0.135282L6.83909 3.64389C4.9033 4.18833 3.75393 6.18461 4.29837 8.1204L11.9205 36.1288C12.465 38.0646 14.4612 39.214 16.397 38.6695L29.2216 35.1004C31.1574 34.556 32.3068 32.5597 31.7623 30.6239L24.1402 2.676C23.5957 0.740215 21.5994 -0.409158 19.6637 0.135282ZM6.23415 10.6611L23.7167 5.88214L29.4636 26.8733L11.981 31.7128L6.23415 10.6611ZM7.14155 4.79327L19.9661 1.28465C21.2365 0.921695 22.5673 1.70811 22.9303 2.97847L23.4142 4.73277L5.93169 9.51174L5.44774 7.75744C5.08478 6.48708 5.87119 5.15623 7.14155 4.79327ZM28.9191 33.951L16.0946 37.4596C14.8242 37.8226 13.4933 37.0362 13.1304 35.7658L12.344 32.8622L29.8265 28.0832L30.6129 30.9869C30.9759 32.2572 30.1895 33.5881 28.9191 33.951Z" fill="url(#paint5_linear)"/>
<path d="M12.2229 6.24496L16.3364 5.15608C16.6389 5.09559 16.8204 4.73263 16.7599 4.43016C16.6994 4.12769 16.3364 3.94621 16.0339 4.00671L11.9204 5.09559C11.6179 5.15608 11.4364 5.51904 11.4969 5.82151C11.6179 6.12397 11.9204 6.30545 12.2229 6.24496Z" fill="url(#paint6_linear)"/>
<path d="M21.2361 31.047C20.0867 31.3494 19.4213 32.4988 19.7237 33.6482C20.0262 34.7975 21.1756 35.463 22.3249 35.1605C23.4743 34.858 24.1398 33.7087 23.8373 32.5593C23.5348 31.4099 22.3249 30.7445 21.2361 31.047ZM22.0225 33.9506C21.5385 34.0716 21.0546 33.7692 20.9336 33.2852C20.8126 32.8013 21.1151 32.3173 21.599 32.1963C22.083 32.0754 22.5669 32.3778 22.6879 32.8618C22.8089 33.3457 22.5064 33.8297 22.0225 33.9506Z" fill="url(#paint7_linear)"/>
<defs>
<linearGradient id="paint0_linear" x1="16.4359" y1="12.8242" x2="16.4359" y2="31.1077" gradientUnits="userSpaceOnUse">
<stop stop-color="#6367C8"/>
<stop offset="1" stop-color="#944DD7"/>
</linearGradient>
<linearGradient id="paint1_linear" x1="30.7636" y1="11.0396" x2="30.7636" y2="20.7484" gradientUnits="userSpaceOnUse">
<stop stop-color="#6367C8"/>
<stop offset="1" stop-color="#944DD7"/>
</linearGradient>
<linearGradient id="paint2_linear" x1="33.1512" y1="7.59473" x2="33.1512" y2="22.9865" gradientUnits="userSpaceOnUse">
<stop stop-color="#6367C8"/>
<stop offset="1" stop-color="#944DD7"/>
</linearGradient>
<linearGradient id="paint3_linear" x1="5.24474" y1="17.9355" x2="5.24474" y2="27.6929" gradientUnits="userSpaceOnUse">
<stop stop-color="#6367C8"/>
<stop offset="1" stop-color="#944DD7"/>
</linearGradient>
<linearGradient id="paint4_linear" x1="2.86732" y1="15.6973" x2="2.86732" y2="31.1363" gradientUnits="userSpaceOnUse">
<stop stop-color="#6367C8"/>
<stop offset="1" stop-color="#944DD7"/>
</linearGradient>
<linearGradient id="paint5_linear" x1="18.0303" y1="0" x2="18.0303" y2="38.8048" gradientUnits="userSpaceOnUse">
<stop stop-color="#6367C8"/>
<stop offset="1" stop-color="#944DD7"/>
</linearGradient>
<linearGradient id="paint6_linear" x1="14.1284" y1="3.99512" x2="14.1284" y2="6.25655" gradientUnits="userSpaceOnUse">
<stop stop-color="#6367C8"/>
<stop offset="1" stop-color="#944DD7"/>
</linearGradient>
<linearGradient id="paint7_linear" x1="21.7805" y1="30.9741" x2="21.7805" y2="35.2334" gradientUnits="userSpaceOnUse">
<stop stop-color="#6367C8"/>
<stop offset="1" stop-color="#944DD7"/>
</linearGradient>
</defs>
</svg>
