<svg width="34" height="39" viewBox="0 0 34 39" fill="none" xmlns="http://www.w3.org/2000/svg">
<path d="M16.3553 0C14.5172 0 12.7859 0.732476 11.4863 2.05791C10.1868 3.38334 9.46864 5.14477 9.46864 7.01956C9.46864 8.89435 10.1868 10.6601 11.4863 11.9856C12.7859 13.311 14.5129 14.0435 16.3553 14.0435C18.1935 14.0435 19.9247 13.311 21.2243 11.9856C22.3656 10.8215 23.0539 9.32163 23.2078 7.70408C26.743 7.97876 29.5131 11.0089 29.4874 14.6626L26.9952 12.1164C26.7345 11.8504 26.3113 11.8504 26.0505 12.1164C25.7897 12.3823 25.7897 12.814 26.0505 13.0799L29.449 16.5548C29.5815 16.6856 29.7482 16.7554 29.9235 16.7554V16.751C30.0902 16.751 30.2612 16.6856 30.3894 16.5548L33.8007 13.093C34.0657 12.8271 34.0657 12.3954 33.805 12.1295C33.5442 11.8635 33.121 11.8679 32.8602 12.1295L30.8126 14.2048C30.6117 10.0105 27.3329 6.60973 23.2035 6.33941C23.0496 4.72186 22.3614 3.22202 21.22 2.05791C19.9247 0.732476 18.1935 0 16.3553 0ZM16.3553 1.36467C17.8387 1.36467 19.228 1.95327 20.2796 3.02146C21.3269 4.08966 21.904 5.51101 21.904 7.02392C21.904 8.32756 21.4722 9.56579 20.6814 10.5686C19.7025 10.1108 18.6594 9.81431 17.595 9.68787C17.6292 9.42191 17.6677 9.15159 17.7061 8.88563C17.9541 8.72432 18.1251 8.48888 18.1422 8.29268C18.1721 8.04416 18.1977 7.79564 18.2319 7.54712C18.2661 7.582 18.3089 7.61252 18.3645 7.61688H18.3858C18.4927 7.61688 18.5867 7.53404 18.5953 7.42068L18.7107 6.27401C18.7235 6.15193 18.638 6.04729 18.5183 6.03421H18.5012C18.467 6.03421 18.4243 6.04729 18.3944 6.06473C18.42 5.84673 18.4457 5.62873 18.4713 5.40637C18.4884 5.10989 18.6338 4.31202 18.0738 3.79754C17.6634 3.3877 17.0093 3.18714 16.3553 3.18714C15.7013 3.18714 15.0472 3.39206 14.6368 3.79754C14.0726 4.31202 14.2179 5.10989 14.2393 5.40637C14.2649 5.62873 14.2906 5.84237 14.3162 6.06473C14.2863 6.04729 14.2478 6.03421 14.2136 6.03421C14.2051 6.03421 14.1965 6.03421 14.1923 6.03421C14.0768 6.04729 13.9914 6.15193 13.9999 6.27401L14.1196 7.42068C14.1281 7.53404 14.2222 7.61688 14.3333 7.61688H14.3504C14.4017 7.61688 14.4488 7.58636 14.483 7.54712C14.5129 7.8 14.5385 8.04416 14.5684 8.29268C14.5855 8.48888 14.7608 8.72432 15.0088 8.88563C15.043 9.15595 15.0814 9.42191 15.1199 9.68787C14.0598 9.81867 13.0124 10.1108 12.0335 10.5686C11.2427 9.56579 10.8109 8.33192 10.8109 7.02392C10.8109 5.51101 11.3923 4.08966 12.4353 3.02146C13.4827 1.95327 14.872 1.36467 16.3553 1.36467ZM3.48395 6.46149C3.19754 6.47457 2.94105 6.67077 2.8641 6.96288C2.77006 7.32476 2.97952 7.69972 3.33433 7.8L6.12576 8.57172C2.69311 10.8258 1.43633 15.3733 3.21463 19.1359C2.78716 19.4106 2.38533 19.7376 2.0177 20.1126C0.718163 21.438 0 23.2038 0 25.0786C0 26.9534 0.718163 28.7192 2.0177 30.0446C3.31723 31.37 5.04424 32.1025 6.88667 32.1025C8.72482 32.1025 10.4561 31.37 11.7556 30.0446C13.0552 28.7192 13.7691 26.9534 13.7691 25.0786C13.7691 23.2038 13.0552 21.438 11.7556 20.1126C10.4561 18.7871 8.72482 18.0547 6.88667 18.0547C6.02744 18.0547 5.18958 18.216 4.41157 18.5212C2.88975 15.2643 4.07387 11.3141 7.18163 9.51347L6.26255 12.9884C6.16423 13.3503 6.37797 13.7252 6.73705 13.8211C6.79263 13.8299 6.85247 13.8473 6.90804 13.8473C7.203 13.8473 7.47659 13.6467 7.55354 13.3415L8.80605 8.60224C8.90009 8.24036 8.69063 7.8654 8.33582 7.76948L3.68486 6.48329C3.61646 6.46585 3.55234 6.45713 3.48395 6.46149ZM25.8282 18.059C23.9901 18.059 22.2631 18.7915 20.9635 20.1169C19.6597 21.4424 18.9458 23.2082 18.9458 25.083C18.9458 26.9577 19.6597 28.7235 20.9592 30.049C21.6261 30.7291 22.4084 31.2523 23.2591 31.6011C21.3141 34.7621 17.2316 35.7867 14.0726 33.8945L17.4796 32.9702C17.8344 32.8742 18.0481 32.4993 17.9541 32.1374C17.86 31.7755 17.4967 31.5662 17.1376 31.6534L12.4866 32.9178C12.1318 33.0138 11.9181 33.3887 12.0121 33.7506L13.2475 38.4942C13.3245 38.7994 13.5981 39 13.893 39C13.9486 39 14.0085 38.9913 14.064 38.9782C14.4188 38.8823 14.6326 38.5073 14.5385 38.1454L13.7947 35.294C14.9703 35.9088 16.2356 36.2053 17.4881 36.2053C20.2582 36.2053 22.9684 34.7621 24.4902 32.1636C24.5244 32.1069 24.5458 32.0458 24.5629 31.9892C24.9775 32.0676 25.3965 32.1069 25.8282 32.1069C27.6664 32.1069 29.3977 31.3744 30.6972 30.049C31.9967 28.7235 32.7149 26.9577 32.7149 25.083C32.7149 23.2082 31.9967 21.4424 30.6972 20.1169C29.3934 18.7871 27.6664 18.059 25.8282 18.059ZM6.88667 19.4193C8.37002 19.4193 9.75932 20.0079 10.8109 21.0761C11.8582 22.1443 12.4353 23.5657 12.4353 25.0786C12.4353 26.3866 12.0036 27.6205 11.2127 28.6233C10.2338 28.1655 9.19078 27.869 8.12636 27.7425C8.16055 27.4766 8.19903 27.2063 8.2375 26.9403C8.48544 26.779 8.65643 26.5435 8.67353 26.3473C8.70345 26.0988 8.7291 25.8503 8.7633 25.6018C8.7975 25.6367 8.84024 25.6672 8.89582 25.6716H8.91719C9.02406 25.6716 9.11811 25.5887 9.12666 25.4753L9.24635 24.3287C9.25917 24.2066 9.17368 24.102 9.05398 24.0889C9.04971 24.0889 9.04116 24.0889 9.03688 24.0889C9.00269 24.0889 8.95994 24.102 8.93001 24.1194C8.95566 23.9014 8.98131 23.6834 9.00696 23.461C9.02406 23.1646 9.1694 22.3667 8.60941 21.8522C8.19903 21.4424 7.54499 21.2418 6.89095 21.2418C6.2369 21.2418 5.58286 21.4467 5.17248 21.8522C4.60821 22.3667 4.75356 23.1646 4.77493 23.461C4.80058 23.6834 4.82623 23.897 4.85187 24.1194C4.82195 24.102 4.78348 24.0889 4.74928 24.0889H4.72791C4.61249 24.102 4.52699 24.2066 4.53554 24.3287L4.65524 25.4753C4.66378 25.5887 4.75783 25.6716 4.86897 25.6716H4.88607C4.93737 25.6716 4.98439 25.641 5.01859 25.6018C5.04851 25.8547 5.07416 26.0988 5.10409 26.3473C5.12119 26.5435 5.29645 26.779 5.54439 26.9403C5.57859 27.2106 5.61706 27.4766 5.65553 27.7425C4.59539 27.8733 3.54807 28.1655 2.56914 28.6233C1.77831 27.6205 1.34656 26.3866 1.34656 25.0786C1.34656 23.5657 1.92793 22.1443 2.97097 21.0761C4.01402 20.0079 5.40332 19.4193 6.88667 19.4193ZM25.8282 19.4193C27.3116 19.4193 28.7051 20.0079 29.7525 21.0761C30.7998 22.1443 31.3769 23.5657 31.3769 25.0786C31.3769 26.3866 30.9451 27.6205 30.1543 28.6233C29.1754 28.1655 28.1323 27.869 27.0679 27.7425C27.1021 27.4766 27.1449 27.2063 27.1833 26.9403C27.427 26.779 27.6023 26.5435 27.6194 26.3473C27.6493 26.0988 27.6749 25.8503 27.7048 25.6018C27.739 25.6367 27.7861 25.6672 27.8374 25.6716H27.8545C27.9656 25.6716 28.0554 25.5887 28.0639 25.4753L28.1836 24.3287C28.1964 24.2066 28.111 24.102 27.9955 24.0889H27.9742C27.94 24.0889 27.9015 24.102 27.8716 24.1194C27.8972 23.9014 27.9229 23.6834 27.9485 23.461C27.9699 23.1646 28.111 22.3667 27.551 21.8522C27.1406 21.4424 26.4865 21.2418 25.8325 21.2418C25.1785 21.2418 24.5244 21.4467 24.1183 21.8522C23.554 22.3667 23.6994 23.1646 23.7208 23.461C23.7464 23.6834 23.7721 23.897 23.7934 24.1194C23.7635 24.102 23.7293 24.0889 23.6908 24.0889C23.6823 24.0889 23.678 24.0889 23.6695 24.0889C23.5583 24.102 23.4685 24.2066 23.4814 24.3287L23.6011 25.4753C23.6096 25.5887 23.7037 25.6716 23.8105 25.6716H23.8319C23.8832 25.6716 23.9302 25.641 23.9644 25.6018C23.9943 25.8547 24.02 26.0988 24.0499 26.3473C24.067 26.5435 24.2465 26.779 24.4945 26.9403C24.5287 27.2106 24.5672 27.4766 24.6056 27.7425C23.5412 27.8733 22.4939 28.1655 21.5192 28.6233C20.7284 27.6205 20.2967 26.3866 20.2967 25.0786C20.2967 23.5657 20.8737 22.1443 21.9211 21.0761C22.9556 20.0079 24.3491 19.4193 25.8282 19.4193Z" fill="url(#paint0_linear)"/>
<defs>
<linearGradient id="paint0_linear" x1="17" y1="0" x2="17" y2="39" gradientUnits="userSpaceOnUse">
<stop stop-color="#6367C8"/>
<stop offset="1" stop-color="#944DD7"/>
</linearGradient>
</defs>
</svg>
