<svg width="30" height="39" viewBox="0 0 30 39" fill="none" xmlns="http://www.w3.org/2000/svg">
<g opacity="0.8">
<mask id="path-1-outside-1" maskUnits="userSpaceOnUse" x="0" y="18.6348" width="30" height="21" fill="black">
<rect fill="white" y="18.6348" width="30" height="21"/>
<path fill-rule="evenodd" clip-rule="evenodd" d="M14.9944 28.7032L14.9491 28.7029C13.2172 28.7185 11.612 29.6321 10.5272 31.0187L10.5345 31.0332L10.3171 31.3438C9.54071 32.4928 9.13698 33.7661 9.13698 35.0394V35.386C9.28511 37.3136 10.7646 37.6469 14.994 37.6469C19.4099 37.6469 20.828 37.2835 20.8629 35.1215V35.0396C20.8629 33.7663 20.4592 32.493 19.6828 31.344L19.4654 31.0334L19.468 31.0281C18.3832 29.6362 16.7747 28.7185 15.0389 28.7029L14.9944 28.7032ZM7.94511 35.8647C8.43906 38.8891 11.7562 38.8891 14.994 38.8891C18.2321 38.8891 21.5495 38.8891 22.043 35.8639C22.5734 35.9116 23.2171 35.9403 24.0617 35.9403C26.3909 35.9403 29.0307 35.9403 28.9996 33.1452C28.977 31.0617 27.7487 29.2093 26.0495 28.359C26.7858 27.7646 27.2606 26.856 27.2606 25.8465C27.2606 24.0763 25.8009 22.6166 24.0307 22.6166C22.2605 22.6166 20.8009 24.0763 20.8009 25.8465C20.8009 26.8459 21.2661 27.7463 21.9899 28.3409C21.2705 28.6934 20.6269 29.229 20.1244 29.9039C19.3813 29.065 18.4702 28.3947 17.4633 27.9699C18.7024 27.1628 19.5285 25.766 19.5285 24.169C19.5285 21.6534 17.4788 19.6348 14.9944 19.6348C12.4788 19.6348 10.4602 21.6534 10.4602 24.169C10.4602 25.7682 11.276 27.1666 12.5168 27.9732C11.5159 28.3969 10.61 29.0632 9.8701 29.8965C9.36845 29.2249 8.72678 28.6919 8.01003 28.3407C8.73375 27.7461 9.199 26.8457 9.199 25.8463C9.199 24.0761 7.73936 22.6164 5.96916 22.6164C4.19896 22.6164 2.73932 24.0761 2.73932 25.8463C2.73932 26.8558 3.21408 27.7644 3.95044 28.3588C2.2512 29.2091 1.02292 31.0614 1.00027 33.145C0.969216 35.9401 3.60899 35.9401 5.9382 35.9401C6.77656 35.9401 7.41689 35.9118 7.94511 35.8647ZM9.07086 30.9646C8.39286 32.0486 7.96556 33.3094 7.8931 34.6359C7.39648 34.6978 6.77582 34.6978 5.93824 34.6978H5.9382C2.86364 34.6978 2.21146 34.4183 2.21146 33.145C2.24252 31.0021 3.98166 29.1077 5.96925 29.1077C7.17818 29.1077 8.35617 29.8193 9.07086 30.9646ZM14.994 27.4605L15.0364 27.4606C16.8188 27.4376 18.2863 25.9562 18.2863 24.169C18.2863 22.3677 16.7956 20.877 14.9944 20.877C13.1931 20.877 11.7024 22.3677 11.7024 24.169C11.7024 25.9561 13.1698 27.4375 14.952 27.4606L14.994 27.4605ZM22.1052 34.6359C22.0805 34.2983 22.0361 33.963 21.971 33.6309C21.902 33.2725 21.8075 32.9214 21.6897 32.58C21.5007 32.0286 21.2477 31.4904 20.925 30.9713C21.6393 29.8222 22.8195 29.1079 24.0306 29.1079C26.0182 29.1079 27.7574 31.0023 27.7884 33.1452C27.7884 34.4185 27.1363 34.698 24.0617 34.698H24.0617C23.2232 34.698 22.6021 34.698 22.1052 34.6359ZM24.0307 23.8589C22.9438 23.8589 22.0431 24.7595 22.0431 25.8465C22.0431 26.9334 22.9438 27.8341 24.0307 27.8341C25.1177 27.8341 26.0183 26.9334 26.0183 25.8465C26.0183 24.7595 25.1177 23.8589 24.0307 23.8589ZM5.96916 23.8587C7.05612 23.8587 7.95675 24.7593 7.95675 25.8463C7.95675 26.9332 7.05612 27.8338 5.96916 27.8338C4.8822 27.8338 3.98157 26.9332 3.98157 25.8463C3.98157 24.7593 4.8822 23.8587 5.96916 23.8587Z"/>
</mask>
<path fill-rule="evenodd" clip-rule="evenodd" d="M14.9944 28.7032L14.9491 28.7029C13.2172 28.7185 11.612 29.6321 10.5272 31.0187L10.5345 31.0332L10.3171 31.3438C9.54071 32.4928 9.13698 33.7661 9.13698 35.0394V35.386C9.28511 37.3136 10.7646 37.6469 14.994 37.6469C19.4099 37.6469 20.828 37.2835 20.8629 35.1215V35.0396C20.8629 33.7663 20.4592 32.493 19.6828 31.344L19.4654 31.0334L19.468 31.0281C18.3832 29.6362 16.7747 28.7185 15.0389 28.7029L14.9944 28.7032ZM7.94511 35.8647C8.43906 38.8891 11.7562 38.8891 14.994 38.8891C18.2321 38.8891 21.5495 38.8891 22.043 35.8639C22.5734 35.9116 23.2171 35.9403 24.0617 35.9403C26.3909 35.9403 29.0307 35.9403 28.9996 33.1452C28.977 31.0617 27.7487 29.2093 26.0495 28.359C26.7858 27.7646 27.2606 26.856 27.2606 25.8465C27.2606 24.0763 25.8009 22.6166 24.0307 22.6166C22.2605 22.6166 20.8009 24.0763 20.8009 25.8465C20.8009 26.8459 21.2661 27.7463 21.9899 28.3409C21.2705 28.6934 20.6269 29.229 20.1244 29.9039C19.3813 29.065 18.4702 28.3947 17.4633 27.9699C18.7024 27.1628 19.5285 25.766 19.5285 24.169C19.5285 21.6534 17.4788 19.6348 14.9944 19.6348C12.4788 19.6348 10.4602 21.6534 10.4602 24.169C10.4602 25.7682 11.276 27.1666 12.5168 27.9732C11.5159 28.3969 10.61 29.0632 9.8701 29.8965C9.36845 29.2249 8.72678 28.6919 8.01003 28.3407C8.73375 27.7461 9.199 26.8457 9.199 25.8463C9.199 24.0761 7.73936 22.6164 5.96916 22.6164C4.19896 22.6164 2.73932 24.0761 2.73932 25.8463C2.73932 26.8558 3.21408 27.7644 3.95044 28.3588C2.2512 29.2091 1.02292 31.0614 1.00027 33.145C0.969216 35.9401 3.60899 35.9401 5.9382 35.9401C6.77656 35.9401 7.41689 35.9118 7.94511 35.8647ZM9.07086 30.9646C8.39286 32.0486 7.96556 33.3094 7.8931 34.6359C7.39648 34.6978 6.77582 34.6978 5.93824 34.6978H5.9382C2.86364 34.6978 2.21146 34.4183 2.21146 33.145C2.24252 31.0021 3.98166 29.1077 5.96925 29.1077C7.17818 29.1077 8.35617 29.8193 9.07086 30.9646ZM14.994 27.4605L15.0364 27.4606C16.8188 27.4376 18.2863 25.9562 18.2863 24.169C18.2863 22.3677 16.7956 20.877 14.9944 20.877C13.1931 20.877 11.7024 22.3677 11.7024 24.169C11.7024 25.9561 13.1698 27.4375 14.952 27.4606L14.994 27.4605ZM22.1052 34.6359C22.0805 34.2983 22.0361 33.963 21.971 33.6309C21.902 33.2725 21.8075 32.9214 21.6897 32.58C21.5007 32.0286 21.2477 31.4904 20.925 30.9713C21.6393 29.8222 22.8195 29.1079 24.0306 29.1079C26.0182 29.1079 27.7574 31.0023 27.7884 33.1452C27.7884 34.4185 27.1363 34.698 24.0617 34.698H24.0617C23.2232 34.698 22.6021 34.698 22.1052 34.6359ZM24.0307 23.8589C22.9438 23.8589 22.0431 24.7595 22.0431 25.8465C22.0431 26.9334 22.9438 27.8341 24.0307 27.8341C25.1177 27.8341 26.0183 26.9334 26.0183 25.8465C26.0183 24.7595 25.1177 23.8589 24.0307 23.8589ZM5.96916 23.8587C7.05612 23.8587 7.95675 24.7593 7.95675 25.8463C7.95675 26.9332 7.05612 27.8338 5.96916 27.8338C4.8822 27.8338 3.98157 26.9332 3.98157 25.8463C3.98157 24.7593 4.8822 23.8587 5.96916 23.8587Z" fill="url(#paint0_linear)"/>
<path d="M14.9491 28.7029L14.9496 28.6029L14.9482 28.6029L14.9491 28.7029ZM14.9944 28.7032L14.9939 28.8032L14.9948 28.8032L14.9944 28.7032ZM10.5272 31.0187L10.4485 30.9571L10.4095 31.0068L10.4378 31.0634L10.5272 31.0187ZM10.5345 31.0332L10.6164 31.0905L10.6506 31.0417L10.6239 30.9885L10.5345 31.0332ZM10.3171 31.3438L10.2352 31.2864L10.2343 31.2878L10.3171 31.3438ZM9.13698 35.386H9.03668L9.03727 35.3937L9.13698 35.386ZM20.8629 35.1215L20.9629 35.1231V35.1215H20.8629ZM19.6828 31.344L19.7657 31.288L19.7647 31.2866L19.6828 31.344ZM19.4654 31.0334L19.3759 30.9887L19.3493 31.042L19.3835 31.0907L19.4654 31.0334ZM19.468 31.0281L19.5575 31.0728L19.5857 31.0164L19.5469 30.9666L19.468 31.0281ZM15.0389 28.7029L15.0398 28.6029L15.0384 28.6029L15.0389 28.7029ZM7.94511 35.8647L8.0438 35.8486L8.02882 35.7569L7.93624 35.7651L7.94511 35.8647ZM22.043 35.8639L22.0519 35.7643L21.9592 35.756L21.9443 35.8478L22.043 35.8639ZM28.9996 33.1452L28.8996 33.1463V33.1463L28.9996 33.1452ZM26.0495 28.359L25.9866 28.2812L25.8657 28.3788L26.0047 28.4484L26.0495 28.359ZM21.9899 28.3409L22.0339 28.4307L22.1734 28.3623L22.0533 28.2637L21.9899 28.3409ZM20.1244 29.9039L20.0496 29.9702L20.1311 30.0624L20.2046 29.9636L20.1244 29.9039ZM17.4633 27.9699L17.4087 27.8861L17.2509 27.9888L17.4244 28.062L17.4633 27.9699ZM12.5168 27.9732L12.5558 28.0653L12.7291 27.9919L12.5713 27.8894L12.5168 27.9732ZM9.8701 29.8965L9.78998 29.9564L9.86341 30.0547L9.94488 29.9629L9.8701 29.8965ZM8.01003 28.3407L7.94654 28.2635L7.82645 28.3621L7.96603 28.4305L8.01003 28.3407ZM3.95044 28.3588L3.99519 28.4482L4.13423 28.3786L4.01325 28.281L3.95044 28.3588ZM1.00027 33.145L1.10027 33.1461L1.10027 33.1461L1.00027 33.145ZM7.8931 34.6359L7.90547 34.7351L7.9884 34.7248L7.99295 34.6414L7.8931 34.6359ZM9.07086 30.9646L9.15564 31.0177L9.18877 30.9647L9.15569 30.9117L9.07086 30.9646ZM2.21146 33.145L2.11146 33.1436V33.145H2.21146ZM15.0364 27.4606L15.0361 27.5607L15.0377 27.5606L15.0364 27.4606ZM14.994 27.4605L14.9943 27.3605L14.9936 27.3605L14.994 27.4605ZM14.952 27.4606L14.9507 27.5606L14.9523 27.5606L14.952 27.4606ZM21.971 33.6309L21.8728 33.6498L21.8728 33.6502L21.971 33.6309ZM22.1052 34.6359L22.0054 34.6432L22.0114 34.725L22.0928 34.7351L22.1052 34.6359ZM21.6897 32.58L21.5951 32.6124L21.5952 32.6126L21.6897 32.58ZM20.925 30.9713L20.8401 30.9185L20.8073 30.9713L20.8401 31.0241L20.925 30.9713ZM27.7884 33.1452H27.8884L27.8884 33.1438L27.7884 33.1452ZM14.9486 28.8029L14.9939 28.8032L14.9948 28.6032L14.9496 28.6029L14.9486 28.8029ZM10.606 31.0803C11.6752 29.7136 13.2534 28.8181 14.95 28.8029L14.9482 28.6029C13.181 28.6188 11.5488 29.5506 10.4485 30.9571L10.606 31.0803ZM10.6239 30.9885L10.6167 30.974L10.4378 31.0634L10.4451 31.0779L10.6239 30.9885ZM10.399 31.4011L10.6164 31.0905L10.4526 30.9758L10.2352 31.2864L10.399 31.4011ZM9.23698 35.0394C9.23698 33.7877 9.63383 32.5336 10.4 31.3997L10.2343 31.2878C9.44759 32.452 9.03698 33.7446 9.03698 35.0394H9.23698ZM9.23698 35.386V35.0394H9.03698V35.386H9.23698ZM14.994 37.5469C12.876 37.5469 11.4664 37.4626 10.5683 37.145C10.1228 36.9875 9.81062 36.7749 9.60001 36.4927C9.38916 36.2101 9.27278 35.8481 9.23668 35.3784L9.03727 35.3937C9.07524 35.8878 9.19935 36.2902 9.43973 36.6123C9.68036 36.9347 10.0302 37.1669 10.5017 37.3336C11.4377 37.6646 12.8826 37.7469 14.994 37.7469V37.5469ZM20.7629 35.1199C20.7544 35.6505 20.661 36.0588 20.4669 36.376C20.2738 36.6915 19.9748 36.9274 19.5345 37.102C18.6446 37.4548 17.2062 37.5469 14.994 37.5469V37.7469C17.1977 37.7469 18.6763 37.6573 19.6082 37.2879C20.0787 37.1014 20.4168 36.8411 20.6375 36.4804C20.8571 36.1214 20.954 35.6735 20.9629 35.1231L20.7629 35.1199ZM20.7629 35.0396V35.1215H20.9629V35.0396H20.7629ZM19.5999 31.4C20.3661 32.5338 20.7629 33.7879 20.7629 35.0396H20.9629C20.9629 33.7448 20.5523 32.4522 19.7656 31.288L19.5999 31.4ZM19.3835 31.0907L19.6009 31.4013L19.7647 31.2866L19.5473 30.9761L19.3835 31.0907ZM19.3786 30.9834L19.3759 30.9887L19.5548 31.0781L19.5575 31.0728L19.3786 30.9834ZM15.038 28.8029C16.7385 28.8182 18.3199 29.7176 19.3892 31.0896L19.5469 30.9666C18.4465 29.5548 16.811 28.6189 15.0398 28.6029L15.038 28.8029ZM14.9948 28.8032L15.0394 28.8029L15.0384 28.6029L14.9939 28.6032L14.9948 28.8032ZM14.994 38.7891C13.3706 38.7891 11.7478 38.7883 10.4686 38.4151C9.83109 38.2291 9.2855 37.9522 8.8698 37.542C8.45526 37.133 8.16421 36.5859 8.0438 35.8486L7.84642 35.8809C7.97298 36.6558 8.2818 37.2428 8.72933 37.6844C9.17569 38.1248 9.75436 38.415 10.4126 38.6071C11.7249 38.99 13.3796 38.9891 14.994 38.9891V38.7891ZM21.9443 35.8478C21.824 36.5853 21.533 37.1326 21.1185 37.5417C20.7028 37.952 20.1572 38.2289 19.5197 38.415C18.2405 38.7883 16.6175 38.7891 14.994 38.7891V38.9891C16.6085 38.9891 18.2633 38.99 19.5757 38.607C20.234 38.4149 20.8127 38.1246 21.259 37.684C21.7065 37.2423 22.0152 36.6552 22.1417 35.88L21.9443 35.8478ZM24.0617 35.8403C23.2193 35.8403 22.5788 35.8116 22.0519 35.7643L22.034 35.9635C22.5681 36.0115 23.2148 36.0403 24.0617 36.0403V35.8403ZM28.8996 33.1463C28.9072 33.829 28.7518 34.3311 28.4872 34.7032C28.2224 35.0755 27.8415 35.3273 27.3812 35.4971C26.4542 35.839 25.232 35.8403 24.0617 35.8403V36.0403C25.2206 36.0403 26.4829 36.0416 27.4504 35.6847C27.9373 35.5051 28.356 35.2328 28.6502 34.8191C28.9446 34.405 29.1076 33.8589 29.0996 33.1441L28.8996 33.1463ZM26.0047 28.4484C27.6708 29.2822 28.8774 31.1007 28.8996 33.1463L29.0996 33.1441C29.0766 31.0226 27.8265 29.1364 26.0942 28.2695L26.0047 28.4484ZM27.1606 25.8465C27.1606 26.824 26.7009 27.7046 25.9866 28.2812L26.1123 28.4368C26.8707 27.8245 27.3606 26.888 27.3606 25.8465H27.1606ZM24.0307 22.7166C25.7457 22.7166 27.1606 24.1315 27.1606 25.8465H27.3606C27.3606 24.021 25.8562 22.5166 24.0307 22.5166V22.7166ZM20.9009 25.8465C20.9009 24.1315 22.3158 22.7166 24.0307 22.7166V22.5166C22.2053 22.5166 20.7009 24.021 20.7009 25.8465H20.9009ZM22.0533 28.2637C21.3514 27.6869 20.9009 26.8142 20.9009 25.8465H20.7009C20.7009 26.8775 21.1809 27.8057 21.9264 28.4182L22.0533 28.2637ZM20.2046 29.9636C20.6978 29.3011 21.3292 28.776 22.0339 28.4307L21.9459 28.2511C21.2118 28.6108 20.5559 29.1568 20.0442 29.8442L20.2046 29.9636ZM17.4244 28.062C18.4167 28.4806 19.3157 29.1417 20.0496 29.9702L20.1993 29.8376C19.447 28.9883 18.5238 28.3087 17.5021 27.8777L17.4244 28.062ZM19.4285 24.169C19.4285 25.7306 18.6209 27.0966 17.4087 27.8861L17.5179 28.0537C18.7839 27.2291 19.6285 25.8015 19.6285 24.169H19.4285ZM14.9944 19.7348C17.4241 19.7348 19.4285 21.7091 19.4285 24.169H19.6285C19.6285 21.5977 17.5336 19.5348 14.9944 19.5348V19.7348ZM10.5602 24.169C10.5602 21.7086 12.534 19.7348 14.9944 19.7348V19.5348C12.4236 19.5348 10.3602 21.5982 10.3602 24.169H10.5602ZM12.5713 27.8894C11.358 27.1006 10.5602 25.7333 10.5602 24.169H10.3602C10.3602 25.8032 11.1941 27.2326 12.4623 28.057L12.5713 27.8894ZM9.94488 29.9629C10.6756 29.14 11.5695 28.4828 12.5558 28.0653L12.4778 27.8811C11.4623 28.311 10.5444 28.9865 9.79532 29.8301L9.94488 29.9629ZM9.95022 29.8367C9.43934 29.1528 8.78543 28.6093 8.05403 28.2509L7.96603 28.4305C8.66814 28.7745 9.29755 29.2971 9.78998 29.9564L9.95022 29.8367ZM8.07351 28.418C8.81897 27.8055 9.299 26.8773 9.299 25.8463H9.099C9.099 26.814 8.64852 27.6867 7.94654 28.2635L8.07351 28.418ZM9.299 25.8463C9.299 24.0208 7.79459 22.5164 5.96916 22.5164V22.7164C7.68413 22.7164 9.099 24.1313 9.099 25.8463H9.299ZM5.96916 22.5164C4.14373 22.5164 2.63932 24.0208 2.63932 25.8463H2.83932C2.83932 24.1313 4.25419 22.7164 5.96916 22.7164V22.5164ZM2.63932 25.8463C2.63932 26.8878 3.12915 27.8243 3.88763 28.4366L4.01325 28.281C3.29901 27.7044 2.83932 26.8238 2.83932 25.8463H2.63932ZM3.90569 28.2693C2.17335 29.1362 0.923337 31.0224 0.900277 33.1439L1.10027 33.1461C1.1225 31.1005 2.32905 29.282 3.99519 28.4482L3.90569 28.2693ZM0.900278 33.1439C0.892335 33.8587 1.05527 34.4048 1.34968 34.8189C1.64389 35.2326 2.06264 35.5049 2.54953 35.6845C3.517 36.0414 4.77927 36.0401 5.9382 36.0401V35.8401C4.76792 35.8401 3.5457 35.8388 2.61874 35.4969C2.15842 35.3271 1.77747 35.0753 1.51267 34.7029C1.24807 34.3309 1.09268 33.8288 1.10027 33.1461L0.900278 33.1439ZM5.9382 36.0401C6.77877 36.0401 7.42215 36.0117 7.95398 35.9643L7.93624 35.7651C7.41163 35.8118 6.77434 35.8401 5.9382 35.8401V36.0401ZM7.99295 34.6414C8.06443 33.3328 8.48602 32.0883 9.15564 31.0177L8.98608 30.9116C8.2997 32.009 7.86669 33.286 7.79325 34.6305L7.99295 34.6414ZM5.93824 34.7978C6.77333 34.7978 7.40126 34.798 7.90547 34.7351L7.88073 34.5367C7.39171 34.5976 6.7783 34.5978 5.93824 34.5978V34.7978ZM5.9382 34.7978H5.93824V34.5978H5.9382V34.7978ZM2.11146 33.145C2.11146 33.4701 2.15272 33.7454 2.27312 33.9718C2.39528 34.2014 2.59292 34.3697 2.88327 34.4912C3.17078 34.6115 3.55231 34.6874 4.04952 34.7338C4.5477 34.7804 5.16862 34.7978 5.9382 34.7978V34.5978C5.17049 34.5978 4.55693 34.5803 4.06812 34.5347C3.57832 34.4889 3.22033 34.4154 2.96047 34.3067C2.70346 34.1991 2.54589 34.0587 2.44969 33.8778C2.35172 33.6937 2.31146 33.4566 2.31146 33.145H2.11146ZM5.96925 29.0077C3.91872 29.0077 2.14319 30.9547 2.11147 33.1436L2.31145 33.1465C2.34184 31.0496 4.0446 29.2077 5.96925 29.2077V29.0077ZM9.15569 30.9117C8.42557 29.7417 7.21772 29.0077 5.96925 29.0077V29.2077C7.13864 29.2077 8.28676 29.897 8.98602 31.0176L9.15569 30.9117ZM15.0368 27.3606L14.9943 27.3605L14.9936 27.5605L15.0361 27.5606L15.0368 27.3606ZM18.1863 24.169C18.1863 25.9013 16.7629 27.3384 15.0351 27.3606L15.0377 27.5606C16.8747 27.5369 18.3863 26.011 18.3863 24.169H18.1863ZM14.9944 20.977C16.7404 20.977 18.1863 22.4229 18.1863 24.169H18.3863C18.3863 22.3125 16.8508 20.777 14.9944 20.777V20.977ZM11.8024 24.169C11.8024 22.4229 13.2483 20.977 14.9944 20.977V20.777C13.1379 20.777 11.6024 22.3125 11.6024 24.169H11.8024ZM14.9533 27.3606C13.2257 27.3382 11.8024 25.9012 11.8024 24.169H11.6024C11.6024 26.0109 13.1139 27.5368 14.9507 27.5606L14.9533 27.3606ZM14.9936 27.3605L14.9517 27.3606L14.9523 27.5606L14.9943 27.5605L14.9936 27.3605ZM21.8728 33.6502C21.9372 33.9781 21.981 34.3095 22.0054 34.6432L22.2049 34.6286C22.1799 34.2872 22.135 33.9478 22.0691 33.6117L21.8728 33.6502ZM21.5952 32.6126C21.7114 32.9496 21.8047 33.2961 21.8728 33.6498L22.0692 33.612C21.9992 33.2488 21.9035 32.8932 21.7842 32.5474L21.5952 32.6126ZM20.8401 31.0241C21.1588 31.5368 21.4085 32.0681 21.5951 32.6124L21.7843 32.5476C21.5929 31.9891 21.3367 31.4441 21.01 30.9185L20.8401 31.0241ZM24.0306 29.0079C22.7798 29.0079 21.5698 29.7446 20.8401 30.9185L21.01 31.0241C21.7088 29.8998 22.8591 29.2079 24.0306 29.2079V29.0079ZM27.8884 33.1438C27.8567 30.9549 26.0812 29.0079 24.0306 29.0079V29.2079C25.9553 29.2079 27.6581 31.0498 27.6884 33.1467L27.8884 33.1438ZM24.0617 34.798C24.8313 34.798 25.4522 34.7806 25.9504 34.734C26.4476 34.6876 26.8291 34.6117 27.1166 34.4914C27.407 34.3699 27.6046 34.2016 27.7268 33.972C27.8472 33.7456 27.8884 33.4703 27.8884 33.1452H27.6884C27.6884 33.4568 27.6482 33.6939 27.5502 33.8781C27.454 34.0589 27.2964 34.1993 27.0394 34.3069C26.7796 34.4156 26.4216 34.4891 25.9318 34.5349C25.443 34.5806 24.8294 34.598 24.0617 34.598V34.798ZM24.0617 34.798H24.0617V34.598H24.0617V34.798ZM22.0928 34.7351C22.5973 34.7982 23.2257 34.798 24.0617 34.798V34.598C23.2207 34.598 22.6068 34.5978 22.1176 34.5367L22.0928 34.7351ZM22.1431 25.8465C22.1431 24.8147 22.999 23.9589 24.0307 23.9589V23.7589C22.8885 23.7589 21.9431 24.7043 21.9431 25.8465H22.1431ZM24.0307 27.7341C22.999 27.7341 22.1431 26.8782 22.1431 25.8465H21.9431C21.9431 26.9887 22.8885 27.9341 24.0307 27.9341V27.7341ZM25.9183 25.8465C25.9183 26.8782 25.0625 27.7341 24.0307 27.7341V27.9341C25.1729 27.9341 26.1183 26.9887 26.1183 25.8465H25.9183ZM24.0307 23.9589C25.0625 23.9589 25.9183 24.8147 25.9183 25.8465H26.1183C26.1183 24.7043 25.1729 23.7589 24.0307 23.7589V23.9589ZM8.05675 25.8463C8.05675 24.7041 7.11135 23.7587 5.96916 23.7587V23.9587C7.0009 23.9587 7.85675 24.8145 7.85675 25.8463H8.05675ZM5.96916 27.9338C7.11135 27.9338 8.05675 26.9884 8.05675 25.8463H7.85675C7.85675 26.878 7.0009 27.7338 5.96916 27.7338V27.9338ZM3.88157 25.8463C3.88157 26.9884 4.82697 27.9338 5.96916 27.9338V27.7338C4.93742 27.7338 4.08157 26.878 4.08157 25.8463H3.88157ZM5.96916 23.7587C4.82697 23.7587 3.88157 24.7041 3.88157 25.8463H4.08157C4.08157 24.8145 4.93742 23.9587 5.96916 23.9587V23.7587Z" fill="url(#paint1_linear)" mask="url(#path-1-outside-1)"/>
<path d="M17.3519 1.00362C17.4395 1.01395 17.5223 1.04908 17.5905 1.10486L24.5326 6.88989C24.5855 6.93331 24.6282 6.98794 24.6575 7.04984C24.6868 7.11174 24.702 7.17937 24.702 7.24785C24.702 7.31634 24.6868 7.38397 24.6575 7.44587C24.6282 7.50777 24.5855 7.56239 24.5326 7.6058L17.5905 13.3908C17.523 13.4471 17.4409 13.483 17.3538 13.4943C17.2666 13.5057 17.178 13.492 17.0984 13.4548C17.0187 13.4176 16.9513 13.3585 16.904 13.2845C16.8567 13.2104 16.8315 13.1244 16.8313 13.0365V10.4983C15.6045 10.4863 9.77992 10.6235 5.56493 14.3092C5.48864 14.3759 5.39257 14.4158 5.29146 14.4226C5.19034 14.4294 5.08978 14.4029 5.0052 14.3471C4.92062 14.2912 4.85671 14.2092 4.82328 14.1135C4.78984 14.0178 4.78873 13.9138 4.82012 13.8175C6.7532 7.86164 12.6484 5.24273 16.8313 4.12754V1.46643C16.8308 1.40046 16.8444 1.33516 16.8711 1.27488C16.8979 1.2146 16.9373 1.16075 16.9866 1.11692C17.0359 1.0731 17.094 1.04031 17.157 1.02077C17.22 1.00123 17.2865 0.995385 17.3519 1.00362ZM17.7569 2.44988V4.47464C17.7569 4.57728 17.7228 4.67703 17.66 4.75819C17.5972 4.83935 17.5091 4.89731 17.4098 4.92298C13.7458 5.85053 8.67005 8.00724 6.36759 12.5809C11.1278 9.37433 16.8853 9.54524 17.3158 9.56547C17.4347 9.57106 17.5469 9.62229 17.6291 9.70848C17.7112 9.79467 17.757 9.9092 17.7569 10.0283V12.0386L23.513 7.25145L17.7569 2.44988Z" fill="url(#paint2_linear)" stroke="url(#paint3_linear)" stroke-width="0.5"/>
</g>
<defs>
<linearGradient id="paint0_linear" x1="14.9999" y1="19.6348" x2="14.9999" y2="38.8891" gradientUnits="userSpaceOnUse">
<stop stop-color="#6367C8"/>
<stop offset="1" stop-color="#944DD7"/>
</linearGradient>
<linearGradient id="paint1_linear" x1="14.9999" y1="19.6348" x2="14.9999" y2="38.8891" gradientUnits="userSpaceOnUse">
<stop stop-color="#6367C8"/>
<stop offset="1" stop-color="#944DD7"/>
</linearGradient>
<linearGradient id="paint2_linear" x1="14.7497" y1="1" x2="14.7497" y2="14.4237" gradientUnits="userSpaceOnUse">
<stop stop-color="#6367C8"/>
<stop offset="1" stop-color="#944DD7"/>
</linearGradient>
<linearGradient id="paint3_linear" x1="14.7497" y1="1" x2="14.7497" y2="14.4237" gradientUnits="userSpaceOnUse">
<stop stop-color="#6367C8"/>
<stop offset="1" stop-color="#944DD7"/>
</linearGradient>
</defs>
</svg>
