<svg width="68" height="77" viewBox="0 0 68 77" fill="none" xmlns="http://www.w3.org/2000/svg">
<path d="M32.5266 0C28.8928 0 25.4704 1.4293 22.9014 4.01565C20.3325 6.60199 18.9128 10.0391 18.9128 13.6974C18.9128 17.3558 20.3325 20.8014 22.9014 23.3877C25.4704 25.9741 28.8844 27.4034 32.5266 27.4034C36.1603 27.4034 39.5828 25.9741 42.1517 23.3877C44.408 21.1162 45.7686 18.1895 46.0728 15.0332C53.0614 15.5691 58.5373 21.482 58.4866 28.6115L53.56 23.643C53.0445 23.124 52.2079 23.124 51.6924 23.643C51.1769 24.1619 51.1769 25.0042 51.6924 25.5232L58.4106 32.3038C58.6725 32.5591 59.0021 32.6952 59.3486 32.6952V32.6867C59.6782 32.6867 60.0162 32.5591 60.2697 32.3038L67.0132 25.5487C67.5371 25.0297 67.5371 24.1875 67.0217 23.6685C66.5062 23.1495 65.6696 23.158 65.1541 23.6685L61.1063 27.7182C60.7091 19.5337 54.2276 12.8977 46.0643 12.3702C45.7601 9.21387 44.3996 6.28721 42.1433 4.01565C39.5828 1.4293 36.1603 0 32.5266 0ZM32.5266 2.66292C35.4589 2.66292 38.2053 3.81146 40.2842 5.89585C42.3545 7.98025 43.4954 10.7538 43.4954 13.7059C43.4954 16.2498 42.6419 18.6659 41.0785 20.6227C39.1433 19.7294 37.0814 19.1509 34.9772 18.9042C35.0448 18.3852 35.1209 17.8577 35.1969 17.3387C35.6871 17.024 36.0251 16.5645 36.0589 16.1817C36.1181 15.6968 36.1688 15.2118 36.2364 14.7269C36.304 14.7949 36.3885 14.8545 36.4983 14.863H36.5406C36.7518 14.863 36.9378 14.7014 36.9547 14.4801L37.1828 12.2426C37.2082 12.0044 37.0392 11.8002 36.8025 11.7747H36.7687C36.7011 11.7747 36.6166 11.8002 36.5575 11.8342C36.6082 11.4089 36.6589 10.9835 36.7096 10.5496C36.7434 9.97105 37.0307 8.41414 35.9237 7.41023C35.1124 6.6105 33.8195 6.21915 32.5266 6.21915C31.2336 6.21915 29.9407 6.61901 29.1295 7.41023C28.014 8.41414 28.3013 9.97105 28.3436 10.5496C28.3943 10.9835 28.445 11.4004 28.4957 11.8342C28.4365 11.8002 28.3605 11.7747 28.2929 11.7747C28.276 11.7747 28.2591 11.7747 28.2506 11.7747C28.0224 11.8002 27.8534 12.0044 27.8703 12.2426L28.1069 14.4801C28.1238 14.7014 28.3098 14.863 28.5295 14.863H28.5633C28.6647 14.863 28.7576 14.8034 28.8252 14.7269C28.8844 15.2203 28.9351 15.6968 28.9943 16.1817C29.0281 16.5645 29.3745 17.024 29.8647 17.3387C29.9323 17.8662 30.0083 18.3852 30.0844 18.9042C27.9886 19.1594 25.9183 19.7294 23.9831 20.6227C22.4197 18.6659 21.5662 16.2583 21.5662 13.7059C21.5662 10.7538 22.7155 7.98025 24.7774 5.89585C26.8478 3.81146 29.5942 2.66292 32.5266 2.66292ZM7.08201 12.6084C6.51583 12.634 6.00879 13.0168 5.85668 13.5868C5.67077 14.293 6.08485 15.0246 6.78624 15.2203L12.3044 16.7262C5.51866 21.1247 3.0342 29.9982 6.54963 37.3404C5.70457 37.8764 4.91022 38.5145 4.18348 39.2461C1.61451 41.8325 0.194824 45.2781 0.194824 48.9364C0.194824 52.5948 1.61451 56.0404 4.18348 58.6267C6.75244 61.2131 10.1665 62.6424 13.8086 62.6424C17.4424 62.6424 20.8648 61.2131 23.4338 58.6267C26.0028 56.0404 27.414 52.5948 27.414 48.9364C27.414 45.2781 26.0028 41.8325 23.4338 39.2461C20.8648 36.6598 17.4424 35.2305 13.8086 35.2305C12.1101 35.2305 10.4538 35.5453 8.91578 36.1408C5.90739 29.7855 8.24819 22.0775 14.3917 18.5639L12.5749 25.3445C12.3805 26.0507 12.803 26.7823 13.5129 26.9695C13.6227 26.9865 13.741 27.0205 13.8509 27.0205C14.434 27.0205 14.9748 26.6292 15.1269 26.0336L17.6029 16.7857C17.7888 16.0796 17.3748 15.3479 16.6734 15.1608L7.47919 12.651C7.34398 12.617 7.21722 12.5999 7.08201 12.6084ZM51.253 35.239C47.6192 35.239 44.2052 36.6683 41.6362 39.2546C39.0588 41.841 37.6476 45.2866 37.6476 48.9449C37.6476 52.6033 39.0588 56.0489 41.6278 58.6352C42.9461 59.9625 44.4925 60.9834 46.1742 61.664C42.3292 67.8321 34.2589 69.8314 28.014 66.1391L34.7491 64.3354C35.4505 64.1483 35.873 63.4166 35.6871 62.7104C35.5012 62.0043 34.7829 61.5959 34.073 61.7661L24.8788 64.2333C24.1774 64.4205 23.7549 65.1522 23.9408 65.8583L26.383 75.1147C26.5351 75.7103 27.076 76.1016 27.6591 76.1016C27.7689 76.1016 27.8872 76.0846 27.9971 76.0591C28.6985 75.8719 29.121 75.1402 28.9351 74.4341L27.4647 68.87C29.7886 70.0696 32.29 70.6482 34.766 70.6482C40.2419 70.6482 45.5996 67.8321 48.6079 62.7615C48.6756 62.6509 48.7178 62.5318 48.7516 62.4212C49.5713 62.5743 50.3995 62.6509 51.253 62.6509C54.8867 62.6509 58.3092 61.2216 60.8781 58.6352C63.4471 56.0489 64.8668 52.6033 64.8668 48.9449C64.8668 45.2866 63.4471 41.841 60.8781 39.2546C58.3007 36.6598 54.8867 35.239 51.253 35.239ZM13.8086 37.8934C16.741 37.8934 19.4874 39.042 21.5662 41.1263C23.6366 43.2107 24.7774 45.9843 24.7774 48.9364C24.7774 51.4888 23.9239 53.8964 22.3606 55.8532C20.4254 54.9599 18.3635 54.3814 16.2593 54.1347C16.3269 53.6157 16.403 53.0882 16.479 52.5692C16.9691 52.2545 17.3072 51.795 17.341 51.4122C17.4001 50.9272 17.4508 50.4423 17.5184 49.9574C17.586 50.0254 17.6705 50.085 17.7804 50.0935H17.8226C18.0339 50.0935 18.2198 49.9318 18.2367 49.7106L18.4733 47.4731C18.4987 47.2349 18.3297 47.0307 18.0931 47.0052C18.0846 47.0052 18.0677 47.0052 18.0593 47.0052C17.9917 47.0052 17.9071 47.0307 17.848 47.0647C17.8987 46.6394 17.9494 46.214 18.0001 45.7801C18.0339 45.2015 18.3212 43.6446 17.2142 42.6407C16.403 41.841 15.11 41.4496 13.8171 41.4496C12.5242 41.4496 11.2312 41.8495 10.42 42.6407C9.3045 43.6446 9.59182 45.2015 9.63407 45.7801C9.68478 46.214 9.73548 46.6308 9.78618 47.0647C9.72703 47.0307 9.65097 47.0052 9.58337 47.0052H9.54112C9.31295 47.0307 9.14394 47.2349 9.16084 47.4731L9.39746 49.7106C9.41436 49.9318 9.60027 50.0935 9.81999 50.0935H9.85379C9.95519 50.0935 10.0481 50.0339 10.1158 49.9574C10.1749 50.4508 10.2256 50.9272 10.2848 51.4122C10.3186 51.795 10.665 52.2545 11.1552 52.5692C11.2228 53.0967 11.2988 53.6157 11.3749 54.1347C9.27915 54.3899 7.20877 54.9599 5.2736 55.8532C3.71025 53.8964 2.85674 51.4888 2.85674 48.9364C2.85674 45.9843 4.00602 43.2107 6.06795 41.1263C8.12988 39.042 10.8763 37.8934 13.8086 37.8934ZM51.253 37.8934C54.1853 37.8934 56.9402 39.042 59.0106 41.1263C61.0809 43.2107 62.2218 45.9843 62.2218 48.9364C62.2218 51.4888 61.3683 53.8964 59.8049 55.8532C57.8697 54.9599 55.8078 54.3814 53.7036 54.1347C53.7712 53.6157 53.8557 53.0882 53.9318 52.5692C54.4135 52.2545 54.7599 51.795 54.7937 51.4122C54.8529 50.9272 54.9036 50.4423 54.9627 49.9574C55.0303 50.0254 55.1233 50.085 55.2247 50.0935H55.2585C55.4782 50.0935 55.6557 49.9318 55.6726 49.7106L55.9092 47.4731C55.9346 47.2349 55.7656 47.0307 55.5374 47.0052H55.4951C55.4275 47.0052 55.3515 47.0307 55.2923 47.0647C55.343 46.6394 55.3937 46.214 55.4444 45.7801C55.4867 45.2015 55.7656 43.6446 54.6585 42.6407C53.8473 41.841 52.5543 41.4496 51.2614 41.4496C49.9685 41.4496 48.6755 41.8495 47.8727 42.6407C46.7573 43.6446 47.0446 45.2015 47.0868 45.7801C47.1376 46.214 47.1883 46.6308 47.2305 47.0647C47.1714 47.0307 47.1038 47.0052 47.0277 47.0052C47.0108 47.0052 47.0023 47.0052 46.9854 47.0052C46.7657 47.0307 46.5883 47.2349 46.6136 47.4731L46.8502 49.7106C46.8671 49.9318 47.053 50.0935 47.2643 50.0935H47.3066C47.408 50.0935 47.5009 50.0339 47.5685 49.9574C47.6277 50.4508 47.6784 50.9272 47.7375 51.4122C47.7713 51.795 48.1263 52.2545 48.6164 52.5692C48.684 53.0967 48.7601 53.6157 48.8361 54.1347C46.7319 54.3899 44.6615 54.9599 42.7348 55.8532C41.1715 53.8964 40.318 51.4888 40.318 48.9364C40.318 45.9843 41.4588 43.2107 43.5292 41.1263C45.5742 39.042 48.3291 37.8934 51.253 37.8934Z" fill="url(#paint0_linear)"/>
<defs>
<linearGradient id="paint0_linear" x1="33.8026" y1="0" x2="33.8026" y2="76.0931" gradientUnits="userSpaceOnUse">
<stop stop-color="#6367C8"/>
<stop offset="1" stop-color="#944DD7"/>
</linearGradient>
</defs>
</svg>
