<svg width="221" height="173" viewBox="0 0 221 173" fill="none" xmlns="http://www.w3.org/2000/svg">
<path d="M64.1502 86.7874C62.6415 85.439 61.768 83.932 61.371 81.8697C60.8945 79.5694 59.7829 77.7451 58.1153 76.3967C56.4478 75.1276 54.4627 74.3344 52.2393 73.9378C52.0011 73.8585 51.6835 73.8585 51.4453 73.8585C51.0483 73.8585 50.6512 73.7792 50.2542 73.7792C49.7778 73.7792 49.3013 73.7792 48.8249 73.8585C46.4427 74.1758 44.2194 74.969 42.4725 76.3174C40.8049 77.5865 39.6933 79.4108 39.2168 81.7903C38.7404 83.7733 37.8669 85.2804 36.4376 86.7081C33.4996 89.3256 32.3086 93.2915 33.579 96.7022C34.5319 99.2404 36.5171 101.461 39.2168 102.81C40.6461 103.524 42.2342 103.841 43.9018 103.841C45.2517 103.841 46.5221 103.603 47.7132 103.127C48.5867 102.81 49.4601 102.572 50.413 102.572C51.3659 102.572 52.2393 102.81 53.1128 103.127C54.3039 103.603 55.5744 103.841 56.9243 103.841C58.433 103.841 59.9417 103.444 61.371 102.889C61.5298 102.81 61.6886 102.73 61.8474 102.651C64.3884 101.303 66.2941 99.2404 67.247 96.7022C68.3587 93.2915 67.247 89.4049 64.1502 86.7874Z" fill="black" fill-opacity="0.1"/>
<path d="M35.723 76.0793C34.8496 71.7168 32.1498 68.5441 29.2118 68.5441C28.8942 68.5441 28.5765 68.5441 28.3383 68.6234C26.7502 68.9407 25.4797 70.2098 24.8445 72.1927C24.1298 74.017 24.0504 76.3173 24.5269 78.6175C25.4003 82.98 28.1001 86.1528 31.0381 86.1528C31.3557 86.1528 31.6734 86.1528 31.9116 86.0735C34.929 85.3596 36.6759 80.9971 35.723 76.0793Z" fill="black" fill-opacity="0.1"/>
<path d="M47.7124 61.9607C47.236 56.7257 44.2186 52.7598 40.8835 52.7598C40.7247 52.7598 40.5659 52.7598 40.4071 52.7598C36.8338 53.1564 34.4517 57.7568 35.0869 63.3091C35.6428 68.5442 38.5808 72.5101 41.9158 72.5101C42.0746 72.5101 42.2334 72.5101 42.3922 72.5101C44.1391 72.3515 45.6478 71.0824 46.6801 69.0201C47.633 67.1164 48.03 64.5782 47.7124 61.9607Z" fill="black" fill-opacity="0.1"/>
<path d="M71.9329 68.2269C71.6152 68.1476 71.2976 68.1476 70.98 68.1476C67.9626 68.1476 65.1834 71.3996 64.3099 75.9208C63.2777 80.9179 65.0246 85.3597 68.2802 86.1529C68.5978 86.2322 68.9155 86.2322 69.2331 86.2322C72.2505 86.2322 75.0297 82.9802 75.9031 78.459C76.856 73.4619 75.1885 68.9408 71.9329 68.2269Z" fill="black" fill-opacity="0.1"/>
<path d="M59.6246 52.9185C59.4658 52.9185 59.307 52.9185 59.1482 52.9185C55.7337 52.9185 52.8751 56.8844 52.3987 62.1194C52.0811 64.7369 52.4781 67.2751 53.431 69.1788C54.3838 71.2411 55.8925 72.4308 57.6395 72.6688C57.7983 72.6688 57.9571 72.6688 58.1159 72.6688C61.5303 72.6688 64.3889 68.7029 64.8654 63.4678C65.5006 57.9155 63.1184 53.315 59.6246 52.9185Z" fill="black" fill-opacity="0.1"/>
<path d="M98 78.9213C98 51.3429 74.7279 29.217 46.7065 31.1135C22.722 32.6149 3.32861 52.2912 2.06211 76.3136C1.90379 79.3164 2.06211 82.2402 2.37873 85.085C2.69536 87.5347 3.24946 89.9843 3.88271 92.355C5.86163 101.442 10.2944 112.98 16.5478 124.991C28.0255 146.801 41.8779 162.605 49.3978 163C49.3978 163 49.3978 163 49.477 163C49.5561 163 49.6353 163 49.7144 163C49.7936 163 49.8727 163 49.9519 163C50.0311 163 50.1102 163 50.1894 163C50.2685 163 50.3477 163 50.4268 163C50.4268 163 50.4268 163 50.506 163C58.0259 162.605 71.8783 146.801 83.356 124.991C89.6885 112.98 94.0422 101.363 96.1002 92.2759C97.3667 88.0088 98 83.5046 98 78.9213Z" stroke="black" stroke-opacity="0.1" stroke-width="3" stroke-linecap="round" stroke-linejoin="round" stroke-dasharray="1 5"/>
<path fill-rule="evenodd" clip-rule="evenodd" d="M181.333 100.092C181.333 100.05 181.333 100.008 181.334 99.9657C181.339 98.8348 181.344 97.9128 180.795 97.6051C180.325 97.1982 180.057 96.5878 180.124 95.9774C180.17 95.4356 180.241 94.7955 180.32 94.0885L180.32 94.0882C180.467 92.76 180.64 91.1956 180.728 89.6023C180.93 85.7365 180.997 81.6673 180.93 79.5648C180.661 72.0367 176.632 64.7121 174.281 64.6443C173.945 64.6443 173.207 64.7799 173.072 66.0685C172.804 67.9675 171.931 71.0872 171.192 73.6644C170.923 74.6139 170.655 75.5634 170.453 76.3094C165.913 76.3094 165.026 75.8175 164.836 75.7119L164.836 75.7119C164.826 75.7066 164.818 75.7023 164.812 75.6991C164.61 74.7496 161.656 65.3903 159.372 65.119C159.036 65.0512 158.499 65.1869 158.163 65.9329C156.594 69.1677 156.553 70.2819 156.49 71.9652L156.484 72.1046C156.417 73.3253 156.283 74.4782 156.149 75.6311L156.149 75.6312C155.343 80.3787 155.074 80.5143 153.395 81.3282C151.716 82.0742 150.172 82.9559 148.761 84.1088C147.821 84.8548 147.485 86.0756 147.687 87.6355C148.224 90.7552 150.91 94.3497 153.597 95.2314C154.604 95.5705 154.873 96.8591 155.007 97.9442C155.007 98.0732 154.926 98.2295 154.867 98.3438C154.833 98.4099 154.806 98.462 154.806 98.4868C154.425 98.786 154.15 100.136 154.084 101.365C153.98 101.273 153.979 101.274 153.979 101.274L153.978 101.275L153.975 101.278L153.967 101.288L153.941 101.318C153.919 101.344 153.888 101.381 153.85 101.429C153.772 101.524 153.662 101.664 153.523 101.851C153.245 102.224 152.852 102.784 152.377 103.55C151.427 105.082 150.147 107.438 148.796 110.768C146.092 117.429 143.104 127.984 141.882 143.65C140.751 158.064 138.92 164.405 137.459 167.128C136.787 168.38 136.251 168.76 135.996 168.874C135.931 168.787 135.86 168.71 135.789 168.642C135.535 168.4 135.21 168.21 134.873 168.054C134.192 167.74 133.263 167.48 132.186 167.269C130.016 166.846 127.058 166.59 123.816 166.59C120.575 166.59 117.617 166.846 115.447 167.269C114.37 167.48 113.441 167.74 112.76 168.054C112.423 168.21 112.098 168.4 111.844 168.642C111.591 168.884 111.334 169.253 111.334 169.739C111.334 170.226 111.591 170.595 111.844 170.837C112.098 171.078 112.423 171.269 112.76 171.425C113.441 171.739 114.37 171.999 115.447 172.209C117.617 172.633 120.575 172.888 123.816 172.888C127.058 172.888 130.016 172.633 132.186 172.209C133.263 171.999 134.192 171.739 134.873 171.425C135.21 171.269 135.535 171.078 135.789 170.837C135.833 170.794 135.878 170.748 135.922 170.697C136.111 170.685 136.321 170.645 136.544 170.564C137.345 170.274 138.191 169.513 139.021 167.966C140.671 164.891 142.517 158.223 143.649 143.788L143.649 143.788C144.859 128.285 147.81 117.911 150.438 111.435C151.752 108.196 152.987 105.931 153.883 104.484C154.091 104.149 154.281 103.858 154.449 103.609C154.849 104.241 155.074 104.93 155.074 105.676V110.355C155.074 113.983 155.133 118.924 155.196 124.17V124.17L155.208 125.208C155.343 137.212 155.41 150.844 155.41 154.168C155.41 155.704 155.333 156.854 155.267 157.851L155.267 157.851C155.245 158.174 155.225 158.481 155.208 158.779C155.208 159.051 155.208 159.322 155.141 159.593C155.074 160.814 154.537 162.035 153.597 162.849C153.395 163.018 153.211 163.205 153.026 163.391L153.026 163.391C152.841 163.578 152.656 163.764 152.455 163.934C150.306 166.24 150.776 168.206 151.179 169.224C151.851 170.716 153.328 171.597 154.268 171.53C158.432 171.326 167.7 171.394 176.699 171.53L177.627 171.542C182.455 171.605 187.01 171.665 190.734 171.665H193.622C197.047 171.665 199.465 171.462 201.211 171.123C203.561 171.53 207.322 171.462 210.277 170.173C219.209 166.172 221.022 158.847 220.888 152.879C220.754 146.979 218.806 141.214 215.247 136.534C212.56 133.007 209.203 130.295 205.912 131.515C205.716 131.595 206.205 132.273 207.02 133.403L207.02 133.403C207.602 134.211 208.351 135.25 209.135 136.466C211.956 140.739 213.568 145.69 213.702 150.777C213.904 157.626 211.419 161.357 208.061 162.577C207.322 162.849 206.651 162.17 206.852 161.424C209.324 152.048 200.966 140.458 195.92 133.46L195.838 133.347C195.287 132.638 194.81 131.966 194.38 131.361L194.38 131.361C194.234 131.156 194.094 130.958 193.958 130.769C184.019 116.256 180.728 109.542 180.862 103.573C180.93 103.438 181.333 100.386 181.333 100.318C181.333 100.242 181.333 100.167 181.333 100.092ZM134.13 169.815C134.187 169.789 134.239 169.763 134.284 169.739C134.239 169.715 134.187 169.69 134.13 169.663C133.637 169.436 132.867 169.209 131.846 169.009C129.819 168.614 126.979 168.363 123.816 168.363C120.653 168.363 117.814 168.614 115.787 169.009C114.766 169.209 113.996 169.436 113.503 169.663C113.445 169.69 113.394 169.715 113.349 169.739C113.394 169.763 113.445 169.789 113.503 169.815C113.996 170.043 114.766 170.27 115.787 170.469C117.814 170.865 120.653 171.116 123.816 171.116C126.979 171.116 129.819 170.865 131.846 170.469C132.867 170.27 133.637 170.043 134.13 169.815Z" fill="black" fill-opacity="0.1"/>
<g clip-path="url(#clip0)">
<path d="M172.44 168.15C172.44 168.356 172.235 168.562 172.029 168.562C171.755 168.562 171.55 168.356 171.55 168.082C171.687 166.915 172.646 166.024 173.741 165.063C175.522 163.417 177.371 161.77 175.933 158.203C174.7 155.253 174.632 151.274 175.727 147.089C176.686 143.247 178.604 139.474 180.863 136.867C183.192 134.123 185.794 132.888 188.123 133.231C188.396 133.3 188.533 133.506 188.465 133.78C188.465 133.986 188.26 134.123 188.054 134.123C186 133.78 183.74 134.946 181.548 137.485C177.234 142.493 174.289 151.823 176.755 157.86C178.398 161.976 176.207 164.034 174.358 165.749C173.33 166.504 172.577 167.258 172.44 168.15Z" fill="white" stroke="white" stroke-miterlimit="10"/>
<path d="M154.018 84.2487C155.73 84.1801 156.415 84.8661 156.689 85.4835C157.237 86.6498 156.484 88.3648 155.594 89.3939L155.525 89.4625C154.566 90.2171 153.745 90.4229 153.128 90.4229C152.854 90.4229 152.58 90.3543 152.306 90.2857C151.416 90.0113 150.731 89.1881 150.457 88.0218C150.046 86.444 150.046 85.6207 150.526 85.0033C151.074 84.3859 151.964 84.3173 153.197 84.3173C153.471 84.3173 153.745 84.2487 154.018 84.2487Z" fill="white"/>
<path d="M173.535 68.1955C173.672 67.8525 174.151 67.8525 174.357 68.1269C174.63 68.6071 174.973 69.7048 175.384 72.1059C175.658 73.7524 175.863 75.3988 175.932 76.2221C175.932 76.4279 175.726 76.6337 175.452 76.6337H175.384C175.178 76.6337 174.973 76.4965 174.973 76.2907C174.836 74.7814 174.151 69.499 173.535 68.5385C173.466 68.4013 173.466 68.2641 173.535 68.1955Z" fill="white" stroke="white" stroke-miterlimit="10"/>
<path d="M157.921 68.1955C158.058 67.8525 158.538 67.8525 158.743 68.1269C159.017 68.6071 159.36 69.7048 159.771 72.1059C160.044 73.7524 160.25 75.3988 160.318 76.2221C160.318 76.4279 160.113 76.6337 159.839 76.6337H159.771C159.565 76.6337 159.36 76.4965 159.36 76.2907C159.223 74.7814 158.538 69.499 157.921 68.5385C157.921 68.4013 157.853 68.2641 157.921 68.1955Z" fill="white" stroke="white" stroke-miterlimit="10"/>
<path d="M165.602 103.484C161.424 103.484 158.48 102.935 156.973 102.592C156.357 102.455 155.946 101.906 155.946 101.289L156.014 100.054C156.014 99.5052 156.562 99.1622 157.042 99.2308C158.274 99.4366 160.466 99.8482 162.931 99.9854C166.218 100.191 172.176 99.711 178.613 98.0646C179.161 97.9274 179.709 98.339 179.709 98.8878V100.191C179.709 100.946 179.23 101.563 178.476 101.701C173.546 103.073 169.163 103.484 165.602 103.484Z" fill="white"/>
</g>
<path d="M209.754 45.8111C210.949 42.2101 209.696 38.0694 206.704 35.7354C204.518 33.9865 201.738 33.3464 199.076 33.926C196.383 34.4897 194.115 36.2056 192.832 38.6029C192.223 39.7416 192.67 41.1378 193.779 41.7314C194.918 42.341 196.298 41.9233 196.907 40.7846C197.549 39.5859 198.698 38.736 200.014 38.4381C201.36 38.1563 202.719 38.4983 203.836 39.3658C205.279 40.4857 205.92 42.6021 205.339 44.3347C204.524 46.8666 202.079 47.8325 200.142 47.4896C197.827 47.0601 195.514 48.2121 194.359 50.3697L192.964 52.9767C192.354 54.1154 192.802 55.5117 193.91 56.1052C195.049 56.7148 196.429 56.2971 197.039 55.1584L198.435 52.5514C198.627 52.1918 198.997 52.0044 199.315 52.0589C203.914 52.9018 208.291 50.2715 209.754 45.8111Z" fill="black" fill-opacity="0.1"/>
<path d="M192.866 58.1291C191.428 57.3591 189.663 57.9182 188.909 59.3266C188.139 60.7649 188.699 62.5293 190.107 63.2833C191.545 64.0533 193.31 63.4942 194.064 62.0858C194.848 60.6934 194.304 58.8991 192.866 58.1291Z" fill="black" fill-opacity="0.1"/>
<path d="M175.25 10.7164C172.954 5.74892 167.551 2.62926 162.101 3.12523C158.076 3.44266 154.519 5.51206 152.291 8.74821C150.015 11.9971 149.322 16.0397 150.337 19.8278C150.819 21.6271 152.667 22.6543 154.419 22.1848C156.219 21.7027 157.259 19.9016 156.776 18.1023C156.269 16.2083 156.639 14.1806 157.73 12.5688C158.868 10.9444 160.635 9.96341 162.665 9.77468C165.289 9.5284 168.051 11.1229 169.149 13.5183C170.789 16.9866 169.17 20.4147 166.794 21.9648C163.935 23.7965 162.639 27.2905 163.552 30.6997L164.656 34.8192C165.138 36.6185 166.987 37.6457 168.739 37.1763C170.538 36.6941 171.578 34.893 171.096 33.0937L169.992 28.9742C169.84 28.406 170.044 27.8437 170.432 27.5875C176.102 23.9367 178.112 16.8515 175.25 10.7164Z" fill="black" fill-opacity="0.1"/>
<path d="M169.635 40.3361C167.362 40.9451 166.057 43.2739 166.654 45.4994C167.263 47.7722 169.591 49.0767 171.817 48.4804C174.09 47.8714 175.394 45.5426 174.798 43.3171C174.249 41.079 171.907 39.7271 169.635 40.3361Z" fill="black" fill-opacity="0.1"/>
<defs>
<clipPath id="clip0">
<rect width="38.6922" height="101.258" fill="white" transform="matrix(-1 0 0 1 188.875 67.5781)"/>
</clipPath>
</defs>
</svg>
