<svg width="141" height="161" viewBox="0 0 141 161" fill="none" xmlns="http://www.w3.org/2000/svg">
<g clip-path="url(#clip0)">
<path d="M35.6724 50.41C35.6426 50.4397 35.6426 50.4397 35.6128 50.4695C35.4639 50.5586 35.3149 50.6478 35.1957 50.7072C34.9871 50.7962 34.7184 50.706 34.6284 50.497C34.5384 50.2879 34.6272 50.0196 34.8359 49.9306C34.9551 49.8713 35.0445 49.8416 35.1338 49.7523C35.3125 49.6334 35.5811 49.6639 35.7307 49.8731C35.8206 50.0225 35.8212 50.2612 35.6724 50.41ZM50.1654 35.4983C50.0166 35.6471 49.8078 35.6764 49.6285 35.5567C49.4492 35.4369 49.3888 35.1384 49.5078 34.9597C49.597 34.8704 49.6267 34.781 49.686 34.6618C49.775 34.4532 50.0433 34.3643 50.2524 34.4543C50.4614 34.5443 50.5516 34.813 50.4626 35.0217C50.3734 35.1706 50.2843 35.3196 50.2249 35.4388C50.1951 35.4685 50.1951 35.4685 50.1654 35.4983ZM36.7126 48.7716C36.6233 48.8609 36.4742 48.8904 36.3549 48.8901C36.1161 48.8299 35.9664 48.6207 36.0255 48.3822C36.055 48.2331 36.0844 48.084 36.1139 47.9349C36.173 47.6963 36.3815 47.5477 36.6203 47.6079C36.8591 47.6682 37.0088 47.8773 36.9497 48.1159C36.9202 48.265 36.8907 48.4141 36.8611 48.5035C36.8316 48.6526 36.7721 48.7121 36.7126 48.7716ZM48.4376 36.5681C48.3781 36.6277 48.2887 36.6573 48.1992 36.6869C48.0501 36.7164 47.9308 36.7161 47.8116 36.7755C47.5731 36.8346 47.3639 36.6849 47.3037 36.4461C47.2434 36.2073 47.3921 35.9988 47.6306 35.9397C47.7797 35.9102 47.9288 35.8807 48.0779 35.8513C48.3164 35.7922 48.5256 35.9418 48.5858 36.1807C48.5861 36.3 48.5269 36.4788 48.4376 36.5681ZM33.2562 50.5533C33.1371 50.6724 32.9284 50.7017 32.779 50.6119C32.6296 50.522 32.5101 50.462 32.3608 50.3722C32.1815 50.2524 32.0913 49.9837 32.24 49.7752C32.3589 49.5965 32.6272 49.5077 32.8364 49.6573C32.9559 49.7173 33.0456 49.807 33.1351 49.8371C33.3442 49.9271 33.4343 50.1958 33.3453 50.4044C33.3156 50.4341 33.3157 50.4938 33.2562 50.5533ZM37.363 46.3269C37.244 46.4459 37.0949 46.4754 36.9457 46.4452C36.7366 46.3552 36.5869 46.146 36.6759 45.9374C36.7054 45.7883 36.7648 45.6691 36.7943 45.52C36.8833 45.3114 37.1217 45.1926 37.3307 45.2826C37.5398 45.3726 37.6597 45.6116 37.5707 45.8202C37.5113 45.9394 37.4818 46.0885 37.4224 46.2077C37.4523 46.2376 37.3928 46.2971 37.363 46.3269ZM50.3983 33.1122C50.3686 33.1419 50.3388 33.1717 50.2494 33.2013C50.0407 33.2903 49.772 33.2002 49.682 32.9911C49.6221 32.8716 49.592 32.7821 49.5023 32.6924C49.3825 32.5131 49.4117 32.2446 49.6202 32.096C49.7989 31.9771 50.0675 32.0075 50.2172 32.2167C50.307 32.3661 50.3969 32.5155 50.4568 32.635C50.5766 32.8143 50.5174 32.9931 50.3983 33.1122ZM45.9928 37.2186C45.9631 37.2484 45.9036 37.3079 45.8439 37.3077C45.7247 37.3671 45.5756 37.3966 45.4564 37.456C45.2478 37.545 45.0088 37.4251 44.9188 37.216C44.8288 37.007 44.9476 36.7686 45.1562 36.6796C45.2754 36.6202 45.4245 36.5907 45.5437 36.5313C45.7523 36.4423 45.9913 36.5623 46.0813 36.7713C46.1414 36.9504 46.1119 37.0995 45.9928 37.2186ZM38.3121 44.0021C38.1931 44.1212 37.9843 44.1505 37.8349 44.0607C37.6259 43.9707 37.5357 43.702 37.6247 43.4933C37.6841 43.3741 37.7733 43.2252 37.8327 43.106C37.9216 42.8974 38.1899 42.8085 38.3991 42.9582C38.6082 43.0482 38.6983 43.3169 38.5497 43.5254C38.4903 43.6446 38.4309 43.7638 38.3715 43.883C38.3418 43.9127 38.3419 43.9724 38.3121 44.0021ZM43.6982 38.2572C43.6684 38.287 43.6386 38.3168 43.6089 38.3465C43.4897 38.4059 43.3705 38.4653 43.2513 38.5247C43.0726 38.6436 42.7741 38.5832 42.6841 38.3741C42.5644 38.1949 42.6233 37.8967 42.8319 37.8077C42.9511 37.7483 43.1001 37.6591 43.2193 37.5998C43.4279 37.5108 43.6667 37.571 43.7865 37.7503C43.8466 37.9294 43.8172 38.1382 43.6982 38.2572ZM39.6197 41.8573C39.4708 42.0061 39.2322 42.0055 39.0529 41.8858C38.8736 41.766 38.8132 41.4675 38.9918 41.289C39.0811 41.1997 39.1702 41.0507 39.2595 40.9614C39.4082 40.7529 39.6468 40.7535 39.856 40.9032C40.0353 41.023 40.0658 41.2915 39.9171 41.5C39.8278 41.5893 39.7685 41.7085 39.6494 41.8275L39.6197 41.8573ZM41.6133 39.6842C41.6133 39.6842 41.5835 39.714 41.6133 39.6842C41.4942 39.8033 41.4049 39.8926 41.2857 39.952C41.1072 40.1305 40.8386 40.1001 40.6891 39.9505C40.5395 39.801 40.5388 39.5027 40.6876 39.3539C40.7769 39.2646 40.896 39.1455 41.0152 39.0861C41.1937 38.9076 41.4623 38.938 41.612 39.1472C41.7615 39.2968 41.7621 39.5354 41.6133 39.6842ZM31.7598 48.5807C31.7003 48.6403 31.6108 48.6699 31.5214 48.6995C31.3127 48.7288 31.0736 48.5493 31.0432 48.3404C31.013 48.1911 31.0126 48.0121 31.0122 47.8331C31.0116 47.5945 31.2201 47.4458 31.4587 47.4464C31.6974 47.4469 31.8471 47.6561 31.8477 47.8948C31.8479 48.0141 31.8482 48.1335 31.8783 48.223C31.9085 48.3723 31.8491 48.4915 31.7598 48.5807ZM48.4556 31.6457C48.3663 31.735 48.2472 31.7943 48.0979 31.7641C47.9786 31.7639 47.8592 31.7636 47.7399 31.7633C47.5012 31.7627 47.2921 31.613 47.2915 31.3744C47.2909 31.1357 47.4396 30.9272 47.6782 30.9278C47.8572 30.9282 48.0063 30.8988 48.1556 30.929C48.3645 30.9593 48.5738 31.1686 48.5147 31.4071C48.6044 31.4969 48.5152 31.5862 48.4556 31.6457ZM32.2313 46.1356C32.1122 46.2546 31.9631 46.2841 31.8139 46.2539C31.5751 46.1936 31.4552 45.9547 31.5143 45.7162C31.5437 45.5671 31.6031 45.4479 31.6326 45.2988C31.6917 45.0603 31.9301 44.9415 32.1689 45.0017C32.4077 45.062 32.5276 45.3009 32.4685 45.5395C32.439 45.6885 32.3796 45.8077 32.3502 45.9568C32.3205 46.0463 32.2908 46.076 32.2313 46.1356ZM45.9807 32.1469C45.9211 32.2064 45.8914 32.2362 45.802 32.2658C45.6529 32.2953 45.5337 32.3547 45.3846 32.3841C45.146 32.4432 44.9071 32.3233 44.8768 32.1144C44.8165 31.8756 44.9353 31.6372 45.144 31.6079C45.2931 31.5784 45.4123 31.519 45.5614 31.4896C45.8 31.4305 46.0389 31.5504 46.0991 31.7892C46.1591 31.9087 46.0997 32.0279 45.9807 32.1469ZM33.031 43.721C32.9119 43.84 32.7331 43.8993 32.5837 43.8094C32.3746 43.7194 32.2547 43.4804 32.3437 43.2718C32.4031 43.1526 32.4326 43.0035 32.492 42.8843C32.581 42.6757 32.8193 42.557 33.0284 42.647C33.2374 42.737 33.3573 42.9759 33.2683 43.1845C33.209 43.3037 33.1795 43.4528 33.1201 43.572C33.0905 43.6614 33.0607 43.6912 33.031 43.721ZM43.596 32.9765C43.5662 33.0063 43.5067 33.0658 43.447 33.0657C43.3279 33.125 43.1788 33.1545 43.0596 33.2139C42.8509 33.3029 42.5822 33.2127 42.522 32.9739C42.432 32.7649 42.5208 32.4966 42.7594 32.4375C42.8786 32.3781 43.0277 32.3486 43.1468 32.2893C43.3555 32.2003 43.5944 32.3202 43.6844 32.5292C43.7743 32.6786 43.715 32.8575 43.596 32.9765ZM34.0696 41.4263C33.9506 41.5453 33.7418 41.5747 33.5627 41.5146C33.3536 41.4246 33.2635 41.1559 33.3822 40.9175C33.4416 40.7983 33.5308 40.6493 33.5901 40.5302C33.6791 40.3215 33.9474 40.2327 34.1566 40.3823C34.3657 40.4723 34.4558 40.7411 34.3071 40.9495C34.2478 41.0687 34.1884 41.1879 34.129 41.3071C34.1291 41.3668 34.0994 41.3965 34.0696 41.4263ZM41.3312 34.0451C41.3015 34.0748 41.2717 34.1046 41.2419 34.1344C41.1228 34.1937 41.0036 34.2531 40.8844 34.3125C40.7057 34.4314 40.4369 34.3413 40.3172 34.162C40.1974 33.9827 40.2863 33.7144 40.465 33.5955C40.5842 33.5361 40.7331 33.447 40.8523 33.3876C41.0609 33.2986 41.2998 33.3588 41.4195 33.5381C41.4796 33.7173 41.4503 33.926 41.3312 34.0451ZM35.3771 39.2814C35.2283 39.4303 35.0196 39.4596 34.8403 39.3398C34.661 39.2201 34.6006 38.9216 34.7195 38.7429C34.7789 38.6237 34.8979 38.5046 34.9573 38.3854C35.0762 38.2067 35.3744 38.1478 35.5239 38.2973C35.7032 38.4171 35.7636 38.7155 35.6148 38.8643C35.5255 38.9536 35.4661 39.0728 35.377 39.2218C35.4069 39.2517 35.4069 39.2517 35.3771 39.2814ZM39.2163 35.3825C39.2163 35.3825 39.1865 35.4123 39.1568 35.442C39.0675 35.5313 38.9483 35.5907 38.8292 35.7097C38.6206 35.7987 38.352 35.7683 38.2323 35.589C38.1125 35.4097 38.1417 35.1412 38.2905 34.9924C38.3798 34.9032 38.5287 34.814 38.618 34.7247C38.7967 34.6058 39.0653 34.6363 39.1851 34.8156C39.3645 34.995 39.3353 35.2634 39.2163 35.3825ZM37.0133 37.3462C36.8645 37.495 36.5961 37.5242 36.4167 37.3448C36.2372 37.1653 36.2367 36.9267 36.4152 36.7481L36.4747 36.6886C36.5343 36.6291 36.6236 36.5398 36.7128 36.4505C36.8617 36.3017 37.1301 36.2725 37.3095 36.4519C37.4889 36.6313 37.4895 36.87 37.3109 37.0486C37.2514 37.1081 37.1621 37.1974 37.0729 37.2867L37.0133 37.3462Z" fill="black" fill-opacity="0.3"/>
<path d="M24.0912 48.7117C24.0614 48.7415 24.0019 48.801 23.9422 48.8009C23.7933 48.89 23.6442 48.9195 23.4951 48.949C23.2565 49.0081 23.0474 48.8584 22.9871 48.6196C22.9269 48.3808 23.0755 48.1723 23.3141 48.1132C23.4035 48.0836 23.5526 48.0541 23.642 48.0245C23.8506 47.9355 24.1194 48.0256 24.1796 48.2644C24.2695 48.4138 24.2102 48.5927 24.0912 48.7117ZM25.5196 47.2235C25.4005 47.3425 25.2514 47.372 25.0723 47.3119C24.8633 47.2219 24.7433 46.983 24.8323 46.7744C24.862 46.6849 24.8618 46.6253 24.9213 46.5657L24.9212 46.5061C24.9505 46.2973 25.1589 46.089 25.3977 46.1492C25.6066 46.1795 25.786 46.359 25.7568 46.6274L25.757 46.6871L25.7275 46.8362C25.6979 46.9256 25.6683 47.015 25.6089 47.1342C25.6089 47.1342 25.5494 47.1937 25.5196 47.2235ZM48.4648 23.7998C48.3458 23.9188 48.137 23.9482 47.9876 23.8583C47.7786 23.7683 47.6885 23.4996 47.7775 23.291C47.8368 23.1718 47.8664 23.0823 47.9258 22.9632C47.9849 22.7246 48.2233 22.6059 48.4621 22.6661C48.7009 22.7263 48.8208 22.9653 48.7617 23.2038C48.7323 23.3529 48.6431 23.5019 48.5839 23.6807C48.5244 23.7403 48.4946 23.77 48.4648 23.7998ZM46.8867 25.0788C46.8272 25.1383 46.7378 25.168 46.6781 25.1678C46.6185 25.1677 46.5887 25.1974 46.529 25.1973L46.2606 25.2265C46.0221 25.2856 45.8129 25.1359 45.7526 24.8971C45.6924 24.6583 45.8411 24.4498 46.0796 24.3907L46.3778 24.3318C46.4374 24.3319 46.4672 24.3021 46.4672 24.3021C46.7057 24.2431 46.9149 24.3927 46.9752 24.6315C47.0055 24.8404 46.976 24.9895 46.8867 25.0788ZM26.0208 44.7485C25.9315 44.8378 25.7824 44.8673 25.6332 44.8371C25.3944 44.7769 25.2447 44.5677 25.3038 44.3292C25.3333 44.1801 25.3628 44.031 25.3625 43.9116C25.4216 43.6731 25.63 43.5244 25.8689 43.5847C26.1077 43.6449 26.2573 43.8541 26.1982 44.0926C26.1688 44.2417 26.1393 44.3908 26.1097 44.4803C26.0802 44.6293 26.0803 44.689 26.0208 44.7485ZM21.6742 48.4971C21.5253 48.6459 21.3166 48.6752 21.1373 48.5555C20.9879 48.4656 20.8683 48.346 20.7189 48.2561C20.5395 48.0767 20.5389 47.838 20.7175 47.6595C20.8663 47.5107 21.1347 47.4815 21.3141 47.6609C21.4039 47.7506 21.4936 47.8403 21.5832 47.8704C21.7624 47.9901 21.8526 48.2589 21.7039 48.4673C21.7039 48.4673 21.7039 48.4673 21.6742 48.4971ZM44.4119 25.6397C44.3524 25.6992 44.3226 25.729 44.2332 25.7586C44.0841 25.7881 43.9649 25.8475 43.8158 25.8769C43.5773 25.936 43.3681 25.7864 43.2781 25.5773C43.2179 25.3385 43.3665 25.13 43.5752 25.041C43.7243 25.0116 43.8434 24.9522 43.9925 24.9227C44.2311 24.8636 44.4403 25.0133 44.5303 25.2223C44.5604 25.3716 44.5012 25.5504 44.4119 25.6397ZM48.2801 21.4127C48.2503 21.4424 48.2503 21.4424 48.2206 21.4722C48.0419 21.5911 47.7733 21.5606 47.6236 21.3514C47.5637 21.232 47.5039 21.1721 47.4141 21.0824C47.3543 21.0226 47.3244 20.9927 47.2944 20.9031C47.2347 20.903 47.1451 20.8729 47.1152 20.843C47.0255 20.7533 46.936 20.7233 46.8165 20.6633C46.6074 20.5733 46.5173 20.3046 46.6063 20.096C46.6953 19.8874 46.9636 19.7985 47.1726 19.8885C47.322 19.9784 47.4415 20.0383 47.5909 20.1282C47.6507 20.188 47.7404 20.2777 47.7704 20.3673C47.86 20.3973 47.9496 20.4274 48.0094 20.4872C48.129 20.6068 48.2486 20.7264 48.3385 20.8758C48.4582 21.0551 48.4289 21.2639 48.2801 21.4127ZM26.5817 42.2737C26.4627 42.3928 26.3136 42.4222 26.1643 42.3921C25.9255 42.3318 25.8056 42.0929 25.8647 41.8543C25.8942 41.7052 25.9536 41.586 25.983 41.437C26.0421 41.1984 26.2805 41.0797 26.5193 41.1399C26.7581 41.2001 26.878 41.4391 26.8189 41.6776C26.7895 41.8267 26.7301 41.9459 26.7006 42.095C26.671 42.1844 26.6412 42.2142 26.5817 42.2737ZM41.9673 26.3498C41.9375 26.3796 41.878 26.4391 41.8183 26.439C41.6992 26.4984 41.5501 26.5278 41.4309 26.5872C41.2222 26.6762 40.9833 26.5563 40.8933 26.3473C40.8033 26.1382 40.9221 25.8998 41.1307 25.8108C41.2499 25.7515 41.399 25.722 41.5182 25.6626C41.7268 25.5736 41.9657 25.6935 42.0557 25.9026C42.1158 26.0817 42.0863 26.2308 41.9673 26.3498ZM27.3814 39.8591C27.2624 39.9782 27.1133 40.0077 26.9341 39.9476C26.7251 39.8576 26.6052 39.6186 26.6942 39.41C26.7535 39.2908 26.783 39.1417 26.8424 39.0225C26.9314 38.8139 27.1698 38.6951 27.3788 38.7851C27.5879 38.8751 27.7078 39.1141 27.6188 39.3227C27.5594 39.4419 27.5299 39.591 27.4706 39.7102C27.4409 39.7996 27.4112 39.8294 27.3814 39.8591ZM20.595 46.3465C20.5057 46.4358 20.3865 46.4952 20.2373 46.465C20.0284 46.4347 19.8488 46.1956 19.8781 45.9868C19.878 45.9271 19.9078 45.8974 19.9076 45.8377L19.9666 45.5395C20.0257 45.301 20.2341 45.1523 20.4729 45.2126C20.7118 45.2728 20.8614 45.482 20.8023 45.7205L20.7434 46.0187C20.7435 46.0784 20.7138 46.1081 20.7138 46.1081C20.6841 46.1976 20.6545 46.287 20.595 46.3465ZM39.6127 27.269C39.5829 27.2988 39.5532 27.3285 39.4637 27.3582C39.3445 27.4175 39.2253 27.4769 39.0762 27.5064C38.8676 27.5954 38.5989 27.5053 38.5089 27.2962C38.4189 27.0872 38.5078 26.8189 38.7164 26.7299C38.8356 26.6705 38.9548 26.6111 39.1039 26.5816C39.3125 26.4926 39.5812 26.5828 39.6712 26.7918C39.7611 26.9412 39.7317 27.15 39.6127 27.269ZM28.3903 37.5942C28.2713 37.7133 28.0625 37.7426 27.9131 37.6528C27.7041 37.5628 27.6139 37.294 27.7029 37.0854C27.7623 36.9662 27.8217 36.847 27.9108 36.6981C27.9998 36.4895 28.2681 36.4006 28.5071 36.5205C28.746 36.6404 28.8063 36.8792 28.6875 37.1176C28.6281 37.2368 28.5687 37.356 28.5094 37.4752C28.4199 37.5048 28.4201 37.5645 28.3903 37.5942ZM45.2349 20.5104C45.1754 20.5699 45.086 20.5995 45.0263 20.5994L44.6387 20.6879C44.4002 20.747 44.191 20.5974 44.1307 20.3585C44.0705 20.1197 44.2192 19.9113 44.4577 19.8522L44.8751 19.7338C45.1136 19.6747 45.3228 19.8244 45.383 20.0632C45.3836 20.3019 45.3242 20.4211 45.2349 20.5104ZM37.3479 28.3376C37.3181 28.3673 37.2884 28.3971 37.2586 28.4269C37.1394 28.4863 37.0202 28.5456 36.9011 28.605C36.7223 28.7239 36.4536 28.6338 36.3339 28.4545C36.2141 28.2752 36.303 28.0069 36.4817 27.888C36.6009 27.8286 36.7498 27.7395 36.869 27.6801C37.0776 27.5911 37.3164 27.6513 37.4362 27.8306C37.4963 28.0098 37.467 28.2185 37.3479 28.3376ZM29.638 35.3896C29.4892 35.5384 29.2804 35.5677 29.1012 35.4479C28.9219 35.3282 28.8317 35.0595 28.9804 34.851C29.0398 34.7318 29.1588 34.6128 29.2182 34.4936C29.3371 34.3148 29.6353 34.2559 29.8146 34.3757C29.9939 34.4954 30.0543 34.7939 29.9353 34.9726C29.876 35.0918 29.7867 35.1811 29.6975 35.33C29.6975 35.33 29.6678 35.3598 29.638 35.3896ZM21.0962 43.8716C21.0069 43.9608 20.8281 44.0201 20.7086 43.9601C20.4698 43.8999 20.3201 43.6907 20.3792 43.4522L20.4975 43.0348C20.5566 42.7963 20.795 42.6775 21.0039 42.7078C21.2427 42.7681 21.3626 43.007 21.3333 43.2158L21.1852 43.6629C21.1854 43.7226 21.1557 43.812 21.0962 43.8716ZM35.2032 29.7048C35.1734 29.7345 35.1734 29.7345 35.1437 29.7643C35.0245 29.8237 34.9352 29.913 34.7862 30.0021C34.6075 30.121 34.339 30.0905 34.2192 29.9112C34.0994 29.732 34.1286 29.4635 34.3073 29.3446C34.4265 29.2852 34.5456 29.1662 34.6648 29.1068C34.8435 28.9879 35.112 29.0184 35.2617 29.2276C35.3514 29.3173 35.352 29.556 35.2032 29.7048ZM31.1845 33.3646C31.0357 33.5134 30.7672 33.5426 30.6177 33.3931C30.4383 33.2137 30.4377 32.975 30.5566 32.7963C30.6459 32.707 30.765 32.5879 30.8243 32.4688C30.9731 32.3199 31.2416 32.2908 31.421 32.4702C31.6004 32.6496 31.601 32.8883 31.4224 33.0669C31.3629 33.1264 31.3035 33.2456 31.1845 33.3646ZM33.2379 31.2514C33.2379 31.2514 33.2081 31.2811 33.2379 31.2514C33.1189 31.3704 33.0296 31.4597 32.9403 31.549C32.7617 31.7276 32.4931 31.6971 32.3436 31.5476C32.1642 31.3681 32.1636 31.1295 32.3422 30.9509C32.4315 30.8616 32.5505 30.7426 32.6398 30.6533C32.8184 30.4747 33.087 30.5052 33.2365 30.6547C33.3861 30.8639 33.3867 31.1026 33.2379 31.2514ZM42.79 21.1012C42.7305 21.1607 42.7007 21.1904 42.6113 21.2201L42.1939 21.3384C41.9554 21.3975 41.7165 21.2776 41.6562 21.0388C41.596 20.8 41.7147 20.5616 41.9533 20.5025L42.3706 20.3842C42.6092 20.3251 42.8481 20.445 42.9084 20.6838C42.9387 20.8927 42.8793 21.0119 42.79 21.1012ZM21.7168 41.3969C21.5977 41.5159 21.4486 41.5454 21.2994 41.5152C21.0606 41.455 20.9407 41.216 20.9998 40.9775C21.0292 40.8284 21.0886 40.7092 21.1181 40.5601C21.1772 40.3216 21.4156 40.2028 21.6544 40.2631C21.8932 40.3233 22.0131 40.5623 21.954 40.8008C21.9245 40.9499 21.8652 41.0691 21.8357 41.2182C21.8061 41.3076 21.7465 41.3671 21.7168 41.3969ZM40.3455 21.871C40.3158 21.9007 40.2563 21.9602 40.1966 21.9601L39.8091 22.1083C39.6005 22.1973 39.3615 22.0774 39.2715 21.8684C39.1815 21.6593 39.3003 21.4209 39.5089 21.3319L39.8964 21.1837C40.105 21.0947 40.344 21.2146 40.434 21.4237C40.5238 21.5731 40.4646 21.7519 40.3455 21.871ZM22.4867 39.0121C22.3677 39.1311 22.2186 39.1606 22.0394 39.1005C21.8304 39.0105 21.7105 38.7715 21.7995 38.5629C21.8589 38.4437 21.8883 38.2946 21.9477 38.1754C22.0367 37.9668 22.2751 37.8481 22.4841 37.9381C22.6932 38.0281 22.8131 38.267 22.7241 38.4756C22.6647 38.5948 22.6352 38.7439 22.5759 38.8631C22.576 38.9228 22.5462 38.9525 22.4867 39.0121ZM38.0207 22.7604C37.9909 22.7901 37.9314 22.8497 37.8717 22.8495C37.7525 22.9089 37.6334 22.9683 37.4843 22.9978C37.2756 23.0868 37.0069 22.9966 36.9169 22.7876C36.8269 22.5785 36.9158 22.3102 37.1244 22.2212C37.2436 22.1618 37.3628 22.1025 37.5119 22.073C37.7205 21.984 37.9892 22.0741 38.0792 22.2832C38.1692 22.4922 38.1397 22.6413 38.0207 22.7604ZM23.4656 36.6576C23.3465 36.7766 23.1677 36.8359 23.0183 36.746C22.8092 36.656 22.7191 36.3873 22.8081 36.1787C22.8675 36.0595 22.9268 35.9403 22.9861 35.7614C23.0751 35.5528 23.3434 35.464 23.5524 35.554C23.7615 35.644 23.8516 35.9127 23.7626 36.1213C23.7032 36.2405 23.6439 36.3597 23.5845 36.4789C23.5251 36.5981 23.4953 36.6278 23.4656 36.6576ZM35.7262 23.8587C35.6964 23.8885 35.6666 23.9182 35.6369 23.948C35.5177 24.0074 35.3985 24.0667 35.2793 24.1261C35.0707 24.2151 34.8319 24.1549 34.7121 23.9756C34.5923 23.7963 34.6812 23.528 34.8599 23.4091C34.9791 23.3497 35.0983 23.2904 35.2472 23.2012C35.4559 23.1122 35.6947 23.1725 35.8146 23.4114C35.8745 23.5309 35.8452 23.7397 35.7262 23.8587ZM24.5938 34.393C24.4747 34.512 24.266 34.5413 24.0868 34.4812C23.9076 34.3615 23.8174 34.0928 23.9363 33.9141C23.9957 33.7949 24.0848 33.6459 24.1442 33.5267C24.2631 33.348 24.5314 33.2591 24.7107 33.3789C24.89 33.4987 24.9801 33.7674 24.8612 33.9461C24.8018 34.0653 24.7425 34.1845 24.6533 34.3334C24.6236 34.3632 24.5938 34.393 24.5938 34.393ZM33.5215 25.1064C33.4917 25.1362 33.4917 25.1362 33.462 25.1659C33.3428 25.2253 33.2535 25.3146 33.1045 25.4037C32.9258 25.5226 32.6573 25.4922 32.5076 25.283C32.3579 25.0738 32.417 24.8353 32.6255 24.6866C32.7447 24.6272 32.8637 24.5082 32.9829 24.4488C33.1616 24.3299 33.4601 24.3903 33.5799 24.5695C33.6996 24.7488 33.6703 24.9576 33.5215 25.1064ZM25.9312 32.278C25.7824 32.4268 25.5736 32.4562 25.3944 32.3364C25.2151 32.2166 25.1547 31.9181 25.2736 31.7394C25.333 31.6202 25.452 31.5012 25.5114 31.382C25.6303 31.2033 25.9285 31.1443 26.078 31.2939C26.2573 31.4136 26.3177 31.7121 26.1689 31.8609C26.1095 31.9801 26.0202 32.0694 25.9311 32.2183C25.961 32.2482 25.961 32.2482 25.9312 32.278ZM31.4366 26.5334L31.4068 26.5632C31.3175 26.6524 31.1686 26.7416 31.0793 26.8309C30.9006 26.9498 30.632 26.9193 30.4825 26.7698C30.3627 26.5905 30.3322 26.3219 30.5407 26.1732C30.63 26.084 30.779 25.9948 30.8682 25.9055C31.047 25.7866 31.3155 25.8171 31.4651 25.9666C31.6146 26.1162 31.5854 26.3846 31.4366 26.5334ZM27.5076 30.283C27.3588 30.4318 27.0904 30.461 26.9408 30.3114C26.7614 30.132 26.7608 29.8933 26.8797 29.7146C26.969 29.6253 27.0881 29.5063 27.1474 29.3871C27.2963 29.2383 27.5647 29.2091 27.7441 29.3885C27.9235 29.568 27.9241 29.8066 27.7455 29.9852C27.686 30.0447 27.567 30.1638 27.5076 30.283ZM29.5311 28.1398C29.5013 28.1696 29.5013 28.1696 29.5311 28.1398C29.4121 28.2589 29.3228 28.3482 29.2335 28.4374C29.0549 28.616 28.7864 28.5855 28.6368 28.436C28.4873 28.2865 28.4866 27.9881 28.6354 27.8393C28.7247 27.7501 28.8437 27.631 28.933 27.5417C29.1116 27.3631 29.3802 27.3936 29.5297 27.5432C29.6793 27.7523 29.6799 27.991 29.5311 28.1398Z" fill="black" fill-opacity="0.3"/>
<path d="M13.4972 46.9857C13.3781 47.1047 13.1993 47.164 13.0499 47.0741C12.8408 46.9841 12.7209 46.7451 12.8397 46.5068C12.8991 46.3876 12.9287 46.2981 12.9582 46.149C13.0172 45.9105 13.2556 45.7918 13.4645 45.8221C13.7033 45.8823 13.8233 46.1213 13.7939 46.3301C13.7644 46.4791 13.7052 46.658 13.6458 46.7772C13.5864 46.8964 13.5567 46.9262 13.4972 46.9857ZM12.0387 48.3843C12.0089 48.4141 11.9494 48.4736 11.8897 48.4735C11.7406 48.503 11.5618 48.5622 11.4127 48.5917C11.2039 48.621 10.9648 48.4414 10.9345 48.2325C10.9042 48.0236 11.0826 47.7854 11.2913 47.756C11.4107 47.7563 11.5299 47.697 11.6193 47.6673C11.8279 47.5783 12.0669 47.6982 12.1271 47.9371C12.1872 48.1162 12.1577 48.2653 12.0387 48.3843ZM13.9387 44.5106C13.8494 44.5999 13.7302 44.6592 13.581 44.629C13.3721 44.5987 13.1925 44.3596 13.2219 44.1509L13.2805 43.7333C13.3099 43.5246 13.5481 43.3461 13.757 43.3765C13.9659 43.4068 14.1455 43.6459 14.1161 43.8547L14.0575 44.2722C14.0279 44.3616 13.9982 44.451 13.9387 44.5106ZM47.1824 11.1472C47.0634 11.2663 46.8546 11.2956 46.6755 11.2355C46.4664 11.1455 46.3763 10.8768 46.495 10.6384C46.5544 10.5192 46.584 10.4298 46.6434 10.3106C46.7324 10.102 46.9708 9.98324 47.1499 10.0433C47.359 10.1333 47.4789 10.3723 47.4197 10.5512C47.3902 10.7002 47.301 10.8492 47.2119 10.9982C47.2419 11.0877 47.2122 11.1175 47.1824 11.1472ZM45.5146 12.3366C45.4551 12.3961 45.3657 12.4257 45.2762 12.4553C45.1271 12.4848 45.0078 12.4845 44.8587 12.514C44.6202 12.5731 44.411 12.4234 44.3805 12.1549C44.3203 11.916 44.4689 11.7076 44.7374 11.6784C44.8865 11.6489 45.0356 11.6194 45.1549 11.6197C45.3934 11.5606 45.6026 11.7103 45.6331 11.9789C45.6631 12.0684 45.6039 12.2473 45.5146 12.3366ZM9.59149 48.0205C9.44268 48.1693 9.23391 48.1986 9.05463 48.0788C8.93501 47.9592 8.78562 47.8694 8.69591 47.7796C8.51648 47.6002 8.51591 47.3616 8.69448 47.183C8.87305 47.0044 9.11171 47.005 9.29115 47.1844C9.38086 47.2741 9.47058 47.3638 9.56015 47.3939C9.73943 47.5137 9.79982 47.8121 9.68091 47.9908C9.62125 47.9907 9.62125 47.9907 9.59149 48.0205ZM14.41 42.0057C14.3208 42.095 14.1717 42.1245 14.0224 42.0943C13.7836 42.034 13.6339 41.8248 13.693 41.5863L13.7816 41.1987C13.8407 40.9602 14.0492 40.8115 14.288 40.8717C14.5268 40.932 14.6765 41.1412 14.6174 41.3797L14.5288 41.7673C14.4694 41.8865 14.4398 41.9759 14.41 42.0057ZM47.1468 8.73066C47.117 8.76043 47.0873 8.79019 47.0575 8.81995C46.8788 8.93886 46.6101 8.84871 46.4903 8.66942C46.4304 8.54995 46.3406 8.46023 46.3106 8.37066C46.191 8.25104 46.1905 8.07204 46.2499 7.95285C46.1307 8.01223 45.9517 8.0118 45.8024 7.92194C45.7126 7.83222 45.6231 7.80217 45.5036 7.74222C45.2945 7.65222 45.2044 7.38351 45.2934 7.17489C45.3824 6.96627 45.6507 6.87741 45.8597 6.96741C46.0091 7.05727 46.1286 7.11722 46.278 7.20708C46.4573 7.32684 46.4876 7.53575 46.4284 7.71461C46.5773 7.62547 46.8161 7.68571 46.9656 7.83523C47.0853 7.95485 47.1751 8.10423 47.2351 8.22371C47.2952 8.40286 47.2658 8.61162 47.1468 8.73066ZM43.0395 12.7781C42.98 12.8377 42.9205 12.8972 42.8309 12.8671L42.4433 12.9557C42.2047 13.0148 41.9956 12.8651 41.9353 12.6263C41.8751 12.3875 42.0237 12.179 42.2623 12.1199L42.6796 12.0016C42.9182 11.9425 43.1274 12.0922 43.1876 12.331C43.1882 12.5697 43.1288 12.6888 43.0395 12.7781ZM14.9709 39.5309C14.8816 39.6202 14.7028 39.6794 14.5536 39.6492C14.3147 39.589 14.1948 39.35 14.2539 39.1115L14.3723 38.6941C14.4314 38.4556 14.6697 38.3368 14.9085 38.3971C15.1474 38.4573 15.2673 38.6963 15.2082 38.9348L15.0898 39.3522C15.0602 39.4416 15.0007 39.5011 14.9709 39.5309ZM8.51232 45.8699C8.42304 45.9592 8.27394 45.9886 8.15461 45.9884C7.9158 45.9281 7.76613 45.7189 7.82522 45.4804L7.82508 45.4207L7.88389 45.0629C7.91322 44.8541 8.15146 44.6757 8.36036 44.706C8.56927 44.7363 8.74884 44.9754 8.71951 45.1842L8.6607 45.5421L8.66085 45.6017C8.63137 45.7508 8.57185 45.8104 8.51232 45.8699ZM40.5947 13.4286C40.5352 13.4881 40.5055 13.5179 40.416 13.5475C40.2669 13.577 40.1477 13.6364 39.9986 13.6658C39.7601 13.7249 39.5212 13.605 39.4609 13.3662C39.4007 13.1274 39.5195 12.889 39.758 12.8299C39.9071 12.8004 40.0263 12.7411 40.1754 12.7116C40.4139 12.6525 40.6528 12.7724 40.7131 13.0112C40.7433 13.1605 40.684 13.3393 40.5947 13.4286ZM15.711 37.1162C15.5919 37.2352 15.4428 37.2647 15.2637 37.2046C15.0546 37.1146 14.9347 36.8756 15.0237 36.667C15.0831 36.5478 15.1126 36.3987 15.172 36.2795C15.261 36.0709 15.4993 35.9522 15.7084 36.0422C15.9174 36.1322 16.0373 36.3711 15.9483 36.5797C15.889 36.6989 15.8595 36.848 15.8001 36.9672C15.8003 37.0269 15.7407 37.0864 15.711 37.1162ZM38.1802 14.2283C38.1504 14.2581 38.0909 14.3176 38.0312 14.3174L37.6437 14.4657C37.4351 14.5547 37.1962 14.4348 37.1062 14.2257C37.0162 14.0167 37.1349 13.7783 37.3435 13.6893L37.731 13.5411C37.9396 13.4521 38.1786 13.572 38.2686 13.781C38.3585 13.9304 38.2992 14.1093 38.1802 14.2283ZM8.92398 43.3649C8.83469 43.4542 8.7155 43.5135 8.56626 43.4833C8.32745 43.4231 8.17778 43.2139 8.23688 42.9754L8.26578 42.5876C8.32487 42.3491 8.53335 42.2004 8.77216 42.2607C9.01097 42.3209 9.16064 42.5301 9.10155 42.7686L9.04288 43.1862C9.01312 43.2159 8.9835 43.3053 8.92398 43.3649ZM43.8922 7.55935C43.8326 7.61888 43.7432 7.6485 43.6538 7.67811L43.2362 7.73678C42.9977 7.79587 42.7885 7.64621 42.7283 7.40739C42.668 7.16858 42.8167 6.96011 43.0552 6.90101L43.4728 6.84235C43.7113 6.78326 43.9205 6.93292 43.9807 7.17173C44.0109 7.32097 43.9814 7.47007 43.8922 7.55935ZM16.5705 34.7614C16.4514 34.8804 16.2726 34.9397 16.1232 34.8498C15.9141 34.7598 15.7942 34.5209 15.8832 34.3123C15.9426 34.1931 15.9721 34.044 16.0315 33.9248C16.1205 33.7162 16.3589 33.5974 16.5978 33.7173C16.8069 33.8073 16.9268 34.0463 16.808 34.2846C16.7486 34.4038 16.6892 34.523 16.6598 34.6721C16.6598 34.6721 16.6002 34.7316 16.5705 34.7614ZM35.8255 15.1475C35.7958 15.1772 35.766 15.207 35.6766 15.2366C35.5574 15.296 35.4382 15.3554 35.2891 15.3849C35.0805 15.4739 34.8118 15.3837 34.7218 15.1747C34.6318 14.9656 34.7206 14.6973 34.9293 14.6083C35.0484 14.5489 35.1676 14.4896 35.3167 14.4601C35.5253 14.3711 35.7941 14.4612 35.8841 14.6703C36.0038 14.8496 35.9446 15.0284 35.8255 15.1475ZM9.4252 40.8899C9.33592 40.9792 9.15706 41.0384 9.03758 40.9785C8.79877 40.9182 8.6491 40.709 8.7082 40.4705L8.82653 40.0531C8.88562 39.8146 9.124 39.6959 9.33291 39.7262C9.57172 39.7864 9.69163 40.0254 9.6623 40.2341L9.57373 40.6218C9.48458 40.7707 9.48473 40.8304 9.4252 40.8899ZM17.6091 32.4667C17.4901 32.5858 17.2813 32.6151 17.1319 32.5253C16.9229 32.4353 16.8328 32.1665 16.9218 31.9579C16.9811 31.8387 17.0405 31.7195 17.1297 31.5706C17.2187 31.362 17.4869 31.2731 17.696 31.3631C17.905 31.4531 17.9952 31.7218 17.9062 31.9304C17.8468 32.0496 17.7874 32.1688 17.728 32.288C17.6687 32.4072 17.6389 32.437 17.6091 32.4667ZM33.5608 16.216C33.531 16.2458 33.5013 16.2756 33.4715 16.3053C33.3523 16.3647 33.2331 16.4241 33.1139 16.4835C32.9053 16.5725 32.6665 16.5122 32.5168 16.303C32.4268 16.094 32.4859 15.8555 32.6944 15.7068C32.8136 15.6474 32.9328 15.588 33.0817 15.4989C33.2903 15.4099 33.5292 15.4701 33.6491 15.7091C33.7092 15.8882 33.6798 16.097 33.5608 16.216ZM41.3874 8.09034C41.3279 8.14987 41.2684 8.20939 41.2087 8.20925L40.7913 8.32758C40.5528 8.38667 40.3436 8.237 40.2834 7.99819C40.2231 7.75938 40.3718 7.5509 40.6103 7.49181L41.0277 7.37348C41.2662 7.31439 41.4754 7.46405 41.5357 7.70287C41.5659 7.8521 41.5065 7.9713 41.3874 8.09034ZM18.797 30.2023C18.678 30.3213 18.4692 30.3506 18.2901 30.2905C18.1108 30.1708 18.0206 29.9021 18.1396 29.7233C18.1989 29.6042 18.2881 29.4552 18.3475 29.336C18.4664 29.1573 18.7346 29.0684 18.9139 29.1882C19.0932 29.308 19.1834 29.5767 19.0645 29.7554C19.0051 29.8746 18.9457 29.9938 18.8267 30.1128C18.8268 30.1725 18.797 30.2023 18.797 30.2023ZM31.3561 17.4638C31.3263 17.4935 31.2966 17.5233 31.2966 17.5233L30.9392 17.7611C30.7604 17.88 30.462 17.8196 30.372 17.6106C30.2522 17.4313 30.3112 17.1331 30.5198 17.0441C30.639 16.9847 30.7879 16.8956 30.8772 16.8063C31.0559 16.6874 31.3544 16.7477 31.4444 16.9568C31.5343 17.1062 31.5049 17.3149 31.3561 17.4638ZM10.016 38.445C9.92672 38.5343 9.74786 38.5935 9.59862 38.5633C9.35981 38.5031 9.2399 38.2641 9.29899 38.0256L9.41733 37.6082C9.47642 37.3697 9.7148 37.2509 9.95361 37.3112C10.1924 37.3714 10.3123 37.6104 10.2532 37.8489L10.1349 38.2663C10.135 38.326 10.0755 38.3855 10.016 38.445ZM20.1345 28.0873C19.9856 28.2361 19.7769 28.2654 19.5976 28.1457C19.4183 28.0259 19.3579 27.7274 19.4768 27.5487C19.5362 27.4295 19.6553 27.3105 19.7146 27.1913C19.8335 27.0126 20.1317 26.9536 20.311 27.0734C20.4903 27.1932 20.5507 27.4916 20.4318 27.6703C20.3724 27.7895 20.2831 27.8788 20.194 28.0278C20.1642 28.0575 20.1642 28.0575 20.1345 28.0873ZM29.2412 18.8012C29.2114 18.8309 29.2114 18.8309 29.1816 18.8607C29.0624 18.9201 28.9732 19.0094 28.8242 19.0985C28.6455 19.2174 28.3769 19.1869 28.2572 19.0076C28.1374 18.8284 28.1666 18.5599 28.3453 18.441C28.4645 18.3816 28.5835 18.2626 28.7027 18.2032C28.8814 18.0843 29.15 18.1148 29.2997 18.324C29.4193 18.4436 29.3602 18.6821 29.2412 18.8012ZM38.9427 8.74081C38.8831 8.80033 38.8534 8.83009 38.7639 8.85971L38.3466 8.97804C38.108 9.03714 37.8691 8.91723 37.8088 8.67842C37.7486 8.43961 37.8674 8.20123 38.1059 8.14213L38.5233 8.0238C38.7618 7.96471 39.0008 8.08461 39.061 8.32342C39.0912 8.47266 39.0617 8.62176 38.9427 8.74081ZM21.651 26.0324C21.5022 26.1813 21.2635 26.1807 21.0843 26.0609C20.905 25.9412 20.8745 25.6726 21.0232 25.4641C21.1124 25.3748 21.2016 25.2259 21.2909 25.1366C21.4395 24.9281 21.7081 24.9586 21.8874 25.0783C22.0667 25.1981 22.0674 25.4964 21.9485 25.6752C21.8592 25.7644 21.7701 25.9134 21.6808 26.0027C21.651 26.0324 21.651 26.0324 21.651 26.0324ZM27.2162 20.3476C27.0972 20.4667 26.9482 20.5558 26.8589 20.6451C26.7101 20.7939 26.4118 20.7932 26.2621 20.584C26.0827 20.4046 26.1119 20.1362 26.3203 19.9875C26.4096 19.8982 26.5586 19.8091 26.6479 19.7198C26.8266 19.6009 27.095 19.5717 27.2447 19.7809C27.3942 19.9304 27.365 20.1988 27.2162 20.3476ZM23.2874 24.1569C23.1385 24.3057 22.8701 24.3349 22.6907 24.1554C22.5113 23.976 22.5107 23.7373 22.6892 23.5588C22.7785 23.4695 22.8976 23.3504 22.9869 23.2612C23.1357 23.1123 23.4041 23.0832 23.5835 23.2626C23.763 23.442 23.7635 23.6807 23.585 23.8593C23.4957 23.9485 23.4064 24.0378 23.2874 24.1569C23.3171 24.1271 23.3171 24.1271 23.2874 24.1569ZM25.3408 22.0436C25.2515 22.1329 25.1324 22.252 25.0432 22.3413C24.8646 22.5198 24.596 22.4894 24.4465 22.3398C24.2671 22.1604 24.2665 21.9217 24.4451 21.7432C24.5343 21.6539 24.6534 21.5348 24.7427 21.4455C24.9212 21.267 25.1898 21.2974 25.3393 21.447C25.4889 21.5965 25.5193 21.8651 25.3408 22.0436ZM10.756 36.0303C10.637 36.1493 10.4879 36.1788 10.3087 36.1187C10.0997 36.0287 9.97979 35.7897 10.039 35.6109L10.1873 35.2234C10.2763 35.0148 10.5146 34.896 10.7237 34.986C10.9327 35.076 11.0527 35.315 10.9637 35.5236L10.8154 35.9111C10.8453 35.941 10.8156 35.9708 10.756 36.0303ZM36.5578 9.51075C36.5281 9.54051 36.4686 9.60003 36.4089 9.59989C36.2897 9.65927 36.1406 9.68874 36.0214 9.74812C35.8128 9.83712 35.5738 9.71722 35.4838 9.50817C35.3938 9.29912 35.5126 9.06074 35.7212 8.97174C35.8404 8.91236 35.9895 8.88288 36.1087 8.8235C36.3173 8.7345 36.5563 8.85441 36.6463 9.06346C36.7064 9.24261 36.6769 9.3917 36.5578 9.51075ZM11.6453 33.6457C11.5263 33.7648 11.3474 33.824 11.198 33.7342C10.989 33.6442 10.8691 33.4052 10.9581 33.1966L11.1063 32.8091C11.1953 32.6005 11.4337 32.4817 11.6427 32.5717C11.8518 32.6617 11.9717 32.9007 11.8827 33.1093L11.7345 33.4968C11.6749 33.5563 11.6751 33.616 11.6453 33.6457ZM34.2032 10.4299C34.1735 10.4597 34.1139 10.5192 34.0543 10.5191L33.6668 10.6673C33.4582 10.7563 33.1895 10.6662 33.0995 10.4571C33.0095 10.2481 33.0983 9.97978 33.3069 9.89078L33.6944 9.74254C33.903 9.65354 34.1717 9.74369 34.2617 9.95273C34.3815 10.132 34.3223 10.3109 34.2032 10.4299ZM12.5944 31.321C12.4753 31.4401 12.2965 31.4993 12.1172 31.3796C11.9082 31.2895 11.818 31.0208 11.907 30.8122L12.0852 30.4546C12.1742 30.246 12.4424 30.1572 12.6515 30.2472C12.8605 30.3372 12.9507 30.6059 12.8617 30.8145L12.7134 31.202C12.6837 31.2317 12.6242 31.2913 12.5944 31.321ZM31.9086 11.4686C31.8788 11.4983 31.849 11.5281 31.7894 11.528C31.6703 11.647 31.5212 11.6765 31.402 11.7359C31.1934 11.8249 30.9546 11.7646 30.8347 11.5257C30.7148 11.2867 30.8038 11.0781 31.0422 10.9593C31.1614 10.9 31.2805 10.8406 31.4295 10.7514C31.6381 10.6624 31.8769 10.7227 31.9968 10.9616C32.0569 11.1408 32.0276 11.3495 31.9086 11.4686ZM13.7226 29.0564C13.6036 29.1755 13.3948 29.2048 13.2157 29.1447C13.0066 29.0547 12.9165 28.786 13.0651 28.5775C13.1245 28.4583 13.1839 28.3391 13.273 28.1902C13.362 27.9815 13.6303 27.8927 13.8395 28.0424C14.0486 28.1324 14.1387 28.4011 13.9901 28.6096L13.8119 28.9671C13.7822 28.9969 13.7524 29.0266 13.7226 29.0564ZM29.674 12.6864C29.6442 12.7161 29.6145 12.7459 29.5847 12.7757C29.4655 12.8351 29.3463 12.8944 29.1974 12.9836C29.0186 13.1025 28.7202 13.0421 28.6302 12.833C28.5103 12.5941 28.5991 12.3258 28.7778 12.2069C28.897 12.1475 29.046 12.0584 29.1652 11.999C29.3439 11.8801 29.6126 11.9702 29.7324 12.1495C29.8521 12.3288 29.8228 12.5376 29.674 12.6864ZM14.9703 26.8517C14.8215 27.0005 14.6128 27.0299 14.4335 26.9101C14.2542 26.7904 14.164 26.5216 14.2829 26.3429C14.3423 26.2237 14.4315 26.0748 14.5208 25.9855C14.6397 25.8068 14.9079 25.7179 15.1171 25.8676C15.2964 25.9874 15.3866 26.2561 15.2379 26.4645C15.1785 26.5837 15.0892 26.673 15.0001 26.822C15.0299 26.7922 15.0001 26.822 14.9703 26.8517ZM27.4992 13.964C27.4695 13.9938 27.4695 13.9938 27.4397 14.0235L27.0823 14.2613C26.9035 14.3802 26.635 14.3498 26.4853 14.1406C26.3655 13.9613 26.3947 13.6928 26.6032 13.5442C26.7224 13.4848 26.8414 13.3658 26.9606 13.3064C27.1394 13.1875 27.4079 13.2179 27.5576 13.4271C27.6774 13.6064 27.6183 13.845 27.4992 13.964ZM16.3674 24.7369C16.2186 24.8857 16.0098 24.9151 15.8306 24.7953C15.6513 24.6755 15.5909 24.3771 15.7098 24.1984C15.7692 24.0792 15.8882 23.9601 15.9476 23.8409C16.1262 23.6624 16.3946 23.6332 16.5739 23.7529C16.7532 23.8727 16.8136 24.1712 16.6648 24.32C16.6054 24.4392 16.4863 24.5582 16.4269 24.6774C16.3972 24.7072 16.3674 24.7369 16.3674 24.7369ZM25.4442 15.4209L25.4145 15.4507L25.0869 15.7184C24.9082 15.8373 24.6396 15.8068 24.4901 15.6573C24.3704 15.478 24.3995 15.2096 24.5483 15.0607L24.8759 14.793C25.0546 14.6741 25.3232 14.7046 25.4429 14.8839C25.6224 15.0633 25.593 15.2721 25.4442 15.4209ZM17.8841 22.7417C17.7353 22.8905 17.4967 22.89 17.3174 22.7702C17.1381 22.6504 17.1076 22.3819 17.2563 22.1734C17.3456 22.0841 17.4347 21.9352 17.524 21.8459C17.6726 21.6374 17.9412 21.6679 18.1205 21.7876C18.2999 21.9671 18.3005 22.2057 18.1816 22.3845C18.0923 22.4737 18.0032 22.6227 17.9139 22.712C17.9139 22.712 17.9139 22.712 17.8841 22.7417ZM23.4791 17.0272L23.1218 17.3247C22.9432 17.5032 22.6746 17.4727 22.525 17.2636C22.3455 17.0841 22.3747 16.8157 22.5832 16.667C22.6725 16.5777 22.7915 16.4587 22.9107 16.3993C23.0893 16.2207 23.3579 16.2512 23.5075 16.4604C23.6571 16.6099 23.6279 16.8784 23.4791 17.0272ZM19.5801 20.8663C19.4313 21.0151 19.1629 21.0443 18.9835 20.8649C18.804 20.6854 18.8035 20.4468 18.982 20.2682C19.0713 20.1789 19.1904 20.0599 19.2796 19.9706C19.4285 19.8218 19.6969 19.7926 19.8763 19.972C20.0557 20.1515 20.0563 20.3901 19.8777 20.5687C19.7586 20.6281 19.6693 20.7174 19.5801 20.8663ZM21.6036 18.7232L21.306 19.0208C21.1275 19.1994 20.8888 19.1988 20.7094 19.0194C20.5299 18.8399 20.5294 18.6013 20.7079 18.4227L21.0055 18.1251C21.1841 17.9465 21.4527 17.977 21.6022 18.1265C21.7816 18.3059 21.7822 18.5446 21.6036 18.7232Z" fill="black" fill-opacity="0.3"/>
<path d="M50.3802 50.8928C50.3802 50.8928 50.3504 50.9226 50.3802 50.8928C50.2314 51.0416 50.1122 51.101 49.9633 51.1902C49.7845 51.3091 49.516 51.2786 49.3663 51.0694C49.2465 50.8901 49.2757 50.6217 49.4842 50.473C49.6034 50.4136 49.6927 50.3244 49.782 50.2351C49.9607 50.1162 50.2291 50.087 50.3788 50.2962C50.5284 50.5054 50.529 50.744 50.3802 50.8928ZM51.5993 49.1953C51.4802 49.3143 51.3312 49.3438 51.152 49.2837C50.943 49.1937 50.8231 48.9547 50.9121 48.7461C50.9714 48.6269 50.9711 48.5076 51.0305 48.3884C51.0896 48.1499 51.328 48.0311 51.5369 48.0615C51.7757 48.1217 51.8956 48.3606 51.8663 48.5694C51.8368 48.7185 51.8073 48.8676 51.7182 49.0166C51.6587 49.0761 51.6291 49.1655 51.5993 49.1953ZM48.0553 51.7823C47.9958 51.8418 47.8766 51.9012 47.7573 51.9009C47.6082 51.9304 47.459 51.9002 47.28 51.8997C47.0413 51.8992 46.8916 51.69 46.8911 51.4513C46.8905 51.2126 47.099 51.064 47.3376 51.0645C47.457 51.0648 47.5763 51.0651 47.6956 51.0654C47.9343 51.066 48.1137 51.2454 48.1441 51.4543C48.204 51.5738 48.1446 51.693 48.0553 51.7823ZM51.6232 46.7192C51.5637 46.7787 51.5339 46.8084 51.4445 46.8381C51.2357 46.8674 50.9968 46.7475 50.9068 46.5384C50.8468 46.419 50.8465 46.2996 50.7866 46.1802C50.6966 45.9711 50.7854 45.7028 50.994 45.6138C51.2027 45.5248 51.4714 45.615 51.5614 45.824C51.6213 45.9435 51.6814 46.1226 51.7116 46.2719C51.7717 46.451 51.7422 46.6001 51.6232 46.7192ZM45.6669 51.0605C45.5181 51.2093 45.3094 51.2387 45.1301 51.1189C44.9807 51.029 44.891 50.9393 44.7714 50.8197C44.5919 50.6403 44.5914 50.4016 44.7103 50.2229C44.8888 50.0443 45.1275 50.0449 45.3068 50.1647C45.3965 50.2544 45.516 50.3143 45.6057 50.404C45.785 50.5238 45.8454 50.8223 45.7265 51.001C45.6967 51.0308 45.6669 51.0605 45.6669 51.0605ZM50.1566 44.7168C50.0077 44.8656 49.799 44.895 49.6197 44.7752C49.53 44.6855 49.4105 44.6255 49.291 44.5656C49.1117 44.4458 49.0216 44.1771 49.1405 43.9984C49.2594 43.8197 49.5277 43.7308 49.707 43.8506C49.8564 43.9404 49.9758 44.0004 50.0955 44.12C50.2747 44.2398 50.3351 44.5382 50.2162 44.717C50.1863 44.687 50.1863 44.687 50.1566 44.7168ZM44.1705 49.0879C44.111 49.1475 44.0813 49.1772 43.9918 49.2068C43.7533 49.2659 43.5144 49.146 43.484 48.9371C43.4538 48.7879 43.4236 48.6386 43.3635 48.4595C43.3033 48.2207 43.452 48.0122 43.6905 47.9531C43.929 47.894 44.1382 48.0437 44.1984 48.2825C44.1987 48.4018 44.2587 48.5213 44.3186 48.6408C44.3488 48.79 44.2896 48.9689 44.1705 49.0879ZM47.7979 43.9653C47.7384 44.0248 47.6192 44.0842 47.4999 44.0839C47.3805 44.0836 47.2612 44.0834 47.1121 44.1128C46.9033 44.1422 46.6642 43.9626 46.6339 43.7537C46.6036 43.5448 46.782 43.3065 46.9908 43.2772C47.1399 43.2477 47.3189 43.2482 47.4382 43.2485C47.6769 43.249 47.8563 43.4285 47.8569 43.6671C47.9168 43.7866 47.8574 43.9058 47.7979 43.9653ZM44.2242 46.5821C44.1052 46.7011 43.9561 46.7306 43.7769 46.6705C43.5679 46.5805 43.448 46.3415 43.537 46.1329C43.5664 45.9838 43.6556 45.8349 43.715 45.7157C43.804 45.5071 44.0722 45.4182 44.2813 45.5082C44.4903 45.5982 44.5805 45.8669 44.4915 46.0755C44.4321 46.1947 44.3727 46.3139 44.3431 46.4034C44.2538 46.4926 44.254 46.5523 44.2242 46.5821ZM45.4431 44.8248L45.4134 44.8546C45.3241 44.9439 45.2348 45.0332 45.1455 45.1225C44.967 45.301 44.7283 45.3004 44.5489 45.121C44.3694 44.9416 44.3689 44.7029 44.5474 44.5243C44.6665 44.4053 44.7558 44.316 44.9047 44.2269C45.0834 44.108 45.352 44.1384 45.5015 44.288C45.5914 44.4374 45.592 44.676 45.4431 44.8248Z" fill="black" fill-opacity="0.3"/>
</g>
<path fill-rule="evenodd" clip-rule="evenodd" d="M101.333 88.3179C101.333 88.1986 101.333 88.0811 101.334 87.9657C101.339 86.8348 101.344 85.9128 100.795 85.6051C100.325 85.1982 100.057 84.5878 100.124 83.9774C100.17 83.4356 100.241 82.7955 100.32 82.0885L100.32 82.0882C100.467 80.76 100.64 79.1956 100.728 77.6023C100.93 73.7365 100.997 69.6673 100.93 67.5648C100.661 60.0367 96.6315 52.7121 94.281 52.6443C93.9452 52.6443 93.2065 52.7799 93.0722 54.0685C92.8036 55.9675 91.9305 59.0872 91.1918 61.6644C90.9232 62.6139 90.6546 63.5634 90.4531 64.3094C85.913 64.3094 85.0261 63.8175 84.8357 63.7119C84.8261 63.7066 84.8183 63.7023 84.8119 63.6991C84.6104 62.7496 81.6555 53.3903 79.3722 53.119C79.0364 53.0512 78.4992 53.1869 78.1634 53.9329C76.5945 57.1677 76.5527 58.2819 76.4897 59.9652L76.4844 60.1046C76.4173 61.3253 76.283 62.4782 76.1487 63.631L76.1487 63.6312C75.3428 68.3787 75.0742 68.5143 73.3952 69.3282C71.7163 70.0742 70.1717 70.9559 68.7614 72.1088C67.8212 72.8548 67.4854 74.0756 67.6869 75.6355C68.2241 78.7552 70.9104 82.3497 73.5967 83.2314C74.6041 83.5705 74.8727 84.8591 75.007 85.9442C75.007 86.0732 74.926 86.2295 74.8667 86.3438C74.8325 86.4099 74.8055 86.462 74.8055 86.4868C74.4246 86.786 74.1503 88.1359 74.0837 89.3649C74.0388 89.3254 74.0132 89.3029 73.9986 89.2902C73.9794 89.2735 73.9793 89.2737 73.9792 89.2738L73.9781 89.2751L73.9753 89.2782L73.9671 89.2876L73.9409 89.3183C73.9189 89.3442 73.8883 89.3808 73.8496 89.4286C73.772 89.5241 73.6617 89.664 73.5227 89.8506C73.2447 90.2238 72.8521 90.784 72.3769 91.5501C71.4266 93.0824 70.1471 95.4377 68.7956 98.768C66.0924 105.429 63.1042 115.984 61.8817 131.65C60.7511 146.064 58.92 152.405 57.459 155.128C56.7874 156.38 56.2507 156.76 55.9965 156.874C55.9307 156.787 55.8596 156.71 55.7886 156.642C55.5353 156.4 55.2103 156.21 54.8725 156.054C54.192 155.74 53.2633 155.48 52.1859 155.269C50.0163 154.846 47.0578 154.59 43.8164 154.59C40.5751 154.59 37.6166 154.846 35.447 155.269C34.3695 155.48 33.4409 155.74 32.7603 156.054C32.4226 156.21 32.0976 156.4 31.8443 156.642C31.5905 156.884 31.334 157.253 31.334 157.739C31.334 158.226 31.5905 158.595 31.8443 158.837C32.0976 159.078 32.4226 159.269 32.7603 159.425C33.4409 159.739 34.3695 159.999 35.447 160.209C37.6166 160.633 40.5751 160.888 43.8164 160.888C47.0578 160.888 50.0163 160.633 52.1859 160.209C53.2633 159.999 54.192 159.739 54.8725 159.425C55.2103 159.269 55.5353 159.078 55.7886 158.837C55.8333 158.794 55.8781 158.748 55.9215 158.697C56.1112 158.685 56.3206 158.645 56.5443 158.564C57.345 158.274 58.191 157.513 59.021 155.966C60.6711 152.891 62.5168 146.223 63.649 131.788L63.649 131.788C64.8588 116.285 67.8101 105.911 70.4382 99.4346C71.7524 96.1961 72.9866 93.9306 73.8835 92.4844C74.0912 92.1495 74.2808 91.8585 74.4492 91.6094C74.8486 92.2413 75.0742 92.9301 75.0742 93.6758V98.3554C75.0742 101.983 75.1333 106.924 75.1961 112.17V112.17L75.2085 113.208C75.3428 125.212 75.4099 138.844 75.4099 142.168C75.4099 143.704 75.3333 144.854 75.2668 145.851L75.2668 145.851C75.2453 146.174 75.2249 146.481 75.2085 146.779C75.2085 147.051 75.2085 147.322 75.1413 147.593C75.0742 148.814 74.5369 150.035 73.5967 150.849C73.3952 151.018 73.2105 151.205 73.0259 151.391L73.0258 151.391C72.8411 151.578 72.6565 151.764 72.455 151.934C70.306 154.24 70.7761 156.206 71.179 157.224C71.8506 158.716 73.3281 159.597 74.2683 159.53C78.432 159.326 87.6996 159.394 96.6987 159.53L97.6251 159.542C102.454 159.605 107.01 159.665 110.734 159.665H113.622C117.047 159.665 119.465 159.462 121.211 159.123C123.561 159.53 127.322 159.462 130.277 158.173C139.209 154.172 141.022 146.847 140.888 140.879C140.754 134.979 138.806 129.214 135.247 124.534C132.56 121.007 129.203 118.295 125.912 119.515C125.716 119.595 126.205 120.273 127.02 121.403L127.02 121.403C127.602 122.211 128.351 123.25 129.135 124.466C131.956 128.739 133.568 133.69 133.702 138.776C133.904 145.626 131.419 149.357 128.061 150.577C127.322 150.849 126.651 150.17 126.852 149.424C129.324 140.048 120.966 128.458 115.92 121.46L115.838 121.347C115.287 120.637 114.81 119.966 114.38 119.361C114.234 119.156 114.094 118.958 113.958 118.769C104.019 104.256 100.728 97.5416 100.862 91.5733C100.93 91.4377 101.333 88.3858 101.333 88.3179ZM54.13 157.815C54.1874 157.789 54.2386 157.763 54.284 157.739C54.2386 157.715 54.1874 157.69 54.13 157.663C53.6369 157.436 52.8674 157.209 51.8464 157.009C49.819 156.614 46.9795 156.363 43.8164 156.363C40.6534 156.363 37.8139 156.614 35.7865 157.009C34.7655 157.209 33.996 157.436 33.5029 157.663C33.4454 157.69 33.3943 157.715 33.3489 157.739C33.3943 157.763 33.4454 157.789 33.5029 157.815C33.996 158.043 34.7655 158.27 35.7865 158.469C37.8139 158.865 40.6534 159.116 43.8164 159.116C46.9795 159.116 49.819 158.865 51.8464 158.469C52.8674 158.27 53.6369 158.043 54.13 157.815Z" fill="black" fill-opacity="0.1"/>
<g clip-path="url(#clip1)">
<path d="M92.4402 156.15C92.4402 156.356 92.2348 156.562 92.0293 156.562C91.7554 156.562 91.55 156.356 91.55 156.082C91.6869 154.915 92.6457 154.024 93.7414 153.063C95.5219 151.417 97.3709 149.77 95.9328 146.203C94.7001 143.253 94.6317 139.274 95.7274 135.089C96.6861 131.247 98.6036 127.474 100.863 124.867C103.192 122.123 105.794 120.888 108.123 121.231C108.396 121.3 108.533 121.506 108.465 121.78C108.465 121.986 108.26 122.123 108.054 122.123C106 121.78 103.74 122.946 101.548 125.485C97.234 130.493 94.2892 139.823 96.7546 145.86C98.3981 149.976 96.2067 152.034 94.3577 153.749C93.3305 154.504 92.5772 155.258 92.4402 156.15Z" fill="white" stroke="white" stroke-miterlimit="10"/>
<path d="M74.0184 72.2487C75.7305 72.1801 76.4153 72.8661 76.6892 73.4835C77.2371 74.6498 76.4838 76.3648 75.5935 77.3939L75.525 77.4625C74.5663 78.2171 73.7445 78.4229 73.1282 78.4229C72.8542 78.4229 72.5803 78.3543 72.3064 78.2857C71.4161 78.0113 70.7313 77.1881 70.4574 76.0218C70.0465 74.444 70.0465 73.6207 70.5259 73.0033C71.0737 72.3859 71.964 72.3173 73.1967 72.3173C73.4706 72.3173 73.7445 72.2487 74.0184 72.2487Z" fill="white"/>
<path d="M93.5348 56.1955C93.6717 55.8525 94.1511 55.8525 94.3566 56.1269C94.6305 56.6071 94.9729 57.7048 95.3838 60.1059C95.6577 61.7524 95.8632 63.3988 95.9316 64.2221C95.9316 64.4279 95.7262 64.6337 95.4523 64.6337H95.3838C95.1783 64.6337 94.9729 64.4965 94.9729 64.2907C94.8359 62.7814 94.1511 57.499 93.5348 56.5385C93.4663 56.4013 93.4663 56.2641 93.5348 56.1955Z" fill="white" stroke="white" stroke-miterlimit="10"/>
<path d="M77.9215 56.1955C78.0585 55.8525 78.5378 55.8525 78.7433 56.1269C79.0172 56.6071 79.3596 57.7048 79.7705 60.1059C80.0444 61.7524 80.2499 63.3988 80.3184 64.2221C80.3184 64.4279 80.1129 64.6337 79.839 64.6337H79.7705C79.5651 64.6337 79.3596 64.4965 79.3596 64.2907C79.2227 62.7814 78.5378 57.499 77.9215 56.5385C77.9215 56.4013 77.853 56.2641 77.9215 56.1955Z" fill="white" stroke="white" stroke-miterlimit="10"/>
<path d="M85.6017 91.4842C81.4244 91.4842 78.4796 90.9354 76.973 90.5924C76.3567 90.4552 75.9458 89.9063 75.9458 89.2889L76.0143 88.054C76.0143 87.5052 76.5622 87.1622 77.0415 87.2308C78.2742 87.4366 80.4656 87.8482 82.931 87.9854C86.2181 88.1913 92.176 87.711 98.6133 86.0646C99.1611 85.9274 99.709 86.339 99.709 86.8878V88.1913C99.709 88.9459 99.2296 89.5633 98.4763 89.7005C93.5456 91.0726 89.1628 91.4842 85.6017 91.4842Z" fill="white"/>
</g>
<path d="M107.799 20.3476C108.994 16.7466 107.741 12.6059 104.749 10.2719C102.563 8.523 99.7826 7.88286 97.1205 8.46252C94.4284 9.02615 92.1604 10.7421 90.8771 13.1394C90.2675 14.2781 90.7151 15.6743 91.8239 16.2679C92.9626 16.8775 94.3428 16.4598 94.9524 15.3211C95.5941 14.1224 96.7431 13.2725 98.0591 12.9746C99.4052 12.6928 100.764 13.0348 101.881 13.9023C103.324 15.0222 103.965 17.1386 103.384 18.8712C102.569 21.4031 100.124 22.369 98.187 22.0261C95.8723 21.5966 93.5592 22.7486 92.4042 24.9062L91.0086 27.5132C90.399 28.6519 90.8467 30.0482 91.9554 30.6417C93.0941 31.2513 94.4743 30.8336 95.0839 29.6949L96.4796 27.0879C96.6721 26.7283 97.0423 26.5409 97.3601 26.5954C101.959 27.4383 106.336 24.808 107.799 20.3476Z" fill="black" fill-opacity="0.1"/>
<path d="M90.9111 32.6656C89.4727 31.8956 87.7083 32.4547 86.9544 33.8631C86.1844 35.3014 86.7434 37.0658 88.1518 37.8198C89.5902 38.5898 91.3545 38.0307 92.1085 36.6223C92.8924 35.2299 92.3494 33.4356 90.9111 32.6656Z" fill="black" fill-opacity="0.1"/>
<defs>
<clipPath id="clip0">
<rect width="55.3058" height="43.9416" fill="white" transform="translate(0.0234375 39.1072) rotate(-45)"/>
</clipPath>
<clipPath id="clip1">
<rect width="38.6922" height="101.258" fill="white" transform="matrix(-1 0 0 1 108.875 55.5781)"/>
</clipPath>
</defs>
</svg>
