<svg width="246" height="298" viewBox="0 0 246 298" fill="none" xmlns="http://www.w3.org/2000/svg">
<path d="M104.48 141.746C104.011 141.922 103.509 141.805 103.266 141.361C102.93 140.876 103.064 140.214 103.55 139.879C103.725 139.737 103.901 139.594 104.077 139.452C104.562 139.117 105.199 139.183 105.601 139.643C105.936 140.129 105.87 140.765 105.409 141.168C105.233 141.31 104.991 141.478 104.815 141.62C104.681 141.67 104.547 141.721 104.48 141.746ZM108.472 137.724C108.137 137.85 107.819 137.817 107.517 137.624C107.006 137.281 106.914 136.628 107.257 136.117C107.407 135.908 107.491 135.723 107.667 135.581C108.01 135.07 108.638 134.911 109.149 135.254C109.66 135.597 109.819 136.225 109.476 136.736C109.326 136.945 109.175 137.154 109.024 137.364C108.849 137.506 108.673 137.649 108.472 137.724ZM110.881 132.539C110.68 132.615 110.454 132.623 110.202 132.565C109.608 132.406 109.314 131.829 109.473 131.234C109.532 130.983 109.615 130.799 109.607 130.572C109.765 129.978 110.318 129.617 110.912 129.776C111.507 129.935 111.868 130.487 111.709 131.082C111.65 131.333 111.592 131.584 111.533 131.836C111.433 132.179 111.215 132.414 110.881 132.539ZM111.505 126.878C111.438 126.904 111.304 126.954 111.212 126.912C110.626 126.98 110.132 126.477 110.064 125.891C110.056 125.665 110.047 125.439 109.972 125.238C109.905 124.652 110.315 124.116 110.901 124.049C111.487 123.981 112.023 124.391 112.09 124.977C112.099 125.203 112.133 125.496 112.141 125.723C112.183 126.242 111.907 126.728 111.505 126.878ZM78.3601 137.725C78.2176 137.549 78.05 137.306 77.9076 137.131C77.5723 136.645 77.7059 135.984 78.1914 135.648C78.6769 135.313 79.3385 135.447 79.6737 135.932C79.8162 136.108 79.9586 136.284 80.0341 136.485C80.3694 136.97 80.3027 137.607 79.8424 138.009C79.7754 138.034 79.6666 138.151 79.5997 138.176C79.1057 138.286 78.578 138.102 78.3601 137.725Z" fill="black" fill-opacity="0.2"/>
<path d="M99.7924 144.119C99.5245 144.219 99.3235 144.295 99.0556 144.396C98.5198 144.597 97.8749 144.304 97.7154 143.676C97.5141 143.14 97.8068 142.495 98.4348 142.336C98.6357 142.26 98.8366 142.185 99.0376 142.11C99.5734 141.908 100.218 142.201 100.42 142.737C100.646 143.34 100.328 143.917 99.7924 144.119ZM94.1742 145.236C94.0403 145.286 93.9733 145.311 93.8142 145.295C93.5881 145.303 93.2951 145.337 93.0438 145.278C92.4325 145.279 91.9382 144.776 91.963 144.232C91.9627 143.621 92.4648 143.127 93.0091 143.151C93.2352 143.143 93.4613 143.134 93.6873 143.126C94.2986 143.125 94.7678 143.561 94.7682 144.172C94.9025 144.733 94.5761 145.085 94.1742 145.236ZM88.5299 144.452C88.329 144.527 88.0359 144.561 87.8517 144.477C87.6004 144.419 87.3492 144.36 87.1397 144.21C86.6121 144.026 86.2935 143.381 86.5444 142.829C86.7283 142.301 87.3729 141.982 87.9257 142.233C88.11 142.317 88.3612 142.375 88.5455 142.459C89.0731 142.643 89.4587 143.262 89.2078 143.815C89.0824 144.091 88.8648 144.326 88.5299 144.452ZM83.4958 141.834C83.1609 141.96 82.7757 141.951 82.449 141.692C82.2396 141.541 82.0301 141.391 81.8877 141.215C81.4436 140.847 81.3512 140.194 81.7863 139.725C82.1545 139.281 82.8076 139.188 83.2768 139.623C83.4862 139.774 83.6035 139.883 83.8129 140.033C84.257 140.401 84.3494 141.055 84.0064 141.566C83.8725 141.616 83.6967 141.758 83.4958 141.834Z" fill="black" fill-opacity="0.2"/>
<path d="M72.3807 135.844L71.7109 136.096C71.1751 136.297 70.5302 136.005 70.3289 135.469C70.1276 134.933 70.4203 134.288 70.9561 134.087L71.6259 133.835C72.1617 133.634 72.8066 133.927 73.0079 134.462C73.2092 134.998 72.9165 135.643 72.3807 135.844ZM77.8726 133.781L77.2029 134.033C76.6671 134.234 76.0221 133.942 75.8209 133.406C75.6196 132.87 75.9123 132.225 76.4481 132.024L77.1178 131.772C77.6536 131.571 78.2986 131.864 78.4999 132.399C78.7011 132.935 78.4754 133.555 77.8726 133.781ZM67.0227 137.857L66.3529 138.109C65.8171 138.31 65.1722 138.017 64.9709 137.482C64.7696 136.946 65.0623 136.301 65.5981 136.1L66.2679 135.848C66.8037 135.647 67.4486 135.939 67.6499 136.475C67.8512 137.011 67.5585 137.656 67.0227 137.857ZM61.6647 139.87L60.9949 140.122C60.4591 140.323 59.8142 140.03 59.6129 139.494C59.4116 138.959 59.7043 138.314 60.2401 138.112L60.9099 137.861C61.4457 137.66 62.0906 137.952 62.2919 138.488C62.4932 139.024 62.2005 139.669 61.6647 139.87ZM56.3067 141.883L55.6369 142.135C55.1011 142.336 54.4562 142.043 54.2549 141.507C54.0536 140.971 54.3463 140.327 54.8821 140.125L55.5518 139.874C56.0876 139.672 56.7326 139.965 56.9339 140.501C57.1352 141.037 56.8425 141.682 56.3067 141.883ZM50.9486 143.896L50.2789 144.147C49.7431 144.349 49.0981 144.056 48.8969 143.52C48.6956 142.984 48.9883 142.339 49.5241 142.138L50.1938 141.886C50.7296 141.685 51.3746 141.978 51.5759 142.514C51.7771 143.05 51.4844 143.694 50.9486 143.896ZM45.5906 145.909L44.9209 146.16C44.3851 146.361 43.7401 146.069 43.5389 145.533C43.3376 144.997 43.6303 144.352 44.1661 144.151L44.8358 143.899C45.3716 143.698 46.0166 143.991 46.2179 144.527C46.4191 145.062 46.1264 145.707 45.5906 145.909ZM83.1637 131.794C82.6279 131.995 81.9829 131.702 81.7816 131.166C81.5804 130.631 81.8731 129.986 82.4089 129.784L83.0786 129.533C83.6144 129.332 84.2594 129.624 84.4607 130.16C84.6619 130.696 84.3692 131.341 83.8334 131.542L83.1637 131.794ZM88.5217 129.781C87.9859 129.982 87.3409 129.689 87.1397 129.154C86.9384 128.618 87.2311 127.973 87.7669 127.772L88.4366 127.52C88.9724 127.319 89.6174 127.611 89.8187 128.147C90.0199 128.683 89.7272 129.328 89.1914 129.529L88.5217 129.781ZM93.8797 127.768C93.3439 127.969 92.6989 127.677 92.4977 127.141C92.2964 126.605 92.5891 125.96 93.1249 125.759L93.7946 125.507C94.3304 125.306 94.9754 125.599 95.1767 126.134C95.378 126.67 95.0852 127.315 94.5494 127.516L93.8797 127.768ZM99.2377 125.755C98.7019 125.957 98.057 125.664 97.8557 125.128C97.6544 124.592 97.9471 123.947 98.4829 123.746L99.1527 123.494C99.6884 123.293 100.333 123.586 100.535 124.122C100.736 124.657 100.443 125.302 99.9075 125.504L99.2377 125.755ZM104.596 123.742C104.06 123.944 103.415 123.651 103.214 123.115C103.012 122.579 103.305 121.935 103.841 121.733L104.511 121.482C105.046 121.28 105.691 121.573 105.893 122.109C106.094 122.645 105.801 123.29 105.265 123.491L104.596 123.742ZM142.772 109.401L142.102 109.653C141.566 109.854 140.921 109.561 140.72 109.026C140.518 108.49 140.811 107.845 141.347 107.644L142.017 107.392C142.553 107.191 143.197 107.483 143.399 108.019C143.6 108.555 143.374 109.175 142.772 109.401ZM137.414 111.414L136.744 111.666C136.208 111.867 135.563 111.574 135.362 111.038C135.16 110.503 135.453 109.858 135.989 109.656L136.659 109.405C137.195 109.203 137.839 109.496 138.041 110.032C138.242 110.568 138.016 111.188 137.414 111.414ZM132.056 113.427L131.386 113.678C130.85 113.88 130.205 113.587 130.004 113.051C129.802 112.515 130.095 111.87 130.631 111.669L131.301 111.418C131.836 111.216 132.481 111.509 132.683 112.045C132.884 112.581 132.658 113.2 132.056 113.427ZM126.697 115.44L126.028 115.691C125.492 115.893 124.847 115.6 124.646 115.064C124.444 114.528 124.737 113.883 125.273 113.682L125.943 113.43C126.478 113.229 127.123 113.522 127.325 114.058C127.526 114.593 127.3 115.213 126.697 115.44ZM121.339 117.452L120.67 117.704C120.134 117.905 119.489 117.613 119.288 117.077C119.086 116.541 119.379 115.896 119.915 115.695L120.585 115.443C121.12 115.242 121.765 115.535 121.967 116.07C122.168 116.606 121.942 117.226 121.339 117.452ZM115.981 119.465L115.312 119.717C114.776 119.918 114.131 119.625 113.93 119.09C113.728 118.554 114.021 117.909 114.557 117.708L115.227 117.456C115.762 117.255 116.407 117.547 116.609 118.083C116.81 118.619 116.517 119.264 115.981 119.465ZM110.623 121.478L109.954 121.73C109.418 121.931 108.773 121.638 108.572 121.102C108.37 120.567 108.663 119.922 109.199 119.72L109.869 119.469C110.404 119.268 111.049 119.56 111.251 120.096C111.452 120.632 111.159 121.277 110.623 121.478ZM146.111 106.083C145.977 106.134 145.843 106.184 145.684 106.167C145.072 106.168 144.645 105.64 144.645 105.029C144.661 104.87 144.678 104.711 144.628 104.577C144.56 103.991 144.878 103.413 145.464 103.345C146.025 103.211 146.628 103.596 146.696 104.182C146.729 104.475 146.788 104.835 146.755 105.153C146.772 105.606 146.446 105.957 146.111 106.083ZM40.5073 144.99C40.0384 145.167 39.5108 144.983 39.2007 144.564C39.0583 144.388 38.9576 144.12 38.857 143.853L38.8067 143.719C38.6054 143.183 38.9232 142.605 39.526 142.378C40.0618 142.177 40.7068 142.47 40.8662 143.098L40.8914 143.165C40.9417 143.299 40.992 143.433 41.0842 143.474C41.4194 143.96 41.2188 144.647 40.7333 144.982C40.6412 144.94 40.5742 144.965 40.5073 144.99ZM142.909 101.63C142.574 101.756 142.164 101.681 141.837 101.422L141.276 100.945C140.832 100.576 140.807 99.8982 141.175 99.4542C141.543 99.0102 142.221 98.9846 142.665 99.3528L143.227 99.8298C143.671 100.198 143.696 100.876 143.328 101.32C143.219 101.438 143.043 101.58 142.909 101.63ZM40.5459 139.397C40.4119 139.447 40.1858 139.456 40.0267 139.439C39.4573 139.347 39.0299 138.82 39.1217 138.25L39.2301 137.522C39.3219 136.952 39.8492 136.525 40.4186 136.617C40.9881 136.709 41.4155 137.236 41.3237 137.805L41.2153 138.534C41.1401 138.944 40.8807 139.271 40.5459 139.397ZM138.578 97.8312C138.243 97.957 137.766 97.907 137.506 97.6225L136.945 97.1455C136.501 96.7773 136.475 96.099 136.843 95.655C137.211 95.211 137.89 95.1855 138.334 95.5537L138.895 96.0306C139.339 96.3988 139.365 97.0771 138.996 97.5211C138.913 97.7054 138.712 97.7809 138.578 97.8312ZM41.3297 133.752C41.1958 133.803 40.9697 133.811 40.8106 133.795C40.2411 133.703 39.8137 133.175 39.9055 132.606L40.014 131.877C40.1057 131.308 40.633 130.881 41.2025 130.972C41.772 131.064 42.1993 131.591 42.1075 132.161L41.9991 132.89C41.924 133.3 41.6646 133.627 41.3297 133.752ZM134.272 94.099C133.937 94.2248 133.459 94.1748 133.2 93.8903L132.638 93.4133C132.194 93.0451 132.169 92.3669 132.537 91.9228C132.905 91.4788 133.583 91.4533 134.028 91.8215L134.589 92.2985C135.033 92.6667 135.058 93.3449 134.69 93.7889C134.581 93.9062 134.473 94.0235 134.272 94.099ZM42.0884 128.041C41.9545 128.091 41.7284 128.1 41.5693 128.083C40.9998 127.991 40.5724 127.464 40.6642 126.895L40.7726 126.166C40.8644 125.597 41.3917 125.169 41.9612 125.261C42.5306 125.353 42.958 125.88 42.8662 126.45L42.7578 127.178C42.6827 127.589 42.4233 127.915 42.0884 128.041ZM130.007 90.2747C129.672 90.4005 129.195 90.3505 128.935 90.066L128.374 89.589C127.93 89.2208 127.904 88.5426 128.273 88.0985C128.641 87.6545 129.319 87.629 129.763 87.9972L130.324 88.4742C130.768 88.8424 130.794 89.5206 130.426 89.9646C130.275 90.174 130.141 90.2244 130.007 90.2747ZM42.8053 122.422C42.6713 122.472 42.4452 122.481 42.2861 122.464C41.7167 122.372 41.2893 121.845 41.3811 121.276L41.4895 120.547C41.5813 119.977 42.1086 119.55 42.6781 119.642C43.2475 119.734 43.6749 120.261 43.5831 120.83L43.4747 121.559C43.4665 121.944 43.2071 122.271 42.8053 122.422ZM125.701 86.5425C125.366 86.6683 124.889 86.6184 124.629 86.3338L124.16 85.8986C124.135 85.8317 124.068 85.8568 124.043 85.7899C123.573 85.3547 123.64 84.7183 124.008 84.2742C124.443 83.8051 125.08 83.8717 125.524 84.2399L125.993 84.675C126.437 85.0432 126.462 85.7215 126.094 86.1655C126.011 86.3498 125.835 86.4922 125.701 86.5425ZM43.564 116.711C43.43 116.761 43.2961 116.811 43.137 116.795C42.5257 116.795 42.0983 116.268 42.1649 115.631C42.1816 115.472 42.1564 115.405 42.1061 115.271C41.9718 114.71 42.2897 114.132 42.8506 113.998C43.4116 113.864 43.9895 114.181 44.1239 114.742C44.2497 115.077 44.2415 115.462 44.2082 115.781C44.2252 116.233 43.9658 116.56 43.564 116.711ZM123.244 81.4276C122.709 81.6289 122.064 81.3362 121.862 80.8004L121.611 80.1306C121.41 79.5948 121.702 78.9499 122.238 78.7486C122.774 78.5473 123.419 78.84 123.62 79.3758L123.872 80.0456C124.098 80.6484 123.78 81.2263 123.244 81.4276ZM41.7521 111.277C41.2163 111.478 40.5713 111.186 40.37 110.65L40.1184 109.98C39.9172 109.444 40.2099 108.799 40.7457 108.598C41.2815 108.397 41.9264 108.689 42.1277 109.225L42.3793 109.895C42.6057 110.498 42.2879 111.076 41.7521 111.277ZM121.232 76.0696C120.696 76.2709 120.051 75.9782 119.85 75.4424L119.598 74.7726C119.397 74.2368 119.689 73.5919 120.225 73.3906C120.761 73.1893 121.406 73.482 121.607 74.0178L121.859 74.6876C122.085 75.2903 121.767 75.8683 121.232 76.0696ZM39.7393 105.919C39.2035 106.12 38.5585 105.828 38.3572 105.292L38.1056 104.622C37.9044 104.086 38.1971 103.441 38.7329 103.24C39.2687 103.039 39.9136 103.331 40.1149 103.867L40.3665 104.537C40.5929 105.14 40.2751 105.718 39.7393 105.919ZM119.219 70.7116C118.683 70.9129 118.038 70.6202 117.837 70.0844L117.585 69.4146C117.384 68.8788 117.677 68.2339 118.212 68.0326C118.748 67.8313 119.393 68.124 119.595 68.6598L119.846 69.3296C120.073 69.9323 119.755 70.5103 119.219 70.7116ZM37.6595 100.586C37.1237 100.788 36.4787 100.495 36.2775 99.959L36.0259 99.2892C35.8246 98.7534 36.1173 98.1085 36.6531 97.9072C37.1889 97.7059 37.8338 97.9986 38.0351 98.5344L38.2867 99.2042C38.5131 99.807 38.2623 100.36 37.6595 100.586ZM117.206 65.3536C116.67 65.5549 116.025 65.2622 115.824 64.7264L115.572 64.0566C115.371 63.5208 115.664 62.8759 116.2 62.6746C116.735 62.4733 117.38 62.766 117.582 63.3018L117.833 63.9716C118.06 64.5743 117.742 65.1523 117.206 65.3536ZM35.7136 95.2031C35.1778 95.4043 34.5329 95.1116 34.3316 94.5758L34.08 93.9061C33.8787 93.3703 34.1714 92.7253 34.7072 92.524C35.243 92.3228 35.888 92.6155 36.0893 93.1513L36.3409 93.821C36.5673 94.4238 36.2494 95.0018 35.7136 95.2031ZM115.059 60.0459C114.524 60.2472 113.904 60.0215 113.702 59.4857C113.627 59.2847 113.526 59.0168 113.384 58.8411C113.116 58.3304 113.408 57.6855 113.919 57.4172C114.43 57.149 115.075 57.4417 115.343 57.9523C115.418 58.1532 115.519 58.4211 115.661 58.5969C115.955 59.1745 115.662 59.8195 115.059 60.0459C115.126 60.0207 115.126 60.0207 115.059 60.0459ZM33.7678 89.8199C33.1399 89.9793 32.5619 89.6615 32.3606 89.1257C32.2851 88.9248 32.1845 88.6569 32.176 88.4308C32.0417 87.8698 32.3596 87.2918 32.8954 87.0906C33.4563 86.9563 34.0343 87.2741 34.2356 87.8099C34.3111 88.0108 34.3865 88.2118 34.4202 88.5048C34.6215 89.0406 34.3036 89.6186 33.7678 89.8199ZM112.536 54.9561C112.067 55.1323 111.472 54.9735 111.229 54.5298C111.087 54.3541 111.011 54.1532 110.844 53.9104C110.575 53.3998 110.709 52.7382 111.22 52.4699C111.705 52.1347 112.392 52.3353 112.66 52.8459C112.803 53.0217 112.903 53.2896 113.046 53.4653C113.314 53.976 113.18 54.6376 112.67 54.9058C112.603 54.931 112.603 54.931 112.536 54.9561ZM32.4499 84.2773C32.3829 84.3024 32.316 84.3276 32.249 84.3527C31.688 84.487 31.0849 84.1022 31.0176 83.5161C31.0091 83.29 30.9084 83.0221 30.8999 82.796C30.8326 82.2099 31.2426 81.6737 31.8035 81.5394C32.3897 81.4721 32.9007 81.8151 33.0601 82.443C33.0686 82.6691 33.1441 82.8701 33.1778 83.1631C33.1948 83.6153 32.9187 84.1011 32.4499 84.2773ZM109.368 50.185C108.966 50.3359 108.463 50.219 108.153 49.8005C108.011 49.6247 107.868 49.4489 107.726 49.2732C107.391 48.7877 107.457 48.1513 107.918 47.7491C108.378 47.3468 109.04 47.4804 109.442 47.9408C109.584 48.1165 109.752 48.3593 109.894 48.535C110.23 49.0205 110.163 49.657 109.703 50.0592C109.502 50.1346 109.435 50.1598 109.368 50.185ZM31.76 78.5751C31.693 78.6003 31.559 78.6506 31.4669 78.6088C30.8808 78.6761 30.3864 78.174 30.3191 77.5879C30.3106 77.3618 30.2769 77.0687 30.2684 76.8427C30.2681 76.2314 30.7032 75.7622 31.3145 75.7618C31.9258 75.7615 32.395 76.1966 32.3953 76.8079C32.4038 77.034 32.4123 77.2601 32.4208 77.4862C32.463 78.0053 32.1618 78.4242 31.76 78.5751ZM105.606 45.8663C105.204 46.0173 104.793 45.9421 104.441 45.6158C104.299 45.44 104.09 45.2894 103.947 45.1136C103.545 44.6533 103.545 44.042 103.913 43.598C104.373 43.1958 104.984 43.1955 105.428 43.5636C105.571 43.7394 105.78 43.89 105.923 44.0658C106.325 44.5261 106.325 45.1374 105.89 45.6066C105.873 45.7657 105.739 45.816 105.606 45.8663ZM31.8404 72.8893C31.7064 72.9397 31.5725 72.99 31.4134 72.9733C30.8021 72.9737 30.3747 72.4464 30.4413 71.8099C30.4328 71.5839 30.4913 71.3326 30.4828 71.1065C30.5746 70.5371 31.0767 70.0427 31.6462 70.1345C32.2157 70.2263 32.71 70.7284 32.6182 71.2979C32.6267 71.524 32.5682 71.7752 32.5768 72.0013C32.5016 72.4117 32.1753 72.7635 31.8404 72.8893ZM101.341 42.042C101.006 42.1678 100.596 42.0927 100.294 41.9003C100.085 41.7497 99.9424 41.5739 99.7581 41.4903C99.3141 41.1221 99.2216 40.469 99.5646 39.958C99.9328 39.514 100.586 39.4215 101.097 39.7645C101.306 39.9151 101.516 40.0657 101.658 40.2415C102.102 40.6097 102.195 41.2627 101.852 41.7737C101.718 41.8241 101.542 41.9665 101.341 42.042ZM32.6242 67.245C32.4233 67.3205 32.2642 67.3038 32.0381 67.3123C31.4686 67.2206 31.0831 66.6011 31.1749 66.0317C31.2333 65.7804 31.2918 65.5292 31.2833 65.3031C31.4421 64.7085 31.9945 64.3481 32.5891 64.5068C33.1838 64.6656 33.5442 65.218 33.3854 65.8127C33.3269 66.0639 33.2433 66.2482 33.2518 66.4743C33.2185 66.7925 32.9591 67.1192 32.6242 67.245ZM96.6666 38.7539C96.3987 38.8545 96.0135 38.8463 95.7119 38.6539C95.5025 38.5033 95.3182 38.4197 95.1088 38.2691C94.623 37.993 94.4384 37.2981 94.7144 36.8123C94.9904 36.3264 95.6854 36.1418 96.1712 36.4179C96.3806 36.5685 96.5649 36.6521 96.7743 36.8027C97.2602 37.0788 97.4448 37.7737 97.1687 38.2595C97.0433 38.5359 96.8675 38.6784 96.6666 38.7539ZM34.1367 61.7091C33.9357 61.7846 33.6427 61.8182 33.4584 61.7346C32.9307 61.5507 32.6122 60.9061 32.7961 60.3785C32.8546 60.1272 32.9382 59.9429 32.9967 59.6917C33.1806 59.164 33.8252 58.8455 34.3528 59.0294C34.8805 59.2133 35.199 59.8579 35.0151 60.3855C34.9567 60.6368 34.873 60.821 34.8146 61.0723C34.6221 61.3739 34.4046 61.6085 34.1367 61.7091ZM91.6325 36.1358C91.3646 36.2364 91.0715 36.2701 90.7951 36.1447C90.6108 36.061 90.3344 35.9356 90.1502 35.852C89.5974 35.6011 89.3709 34.9983 89.6218 34.4455C89.8727 33.8927 90.4755 33.6662 91.0283 33.9171C91.2126 34.0008 91.489 34.1262 91.6732 34.2098C92.226 34.4607 92.4525 35.0635 92.2016 35.6163C92.051 35.8257 91.8334 36.0603 91.6325 36.1358ZM36.2689 56.3989C36.001 56.4996 35.6827 56.4662 35.4063 56.3408C34.8535 56.0899 34.6271 55.4871 34.878 54.9343C34.9616 54.7501 35.087 54.4736 35.1707 54.2894C35.4216 53.7366 36.1165 53.5519 36.6023 53.828C37.1551 54.0789 37.3398 54.7738 37.0637 55.2596C36.9801 55.4439 36.8295 55.6533 36.771 55.9046C36.6874 56.0888 36.4698 56.3234 36.2689 56.3989ZM86.2135 34.1209C86.0126 34.1964 85.7865 34.2049 85.5353 34.1464C85.284 34.0879 85.0997 34.0043 84.8485 33.9458C84.2539 33.7871 83.9605 33.2095 84.1192 32.6148C84.278 32.0202 84.8556 31.7268 85.4502 31.8856C85.7014 31.944 85.9527 32.0025 86.137 32.0861C86.7316 32.2449 87.025 32.8225 86.8662 33.4171C86.766 33.7605 86.5484 33.9951 86.2135 34.1209ZM39.046 51.3814C38.7111 51.5072 38.3929 51.4739 38.0914 51.2815C37.5804 50.9385 37.4879 50.2854 37.7639 49.7996C37.9145 49.5901 38.0651 49.3807 38.1488 49.1964C38.4918 48.6854 39.1449 48.5929 39.6559 48.936C40.1669 49.279 40.2594 49.9321 39.9163 50.4431C39.7657 50.6525 39.6821 50.8368 39.5315 51.0462C39.4227 51.1635 39.2469 51.306 39.046 51.3814ZM80.6443 32.9267C80.5103 32.977 80.2843 32.9855 80.1251 32.9689C79.8739 32.9104 79.6478 32.9189 79.4635 32.8353C78.8941 32.7435 78.4667 32.2162 78.5585 31.6467C78.6503 31.0773 79.1776 30.6499 79.747 30.7417C79.9983 30.8001 80.2244 30.7916 80.4756 30.8501C81.0451 30.9419 81.4724 31.4692 81.3807 32.0386C81.3055 32.449 81.0461 32.7757 80.6443 32.9267ZM42.4766 46.8828C42.1418 47.0086 41.6644 46.9586 41.4047 46.674C40.9606 46.3059 40.9351 45.6276 41.3033 45.1836C41.4539 44.9741 41.6297 44.8317 41.7803 44.6223C42.1485 44.1782 42.8267 44.1527 43.2708 44.5209C43.7148 44.8891 43.7403 45.5674 43.3721 46.0114C43.1963 46.1538 43.0457 46.3633 42.8951 46.5727C42.7863 46.69 42.6776 46.8073 42.4766 46.8828ZM74.9415 32.3941C74.8075 32.4444 74.6736 32.4947 74.5814 32.4529C74.3554 32.4614 74.1293 32.4699 73.878 32.4115C73.2667 32.4118 72.7724 31.9097 72.7972 31.3654C72.7969 30.7541 73.299 30.2597 73.8433 30.2846C74.0694 30.276 74.2955 30.2675 74.6137 30.3009C75.225 30.3005 75.7193 30.8026 75.6275 31.3721C75.6697 31.8912 75.3433 32.2431 74.9415 32.3941ZM46.5355 42.8359C46.1337 42.9869 45.6312 42.8699 45.3463 42.5184C44.9441 42.0581 45.0107 41.4216 45.471 41.0194C45.6468 40.877 45.8225 40.7345 46.0653 40.5669C46.5256 40.1647 47.162 40.2313 47.5642 40.6916C47.9665 41.1519 47.8998 41.7884 47.4395 42.1906C47.2637 42.333 47.088 42.4755 46.9122 42.618C46.8034 42.7353 46.6695 42.7856 46.5355 42.8359ZM69.306 32.4476C68.8372 32.6237 68.3095 32.4398 67.9994 32.0213C67.9491 31.8874 67.8318 31.7786 67.7815 31.6446L67.6054 31.1758C67.4041 30.64 67.6968 29.995 68.2326 29.7938C68.7684 29.5925 69.4134 29.8852 69.6146 30.421L69.7908 30.8898C70.126 31.3753 69.9254 32.0621 69.44 32.3973C69.44 32.3973 69.373 32.4225 69.306 32.4476ZM50.0335 38.9233C49.4977 39.1246 48.8527 38.8319 48.6514 38.2961L48.3998 37.6264C48.1986 37.0906 48.4913 36.4456 49.0271 36.2443C49.5629 36.043 50.2078 36.3358 50.4091 36.8716L50.6607 37.5413C50.862 38.0771 50.5693 38.7221 50.0335 38.9233ZM67.2262 27.1148C66.6904 27.316 66.1376 27.0652 65.8693 26.5545C65.7939 26.3536 65.6514 26.1778 65.5759 25.9769C65.3077 25.4663 65.4413 24.8047 65.9519 24.5364C66.4625 24.2681 67.1242 24.4017 67.3924 24.9124C67.56 25.1551 67.6355 25.356 67.7361 25.6239C68.0044 26.1346 67.8038 26.8213 67.2011 27.0478C67.2932 27.0896 67.2932 27.0896 67.2262 27.1148ZM48.1546 33.515C48.0876 33.5402 48.0207 33.5653 48.0207 33.5653C47.4597 33.6996 46.8566 33.3148 46.7223 32.7538C46.6886 32.4608 46.6131 32.2598 46.5794 31.9668C46.5121 31.3807 46.9221 30.8445 47.5082 30.7772C48.0944 30.7098 48.6305 31.1198 48.6978 31.706C48.7063 31.9321 48.7818 32.133 48.7903 32.3591C48.8995 32.853 48.6234 33.3389 48.1546 33.515ZM63.4221 22.8882C63.1542 22.9889 62.769 22.9807 62.4674 22.7883C62.2832 22.7047 62.0737 22.5541 61.8895 22.4705C61.3366 22.2196 61.152 21.5247 61.4281 21.0388C61.679 20.486 62.3739 20.3014 62.8597 20.5774C63.0691 20.728 63.3455 20.8535 63.5298 20.9371C64.0408 21.2801 64.2003 21.9081 63.8572 22.4191C63.8658 22.6452 63.69 22.7876 63.4221 22.8882ZM48.6454 27.9043C48.3775 28.005 48.1514 28.0135 47.875 27.888C47.3222 27.6371 47.0288 27.0595 47.2797 26.5067C47.3381 26.2555 47.4887 26.046 47.6142 25.7696C47.8651 25.2168 48.4678 24.9904 49.0207 25.2413C49.5735 25.4922 49.7999 26.0949 49.549 26.6477C49.4654 26.832 49.3818 27.0163 49.3233 27.2675C49.1309 27.5691 48.9133 27.8037 48.6454 27.9043ZM58.0453 21.3925C57.9113 21.4428 57.8444 21.468 57.6853 21.4513C57.4592 21.4598 57.2331 21.4683 57.007 21.4768C56.4209 21.5442 55.8596 21.0672 55.8592 20.4559C55.7919 19.8698 56.2689 19.3085 56.8801 19.3081C57.1732 19.2744 57.3993 19.2659 57.6254 19.2574C58.2366 19.2571 58.7058 19.6922 58.7062 20.3035C58.7483 20.8227 58.4471 21.2415 58.0453 21.3925ZM51.9839 23.3638C51.515 23.5399 51.0125 23.423 50.7695 22.9793C50.4342 22.4939 50.5008 21.8574 50.9612 21.4552C51.1369 21.3128 51.3127 21.1703 51.4466 21.12L51.5806 21.0697C52.0661 20.7344 52.7528 20.935 53.0881 21.4205C53.4233 21.906 53.2897 22.5676 52.8042 22.9028L52.6703 22.9531C52.5363 23.0034 52.4275 23.1207 52.2518 23.2632C52.1848 23.2883 52.1178 23.3135 51.9839 23.3638Z" fill="black" fill-opacity="0.2"/>
<path fill-rule="evenodd" clip-rule="evenodd" d="M197.839 208.907V208.905C197.846 207.532 197.851 206.412 197.185 206.038C196.614 205.544 196.288 204.802 196.369 204.061C196.426 203.403 196.512 202.626 196.607 201.767L196.607 201.766C196.786 200.153 196.997 198.252 197.104 196.317C197.348 191.621 197.43 186.678 197.348 184.124C197.022 174.98 192.127 166.082 189.272 166C188.864 166 187.967 166.165 187.804 167.73C187.478 170.037 186.417 173.826 185.52 176.957L185.519 176.959C185.193 178.112 184.867 179.264 184.622 180.17C179.107 180.17 178.03 179.572 177.799 179.444L177.799 179.444C177.787 179.438 177.778 179.432 177.77 179.428C177.525 178.275 173.936 166.906 171.162 166.577C170.754 166.494 170.102 166.659 169.694 167.565C167.788 171.495 167.737 172.848 167.661 174.893L167.654 175.062C167.573 176.545 167.41 177.945 167.247 179.346C166.268 185.113 165.941 185.278 163.902 186.266C161.863 187.172 159.986 188.243 158.273 189.644C157.131 190.55 156.723 192.033 156.968 193.928C157.621 197.717 160.884 202.084 164.147 203.155C165.37 203.567 165.697 205.132 165.86 206.45C165.86 206.607 165.761 206.796 165.689 206.935C165.648 207.016 165.615 207.079 165.615 207.109C165.148 207.476 164.814 209.14 164.736 210.643L164.711 210.672C164.685 210.703 164.649 210.746 164.603 210.803C164.51 210.917 164.378 211.085 164.21 211.309C163.876 211.759 163.402 212.434 162.828 213.36C161.679 215.213 160.13 218.064 158.492 222.099C155.216 230.171 151.591 242.973 150.107 261.984C148.734 279.496 146.508 287.234 144.713 290.58C143.82 292.243 143.1 292.696 142.766 292.817C142.741 292.826 142.717 292.834 142.695 292.84C142.604 292.696 142.495 292.572 142.384 292.466C142.097 292.193 141.723 291.971 141.323 291.787C140.516 291.414 139.405 291.102 138.102 290.848C135.482 290.337 131.901 290.026 127.972 290.026C124.043 290.026 120.462 290.337 117.842 290.848C116.54 291.102 115.429 291.414 114.622 291.787C114.221 291.971 113.847 292.193 113.561 292.466C113.274 292.739 113 293.141 113 293.661C113 294.182 113.274 294.583 113.561 294.857C113.847 295.13 114.221 295.351 114.622 295.536C115.429 295.908 116.54 296.22 117.842 296.475C120.462 296.986 124.043 297.296 127.972 297.296C131.901 297.296 135.482 296.986 138.102 296.475C139.405 296.22 140.516 295.908 141.323 295.536C141.723 295.351 142.097 295.13 142.384 294.857C142.452 294.791 142.52 294.719 142.584 294.639C142.817 294.632 143.082 294.588 143.369 294.484C144.28 294.154 145.278 293.276 146.275 291.418C148.259 287.72 150.499 279.655 151.874 262.123L151.874 262.123C153.345 243.274 156.934 230.653 160.135 222.766C161.735 218.822 163.239 216.061 164.334 214.295C164.606 213.856 164.853 213.479 165.07 213.16C165.625 213.974 165.941 214.868 165.941 215.842V221.526C165.941 225.931 166.013 231.932 166.089 238.304L166.089 238.305L166.104 239.568C166.268 254.15 166.349 270.708 166.349 274.745C166.349 276.612 166.256 278.009 166.175 279.22V279.22C166.149 279.612 166.124 279.985 166.104 280.347C166.104 280.677 166.104 281.006 166.023 281.336C165.941 282.819 165.289 284.302 164.147 285.29C163.902 285.496 163.678 285.723 163.453 285.949C163.229 286.176 163.005 286.402 162.76 286.608C160.149 289.409 160.72 291.798 161.21 293.034C162.026 294.847 163.82 295.918 164.962 295.835C170.02 295.588 181.278 295.67 192.209 295.835L193.334 295.85C199.2 295.927 204.734 296 209.258 296H212.766C216.927 296 219.863 295.753 221.984 295.341C224.84 295.835 229.408 295.753 232.997 294.188C243.847 289.327 246.049 280.43 245.886 273.18C245.723 266.013 243.357 259.01 239.034 253.326C235.771 249.042 231.692 245.747 227.695 247.229C227.457 247.325 228.051 248.15 229.04 249.522C229.748 250.504 230.658 251.766 231.61 253.243C235.037 258.433 236.994 264.447 237.158 270.626C237.402 278.947 234.384 283.478 230.305 284.961C229.408 285.29 228.592 284.466 228.837 283.56C231.839 272.171 221.687 258.092 215.558 249.592L215.458 249.454C214.788 248.592 214.209 247.777 213.687 247.042L213.687 247.041C213.51 246.792 213.339 246.552 213.174 246.323C201.101 228.693 197.104 220.537 197.267 213.288C197.348 213.123 197.838 209.416 197.838 209.333C197.838 209.189 197.838 209.047 197.839 208.907ZM140.58 293.396C140.797 293.496 140.95 293.587 141.053 293.661C140.95 293.736 140.797 293.826 140.58 293.926C139.961 294.212 139.009 294.492 137.763 294.735C135.285 295.218 131.823 295.523 127.972 295.523C124.122 295.523 120.66 295.218 118.182 294.735C116.935 294.492 115.984 294.212 115.365 293.926C115.147 293.826 114.994 293.736 114.892 293.661C114.994 293.587 115.147 293.496 115.365 293.396C115.984 293.111 116.935 292.831 118.182 292.588C120.66 292.104 124.122 291.799 127.972 291.799C131.823 291.799 135.285 292.104 137.763 292.588C139.009 292.831 139.961 293.111 140.58 293.396Z" fill="black" fill-opacity="0.1"/>
<g clip-path="url(#clip0)">
<path d="M187.036 291.731C187.036 291.981 186.786 292.231 186.537 292.231C186.204 292.231 185.954 291.981 185.954 291.648C186.121 290.231 187.285 289.148 188.616 287.981C190.779 285.981 193.025 283.981 191.278 279.648C189.781 276.065 189.698 271.231 191.029 266.148C192.193 261.481 194.523 256.898 197.268 253.731C200.096 250.398 203.257 248.898 206.085 249.315C206.418 249.398 206.584 249.648 206.501 249.981C206.501 250.231 206.252 250.398 206.002 250.398C203.507 249.981 200.761 251.398 198.099 254.481C192.859 260.565 189.282 271.898 192.276 279.231C194.273 284.231 191.611 286.731 189.365 288.815C188.117 289.731 187.202 290.648 187.036 291.731Z" fill="white" stroke="white" stroke-miterlimit="10"/>
<path d="M164.658 189.814C166.738 189.731 167.57 190.564 167.902 191.314C168.568 192.731 167.653 194.814 166.571 196.064L166.488 196.148C165.324 197.064 164.325 197.314 163.577 197.314C163.244 197.314 162.911 197.231 162.578 197.148C161.497 196.814 160.665 195.814 160.332 194.398C159.833 192.481 159.833 191.481 160.416 190.731C161.081 189.981 162.162 189.898 163.66 189.898C163.993 189.898 164.325 189.814 164.658 189.814Z" fill="white"/>
<path d="M188.367 170.315C188.533 169.898 189.115 169.898 189.365 170.231C189.698 170.815 190.114 172.148 190.613 175.065C190.946 177.065 191.195 179.065 191.278 180.065C191.278 180.315 191.029 180.565 190.696 180.565H190.613C190.363 180.565 190.114 180.398 190.114 180.148C189.947 178.315 189.115 171.898 188.367 170.731C188.284 170.565 188.284 170.398 188.367 170.315Z" fill="white" stroke="white" stroke-miterlimit="10"/>
<path d="M169.4 170.315C169.566 169.898 170.149 169.898 170.398 170.231C170.731 170.815 171.147 172.148 171.646 175.065C171.979 177.065 172.228 179.065 172.312 180.065C172.312 180.315 172.062 180.565 171.729 180.565H171.646C171.396 180.565 171.147 180.398 171.147 180.148C170.981 178.315 170.149 171.898 169.4 170.731C169.4 170.565 169.317 170.398 169.4 170.315Z" fill="white" stroke="white" stroke-miterlimit="10"/>
<path d="M178.729 213.18C173.655 213.18 170.078 212.513 168.248 212.097C167.499 211.93 167 211.263 167 210.513L167.083 209.013C167.083 208.347 167.748 207.93 168.331 208.013C169.828 208.263 172.49 208.763 175.485 208.93C179.478 209.18 186.715 208.597 194.534 206.597C195.2 206.43 195.865 206.93 195.865 207.597V209.18C195.865 210.097 195.283 210.847 194.368 211.013C188.379 212.68 183.055 213.18 178.729 213.18Z" fill="white"/>
</g>
<defs>
<clipPath id="clip0">
<rect width="47" height="123" fill="white" transform="matrix(-1 0 0 1 207 169.564)"/>
</clipPath>
</defs>
</svg>
