<svg width="175" height="256" viewBox="0 0 175 256" fill="none" xmlns="http://www.w3.org/2000/svg">
<path fill-rule="evenodd" clip-rule="evenodd" d="M111.809 139.34L111.809 139.337C111.818 137.531 111.826 136.058 110.95 135.566C110.199 134.916 109.77 133.941 109.877 132.966C109.951 132.101 110.065 131.079 110.19 129.949C110.425 127.828 110.702 125.329 110.842 122.784C111.164 116.609 111.271 110.109 111.164 106.751C110.735 94.7263 104.299 83.0268 100.544 82.9185C100.008 82.9185 98.8281 83.1351 98.6136 85.1934C98.1845 88.2266 96.79 93.2097 95.61 97.3262C95.181 98.8428 94.7519 100.359 94.4301 101.551C87.1783 101.551 85.7616 100.765 85.4575 100.597C85.449 100.592 85.4414 100.588 85.4345 100.584C85.4291 100.581 85.424 100.578 85.4195 100.576C85.0977 99.0595 80.3779 84.1101 76.7307 83.6768C76.1944 83.5684 75.3362 83.7851 74.7999 84.9767C72.2939 90.1436 72.2272 91.9234 72.1265 94.6121L72.1181 94.8347C72.0109 96.7846 71.7963 98.6262 71.5818 100.468C70.2946 108.051 69.8655 108.267 67.1838 109.567C64.502 110.759 62.0349 112.167 59.7822 114.009C58.2804 115.201 57.7441 117.15 58.0659 119.642C58.9241 124.625 63.2148 130.367 67.5056 131.775C69.1146 132.317 69.5437 134.375 69.7582 136.108C69.7582 136.314 69.6289 136.564 69.5342 136.746C69.4795 136.852 69.4364 136.935 69.4364 136.975C68.775 137.494 68.315 139.996 68.2633 142.078C68.1487 142.221 67.997 142.416 67.812 142.664C67.3769 143.248 66.7582 144.131 66.0072 145.341C64.5052 147.763 62.475 151.498 60.3274 156.791C56.032 167.375 51.2701 184.181 49.3211 209.154C47.5149 232.184 44.5857 242.411 42.1955 246.865C41.0055 249.083 40.015 249.746 39.4842 249.938C39.3551 249.985 39.2451 250.007 39.1555 250.016C39.0356 249.783 38.8709 249.583 38.6956 249.416C38.35 249.086 37.8889 248.811 37.376 248.574C36.3449 248.098 34.9091 247.693 33.205 247.36C29.782 246.692 25.0919 246.285 19.938 246.285C14.784 246.285 10.0939 246.692 6.67097 247.36C4.9668 247.693 3.53098 248.098 2.49994 248.574C1.98698 248.811 1.52588 249.086 1.18029 249.416C0.834293 249.746 0.529297 250.206 0.529297 250.786C0.529297 251.366 0.834293 251.826 1.18029 252.156C1.52588 252.485 1.98698 252.761 2.49994 252.997C3.53098 253.473 4.9668 253.879 6.67097 254.211C10.0939 254.879 14.784 255.286 19.938 255.286C25.0919 255.286 29.782 254.879 33.205 254.211C34.9091 253.879 36.3449 253.473 37.376 252.997C37.8889 252.761 38.35 252.485 38.6956 252.156C38.8081 252.048 38.9162 251.927 39.011 251.793C39.3197 251.799 39.6837 251.751 40.0878 251.605C41.1946 251.204 42.463 250.116 43.7576 247.704C46.3368 242.897 49.2806 232.343 51.0884 209.293L51.0885 209.292C53.0247 184.482 57.7498 167.857 61.9701 157.457C64.0804 152.257 66.0652 148.611 67.5138 146.276C67.9095 145.638 68.2653 145.097 68.5727 144.649L68.5783 144.666L68.5783 144.666C68.6051 144.747 68.6319 144.829 68.6855 144.883C69.4364 145.966 69.8655 147.158 69.8655 148.458V155.932C69.8655 161.726 69.9599 169.618 70.0602 177.998L70.08 179.656C70.2946 198.831 70.4018 220.605 70.4018 225.913C70.4018 228.368 70.2794 230.205 70.1733 231.797C70.1389 232.312 70.1063 232.802 70.08 233.279C70.08 233.713 70.08 234.146 69.9728 234.579C69.8655 236.529 69.0073 238.479 67.5056 239.779C67.1838 240.05 66.8888 240.348 66.5938 240.646C66.2988 240.944 66.0038 241.241 65.682 241.512C62.2494 245.195 63.0003 248.337 63.6439 249.962C64.7166 252.345 67.0765 253.753 68.5783 253.645C75.2289 253.32 90.0321 253.428 104.406 253.645L105.889 253.665C113.601 253.766 120.877 253.862 126.825 253.862H131.438C136.909 253.862 140.77 253.537 143.559 252.995C147.314 253.645 153.321 253.537 158.041 251.479C172.307 245.087 175.204 233.388 174.989 223.855C174.775 214.43 171.664 205.222 165.978 197.747C161.688 192.114 156.324 187.781 151.068 189.731C150.755 189.857 151.537 190.941 152.838 192.746C153.768 194.037 154.965 195.697 156.217 197.639C160.722 204.464 163.297 212.372 163.511 220.496C163.833 231.438 159.864 237.396 154.501 239.346C153.321 239.779 152.248 238.696 152.57 237.504C156.517 222.528 143.168 204.015 135.109 192.837L134.978 192.656C134.096 191.523 133.335 190.451 132.648 189.484L132.648 189.484L132.648 189.484C132.415 189.156 132.191 188.841 131.974 188.539C116.098 165.357 110.842 154.632 111.057 145.099C111.164 144.883 111.808 140.008 111.808 139.9C111.808 139.71 111.809 139.524 111.809 139.34ZM37.5806 250.831C37.5807 250.831 37.5803 250.829 37.5788 250.826C37.5797 250.829 37.5805 250.831 37.5806 250.831ZM37.4723 250.699C37.5107 250.735 37.536 250.764 37.5524 250.786C37.536 250.807 37.5107 250.836 37.4723 250.873C37.3244 251.014 37.0577 251.192 36.6334 251.388C35.7899 251.777 34.5132 252.15 32.8655 252.471C29.5846 253.111 25.0136 253.513 19.938 253.513C14.8623 253.513 10.2913 253.111 7.01047 252.471C5.36275 252.15 4.08605 251.777 3.24253 251.388C2.81821 251.192 2.55152 251.014 2.40364 250.873C2.36525 250.836 2.33996 250.807 2.32355 250.786C2.33996 250.764 2.36525 250.735 2.40364 250.699C2.55152 250.558 2.81821 250.38 3.24253 250.184C4.08605 249.795 5.36275 249.422 7.01047 249.1C10.2913 248.46 14.8623 248.058 19.938 248.058C25.0136 248.058 29.5846 248.46 32.8655 249.1C34.5132 249.422 35.7899 249.795 36.6334 250.184C37.0577 250.38 37.3244 250.558 37.4723 250.699ZM2.29531 250.831C2.29544 250.831 2.29617 250.829 2.29712 250.826C2.29565 250.829 2.29517 250.831 2.29531 250.831ZM2.29712 250.745C2.29618 250.742 2.29544 250.741 2.29531 250.74C2.29517 250.74 2.29565 250.742 2.29712 250.745ZM37.5788 250.745C37.5803 250.742 37.5807 250.74 37.5806 250.74C37.5805 250.741 37.5797 250.742 37.5788 250.745Z" fill="white"/>
<g clip-path="url(#clip0)">
<path d="M97.6016 248.248C97.6016 248.576 97.2734 248.905 96.9453 248.905C96.5077 248.905 96.1796 248.576 96.1796 248.138C96.3984 246.275 97.9298 244.851 99.6799 243.316C102.524 240.687 105.477 238.057 103.18 232.359C101.211 227.647 101.102 221.291 102.852 214.607C104.383 208.47 107.446 202.443 111.056 198.279C114.775 193.896 118.932 191.924 122.651 192.472C123.088 192.581 123.307 192.91 123.198 193.348C123.198 193.677 122.87 193.896 122.541 193.896C119.26 193.348 115.65 195.211 112.15 199.266C105.259 207.265 100.555 222.168 104.493 231.811C107.118 238.385 103.618 241.673 100.664 244.412C99.0236 245.618 97.8204 246.823 97.6016 248.248Z" fill="url(#paint0_linear)" stroke="url(#paint1_linear)" stroke-miterlimit="10"/>
<path d="M68.1765 114.232C70.9111 114.123 72.005 115.218 72.4425 116.205C73.3176 118.067 72.1144 120.807 70.6924 122.451L70.583 122.56C69.0516 123.766 67.739 124.094 66.7545 124.094C66.317 124.094 65.8794 123.985 65.4419 123.875C64.0199 123.437 62.926 122.122 62.4885 120.259C61.8322 117.739 61.8322 116.424 62.5979 115.438C63.4729 114.451 64.8949 114.342 66.8639 114.342C67.3014 114.342 67.739 114.232 68.1765 114.232Z" fill="url(#paint2_linear)"/>
<path d="M99.3522 88.5908C99.571 88.0429 100.337 88.0429 100.665 88.4812C101.102 89.2483 101.649 91.0015 102.306 94.8368C102.743 97.4667 103.071 100.097 103.181 101.412C103.181 101.74 102.853 102.069 102.415 102.069H102.306C101.977 102.069 101.649 101.85 101.649 101.521C101.431 99.1104 100.337 90.6728 99.3522 89.1387C99.2428 88.9195 99.2428 88.7004 99.3522 88.5908Z" fill="url(#paint3_linear)" stroke="url(#paint4_linear)" stroke-miterlimit="10"/>
<path d="M74.4118 88.5908C74.6305 88.0429 75.3962 88.0429 75.7244 88.4812C76.1619 89.2483 76.7088 91.0015 77.3652 94.8368C77.8027 97.4667 78.1308 100.097 78.2402 101.412C78.2402 101.74 77.9121 102.069 77.4745 102.069H77.3652C77.037 102.069 76.7088 101.85 76.7088 101.521C76.4901 99.1104 75.3962 90.6728 74.4118 89.1387C74.4118 88.9195 74.3024 88.7004 74.4118 88.5908Z" fill="url(#paint5_linear)" stroke="url(#paint6_linear)" stroke-miterlimit="10"/>
<path d="M86.6791 144.957C80.0066 144.957 75.303 144.08 72.8966 143.532C71.9121 143.313 71.2558 142.436 71.2558 141.45L71.3652 139.478C71.3652 138.601 72.2402 138.053 73.0059 138.163C74.9749 138.491 78.4752 139.149 82.4131 139.368C87.6635 139.697 97.18 138.93 107.462 136.3C108.337 136.081 109.212 136.738 109.212 137.615V139.697C109.212 140.902 108.447 141.888 107.243 142.107C99.3677 144.299 92.3671 144.957 86.6791 144.957Z" fill="url(#paint7_linear)"/>
</g>
<path d="M148.864 50.9789C150.194 46.9732 148.8 42.3672 145.472 39.771C143.04 37.8256 139.947 37.1135 136.986 37.7583C133.992 38.3853 131.469 40.2941 130.041 42.9607C129.363 44.2274 129.861 45.7805 131.094 46.4408C132.361 47.1189 133.896 46.6542 134.575 45.3876C135.288 44.0542 136.566 43.1088 138.03 42.7775C139.528 42.464 141.039 42.8444 142.281 43.8094C143.887 45.0551 144.6 47.4093 143.954 49.3366C143.047 52.153 140.327 53.2275 138.173 52.846C135.598 52.3683 133.025 53.6497 131.74 56.0497L130.188 58.9497C129.509 60.2164 130.007 61.7695 131.241 62.4298C132.507 63.1079 134.043 62.6432 134.721 61.3766L136.273 58.4766C136.487 58.0766 136.899 57.8682 137.253 57.9288C142.369 58.8664 147.237 55.9405 148.864 50.9789Z" fill="white"/>
<path d="M130.079 64.6811C128.479 63.8246 126.516 64.4465 125.677 66.0131C124.821 67.6131 125.443 69.5757 127.009 70.4144C128.609 71.2709 130.572 70.649 131.411 69.0824C132.283 67.5336 131.679 65.5377 130.079 64.6811Z" fill="white"/>
<path d="M110.483 11.9404C107.93 6.41473 101.919 2.94452 95.8574 3.49622C91.3794 3.84932 87.4235 6.15125 84.9445 9.75104C82.4128 13.365 81.6419 17.8619 82.7709 22.0756C83.3072 24.0771 85.3634 25.2197 87.3123 24.6975C89.3137 24.1612 90.4705 22.1577 89.9342 20.1562C89.3697 18.0494 89.7814 15.7938 90.9946 14.001C92.2605 12.194 94.2262 11.1028 96.4845 10.8928C99.4031 10.6189 102.475 12.3926 103.697 15.0571C105.521 18.9152 103.72 22.7284 101.078 24.4527C97.8976 26.4903 96.4551 30.3769 97.4713 34.1692L98.6991 38.7516C99.2354 40.7531 101.292 41.8957 103.24 41.3735C105.242 40.8372 106.399 38.8337 105.862 36.8322L104.635 32.2498C104.465 31.6177 104.693 30.9922 105.124 30.7072C111.432 26.6462 113.667 18.7649 110.483 11.9404Z" fill="white"/>
<path d="M104.237 44.8883C101.709 45.5658 100.257 48.1562 100.921 50.6318C101.598 53.16 104.189 54.6111 106.664 53.9477C109.192 53.2703 110.643 50.6798 109.98 48.2043C109.37 45.7146 106.765 44.2109 104.237 44.8883Z" fill="white"/>
<defs>
<linearGradient id="paint0_linear" x1="109.703" y1="192.382" x2="109.703" y2="248.905" gradientUnits="userSpaceOnUse">
<stop stop-color="#6367C8"/>
<stop offset="1" stop-color="#944DD7"/>
</linearGradient>
<linearGradient id="paint1_linear" x1="109.703" y1="192.382" x2="109.703" y2="248.905" gradientUnits="userSpaceOnUse">
<stop stop-color="#6367C8"/>
<stop offset="1" stop-color="#944DD7"/>
</linearGradient>
<linearGradient id="paint2_linear" x1="67.3742" y1="114.225" x2="67.3742" y2="124.094" gradientUnits="userSpaceOnUse">
<stop stop-color="#6367C8"/>
<stop offset="1" stop-color="#944DD7"/>
</linearGradient>
<linearGradient id="paint3_linear" x1="101.225" y1="88.165" x2="101.225" y2="102.069" gradientUnits="userSpaceOnUse">
<stop stop-color="#6367C8"/>
<stop offset="1" stop-color="#944DD7"/>
</linearGradient>
<linearGradient id="paint4_linear" x1="101.225" y1="88.165" x2="101.225" y2="102.069" gradientUnits="userSpaceOnUse">
<stop stop-color="#6367C8"/>
<stop offset="1" stop-color="#944DD7"/>
</linearGradient>
<linearGradient id="paint5_linear" x1="76.3017" y1="88.165" x2="76.3017" y2="102.069" gradientUnits="userSpaceOnUse">
<stop stop-color="#6367C8"/>
<stop offset="1" stop-color="#944DD7"/>
</linearGradient>
<linearGradient id="paint6_linear" x1="76.3017" y1="88.165" x2="76.3017" y2="102.069" gradientUnits="userSpaceOnUse">
<stop stop-color="#6367C8"/>
<stop offset="1" stop-color="#944DD7"/>
</linearGradient>
<linearGradient id="paint7_linear" x1="90.2341" y1="136.257" x2="90.2341" y2="144.957" gradientUnits="userSpaceOnUse">
<stop stop-color="#6367C8"/>
<stop offset="1" stop-color="#944DD7"/>
</linearGradient>
<clipPath id="clip0">
<rect width="61.8026" height="161.739" fill="white" transform="matrix(-1 0 0 1 123.854 87.6045)"/>
</clipPath>
</defs>
</svg>
