<svg width="163" height="232" viewBox="0 0 163 232" fill="none" xmlns="http://www.w3.org/2000/svg">
<path fill-rule="evenodd" clip-rule="evenodd" d="M114.839 143.342V143.341C114.846 141.967 114.851 140.847 114.185 140.474C113.614 139.979 113.288 139.238 113.369 138.496C113.426 137.838 113.512 137.061 113.607 136.203L113.607 136.202C113.786 134.588 113.997 132.688 114.104 130.752C114.348 126.057 114.43 121.114 114.348 118.56C114.022 109.415 109.127 100.518 106.272 100.436C105.864 100.436 104.967 100.6 104.804 102.166C104.478 104.472 103.417 108.262 102.52 111.392L102.519 111.395C102.193 112.547 101.867 113.7 101.622 114.605C96.1075 114.605 95.0301 114.008 94.7988 113.88C94.7872 113.873 94.7777 113.868 94.7699 113.864C94.5252 112.711 90.9358 101.342 88.1622 101.012C87.7543 100.93 87.1017 101.095 86.6938 102.001C84.7881 105.93 84.7374 107.284 84.6608 109.328L84.6544 109.498C84.5729 110.981 84.4097 112.381 84.2466 113.782C83.2676 119.548 82.9413 119.713 80.9019 120.702C78.8625 121.608 76.9862 122.679 75.2731 124.079C74.1311 124.986 73.7232 126.468 73.9679 128.363C74.6205 132.153 77.8836 136.519 81.1466 137.59C82.3703 138.002 82.6966 139.567 82.8598 140.885C82.8598 141.042 82.7614 141.232 82.6894 141.371C82.6478 141.451 82.615 141.514 82.615 141.545C82.1484 141.911 81.8136 143.575 81.7362 145.078L81.7109 145.108C81.6852 145.138 81.6488 145.182 81.6026 145.239C81.51 145.353 81.3777 145.52 81.2105 145.745C80.876 146.194 80.4021 146.87 79.8278 147.796C78.6791 149.648 77.1297 152.499 75.4921 156.535C72.2165 164.607 68.5907 177.408 67.107 196.42C65.7336 213.931 63.5077 221.67 61.7127 225.015C60.8202 226.678 60.1002 227.131 59.7655 227.253C59.7408 227.262 59.7174 227.269 59.6954 227.275C59.6035 227.132 59.4946 227.007 59.3838 226.901C59.0973 226.628 58.7233 226.407 58.3226 226.222C57.5161 225.85 56.4051 225.538 55.1023 225.283C52.4822 224.772 48.9012 224.462 44.9723 224.462C41.0434 224.462 37.4624 224.772 34.8423 225.283C33.5395 225.538 32.4286 225.85 31.622 226.222C31.2213 226.407 30.8474 226.628 30.5609 226.901C30.274 227.175 30 227.576 30 228.097C30 228.617 30.274 229.019 30.5609 229.292C30.8474 229.565 31.2213 229.787 31.622 229.971C32.4286 230.344 33.5395 230.656 34.8423 230.91C37.4624 231.421 41.0434 231.732 44.9723 231.732C48.9012 231.732 52.4822 231.421 55.1023 230.91C56.4051 230.656 57.5161 230.344 58.3226 229.971C58.7233 229.787 59.0973 229.565 59.3838 229.292C59.4523 229.227 59.5201 229.154 59.5835 229.074C59.8173 229.067 60.082 229.023 60.3691 228.919C61.2798 228.59 62.2776 227.712 63.2747 225.853C65.2588 222.156 67.4993 214.09 68.8743 196.559L68.8743 196.558C70.3453 177.71 73.9342 165.088 77.1347 157.202C78.7351 153.258 80.2391 150.496 81.3343 148.73C81.6062 148.292 81.853 147.915 82.0698 147.596C82.6249 148.41 82.9413 149.304 82.9413 150.277V155.962C82.9413 160.367 83.0131 166.368 83.0894 172.739L83.0894 172.74L83.1045 174.003C83.2676 188.585 83.3492 205.144 83.3492 209.181C83.3492 211.048 83.2561 212.445 83.1754 213.656L83.1753 213.656C83.1492 214.048 83.1244 214.42 83.1045 214.783C83.1045 215.112 83.1045 215.442 83.0229 215.771C82.9413 217.254 82.2887 218.737 81.1466 219.726C80.9019 219.932 80.6776 220.158 80.4533 220.385L80.4532 220.385L80.4532 220.385C80.2289 220.611 80.0045 220.838 79.7598 221.044C77.1494 223.845 77.7204 226.234 78.2099 227.47C79.0257 229.282 80.8203 230.353 81.9624 230.271C87.0202 230.024 98.2777 230.106 109.209 230.271L110.334 230.286C116.2 230.363 121.734 230.436 126.258 230.436H129.766C133.927 230.436 136.863 230.188 138.984 229.776C141.84 230.271 146.408 230.188 149.997 228.623C160.847 223.763 163.049 214.865 162.886 207.616C162.723 200.448 160.357 193.446 156.034 187.761C152.771 183.477 148.692 180.182 144.695 181.665C144.457 181.761 145.051 182.585 146.04 183.958C146.748 184.94 147.658 186.202 148.61 187.679C152.037 192.869 153.994 198.883 154.158 205.062C154.402 213.382 151.384 217.913 147.305 219.396C146.408 219.726 145.592 218.902 145.837 217.996C148.839 206.606 138.687 192.528 132.558 184.027L132.458 183.889C131.788 183.028 131.209 182.212 130.687 181.477L130.687 181.477C130.51 181.228 130.339 180.988 130.174 180.759C118.101 163.129 114.104 154.973 114.267 147.723C114.348 147.558 114.838 143.851 114.838 143.769C114.838 143.624 114.838 143.482 114.839 143.342ZM57.58 227.832C57.7972 227.932 57.9502 228.023 58.0531 228.097C57.9502 228.171 57.7972 228.262 57.58 228.362C56.961 228.647 56.0091 228.927 54.7628 229.17C52.2848 229.654 48.8229 229.959 44.9723 229.959C41.1217 229.959 37.6598 229.654 35.1818 229.17C33.9355 228.927 32.9836 228.647 32.3646 228.362C32.1474 228.262 31.9944 228.171 31.8915 228.097C31.9944 228.022 32.1474 227.932 32.3646 227.832C32.9836 227.546 33.9355 227.266 35.1818 227.023C37.6598 226.54 41.1217 226.235 44.9723 226.235C48.8229 226.235 52.2848 226.54 54.7628 227.023C56.0091 227.266 56.961 227.546 57.58 227.832Z" fill="black" fill-opacity="0.1"/>
<g clip-path="url(#clip0_2898_1254)">
<path d="M104.036 226.167C104.036 226.417 103.786 226.667 103.537 226.667C103.204 226.667 102.954 226.417 102.954 226.083C103.121 224.667 104.285 223.583 105.616 222.417C107.779 220.417 110.025 218.417 108.278 214.083C106.781 210.5 106.698 205.667 108.029 200.583C109.193 195.917 111.523 191.333 114.268 188.167C117.096 184.833 120.257 183.333 123.085 183.75C123.418 183.833 123.584 184.083 123.501 184.417C123.501 184.667 123.252 184.833 123.002 184.833C120.507 184.417 117.761 185.833 115.099 188.917C109.859 195 106.282 206.333 109.276 213.667C111.273 218.667 108.611 221.167 106.365 223.25C105.117 224.167 104.202 225.083 104.036 226.167Z" fill="white" stroke="white" stroke-miterlimit="10"/>
<path d="M81.658 124.25C83.7377 124.167 84.5695 125 84.9023 125.75C85.5677 127.167 84.6527 129.25 83.5713 130.5L83.4881 130.583C82.3235 131.5 81.3253 131.75 80.5766 131.75C80.2439 131.75 79.9111 131.667 79.5784 131.583C78.497 131.25 77.6651 130.25 77.3324 128.833C76.8332 126.917 76.8332 125.917 77.4155 125.167C78.081 124.417 79.1624 124.333 80.6598 124.333C80.9925 124.333 81.3253 124.25 81.658 124.25Z" fill="white"/>
<path d="M105.367 104.75C105.533 104.333 106.115 104.333 106.365 104.667C106.698 105.25 107.114 106.583 107.613 109.5C107.946 111.5 108.195 113.5 108.278 114.5C108.278 114.75 108.029 115 107.696 115H107.613C107.363 115 107.114 114.833 107.114 114.583C106.947 112.75 106.115 106.333 105.367 105.167C105.284 105 105.284 104.833 105.367 104.75Z" fill="white" stroke="white" stroke-miterlimit="10"/>
<path d="M86.4 104.75C86.5664 104.333 87.1487 104.333 87.3983 104.667C87.731 105.25 88.1469 106.583 88.646 109.5C88.9788 111.5 89.2283 113.5 89.3115 114.5C89.3115 114.75 89.062 115 88.7292 115H88.646C88.3965 115 88.1469 114.833 88.1469 114.583C87.9806 112.75 87.1487 106.333 86.4 105.167C86.4 105 86.3168 104.833 86.4 104.75Z" fill="white" stroke="white" stroke-miterlimit="10"/>
<path d="M95.729 147.616C90.6546 147.616 87.0776 146.949 85.2475 146.532C84.4989 146.366 83.9998 145.699 83.9998 144.949L84.0829 143.449C84.0829 142.782 84.7484 142.366 85.3307 142.449C86.8281 142.699 89.49 143.199 92.4847 143.366C96.4776 143.616 103.715 143.032 111.534 141.032C112.2 140.866 112.865 141.366 112.865 142.032V143.616C112.865 144.532 112.283 145.282 111.368 145.449C105.379 147.116 100.055 147.616 95.729 147.616Z" fill="white"/>
</g>
<g opacity="0.1" clip-path="url(#clip1_2898_1254)">
<path d="M43.6632 29.1904H41.1252C40.4672 29.1904 39.9502 29.7058 39.9502 30.3618V40.9042C39.9502 41.5601 40.4672 42.0755 41.1252 42.0755H43.6632C45.4962 42.0755 47.0002 40.5762 47.0002 38.7488V32.5171C47.0002 30.6898 45.4962 29.1904 43.6632 29.1904ZM44.6502 38.7488C44.6502 39.3111 44.1802 39.7328 43.6632 39.7328H42.3002V31.5332H43.6632C44.2272 31.5332 44.6502 32.0017 44.6502 32.5171V38.7488Z" fill="black"/>
<path d="M33.8869 60.2554C34.6389 60.2554 35.3909 60.1617 36.0959 59.9274L36.1899 59.3183C36.2369 58.9903 36.1429 58.6154 35.9549 58.3812C35.7199 58.1 35.3909 57.9595 35.0619 57.9595H7.00289C6.67389 57.9595 6.34489 58.1 6.10989 58.3812C5.87489 58.6623 5.78089 58.9903 5.87489 59.3183L5.96889 59.9274C6.67389 60.1148 7.42589 60.2554 8.17789 60.2554H33.8869Z" fill="url(#paint0_linear_2898_1254)"/>
<path d="M33.6524 12.7446H8.41338H8.17838C7.42638 12.7446 6.67438 12.8383 5.96938 13.0726L5.82838 13.7286C5.78138 14.0566 5.87538 14.4314 6.06338 14.6657C6.29838 14.9468 6.62738 15.0874 6.95638 15.0874H8.03738C8.08438 15.0874 8.08438 15.0874 8.13138 15.0874H33.8404C33.8874 15.0874 33.8874 15.0874 33.9344 15.0874H35.0154C35.3444 15.0874 35.6734 14.9468 35.9084 14.6657C36.1434 14.3846 36.2374 14.0566 36.1434 13.7286L36.0024 13.0726C35.2974 12.8852 34.5454 12.7446 33.7934 12.7446H33.6524Z" fill="url(#paint1_linear_2898_1254)"/>
<path d="M0 52.1026V51.6809C0 51.634 0 51.634 0 51.5872V53.4145H0.141C0.047 52.9928 0 52.5711 0 52.1026Z" fill="white"/>
<path d="M36.096 13.0725L34.498 4.35751C34.028 1.92105 31.725 0 29.234 0H27.26H27.166H12.831C10.34 0 8.037 1.92105 7.567 4.35751L5.969 13.0257C2.538 14.0096 0 17.1489 0 20.8504V35.6098C0 36.2657 0.517 36.7811 1.175 36.7811C1.833 36.7811 2.35 36.2657 2.35 35.6098V20.8504C2.35 17.6643 4.935 15.0873 8.084 15.0404C8.131 15.0404 8.131 15.0404 8.178 15.0404H33.887C33.934 15.0404 33.934 15.0404 33.981 15.0404C37.177 15.0873 39.715 17.6643 39.715 20.8504V52.1027C39.715 55.2888 37.083 57.9127 33.887 57.9127H8.178C5.405 57.9127 3.102 55.9917 2.491 53.4146C2.444 52.8055 1.927 52.2901 1.316 52.2901C0.658 52.2901 0.141 52.8055 0.141 53.4146C0.141 53.4146 0.141 53.4146 0.141 53.4615C0.141 53.4615 0.141 53.4615 0.141 53.5083C0.658 56.6008 2.961 59.1309 5.969 59.9743L7.567 68.6893C7.99 71.1258 10.293 73 12.737 73.0468H29.281C31.772 73 34.028 71.1258 34.451 68.6893L36.049 59.9743C39.48 59.0372 42.018 55.8979 42.018 52.1496V20.8504C42.065 17.1489 39.527 14.0096 36.096 13.0725ZM8.413 12.7445L9.87 4.7792C10.105 3.46727 11.468 2.34275 12.831 2.34275H26.978C27.025 2.34275 27.072 2.34275 27.119 2.34275H27.166C27.213 2.34275 27.26 2.34275 27.307 2.34275H29.14C30.503 2.34275 31.866 3.46727 32.101 4.82606L33.558 12.7914H8.413V12.7445ZM32.195 68.2208C31.96 69.5796 30.597 70.7041 29.234 70.7041H12.831C11.468 70.7041 10.105 69.5796 9.87 68.2208L8.413 60.2555H33.652L32.195 68.2208Z" fill="black"/>
<path d="M1.175 45.9179C1.82393 45.9179 2.35 45.3935 2.35 44.7466C2.35 44.0996 1.82393 43.5752 1.175 43.5752C0.526065 43.5752 0 44.0996 0 44.7466C0 45.3935 0.526065 45.9179 1.175 45.9179Z" fill="black"/>
<path d="M1.175 41.2324C1.82393 41.2324 2.35 40.7079 2.35 40.061C2.35 39.4141 1.82393 38.8896 1.175 38.8896C0.526065 38.8896 0 39.4141 0 40.061C0 40.7079 0.526065 41.2324 1.175 41.2324Z" fill="black"/>
<path d="M1.175 50.6035C1.82393 50.6035 2.35 50.0791 2.35 49.4321C2.35 48.7852 1.82393 48.2607 1.175 48.2607C0.526065 48.2607 0 48.7852 0 49.4321C0 50.0791 0.526065 50.6035 1.175 50.6035Z" fill="black"/>
</g>
<circle cx="53.0961" cy="80.0961" r="1.5" transform="rotate(-36.1564 53.0961 80.0961)" fill="#E6E6E6"/>
<circle cx="58.9965" cy="88.1701" r="1.5" transform="rotate(-36.1564 58.9965 88.1701)" fill="#E6E6E6"/>
<circle cx="64.8959" cy="96.2443" r="1.5" transform="rotate(-36.1564 64.8959 96.2443)" fill="#E6E6E6"/>
<circle cx="70.7963" cy="104.318" r="1.5" transform="rotate(-36.1564 70.7963 104.318)" fill="#E6E6E6"/>
<defs>
<linearGradient id="paint0_linear_2898_1254" x1="21.0272" y1="57.9328" x2="21.0272" y2="72.999" gradientUnits="userSpaceOnUse">
<stop stop-color="#6367C8"/>
<stop offset="1" stop-color="#944DD7"/>
</linearGradient>
<linearGradient id="paint1_linear_2898_1254" x1="21.0266" y1="8.14101e-05" x2="21.0266" y2="15.0662" gradientUnits="userSpaceOnUse">
<stop stop-color="#6367C8"/>
<stop offset="1" stop-color="#944DD7"/>
</linearGradient>
<clipPath id="clip0_2898_1254">
<rect width="47" height="123" fill="white" transform="matrix(-1 0 0 1 124 104)"/>
</clipPath>
<clipPath id="clip1_2898_1254">
<rect width="47" height="73" fill="white"/>
</clipPath>
</defs>
</svg>
