<svg width="133" height="214" viewBox="0 0 133 214" fill="none" xmlns="http://www.w3.org/2000/svg">
<path fill-rule="evenodd" clip-rule="evenodd" d="M84.8391 125.342V125.341C84.8459 123.967 84.8514 122.847 84.1852 122.474C83.6141 121.979 83.2878 121.238 83.3694 120.496C83.4261 119.838 83.5123 119.061 83.6075 118.202C83.7864 116.589 83.9971 114.688 84.1036 112.752C84.3483 108.057 84.4299 103.114 84.3483 100.56C84.022 91.4153 79.1274 82.5179 76.2722 82.4355C75.8643 82.4355 74.967 82.6003 74.8038 84.1656C74.4775 86.4723 73.417 90.2619 72.5197 93.3925L72.5191 93.3947C72.193 94.5473 71.8669 95.6998 71.6224 96.6054C66.1075 96.6054 65.0301 96.0079 64.7988 95.8796C64.7872 95.8731 64.7777 95.8679 64.7699 95.8639C64.5252 94.7106 60.9358 83.3418 58.1622 83.0122C57.7543 82.9298 57.1017 83.0946 56.6938 84.0008C54.7881 87.9302 54.7374 89.2837 54.6608 91.3284L54.6544 91.4977C54.5729 92.9805 54.4097 94.381 54.2466 95.7816C53.2676 101.548 52.9413 101.713 50.9019 102.702C48.8625 103.608 46.9862 104.679 45.2731 106.079C44.1311 106.986 43.7232 108.469 43.9679 110.363C44.6205 114.153 47.8836 118.519 51.1466 119.59C52.3703 120.002 52.6966 121.567 52.8598 122.885C52.8598 123.042 52.7614 123.232 52.6894 123.371C52.6478 123.451 52.615 123.514 52.615 123.545C52.1484 123.911 51.8136 125.575 51.7362 127.078L51.7109 127.108C51.6852 127.138 51.6488 127.182 51.6026 127.239C51.51 127.353 51.3777 127.52 51.2105 127.745C50.876 128.194 50.4021 128.87 49.8278 129.796C48.6791 131.648 47.1297 134.499 45.4921 138.535C42.2165 146.607 38.5907 159.408 37.107 178.42C35.7336 195.931 33.5077 203.67 31.7127 207.015C30.8202 208.678 30.1002 209.131 29.7655 209.253C29.7408 209.262 29.7174 209.269 29.6954 209.275C29.6035 209.132 29.4946 209.007 29.3838 208.901C29.0973 208.628 28.7233 208.407 28.3226 208.222C27.5161 207.85 26.4051 207.538 25.1023 207.283C22.4822 206.772 18.9012 206.462 14.9723 206.462C11.0434 206.462 7.46242 206.772 4.8423 207.283C3.53954 207.538 2.42857 207.85 1.62201 208.222C1.2213 208.407 0.847361 208.628 0.560867 208.901C0.27396 209.175 0 209.576 0 210.097C0 210.617 0.27396 211.019 0.560867 211.292C0.847361 211.565 1.2213 211.787 1.62201 211.971C2.42857 212.344 3.53954 212.656 4.8423 212.91C7.46242 213.421 11.0434 213.732 14.9723 213.732C18.9012 213.732 22.4822 213.421 25.1023 212.91C26.4051 212.656 27.5161 212.344 28.3226 211.971C28.7233 211.787 29.0973 211.565 29.3838 211.292C29.4523 211.227 29.5201 211.154 29.5835 211.074C29.8173 211.067 30.082 211.023 30.3691 210.919C31.2798 210.59 32.2776 209.712 33.2747 207.853C35.2588 204.156 37.4993 196.09 38.8743 178.559L38.8743 178.558C40.3453 159.71 43.9342 147.088 47.1347 139.202C48.7351 135.258 50.2391 132.496 51.3343 130.73C51.6062 130.292 51.853 129.915 52.0698 129.596C52.6249 130.41 52.9413 131.304 52.9413 132.277V137.962C52.9413 142.367 53.0131 148.368 53.0894 154.739L53.0894 154.74L53.1045 156.003C53.2676 170.585 53.3492 187.144 53.3492 191.181C53.3492 193.048 53.2561 194.445 53.1754 195.656C53.1493 196.048 53.1244 196.42 53.1045 196.783C53.1045 197.112 53.1045 197.442 53.0229 197.771C52.9413 199.254 52.2887 200.737 51.1466 201.726C50.9019 201.932 50.6776 202.158 50.4532 202.385C50.2289 202.611 50.0046 202.838 49.7598 203.044C47.1494 205.845 47.7204 208.234 48.2099 209.47C49.0257 211.282 50.8203 212.353 51.9624 212.271C57.0202 212.024 68.2777 212.106 79.209 212.271L80.3344 212.286C86.1999 212.363 91.7338 212.436 96.2585 212.436H99.7663C103.927 212.436 106.863 212.188 108.984 211.776C111.84 212.271 116.408 212.188 119.997 210.623C130.847 205.763 133.049 196.865 132.886 189.616C132.723 182.448 130.357 175.446 126.034 169.761C122.771 165.477 118.692 162.182 114.695 163.665C114.457 163.761 115.051 164.585 116.04 165.958C116.748 166.94 117.658 168.202 118.61 169.679C122.037 174.869 123.994 180.883 124.158 187.062C124.402 195.382 121.384 199.913 117.305 201.396C116.408 201.726 115.592 200.902 115.837 199.996C118.839 188.606 108.687 174.528 102.558 166.027L102.458 165.889C101.788 165.028 101.209 164.212 100.687 163.477C100.51 163.228 100.339 162.988 100.174 162.759C88.1008 145.129 84.1036 136.973 84.2667 129.723C84.3483 129.558 84.8378 125.851 84.8378 125.769C84.8378 125.624 84.8385 125.482 84.8391 125.342ZM27.58 209.832C27.7972 209.932 27.9502 210.023 28.0531 210.097C27.9502 210.171 27.7972 210.262 27.58 210.362C26.961 210.647 26.0091 210.927 24.7628 211.17C22.2848 211.654 18.8229 211.959 14.9723 211.959C11.1217 211.959 7.65978 211.654 5.18179 211.17C3.93549 210.927 2.98363 210.647 2.3646 210.362C2.14741 210.262 1.99442 210.171 1.89154 210.097C1.99442 210.022 2.14741 209.932 2.3646 209.832C2.98363 209.546 3.93549 209.266 5.18179 209.023C7.65978 208.54 11.1217 208.235 14.9723 208.235C18.8229 208.235 22.2848 208.54 24.7628 209.023C26.0091 209.266 26.961 209.546 27.58 209.832Z" fill="black" fill-opacity="0.1"/>
<g clip-path="url(#clip0)">
<path d="M74.0358 208.167C74.0358 208.417 73.7862 208.667 73.5367 208.667C73.2039 208.667 72.9544 208.417 72.9544 208.083C73.1207 206.667 74.2853 205.583 75.6163 204.417C77.7791 202.417 80.0252 200.417 78.2783 196.083C76.7809 192.5 76.6977 187.667 78.0287 182.583C79.1933 177.917 81.5225 173.333 84.2676 170.167C87.096 166.833 90.257 165.333 93.0853 165.75C93.4181 165.833 93.5844 166.083 93.5013 166.417C93.5013 166.667 93.2517 166.833 93.0021 166.833C90.5066 166.417 87.7614 167.833 85.0995 170.917C79.8588 177 76.2818 188.333 79.2765 195.667C81.2729 200.667 78.611 203.167 76.365 205.25C75.1172 206.167 74.2021 207.083 74.0358 208.167Z" fill="white" stroke="white" stroke-miterlimit="10"/>
<path d="M51.658 106.25C53.7377 106.167 54.5695 107 54.9023 107.75C55.5677 109.167 54.6527 111.25 53.5713 112.5L53.4881 112.583C52.3235 113.5 51.3253 113.75 50.5766 113.75C50.2439 113.75 49.9111 113.667 49.5784 113.583C48.497 113.25 47.6651 112.25 47.3324 110.833C46.8332 108.917 46.8332 107.917 47.4155 107.167C48.081 106.417 49.1624 106.333 50.6598 106.333C50.9925 106.333 51.3253 106.25 51.658 106.25Z" fill="white"/>
<path d="M75.3668 86.7501C75.5332 86.3334 76.1155 86.3334 76.365 86.6667C76.6978 87.2501 77.1137 88.5834 77.6128 91.5001C77.9456 93.5001 78.1951 95.5001 78.2783 96.5001C78.2783 96.7501 78.0288 97.0001 77.696 97.0001H77.6128C77.3633 97.0001 77.1137 96.8334 77.1137 96.5834C76.9473 94.7501 76.1155 88.3334 75.3668 87.1667C75.2836 87.0001 75.2836 86.8334 75.3668 86.7501Z" fill="white" stroke="white" stroke-miterlimit="10"/>
<path d="M56.4 86.7501C56.5664 86.3334 57.1487 86.3334 57.3983 86.6667C57.731 87.2501 58.1469 88.5834 58.646 91.5001C58.9788 93.5001 59.2283 95.5001 59.3115 96.5001C59.3115 96.7501 59.062 97.0001 58.7292 97.0001H58.646C58.3965 97.0001 58.1469 96.8334 58.1469 96.5834C57.9806 94.7501 57.1487 88.3334 56.4 87.1667C56.4 87.0001 56.3168 86.8334 56.4 86.7501Z" fill="white" stroke="white" stroke-miterlimit="10"/>
<path d="M65.729 129.616C60.6546 129.616 57.0776 128.949 55.2475 128.532C54.4989 128.366 53.9998 127.699 53.9998 126.949L54.0829 125.449C54.0829 124.782 54.7484 124.366 55.3307 124.449C56.8281 124.699 59.49 125.199 62.4847 125.366C66.4776 125.616 73.7148 125.032 81.5343 123.032C82.1997 122.866 82.8652 123.366 82.8652 124.032V125.616C82.8652 126.532 82.2829 127.282 81.3679 127.449C75.3785 129.116 70.0546 129.616 65.729 129.616Z" fill="white"/>
</g>
<g opacity="0.1" clip-path="url(#clip1)">
<path d="M95.9414 17.9941H94.3754C93.9694 17.9941 93.6504 18.3119 93.6504 18.7162V25.2149C93.6504 25.6193 93.9694 25.937 94.3754 25.937H95.9414C97.0724 25.937 98.0004 25.0128 98.0004 23.8863V20.0448C98.0004 18.9184 97.0724 17.9941 95.9414 17.9941ZM96.5504 23.8863C96.5504 24.2329 96.2604 24.4929 95.9414 24.4929H95.1004V19.4383H95.9414C96.2894 19.4383 96.5504 19.7271 96.5504 20.0448V23.8863Z" fill="black"/>
<path d="M89.9088 37.1438C90.3728 37.1438 90.8368 37.086 91.2718 36.9416L91.3298 36.5661C91.3588 36.3639 91.3008 36.1329 91.1848 35.9885C91.0398 35.8152 90.8368 35.7285 90.6338 35.7285H73.3208C73.1178 35.7285 72.9148 35.8152 72.7698 35.9885C72.6248 36.1618 72.5668 36.3639 72.6248 36.5661L72.6828 36.9416C73.1178 37.0571 73.5818 37.1438 74.0458 37.1438H89.9088Z" fill="url(#paint0_linear)"/>
<path d="M89.7643 7.8562H74.1913H74.0463C73.5823 7.8562 73.1183 7.91397 72.6833 8.05838L72.5963 8.46275C72.5673 8.66493 72.6253 8.896 72.7413 9.04041C72.8863 9.21371 73.0893 9.30036 73.2923 9.30036H73.9593C73.9883 9.30036 73.9883 9.30036 74.0173 9.30036H89.8803C89.9093 9.30036 89.9093 9.30036 89.9383 9.30036H90.6053C90.8083 9.30036 91.0113 9.21371 91.1563 9.04041C91.3013 8.86711 91.3593 8.66493 91.3013 8.46275L91.2143 8.05838C90.7793 7.94285 90.3153 7.8562 89.8513 7.8562H89.7643Z" fill="url(#paint1_linear)"/>
<path d="M69 32.118V31.8581C69 31.8292 69 31.8292 69 31.8003V32.9267H69.087C69.029 32.6668 69 32.4068 69 32.118Z" fill="white"/>
<path d="M91.272 8.05841L90.286 2.68614C89.996 1.18421 88.575 0 87.038 0H85.82H85.762H76.917C75.38 0 73.959 1.18421 73.669 2.68614L72.683 8.02952C70.566 8.63607 69 10.5712 69 12.853V21.9512C69 22.3556 69.319 22.6733 69.725 22.6733C70.131 22.6733 70.45 22.3556 70.45 21.9512V12.853C70.45 10.889 72.045 9.30038 73.988 9.2715C74.017 9.2715 74.017 9.2715 74.046 9.2715H89.909C89.938 9.2715 89.938 9.2715 89.967 9.2715C91.939 9.30038 93.505 10.889 93.505 12.853V32.1181C93.505 34.0822 91.881 35.6996 89.909 35.6996H74.046C72.335 35.6996 70.914 34.5154 70.537 32.9268C70.508 32.5513 70.189 32.2336 69.812 32.2336C69.406 32.2336 69.087 32.5513 69.087 32.9268C69.087 32.9268 69.087 32.9268 69.087 32.9557C69.087 32.9557 69.087 32.9557 69.087 32.9846C69.406 34.8909 70.827 36.4506 72.683 36.9705L73.669 42.3427C73.93 43.8447 75.351 45 76.859 45.0289H87.067C88.604 45 89.996 43.8447 90.257 42.3427L91.243 36.9705C93.36 36.3928 94.926 34.4576 94.926 32.147V12.853C94.955 10.5712 93.389 8.63607 91.272 8.05841ZM74.191 7.85623L75.09 2.94608C75.235 2.13736 76.076 1.44416 76.917 1.44416H85.646C85.675 1.44416 85.704 1.44416 85.733 1.44416H85.762C85.791 1.44416 85.82 1.44416 85.849 1.44416H86.98C87.821 1.44416 88.662 2.13736 88.807 2.97497L89.706 7.88511H74.191V7.85623ZM88.865 42.0539C88.72 42.8915 87.879 43.5847 87.038 43.5847H76.917C76.076 43.5847 75.235 42.8915 75.09 42.0539L74.191 37.1438H89.764L88.865 42.0539Z" fill="black"/>
<path d="M69.725 28.3055C70.1254 28.3055 70.45 27.9822 70.45 27.5834C70.45 27.1846 70.1254 26.8613 69.725 26.8613C69.3246 26.8613 69 27.1846 69 27.5834C69 27.9822 69.3246 28.3055 69.725 28.3055Z" fill="black"/>
<path d="M69.725 25.4173C70.1254 25.4173 70.45 25.094 70.45 24.6952C70.45 24.2964 70.1254 23.9731 69.725 23.9731C69.3246 23.9731 69 24.2964 69 24.6952C69 25.094 69.3246 25.4173 69.725 25.4173Z" fill="black"/>
<path d="M69.725 31.1939C70.1254 31.1939 70.45 30.8706 70.45 30.4718C70.45 30.073 70.1254 29.7498 69.725 29.7498C69.3246 29.7498 69 30.073 69 30.4718C69 30.8706 69.3246 31.1939 69.725 31.1939Z" fill="black"/>
</g>
<defs>
<linearGradient id="paint0_linear" x1="81.9741" y1="35.7121" x2="81.9741" y2="44.9995" gradientUnits="userSpaceOnUse">
<stop stop-color="#6367C8"/>
<stop offset="1" stop-color="#944DD7"/>
</linearGradient>
<linearGradient id="paint1_linear" x1="81.9739" y1="-2.91886e-05" x2="81.9739" y2="9.28733" gradientUnits="userSpaceOnUse">
<stop stop-color="#6367C8"/>
<stop offset="1" stop-color="#944DD7"/>
</linearGradient>
<clipPath id="clip0">
<rect width="47" height="123" fill="white" transform="matrix(-1 0 0 1 94 86)"/>
</clipPath>
<clipPath id="clip1">
<rect width="29" height="45" fill="white" transform="translate(69)"/>
</clipPath>
</defs>
</svg>
