<svg width="133" height="129" viewBox="0 0 133 129" fill="none" xmlns="http://www.w3.org/2000/svg">
<path d="M84.2795 46.8923C84.1421 54.0384 88.1274 62.1464 100.152 79.5305C100.77 80.4238 101.526 81.4544 102.419 82.6225C108.535 91.0054 118.773 104.954 115.75 116.291C115.543 116.979 115.475 117.597 115.337 118.147C121.865 117.253 126.606 109.832 122.552 93.7539C121.315 89.0128 113.963 80.6986 114.581 80.4238C121.728 77.744 130.454 91.6925 131.347 96.0214C132.447 101.175 137.188 119.109 120.01 126.598C116.437 128.179 111.902 128.247 109.016 127.766C106.886 128.179 103.931 128.385 99.8084 128.385C98.709 128.385 97.5409 128.385 96.3041 128.385C91.4943 128.385 85.5163 128.316 79.2635 128.247C68.4071 128.11 57.207 127.972 52.1223 128.247C50.9542 128.316 49.1677 127.285 48.3432 125.499C47.7935 124.331 47.2438 121.926 49.8548 119.177C50.8168 118.147 51.8475 117.253 53.0156 116.498C53.0156 115.329 53.0843 114.299 53.153 112.993C53.2217 111.55 53.3591 109.901 53.3591 107.496C53.4278 103.442 53.2904 87.0888 53.153 72.728C53.0843 65.9943 53.0156 59.604 53.0156 54.9316C53.0156 52.3893 53.0156 50.5341 53.0156 49.2972C53.0156 48.404 53.0156 47.8543 53.0156 47.442C52.3972 47.0297 52.0536 46.6175 51.9162 46.2739C51.5726 44.9684 51.9162 41.1892 52.672 40.6395C52.7407 40.5708 52.8782 40.5021 53.0156 40.5021C53.0156 40.3647 52.9469 40.2273 52.9469 40.0211C52.7407 38.7156 52.4659 37.2039 51.2291 36.7917C47.9996 35.6923 44.7014 31.4321 44.083 27.653C43.8082 25.729 44.2204 24.2861 45.3885 23.3928C47.1063 22.0186 48.9616 20.9192 51.0229 20.0259C53.0843 19.064 53.4278 18.9266 54.3898 13.2235C54.5959 11.8492 54.7334 10.475 54.8021 9.03203C54.9395 6.90196 54.9395 5.59643 56.8634 1.61114C57.2757 0.717881 57.8941 0.580457 58.3064 0.649169C61.0549 0.992729 64.6279 12.2615 64.9027 13.3609C65.0402 13.4983 65.9334 14.1167 71.7052 14.1167C71.9801 13.2235 72.2549 12.1241 72.5985 10.956C73.4917 7.86393 74.5224 4.08477 74.866 1.74856C75.0034 0.168186 75.8967 0.0307617 76.3089 0.0307617C79.1261 0.168186 84.0047 8.89461 84.3482 17.9646C84.4169 20.4382 84.2795 25.3168 84.0734 29.9892C83.936 33.837 83.7985 38.1659 83.8672 39.5401C84.0047 39.5401 84.1421 39.6089 84.2108 39.6776C84.8979 40.0898 84.8292 41.3267 84.8292 42.907C84.8292 42.9757 84.3482 46.6175 84.2795 46.8923ZM73.6979 120.826C75.8967 118.834 78.5764 116.36 76.5838 111.482C73.6292 104.336 77.1335 93.2042 82.2869 87.295C85.0353 84.1342 87.9213 82.76 90.4636 83.4471L90.7384 82.4164C87.7838 81.6606 84.4857 83.1722 81.4623 86.6078C78.7826 89.6999 76.5151 94.1662 75.347 98.7011C74.0414 103.648 74.1789 108.39 75.6218 111.894C77.3396 116.085 75.1408 118.078 73.0108 120.002C71.5678 121.307 70.2623 122.475 70.3997 124.193L71.4991 124.125C71.3617 122.956 72.3923 121.926 73.6979 120.826ZM53.2217 41.7389C52.9469 42.6322 52.672 44.9684 52.9469 45.9991C53.0156 46.1365 53.2217 46.3426 53.634 46.6175L53.7714 46.6862C55.9702 47.5794 58.3064 48.1978 60.6426 48.6101C62.0168 48.8163 63.5285 48.9537 65.2463 49.0224H65.6586C70.9494 49.0911 76.7212 48.0604 83.0427 45.9304C83.1114 45.7929 83.1801 45.7242 83.2488 45.6555C83.3863 45.5868 83.455 45.5868 83.5924 45.5868C83.6611 45.5868 83.7298 45.5868 83.7985 45.6555C83.6611 44.7623 83.6611 43.869 83.7298 43.0445C83.7298 42.2886 83.7298 41.1205 83.5924 40.777H83.5237C80.1568 43.388 73.0107 44.7622 66.277 44.7622C61.261 44.7622 56.4512 44.0064 53.7027 42.2886C53.5653 42.2199 53.4278 42.0825 53.3591 41.9451L53.2217 41.7389ZM79.0574 16.5216C79.0574 16.0406 78.7826 13.0173 78.3703 10.1314C77.5457 4.08477 76.8586 3.94734 76.4464 3.87863L76.2402 4.90931C76.1715 4.90931 76.1715 4.90931 76.1028 4.8406C76.9273 5.66514 77.958 15.1474 77.958 16.4529L79.0574 16.5216ZM60.3678 14.529C60.3678 12.0554 59.5432 9.51301 58.7187 7.10809C58.5125 6.42097 58.2377 5.73386 58.0315 5.04674L57.0009 5.32158C57.207 6.0087 57.4131 6.69582 57.688 7.38294C58.4438 9.71915 59.2684 12.1928 59.2684 14.529H60.3678ZM50.061 24.7671C48.618 24.7671 47.5186 24.8358 46.9002 25.5916C46.3505 26.2787 46.3505 27.3094 46.8315 29.1646C47.1751 30.5389 47.9996 31.5008 49.0303 31.8444C49.3051 31.9131 49.6487 31.9818 49.9922 31.9818C50.7481 31.9818 51.71 31.707 52.8781 30.8137L52.9469 30.745C54.0463 29.5769 54.8708 27.5155 54.2524 26.1413C53.9088 25.4542 53.153 24.6296 51.0916 24.6984C50.7481 24.6984 50.4045 24.7671 50.061 24.7671Z" fill="black" fill-opacity="0.1"/>
<path d="M52.5342 42.2886C52.5342 42.2886 41.0593 55.2751 38.1047 93.1354C35.3562 128.179 29.1721 124.743 29.1721 124.743" stroke="black" stroke-opacity="0.1" stroke-width="1.77273" stroke-miterlimit="10"/>
<path d="M15.0859 127.491C7.30647 127.491 0.999973 126.261 0.999973 124.743C0.999973 123.225 7.30647 121.994 15.0859 121.994C22.8654 121.994 29.1719 123.225 29.1719 124.743C29.1719 126.261 22.8654 127.491 15.0859 127.491Z" stroke="black" stroke-opacity="0.1" stroke-width="1.77273" stroke-miterlimit="10"/>
<circle cx="73" cy="19" r="2" fill="black" fill-opacity="0.2"/>
<circle cx="79" cy="13" r="3" fill="black" fill-opacity="0.2"/>
<circle cx="87.5" cy="6.5" r="3.5" fill="black" fill-opacity="0.2"/>
<circle cx="99" cy="8" r="3" fill="black" fill-opacity="0.2"/>
<circle cx="106" cy="14" r="2" fill="black" fill-opacity="0.2"/>
<circle r="2" transform="matrix(-1 0 0 1 52 16)" fill="black" fill-opacity="0.2"/>
<circle r="2.5" transform="matrix(-1 0 0 1 49.5 9.5)" fill="black" fill-opacity="0.2"/>
<circle r="2.5" transform="matrix(-1 0 0 1 44.5 4.5)" fill="black" fill-opacity="0.2"/>
<circle r="2" transform="matrix(-1 0 0 1 38 6)" fill="black" fill-opacity="0.2"/>
<circle r="1.5" transform="matrix(-1 0 0 1 35.5 10.5)" fill="black" fill-opacity="0.2"/>
</svg>
