<svg width="134" height="32" viewBox="0 0 134 32" fill="none" xmlns="http://www.w3.org/2000/svg">
<path d="M29.0246 2.61219C28.4726 2.61219 27.96 2.21916 27.8417 1.6296C27.7234 1.00074 28.1571 0.371879 28.8275 0.253968C29.3401 0.17536 29.8527 0.0967523 30.3653 0.0181447C30.9962 -0.0997666 31.6272 0.371879 31.706 1.00074C31.8243 1.6296 31.3511 2.25846 30.7202 2.33707C30.2076 2.41568 29.695 2.49428 29.1824 2.57289C29.1824 2.61219 29.1035 2.61219 29.0246 2.61219Z" fill="white" fill-opacity="0.7"/>
<path d="M20.8221 24.5437C19.8363 24.3079 18.8899 24.0721 17.9436 23.797C17.3126 23.6397 16.6423 23.9935 16.4846 24.6223C16.3268 25.2512 16.6817 25.9194 17.3126 26.0766C18.259 26.3517 19.2448 26.5875 20.2306 26.8233C20.3095 26.8627 20.4278 26.8627 20.5066 26.8627C21.0587 26.8627 21.5319 26.5089 21.6502 25.9587C21.8473 25.3298 21.453 24.7009 20.8221 24.5437Z" fill="white" fill-opacity="0.7"/>
<path d="M28.5514 26.116C27.5656 25.9587 26.5798 25.7622 25.6334 25.5657C25.0025 25.4478 24.3716 25.8408 24.2533 26.509C24.135 27.1379 24.5293 27.7667 25.1996 27.8846C26.146 28.0811 27.1713 28.2777 28.1571 28.4349C28.2359 28.4349 28.3148 28.4349 28.3542 28.4349C28.9063 28.4349 29.4189 28.0418 29.5372 27.4523C29.6161 26.8627 29.1823 26.2339 28.5514 26.116Z" fill="white" fill-opacity="0.7"/>
<path d="M44.2848 28.1597C43.299 28.0811 42.2738 27.9631 41.3274 27.8845C40.6965 27.8059 40.105 28.2776 40.0262 28.9457C39.9473 29.5746 40.4205 30.1642 41.0908 30.2428C42.0766 30.3607 43.0624 30.4393 44.0877 30.5179C44.1271 30.5179 44.1665 30.5179 44.206 30.5179C44.7975 30.5179 45.3101 30.0462 45.3889 29.4567C45.4284 28.8278 44.9157 28.2383 44.2848 28.1597Z" fill="white" fill-opacity="0.7"/>
<path d="M13.2514 22.3424C12.305 21.9887 11.3586 21.6743 10.5306 21.3206C9.93907 21.0847 9.22929 21.3599 8.9927 21.9494C8.75611 22.539 9.03213 23.2464 9.62361 23.4823C10.5306 23.836 11.4769 24.229 12.5022 24.5828C12.6205 24.6221 12.7782 24.6614 12.8965 24.6614C13.3697 24.6614 13.8429 24.3469 14.0006 23.8753C14.1978 23.2464 13.8823 22.5783 13.2514 22.3424Z" fill="white" fill-opacity="0.7"/>
<path d="M36.3982 27.3344C35.4124 27.2165 34.4266 27.0593 33.4408 26.9413C32.8099 26.8627 32.1789 27.2951 32.1001 27.9239C32.0212 28.5528 32.455 29.1817 33.0859 29.2603C34.0717 29.4175 35.0575 29.5354 36.0827 29.6533C36.1222 29.6533 36.201 29.6533 36.2404 29.6533C36.8319 29.6533 37.3446 29.221 37.4234 28.6314C37.5023 28.0025 37.0291 27.413 36.3982 27.3344Z" fill="white" fill-opacity="0.7"/>
<path d="M9.97849 6.42477C9.70246 5.83522 8.99268 5.56009 8.4012 5.83522C7.37596 6.30686 6.46902 6.77851 5.64095 7.25015C5.0889 7.56458 4.89173 8.31136 5.20719 8.86161C5.44378 9.25465 5.83811 9.45117 6.23243 9.45117C6.42959 9.45117 6.62675 9.41186 6.82391 9.29395C7.57312 8.86161 8.44063 8.42927 9.387 7.99693C9.97849 7.7218 10.2151 7.01433 9.97849 6.42477Z" fill="white" fill-opacity="0.7"/>
<path d="M21.2164 4.18433C21.2953 4.18433 21.4136 4.18433 21.4924 4.14502C22.4388 3.9092 23.3852 3.71268 24.371 3.51616C25.0019 3.39825 25.4357 2.76939 25.2779 2.14053C25.1596 1.51167 24.5287 1.07933 23.8978 1.23654C22.8726 1.43306 21.8868 1.66889 20.9404 1.8654C20.3095 2.02262 19.9151 2.65148 20.0729 3.28034C20.1912 3.79129 20.6644 4.18433 21.2164 4.18433Z" fill="white" fill-opacity="0.7"/>
<path d="M13.5271 6.30677C13.6454 6.30677 13.7637 6.26747 13.9214 6.22817C14.8284 5.91374 15.7747 5.63861 16.7211 5.36348C17.352 5.16696 17.7069 4.5381 17.5097 3.90924C17.3126 3.28038 16.6817 2.92665 16.0507 3.12317C15.0255 3.39829 14.0791 3.71272 13.1328 4.02715C12.5019 4.22367 12.1864 4.89184 12.3836 5.5207C12.5807 5.99234 13.0539 6.30677 13.5271 6.30677Z" fill="white" fill-opacity="0.7"/>
<path d="M52.2108 28.7491C51.225 28.7098 50.2392 28.6312 49.2534 28.5526C48.6225 28.5133 48.031 28.9849 47.9916 29.6531C47.9521 30.3212 48.4253 30.8715 49.0956 30.9108C50.0815 30.9894 51.1067 31.0287 52.0925 31.1073C52.1319 31.1073 52.1319 31.1073 52.1714 31.1073C52.8023 31.1073 53.3149 30.6357 53.3543 30.0068C53.3543 29.3387 52.8417 28.7884 52.2108 28.7491Z" fill="white" fill-opacity="0.7"/>
<path d="M6.23275 19.1592C5.36524 18.609 4.61603 18.0587 4.02454 17.5085C3.55136 17.0761 2.80215 17.0761 2.3684 17.5478C1.93464 18.0194 1.93465 18.7662 2.40783 19.1985C3.11761 19.8667 3.98512 20.4956 4.97092 21.1244C5.16808 21.2423 5.36524 21.3209 5.60183 21.3209C5.99615 21.3209 6.39047 21.1244 6.58763 20.7707C6.98195 20.2204 6.78479 19.513 6.23275 19.1592Z" fill="white" fill-opacity="0.7"/>
<path d="M3.27517 12.1239C3.66949 11.613 3.59063 10.8662 3.07801 10.4732C2.56539 10.0801 1.81618 10.1587 1.42186 10.6697C0.554349 11.7309 0.08116 12.8707 0.00229555 14.0105C-0.0371367 14.6787 0.436049 15.2289 1.06696 15.2682C1.1064 15.2682 1.14583 15.2682 1.18526 15.2682C1.77675 15.2682 2.3288 14.7966 2.36823 14.1677C2.40766 13.4996 2.72312 12.7921 3.27517 12.1239Z" fill="white" fill-opacity="0.7"/>
<path d="M60.1364 29.1027C59.1506 29.0634 58.1648 29.0634 57.1396 29.0241C56.5087 28.9848 55.9566 29.4957 55.9172 30.1639C55.8777 30.8321 56.3904 31.3823 57.0607 31.3823C58.0465 31.4216 59.0717 31.4609 60.0576 31.4609H60.097C60.7279 31.4609 61.28 30.95 61.28 30.3211C61.3194 29.653 60.8068 29.1027 60.1364 29.1027Z" fill="white" fill-opacity="0.7"/>
<path d="M68.5357 29.1817C68.0231 29.1817 67.5104 29.1817 66.9978 29.1817H66.9584H66.7612H66.7218C66.2092 29.1817 65.6966 29.1817 65.1839 29.1817C64.553 29.1817 64.001 29.6926 64.001 30.3608C64.001 31.0289 64.5136 31.5399 65.1839 31.5399C65.6966 31.5399 66.1698 31.5399 66.6824 31.5399H66.7218H66.8795H67.0373H67.0767C67.5893 31.5399 68.1019 31.5399 68.5751 31.5399C69.2455 31.5399 69.7581 30.9896 69.7581 30.3608C69.7186 29.6926 69.1666 29.1424 68.5357 29.1817Z" fill="white" fill-opacity="0.7"/>
<path d="M132.297 10.7874C131.903 10.2764 131.153 10.1978 130.641 10.5909C130.128 10.9839 130.049 11.7307 130.444 12.2416C130.996 12.9491 131.311 13.6172 131.351 14.2854C131.39 14.9143 131.903 15.3859 132.534 15.3859C132.573 15.3859 132.612 15.3859 132.612 15.3859C133.283 15.3466 133.756 14.7571 133.717 14.1282C133.598 12.9884 133.125 11.8486 132.297 10.7874Z" fill="white" fill-opacity="0.7"/>
<path d="M129.616 17.6657C129.024 18.216 128.275 18.7663 127.408 19.3165C126.856 19.6702 126.698 20.3777 127.013 20.928C127.25 21.2817 127.644 21.4782 128.039 21.4782C128.236 21.4782 128.472 21.4389 128.669 21.2817C129.655 20.6528 130.523 20.024 131.233 19.3558C131.706 18.9235 131.745 18.1767 131.272 17.7051C130.838 17.2334 130.089 17.1941 129.616 17.6657Z" fill="white" fill-opacity="0.7"/>
<path d="M109.348 3.59466C110.334 3.79118 111.32 4.027 112.227 4.22352C112.305 4.26282 112.424 4.26282 112.503 4.26282C113.055 4.26282 113.528 3.90909 113.646 3.35883C113.804 2.72997 113.41 2.10111 112.779 1.9439C111.832 1.70808 110.846 1.51156 109.821 1.27573C109.19 1.15782 108.559 1.55086 108.402 2.17972C108.323 2.84788 108.717 3.43744 109.348 3.59466Z" fill="white" fill-opacity="0.7"/>
<path d="M116.998 5.48116C117.984 5.75629 118.93 6.07072 119.797 6.34584C119.916 6.38515 120.034 6.42445 120.192 6.42445C120.704 6.42445 121.138 6.11002 121.296 5.63837C121.493 5.00951 121.178 4.34135 120.547 4.14483C119.64 3.8304 118.654 3.51597 117.629 3.24084C116.998 3.04433 116.327 3.39806 116.17 4.02692C116.012 4.65578 116.406 5.28464 116.998 5.48116Z" fill="white" fill-opacity="0.7"/>
<path d="M123.109 21.4386C122.242 21.7923 121.335 22.1461 120.389 22.4605C119.758 22.657 119.442 23.3645 119.639 23.954C119.797 24.4257 120.27 24.7401 120.744 24.7401C120.862 24.7401 121.02 24.7008 121.138 24.6615C122.163 24.3078 123.109 23.954 124.016 23.6003C124.608 23.3645 124.923 22.657 124.647 22.0675C124.411 21.4779 123.74 21.1635 123.109 21.4386Z" fill="white" fill-opacity="0.7"/>
<path d="M124.371 8.1146C125.318 8.54694 126.185 8.97928 126.934 9.41162C127.132 9.52953 127.329 9.56884 127.526 9.56884C127.92 9.56884 128.315 9.37232 128.551 8.97928C128.867 8.42903 128.709 7.68226 128.117 7.36783C127.289 6.89618 126.343 6.42454 125.357 5.95289C124.766 5.67777 124.056 5.95289 123.78 6.54245C123.504 7.17131 123.74 7.83947 124.371 8.1146Z" fill="white" fill-opacity="0.7"/>
<path d="M92.3129 27.9631C91.3271 28.0811 90.3413 28.1597 89.3555 28.2383C88.6851 28.2776 88.2119 28.8671 88.2908 29.5353C88.3302 30.1642 88.8429 30.5965 89.4738 30.5965C89.5132 30.5965 89.5527 30.5965 89.5921 30.5965C90.5779 30.5179 91.6031 30.4 92.5889 30.3214C93.2199 30.2428 93.6931 29.6925 93.6536 29.0243C93.5353 28.3562 92.9833 27.8845 92.3129 27.9631Z" fill="white" fill-opacity="0.7"/>
<path d="M84.3871 28.592C83.4013 28.6706 82.4154 28.7099 81.4296 28.7885C80.7593 28.8278 80.2861 29.378 80.3255 30.0462C80.365 30.6751 80.8776 31.1467 81.5085 31.1467C81.5479 31.1467 81.5479 31.1467 81.5874 31.1467C82.6126 31.1074 83.5984 31.0288 84.5842 30.9502C85.2546 30.9109 85.7278 30.3606 85.6883 29.6925C85.6095 29.0636 85.0574 28.5527 84.3871 28.592Z" fill="white" fill-opacity="0.7"/>
<path d="M76.4609 29.0241C75.4751 29.0634 74.4893 29.1027 73.464 29.1027C72.7937 29.1027 72.2811 29.653 72.3205 30.3211C72.3205 30.95 72.8725 31.4609 73.5035 31.4609C73.5035 31.4609 73.5035 31.4609 73.5429 31.4609C74.5287 31.4216 75.5539 31.4216 76.5398 31.3823C77.2101 31.343 77.7227 30.8321 77.6833 30.1639C77.6833 29.4957 77.1312 28.9848 76.4609 29.0241Z" fill="white" fill-opacity="0.7"/>
<path d="M115.697 23.9147C114.79 24.1505 113.804 24.4256 112.818 24.6614C112.187 24.8187 111.793 25.4475 111.951 26.0764C112.069 26.6266 112.582 26.9804 113.094 26.9804C113.173 26.9804 113.291 26.9804 113.37 26.9411C114.396 26.7052 115.381 26.4301 116.288 26.1943C116.919 26.0371 117.274 25.3689 117.116 24.7401C116.959 24.1112 116.328 23.7182 115.697 23.9147Z" fill="white" fill-opacity="0.7"/>
<path d="M100.199 26.9804C99.2135 27.1376 98.2276 27.2555 97.2418 27.3734C96.6109 27.452 96.1377 28.0416 96.2166 28.7098C96.2955 29.2993 96.8081 29.7317 97.3996 29.7317C97.439 29.7317 97.5179 29.7317 97.5573 29.7317C98.5431 29.6137 99.5683 29.4565 100.554 29.3386C101.185 29.26 101.658 28.6311 101.54 28.0023C101.422 27.3341 100.83 26.9018 100.199 26.9804Z" fill="white" fill-opacity="0.7"/>
<path d="M108.007 25.6836C107.06 25.8801 106.075 26.0373 105.089 26.2339C104.458 26.3518 104.024 26.9413 104.143 27.6095C104.261 28.199 104.734 28.5921 105.325 28.5921C105.404 28.5921 105.444 28.5921 105.523 28.5921C106.548 28.4349 107.534 28.2383 108.48 28.0418C109.111 27.9239 109.545 27.295 109.426 26.6662C109.269 25.9587 108.638 25.5264 108.007 25.6836Z" fill="white" fill-opacity="0.7"/>
<path d="M104.695 2.69092C104.616 2.69092 104.577 2.69092 104.498 2.69092C103.985 2.61231 103.473 2.5337 102.96 2.45509C102.329 2.33718 101.895 1.74763 101.974 1.11877C102.092 0.489905 102.684 0.0575642 103.315 0.136172C103.827 0.214779 104.34 0.293386 104.853 0.411298C105.484 0.529209 105.917 1.11877 105.799 1.78693C105.76 2.25857 105.247 2.69092 104.695 2.69092Z" fill="white" fill-opacity="0.7"/>
</svg>
