<svg width="195" height="51" viewBox="0 0 195 51" fill="none" xmlns="http://www.w3.org/2000/svg">
<path d="M59.4633 0.0085558C58.9507 0.0478596 58.4381 0.126467 57.9254 0.165771C57.2945 0.244378 56.8213 0.833935 56.9002 1.4628C56.9791 2.05235 57.4917 2.524 58.0832 2.524C58.1226 2.524 58.162 2.524 58.2015 2.524C58.7141 2.48469 59.1873 2.40609 59.6999 2.36678C60.3308 2.28817 60.804 1.69862 60.7646 1.06976C60.6857 0.401594 60.0942 -0.0700517 59.4633 0.0085558Z" fill="white" fill-opacity="0.4"/>
<path d="M52.9178 0.794704C51.932 0.912615 50.9068 1.06983 49.921 1.22705C49.2901 1.30565 48.8169 1.93451 48.9352 2.56337C49.0141 3.15293 49.5267 3.58527 50.1182 3.58527C50.1576 3.58527 50.2365 3.58527 50.2759 3.58527C51.2617 3.42806 52.2475 3.31015 53.2727 3.15293C53.9036 3.07432 54.3768 2.48477 54.298 1.8166C54.1402 1.18774 53.5488 0.716096 52.9178 0.794704Z" fill="white" fill-opacity="0.4"/>
<path d="M50.7489 44.8147C49.7631 44.6575 48.7379 44.5003 47.7915 44.3824C47.1606 44.2645 46.5297 44.7361 46.4508 45.365C46.3325 45.9939 46.8057 46.6227 47.4366 46.7013C48.4224 46.8585 49.4082 47.0158 50.4335 47.173C50.4729 47.173 50.5518 47.173 50.5912 47.173C51.1827 47.173 51.6559 46.7406 51.7742 46.1511C51.853 45.5222 51.4193 44.8934 50.7489 44.8147Z" fill="white" fill-opacity="0.4"/>
<path d="M44.9129 2.01301C43.9271 2.17022 42.9019 2.36674 41.916 2.52396C41.2851 2.64187 40.8514 3.27073 40.9697 3.89959C41.088 4.44984 41.5612 4.88218 42.1526 4.88218C42.2315 4.88218 42.3104 4.88218 42.3498 4.88218C43.3356 4.72497 44.3214 4.52845 45.3072 4.37123C45.9381 4.25332 46.3719 3.66377 46.293 2.9956C46.1747 2.32744 45.5438 1.8951 44.9129 2.01301Z" fill="white" fill-opacity="0.4"/>
<path d="M42.8232 43.5178C41.8374 43.3213 40.8516 43.1641 39.8658 42.9676C39.2349 42.8497 38.604 43.2427 38.4857 43.9108C38.3674 44.5397 38.7617 45.1686 39.4321 45.2865C40.4179 45.483 41.4037 45.6795 42.4289 45.8367C42.5078 45.8367 42.5866 45.8367 42.6261 45.8367C43.1781 45.8367 43.6907 45.4437 43.809 44.8541C43.8879 44.2646 43.4936 43.6357 42.8232 43.5178Z" fill="white" fill-opacity="0.4"/>
<path d="M66.7188 46.6621C65.6936 46.5835 64.7078 46.4656 63.722 46.387C63.091 46.3084 62.4996 46.78 62.4207 47.4482C62.3418 48.1163 62.815 48.6666 63.4854 48.7452C64.4712 48.8238 65.4964 48.9417 66.5216 49.0203C66.5611 49.0203 66.6005 49.0203 66.6399 49.0203C67.2314 49.0203 67.744 48.5487 67.8229 47.9591C67.8623 47.291 67.3497 46.7014 66.7188 46.6621Z" fill="white" fill-opacity="0.4"/>
<path d="M82.7683 47.684C81.743 47.6447 80.7572 47.6054 79.7714 47.5661C79.101 47.5268 78.549 48.0377 78.549 48.7059C78.5096 49.3741 79.0222 49.9243 79.6925 49.9243C80.6783 49.9636 81.7036 50.0029 82.7288 50.0422H82.7683C83.3992 50.0422 83.9118 49.5313 83.9512 48.9024C83.9118 48.2736 83.3992 47.7233 82.7683 47.684Z" fill="white" fill-opacity="0.4"/>
<path d="M74.7239 47.2518C73.6986 47.1732 72.7128 47.1339 71.727 47.0553C71.0961 47.016 70.5046 47.4876 70.4652 48.1558C70.4258 48.8239 70.8989 49.3742 71.5693 49.4135C72.5551 49.4921 73.5803 49.5707 74.6056 49.61C74.645 49.61 74.645 49.61 74.6844 49.61C75.3153 49.61 75.828 49.1384 75.8674 48.5095C75.8674 47.8806 75.3942 47.2911 74.7239 47.2518Z" fill="white" fill-opacity="0.4"/>
<path d="M36.9478 3.50667C35.962 3.70319 34.9367 3.93901 33.9904 4.13553C33.3594 4.29275 32.9651 4.92161 33.0834 5.55047C33.2017 6.10072 33.7143 6.45445 34.227 6.45445C34.3058 6.45445 34.3847 6.45445 34.503 6.41515C35.4493 6.17933 36.4351 5.98281 37.421 5.78629C38.0519 5.66838 38.4856 5.03952 38.3279 4.37136C38.2096 3.7818 37.5787 3.34946 36.9478 3.50667Z" fill="white" fill-opacity="0.4"/>
<path d="M58.715 45.8367C57.6897 45.7188 56.7039 45.6008 55.7181 45.4829C55.0872 45.4043 54.4957 45.876 54.3774 46.5048C54.2591 47.1337 54.7718 47.7233 55.4027 47.8412C56.3885 47.9591 57.4137 48.077 58.3995 48.1949C58.4389 48.1949 58.4784 48.1949 58.5178 48.1949C59.1093 48.1949 59.6219 47.7626 59.7008 47.1337C59.8191 46.5048 59.3853 45.9153 58.715 45.8367Z" fill="white" fill-opacity="0.4"/>
<path d="M15.1423 11.1313C14.8662 10.5418 14.1565 10.2666 13.565 10.5418C12.5792 10.9741 11.6722 11.4457 10.7653 11.8781C10.1738 12.1925 9.97665 12.9 10.2527 13.4502C10.4498 13.8433 10.8836 14.0791 11.3173 14.0791C11.5145 14.0791 11.6722 14.0398 11.8694 13.9612C12.6975 13.5288 13.6044 13.0965 14.5508 12.6642C15.1423 12.4283 15.4183 11.7602 15.1423 11.1313Z" fill="white" fill-opacity="0.4"/>
<path d="M12.3425 34.4779C11.4355 34.0063 10.568 33.5346 9.77939 33.063C9.22734 32.7092 8.47813 32.9058 8.16267 33.456C7.80778 34.0063 8.00494 34.753 8.55699 35.0675C9.38506 35.5784 10.3314 36.0894 11.2778 36.561C11.4355 36.6396 11.6327 36.6789 11.8299 36.6789C12.2636 36.6789 12.6579 36.4431 12.8945 36.0501C13.1706 35.4605 12.934 34.753 12.3425 34.4779Z" fill="white" fill-opacity="0.4"/>
<path d="M8.00486 14.8652C7.61054 14.3543 6.90075 14.1971 6.3487 14.5901C5.44176 15.2583 4.61369 15.9264 3.86448 16.5946C3.39129 17.027 3.35186 17.7737 3.82505 18.2454C4.06164 18.4812 4.3771 18.5991 4.69255 18.5991C4.96858 18.5991 5.28404 18.4812 5.52063 18.2847C6.15154 17.6951 6.90075 17.0663 7.72883 16.4767C8.24145 16.123 8.35975 15.3762 8.00486 14.8652Z" fill="white" fill-opacity="0.4"/>
<path d="M3.98293 28.2286C3.5886 27.7176 2.8394 27.5997 2.32678 27.9927C1.81416 28.3858 1.69586 29.1326 2.09019 29.6435C2.68167 30.4296 3.43088 31.2157 4.29838 32.0017C4.53498 32.1982 4.811 32.3162 5.08703 32.3162C5.40248 32.3162 5.71794 32.1982 5.95453 31.9231C6.38829 31.4515 6.34886 30.7047 5.87567 30.2724C5.12646 29.6042 4.49554 28.8967 3.98293 28.2286Z" fill="white" fill-opacity="0.4"/>
<path d="M90.773 47.9199C89.7477 47.9199 88.7619 47.8806 87.7761 47.8413H87.7367C87.1058 47.8413 86.5537 48.3523 86.5537 48.9811C86.5537 49.6493 87.0663 50.1602 87.6972 50.1995C88.7225 50.2388 89.7083 50.2388 90.7335 50.2781C90.7335 50.2781 90.7335 50.2781 90.773 50.2781C91.4039 50.2781 91.9559 49.7672 91.9559 49.1383C91.9559 48.4702 91.4433 47.9199 90.773 47.9199Z" fill="white" fill-opacity="0.4"/>
<path d="M34.9758 41.9457C33.99 41.7099 33.0042 41.5134 32.0579 41.2776C31.4269 41.1204 30.796 41.5134 30.6383 42.1423C30.4806 42.7711 30.8749 43.4 31.5058 43.5572C32.4916 43.793 33.4774 44.0288 34.4632 44.2647C34.5421 44.2647 34.6209 44.304 34.7392 44.304C35.2913 44.304 35.7645 43.9502 35.8828 43.4C36.0011 42.7318 35.6067 42.0637 34.9758 41.9457Z" fill="white" fill-opacity="0.4"/>
<path d="M2.40536 24.3375C2.40536 24.2589 2.40536 24.1803 2.40536 24.1017C2.40536 23.3549 2.56309 22.6475 2.83912 21.9007C3.07571 21.3111 2.79968 20.6037 2.16877 20.3679C1.57729 20.132 0.867507 20.4072 0.630914 21.036C0.236592 22.0579 0 23.0798 0 24.141C0 24.2589 0 24.3768 0 24.4947C0.0394322 25.1236 0.552051 25.6346 1.18297 25.6346H1.2224C1.93218 25.5559 2.44479 25.0057 2.40536 24.3375Z" fill="white" fill-opacity="0.4"/>
<path d="M27.2078 39.9805C26.222 39.7054 25.2757 39.4303 24.3293 39.1552C23.6984 38.9586 23.028 39.3124 22.8309 39.9412C22.6337 40.5701 22.9886 41.2383 23.6195 41.4348C24.5659 41.7099 25.5517 42.0243 26.5375 42.2995C26.6558 42.3388 26.7346 42.3388 26.8529 42.3388C27.3656 42.3388 27.8387 41.985 27.9965 41.4741C28.2331 40.8059 27.8387 40.1771 27.2078 39.9805Z" fill="white" fill-opacity="0.4"/>
<path d="M19.6369 37.5829C18.6905 37.2292 17.7441 36.8755 16.8372 36.5217C16.2457 36.2859 15.5359 36.561 15.2993 37.1506C15.0627 37.7401 15.3388 38.4476 15.9303 38.6834C16.8372 39.0372 17.823 39.4302 18.8088 39.7839C18.9271 39.8232 19.0848 39.8625 19.2031 39.8625C19.6763 39.8625 20.1495 39.5481 20.3072 39.0765C20.5438 38.4869 20.2284 37.7794 19.6369 37.5829Z" fill="white" fill-opacity="0.4"/>
<path d="M29.022 5.35364C28.0362 5.62876 27.011 5.86459 26.0646 6.13971C25.4337 6.33623 25.0788 6.96509 25.2365 7.59395C25.3943 8.1049 25.8674 8.45864 26.3801 8.45864C26.4984 8.45864 26.5772 8.45864 26.6955 8.41933C27.6419 8.14421 28.5883 7.90838 29.5741 7.63326C30.205 7.47604 30.5993 6.80788 30.4021 6.17902C30.2838 5.55016 29.6529 5.15712 29.022 5.35364Z" fill="white" fill-opacity="0.4"/>
<path d="M21.2147 7.63354C20.2289 7.94797 19.2431 8.30171 18.3362 8.65544C17.7053 8.89126 17.3898 9.55942 17.6264 10.1883C17.7841 10.6599 18.2573 10.9744 18.7305 10.9744C18.8488 10.9744 19.0065 10.9351 19.1248 10.8958C20.0318 10.5813 20.9781 10.2276 21.9245 9.91316C22.5554 9.71664 22.8709 9.04848 22.6737 8.41962C22.516 7.75145 21.8456 7.43702 21.2147 7.63354Z" fill="white" fill-opacity="0.4"/>
<path d="M106.861 47.8805C105.876 47.9198 104.85 47.9198 103.865 47.9591C103.194 47.9591 102.682 48.5094 102.682 49.1776C102.682 49.8064 103.234 50.3567 103.865 50.3567C103.865 50.3567 103.865 50.3567 103.904 50.3567C104.929 50.3567 105.915 50.3174 106.94 50.2781C107.611 50.2781 108.123 49.7278 108.084 49.0597C108.044 48.3522 107.532 47.8412 106.861 47.8805Z" fill="white" fill-opacity="0.4"/>
<path d="M177.839 36.6789C176.932 37.0327 176.025 37.3864 175.039 37.7402C174.408 37.976 174.093 38.6441 174.33 39.2337C174.487 39.7053 174.96 40.0198 175.434 40.0198C175.552 40.0198 175.71 39.9805 175.828 39.9412C176.814 39.5874 177.76 39.2337 178.707 38.8407C179.298 38.6048 179.613 37.8974 179.377 37.3078C179.14 36.7183 178.43 36.4431 177.839 36.6789Z" fill="white" fill-opacity="0.4"/>
<path d="M176.183 11.0924C176.656 11.0924 177.129 10.8172 177.287 10.3063C177.523 9.67741 177.208 9.00925 176.577 8.77343C175.631 8.41969 174.684 8.10526 173.698 7.75153C173.067 7.55501 172.397 7.86944 172.2 8.4983C172.003 9.12716 172.318 9.79533 172.949 9.99184C173.896 10.3063 174.842 10.66 175.749 10.9744C175.907 11.0924 176.064 11.0924 176.183 11.0924Z" fill="white" fill-opacity="0.4"/>
<path d="M183.557 14.3542C183.991 14.3542 184.385 14.1184 184.622 13.7254C184.937 13.1358 184.701 12.4284 184.109 12.1139C183.242 11.6423 182.295 11.2099 181.349 10.7776C180.757 10.5025 180.048 10.7776 179.772 11.3672C179.496 11.9567 179.772 12.6642 180.363 12.9393C181.309 13.3716 182.177 13.804 183.005 14.2363C183.202 14.2756 183.399 14.3542 183.557 14.3542Z" fill="white" fill-opacity="0.4"/>
<path d="M168.533 8.61582C169.045 8.61582 169.519 8.26209 169.676 7.75114C169.873 7.12228 169.479 6.45411 168.848 6.2969C167.902 6.02177 166.916 5.74664 165.891 5.51082C165.26 5.35361 164.629 5.70734 164.432 6.3362C164.274 6.96506 164.629 7.59392 165.26 7.79044C166.246 8.06557 167.232 8.30139 168.138 8.57652C168.296 8.61582 168.414 8.61582 168.533 8.61582Z" fill="white" fill-opacity="0.4"/>
<path d="M170.307 39.3124C169.361 39.5875 168.415 39.8626 167.429 40.1378C166.798 40.295 166.443 40.9631 166.601 41.592C166.759 42.1029 167.232 42.4567 167.744 42.4567C167.863 42.4567 167.941 42.4567 168.06 42.4174C169.046 42.1422 170.031 41.8671 170.978 41.5527C171.609 41.3562 171.964 40.688 171.766 40.0985C171.609 39.4696 170.938 39.1159 170.307 39.3124Z" fill="white" fill-opacity="0.4"/>
<path d="M184.898 33.2595C184.109 33.7312 183.241 34.2028 182.334 34.6745C181.743 34.9496 181.506 35.6571 181.822 36.2466C182.019 36.6397 182.453 36.9148 182.886 36.9148C183.084 36.9148 183.241 36.8755 183.399 36.7969C184.345 36.3252 185.292 35.8143 186.12 35.3033C186.672 34.9889 186.869 34.2421 186.554 33.6919C186.199 33.1023 185.489 32.9451 184.898 33.2595Z" fill="white" fill-opacity="0.4"/>
<path d="M192.429 28.2681C191.916 27.8751 191.167 27.9537 190.773 28.4646C190.26 29.1328 189.59 29.8009 188.841 30.4691C188.368 30.9015 188.289 31.6482 188.722 32.1199C188.959 32.395 189.275 32.5129 189.629 32.5129C189.905 32.5129 190.181 32.4343 190.418 32.2378C191.286 31.491 192.035 30.7049 192.666 29.9189C193.021 29.4079 192.942 28.6611 192.429 28.2681Z" fill="white" fill-opacity="0.4"/>
<path d="M98.8169 47.9592C98.462 47.9592 98.1071 47.9592 97.7522 47.9592H97.0819C96.6481 47.9592 96.2144 47.9592 95.7806 47.9592C95.1103 47.9592 94.5977 48.4702 94.5977 49.1383C94.5977 49.8065 95.1103 50.3174 95.7806 50.3174C96.2144 50.3174 96.6481 50.3174 97.0819 50.3174H97.7522C98.1071 50.3174 98.462 50.3174 98.8169 50.3174C99.4872 50.3174 99.9999 49.7672 99.9999 49.1383C99.9999 48.5095 99.4872 47.9592 98.8169 47.9592Z" fill="white" fill-opacity="0.4"/>
<path d="M194.203 21.3111C193.967 20.7216 193.296 20.4071 192.665 20.643C192.074 20.8788 191.758 21.5469 191.995 22.1758C192.271 22.8833 192.389 23.5907 192.389 24.2982C192.389 24.4161 192.389 24.4947 192.389 24.6126C192.35 25.2808 192.863 25.8311 193.493 25.8704C193.533 25.8704 193.533 25.8704 193.572 25.8704C194.203 25.8704 194.716 25.3987 194.755 24.7699C194.755 24.6126 194.755 24.4554 194.755 24.2982C194.755 23.2763 194.558 22.2937 194.203 21.3111Z" fill="white" fill-opacity="0.4"/>
<path d="M190.182 18.8742C190.497 18.8742 190.813 18.7563 191.049 18.5205C191.483 18.0488 191.483 17.3021 191.01 16.8697C190.3 16.2016 189.472 15.4941 188.565 14.8652C188.052 14.4722 187.303 14.5901 186.909 15.1404C186.515 15.6513 186.633 16.3981 187.185 16.7911C188.013 17.3807 188.762 18.0095 189.393 18.5991C189.59 18.7563 189.906 18.8742 190.182 18.8742Z" fill="white" fill-opacity="0.4"/>
<path d="M162.579 41.3954C161.633 41.6312 160.647 41.867 159.661 42.0635C159.03 42.2208 158.636 42.8496 158.754 43.4785C158.873 44.0287 159.385 44.4218 159.898 44.4218C159.977 44.4218 160.056 44.4218 160.174 44.3825C161.199 44.1466 162.185 43.9108 163.131 43.7143C163.762 43.5571 164.157 42.9282 163.999 42.2994C163.881 41.6312 163.21 41.2382 162.579 41.3954Z" fill="white" fill-opacity="0.4"/>
<path d="M138.919 45.5615C137.934 45.6794 136.908 45.7974 135.923 45.9153C135.292 45.9939 134.818 46.5834 134.897 47.2123C134.976 47.8019 135.489 48.2735 136.08 48.2735C136.12 48.2735 136.159 48.2735 136.199 48.2735C137.184 48.1556 138.21 48.0377 139.195 47.9198C139.826 47.8412 140.299 47.2516 140.221 46.6227C140.142 45.9546 139.55 45.4829 138.919 45.5615Z" fill="white" fill-opacity="0.4"/>
<path d="M130.915 46.4264C129.929 46.505 128.904 46.6229 127.918 46.7015C127.248 46.7408 126.774 47.3303 126.853 47.9985C126.893 48.6274 127.405 49.0597 128.036 49.0597C128.076 49.0597 128.115 49.0597 128.155 49.0597C129.18 48.9811 130.166 48.8632 131.191 48.7846C131.861 48.706 132.334 48.1557 132.255 47.4876C132.137 46.8587 131.585 46.3871 130.915 46.4264Z" fill="white" fill-opacity="0.4"/>
<path d="M122.91 47.0944C121.924 47.173 120.899 47.2123 119.913 47.2909C119.243 47.3302 118.77 47.8805 118.809 48.5486C118.848 49.1775 119.361 49.6492 119.992 49.6492C120.031 49.6492 120.031 49.6492 120.071 49.6492C121.096 49.5705 122.082 49.5312 123.107 49.4526C123.777 49.4133 124.251 48.8238 124.211 48.1949C124.132 47.5661 123.58 47.0551 122.91 47.0944Z" fill="white" fill-opacity="0.4"/>
<path d="M114.905 47.5661C113.919 47.6054 112.894 47.6447 111.908 47.684C111.238 47.7233 110.765 48.2736 110.765 48.9024C110.804 49.5313 111.317 50.0422 111.948 50.0422H111.987C113.012 50.0029 113.998 49.9636 115.023 49.9243C115.694 49.885 116.167 49.3348 116.167 48.7059C116.088 48.0377 115.536 47.5268 114.905 47.5661Z" fill="white" fill-opacity="0.4"/>
<path d="M146.845 44.4612C145.859 44.6184 144.874 44.7756 143.888 44.8935C143.257 44.9721 142.784 45.601 142.902 46.2299C142.981 46.8194 143.493 47.2518 144.085 47.2518C144.124 47.2518 144.203 47.2518 144.243 47.2518C145.268 47.0946 146.254 46.9373 147.24 46.8194C147.87 46.7015 148.344 46.112 148.225 45.4831C148.107 44.7756 147.516 44.3433 146.845 44.4612Z" fill="white" fill-opacity="0.4"/>
<path d="M160.726 6.61145C161.278 6.61145 161.751 6.25772 161.869 5.70747C162.027 5.07861 161.633 4.44975 160.962 4.29253C159.977 4.05671 158.991 3.86019 158.005 3.62437C157.374 3.50646 156.743 3.89949 156.585 4.52835C156.467 5.15721 156.861 5.78607 157.492 5.94329C158.478 6.13981 159.464 6.37563 160.41 6.57215C160.529 6.61145 160.647 6.61145 160.726 6.61145Z" fill="white" fill-opacity="0.4"/>
<path d="M154.771 43.0855C153.785 43.282 152.799 43.4392 151.813 43.6357C151.183 43.7536 150.749 44.3825 150.867 45.0113C150.985 45.6009 151.459 45.9939 152.05 45.9939C152.129 45.9939 152.208 45.9939 152.247 45.9939C153.233 45.7974 154.258 45.6402 155.244 45.4437C155.875 45.3258 156.309 44.6969 156.19 44.068C156.033 43.3606 155.402 42.9282 154.771 43.0855Z" fill="white" fill-opacity="0.4"/>
<path d="M152.839 4.99986C153.391 4.99986 153.904 4.60682 153.982 4.01727C154.101 3.3884 153.667 2.75954 153.036 2.64163C152.05 2.44511 151.025 2.2879 150.039 2.13068C149.408 2.01277 148.777 2.44511 148.659 3.11328C148.541 3.74214 148.975 4.371 149.645 4.48891C150.631 4.64613 151.616 4.84264 152.602 4.99986C152.681 4.99986 152.76 4.99986 152.839 4.99986Z" fill="white" fill-opacity="0.4"/>
<path d="M144.874 3.66402C145.466 3.66402 145.939 3.23168 146.057 2.64213C146.136 2.01327 145.702 1.38441 145.071 1.3058C144.086 1.14858 143.1 1.03067 142.075 0.873457C141.444 0.79485 140.813 1.22719 140.734 1.89535C140.655 2.52421 141.089 3.15308 141.759 3.23168C142.784 3.34959 143.77 3.50681 144.756 3.66402C144.756 3.66402 144.795 3.66402 144.874 3.66402Z" fill="white" fill-opacity="0.4"/>
<path d="M136.633 2.60263C136.672 2.60263 136.712 2.60263 136.791 2.60263C137.382 2.60263 137.895 2.17028 137.974 1.54142C138.052 0.912563 137.579 0.323007 136.948 0.2444C136.436 0.165792 135.923 0.126488 135.41 0.0871845C134.78 0.00857701 134.188 0.480222 134.109 1.10908C134.03 1.73794 134.504 2.3275 135.134 2.40611C135.647 2.48471 136.12 2.56332 136.633 2.60263Z" fill="white" fill-opacity="0.4"/>
</svg>
