<svg width="251" height="71" viewBox="0 0 251 71" fill="none" xmlns="http://www.w3.org/2000/svg">
<path d="M45.8683 7.39129C45.7106 6.76243 45.0797 6.3694 44.4488 6.52661C43.1081 6.84104 41.728 7.19477 40.4267 7.5092C39.7958 7.66642 39.4015 8.33458 39.5592 8.96344C39.7169 9.5137 40.1901 9.82813 40.7027 9.82813C40.821 9.82813 40.8999 9.82813 41.0182 9.78882C42.3194 9.47439 43.6207 9.12066 44.9614 8.80623C45.6317 8.64901 46.0261 8.02015 45.8683 7.39129Z" fill="white" fill-opacity="0.15"/>
<path d="M67.3982 3.38233C67.3194 2.75347 66.6885 2.28183 66.0576 2.39974C64.6774 2.59626 63.3367 2.83208 61.996 3.0286C61.3651 3.14651 60.9314 3.73606 61.0102 4.36492C61.0891 4.95448 61.6017 5.34752 62.1932 5.34752C62.2721 5.34752 62.3115 5.34752 62.3904 5.34752C63.731 5.1117 65.0717 4.91518 66.4124 4.71866C67.0434 4.60075 67.5165 4.01119 67.3982 3.38233Z" fill="white" fill-opacity="0.15"/>
<path d="M56.594 5.15093C56.4757 4.52207 55.8448 4.08973 55.2139 4.20764C53.8732 4.48277 52.4931 4.71859 51.1524 4.99372C50.5215 5.11163 50.0877 5.74049 50.2454 6.36935C50.3637 6.9196 50.8369 7.31264 51.389 7.31264C51.4678 7.31264 51.5467 7.31264 51.6256 7.27334C52.9268 6.99821 54.307 6.72308 55.6477 6.48726C56.318 6.40865 56.7123 5.77979 56.594 5.15093Z" fill="white" fill-opacity="0.15"/>
<path d="M50.7583 60.6479C49.4176 60.3728 48.0769 60.0583 46.7756 59.7832C46.1447 59.626 45.5138 60.019 45.3561 60.6479C45.1983 61.2767 45.5927 61.9056 46.2236 62.0628C47.5248 62.3772 48.905 62.6524 50.2457 62.9668C50.3245 62.9668 50.4034 63.0061 50.4823 63.0061C51.0343 63.0061 51.5075 62.6131 51.6258 62.0628C51.7835 61.3947 51.3892 60.7658 50.7583 60.6479Z" fill="white" fill-opacity="0.15"/>
<path d="M83.0921 65.561C81.7514 65.4431 80.3713 65.2859 79.0306 65.1287C78.3996 65.0501 77.8082 65.5217 77.7293 66.1506C77.6504 66.7794 78.1236 67.369 78.7545 67.4476C80.0952 67.6048 81.4754 67.762 82.8555 67.88C82.8949 67.88 82.9343 67.88 82.9738 67.88C83.5653 67.88 84.0779 67.4083 84.1567 66.8188C84.1962 66.2292 83.723 65.6396 83.0921 65.561Z" fill="white" fill-opacity="0.15"/>
<path d="M93.9751 66.5042C92.6344 66.3863 91.2542 66.3077 89.9135 66.1898C89.2432 66.1505 88.6911 66.6221 88.6517 67.251C88.6123 67.9192 89.0855 68.4694 89.7164 68.5087C91.0571 68.6266 92.4372 68.7445 93.8173 68.8231C93.8568 68.8231 93.8568 68.8231 93.8962 68.8231C94.5271 68.8231 95.0397 68.3515 95.0792 67.7226C95.1186 67.1331 94.606 66.5828 93.9751 66.5042Z" fill="white" fill-opacity="0.15"/>
<path d="M72.2484 64.3034C70.9077 64.1069 69.5275 63.9496 68.1869 63.7531C67.5559 63.6745 66.925 64.1068 66.8462 64.7357C66.7673 65.3646 67.2011 65.9934 67.832 66.072C69.1727 66.2686 70.5528 66.4651 71.9329 66.6223C71.9723 66.6223 72.0512 66.6223 72.0906 66.6223C72.6821 66.6223 73.1947 66.1899 73.2736 65.6004C73.3525 64.9715 72.8793 64.382 72.2484 64.3034Z" fill="white" fill-opacity="0.15"/>
<path d="M115.781 67.5261C114.441 67.4868 113.061 67.4475 111.68 67.4082C111.01 67.3689 110.497 67.9192 110.458 68.548C110.419 69.2162 110.971 69.7272 111.602 69.7665C112.982 69.8058 114.362 69.8451 115.703 69.8844C115.703 69.8844 115.703 69.8844 115.742 69.8844C116.373 69.8844 116.925 69.3734 116.925 68.7446C116.964 68.0764 116.412 67.5261 115.781 67.5261Z" fill="white" fill-opacity="0.15"/>
<path d="M78.2818 1.96748C78.2029 1.33862 77.6114 0.866975 76.9805 0.945583C75.6398 1.1028 74.2597 1.26001 72.8795 1.45653C72.2486 1.53514 71.7754 2.1247 71.8543 2.79286C71.9332 3.38242 72.4458 3.81476 73.0373 3.81476C73.0767 3.81476 73.1556 3.81476 73.195 3.81476C74.5357 3.65754 75.9158 3.46102 77.2565 3.30381C77.8874 3.1859 78.3212 2.63564 78.2818 1.96748Z" fill="white" fill-opacity="0.15"/>
<path d="M104.859 67.1725C103.518 67.0939 102.138 67.0546 100.758 66.976C100.127 66.9367 99.5357 67.4477 99.4963 68.0765C99.4568 68.7447 99.9695 69.2949 100.6 69.3342C101.98 69.4128 103.361 69.4915 104.701 69.5308H104.741C105.372 69.5308 105.884 69.0198 105.924 68.3909C106.003 67.7621 105.529 67.2118 104.859 67.1725Z" fill="white" fill-opacity="0.15"/>
<path d="M14.9537 18.0819C14.6383 17.5317 13.889 17.3351 13.337 17.6496C12.0752 18.357 10.8528 19.1038 9.74866 19.8506C9.19661 20.2043 9.07831 20.9511 9.4332 21.5013C9.66979 21.8551 10.0247 22.0123 10.419 22.0123C10.6556 22.0123 10.8922 21.9337 11.0894 21.8158C12.1146 21.1083 13.2581 20.4008 14.4805 19.6934C15.072 19.3789 15.2692 18.6715 14.9537 18.0819Z" fill="white" fill-opacity="0.15"/>
<path d="M6.00237 24.3315C5.52918 23.8991 4.77997 23.8991 4.34622 24.3708C3.28155 25.5499 2.37461 26.6897 1.70426 27.8688C1.38881 28.4191 1.58597 29.1658 2.13802 29.4803C2.33518 29.5982 2.53234 29.6375 2.7295 29.6375C3.12382 29.6375 3.55757 29.4409 3.75474 29.0479C4.34622 28.026 5.09543 27.0041 6.0418 26.0215C6.51499 25.5499 6.47556 24.8031 6.00237 24.3315Z" fill="white" fill-opacity="0.15"/>
<path d="M10.379 45.7912C9.23546 44.9658 8.21022 44.1404 7.30328 43.315C6.83009 42.8827 6.08088 42.8827 5.64713 43.3937C5.21338 43.8653 5.21337 44.6121 5.72599 45.0444C6.7118 45.9484 7.8159 46.8524 9.0383 47.7171C9.23546 47.8743 9.47205 47.9529 9.70864 47.9529C10.0635 47.9529 10.4579 47.7957 10.655 47.4419C11.0493 46.8917 10.8916 46.1449 10.379 45.7912Z" fill="white" fill-opacity="0.15"/>
<path d="M40.151 58.1326C38.8104 57.7789 37.5091 57.4251 36.2078 57.0321C35.5769 56.8356 34.9066 57.1893 34.7488 57.8182C34.5517 58.447 34.9066 59.1152 35.5375 59.2724C36.8387 59.6655 38.1794 60.0192 39.5201 60.3729C39.6384 60.4122 39.7173 60.4122 39.8356 60.4122C40.3482 60.4122 40.8214 60.0585 40.9791 59.5475C41.1763 58.958 40.782 58.2898 40.151 58.1326Z" fill="white" fill-opacity="0.15"/>
<path d="M2.37451 34.8647C2.29565 34.1965 1.7436 33.7249 1.07325 33.8035C0.402905 33.8821 -0.0702806 34.4323 0.00858375 35.1005C0.12688 36.5547 0.560634 37.9697 1.27041 39.3846C1.46757 39.817 1.90133 40.0528 2.33508 40.0528C2.49281 40.0528 2.68997 40.0135 2.8477 39.9349C3.43918 39.6597 3.67578 38.9523 3.39975 38.3627C2.80827 37.1836 2.49281 36.0045 2.37451 34.8647Z" fill="white" fill-opacity="0.15"/>
<path d="M19.6856 51.0186C18.4238 50.4291 17.2014 49.8395 16.0578 49.25C15.4663 48.9355 14.7566 49.1714 14.4411 49.7216C14.1256 50.3112 14.3622 51.0186 14.9143 51.3331C16.0973 51.9619 17.3591 52.5908 18.6603 53.1803C18.8181 53.259 18.9758 53.2983 19.173 53.2983C19.6067 53.2983 20.0405 53.0624 20.2376 52.6301C20.5531 52.0012 20.2771 51.2938 19.6856 51.0186Z" fill="white" fill-opacity="0.15"/>
<path d="M29.7406 54.9883C28.4394 54.556 27.1381 54.0843 25.9157 53.6127C25.3242 53.3769 24.6144 53.6913 24.3778 54.2809C24.1412 54.8704 24.4567 55.5779 25.0482 55.8137C26.31 56.2853 27.6113 56.757 28.952 57.2286C29.0703 57.2679 29.1886 57.3072 29.3463 57.3072C29.8195 57.3072 30.2927 56.9928 30.4504 56.5212C30.687 55.8923 30.3715 55.2241 29.7406 54.9883Z" fill="white" fill-opacity="0.15"/>
<path d="M35.3006 10.1426C35.1034 9.51378 34.4331 9.16005 33.8416 9.35657C32.5009 9.7496 31.1602 10.1819 29.8984 10.6143C29.2675 10.8108 28.952 11.479 29.1492 12.1078C29.3069 12.6188 29.7801 12.9332 30.2533 12.9332C30.3716 12.9332 30.4899 12.9332 30.6082 12.8546C31.87 12.4223 33.1713 12.0292 34.4725 11.6362C35.1429 11.4004 35.4978 10.7715 35.3006 10.1426Z" fill="white" fill-opacity="0.15"/>
<path d="M24.93 13.6014C24.6934 13.0119 23.9836 12.6974 23.3921 12.9332C22.0514 13.4442 20.7896 13.9944 19.5672 14.5447C18.9757 14.8198 18.6997 15.5273 18.9757 16.1168C19.1729 16.5492 19.6066 16.8243 20.0404 16.8243C20.1981 16.8243 20.3558 16.785 20.5136 16.7064C21.6965 16.1955 22.9584 15.6452 24.2596 15.1343C24.8511 14.8984 25.1666 14.191 24.93 13.6014Z" fill="white" fill-opacity="0.15"/>
<path d="M61.4441 62.6917C60.1034 62.4559 58.7233 62.2201 57.4221 61.9843C56.7911 61.8663 56.1602 62.2987 56.0419 62.9275C55.9236 63.5564 56.3574 64.1853 56.9883 64.3032C58.329 64.539 59.6697 64.7748 61.0498 65.0106C61.1287 65.0106 61.1681 65.0106 61.247 65.0106C61.799 65.0106 62.3116 64.6176 62.4299 64.0281C62.5482 63.3992 62.1145 62.7703 61.4441 62.6917Z" fill="white" fill-opacity="0.15"/>
<path d="M85.8923 0.00228806C85.2219 0.0808956 84.5516 0.120199 83.8418 0.198807C83.1715 0.277414 82.6983 0.827667 82.7771 1.49583C82.856 2.12469 83.3686 2.55703 83.9601 2.55703C83.9995 2.55703 84.039 2.55703 84.0784 2.55703C84.7487 2.47842 85.4191 2.43912 86.0894 2.36051C86.7598 2.28191 87.233 1.73165 87.1541 1.06349C87.1147 0.434629 86.5232 -0.0370157 85.8923 0.00228806Z" fill="white" fill-opacity="0.15"/>
<path d="M127.335 67.644C126.783 67.644 126.271 67.644 125.719 67.644C125.561 67.644 125.443 67.644 125.285 67.644C125.167 67.644 125.048 67.6833 124.93 67.6833C124.812 67.644 124.694 67.644 124.575 67.644C123.905 67.644 123.235 67.644 122.525 67.644C121.854 67.644 121.342 68.155 121.342 68.8232C121.342 69.4913 121.854 70.0023 122.525 70.0023C123.195 70.0023 123.905 70.0023 124.575 70.0023C124.694 70.0023 124.812 69.963 124.93 69.963C125.048 70.0023 125.167 70.0023 125.285 70.0023C125.443 70.0023 125.561 70.0023 125.719 70.0023C126.271 70.0023 126.783 70.0023 127.335 70.0023C128.006 70.0023 128.518 69.452 128.518 68.8232C128.518 68.155 128.006 67.644 127.335 67.644Z" fill="white" fill-opacity="0.15"/>
<path d="M224.062 53.8092C222.84 54.2809 221.539 54.7132 220.237 55.1849C219.606 55.3814 219.291 56.0495 219.488 56.6784C219.646 57.15 220.119 57.4645 220.592 57.4645C220.71 57.4645 220.829 57.4252 220.986 57.3859C222.327 56.9142 223.628 56.4819 224.89 56.0102C225.521 55.7744 225.797 55.1062 225.6 54.4774C225.324 53.8878 224.654 53.5734 224.062 53.8092Z" fill="white" fill-opacity="0.15"/>
<path d="M138.297 67.4475C136.917 67.4868 135.537 67.5261 134.156 67.5261C133.486 67.5261 132.973 68.0764 133.013 68.7445C133.013 69.3734 133.565 69.8843 134.196 69.8843C134.196 69.8843 134.196 69.8843 134.235 69.8843C135.615 69.845 136.996 69.845 138.336 69.8057C139.007 69.8057 139.519 69.2555 139.48 68.5873C139.48 67.9585 138.928 67.4475 138.297 67.4475Z" fill="white" fill-opacity="0.15"/>
<path d="M233.921 49.4465C232.777 50.036 231.555 50.6256 230.293 51.2151C229.701 51.4903 229.425 52.1977 229.701 52.7873C229.898 53.2196 230.332 53.4947 230.766 53.4947C230.924 53.4947 231.081 53.4554 231.279 53.3768C232.58 52.7873 233.842 52.1584 235.025 51.5296C235.616 51.2151 235.813 50.5077 235.537 49.9181C235.222 49.3679 234.473 49.1713 233.921 49.4465Z" fill="white" fill-opacity="0.15"/>
<path d="M219.804 13.0904C220.317 13.0904 220.75 12.776 220.908 12.3044C221.105 11.6755 220.79 11.0073 220.159 10.8108C218.897 10.3785 217.556 9.94614 216.216 9.5531C215.585 9.35658 214.914 9.71032 214.757 10.3392C214.559 10.968 214.914 11.6362 215.545 11.7934C216.886 12.1865 218.187 12.6188 219.41 13.0118C219.567 13.0511 219.686 13.0904 219.804 13.0904Z" fill="white" fill-opacity="0.15"/>
<path d="M213.731 57.2286C212.469 57.5824 211.128 57.9754 209.787 58.3291C209.156 58.4863 208.762 59.1545 208.959 59.7834C209.117 60.2943 209.59 60.6481 210.103 60.6481C210.221 60.6481 210.3 60.648 210.418 60.6087C211.759 60.255 213.1 59.862 214.401 59.5082C215.032 59.3117 215.387 58.6829 215.19 58.054C215.032 57.3858 214.361 57.0321 213.731 57.2286Z" fill="white" fill-opacity="0.15"/>
<path d="M231.081 16.3134C231.357 15.7239 231.081 15.0164 230.49 14.7413C229.267 14.191 228.005 13.6408 226.665 13.1298C226.073 12.894 225.364 13.1691 225.127 13.798C224.89 14.3875 225.166 15.095 225.797 15.3308C227.099 15.8418 228.36 16.392 229.543 16.903C229.701 16.9816 229.859 17.0209 230.016 17.0209C230.45 17.0209 230.884 16.7458 231.081 16.3134Z" fill="white" fill-opacity="0.15"/>
<path d="M247.88 29.716C248.432 29.4016 248.629 28.6548 248.313 28.1046C247.643 26.9255 246.776 25.7464 245.711 24.6459C245.277 24.1742 244.528 24.1349 244.055 24.5672C243.582 24.9996 243.542 25.7464 243.976 26.218C244.922 27.2399 245.672 28.2618 246.263 29.2444C246.5 29.6374 246.894 29.8339 247.288 29.8339C247.485 29.8733 247.683 29.8339 247.88 29.716Z" fill="white" fill-opacity="0.15"/>
<path d="M248.944 34.0393C248.274 33.9606 247.722 34.4716 247.643 35.1005C247.525 36.2403 247.17 37.4194 246.618 38.5592C246.342 39.1487 246.578 39.8562 247.17 40.1313C247.327 40.2099 247.525 40.2493 247.682 40.2493C248.116 40.2493 248.55 40.0134 248.747 39.5811C249.457 38.1662 249.851 36.7119 250.009 35.297C250.048 34.6681 249.575 34.0786 248.944 34.0393Z" fill="white" fill-opacity="0.15"/>
<path d="M240.585 21.7372C240.94 21.1869 240.821 20.4795 240.269 20.0864C239.165 19.3397 237.982 18.5929 236.72 17.8854C236.168 17.571 235.419 17.7675 235.104 18.3178C234.788 18.868 234.985 19.6148 235.537 19.9292C236.76 20.6367 237.903 21.3441 238.929 22.0516C239.126 22.2088 239.362 22.2481 239.599 22.2481C239.993 22.2481 240.348 22.0516 240.585 21.7372Z" fill="white" fill-opacity="0.15"/>
<path d="M242.675 43.5116C241.768 44.337 240.742 45.1623 239.599 45.9877C239.086 46.3808 238.928 47.0882 239.323 47.6385C239.559 47.9529 239.914 48.1494 240.269 48.1494C240.506 48.1494 240.742 48.0708 240.939 47.9136C242.162 47.0489 243.266 46.1449 244.252 45.2409C244.725 44.8086 244.764 44.0618 244.331 43.5902C243.936 43.1185 243.187 43.0792 242.675 43.5116Z" fill="white" fill-opacity="0.15"/>
<path d="M209.314 9.98535C209.827 9.98535 210.3 9.63162 210.458 9.12067C210.616 8.49181 210.261 7.86295 209.63 7.66643C208.328 7.3127 206.988 6.99827 205.608 6.68384C204.977 6.52662 204.346 6.91966 204.188 7.54852C204.03 8.17738 204.425 8.80624 205.056 8.96345C206.396 9.27788 207.737 9.63162 208.999 9.94605C209.117 9.98535 209.196 9.98535 209.314 9.98535Z" fill="white" fill-opacity="0.15"/>
<path d="M170.947 65.2071C169.606 65.3643 168.226 65.4823 166.885 65.6395C166.254 65.7181 165.742 66.2683 165.821 66.9365C165.899 67.5261 166.412 67.9977 167.004 67.9977C167.043 67.9977 167.082 67.9977 167.122 67.9977C168.502 67.8798 169.882 67.7226 171.223 67.5654C171.854 67.4867 172.327 66.8972 172.287 66.2683C172.169 65.6395 171.578 65.1678 170.947 65.2071Z" fill="white" fill-opacity="0.15"/>
<path d="M160.064 66.2684C158.723 66.3863 157.343 66.4649 155.963 66.5828C155.292 66.6221 154.819 67.2117 154.859 67.8406C154.898 68.4694 155.411 68.9411 156.042 68.9411C156.081 68.9411 156.081 68.9411 156.121 68.9411C157.501 68.8624 158.881 68.7445 160.222 68.6266C160.892 68.5873 161.365 67.9978 161.286 67.3689C161.286 66.7007 160.734 66.2291 160.064 66.2684Z" fill="white" fill-opacity="0.15"/>
<path d="M177.06 3.89337C177.651 3.89337 178.164 3.46103 178.243 2.87147C178.322 2.24261 177.888 1.61375 177.217 1.53515C175.877 1.33863 174.497 1.18141 173.116 1.0242C172.486 0.945589 171.894 1.41723 171.815 2.04609C171.736 2.67495 172.21 3.26451 172.84 3.34312C174.181 3.50033 175.561 3.65755 176.902 3.85407C176.941 3.89337 177.02 3.89337 177.06 3.89337Z" fill="white" fill-opacity="0.15"/>
<path d="M149.181 67.0151C147.801 67.0937 146.46 67.1723 145.08 67.2116C144.41 67.2509 143.937 67.8011 143.937 68.43C143.976 69.0589 144.489 69.5698 145.119 69.5698H145.159C146.5 69.4912 147.919 69.4519 149.26 69.3733C149.93 69.334 150.403 68.7837 150.364 68.1156C150.403 67.4867 149.812 66.9758 149.181 67.0151Z" fill="white" fill-opacity="0.15"/>
<path d="M187.903 5.50485C188.455 5.50485 188.968 5.11181 189.086 4.52226C189.204 3.8934 188.77 3.26453 188.1 3.14662C186.759 2.9108 185.379 2.71428 184.039 2.51776C183.408 2.43916 182.777 2.8715 182.698 3.50036C182.58 4.12922 183.053 4.75808 183.684 4.83669C185.024 5.0332 186.405 5.26903 187.706 5.46555C187.745 5.46555 187.824 5.50485 187.903 5.50485Z" fill="white" fill-opacity="0.15"/>
<path d="M198.668 7.50941C199.22 7.50941 199.693 7.11637 199.811 6.56612C199.93 5.93726 199.535 5.3084 198.904 5.15118C197.564 4.87606 196.223 4.60093 194.843 4.32581C194.212 4.20789 193.581 4.64024 193.463 5.2691C193.345 5.89796 193.778 6.52682 194.409 6.64473C195.75 6.91985 197.091 7.15568 198.431 7.4308C198.51 7.47011 198.589 7.50941 198.668 7.50941Z" fill="white" fill-opacity="0.15"/>
<path d="M181.752 63.8317C180.411 64.0282 179.031 64.2247 177.69 64.382C177.059 64.4606 176.586 65.0501 176.665 65.7183C176.744 66.3078 177.256 66.7402 177.848 66.7402C177.887 66.7402 177.966 66.7402 178.006 66.7402C179.386 66.5437 180.726 66.3864 182.106 66.1899C182.737 66.1113 183.211 65.4825 183.092 64.8536C183.013 64.1854 182.422 63.7531 181.752 63.8317Z" fill="white" fill-opacity="0.15"/>
<path d="M192.516 62.1024C191.175 62.3382 189.835 62.574 188.494 62.8098C187.863 62.9277 187.429 63.5173 187.508 64.1855C187.587 64.775 188.1 65.1681 188.691 65.1681C188.77 65.1681 188.81 65.1681 188.888 65.1681C190.229 64.9322 191.609 64.6964 192.95 64.4606C193.581 64.3427 194.015 63.7138 193.896 63.085C193.778 62.4168 193.147 61.9845 192.516 62.1024Z" fill="white" fill-opacity="0.15"/>
<path d="M203.202 59.9012C201.901 60.2157 200.56 60.4908 199.22 60.7659C198.589 60.8838 198.155 61.5127 198.313 62.1808C198.431 62.7311 198.904 63.1241 199.456 63.1241C199.535 63.1241 199.614 63.1241 199.693 63.0848C201.034 62.8097 202.414 62.4953 203.715 62.2201C204.346 62.0629 204.74 61.4341 204.622 60.8052C204.464 60.1764 203.833 59.7833 203.202 59.9012Z" fill="white" fill-opacity="0.15"/>
<path d="M166.136 2.63575C166.727 2.63575 167.24 2.1641 167.319 1.57455C167.398 0.945687 166.925 0.356131 166.254 0.277523C165.584 0.198916 164.914 0.159612 164.204 0.0810045C163.533 0.00239694 162.981 0.513346 162.903 1.14221C162.824 1.81037 163.336 2.36062 163.967 2.43923C164.638 2.51784 165.308 2.55714 165.978 2.63575C166.057 2.63575 166.097 2.63575 166.136 2.63575Z" fill="white" fill-opacity="0.15"/>
</svg>
