<svg width="100" height="156" viewBox="0 0 100 156" fill="none" xmlns="http://www.w3.org/2000/svg">
<g clip-path="url(#clip0)">
<path d="M79.5284 91.0994C78.3737 91.0994 77.4332 90.1634 77.4332 89.0144V48.4177C77.4332 45.3782 76.8465 43.1357 75.6917 41.7457C74.4718 40.2816 72.479 39.5681 69.5828 39.5681H30.3497C29.1949 39.5681 28.2544 38.6322 28.2544 37.4831C28.2544 36.3341 29.1949 35.3982 30.3497 35.3982H69.5828C73.7361 35.3982 76.8837 36.6399 78.9138 39.077C80.7297 41.2639 81.6144 44.3126 81.6144 48.4084V89.0144C81.6237 90.1727 80.6832 91.0994 79.5284 91.0994Z" fill="url(#paint0_linear)"/>
<path d="M76.464 124.533C75.989 123.968 75.2906 123.643 74.5549 123.643H14.9183C14.1827 123.643 13.4842 123.968 13.0093 124.533C12.5344 125.098 12.3388 125.84 12.4692 126.562L16.1103 146.476C17.0695 151.703 21.9958 155.798 27.3318 155.798H62.1508C67.4868 155.798 72.4131 151.703 73.3722 146.476L77.0134 126.562C77.1344 125.84 76.9389 125.098 76.464 124.533ZM68.4739 145.587C67.9524 148.441 65.0563 150.85 62.1415 150.85H27.3318C24.4263 150.85 21.5208 148.441 20.9993 145.587L17.8983 128.592H71.5843L68.4739 145.587Z" fill="url(#paint1_linear)"/>
<path d="M72.0779 27.1973H17.4049C7.8131 27.1973 0.0093124 34.9719 0.0093124 44.5257V100.885C0 100.95 0 101.005 0 101.07C0 102.442 1.11749 103.554 2.49572 103.554C3.87396 103.554 4.99144 102.442 4.99144 101.07C4.99144 101.005 4.99144 100.931 4.98213 100.866V44.5257C4.98213 37.6963 10.5603 32.1456 17.4049 32.1456H72.0779C78.9319 32.1456 84.5007 37.6963 84.5007 44.5257V111.254C84.5007 118.084 78.9225 123.634 72.0779 123.634H17.4049C10.5509 123.634 4.98213 118.084 4.98213 111.254V110.355C4.99144 110.29 4.99144 110.226 4.99144 110.151C4.99144 110.087 4.99144 110.012 4.98213 109.948V109.892C4.85176 108.641 3.79014 107.668 2.50503 107.668C1.21992 107.668 0.158311 108.641 0.0279372 109.892H0.0093124V109.957C0 110.022 0 110.077 0 110.142C0 110.207 0 110.272 0.0093124 110.327V111.236C0.0093124 120.789 7.8131 128.564 17.4049 128.564H72.0779C81.6697 128.564 89.4735 120.789 89.4735 111.236V44.535C89.4735 34.9719 81.6697 27.1973 72.0779 27.1973Z" fill="url(#paint2_linear)"/>
<path d="M77.0041 29.2359L73.3629 9.32214C72.4131 4.09581 67.4868 0 62.1508 0H57.8764V0.00926654C56.5075 0.0185331 55.4086 1.13052 55.4086 2.4927C55.4086 3.86415 56.5261 4.97613 57.9044 4.97613C58.0161 4.97613 58.1185 4.96687 58.221 4.9576H62.1508C65.0563 4.9576 67.9617 7.3669 68.4832 10.221L71.5843 27.2158H17.8983L20.9993 10.221C21.5208 7.3669 24.417 4.9576 27.3318 4.9576H48.4523C48.5547 4.96687 48.6665 4.97613 48.7689 4.97613C50.1471 4.97613 51.2646 3.86415 51.2646 2.4927C51.2646 1.21392 50.2868 0.157531 49.0296 0.0277996V0H27.3318C21.9958 0 17.0695 4.09581 16.1103 9.32214L12.4692 29.2359C12.3388 29.9587 12.5344 30.7001 13.0093 31.2653C13.4842 31.8306 14.1827 32.1549 14.9183 32.1549H74.5642C75.2999 32.1549 75.9983 31.8306 76.4733 31.2653C76.9389 30.7001 77.1345 29.9587 77.0041 29.2359Z" fill="url(#paint3_linear)"/>
</g>
<path d="M92.8709 48.2902H87.4997C86.119 48.2902 84.9995 49.4082 84.9995 50.7903V73.2906C84.9995 74.6724 86.119 75.7908 87.4997 75.7908H92.8709C96.8015 75.7908 99.9997 72.5926 99.9997 68.662V55.4193C99.9997 51.4884 96.8015 48.2902 92.8709 48.2902ZM94.9998 68.6617C94.9998 69.8361 94.0454 70.7905 92.8709 70.7905H89.9998V53.2901H92.8709C94.0454 53.2901 94.9998 54.2445 94.9998 55.4189V68.6617Z" fill="url(#paint4_linear)"/>
<defs>
<linearGradient id="paint0_linear" x1="54.9344" y1="35.3982" x2="54.9344" y2="91.0994" gradientUnits="userSpaceOnUse">
<stop stop-color="#6367C8"/>
<stop offset="1" stop-color="#944DD7"/>
</linearGradient>
<linearGradient id="paint1_linear" x1="44.739" y1="123.643" x2="44.739" y2="155.798" gradientUnits="userSpaceOnUse">
<stop stop-color="#6367C8"/>
<stop offset="1" stop-color="#944DD7"/>
</linearGradient>
<linearGradient id="paint2_linear" x1="44.7367" y1="27.1973" x2="44.7367" y2="128.564" gradientUnits="userSpaceOnUse">
<stop stop-color="#6367C8"/>
<stop offset="1" stop-color="#944DD7"/>
</linearGradient>
<linearGradient id="paint3_linear" x1="44.7367" y1="0" x2="44.7367" y2="32.1549" gradientUnits="userSpaceOnUse">
<stop stop-color="#6367C8"/>
<stop offset="1" stop-color="#944DD7"/>
</linearGradient>
<linearGradient id="paint4_linear" x1="92.4996" y1="48.2902" x2="92.4996" y2="75.7908" gradientUnits="userSpaceOnUse">
<stop stop-color="#6367C8"/>
<stop offset="1" stop-color="#944DD7"/>
</linearGradient>
<clipPath id="clip0">
<rect width="89.4735" height="155.789" fill="white"/>
</clipPath>
</defs>
</svg>
