<svg width="30" height="30" viewBox="0 0 30 30" fill="none" xmlns="http://www.w3.org/2000/svg">
<g clip-path="url(#clip0)">
<path d="M15.0003 30C14.9184 30.0001 14.8372 29.984 14.7616 29.9524C14.5279 29.8558 14.3754 29.6278 14.3753 29.375V16.4217L7.92307 22.3365C7.66866 22.5698 7.27329 22.5527 7.03997 22.2983C6.80666 22.0439 6.82371 21.6486 7.07812 21.4152L14.0754 15.0005L7.0756 8.58703C6.82119 8.35372 6.80414 7.95834 7.03745 7.70394C7.27077 7.44953 7.66614 7.43248 7.92055 7.6658L14.3753 13.5793V0.62608C14.3747 0.280917 14.654 0.000614959 14.9992 -2.95478e-05C15.1656 -0.000322506 15.3252 0.0657688 15.4428 0.183596L22.9425 7.68331C23.1864 7.92752 23.1862 8.32325 22.942 8.56717C22.9356 8.5735 22.9291 8.57971 22.9225 8.5858L15.9253 15.0005L22.925 21.414C23.1795 21.6472 23.1968 22.0425 22.9636 22.297C22.9576 22.3037 22.9514 22.3102 22.945 22.3165L15.4453 29.8162C15.3275 29.9345 15.1672 30.0006 15.0003 30ZM15.6253 16.4217V27.8663L21.5963 21.8953L15.6253 16.4217ZM15.6253 2.13475V13.5793L21.5963 8.10576L15.6253 2.13475Z" fill="#2196F3"/>
<path d="M15.0003 30C14.6552 30 14.3753 29.7201 14.3753 29.375V16.4217L7.92307 22.3365C7.66866 22.5698 7.27329 22.5527 7.03997 22.2983C6.80666 22.0439 6.82371 21.6486 7.07812 21.4152L14.0754 15.0005L7.0756 8.58703C6.82119 8.35372 6.80414 7.95834 7.03745 7.70394C7.27077 7.44953 7.66614 7.43248 7.92055 7.6658L14.3753 13.5793V0.62608C14.3747 0.280917 14.654 0.000614959 14.9992 -2.95478e-05C15.1656 -0.000322506 15.3252 0.0657688 15.4428 0.183596L22.9425 7.68331C23.1864 7.92752 23.1862 8.32325 22.942 8.56717C22.9356 8.5735 22.9291 8.57971 22.9225 8.5858L15.9253 15.0005L22.925 21.414C23.1795 21.6472 23.1968 22.0425 22.9636 22.297C22.9576 22.3037 22.9514 22.3102 22.945 22.3165L15.4453 29.8162C15.3275 29.9345 15.1672 30.0006 15.0003 30ZM15.6253 16.4217V27.8663L21.5963 21.8953L15.6253 16.4217ZM15.6253 2.13475V13.5793L21.5963 8.10576L15.6253 2.13475Z" fill="black"/>
</g>
<defs>
<clipPath id="clip0">
<rect width="30" height="30" fill="white"/>
</clipPath>
</defs>
</svg>
