<svg width="30" height="30" viewBox="0 0 30 30" fill="none" xmlns="http://www.w3.org/2000/svg">
<g clip-path="url(#clip0)">
<path d="M15.192 11.1337C13.502 11.1337 12.1318 12.5038 12.1318 14.1939C12.1318 15.8839 13.5019 17.2541 15.192 17.2541C16.8821 17.2541 18.2522 15.884 18.2522 14.1939C18.2522 12.5038 16.8822 11.1337 15.192 11.1337ZM15.192 15.7968C14.3067 15.7968 13.5891 15.0791 13.5891 14.1938C13.5891 13.3085 14.3067 12.5909 15.192 12.5909C16.0773 12.5909 16.795 13.3085 16.795 14.1938C16.795 15.0791 16.0773 15.7968 15.192 15.7968Z" fill="black"/>
<path d="M27.3967 4.13899L7.50568 1.88036C6.7337 1.77061 5.95154 1.99598 5.35632 2.49971C4.76118 2.96118 4.37968 3.64523 4.29984 4.39407L3.93557 7.38137H2.80615C1.2032 7.38137 0.000984513 8.80213 0.000984513 10.4051V25.3051C-0.0393892 26.8336 1.16701 28.1056 2.69563 28.146C2.73245 28.1469 2.76934 28.1472 2.80615 28.1467H22.8064C24.4094 28.1467 25.8666 26.908 25.8666 25.3051V24.7222C26.3635 24.6262 26.835 24.4277 27.2509 24.1393C27.8412 23.6424 28.2191 22.9386 28.3074 22.1721L29.9832 7.38137C30.1541 5.77472 29.0011 4.32943 27.3967 4.13899ZM24.4094 25.3051C24.4094 26.1066 23.6079 26.6894 22.8064 26.6894H2.80615C2.08215 26.7107 1.47801 26.141 1.45674 25.417C1.45562 25.3797 1.45611 25.3424 1.4582 25.3051V22.6093L7.10494 18.4562C7.78328 17.9354 8.73872 17.9817 9.36364 18.5655L13.3346 22.0628C13.9376 22.5691 14.6967 22.8521 15.484 22.8643C16.0996 22.8718 16.705 22.7079 17.2327 22.3907L24.4094 18.2376V25.3051H24.4094ZM24.4094 16.5254L16.4675 21.152C15.7856 21.5561 14.9224 21.4829 14.3181 20.9699L10.3108 17.4361C9.16226 16.4492 7.48358 16.3887 6.267 17.2904L1.4582 20.7877V10.4051C1.4582 9.6036 2.00468 8.83859 2.80615 8.83859H22.8064C23.6627 8.87409 24.3542 9.54991 24.4094 10.4051V16.5254V16.5254ZM28.5274 7.18467C28.5269 7.18948 28.5265 7.19436 28.5259 7.19917L26.8137 21.9899C26.8166 22.3734 26.6418 22.7367 26.3401 22.9735C26.1944 23.1193 25.8665 23.1921 25.8665 23.265V10.4051C25.809 8.74544 24.4665 7.41896 22.8063 7.38137H5.39272L5.72059 4.5398C5.79172 4.17184 5.9841 3.83839 6.26707 3.59259C6.58657 3.37168 6.97287 3.26869 7.36001 3.30112L27.2146 5.59621C28.0157 5.67229 28.6035 6.38347 28.5274 7.18467Z" fill="black"/>
</g>
<defs>
<clipPath id="clip0">
<rect width="30" height="30" fill="white"/>
</clipPath>
</defs>
</svg>
