<svg width="12" height="8" viewBox="0 0 12 8" fill="none" xmlns="http://www.w3.org/2000/svg">
<path d="M-4.20893e-08 1.44067C-5.37001e-08 1.7063 0.0913085 1.93042 0.273926 2.11304L5.19629 7.0852C5.42041 7.31763 5.66113 7.42554 5.95166 7.42554C6.24219 7.42554 6.49121 7.31763 6.70703 7.09351L11.6294 2.11304C11.812 1.93042 11.9033 1.7063 11.9033 1.44067C11.9033 0.909424 11.48 0.477783 10.9487 0.477783C10.6831 0.477783 10.4424 0.585693 10.2432 0.776611L5.94336 5.14282L1.65186 0.776611C1.46094 0.585693 1.22021 0.477783 0.95459 0.477783C0.42334 0.477783 -1.88676e-08 0.909423 -4.20893e-08 1.44067Z" fill="black" fill-opacity="0.5"/>
</svg>
