<svg width="22" height="21" viewBox="0 0 22 21" fill="none" xmlns="http://www.w3.org/2000/svg">
<path d="M10.5986 8.94821C10.3677 9.06078 10.1458 9.1889 9.93284 9.33258C9.39124 9.74897 8.95317 10.2715 8.71376 10.8452C8.48809 11.3695 8.46317 11.9853 8.65964 12.6184C8.84712 13.236 8.83595 13.8024 8.63932 14.4136C8.27833 15.4723 8.55662 16.5766 9.32475 17.2115C9.92171 17.6964 10.7184 17.9415 11.5728 17.8837C12.0203 17.8535 12.4863 17.7089 12.8826 17.4801C13.1996 17.297 13.4966 17.0426 13.7349 16.7599C13.9188 16.5293 14.1613 16.327 14.406 16.1651C14.6754 16.0095 14.9808 15.9161 15.2725 15.8721C16.0909 15.7522 16.8496 15.2726 17.32 14.5863C17.7972 13.8753 17.9922 13.0784 17.8618 12.3034C17.696 11.3207 16.8719 10.5523 15.7656 10.32C15.1469 10.2002 14.6419 9.91115 14.2008 9.43999C13.7597 8.96884 13.2298 8.67337 12.638 8.60025C12.0215 8.52073 11.3499 8.63885 10.7185 8.8997L10.5986 8.94821ZM9.3974 11.1141C9.62307 10.5898 10.0543 10.092 10.6159 9.74698L10.6476 9.72868L10.711 9.69207C11.2907 9.37816 11.9374 9.25363 12.5043 9.32035C13.0057 9.38342 13.3887 9.68074 13.6137 9.92409C14.1584 10.5014 14.7897 10.8627 15.5574 11.0209C16.3657 11.1763 16.9579 11.7262 17.0841 12.4206C17.1881 13.0034 17.0321 13.6119 16.6527 14.1628C16.3119 14.6706 15.7275 15.0495 15.1193 15.131C14.7305 15.1896 14.3617 15.3196 13.9971 15.5301C13.6484 15.7314 13.3604 16.0014 13.1062 16.2933C12.7226 16.7637 12.1112 17.0959 11.501 17.1371C10.8342 17.1903 10.2203 17.0055 9.77655 16.6396C9.24721 16.1987 9.06715 15.4109 9.32773 14.6176C9.57456 13.8737 9.59315 13.1371 9.34968 12.3859C9.27628 12.0758 9.20132 11.5799 9.3974 11.1141Z" fill="#7B13FF" fill-opacity="0.9"/>
<path d="M6.84649 11.6732C5.9104 10.6375 4.62816 10.3202 3.90953 10.9425C3.21573 11.5712 3.39837 12.8759 4.33445 13.9115C5.27054 14.9472 6.57762 15.2709 7.27141 14.6422C7.99004 14.0199 7.79155 12.7244 6.84649 11.6732ZM6.3091 12.1701C7.01116 12.9468 7.12993 13.8114 6.79439 14.1088C6.45885 14.4063 5.59874 14.1978 4.89668 13.421C4.19461 12.6443 4.07585 11.7797 4.41138 11.4823C4.74692 11.1849 5.59118 11.4025 6.3091 12.1701Z" fill="#7B13FF" fill-opacity="0.9"/>
<path d="M7.84002 6.47496C6.9251 5.21973 5.54197 4.69105 4.69231 5.30603C3.85851 5.91185 3.92753 7.38587 4.84245 8.6411C5.76636 9.91189 7.15636 10.4159 7.99016 9.81003C8.83982 9.19506 8.77978 7.73659 7.84002 6.47496ZM7.24188 6.90325C7.95449 7.88126 7.98447 8.92159 7.55171 9.23365C7.11896 9.54572 6.14633 9.21554 5.42474 8.22197C4.71214 7.24395 4.68216 6.20362 5.11491 5.89156C5.54766 5.5795 6.52928 5.92523 7.24188 6.90325Z" fill="#7B13FF" fill-opacity="0.9"/>
<path d="M16.6009 9.27636C17.4923 8.98986 17.8496 7.70518 17.4366 6.36754C17.0236 5.0299 15.976 4.20381 15.0688 4.49947C14.1775 4.78597 13.8202 6.07065 14.2332 7.40829C14.6461 8.74593 15.7096 9.56287 16.6009 9.27636ZM15.3012 5.19482C15.7266 5.05294 16.416 5.58812 16.7376 6.58448C17.0592 7.58085 16.8097 8.42998 16.3844 8.57186C15.9591 8.71374 15.2697 8.17857 14.948 7.1822C14.6264 6.18583 14.8759 5.3367 15.3012 5.19482Z" fill="#7B13FF" fill-opacity="0.9"/>
<path d="M12.0635 7.45845C13.0051 7.03927 13.2636 5.58351 12.6251 4.14799C11.9955 2.72803 10.7534 1.93125 9.79601 2.35958C8.85445 2.77877 8.5959 4.23453 9.23448 5.67004C9.87306 7.10556 11.1061 7.88679 12.0635 7.45845ZM10.0918 3.01833C10.5784 2.79958 11.4554 3.33016 11.9551 4.45185C12.4458 5.558 12.2544 6.58097 11.7677 6.79971C11.2811 7.01845 10.4041 6.48788 9.90446 5.36618C9.42962 4.25089 9.62102 3.22792 10.0918 3.01833Z" fill="#7B13FF" fill-opacity="0.9"/>
</svg>
