<svg width="60" height="83" viewBox="0 0 60 83" fill="none" xmlns="http://www.w3.org/2000/svg">
<g clip-path="url(#clip0)">
<path opacity="0.9" d="M59.6002 28.3C58.9002 13.3 46.7002 1 31.7002 0H28.0002C12.9002 1 0.800168 13.3 0.000167985 28.3C-0.099832 30.2 0.000167981 32 0.200168 33.8C0.400168 35.3 0.700168 36.9 1.20017 38.3C2.50017 44 5.20017 51.2 9.10017 58.7C16.3002 72.4 25.0002 82.3 29.7002 82.6H30.0002C34.7002 82.4 43.4002 72.5 50.5002 58.8C54.4002 51.3 57.2002 44 58.4002 38.4C58.8002 36.9 59.2002 35.4 59.4002 33.9C59.7002 32 59.7002 30.2 59.6002 28.3Z" fill="white"/>
<path d="M38.9999 37.6001C37.9999 36.7001 37.3999 35.7001 37.1999 34.4001C36.8999 32.9001 36.1999 31.7001 35.0999 30.8001C33.9999 30.0001 32.6999 29.4001 31.2999 29.2001C31.0999 29.2001 30.9999 29.2001 30.7999 29.2001C30.4999 29.2001 30.2999 29.1001 29.9999 29.1001C29.6999 29.1001 29.3999 29.1001 29.0999 29.2001C27.4999 29.4001 26.0999 29.9001 24.9999 30.8001C23.8999 31.6001 23.1999 32.8001 22.8999 34.4001C22.5999 35.7001 21.9999 36.7001 21.0999 37.6001C19.1999 39.3001 18.3999 41.9001 19.1999 44.1001C19.7999 45.8001 21.0999 47.2001 22.8999 48.1001C23.7999 48.6001 24.8999 48.8001 25.8999 48.8001C26.7999 48.8001 27.5999 48.6001 28.3999 48.3001C28.9999 48.1001 29.5999 47.9001 30.1999 47.9001C30.7999 47.9001 31.3999 48.1001 31.9999 48.3001C32.7999 48.6001 33.5999 48.8001 34.4999 48.8001C35.4999 48.8001 36.4999 48.6001 37.3999 48.2001C37.4999 48.2001 37.5999 48.1001 37.6999 48.1001C39.3999 47.2001 40.5999 45.9001 41.1999 44.2001C41.6999 41.9001 40.9999 39.4001 38.9999 37.6001Z" fill="#7B13FF" fill-opacity="0.9"/>
<path d="M20.4001 30.6998C19.8001 27.8998 18.0001 25.7998 16.1001 25.7998C15.9001 25.7998 15.7001 25.7998 15.5001 25.8998C14.5001 26.0998 13.6001 26.8998 13.2001 28.1998C12.8001 29.3998 12.7001 30.8998 13.0001 32.3998C13.6001 35.1998 15.4001 37.2998 17.3001 37.2998C17.5001 37.2998 17.7001 37.2998 17.9001 37.1998C19.9001 36.6998 21.0001 33.8998 20.4001 30.6998Z" fill="#7B13FF" fill-opacity="0.9"/>
<path d="M28.3003 21.3999C28.0003 17.9999 26.0003 15.3999 23.8003 15.3999C23.7003 15.3999 23.6003 15.3999 23.5003 15.3999C21.2003 15.6999 19.6003 18.6999 20.0003 22.2999C20.3003 25.6999 22.3003 28.2999 24.5003 28.2999C24.6003 28.2999 24.7003 28.2999 24.8003 28.2999C25.9003 28.1999 26.9003 27.3999 27.6003 25.9999C28.2003 24.7999 28.5003 23.1999 28.3003 21.3999Z" fill="#7B13FF" fill-opacity="0.9"/>
<path d="M44.1001 25.4999C43.9001 25.3999 43.7001 25.3999 43.5001 25.3999C41.5001 25.3999 39.7001 27.4999 39.1001 30.4999C38.4001 33.7999 39.6001 36.6999 41.7001 37.1999C41.9001 37.2999 42.1001 37.2999 42.3001 37.2999C44.3001 37.2999 46.1001 35.1999 46.7001 32.1999C47.3001 28.8999 46.2001 25.9999 44.1001 25.4999Z" fill="#7B13FF" fill-opacity="0.9"/>
<path d="M36.0001 15.5C35.9001 15.5 35.8001 15.5 35.7001 15.5C33.5001 15.5 31.6001 18.1 31.3001 21.5C31.1001 23.2 31.3001 24.9 32.0001 26.1C32.6001 27.4 33.6001 28.2 34.8001 28.4C34.9001 28.4 35.0001 28.4 35.1001 28.4C37.3001 28.4 39.2001 25.8 39.5001 22.4C39.9001 18.8 38.3001 15.8 36.0001 15.5Z" fill="#7B13FF" fill-opacity="0.9"/>
</g>
<defs>
<clipPath id="clip0">
<rect width="59.7" height="82.6" fill="white"/>
</clipPath>
</defs>
</svg>
