<svg width="59" height="57" viewBox="0 0 59 57" fill="none" xmlns="http://www.w3.org/2000/svg">
<path d="M31.487 24.4665C30.2589 24.375 29.0256 24.375 27.7975 24.4665C25.3086 24.6883 22.9346 25.6094 20.9525 27.1223C19.0379 28.5773 17.7781 30.7246 17.4466 33.0978C16.99 35.1229 15.945 36.9699 14.4415 38.4094C12.8999 39.6951 11.7758 41.406 11.2113 43.3262C10.6467 45.2464 10.667 47.2898 11.2694 49.1986C12.3757 52.1299 14.5933 54.5135 17.4466 55.8381C18.9936 56.6315 20.7146 57.0307 22.4551 57C23.8857 56.9797 25.3004 56.6984 26.6288 56.1701C27.5888 55.7919 28.6032 55.5678 29.6339 55.5061C30.6646 55.5678 31.679 55.7919 32.639 56.1701C33.9674 56.6984 35.3821 56.9797 36.8127 57C38.4787 57.0066 40.1277 56.6674 41.6543 56.0041C41.8212 56.0041 41.9882 55.8381 42.1551 55.8381C44.8724 54.5138 46.9671 52.1932 47.9984 49.3646C48.4259 47.3788 48.3108 45.3154 47.6649 43.3889C47.019 41.4624 45.8659 39.743 44.3255 38.4094C42.7075 37.0611 41.6392 35.1728 41.3204 33.0978C40.9074 30.7535 39.6637 28.6336 37.8144 27.1223C35.948 25.7381 33.7705 24.8266 31.4704 24.4665" fill="#7B13FF" fill-opacity="0.9"/>
<path d="M10.3584 35.5774C13.7173 34.3533 14.9175 29.2303 13.0389 24.1348C11.1604 19.0393 6.91456 15.9009 3.55559 17.1251C0.196616 18.3492 -1.00351 23.4722 0.875025 28.5677C2.75356 33.6632 6.9994 36.8015 10.3584 35.5774Z" fill="#7B13FF" fill-opacity="0.9"/>
<path d="M21.2753 22.2699C25.3506 21.6579 27.8984 16.187 26.9661 10.0504C26.0337 3.91383 21.9742 -0.564688 17.899 0.0473627C13.8237 0.659414 11.2758 6.13027 12.2082 12.2669C13.1405 18.4034 17.2 22.882 21.2753 22.2699Z" fill="#7B13FF" fill-opacity="0.9"/>
<path d="M58.1166 28.5515C59.9951 23.456 58.795 18.333 55.436 17.1089C52.077 15.8848 47.8312 19.0231 45.9527 24.1186C44.0741 29.2141 45.2743 34.3372 48.6332 35.5613C51.9922 36.7854 56.238 33.647 58.1166 28.5515Z" fill="#7B13FF" fill-opacity="0.9"/>
<path d="M46.8 12.2604C47.7324 6.12378 45.1846 0.652926 41.1093 0.0408755C37.034 -0.571175 32.9745 3.90734 32.0422 10.0439C31.1098 16.1805 33.6577 21.6514 37.7329 22.2634C41.8082 22.8755 45.8677 18.397 46.8 12.2604Z" fill="#7B13FF" fill-opacity="0.9"/>
</svg>
