<svg width="75" height="72" viewBox="0 0 75 72" fill="none" xmlns="http://www.w3.org/2000/svg">
<path d="M39.3259 30.0462L39.3174 30.045L39.3087 30.0444C38.0692 29.9575 36.8297 29.9575 35.5902 30.0444L35.5825 30.0449L35.5748 30.046C32.2972 30.4806 29.1842 31.6117 26.7745 33.4503C24.5294 35.1249 22.9216 37.6744 22.2085 40.8226C21.5189 43.7821 20.1435 46.0607 17.9007 48.0925C13.7998 51.68 12.2666 57.0349 13.9737 61.6189L13.9744 61.6209C15.3144 65.127 18.0803 68.0987 21.8158 69.9313C23.7807 70.8953 26.0989 71.4198 28.3283 71.4198C30.1134 71.4198 31.9839 71.0698 33.6755 70.4583L33.6755 70.4584L33.6818 70.4559C34.9638 69.9528 36.4243 69.6981 37.8079 69.6127C39.2592 69.6139 40.7162 69.9496 42.0064 70.4559C45.7558 71.9447 50.1254 71.7689 53.7826 70.0185L53.7848 70.0174C57.5182 68.1858 60.2862 65.3006 61.6268 61.7051L61.6269 61.705C63.3358 57.1157 61.7082 51.8482 57.6127 48.1791L57.6098 48.1765C55.3717 46.2339 53.9946 43.8717 53.3042 40.9079C52.5916 37.8487 51.0729 35.2987 48.7391 33.5369C46.3294 31.6981 43.2165 30.5669 39.9389 30.1321C39.9386 30.1321 39.9383 30.1321 39.938 30.132L39.3259 30.0462ZM49.221 41.6222L49.2216 41.6246C50.11 45.3727 51.8898 48.4305 54.7364 50.9617L54.7389 50.9638C57.6575 53.4907 58.7482 57.0868 57.6491 60.1564C56.7104 62.7517 54.6584 64.8575 51.8132 66.211L51.8105 66.2124C49.2403 67.4733 45.9823 67.6399 43.333 66.5498L43.333 66.5498L43.3292 66.5483C41.5447 65.8479 39.6718 65.4984 37.6249 65.4984C35.6584 65.4984 33.7878 65.9369 32.0183 66.5446L32.0183 66.5445L32.0108 66.5473C29.353 67.5568 26.0925 67.471 23.527 66.2124L23.5243 66.2111C20.6818 64.8588 18.6269 62.6676 17.6874 60.154C16.5909 57.1738 17.6777 53.5772 20.6013 50.9614C23.4423 48.4352 25.3126 45.3803 26.1149 41.6291C26.5505 40.1792 27.4086 38.0136 29.2678 36.6035C31.4152 35.0025 34.3448 33.9853 37.4529 33.8999H37.6249H37.9723C41.0804 33.9853 44.0099 35.0024 46.1573 36.6035C48.0218 38.0176 48.8774 40.105 49.221 41.6222Z" fill="white" stroke="white" stroke-width="0.5"/>
<path d="M17.435 32.5651L17.4348 32.5645C16.7244 29.2536 15.2125 26.4743 13.2966 24.6274C11.3808 22.7806 9.04375 21.8533 6.7064 22.303L6.70639 22.3029L6.70089 22.3041C4.4049 22.7997 2.66215 24.575 1.67606 27.0269C0.689868 29.479 0.44891 32.6287 1.15927 35.9394C1.86979 39.251 3.40398 42.0515 5.33034 43.9087C7.25497 45.7642 9.59321 46.6951 11.8904 46.2004C14.2318 45.7488 15.9759 43.9937 16.9513 41.5406C17.9266 39.0877 18.1448 35.9168 17.435 32.5651ZM13.5259 33.4459C14.0439 35.8614 13.9111 38.0099 13.4004 39.5968C12.8844 41.2002 12.0083 42.1663 11.0888 42.3543C10.1671 42.5427 8.95715 41.9995 7.81647 40.7324C6.68743 39.4783 5.67461 37.5618 5.15629 35.1461C4.63784 32.7297 4.77053 30.5805 5.28139 28.9931C5.79743 27.3897 6.67347 26.4236 7.59304 26.2356C8.51357 26.0474 9.70139 26.5892 10.8316 27.8567C11.9502 29.111 12.9637 31.0283 13.5259 33.4459Z" fill="white" stroke="white" stroke-width="0.5"/>
<path d="M23.4791 0.785336L23.4787 0.785384C20.9146 1.05494 18.8136 2.82734 17.4615 5.43688C16.1089 8.04722 15.4901 11.5184 15.8891 15.2594C16.2881 19.0439 17.6413 22.3197 19.5304 24.5901C21.4189 26.8597 23.8623 28.143 26.4252 27.8736C29.0303 27.6043 31.1542 25.8563 32.5079 23.2547C33.8613 20.6538 34.4576 17.1817 34.0146 13.3981C33.6155 9.65802 32.2847 6.38308 30.4071 4.10218C28.5296 1.82131 26.0861 0.516076 23.4791 0.785336ZM19.8068 14.8628L19.8067 14.8624C19.5038 12.0178 19.9381 9.52457 20.7508 7.71986C21.5705 5.89963 22.7425 4.84047 23.8809 4.72493C25.0209 4.60921 26.3928 5.40418 27.5792 7.01262C28.7555 8.60761 29.7065 10.9522 30.0094 13.7966C30.3123 16.6411 29.878 19.1344 29.0653 20.9391C28.2456 22.7593 27.0736 23.8185 25.9352 23.934C24.7932 24.05 23.4213 23.2738 22.2365 21.678C21.0608 20.0945 20.1097 17.7505 19.8068 14.8628Z" fill="white" stroke="white" stroke-width="0.5"/>
<path d="M63.3578 46.2862C65.6564 46.7824 67.974 45.851 69.8883 43.9947C71.8032 42.1377 73.3367 39.3382 74.0911 36.029C74.846 32.7175 74.6274 29.5454 73.6411 27.071C72.6548 24.5968 70.8897 22.7998 68.5497 22.3044C66.2513 21.8085 63.9338 22.7399 62.0197 24.5961C60.1048 26.453 58.5713 29.2525 57.8169 32.5617C57.0617 35.8746 57.3029 39.0468 58.3002 41.5206C59.2971 43.9934 61.0615 45.7905 63.3578 46.2862ZM67.7457 26.236C68.6653 26.424 69.5413 27.3901 70.0574 28.9935C70.5682 30.5809 70.7009 32.7301 70.1825 35.1465C69.6641 37.5622 68.6513 39.4787 67.5223 40.7328C66.3816 41.9999 65.1716 42.5431 64.25 42.3547C63.3304 42.1667 62.4544 41.2006 61.9383 39.5972C61.4275 38.0099 61.2948 35.8606 61.8133 33.4442C62.3316 31.0285 63.3444 29.1121 64.4734 27.8579C65.6141 26.5909 66.8241 26.0476 67.7457 26.236Z" fill="white" stroke="white" stroke-width="0.5"/>
<path d="M51.3687 4.72482L51.3695 4.72491C52.5096 4.84063 53.6811 5.88062 54.4998 7.68807C55.3121 9.48133 55.7467 11.9744 55.4436 14.8627C55.1407 17.707 54.1898 20.0514 53.0135 21.6463C51.8271 23.2548 50.4552 24.0497 49.3151 23.934C48.1751 23.8183 47.0036 22.7783 46.1849 20.9709C45.3728 19.178 44.9382 16.6857 45.2408 13.7983C45.5873 10.9538 46.56 8.60845 47.737 7.0126C48.9257 5.40094 50.2755 4.60989 51.3687 4.72482ZM48.9129 27.8736C51.4758 28.143 53.9192 26.8597 55.8077 24.5901C57.6969 22.3196 59.05 19.0438 59.4491 15.2593C59.848 11.5184 59.2292 8.04684 57.8653 5.43611C56.5014 2.82555 54.3781 1.05465 51.7715 0.785345C49.2088 0.516017 46.7654 1.79931 44.877 4.06888C42.9878 6.3393 41.6346 9.61514 41.2356 13.3997C40.8368 17.183 41.4553 20.6549 42.8196 23.2555C44.1841 25.8563 46.3078 27.6043 48.9129 27.8736Z" fill="white" stroke="white" stroke-width="0.5"/>
</svg>
