<svg width="105" height="75" viewBox="0 0 105 75" fill="none" xmlns="http://www.w3.org/2000/svg">
<path d="M101.399 59.2304C101.384 59.0463 101.323 58.8723 101.222 58.7264C101.121 58.5804 100.983 58.4677 100.823 58.3996L96.5163 56.5207L100.348 50.885C100.436 50.7554 100.496 50.6085 100.525 50.4549C100.554 50.3012 100.551 50.1446 100.516 49.9963C100.479 49.8445 100.409 49.7054 100.312 49.5897C100.214 49.474 100.092 49.3847 99.9543 49.3284L92.7463 46.1839C92.5302 46.0864 92.2834 46.0768 92.0515 46.1566C91.8196 46.2365 91.6181 46.4005 91.4842 46.6184L84.1603 58.4898C84.0799 58.6208 84.0264 58.767 84.0037 58.9185C83.981 59.0699 83.9895 59.2229 84.0288 59.3668C84.068 59.5107 84.137 59.6421 84.231 59.7518C84.3249 59.8616 84.4416 59.9472 84.5729 60.0025L88.4922 61.7124L84.8622 67.7837C84.6385 68.1473 84.5375 68.5744 84.5764 68.9921C84.6153 69.4097 84.7917 69.7918 85.0754 70.0729C85.2247 70.2288 85.4013 70.353 85.5966 70.4394C85.8623 70.5519 86.1542 70.5911 86.4459 70.5534C86.7376 70.5157 87.0199 70.4024 87.2673 70.2236L100.932 60.2263C101.087 60.1159 101.212 59.9647 101.294 59.7892C101.376 59.6136 101.413 59.4204 101.399 59.2304Z" fill="black" fill-opacity="0.1"/>
<path d="M27.9383 12.3762C27.7239 12.1875 27.4689 12.0601 27.1995 12.007C26.93 11.9539 26.6557 11.9769 26.4045 12.0738L19.6 14.6237L17.7875 4.24177C17.7457 4.00324 17.6549 3.77481 17.5218 3.57294C17.3886 3.37107 17.2163 3.20078 17.0172 3.07432C16.8128 2.94549 16.5857 2.86618 16.3532 2.84238C16.1207 2.81858 15.8889 2.85091 15.6751 2.93693L4.28686 7.20454C3.94198 7.32899 3.65757 7.58386 3.48602 7.92217C3.31447 8.26048 3.26734 8.65945 3.35333 9.04556L8.00033 30.1107C8.05199 30.3427 8.15011 30.5627 8.2879 30.7553C8.42568 30.9479 8.59984 31.1085 8.79831 31.2261C8.99678 31.3436 9.21481 31.4152 9.4373 31.436C9.65978 31.4567 9.8814 31.4261 10.0868 31.3463L16.2792 29.0258L18.7842 39.6745C18.9272 40.319 19.2748 40.9021 19.7676 41.3239C20.2603 41.7458 20.8675 41.9801 21.4852 41.9868C21.8188 41.9992 22.1485 41.947 22.4583 41.8327C22.8744 41.6716 23.2407 41.4009 23.524 41.0451C23.8074 40.6893 23.9988 40.2595 24.0811 39.7948L28.4923 13.9844C28.5448 13.6957 28.5209 13.3932 28.4233 13.1097C28.3256 12.8262 28.1579 12.5726 27.9383 12.3762Z" fill="black" fill-opacity="0.1"/>
</svg>
