<svg width="20" height="20" viewBox="0 0 20 20" fill="none" xmlns="http://www.w3.org/2000/svg">
<path d="M10 0C4.4775 0 0 3.82557 0 8.54481C0 11.5958 1.87167 14.2732 4.6875 15.7841C3.28917 21.0106 2.4675 21.3507 8.22417 16.9542C8.80083 17.0423 9.39417 17.0887 10 17.0887C15.5225 17.0887 20 13.2631 20 8.5439C20 3.82557 15.5225 0 10 0Z" fill="#3E2723"/>
<path d="M8.65478 6.60964C8.39061 5.7978 7.38061 5.79689 7.11728 6.60873C6.29728 9.38336 5.19894 11.0952 5.87394 11.4325C6.77228 11.8771 6.79144 10.877 7.00644 10.4325H8.76561C8.97978 10.8752 9.00062 11.8762 9.89812 11.4325C10.5756 11.0952 9.49062 9.437 8.65478 6.60964ZM7.30978 9.32518L7.88645 7.55149L8.46228 9.32518H7.30978Z" fill="#F7E600"/>
<path d="M4.47497 11.5276C3.47664 11.5276 4.06664 10.0212 3.89831 7.2166C3.54081 7.14932 2.43164 7.48661 2.43164 6.60476C2.43164 6.26748 2.68581 5.99292 2.99747 5.99292C5.09581 6.15657 6.51747 5.56564 6.51747 6.60476C6.51747 7.50206 5.45497 7.14114 5.05081 7.2166C4.88414 10.0121 5.47164 11.5276 4.47497 11.5276Z" fill="#F7E600"/>
<path d="M10.9639 11.4362C9.99806 11.4362 10.5856 10.0134 10.4114 6.61696C10.4114 5.78966 11.5889 5.79057 11.5889 6.61696V10.2898C12.1464 10.3707 13.3681 9.98979 13.3681 10.8625C13.3672 11.778 12.0547 11.3198 10.9639 11.4362Z" fill="#F7E600"/>
<path d="M16.294 11.2551L14.9407 9.31237L14.7407 9.52964V10.8933C14.7407 11.2388 14.4823 11.5188 14.1632 11.5188C13.1607 11.5188 13.7615 9.9442 13.5865 6.61684C13.5865 6.27228 13.8448 5.99136 14.1632 5.99136C15.034 5.99136 14.6582 7.33504 14.7398 7.96051C16.3732 6.25773 16.334 6.07682 16.6698 6.07682C17.1332 6.07682 17.4174 6.70502 17.109 7.03867L15.794 8.46325L17.214 10.5024C17.6774 11.1615 16.7515 11.917 16.294 11.2551Z" fill="#F7E600"/>
</svg>
