<svg width="22" height="23" viewBox="0 0 22 23" fill="none" xmlns="http://www.w3.org/2000/svg">
<path d="M20.3077 3.50101H15.2308V2.62576C15.2308 1.92937 14.939 1.26149 14.4197 0.769067C13.9004 0.276642 13.196 0 12.4615 0H8.76923C8.03479 0 7.33042 0.276642 6.81109 0.769067C6.29176 1.26149 6 1.92937 6 2.62576V3.50101H0.923077C0.678262 3.50101 0.443474 3.59323 0.270363 3.75737C0.0972527 3.92151 0 4.14414 0 4.37627C0 4.6084 0.0972527 4.83102 0.270363 4.99517C0.443474 5.15931 0.678262 5.25152 0.923077 5.25152H2.30769V20.1308C2.30769 20.8272 2.59945 21.4951 3.11878 21.9875C3.63811 22.48 4.34248 22.7566 5.07692 22.7566H16.1538C16.8883 22.7566 17.5927 22.48 18.112 21.9875C18.6313 21.4951 18.9231 20.8272 18.9231 20.1308V5.25152H20.3077C20.5525 5.25152 20.7873 5.15931 20.9604 4.99517C21.1335 4.83102 21.2308 4.6084 21.2308 4.37627C21.2308 4.14414 21.1335 3.92151 20.9604 3.75737C20.7873 3.59323 20.5525 3.50101 20.3077 3.50101ZM7.84615 2.62576C7.84615 2.39363 7.94341 2.17101 8.11652 2.00686C8.28963 1.84272 8.52442 1.75051 8.76923 1.75051H12.4615C12.7064 1.75051 12.9411 1.84272 13.1143 2.00686C13.2874 2.17101 13.3846 2.39363 13.3846 2.62576V3.50101H7.84615V2.62576ZM17.0769 20.1308C17.0769 20.363 16.9797 20.5856 16.8066 20.7497C16.6335 20.9139 16.3987 21.0061 16.1538 21.0061H5.07692C4.83211 21.0061 4.59732 20.9139 4.42421 20.7497C4.2511 20.5856 4.15385 20.363 4.15385 20.1308V5.25152H17.0769V20.1308Z" fill="#F00043"/>
<path d="M6.92308 18.818C7.16789 18.818 7.40268 18.7258 7.57579 18.5616C7.7489 18.3975 7.84615 18.1749 7.84615 17.9427V8.31495C7.84615 8.08282 7.7489 7.86019 7.57579 7.69605C7.40268 7.53191 7.16789 7.4397 6.92308 7.4397C6.67826 7.4397 6.44347 7.53191 6.27036 7.69605C6.09725 7.86019 6 8.08282 6 8.31495V17.9427C6 18.1749 6.09725 18.3975 6.27036 18.5616C6.44347 18.7258 6.67826 18.818 6.92308 18.818Z" fill="#F00043"/>
<path d="M14.3078 18.818C14.5527 18.818 14.7874 18.7258 14.9606 18.5616C15.1337 18.3975 15.2309 18.1749 15.2309 17.9427V8.31495C15.2309 8.08282 15.1337 7.86019 14.9606 7.69605C14.7874 7.53191 14.5527 7.4397 14.3078 7.4397C14.063 7.4397 13.8282 7.53191 13.6551 7.69605C13.482 7.86019 13.3848 8.08282 13.3848 8.31495V17.9427C13.3848 18.1749 13.482 18.3975 13.6551 18.5616C13.8282 18.7258 14.063 18.818 14.3078 18.818Z" fill="#F00043"/>
<path d="M10.6145 18.818C10.8593 18.818 11.0941 18.7258 11.2672 18.5616C11.4403 18.3975 11.5376 18.1749 11.5376 17.9427V8.31495C11.5376 8.08282 11.4403 7.86019 11.2672 7.69605C11.0941 7.53191 10.8593 7.4397 10.6145 7.4397C10.3697 7.4397 10.1349 7.53191 9.96177 7.69605C9.78866 7.86019 9.69141 8.08282 9.69141 8.31495V17.9427C9.69141 18.1749 9.78866 18.3975 9.96177 18.5616C10.1349 18.7258 10.3697 18.818 10.6145 18.818Z" fill="#F00043"/>
</svg>
