<svg width="13" height="19" viewBox="0 0 13 19" fill="none" xmlns="http://www.w3.org/2000/svg">
<path d="M11.9135 6.75795C11.8546 6.64759 11.7696 6.55612 11.6672 6.49289C11.5648 6.42966 11.4487 6.39695 11.3308 6.39809L8.14723 6.39809L8.99973 1.86025C9.01925 1.75596 9.01712 1.64829 8.99352 1.545C8.96991 1.4417 8.9254 1.34535 8.8632 1.26288C8.79913 1.1786 8.71817 1.11115 8.62645 1.06564C8.53472 1.02013 8.43462 0.997748 8.33371 1.00018L3.00559 1.00018C2.84497 0.998217 2.68911 1.05905 2.56672 1.17147C2.44433 1.28389 2.36366 1.44032 2.33957 1.61194L1.67356 6.29013L1.00754 10.9683C0.993054 11.0715 0.999491 11.1768 1.02641 11.277C1.05333 11.3772 1.10008 11.4699 1.16344 11.5486C1.22679 11.6273 1.30522 11.6902 1.39331 11.7329C1.48139 11.7757 1.57702 11.7972 1.67356 11.796H4.57073L3.96132 16.5498C3.92089 16.8361 3.97386 17.1288 4.11116 17.3776C4.24846 17.6264 4.46155 17.8159 4.71392 17.9136C4.84886 17.97 4.99218 17.9993 5.13684 18C5.33229 17.9979 5.52417 17.9432 5.69512 17.8407C5.86607 17.7383 6.01068 17.5915 6.11588 17.4134L11.8936 7.50286C11.9595 7.39249 11.9962 7.26473 11.9997 7.13342C12.0032 7.00211 11.9734 6.87226 11.9135 6.75795Z" stroke="black" stroke-opacity="0.7" stroke-width="1.5" stroke-linejoin="round"/>
</svg>
