<svg width="19" height="22" viewBox="0 0 19 22" fill="none" xmlns="http://www.w3.org/2000/svg">
<path opacity="0.7" d="M17.9355 17.7143L16.0374 14.0714V10.2143C16.0374 6.90476 13.908 4.11905 11.0609 3.35714V2.61905C11.0609 1.7381 10.3665 1 9.51013 1C8.6537 1 7.93616 1.71429 7.93616 2.61905V3.35714C5.08914 4.11905 2.95966 6.90476 2.95966 10.2143V14.0714L1.06164 17.7143C0.876467 18.0714 1.13108 18.5 1.52457 18.5H6.91771C7.0103 19.881 8.12133 21 9.51013 21C10.8989 21 11.9868 19.9048 12.0794 18.5H17.4725C17.8892 18.5 18.1206 18.0714 17.9355 17.7143ZM8.97775 2.61905C8.97775 2.30952 9.20922 2.07143 9.48698 2.07143C9.76474 2.07143 9.9962 2.30952 9.9962 2.61905V3.19048C9.55642 3.14286 9.39439 3.14286 8.95461 3.19048V2.61905H8.97775ZM9.51013 19.9286C8.72314 19.9286 8.05189 19.3095 7.95931 18.5H11.0378C10.9452 19.3095 10.2971 19.9286 9.51013 19.9286ZM2.38099 17.4286C2.47358 17.2381 4.00125 14.4286 4.00125 14.2143V10.2143C4.00125 6.90476 6.47793 4.21429 9.51013 4.21429C12.5423 4.21429 15.019 6.90476 15.019 10.2143V14.2143C15.019 14.4286 16.5235 17.2381 16.6393 17.4286H2.38099Z" fill="black" stroke="black" stroke-width="0.2" stroke-miterlimit="10"/>
</svg>
