<svg width="19" height="22" viewBox="0 0 19 22" fill="none" xmlns="http://www.w3.org/2000/svg">
<path opacity="0.7" d="M1.06614 18.2322L3.02297 14.4765V10.4998C3.02297 7.08773 5.21843 4.21569 8.15368 3.43018V2.66922C8.15368 1.76097 8.86959 1 9.75255 1C10.6355 1 11.3753 1.73642 11.3753 2.66922V3.43018C14.3105 4.21569 16.506 7.08773 16.506 10.4998V14.4765L18.4628 18.2322C18.6537 18.6004 18.3912 19.0423 17.9855 19.0423H12.4253C12.3298 20.466 11.1844 21.6197 9.75255 21.6197C8.32072 21.6197 7.19913 20.4905 7.10367 19.0423H1.54342C1.11387 19.0423 0.875229 18.6004 1.06614 18.2322ZM10.3014 2.66922C10.3014 2.3501 10.0628 2.10463 9.77641 2.10463C9.49005 2.10463 9.25141 2.3501 9.25141 2.66922V3.25835C9.70482 3.20926 9.87187 3.20926 10.3253 3.25835V2.66922H10.3014ZM9.75255 20.5151C10.5639 20.5151 11.256 19.8769 11.3514 19.0423H8.17754C8.27299 19.8769 8.94118 20.5151 9.75255 20.5151ZM17.1026 17.9376C17.0071 17.7412 15.4321 14.8447 15.4321 14.6237V10.4998C15.4321 7.08773 12.8787 4.31388 9.75255 4.31388C6.6264 4.31388 4.07297 7.08773 4.07297 10.4998V14.6237C4.07297 14.8447 2.52183 17.7412 2.40251 17.9376H17.1026Z" fill="black" stroke="black" stroke-width="0.4" stroke-miterlimit="10"/>
</svg>
