<svg width="37" height="32" viewBox="0 0 37 32" fill="none" xmlns="http://www.w3.org/2000/svg">
<path d="M17.9515 13.3014C17.5808 13.3729 17.2159 13.4718 16.8599 13.5975C16.1413 13.8628 15.5129 14.3259 15.0479 14.9325C14.5982 15.5166 14.3978 16.2531 14.4901 16.9818C14.5176 17.6176 14.3566 18.2479 14.0273 18.7944C13.6744 19.2985 13.4791 19.8949 13.4662 20.5083C13.4533 21.1218 13.6233 21.7247 13.9547 22.2411C14.5172 23.0196 15.3646 23.5468 16.3151 23.7097C16.8365 23.8203 17.3777 23.8003 17.8901 23.6516C18.3118 23.5307 18.7078 23.334 19.0584 23.0711C19.3121 22.8822 19.5942 22.7344 19.8942 22.6335C20.2041 22.569 20.5222 22.5539 20.8366 22.5887C21.272 22.6385 21.7131 22.6081 22.138 22.4993C22.6314 22.3676 23.0921 22.1349 23.4905 21.8161C23.5399 21.8028 23.576 21.7402 23.6254 21.7268C24.323 21.117 24.7565 20.2623 24.8346 19.3427C24.8018 18.7208 24.6021 18.1196 24.2564 17.6015C23.9107 17.0833 23.4316 16.6671 22.8688 16.3962C22.2819 16.1271 21.8143 15.6542 21.5535 15.0659C21.2431 14.4054 20.7051 13.8781 20.0366 13.5793C19.3733 13.3196 18.656 13.2246 17.9466 13.3027" fill="white"/>
<path d="M12.5916 18.2842C13.4871 17.6525 13.4311 16.0405 12.4664 14.6837C11.5017 13.3269 9.99365 12.7391 9.0981 13.3708C8.20255 14.0025 8.25861 15.6146 9.22331 16.9714C10.188 18.3282 11.696 18.9159 12.5916 18.2842Z" fill="white"/>
<path d="M14.7535 13.471C15.9101 12.9628 16.2248 11.1398 15.4565 9.39901C14.6882 7.65826 13.1277 6.65902 11.9712 7.16714C10.8146 7.67527 10.4998 9.49835 11.2681 11.2391C12.0364 12.9798 13.5969 13.9791 14.7535 13.471Z" fill="white"/>
<path d="M26.158 12.3728C26.3049 10.7145 25.5387 9.29513 24.4466 9.20253C23.3546 9.10993 22.3503 10.3792 22.2034 12.0375C22.0566 13.6958 22.8228 15.1152 23.9148 15.2078C25.0068 15.3004 26.0111 14.0311 26.158 12.3728Z" fill="white"/>
<path d="M21.5015 8.46112C21.2849 6.57072 20.0921 5.15658 18.8372 5.30255C17.5824 5.44851 16.7408 7.09931 16.9574 8.9897C17.174 10.8801 18.3669 12.2942 19.6217 12.1483C20.8765 12.0023 21.7181 10.3515 21.5015 8.46112Z" fill="white"/>
<path d="M4.34041 20.3242C4.0848 20.278 3.82095 20.431 3.78497 20.7348C3.67029 22.092 3.89593 23.4286 4.53683 24.6304C5.13051 25.842 6.07275 26.8337 7.20238 27.5398C7.43026 27.6906 7.75108 27.5752 7.85377 27.3565L7.89125 27.2994C7.99394 27.0807 7.88825 26.8061 7.71734 26.6931C6.71139 26.1096 5.94006 25.231 5.43259 24.1993C4.87788 23.1773 4.63426 21.9925 4.79766 20.8723C4.78642 20.5782 4.64324 20.3607 4.34041 20.3242Z" fill="white"/>
<path d="M32.0414 11.0422C32.297 11.0884 32.5609 10.9354 32.5969 10.6316C32.7115 9.27438 32.4859 7.93776 31.845 6.73593C31.2513 5.52439 30.3091 4.5327 29.1795 3.82652C28.9516 3.6758 28.6308 3.79117 28.5281 4.00986L28.4906 4.06696C28.3879 4.28565 28.4936 4.56028 28.6645 4.67331C29.6704 5.25675 30.4418 6.1354 30.9492 7.1671C31.504 8.18908 31.7476 9.37382 31.5842 10.4941C31.5954 10.7881 31.7386 11.0057 32.0414 11.0422Z" fill="white"/>
<path d="M1.19044 19.0639C0.934826 19.0177 0.670973 19.1708 0.634995 19.4745C0.34567 21.6579 0.746714 23.8476 1.7894 25.8065C2.73764 27.7848 4.30804 29.4376 6.19625 30.4817C6.42413 30.6324 6.74495 30.5171 6.8379 30.251C6.94059 30.0323 6.8349 29.7577 6.60702 29.607C4.88971 28.6759 3.49997 27.1835 2.63793 25.385C1.68145 23.606 1.31938 21.6059 1.60046 19.6217C1.59896 19.3751 1.44604 19.1102 1.19044 19.0639Z" fill="white"/>
<path d="M35.1924 12.3024C35.448 12.3487 35.7118 12.1956 35.7478 11.8919C36.0371 9.70844 35.6361 7.5188 34.5934 5.5599C33.6452 3.58158 32.0748 1.92877 30.1866 0.88464C29.9587 0.733925 29.6379 0.849291 29.5449 1.11537C29.4422 1.33406 29.5479 1.60869 29.7758 1.7594C31.4931 2.6905 32.8828 4.18288 33.7449 5.98136C34.7014 7.76041 35.0634 9.76049 34.7823 11.7446C34.7839 11.9913 34.9368 12.2562 35.1924 12.3024Z" fill="white"/>
</svg>
