<svg width="17" height="12" viewBox="0 0 17 12" fill="none" xmlns="http://www.w3.org/2000/svg">
<path d="M15.2845 0.570902L15.2838 0.570717C14.5966 0.385069 14 0.574708 13.5159 1.01932L13.5153 1.01983C12.2947 2.14445 11.0702 3.26911 9.84545 4.39407L9.84459 4.39485L9.84391 4.39549C8.67153 5.47232 7.49887 6.54943 6.3294 7.62658L3.46428 4.99495C3.01289 4.58034 2.43865 4.39194 1.79488 4.54212L1.79402 4.54232C1.16098 4.69117 0.709631 5.1337 0.556305 5.68422C0.402479 6.23654 0.563158 6.84746 1.04116 7.29123L1.04211 7.29211C1.93886 8.12034 2.83948 8.94604 3.73821 9.77002C4.18683 10.1813 4.63497 10.5922 5.08192 11.0027C5.25511 11.1618 5.47297 11.3202 5.75866 11.411L5.75862 11.4111L5.76963 11.4144C6.45223 11.6143 7.0788 11.4606 7.59218 10.9891L10.9628 7.89313C11.5156 7.38537 12.0673 6.87789 12.6185 6.3708C13.7187 5.35877 14.8171 4.34834 15.9193 3.34051C16.2599 3.03556 16.5093 2.63458 16.4997 2.10506C16.4974 1.36158 16.0121 0.768578 15.2845 0.570902Z" stroke="black"/>
</svg>
