<svg width="19" height="18" viewBox="0 0 19 18" fill="none" xmlns="http://www.w3.org/2000/svg">
<path d="M1.31931 5.7413C1.10839 5.68544 0.883483 5.71372 0.693787 5.81995C0.504091 5.92618 0.365045 6.10171 0.307065 6.30815C-0.102355 7.81237 -0.102355 9.39547 0.307065 10.8997C0.362558 11.1039 0.497329 11.2788 0.682599 11.387C0.867869 11.4952 1.08896 11.5281 1.29865 11.4787C1.40415 11.4514 1.50311 11.404 1.5898 11.3391C1.67649 11.2742 1.74921 11.1931 1.80376 11.1005C1.8583 11.0079 1.89359 10.9056 1.90759 10.7995C1.92159 10.6935 1.91403 10.5858 1.88534 10.4826C1.55096 9.25297 1.55096 7.95892 1.88534 6.72924C1.94156 6.52474 1.9138 6.30678 1.80799 6.1221C1.70218 5.93742 1.52675 5.80072 1.31931 5.7413Z" fill="black" fill-opacity="0.7"/>
<path d="M3.45972 3.68447C3.60044 3.64763 3.72872 3.57499 3.83156 3.47392C4.75727 2.57287 5.90858 1.92634 7.1699 1.59925C7.37464 1.53918 7.54767 1.40371 7.65266 1.22128C7.75765 1.03885 7.78643 0.823657 7.73296 0.620874C7.67949 0.418091 7.54793 0.243497 7.36591 0.13375C7.18388 0.0240027 6.96554 -0.0123611 6.75674 0.0322947C5.2159 0.432563 3.80957 1.2229 2.67885 2.32401C2.55066 2.44888 2.46778 2.6115 2.44292 2.78694C2.41805 2.96238 2.45257 3.14098 2.54118 3.29536C2.62979 3.44974 2.76761 3.57139 2.93351 3.64167C3.09942 3.71195 3.28426 3.72698 3.45972 3.68447Z" fill="black" fill-opacity="0.7"/>
<path d="M7.12467 15.6775C5.86593 15.3398 4.7193 14.6851 3.79873 13.7785C3.72222 13.703 3.6313 13.643 3.53113 13.602C3.43097 13.5609 3.32353 13.5396 3.21496 13.5392C3.10639 13.5388 2.9988 13.5594 2.89834 13.5998C2.79789 13.6401 2.70653 13.6995 2.62948 13.7745C2.55244 13.8495 2.49122 13.9386 2.44931 14.0367C2.40741 14.1349 2.38564 14.2402 2.38526 14.3466C2.38488 14.453 2.40588 14.5584 2.44708 14.6569C2.48827 14.7553 2.54885 14.8448 2.62535 14.9203C3.74931 16.0278 5.14951 16.8277 6.68672 17.2404C6.8982 17.2973 7.12409 17.2696 7.3147 17.1633C7.50531 17.057 7.64502 16.8808 7.70309 16.6735C7.76117 16.4663 7.73285 16.2449 7.62438 16.0581C7.5159 15.8713 7.33615 15.7344 7.12467 15.6775Z" fill="black" fill-opacity="0.7"/>
<path d="M17.8704 6.38904V6.35665C17.8081 6.15395 17.6672 5.98323 17.478 5.88106C17.2888 5.7789 17.0663 5.7534 16.8582 5.81004C16.7517 5.83722 16.6519 5.88494 16.5646 5.9504C16.4772 6.01586 16.4041 6.09775 16.3495 6.19127C16.2948 6.28479 16.2598 6.38806 16.2464 6.49502C16.233 6.60198 16.2415 6.71049 16.2715 6.81418C16.6088 8.04897 16.6088 9.34899 16.2715 10.5838C16.2427 10.6864 16.2349 10.7936 16.2484 10.8992C16.2619 11.0048 16.2965 11.1067 16.3502 11.1992C16.4039 11.2917 16.4757 11.3729 16.5614 11.4382C16.6471 11.5035 16.7452 11.5516 16.8499 11.5798C16.9546 11.608 17.064 11.6157 17.1717 11.6025C17.2795 11.5892 17.3835 11.5553 17.4779 11.5027C17.5722 11.45 17.6551 11.3797 17.7218 11.2957C17.7884 11.2117 17.8375 11.1156 17.8663 11.013C18.2829 9.49888 18.2844 7.90384 17.8704 6.38904Z" fill="black" fill-opacity="0.7"/>
<path d="M11.4503 0.0444303C11.3425 0.00792355 11.2282 -0.00632782 11.1145 0.00257269C11.0008 0.0114732 10.8903 0.0433331 10.7898 0.0961476C10.6893 0.148962 10.6011 0.221588 10.5306 0.309455C10.4601 0.397323 10.409 0.498529 10.3804 0.606707C10.3518 0.714886 10.3464 0.827694 10.3644 0.938033C10.3825 1.04837 10.4237 1.15386 10.4853 1.24784C10.547 1.34183 10.6279 1.42229 10.7228 1.48416C10.8178 1.54603 10.9248 1.58796 11.0371 1.60733C12.2965 1.94211 13.4445 2.59399 14.3672 3.4982C14.444 3.57344 14.5351 3.63312 14.6354 3.67384C14.7357 3.71456 14.8432 3.73552 14.9518 3.73552C15.0604 3.73552 15.1679 3.71456 15.2682 3.67384C15.3685 3.63312 15.4596 3.57344 15.5364 3.4982C15.6132 3.42297 15.6741 3.33364 15.7156 3.23534C15.7572 3.13704 15.7786 3.03168 15.7786 2.92527C15.7786 2.81887 15.7572 2.71351 15.7156 2.61521C15.6741 2.5169 15.6132 2.42758 15.5364 2.35234C14.4041 1.24564 12.9951 0.449787 11.4503 0.0444303Z" fill="black" fill-opacity="0.7"/>
<path d="M14.3132 13.8229C13.3853 14.7217 12.2326 15.3654 10.9707 15.6895C10.766 15.7496 10.5929 15.8851 10.4879 16.0675C10.3829 16.2499 10.3542 16.4651 10.4076 16.6679C10.4611 16.8707 10.5927 17.0453 10.7747 17.155C10.9567 17.2648 11.175 17.3011 11.3839 17.2565C12.9268 16.8598 14.336 16.0722 15.47 14.9729C15.557 14.9008 15.6278 14.812 15.6781 14.7119C15.7284 14.6118 15.7571 14.5026 15.7622 14.3911C15.7674 14.2796 15.749 14.1683 15.7083 14.0641C15.6675 13.9599 15.6051 13.8652 15.5252 13.7857C15.4453 13.7062 15.3494 13.6438 15.2437 13.6024C15.138 13.5609 15.0247 13.5413 14.9109 13.5448C14.7971 13.5483 14.6852 13.5748 14.5824 13.6227C14.4795 13.6706 14.3879 13.7387 14.3132 13.8229Z" fill="black" fill-opacity="0.7"/>
<path d="M12.4175 9.45415C12.6367 9.45415 12.8469 9.36883 13.0018 9.21696C13.1568 9.0651 13.2439 8.85912 13.2439 8.64435C13.2439 8.42958 13.1568 8.22361 13.0018 8.07174C12.8469 7.91987 12.6367 7.83456 12.4175 7.83456H9.90553V5.37278C9.90553 5.15801 9.81847 4.95204 9.66351 4.80017C9.50854 4.64831 9.29836 4.56299 9.07921 4.56299C8.86005 4.56299 8.64988 4.64831 8.49491 4.80017C8.33995 4.95204 8.25289 5.15801 8.25289 5.37278V7.83456H5.74087C5.52172 7.83456 5.31154 7.91987 5.15658 8.07174C5.00161 8.22361 4.91455 8.42958 4.91455 8.64435C4.91455 8.85912 5.00161 9.0651 5.15658 9.21696C5.31154 9.36883 5.52172 9.45415 5.74087 9.45415H8.25289V11.9159C8.25289 12.1307 8.33995 12.3367 8.49491 12.4885C8.64988 12.6404 8.86005 12.7257 9.07921 12.7257C9.29836 12.7257 9.50854 12.6404 9.66351 12.4885C9.81847 12.3367 9.90553 12.1307 9.90553 11.9159V9.45415H12.4175Z" fill="black" fill-opacity="0.7"/>
</svg>
