<svg width="21" height="15" viewBox="0 0 21 15" fill="none" xmlns="http://www.w3.org/2000/svg">
<path d="M4.70736 4.42488C4.70515 4.07388 4.59969 3.731 4.40369 3.4375C4.20769 3.14401 3.9295 2.91242 3.60261 2.77061C3.27572 2.62881 2.91406 2.58283 2.56119 2.63822C2.20831 2.6936 1.87926 2.84799 1.61364 3.0828C1.34802 3.31761 1.15716 3.62282 1.06404 3.9617C0.970923 4.30057 0.97951 4.65866 1.08877 4.99285C1.19803 5.32704 1.40331 5.62309 1.67989 5.84536C1.95647 6.06762 2.29256 6.20662 2.6477 6.24563L3.67753 11.4914V13.5954C3.67753 13.7027 3.72093 13.8056 3.79818 13.8815C3.87543 13.9574 3.98021 14 4.08946 14L16.8944 13.9858C17.0037 13.9858 17.1084 13.9432 17.1857 13.8673C17.2629 13.7915 17.3063 13.6885 17.3063 13.5812V11.4853L18.3362 6.23956C18.7745 6.19523 19.1824 5.99898 19.4868 5.68601C19.7911 5.37304 19.972 4.96382 19.997 4.53171C20.022 4.09961 19.8895 3.67288 19.6232 3.32805C19.3569 2.98322 18.9743 2.74284 18.5439 2.65001C18.1135 2.55718 17.6635 2.61797 17.2747 2.82148C16.8858 3.02499 16.5834 3.35791 16.4218 3.76055C16.2602 4.16319 16.2499 4.60921 16.3927 5.01864C16.5356 5.42807 16.8222 5.77413 17.2013 5.99477L14.0891 8.3314L11.1665 4.51389C11.5677 4.35804 11.9009 4.06963 12.1089 3.69835C12.3168 3.32707 12.3864 2.89617 12.3057 2.47991C12.2249 2.06365 11.9988 1.68809 11.6665 1.41795C11.3341 1.1478 10.9161 1 10.4847 1C10.0533 1 9.63539 1.1478 9.303 1.41795C8.97061 1.68809 8.74456 2.06365 8.66379 2.47991C8.58303 2.89617 8.65262 3.32707 8.86057 3.69835C9.06851 4.06963 9.40179 4.35804 9.80298 4.51389L6.68052 8.32937L3.77433 6.00488C4.05776 5.84558 4.29331 5.61556 4.45715 5.33811C4.62099 5.06066 4.70731 4.74562 4.70736 4.42488ZM4.5014 13.1888V11.8313H16.4825V13.1766L4.5014 13.1888ZM18.1343 3.41133C18.338 3.41133 18.5371 3.47065 18.7065 3.5818C18.8758 3.69295 19.0078 3.85093 19.0858 4.03576C19.1637 4.22059 19.1841 4.42398 19.1444 4.62019C19.1046 4.81641 19.0066 4.99665 18.8625 5.13811C18.7185 5.27958 18.535 5.37592 18.3352 5.41495C18.1355 5.45398 17.9284 5.43394 17.7402 5.35738C17.552 5.28082 17.3912 5.15117 17.278 4.98483C17.1649 4.81848 17.1045 4.62292 17.1045 4.42285C17.1045 4.29002 17.1311 4.15848 17.1829 4.03576C17.2346 3.91303 17.3105 3.80152 17.4061 3.7076C17.5018 3.61367 17.6153 3.53916 17.7402 3.48832C17.8652 3.43749 17.9991 3.41133 18.1343 3.41133ZM9.46313 2.81655C9.46313 2.61649 9.52353 2.42092 9.63669 2.25457C9.74985 2.08823 9.91069 1.95858 10.0989 1.88202C10.287 1.80546 10.4941 1.78543 10.6939 1.82446C10.8936 1.86349 11.0771 1.95982 11.2212 2.10129C11.3652 2.24275 11.4633 2.42299 11.503 2.61921C11.5427 2.81543 11.5224 3.01881 11.4444 3.20364C11.3665 3.38847 11.2345 3.54645 11.0651 3.6576C10.8958 3.76875 10.6966 3.82808 10.493 3.82808C10.2198 3.82808 9.95789 3.7215 9.76476 3.53181C9.57163 3.34211 9.46313 3.08482 9.46313 2.81655ZM6.78557 9.30449C6.83968 9.29881 6.89212 9.28266 6.93985 9.25697C6.98757 9.23127 7.02964 9.19654 7.06362 9.15478L10.4827 4.96706L13.6813 9.14467C13.7141 9.18744 13.7552 9.2234 13.8023 9.25045C13.8493 9.27751 13.9014 9.29512 13.9554 9.30227C14.0094 9.30942 14.0644 9.30597 14.117 9.29211C14.1697 9.27825 14.219 9.25427 14.2622 9.22154L17.364 6.88896L16.5587 11.0221H4.42725L3.63222 6.93347L6.48279 9.21547C6.52481 9.24916 6.57319 9.27436 6.62514 9.28963C6.6771 9.30491 6.73162 9.30996 6.78557 9.30449ZM2.8516 5.44045C2.64792 5.44045 2.44881 5.38113 2.27946 5.26998C2.1101 5.15883 1.97811 5.00085 1.90016 4.81602C1.82222 4.63119 1.80182 4.4278 1.84156 4.23158C1.8813 4.03537 1.97938 3.85513 2.1234 3.71366C2.26743 3.5722 2.45093 3.47586 2.65069 3.43683C2.85046 3.3978 3.05753 3.41783 3.2457 3.49439C3.43388 3.57095 3.59472 3.7006 3.70788 3.86695C3.82104 4.03329 3.88144 4.22886 3.88144 4.42892C3.88144 4.6972 3.77294 4.95448 3.57981 5.14418C3.38667 5.33388 3.12473 5.44045 2.8516 5.44045Z" fill="#882BFF" stroke="#882BFF" stroke-width="0.5"/>
</svg>
