<svg width="16" height="22" viewBox="0 0 16 22" fill="none" xmlns="http://www.w3.org/2000/svg">
<path d="M11.1544 8.33003C10.9465 7.12623 9.9616 6.14131 8.75781 5.93338C7.87138 5.76923 6.98495 6.00999 6.31739 6.57905C5.63888 7.14812 5.25586 7.97983 5.25586 8.85532C5.25586 9.27117 5.59511 9.59948 6.00002 9.59948C6.41588 9.59948 6.74419 9.27117 6.74419 8.85532C6.74419 8.41757 6.94117 8.00172 7.26948 7.71719C7.60873 7.43265 8.04647 7.32322 8.49516 7.39982C9.07517 7.49831 9.57857 8.00172 9.67707 8.58173C9.83028 9.42438 9.2831 10.0701 8.6812 10.267C7.95892 10.4969 7.47741 11.1754 7.47741 11.9633V12.9154C7.47741 13.3312 7.81666 13.6595 8.22157 13.6595C8.63743 13.6595 8.96573 13.3312 8.96573 12.9154V11.9633C8.96573 11.832 9.04234 11.7225 9.14083 11.6897C10.5744 11.2301 11.4171 9.81835 11.1544 8.33003Z" fill="#454545"/>
<path d="M8.23216 14.3926C7.70687 14.3926 7.29102 14.8194 7.29102 15.3337C7.29102 15.859 7.71782 16.2749 8.23216 16.2749C8.75746 16.2749 9.17331 15.8481 9.17331 15.3337C9.18426 14.8194 8.75746 14.3926 8.23216 14.3926Z" fill="#454545"/>
<path d="M15.4897 4.10345C15.4897 3.98725 15.4324 3.88449 15.3442 3.82207L12.6231 1.10138C12.6228 1.10069 12.6221 1.10035 12.6214 1.1C12.5928 1.07138 12.559 1.05034 12.5238 1.03414C12.5138 1.02931 12.5031 1.0269 12.4928 1.0231C12.4621 1.01241 12.4307 1.00586 12.3983 1.00379C12.3917 1.00345 12.3862 1 12.3793 1H1.34483C1.15414 1 1 1.15414 1 1.34483V20.6552C1 20.8459 1.15414 21 1.34483 21H15.138C15.3283 21 15.4828 20.8459 15.4828 20.6552V4.13794C15.4838 4.12552 15.4897 4.11552 15.4897 4.10345ZM12.7242 2.17724L14.3055 3.75863H12.7242V2.17724ZM1.68966 20.3104V1.68966H12.0345V4.10345C12.0345 4.29414 12.1886 4.44828 12.3793 4.44828H14.7931V20.3104H1.68966Z" fill="#454545" stroke="#454545" stroke-width="0.7"/>
</svg>
