<svg width="21" height="20" viewBox="0 0 21 20" fill="none" xmlns="http://www.w3.org/2000/svg">
<path d="M4.02084 15.5C4.50154 15.5 4.96256 15.309 5.30247 14.9691C5.64237 14.6292 5.83333 14.1682 5.83333 13.6875V8.85417C5.83343 8.37968 5.64745 7.92407 5.31534 7.58519C4.98324 7.2463 4.53148 7.05116 4.05709 7.04167C4.20565 5.71289 4.83858 4.48543 5.83495 3.59383C6.83133 2.70222 8.12128 2.20897 9.45833 2.20834H11.875C13.2121 2.20897 14.502 2.70222 15.4984 3.59383C16.4947 4.48543 17.1277 5.71289 17.2762 7.04167C16.8018 7.05116 16.3501 7.2463 16.018 7.58519C15.6859 7.92407 15.4999 8.37968 15.5 8.85417V13.6875C15.4992 14.1499 15.6751 14.5952 15.9919 14.9322C16.3086 15.2691 16.7421 15.4723 17.2037 15.5C17.0791 15.8526 16.8485 16.1579 16.5434 16.3743C16.2384 16.5906 15.8739 16.7073 15.5 16.7083H12.9746C12.8321 16.3052 12.5516 15.9655 12.1828 15.7491C11.814 15.5328 11.3806 15.4538 10.9592 15.5261C10.5378 15.5984 10.1556 15.8174 9.87998 16.1442C9.60439 16.4711 9.45324 16.8849 9.45324 17.3125C9.45324 17.7401 9.60439 18.1539 9.87998 18.4807C10.1556 18.8076 10.5378 19.0266 10.9592 19.0989C11.3806 19.1712 11.814 19.0922 12.1828 18.8759C12.5516 18.6595 12.8321 18.3198 12.9746 17.9167H15.5C16.235 17.9133 16.9436 17.6421 17.493 17.1539C18.0424 16.6657 18.3949 15.9939 18.4846 15.2644C19.0327 15.0336 19.5005 14.6463 19.8293 14.1508C20.1582 13.6553 20.3335 13.0738 20.3333 12.4792V10.0625C20.3342 9.47395 20.1631 8.89797 19.8411 8.40531C19.5191 7.91266 19.0602 7.5248 18.5208 7.28938C18.4295 5.5893 17.6892 3.9891 16.4526 2.81885C15.2161 1.6486 13.5775 0.997556 11.875 1.00001H9.45833C7.7558 0.997556 6.11726 1.6486 4.88069 2.81885C3.64411 3.9891 2.90382 5.5893 2.8125 7.28938C2.27309 7.5248 1.81419 7.91266 1.4922 8.40531C1.1702 8.89797 0.99913 9.47395 1 10.0625V12.4792C1 13.2803 1.31827 14.0487 1.88478 14.6152C2.4513 15.1817 3.21966 15.5 4.02084 15.5ZM11.2708 17.9167C11.1513 17.9167 11.0345 17.8812 10.9352 17.8148C10.8358 17.7485 10.7584 17.6541 10.7127 17.5437C10.6669 17.4333 10.655 17.3118 10.6783 17.1946C10.7016 17.0774 10.7591 16.9698 10.8436 16.8853C10.9281 16.8008 11.0358 16.7433 11.153 16.7199C11.2702 16.6966 11.3916 16.7086 11.502 16.7543C11.6124 16.8 11.7068 16.8775 11.7732 16.9768C11.8396 17.0762 11.875 17.193 11.875 17.3125C11.875 17.4727 11.8113 17.6264 11.698 17.7397C11.5847 17.853 11.4311 17.9167 11.2708 17.9167ZM19.125 10.0625V12.4792C19.125 12.9599 18.934 13.4209 18.5941 13.7608C18.2542 14.1007 17.7932 14.2917 17.3125 14.2917C17.1523 14.2917 16.9986 14.228 16.8853 14.1147C16.772 14.0014 16.7083 13.8477 16.7083 13.6875V8.85417C16.7083 8.69393 16.772 8.54026 16.8853 8.42696C16.9986 8.31366 17.1523 8.25 17.3125 8.25C17.7932 8.25 18.2542 8.44096 18.5941 8.78087C18.934 9.12078 19.125 9.5818 19.125 10.0625ZM2.20834 10.0625C2.20834 9.5818 2.39929 9.12078 2.7392 8.78087C3.07911 8.44096 3.54013 8.25 4.02084 8.25C4.18107 8.25 4.33474 8.31366 4.44805 8.42696C4.56135 8.54026 4.625 8.69393 4.625 8.85417V13.6875C4.625 13.8477 4.56135 14.0014 4.44805 14.1147C4.33474 14.228 4.18107 14.2917 4.02084 14.2917C3.54013 14.2917 3.07911 14.1007 2.7392 13.7608C2.39929 13.4209 2.20834 12.9599 2.20834 12.4792V10.0625Z" fill="#454545" stroke="#454545" stroke-width="0.32"/>
</svg>
