<svg width="22" height="22" viewBox="0 0 22 22" fill="none" xmlns="http://www.w3.org/2000/svg">
<path d="M10.2495 14.8545L10.2828 14.8878L11.3169 15.922L11.318 15.9232L11.318 15.9232C11.423 16.0328 11.5496 16.1193 11.6898 16.1774C11.83 16.2355 11.9808 16.2637 12.1325 16.2604L12.1342 16.2604L13.3577 16.2604H13.4327V16.3354V17.3696C13.4327 17.722 13.5727 18.06 13.8219 18.3092C14.0711 18.5584 14.4091 18.6984 14.7615 18.6984H15.7955H15.8705V18.7734V19.9946C15.8715 20.297 15.9905 20.5871 16.2021 20.803C16.2022 20.8031 16.2023 20.8032 16.2024 20.8033L17.0134 21.6145C17.2146 21.814 17.4866 21.9256 17.77 21.925H17.7701L20.9938 21.925L20.994 21.925M10.2495 14.8545L22 20.9939C21.9994 21.2605 21.8932 21.5161 21.7047 21.7046C21.5161 21.8932 21.2606 21.9994 20.994 22V21.925M10.2495 14.8545L10.2049 14.8701C8.57748 15.4412 6.80432 15.4424 5.17604 14.8737C3.54776 14.3049 2.16094 13.1999 1.24284 11.7396C0.324743 10.2794 -0.0701776 8.55061 0.122798 6.83652C0.315774 5.12243 1.0852 3.52473 2.30499 2.30524L2.305 2.30522C3.52436 1.0853 5.12189 0.315799 6.83579 0.122803C8.5497 -0.0701926 10.2783 0.324768 11.7384 1.24296C13.1985 2.16116 14.3034 3.54813 14.8721 5.17658C15.4408 6.80504 15.4395 8.5784 14.8685 10.206L14.8529 10.2505L14.8862 10.2839L21.6101 17.0084L21.6102 17.0086C21.7103 17.1083 21.7897 17.2269 21.8438 17.3575C21.8978 17.4881 21.9254 17.6281 21.925 17.7694V17.7697L21.925 20.9937L21.925 20.9939M10.2495 14.8545L21.925 20.9939M20.994 21.925C21.2407 21.9244 21.4772 21.8261 21.6516 21.6516C21.8261 21.4771 21.9244 21.2406 21.925 20.9939M20.994 21.925L21.925 20.9939M3.19319 3.18893L3.18461 3.19753L3.18227 3.20221C2.14416 4.24385 1.49918 5.61336 1.35745 7.07745C1.21532 8.54559 1.58807 10.0175 2.41184 11.241C3.23562 12.4644 4.45915 13.3634 5.87284 13.7838C7.28653 14.2041 8.80239 14.1198 10.1607 13.5452L10.1608 13.5452C10.2757 13.4966 10.4024 13.4833 10.5249 13.5071C10.6474 13.5309 10.76 13.5908 10.8482 13.679L12.1537 14.9845L12.1756 15.0065H12.2067H13.8584C14.078 15.0065 14.2886 15.0938 14.4439 15.2491C14.5992 15.4044 14.6865 15.615 14.6865 15.8347V17.3532V17.4282H14.7615H16.2845C16.5041 17.4282 16.7147 17.5154 16.87 17.6707C17.0253 17.8261 17.1126 18.0367 17.1126 18.2563V19.9106V19.9416L17.1345 19.9636L17.82 20.6492L17.842 20.6711H17.8731H20.5939H20.6689V20.5961V17.875V17.8439L20.647 17.8219L13.6775 10.8494C13.5893 10.7611 13.5295 10.6485 13.5057 10.526C13.4819 10.4036 13.4951 10.2768 13.5438 10.1619C14.1195 8.80322 14.2047 7.28661 13.7848 5.87203C13.3649 4.45744 12.466 3.233 11.2423 2.40861C10.0186 1.58422 8.54625 1.21124 7.07768 1.35361C5.60911 1.49598 4.2358 2.14483 3.19319 3.18893ZM6.25972 4.96381V4.95921L5.01495 6.20644H4.93995C4.93995 6.20649 4.93995 6.20654 4.93995 6.20659C4.93998 6.45275 5.01298 6.69338 5.14973 6.89806C5.28651 7.10278 5.48091 7.26234 5.70837 7.35657C5.93582 7.45079 6.1861 7.47545 6.42757 7.42741C6.66903 7.37938 6.89082 7.26081 7.06491 7.08671C7.23899 6.91261 7.35754 6.69079 7.40557 6.4493C7.4536 6.20782 7.42895 5.95751 7.33474 5.73004C7.24053 5.50257 7.08098 5.30814 6.87628 5.17135C6.69242 5.04849 6.47955 4.97707 6.25972 4.96381ZM7.5728 8.26537C7.16193 8.53994 6.67887 8.68649 6.18472 8.68649C5.52208 8.68649 4.88658 8.42322 4.41802 7.95462C3.94946 7.48601 3.68623 6.85044 3.68623 6.18772C3.68623 5.69351 3.83276 5.2104 4.1073 4.79948C4.38184 4.38856 4.77205 4.06828 5.22859 3.87916C5.68513 3.69004 6.18749 3.64055 6.67215 3.73697C7.15681 3.83338 7.602 4.07136 7.95142 4.42082C8.30084 4.77028 8.5388 5.21552 8.6352 5.70023C8.73161 6.18495 8.68213 6.68737 8.49302 7.14396C8.30392 7.60055 7.98368 7.9908 7.5728 8.26537Z" fill="white" stroke="white" stroke-width="0.15"/>
</svg>
