<svg width="19" height="19" viewBox="0 0 19 19" fill="none" xmlns="http://www.w3.org/2000/svg">
<path d="M8.90483 12.5452L9.70389 13.3444C9.79057 13.4348 9.89511 13.5063 10.0109 13.5543C10.1267 13.6022 10.2511 13.6255 10.3764 13.6228H11.3219V14.4219C11.3219 14.7096 11.4362 14.9856 11.6396 15.189C11.843 15.3925 12.1189 15.5067 12.4066 15.5067H13.2056V16.4505C13.2064 16.6994 13.3044 16.9382 13.4786 17.1159L14.1059 17.7433C14.2723 17.9082 14.4972 18.0005 14.7314 18H17.2226C17.4287 17.9995 17.6261 17.9175 17.7718 17.7718C17.9175 17.6261 17.9995 17.4286 18 17.2226V14.7311C18.0003 14.6142 17.9775 14.4984 17.9328 14.3904C17.8881 14.2824 17.8225 14.1844 17.7397 14.1019L12.544 8.90567C12.9896 7.63555 12.9905 6.25173 12.5468 4.98098C12.103 3.71023 11.2408 2.62792 10.1014 1.91141C8.96207 1.1949 7.61315 0.8867 6.27572 1.0373C4.93829 1.18791 3.69167 1.78838 2.74015 2.74034C1.7883 3.69195 1.18789 4.9387 1.0373 6.27628C0.886712 7.61386 1.19488 8.96292 1.91131 10.1024C2.62774 11.2419 3.70994 12.1042 4.98056 12.548C6.25117 12.9918 7.63485 12.9908 8.90483 12.5452ZM3.50848 3.50513C4.30463 2.70784 5.3533 2.21237 6.47471 2.10365C7.59612 1.99494 8.72042 2.27975 9.65486 2.90926C10.5893 3.53877 11.2757 4.47377 11.5963 5.55397C11.917 6.63416 11.8519 7.79227 11.4123 8.82974C11.3702 8.92914 11.3587 9.03885 11.3793 9.14482C11.3999 9.25079 11.4517 9.3482 11.528 9.42457L16.9135 14.8125V16.9152H14.811L14.2813 16.3854V15.1072C14.2813 14.9221 14.2078 14.7446 14.0769 14.6137C13.946 14.4828 13.7686 14.4093 13.5835 14.4093H12.4066V13.2359C12.4066 13.0508 12.3331 12.8733 12.2022 12.7424C12.0713 12.6115 11.8938 12.538 11.7088 12.538H10.4324L9.42368 11.5291C9.34731 11.4528 9.24991 11.401 9.14395 11.3804C9.038 11.3598 8.9283 11.3713 8.8289 11.4134C7.79165 11.8522 6.63413 11.9165 5.55462 11.5955C4.47511 11.2745 3.54081 10.5881 2.91177 9.65382C2.28273 8.71956 1.99809 7.59561 2.10662 6.47452C2.21515 5.35343 2.7101 4.30497 3.50667 3.50874L3.50848 3.50513ZM5.7791 7.77024C6.17241 7.77024 6.55689 7.6536 6.88391 7.43506C7.21094 7.21653 7.46582 6.90592 7.61634 6.54251C7.76685 6.1791 7.80623 5.77921 7.7295 5.39342C7.65277 5.00763 7.46337 4.65325 7.18526 4.37511C6.90715 4.09697 6.55281 3.90755 6.16706 3.83082C5.78131 3.75408 5.38147 3.79346 5.0181 3.94399C4.65473 4.09452 4.34415 4.34943 4.12564 4.67649C3.90713 5.00355 3.7905 5.38807 3.7905 5.78142C3.7905 6.30889 4.00001 6.81475 4.37295 7.18773C4.74588 7.5607 5.25169 7.77024 5.7791 7.77024ZM5.7791 4.89188C5.95788 4.89188 6.13264 4.94489 6.28129 5.04423C6.42994 5.14356 6.54579 5.28475 6.61421 5.44993C6.68262 5.61512 6.70052 5.79689 6.66565 5.97225C6.63077 6.14761 6.54468 6.30869 6.41826 6.43511C6.29185 6.56154 6.13079 6.64764 5.95545 6.68252C5.78011 6.7174 5.59836 6.6995 5.43319 6.63108C5.26802 6.56266 5.12685 6.44679 5.02753 6.29812C4.9282 6.14946 4.87519 5.97468 4.87519 5.79588C4.87495 5.67702 4.89816 5.55927 4.94348 5.44938C4.9888 5.33949 5.05534 5.23962 5.1393 5.15548C5.22326 5.07135 5.32299 5.0046 5.43277 4.95905C5.54256 4.91351 5.66025 4.89007 5.7791 4.89007V4.89188Z" fill="#7B13FF" fill-opacity="0.9"/>
<path d="M11.2719 13.6728H10.3769C10.2449 13.6756 10.1138 13.651 9.99176 13.6005C9.86976 13.5499 9.75957 13.4747 9.66818 13.3794C9.66804 13.3792 9.66791 13.3791 9.66778 13.3789L8.89165 12.6027C7.61913 13.0418 6.23547 13.0393 4.96407 12.5952C3.68275 12.1476 2.59145 11.2781 1.86899 10.129C1.14652 8.97994 0.835758 7.61952 0.987613 6.27069C1.13947 4.92185 1.74494 3.66461 2.7048 2.70498M11.2719 13.6728L18 14.7311M11.2719 13.6728V14.4219C11.2719 14.7229 11.3914 15.0115 11.6042 15.2244C11.817 15.4372 12.1056 15.5567 12.4066 15.5567H13.1556V16.4505V16.4507C13.1565 16.7126 13.2596 16.9639 13.4429 17.1509L13.4433 17.1512L14.0706 17.7786L14.0707 17.7788C14.2465 17.953 14.4841 18.0505 14.7316 18.05M11.2719 13.6728L14.1059 17.7433M2.7048 2.70498L2.74015 2.74034L2.7048 2.70498ZM2.7048 2.70498C3.66433 1.74501 4.92143 1.13949 6.27012 0.987617C7.61882 0.835746 8.9791 1.14655 10.128 1.86909C11.277 2.59162 12.1465 3.68305 12.594 4.9645C13.038 6.23603 13.0405 7.61984 12.6015 8.89249L17.7749 14.0665C17.8625 14.1536 17.9318 14.2572 17.979 14.3713C18.0262 14.4854 18.0504 14.6078 18.05 14.7313M18.05 14.7313L18 14.7311M18.05 14.7313V14.7311H18M18.05 14.7313V17.2226V17.2227C18.0495 17.4419 17.9622 17.6521 17.8071 17.8071C17.6521 17.9622 17.442 18.0495 17.2227 18.05H17.2226H14.7316M18 14.7311V17.2226C17.9995 17.4286 17.9175 17.6261 17.7718 17.7718C17.6261 17.9175 17.4287 17.9995 17.2226 18H14.7314M14.7316 18.05L14.7314 18M14.7316 18.05H14.7314V18M14.7314 18C14.4972 18.0005 14.2723 17.9082 14.1059 17.7433M14.1059 17.7433L13.4786 17.1159L14.1059 17.7433ZM3.50848 3.50513C4.30463 2.70784 5.3533 2.21237 6.47471 2.10365C7.59612 1.99494 8.72042 2.27975 9.65486 2.90926C10.5893 3.53877 11.2757 4.47377 11.5963 5.55397C11.917 6.63416 11.8519 7.79227 11.4123 8.82974C11.3702 8.92914 11.3587 9.03885 11.3793 9.14482C11.3999 9.25079 11.4517 9.3482 11.528 9.42457L3.50848 3.50513ZM3.50848 3.50513L3.51754 3.51418L3.54386 3.54046C3.54576 3.53855 3.54766 3.53665 3.54957 3.53475L3.55139 3.5311L3.5532 3.52749L3.50848 3.50513ZM8.80942 11.3673C8.80942 11.3673 8.80941 11.3673 8.8094 11.3674L8.8289 11.4134L8.80942 11.3673ZM10.4678 12.5026L10.4532 12.488H10.4324V12.538L10.4678 12.5026ZM12.4566 14.3593H12.4066V14.4093H12.4566V14.3593ZM14.3313 16.3854V16.3647L14.3167 16.3501L14.2813 16.3854H14.3313ZM14.8464 16.8798L14.8317 16.8652H14.811V16.9152L14.8464 16.8798ZM16.8635 16.8652V16.9152H16.9135V16.8652H16.8635ZM16.8635 14.8125V14.8332L16.8781 14.8478L16.9135 14.8125H16.8635ZM5.7291 4.94153V4.94188H5.7791C5.94799 4.94188 6.11308 4.99196 6.25351 5.0858C6.39393 5.17964 6.50338 5.31302 6.56801 5.46907C6.63265 5.62512 6.64956 5.79683 6.61661 5.96249C6.58366 6.12816 6.50233 6.28033 6.38291 6.39976C6.26349 6.5192 6.11133 6.60053 5.94569 6.63348C5.78005 6.66644 5.60836 6.64952 5.45233 6.58489C5.29629 6.52025 5.16293 6.41079 5.0691 6.27035C4.97527 6.12991 4.92519 5.96479 4.92519 5.79588L4.92519 5.79578C4.92497 5.68349 4.94689 5.57225 4.9897 5.46844C5.03251 5.36463 5.09538 5.27029 5.17469 5.1908C5.25401 5.11132 5.34822 5.04826 5.45193 5.00524C5.54022 4.96861 5.63392 4.94712 5.7291 4.94153ZM5.7791 7.82024C6.1823 7.82024 6.57645 7.70066 6.91169 7.47663C7.24694 7.25261 7.50823 6.93419 7.66253 6.56164C7.81683 6.1891 7.8572 5.77916 7.77854 5.38367C7.69988 4.98818 7.50572 4.62489 7.22062 4.33976C6.93551 4.05462 6.57227 3.86045 6.17682 3.78178C5.78136 3.70311 5.37147 3.74348 4.99896 3.8978C4.62645 4.05211 4.30807 4.31343 4.08406 4.64872C3.86006 4.984 3.7405 5.37818 3.7405 5.78142C3.7405 6.32215 3.95528 6.84073 4.33759 7.22308C4.7199 7.60543 5.23843 7.82024 5.7791 7.82024Z" stroke="black" stroke-opacity="0.7" stroke-width="0.1"/>
</svg>
