<svg width="23" height="23" viewBox="0 0 23 23" fill="none" xmlns="http://www.w3.org/2000/svg">
<path d="M13.6756 16.6679H12.5834C12.4186 16.6713 12.2548 16.6406 12.1024 16.5775C11.95 16.5144 11.8124 16.4204 11.6983 16.3014L10.745 15.348C9.1724 15.8886 7.46319 15.8846 5.89243 15.336C4.30679 14.7821 2.9563 13.706 2.06225 12.2841C1.1682 10.8621 0.783625 9.17855 0.971546 7.50937C1.15947 5.84018 1.90874 4.28433 3.09657 3.09679C4.28399 1.90884 5.83966 1.15949 7.50867 0.971551C9.17769 0.78361 10.861 1.16823 12.2829 2.06237C13.7047 2.95652 14.7807 4.30716 15.3345 5.89295C15.8831 7.46388 15.887 9.17328 15.3465 10.746L21.7313 17.1316C21.8407 17.2404 21.9273 17.3699 21.9863 17.5125C22.0453 17.655 22.0754 17.8077 22.075 17.962C22.075 17.962 22.075 17.9621 22.075 17.9622M13.6756 16.6679L22 17.962L22.075 17.9622M13.6756 16.6679V17.58C13.6756 17.9553 13.8246 18.3153 14.09 18.5806C14.3553 18.846 14.7152 18.9951 15.0905 18.9951H16.0026L16.0026 20.0859L16.0026 20.0862C16.0036 20.4132 16.1323 20.7269 16.3612 20.9604L16.3617 20.9609L17.1367 21.7359L17.1369 21.7361C17.3565 21.9538 17.6533 22.0757 17.9625 22.075M13.6756 16.6679L17.9625 22.075M22.075 17.9622L22.075 21.0396V21.0398C22.0744 21.3141 21.9651 21.5771 21.7711 21.7711C21.5771 21.9651 21.3142 22.0744 21.0399 22.075L21.0397 22.075H17.9625M22.075 17.9622L17.9625 22.075M17.9625 22.075L17.9624 22V22.075H17.9625ZM13.7932 10.6428L13.7932 10.6428C13.7354 10.7793 13.7196 10.93 13.7479 11.0756C13.7762 11.2211 13.8473 11.3549 13.9521 11.4598L13.9521 11.4598L20.5828 18.0935V20.5849H18.0917L17.4813 19.9745V18.4265C17.4813 18.178 17.3826 17.9396 17.2069 17.7639C17.0311 17.5881 16.7928 17.4894 16.5443 17.4894H15.1655V16.1149C15.1655 15.8664 15.0668 15.628 14.891 15.4523C14.7153 15.2765 14.477 15.1778 14.2285 15.1778H12.6829L11.4588 13.9535L11.4587 13.9535C11.3538 13.8487 11.22 13.7776 11.0745 13.7493C10.929 13.721 10.7783 13.7367 10.6418 13.7945C9.3765 14.3297 7.9645 14.4083 6.64767 14.0167C5.33085 13.6251 4.19115 12.7878 3.42381 11.6481C2.65647 10.5085 2.30926 9.13743 2.44165 7.76987C2.57404 6.40231 3.1778 5.12335 4.14949 4.15208L4.15811 4.14347L4.16034 4.139C5.13047 3.17145 6.40619 2.57021 7.77011 2.43799C9.13806 2.30537 10.5095 2.6528 11.6494 3.4207C12.7893 4.18861 13.6265 5.32916 14.0177 6.64683C14.4088 7.9645 14.3294 9.37721 13.7932 10.6428ZM6.50452 5.95987C6.60999 5.91612 6.72179 5.89006 6.83542 5.88261H6.9036C7.1096 5.88261 7.31099 5.94371 7.48228 6.05817C7.65356 6.17263 7.78707 6.33533 7.86591 6.52568C7.94474 6.71603 7.96537 6.92548 7.92518 7.12756C7.88499 7.32963 7.78579 7.51525 7.64012 7.66093C7.49444 7.80662 7.30885 7.90583 7.1068 7.94603C6.90475 7.98622 6.69532 7.96559 6.505 7.88675C6.31467 7.8079 6.152 7.67439 6.03754 7.50308C5.92309 7.33177 5.862 7.13036 5.862 6.92433L5.862 6.92418C5.86173 6.7872 5.88847 6.65152 5.94069 6.52489C5.99291 6.39826 6.06959 6.28318 6.16634 6.18622C6.26309 6.08927 6.37801 6.01235 6.50452 5.95987ZM6.9036 9.43824C7.40429 9.43824 7.89373 9.28975 8.31003 9.01155C8.72634 8.73336 9.05081 8.33795 9.24241 7.87533C9.43402 7.4127 9.48415 6.90365 9.38647 6.41254C9.28879 5.92142 9.04769 5.4703 8.69365 5.11623C8.33961 4.76215 7.88854 4.52102 7.39747 4.42333C6.90641 4.32564 6.3974 4.37578 5.93483 4.5674C5.47225 4.75903 5.07688 5.08353 4.79872 5.49988C4.52055 5.91623 4.37208 6.40572 4.37208 6.90646C4.37208 7.57793 4.63879 8.22189 5.11354 8.69669C5.58829 9.17149 6.2322 9.43824 6.9036 9.43824Z" fill="white" stroke="white" stroke-width="0.15"/>
</svg>
