<svg width="16" height="20" viewBox="0 0 16 20" fill="none" xmlns="http://www.w3.org/2000/svg">
<path d="M7.58359 19.8427C7.81771 20.0508 8.17815 20.0541 8.41613 19.8427C8.72544 19.5677 16 13.0513 16 7.89468C15.9997 3.54133 12.4108 0 7.99986 0C3.58891 0 0 3.54133 0 7.89441C0 13.0513 7.27428 19.5677 7.58359 19.8427ZM7.99986 1.22745C11.725 1.22745 14.7559 4.21806 14.7559 7.89441C14.7559 11.8503 9.53034 17.094 7.99986 18.5443C6.46855 17.0943 1.24385 11.8542 1.24385 7.89441C1.24385 4.21806 4.27468 1.22745 7.99986 1.22745Z" fill="black" fill-opacity="0.7"/>
<path d="M11 8C11 6.3456 9.65387 5 8 5C6.34613 5 5 6.3456 5 8C5 9.6544 6.34613 11 8 11C9.65387 11 11 9.6544 11 8ZM6.2 8C6.2 7.00747 7.00773 6.2 8 6.2C8.99227 6.2 9.8 7.00747 9.8 8C9.8 8.99253 8.99227 9.8 8 9.8C7.00773 9.8 6.2 8.9928 6.2 8Z" fill="black" fill-opacity="0.7"/>
</svg>
