<svg width="18" height="22" viewBox="0 0 18 22" fill="none" xmlns="http://www.w3.org/2000/svg">
<path d="M8.58359 20.8427C8.81771 21.0508 9.17815 21.0541 9.41613 20.8427C9.72544 20.5677 17 14.0513 17 8.89468C16.9997 4.54133 13.4108 1 8.99986 1C4.58891 1 1 4.54133 1 8.89441C1 14.0513 8.27428 20.5677 8.58359 20.8427ZM8.99986 2.22745C12.725 2.22745 15.7559 5.21806 15.7559 8.89441C15.7559 12.8503 10.5303 18.094 8.99986 19.5443C7.46855 18.0943 2.24385 12.8542 2.24385 8.89441C2.24385 5.21806 5.27468 2.22745 8.99986 2.22745Z" fill="#454545" stroke="#454545" stroke-width="0.25"/>
<path d="M12 9C12 7.3456 10.6539 6 9 6C7.34613 6 6 7.3456 6 9C6 10.6544 7.34613 12 9 12C10.6539 12 12 10.6544 12 9ZM7.2 9C7.2 8.00747 8.00773 7.2 9 7.2C9.99227 7.2 10.8 8.00747 10.8 9C10.8 9.99253 9.99227 10.8 9 10.8C8.00773 10.8 7.2 9.9928 7.2 9Z" fill="#454545" stroke="#454545" stroke-width="0.25"/>
</svg>
