<svg width="20" height="15" viewBox="0 0 20 15" fill="none" xmlns="http://www.w3.org/2000/svg">
<path d="M6.22528 11.333C6.21006 11.333 6.21006 11.333 6.19484 11.333C6.13395 11.3185 6.07307 11.3041 6.02741 11.2896C5.9513 11.2608 5.90564 11.1741 5.93608 11.102C5.96652 11.0298 6.05785 10.9865 6.13395 11.0153C6.17961 11.0298 6.21006 11.0442 6.25572 11.0442C6.33182 11.0587 6.3927 11.1308 6.37748 11.2175C6.36226 11.2752 6.30138 11.333 6.22528 11.333ZM13.7443 11.2319C13.6682 11.2319 13.6073 11.1886 13.5921 11.1164C13.5769 11.0442 13.6378 10.9576 13.7139 10.9432C13.7595 10.9432 13.79 10.9287 13.8356 10.9143C13.9117 10.8854 14.0031 10.9287 14.0335 11.0009C14.0639 11.0731 14.0183 11.1597 13.9422 11.1886C13.8813 11.203 13.8204 11.2175 13.7747 11.2319C13.7595 11.2319 13.7595 11.2319 13.7443 11.2319ZM6.91021 11.1886C6.86455 11.1886 6.81888 11.1597 6.78844 11.1308C6.74278 11.0587 6.758 10.972 6.83411 10.9287C6.87977 10.8998 6.92543 10.871 6.97109 10.8421C7.04719 10.7988 7.13852 10.8132 7.18418 10.8854C7.22984 10.9576 7.21462 11.0442 7.13852 11.0875C7.09286 11.1164 7.04719 11.1453 7.01675 11.1597C6.97109 11.1886 6.94065 11.1886 6.91021 11.1886ZM13.0289 11.0731C12.9985 11.0731 12.968 11.0587 12.9376 11.0442C12.8919 11.0153 12.8615 10.9865 12.8158 10.972C12.7397 10.9287 12.7245 10.8421 12.7702 10.7699C12.8158 10.6977 12.9072 10.6833 12.9833 10.7266C13.0289 10.7555 13.0746 10.7843 13.1203 10.8132C13.1964 10.8565 13.2116 10.9432 13.1659 11.0153C13.1355 11.0442 13.0746 11.0731 13.0289 11.0731ZM5.57079 10.7843C5.5099 10.7843 5.44902 10.741 5.4338 10.6833C5.41858 10.6255 5.40336 10.5822 5.38814 10.5245C5.37292 10.4523 5.41858 10.3657 5.5099 10.3512C5.58601 10.3368 5.67733 10.3801 5.69255 10.4667C5.70777 10.51 5.70777 10.5534 5.72299 10.5822C5.75343 10.6544 5.70777 10.741 5.63167 10.7699C5.61645 10.7699 5.60123 10.7843 5.57079 10.7843ZM7.70168 10.7555C7.6408 10.7555 7.59514 10.7266 7.5647 10.6833C7.53426 10.6111 7.54948 10.5245 7.62558 10.4956C7.67124 10.4667 7.71691 10.4523 7.76257 10.4234C7.83867 10.3945 7.93 10.4234 7.96044 10.4956C7.99088 10.5678 7.96044 10.6544 7.88433 10.6833C7.83867 10.6977 7.79301 10.7266 7.74735 10.741C7.74735 10.7555 7.71691 10.7555 7.70168 10.7555ZM14.414 10.7122C14.3988 10.7122 14.3836 10.7122 14.3531 10.6977C14.277 10.6689 14.2314 10.5822 14.2618 10.51C14.277 10.4667 14.2922 10.4379 14.2922 10.3946C14.3075 10.3224 14.3836 10.2646 14.4749 10.2791C14.551 10.2935 14.6119 10.3657 14.5967 10.4523C14.5814 10.51 14.5662 10.5678 14.551 10.6111C14.5358 10.6833 14.4749 10.7122 14.414 10.7122ZM12.2375 10.64C12.2222 10.64 12.1918 10.64 12.1766 10.6255C12.1309 10.6111 12.0852 10.5822 12.0396 10.5678C11.9635 10.5389 11.933 10.4523 11.9635 10.3801C11.9939 10.3079 12.0852 10.2791 12.1614 10.3079C12.207 10.3224 12.2527 10.3512 12.2983 10.3657C12.3744 10.3946 12.4049 10.4812 12.3744 10.5534C12.344 10.6111 12.2983 10.64 12.2375 10.64ZM8.53882 10.4234C8.47794 10.4234 8.41706 10.3801 8.40184 10.3224C8.3714 10.2502 8.41706 10.1636 8.49316 10.1347C8.53882 10.1202 8.59971 10.1058 8.64537 10.0914C8.72147 10.0625 8.8128 10.1058 8.82802 10.1924C8.85846 10.2646 8.8128 10.3512 8.72147 10.3657C8.67581 10.3801 8.63015 10.3945 8.58449 10.409C8.56926 10.409 8.55404 10.4234 8.53882 10.4234ZM11.3851 10.3368C11.3699 10.3368 11.3547 10.3368 11.3394 10.3368C11.2938 10.3224 11.2481 10.3079 11.2024 10.2935C11.1263 10.2791 11.0655 10.1924 11.0959 10.1202C11.1111 10.0481 11.2024 9.99032 11.2785 10.0192C11.3242 10.0336 11.3851 10.0481 11.4308 10.0625C11.5069 10.0914 11.5525 10.1636 11.5373 10.2357C11.5069 10.2935 11.446 10.3368 11.3851 10.3368ZM9.42162 10.2213C9.34552 10.2213 9.28464 10.1636 9.26942 10.0914C9.2542 10.0192 9.31508 9.93257 9.4064 9.93257C9.45206 9.93257 9.51295 9.91813 9.55861 9.91813C9.64993 9.90369 9.71082 9.96144 9.72604 10.0481C9.74126 10.1202 9.68038 10.1924 9.58905 10.2069C9.54339 10.2069 9.49773 10.2213 9.43684 10.2213H9.42162ZM10.4871 10.178C10.4871 10.178 10.4719 10.178 10.4871 10.178C10.4262 10.178 10.3805 10.178 10.3349 10.1636C10.2435 10.1636 10.1827 10.0914 10.1827 10.0192C10.1827 9.947 10.2588 9.87482 10.3349 9.87482C10.3805 9.87482 10.4414 9.87482 10.4871 9.88926C10.5784 9.88926 10.6393 9.96144 10.6241 10.0481C10.6241 10.1202 10.5632 10.178 10.4871 10.178ZM5.69255 9.947C5.66211 9.947 5.63167 9.93257 5.60123 9.91813C5.54034 9.87482 5.52512 9.77376 5.57079 9.71601C5.60123 9.6727 5.64689 9.62939 5.69255 9.58608C5.75344 9.52833 5.84476 9.54277 5.90564 9.60052C5.96652 9.65826 5.9513 9.74489 5.89042 9.80263C5.85998 9.83151 5.82954 9.86038 5.81432 9.88926C5.78388 9.93257 5.73821 9.947 5.69255 9.947ZM14.2922 9.88926C14.2466 9.88926 14.2009 9.87482 14.1705 9.83151C14.14 9.80263 14.1096 9.77376 14.0792 9.74489C14.0183 9.68714 14.0031 9.60052 14.0639 9.54277C14.1248 9.48502 14.2161 9.47058 14.277 9.52833C14.3227 9.57164 14.3684 9.60052 14.3988 9.64383C14.4445 9.70158 14.4445 9.80263 14.3684 9.84595C14.3684 9.88926 14.3227 9.88926 14.2922 9.88926ZM6.43837 9.47058C6.37748 9.47058 6.33182 9.44171 6.30138 9.3984C6.25572 9.32621 6.28616 9.23959 6.36226 9.19628C6.40792 9.16741 6.45359 9.15297 6.49925 9.1241C6.57535 9.08079 6.66668 9.10966 6.71234 9.18185C6.758 9.25403 6.72756 9.34065 6.65146 9.38396C6.60579 9.41284 6.56013 9.42727 6.51447 9.45615C6.48403 9.47058 6.46881 9.47058 6.43837 9.47058ZM13.5312 9.41284C13.5008 9.41284 13.4856 9.41284 13.4551 9.3984C13.4094 9.36953 13.3638 9.35509 13.3181 9.32621C13.242 9.2829 13.2116 9.19628 13.2572 9.13853C13.3029 9.06635 13.3942 9.03748 13.4551 9.08079C13.5008 9.10966 13.5464 9.1241 13.5921 9.15297C13.6682 9.19628 13.6986 9.2829 13.653 9.35509C13.6378 9.3984 13.5921 9.41284 13.5312 9.41284ZM7.26028 9.08079C7.1994 9.08079 7.13852 9.05191 7.1233 8.99416C7.09286 8.92198 7.1233 8.83536 7.1994 8.80648C7.24506 8.79205 7.29073 8.76317 7.33639 8.74874C7.41249 8.71986 7.50382 8.74874 7.53426 8.82092C7.5647 8.89311 7.53426 8.97973 7.45815 9.0086C7.41249 9.02304 7.36683 9.05191 7.32117 9.06635C7.29073 9.08079 7.27551 9.08079 7.26028 9.08079ZM12.7093 9.03748C12.6941 9.03748 12.6636 9.03748 12.6484 9.02304C12.6028 9.0086 12.5571 8.97973 12.5114 8.96529C12.4353 8.93642 12.3897 8.8498 12.4353 8.77761C12.4658 8.70543 12.5571 8.66211 12.6332 8.70543C12.6789 8.71986 12.7245 8.74874 12.7702 8.76317C12.8463 8.79205 12.8767 8.87867 12.8463 8.95085C12.8311 9.0086 12.7702 9.03748 12.7093 9.03748ZM8.11264 8.77761C8.05176 8.77761 7.99088 8.7343 7.96044 8.67655C7.93 8.60437 7.97566 8.51774 8.06698 8.48887C8.11264 8.47443 8.17353 8.46 8.21919 8.44556C8.29529 8.41669 8.38662 8.46 8.40184 8.54662C8.43228 8.6188 8.38662 8.70543 8.29529 8.71986C8.24963 8.7343 8.20397 8.74874 8.15831 8.76317C8.14308 8.77761 8.12786 8.77761 8.11264 8.77761ZM11.8569 8.74874C11.8417 8.74874 11.8265 8.74874 11.8113 8.74874C11.7656 8.7343 11.7199 8.71986 11.6743 8.70543C11.5982 8.69099 11.5525 8.60437 11.5677 8.53218C11.583 8.46 11.6743 8.41669 11.7504 8.43112C11.7961 8.44556 11.8569 8.46 11.9026 8.47443C11.9787 8.50331 12.0244 8.57549 12.0091 8.64768C11.9787 8.70543 11.9178 8.74874 11.8569 8.74874ZM8.99544 8.57549C8.91934 8.57549 8.85846 8.53218 8.84324 8.46C8.82802 8.38781 8.8889 8.30119 8.965 8.28675C9.01067 8.27232 9.07155 8.27232 9.11721 8.25788C9.19331 8.24344 9.28464 8.30119 9.28464 8.37338C9.29986 8.44556 9.23898 8.53218 9.16287 8.53218C9.11721 8.53218 9.07155 8.54662 9.01066 8.56106C9.01066 8.57549 9.01066 8.57549 8.99544 8.57549ZM10.9741 8.56106C10.9741 8.56106 10.9589 8.56106 10.9437 8.56106C10.898 8.56106 10.8524 8.54662 10.7915 8.54662C10.7154 8.51775 10.6545 8.44556 10.6697 8.37338C10.6849 8.30119 10.761 8.24344 10.8371 8.24344C10.8828 8.24344 10.9437 8.25788 10.9894 8.25788C11.0655 8.27232 11.1263 8.3445 11.1111 8.41669C11.1111 8.50331 11.035 8.56106 10.9741 8.56106ZM9.90869 8.50331C9.83258 8.50331 9.75648 8.44556 9.75648 8.35894C9.75648 8.27232 9.81736 8.21457 9.90869 8.21457H9.93913C9.96957 8.21457 10.0152 8.21457 10.0609 8.21457C10.137 8.21457 10.2131 8.27232 10.2131 8.35894C10.2131 8.44556 10.1522 8.50331 10.0609 8.50331C10.0305 8.50331 9.98479 8.50331 9.93913 8.50331H9.90869Z" fill="black" fill-opacity="0.8"/>
<path d="M3.69845 8.12796C3.68323 8.12796 3.65279 8.12796 3.63757 8.11353C3.57669 8.09909 3.53102 8.07022 3.48536 8.04134C3.40926 7.99803 3.39404 7.91141 3.4397 7.83923C3.48536 7.76704 3.57669 7.7526 3.65279 7.79591C3.68323 7.81035 3.72889 7.83923 3.75933 7.85366C3.83544 7.88254 3.8811 7.96916 3.83544 8.04134C3.82022 8.09909 3.75933 8.12796 3.69845 8.12796ZM4.44427 8.11353C4.38338 8.11353 4.33772 8.08465 4.30728 8.02691C4.27684 7.95472 4.30728 7.8681 4.38338 7.83923C4.41382 7.82479 4.42904 7.81035 4.45949 7.81035L4.47471 7.79591C4.53559 7.7526 4.64213 7.7526 4.6878 7.82479C4.73346 7.88254 4.73346 7.96916 4.65735 8.02691L4.64213 8.04134L4.59647 8.07022C4.56603 8.08465 4.53559 8.09909 4.48993 8.11353C4.48993 8.11353 4.45949 8.11353 4.44427 8.11353ZM16.3012 7.99803C16.2403 7.99803 16.1794 7.95472 16.1642 7.89697C16.1338 7.82479 16.1794 7.73817 16.2555 7.70929C16.3012 7.69486 16.3316 7.68042 16.3773 7.66598C16.4534 7.62267 16.5447 7.65155 16.5904 7.72373C16.636 7.79591 16.6056 7.88254 16.5295 7.92585C16.4838 7.95472 16.423 7.96916 16.3621 7.99803C16.3316 7.99803 16.3164 7.99803 16.3012 7.99803ZM15.5706 7.92585C15.5402 7.92585 15.5097 7.91141 15.4945 7.89697C15.4793 7.88254 15.464 7.88254 15.4488 7.8681L15.3727 7.81035C15.2966 7.76704 15.2814 7.68042 15.3271 7.60823C15.3727 7.53605 15.464 7.52161 15.5402 7.56492L15.6315 7.62267C15.6467 7.63711 15.6619 7.63711 15.6619 7.63711C15.738 7.68042 15.7532 7.76704 15.7076 7.83923C15.6619 7.89697 15.6163 7.92585 15.5706 7.92585ZM5.2053 7.63711C5.15964 7.63711 5.11398 7.60823 5.08353 7.56492C5.03787 7.49274 5.05309 7.40612 5.1292 7.36281C5.17486 7.33393 5.22052 7.30506 5.25096 7.27618C5.32707 7.23287 5.41839 7.24731 5.46405 7.3195C5.50971 7.39168 5.49449 7.4783 5.41839 7.52161C5.37273 7.55049 5.32707 7.57936 5.29662 7.5938C5.25096 7.62267 5.23574 7.63711 5.2053 7.63711ZM3.13529 7.49274C3.05918 7.49274 2.9983 7.44943 2.98308 7.37724C2.96786 7.3195 2.96786 7.26175 2.95264 7.204C2.95264 7.11738 3.01352 7.05963 3.10484 7.05963C3.18095 7.05963 3.25705 7.11738 3.25705 7.204C3.25705 7.24731 3.25705 7.29062 3.27227 7.3195C3.28749 7.39168 3.24183 7.4783 3.15051 7.49274C3.15051 7.49274 3.15051 7.49274 3.13529 7.49274ZM14.7943 7.46387C14.7639 7.46387 14.7487 7.46386 14.7182 7.44943C14.6726 7.42055 14.6269 7.40612 14.5812 7.37724C14.5051 7.33393 14.4899 7.24731 14.5204 7.17513C14.566 7.10294 14.6574 7.0885 14.7335 7.11738C14.7791 7.14625 14.8248 7.16069 14.8704 7.18956C14.9465 7.23287 14.9618 7.3195 14.9313 7.39168C14.9009 7.43499 14.84 7.46387 14.7943 7.46387ZM16.8644 7.37724C16.8491 7.37724 16.8491 7.37724 16.8339 7.37724C16.7578 7.36281 16.6969 7.29062 16.7121 7.204C16.7274 7.16069 16.7274 7.13181 16.7274 7.0885C16.7274 7.05963 16.7274 7.04519 16.7426 7.01632C16.7274 7.00188 16.7121 6.97301 16.7121 6.95857C16.7121 6.91526 16.6969 6.88639 16.6817 6.84308C16.6513 6.77089 16.6969 6.68427 16.773 6.6554C16.8491 6.62652 16.9405 6.66983 16.9709 6.74202C16.9861 6.79977 17.0013 6.84308 17.0166 6.90082C17.0166 6.9297 17.0166 6.97301 17.0013 7.00188C17.0166 7.03076 17.0318 7.05963 17.0318 7.0885C17.0318 7.14625 17.0318 7.204 17.0166 7.26175C17.0013 7.33393 16.9405 7.37724 16.8644 7.37724ZM5.98156 7.17513C5.92067 7.17513 5.87501 7.14625 5.84457 7.10294C5.79891 7.03076 5.82935 6.94413 5.90545 6.90082C5.95111 6.87195 5.99678 6.85751 6.04244 6.82864C6.11854 6.78533 6.20987 6.8142 6.25553 6.88639C6.30119 6.95857 6.27075 7.04519 6.19465 7.0885C6.14898 7.11738 6.10332 7.13181 6.05766 7.16069C6.02722 7.17513 6.012 7.17513 5.98156 7.17513ZM13.9876 7.04519C13.9724 7.04519 13.942 7.04519 13.9268 7.03076C13.8811 7.01632 13.8354 6.98745 13.7898 6.97301C13.7137 6.94413 13.6832 6.85751 13.7137 6.78533C13.7441 6.71314 13.8354 6.68427 13.9115 6.71314C13.9572 6.72758 14.0029 6.75645 14.0485 6.77089C14.1246 6.79977 14.1551 6.88639 14.1246 6.95857C14.0942 7.01632 14.0485 7.04519 13.9876 7.04519ZM6.80347 6.78533C6.74259 6.78533 6.69693 6.75645 6.66649 6.69871C6.63605 6.62652 6.66649 6.5399 6.74259 6.51103C6.78825 6.49659 6.83391 6.46772 6.87958 6.45328C6.95568 6.4244 7.047 6.45328 7.07745 6.52546C7.10789 6.59765 7.07745 6.68427 7.00134 6.71314C6.95568 6.72758 6.91002 6.75645 6.86436 6.77089C6.83391 6.78533 6.81869 6.78533 6.80347 6.78533ZM3.40926 6.71314C3.3636 6.71314 3.31793 6.69871 3.28749 6.6554C3.24183 6.59765 3.25705 6.49659 3.31793 6.45328C3.33315 6.43884 3.34837 6.43884 3.3636 6.4244L3.45492 6.36666C3.53102 6.32335 3.62235 6.33778 3.66801 6.40997C3.71367 6.48215 3.69845 6.56877 3.62235 6.61208L3.53102 6.66983C3.5158 6.68427 3.50058 6.68427 3.50058 6.68427C3.47014 6.69871 3.4397 6.71314 3.40926 6.71314ZM13.1505 6.69871C13.1353 6.69871 13.1201 6.69871 13.0896 6.68427C13.044 6.66983 12.9983 6.6554 12.9526 6.62652C12.8765 6.59765 12.8309 6.51103 12.8613 6.43884C12.8918 6.36666 12.9831 6.32335 13.0592 6.35222C13.1048 6.36666 13.1505 6.38109 13.1962 6.40997C13.2723 6.43884 13.3179 6.52546 13.2875 6.59765C13.2723 6.6554 13.2114 6.69871 13.1505 6.69871ZM7.64061 6.48215C7.57973 6.48215 7.51885 6.43884 7.50362 6.38109C7.47318 6.30891 7.51885 6.22229 7.59495 6.19341C7.64061 6.17898 7.68627 6.16454 7.74716 6.1501C7.82326 6.12123 7.91458 6.16454 7.94503 6.25116C7.97547 6.33778 7.9298 6.40997 7.83848 6.43884C7.79282 6.45328 7.74716 6.46772 7.70149 6.48215C7.67105 6.46772 7.65583 6.48215 7.64061 6.48215ZM16.3164 6.4244C16.286 6.4244 16.2555 6.40997 16.2403 6.39553L16.1185 6.32335C16.0424 6.28003 16.0272 6.19341 16.0729 6.12123C16.1185 6.04904 16.2099 6.03461 16.286 6.07792L16.423 6.1501C16.4991 6.19341 16.5143 6.28003 16.4686 6.35222C16.4077 6.40997 16.3621 6.4244 16.3164 6.4244ZM12.2981 6.40997C12.2829 6.40997 12.2677 6.40997 12.2525 6.40997C12.2068 6.39553 12.1612 6.38109 12.1155 6.36666C12.0394 6.35222 11.9937 6.2656 12.009 6.19341C12.0242 6.12123 12.1155 6.07792 12.1916 6.09235C12.2373 6.10679 12.2981 6.12123 12.3438 6.13567C12.4199 6.16454 12.4656 6.23672 12.4504 6.30891C12.4199 6.36666 12.359 6.40997 12.2981 6.40997ZM8.52341 6.25116C8.44731 6.25116 8.38643 6.20785 8.3712 6.13567C8.35598 6.06348 8.40165 5.97686 8.49297 5.96242C8.53863 5.94798 8.59952 5.94798 8.64518 5.93355C8.72128 5.91911 8.8126 5.97686 8.82783 6.04904C8.84305 6.12123 8.78216 6.20785 8.70606 6.22229C8.6604 6.23672 8.61474 6.23672 8.55385 6.25116C8.55385 6.25116 8.53863 6.25116 8.52341 6.25116ZM4.17029 6.23672C4.12463 6.23672 4.06375 6.20785 4.04853 6.16454C4.00286 6.09235 4.01809 6.00573 4.09419 5.96242L4.23118 5.89024C4.30728 5.84693 4.3986 5.8758 4.44427 5.93355C4.48993 6.00573 4.45949 6.09235 4.3986 6.13567L4.2464 6.20785C4.23118 6.22229 4.20073 6.23672 4.17029 6.23672ZM11.4001 6.22229C11.3849 6.22229 11.3849 6.22229 11.3697 6.22229C11.324 6.20785 11.2784 6.20785 11.2175 6.19341C11.1414 6.17898 11.0805 6.10679 11.0957 6.03461C11.1109 5.96242 11.187 5.90467 11.2631 5.91911C11.3088 5.93355 11.3697 5.93355 11.4153 5.94798C11.4914 5.96242 11.5523 6.03461 11.5371 6.12123C11.5371 6.16454 11.4762 6.22229 11.4001 6.22229ZM9.43665 6.13567C9.36055 6.13567 9.28445 6.07792 9.28445 6.00573C9.28445 5.91911 9.34533 5.86136 9.42143 5.84693C9.46709 5.84693 9.52798 5.84693 9.57364 5.83249C9.64974 5.83249 9.72585 5.89024 9.72585 5.97686C9.72585 6.06348 9.66496 6.12123 9.57364 6.12123C9.5432 6.12123 9.49754 6.13567 9.43665 6.13567ZM10.5021 6.12123C10.5021 6.12123 10.4869 6.12123 10.5021 6.12123C10.4412 6.12123 10.3956 6.12123 10.3499 6.12123C10.2586 6.12123 10.1977 6.04904 10.1977 5.97686C10.1977 5.89024 10.2586 5.83249 10.3499 5.83249C10.3956 5.83249 10.4564 5.83249 10.5021 5.83249C10.5934 5.83249 10.6543 5.90467 10.6543 5.97686C10.6391 6.06348 10.5782 6.12123 10.5021 6.12123ZM15.5402 5.97686C15.5097 5.97686 15.4945 5.97686 15.464 5.96242L15.3271 5.89024C15.251 5.84693 15.2205 5.7603 15.2662 5.68812C15.3118 5.61593 15.4032 5.58706 15.4793 5.63037L15.6163 5.70256C15.6924 5.74587 15.7228 5.83249 15.6771 5.90467C15.6315 5.96242 15.5858 5.97686 15.5402 5.97686ZM4.96177 5.78918C4.90089 5.78918 4.85522 5.7603 4.82478 5.71699C4.77912 5.64481 4.80956 5.55819 4.88567 5.51488C4.93133 5.486 4.97699 5.47157 5.02265 5.44269C5.09876 5.39938 5.19008 5.42825 5.23574 5.50044C5.2814 5.57262 5.25096 5.65925 5.17486 5.70256C5.1292 5.73143 5.08353 5.74587 5.03787 5.77474C5.00743 5.78918 4.97699 5.78918 4.96177 5.78918ZM14.7182 5.57262C14.703 5.57262 14.6726 5.57262 14.6574 5.55819L14.5204 5.50044C14.4443 5.47156 14.4138 5.38494 14.4443 5.31276C14.4747 5.24057 14.566 5.2117 14.6421 5.24057L14.7791 5.29832C14.8552 5.3272 14.8857 5.41382 14.8552 5.486C14.84 5.54375 14.7791 5.57262 14.7182 5.57262ZM5.76847 5.39938C5.70758 5.39938 5.66192 5.37051 5.63148 5.31276C5.60104 5.24057 5.63148 5.15395 5.70758 5.12508C5.75325 5.11064 5.79891 5.08177 5.84457 5.06733C5.92067 5.03846 6.012 5.06733 6.04244 5.13951C6.07288 5.2117 6.04244 5.29832 5.96634 5.3272C5.92067 5.34163 5.87501 5.37051 5.82935 5.38494C5.81413 5.39938 5.79891 5.39938 5.76847 5.39938ZM13.8963 5.22614C13.8811 5.22614 13.8507 5.22614 13.8354 5.2117C13.7898 5.19726 13.7441 5.18283 13.6984 5.15395C13.6223 5.12508 13.5767 5.03846 13.6071 4.96627C13.6376 4.89409 13.7289 4.85078 13.805 4.87965C13.8507 4.89409 13.8963 4.90852 13.942 4.9374C14.0181 4.96627 14.0637 5.05289 14.0333 5.12508C14.0029 5.19726 13.9572 5.22614 13.8963 5.22614ZM6.62082 5.06733C6.55994 5.06733 6.49906 5.03846 6.48384 4.98071C6.4534 4.90852 6.49906 4.8219 6.57516 4.79303C6.62082 4.77859 6.66649 4.76415 6.72737 4.73528C6.80347 4.70641 6.8948 4.74972 6.92524 4.8219C6.95568 4.89409 6.91002 4.98071 6.83391 5.00958C6.78825 5.02402 6.74259 5.03846 6.69693 5.05289C6.65127 5.06733 6.63605 5.06733 6.62082 5.06733ZM13.0287 4.9374C13.0135 4.9374 12.9983 4.9374 12.9831 4.9374C12.9374 4.92296 12.8918 4.90852 12.8461 4.89409C12.77 4.86521 12.7243 4.79303 12.7395 4.72084C12.7548 4.64866 12.8461 4.60535 12.9222 4.61978C12.9679 4.63422 13.0135 4.64866 13.0744 4.6631C13.1505 4.69197 13.1962 4.76415 13.1657 4.85078C13.1505 4.89409 13.0896 4.9374 13.0287 4.9374ZM7.4884 4.79303C7.42752 4.79303 7.36664 4.74972 7.3362 4.69197C7.32098 4.61978 7.36664 4.53316 7.44274 4.51873C7.4884 4.50429 7.54929 4.48985 7.59495 4.47542C7.67105 4.46098 7.76238 4.50429 7.7776 4.57647C7.79282 4.64866 7.74716 4.73528 7.67105 4.74972C7.62539 4.76415 7.57973 4.77859 7.51885 4.79303C7.50363 4.79303 7.4884 4.79303 7.4884 4.79303ZM12.1459 4.70641C12.1307 4.70641 12.1307 4.70641 12.1155 4.70641C12.0698 4.69197 12.0242 4.69197 11.9633 4.67753C11.8872 4.6631 11.8263 4.59091 11.8415 4.50429C11.8567 4.41767 11.9328 4.37436 12.0242 4.38879C12.0698 4.40323 12.1307 4.40323 12.1764 4.41767C12.2525 4.4321 12.3134 4.51873 12.2981 4.59091C12.2829 4.6631 12.222 4.70641 12.1459 4.70641ZM8.3712 4.60535C8.2951 4.60535 8.23422 4.56204 8.219 4.48985C8.20378 4.41767 8.26466 4.33105 8.34076 4.31661C8.38643 4.30217 8.44731 4.30217 8.49297 4.28773C8.56907 4.2733 8.6604 4.33105 8.6604 4.40323C8.67562 4.47542 8.61474 4.56204 8.53863 4.56204C8.49297 4.57647 8.44731 4.57647 8.38643 4.59091C8.38643 4.60535 8.38643 4.60535 8.3712 4.60535ZM11.2479 4.5476H11.2327C11.187 4.5476 11.1262 4.53316 11.0805 4.53316C11.0044 4.51873 10.9435 4.44654 10.9435 4.37436C10.9587 4.30217 11.0196 4.22999 11.1109 4.24442C11.1566 4.24442 11.2175 4.25886 11.2631 4.25886C11.3392 4.2733 11.4001 4.34548 11.4001 4.41767C11.4001 4.48985 11.324 4.5476 11.2479 4.5476ZM9.28445 4.50429C9.20834 4.50429 9.13224 4.44654 9.13224 4.37436C9.13224 4.28773 9.19312 4.22999 9.26923 4.21555C9.31489 4.21555 9.37577 4.21555 9.42143 4.20111C9.49754 4.20111 9.57364 4.25886 9.57364 4.34548C9.57364 4.4321 9.51276 4.48985 9.42143 4.48985C9.39099 4.48985 9.33011 4.48985 9.28445 4.50429ZM10.3499 4.47542C10.3347 4.47542 10.3347 4.47542 10.3499 4.47542C10.289 4.47542 10.2434 4.47542 10.1977 4.47542C10.1064 4.47542 10.0455 4.40323 10.0455 4.33105C10.0455 4.25886 10.1216 4.18668 10.1977 4.18668C10.2434 4.18668 10.3042 4.18668 10.3499 4.18668C10.4412 4.18668 10.5021 4.25886 10.5021 4.33105C10.4869 4.41767 10.426 4.47542 10.3499 4.47542Z" fill="black" fill-opacity="0.8"/>
<path d="M1.43075 5.15399C1.36986 5.15399 1.30898 5.12512 1.29376 5.06737C1.26332 4.99519 1.29376 4.90857 1.38508 4.87969C1.43075 4.86525 1.46119 4.85082 1.50685 4.82194C1.58295 4.77863 1.67428 4.80751 1.71994 4.86525C1.7656 4.93744 1.73516 5.02406 1.67428 5.06737C1.62861 5.09625 1.56773 5.12512 1.52207 5.13956C1.47641 5.15399 1.46119 5.15399 1.43075 5.15399ZM0.700152 5.13956C0.684932 5.13956 0.65449 5.13956 0.639269 5.12512C0.593607 5.09625 0.532724 5.06737 0.487062 5.0385C0.42618 4.99519 0.410959 4.89413 0.456621 4.83638C0.502283 4.77863 0.608828 4.7642 0.669711 4.80751C0.700152 4.83638 0.745814 4.85082 0.776256 4.86525C0.852359 4.89413 0.882801 4.98075 0.837139 5.05294C0.806697 5.11068 0.761035 5.13956 0.700152 5.13956ZM2.17656 4.66314C2.1309 4.66314 2.08524 4.6487 2.05479 4.60539C2.00913 4.54764 2.02435 4.44658 2.08524 4.40327L2.207 4.31665C2.26788 4.27334 2.37443 4.28778 2.42009 4.34552C2.46575 4.40327 2.45053 4.50433 2.38965 4.54764L2.26788 4.63426C2.23744 4.6487 2.207 4.66314 2.17656 4.66314ZM19.2085 4.63426C19.1476 4.63426 19.0868 4.59095 19.0563 4.5332C19.0259 4.46102 19.0715 4.3744 19.1629 4.34552C19.2085 4.33109 19.239 4.31665 19.2846 4.30221C19.3607 4.27334 19.4521 4.30221 19.4825 4.35996C19.5129 4.43215 19.4825 4.51877 19.4216 4.54764C19.376 4.57652 19.3151 4.59095 19.2542 4.60539C19.239 4.63426 19.2237 4.63426 19.2085 4.63426ZM18.4779 4.51877C18.4475 4.51877 18.417 4.50433 18.3866 4.48989C18.3409 4.46102 18.3105 4.43215 18.2648 4.40327C18.1887 4.35996 18.1735 4.27334 18.2344 4.20115C18.2801 4.12897 18.3714 4.11453 18.4475 4.17228C18.4932 4.20115 18.5388 4.23003 18.5693 4.2589C18.6454 4.30221 18.6606 4.38883 18.5997 4.46102C18.5845 4.48989 18.5236 4.51877 18.4779 4.51877ZM0.167428 4.46102C0.0913242 4.46102 0.0304414 4.41771 0.0152207 4.34552C0.0152207 4.28778 0 4.23003 0 4.18672C0 4.1001 0.0608828 4.04235 0.152207 4.04235C0.243531 4.04235 0.304414 4.1001 0.304414 4.18672C0.304414 4.23003 0.304414 4.27334 0.319635 4.30221C0.334855 4.3744 0.273973 4.46102 0.197869 4.47546C0.182648 4.46102 0.182648 4.46102 0.167428 4.46102ZM2.9376 4.17228C2.89193 4.17228 2.84627 4.14341 2.81583 4.1001C2.77017 4.02791 2.78539 3.94129 2.86149 3.89798L2.98326 3.82579C3.05936 3.78248 3.15068 3.79692 3.19635 3.8691C3.24201 3.94129 3.22679 4.02791 3.15069 4.07122L3.02892 4.14341C2.98326 4.15784 2.95282 4.17228 2.9376 4.17228ZM19.8174 4.04235C19.8021 4.04235 19.7869 4.04235 19.7717 4.04235C19.6956 4.02791 19.6499 3.94129 19.6651 3.8691C19.6804 3.82579 19.6804 3.78248 19.6956 3.75361C19.6956 3.69586 19.7412 3.65255 19.7869 3.63811C19.7412 3.62368 19.6956 3.58037 19.6804 3.52262C19.6804 3.47931 19.6651 3.45043 19.6499 3.40712C19.6195 3.33494 19.6651 3.24832 19.7412 3.21944C19.8174 3.19057 19.9087 3.23388 19.9391 3.30606C19.9543 3.36381 19.9696 3.40712 19.9848 3.46487C20 3.53705 19.9543 3.5948 19.8935 3.62368C19.9543 3.63811 20 3.7103 20 3.78248C20 3.84023 19.9848 3.89798 19.9696 3.94129C19.9391 3.99904 19.8782 4.04235 19.8174 4.04235ZM17.7321 4.02791C17.7017 4.02791 17.6712 4.02791 17.656 3.99904L17.5342 3.92685C17.4581 3.88354 17.4429 3.79692 17.4886 3.72473C17.5342 3.65255 17.6256 3.63811 17.7017 3.68142L17.8387 3.75361C17.9148 3.79692 17.93 3.88354 17.8843 3.95573C17.8234 4.01347 17.7778 4.02791 17.7321 4.02791ZM3.71385 3.7103C3.66819 3.7103 3.60731 3.68142 3.57686 3.63811C3.5312 3.56593 3.56164 3.47931 3.63775 3.436L3.77473 3.36381C3.85084 3.3205 3.94216 3.34937 3.98782 3.42156C4.03349 3.49374 4.00304 3.58037 3.92694 3.62368L3.78995 3.69586C3.75951 3.7103 3.72907 3.7103 3.71385 3.7103ZM0.4414 3.68142C0.395738 3.68142 0.350076 3.65255 0.319635 3.62368C0.273973 3.55149 0.289193 3.46487 0.365297 3.42156L0.380518 3.40712L0.487062 3.33494C0.547945 3.29163 0.65449 3.30606 0.700152 3.36381C0.745814 3.42156 0.730594 3.52262 0.669711 3.56593L0.563166 3.63811L0.547945 3.65255C0.502283 3.68142 0.471842 3.68142 0.4414 3.68142ZM16.9406 3.5948C16.9102 3.5948 16.895 3.5948 16.8645 3.58037C16.8189 3.55149 16.7732 3.53705 16.7276 3.50818C16.6514 3.46487 16.621 3.37825 16.6667 3.30606C16.7123 3.23388 16.8037 3.205 16.8798 3.24832C16.9254 3.27719 16.9711 3.29163 17.0167 3.3205C17.0928 3.36381 17.1233 3.45043 17.0776 3.52262C17.0472 3.56593 16.9863 3.5948 16.9406 3.5948ZM4.52055 3.30606C4.45967 3.30606 4.414 3.27719 4.38356 3.21944C4.35312 3.14726 4.38356 3.06063 4.45966 3.03176C4.50533 3.01732 4.55099 2.98845 4.59665 2.97401C4.67276 2.94514 4.76408 2.97401 4.79452 3.0462C4.82496 3.11838 4.79452 3.205 4.71842 3.23388C4.67275 3.24832 4.62709 3.27719 4.58143 3.29163C4.56621 3.30606 4.53577 3.30606 4.52055 3.30606ZM16.1187 3.205C16.1035 3.205 16.0731 3.205 16.0578 3.19057L15.9209 3.13282C15.8447 3.10395 15.8143 3.01732 15.8447 2.94514C15.8752 2.87295 15.9665 2.84408 16.0426 2.87295L16.1796 2.9307C16.2557 2.95958 16.2861 3.0462 16.2557 3.11838C16.2405 3.17613 16.1796 3.205 16.1187 3.205ZM1.18721 3.17613C1.14155 3.17613 1.09589 3.16169 1.06545 3.11838C1.01979 3.0462 1.03501 2.95958 1.11111 2.91627L1.21766 2.82964C1.29376 2.78633 1.38508 2.80077 1.43075 2.87295C1.47641 2.94514 1.46119 3.03176 1.38508 3.07507L1.26332 3.16169C1.2481 3.16169 1.21766 3.17613 1.18721 3.17613ZM19.2846 2.97401C19.2542 2.97401 19.2237 2.95958 19.1933 2.94514L19.0715 2.85852C18.9954 2.81521 18.9802 2.72858 19.0259 2.6564C19.0715 2.58422 19.1629 2.56978 19.239 2.61309L19.3607 2.69971C19.4368 2.74302 19.4521 2.82964 19.4064 2.90183C19.376 2.94514 19.3303 2.97401 19.2846 2.97401ZM5.34247 2.94514C5.28158 2.94514 5.2207 2.91627 5.20548 2.85852C5.17504 2.78633 5.20548 2.69971 5.28158 2.67084C5.32725 2.6564 5.37291 2.62753 5.41857 2.61309C5.49467 2.58422 5.586 2.61309 5.61644 2.69971C5.64688 2.7719 5.61644 2.85852 5.52511 2.88739C5.47945 2.90183 5.43379 2.91627 5.38813 2.94514C5.38813 2.94514 5.35769 2.94514 5.34247 2.94514ZM15.2816 2.85852C15.2664 2.85852 15.2511 2.85852 15.2207 2.84408C15.175 2.82964 15.1294 2.81521 15.0837 2.78633C15.0076 2.75746 14.9619 2.67084 14.9924 2.59865C15.0228 2.52647 15.1142 2.48316 15.1903 2.51203C15.2359 2.52647 15.2816 2.5409 15.3272 2.56978C15.4033 2.59865 15.449 2.68527 15.4186 2.75746C15.4033 2.82964 15.3425 2.85852 15.2816 2.85852ZM1.94825 2.69971C1.90259 2.69971 1.8417 2.67084 1.82648 2.62753C1.78082 2.55534 1.79604 2.46872 1.87215 2.42541L2.00913 2.35322C2.08524 2.30991 2.17656 2.33879 2.22222 2.39653C2.26788 2.46872 2.23744 2.55534 2.17656 2.59865L2.05479 2.67084C1.99391 2.68527 1.97869 2.69971 1.94825 2.69971ZM6.19483 2.64196C6.13394 2.64196 6.07306 2.59865 6.05784 2.5409C6.0274 2.46872 6.07306 2.3821 6.14916 2.35322C6.19483 2.33879 6.24049 2.32435 6.30137 2.30991C6.37747 2.28104 6.4688 2.32435 6.49924 2.39653C6.52968 2.46872 6.48402 2.55534 6.40791 2.58422C6.36225 2.59865 6.31659 2.61309 6.27093 2.62753C6.22527 2.64196 6.21005 2.64196 6.19483 2.64196ZM14.4292 2.56978C14.414 2.56978 14.3988 2.56978 14.3836 2.56978C14.3379 2.55534 14.2922 2.5409 14.2466 2.52647C14.1705 2.49759 14.1248 2.42541 14.14 2.33879C14.1705 2.2666 14.2466 2.22329 14.3379 2.23773C14.3836 2.25217 14.4292 2.2666 14.4901 2.28104C14.5662 2.30991 14.6119 2.3821 14.5814 2.46872C14.551 2.52647 14.4901 2.56978 14.4292 2.56978ZM18.5084 2.49759C18.4779 2.49759 18.4475 2.49759 18.4323 2.48316L18.2953 2.41097C18.2192 2.36766 18.204 2.28104 18.2496 2.20885C18.2953 2.13667 18.3866 2.12223 18.4627 2.16554L18.5997 2.23773C18.6758 2.28104 18.691 2.36766 18.6454 2.43985C18.6149 2.48316 18.5693 2.49759 18.5084 2.49759ZM7.07763 2.3821C7.01674 2.3821 6.95586 2.33879 6.92542 2.28104C6.9102 2.20885 6.95586 2.12223 7.03196 2.1078C7.07763 2.09336 7.13851 2.07892 7.18417 2.06448C7.26027 2.05005 7.3516 2.09336 7.36682 2.16554C7.38204 2.23773 7.33638 2.32435 7.26027 2.33879C7.21461 2.35322 7.16895 2.36766 7.10807 2.36766C7.09285 2.3821 7.07763 2.3821 7.07763 2.3821ZM13.5464 2.33879C13.5312 2.33879 13.516 2.33879 13.516 2.33879L13.3638 2.30991C13.2877 2.29548 13.2268 2.20885 13.2572 2.13667C13.2725 2.06448 13.3638 2.00674 13.4399 2.03561C13.4855 2.05005 13.5464 2.06448 13.5921 2.06448C13.6682 2.07892 13.7291 2.16554 13.6986 2.23773C13.6834 2.29548 13.6225 2.33879 13.5464 2.33879ZM2.72451 2.25217C2.67884 2.25217 2.61796 2.22329 2.58752 2.17998C2.54186 2.1078 2.5723 2.02117 2.6484 1.97786L2.78539 1.90568C2.86149 1.86237 2.95282 1.89124 2.99848 1.96343C3.04414 2.03561 3.0137 2.12223 2.9376 2.16554L2.80061 2.23773C2.78539 2.25217 2.75495 2.25217 2.72451 2.25217ZM7.96043 2.19442C7.88432 2.19442 7.82344 2.15111 7.80822 2.07892C7.793 2.00674 7.85388 1.92012 7.92998 1.90568C7.97565 1.89124 8.03653 1.89124 8.08219 1.8768C8.15829 1.86237 8.24962 1.92012 8.26484 1.9923C8.28006 2.06448 8.21918 2.15111 8.14307 2.16554C8.09741 2.17998 8.05175 2.17998 7.99087 2.19442C7.97565 2.19442 7.97565 2.19442 7.96043 2.19442ZM12.6636 2.15111C12.6484 2.15111 12.6484 2.15111 12.6332 2.15111C12.5875 2.13667 12.5419 2.13667 12.481 2.12223C12.4049 2.1078 12.344 2.03561 12.3592 1.96343C12.3744 1.89124 12.4505 1.83349 12.5266 1.84793C12.5723 1.86237 12.6332 1.86237 12.6788 1.8768C12.7549 1.89124 12.8158 1.96343 12.8006 2.05005C12.8006 2.1078 12.7245 2.15111 12.6636 2.15111ZM17.7169 2.06448C17.6865 2.06448 17.6712 2.06448 17.6408 2.05005L17.5038 1.97786C17.4277 1.93455 17.3973 1.84793 17.4429 1.77575C17.4886 1.70356 17.5799 1.67469 17.656 1.718L17.793 1.79018C17.8691 1.83349 17.8995 1.92012 17.8539 1.9923C17.8234 2.03561 17.7778 2.06448 17.7169 2.06448ZM8.87367 2.06448C8.79756 2.06448 8.73668 2.00674 8.72146 1.93455C8.70624 1.86237 8.76712 1.79018 8.85845 1.77575C8.90411 1.77575 8.96499 1.76131 9.01065 1.76131C9.10198 1.74687 9.16286 1.81906 9.17808 1.89124C9.1933 1.96343 9.1172 2.03561 9.0411 2.05005C8.99543 2.05005 8.93455 2.06448 8.88889 2.06448C8.87367 2.06448 8.87367 2.06448 8.87367 2.06448ZM11.7504 2.03561C11.6895 2.03561 11.6286 2.02117 11.583 2.02117C11.5068 2.02117 11.4307 1.94899 11.446 1.86237C11.446 1.77575 11.5221 1.718 11.6134 1.73243C11.6591 1.73243 11.7199 1.74687 11.7656 1.74687C11.8417 1.76131 11.9178 1.81906 11.9026 1.90568C11.9026 1.97786 11.8265 2.03561 11.7504 2.03561ZM9.77169 2.00674C9.69559 2.00674 9.61948 1.94899 9.61948 1.86237C9.61948 1.77575 9.68036 1.718 9.77169 1.718C9.81735 1.718 9.87823 1.718 9.9239 1.718C10 1.718 10.0761 1.77575 10.0761 1.86237C10.0761 1.94899 10.0152 2.00674 9.9239 2.00674C9.87823 2.00674 9.83257 2.00674 9.77169 2.00674C9.78691 2.00674 9.78691 2.00674 9.77169 2.00674ZM10.8371 1.9923C10.7915 1.9923 10.7306 1.9923 10.6849 1.9923C10.5936 1.9923 10.5327 1.92012 10.5327 1.84793C10.5327 1.76131 10.5936 1.70356 10.6849 1.70356C10.7306 1.70356 10.7915 1.70356 10.8371 1.70356C10.9285 1.70356 10.9893 1.77575 10.9893 1.84793C10.9893 1.92012 10.9285 1.9923 10.8371 1.9923ZM3.5312 1.84793C3.47032 1.84793 3.42466 1.81906 3.39422 1.76131C3.36377 1.68912 3.39422 1.6025 3.4551 1.57363L3.59209 1.51588C3.66819 1.48701 3.75951 1.51588 3.78995 1.58807C3.8204 1.66025 3.78995 1.74687 3.71385 1.77575L3.57686 1.83349C3.57686 1.84793 3.56164 1.84793 3.5312 1.84793ZM16.9102 1.67469C16.895 1.67469 16.8645 1.67469 16.8493 1.66025C16.8037 1.64581 16.758 1.61694 16.7123 1.6025C16.6362 1.57363 16.6058 1.48701 16.6362 1.41482C16.6667 1.34264 16.758 1.31376 16.8341 1.34264C16.8798 1.35707 16.9254 1.38595 16.9711 1.40038C17.0472 1.42926 17.0776 1.51588 17.0472 1.58807C17.0167 1.64581 16.9711 1.67469 16.9102 1.67469ZM4.36834 1.48701C4.30746 1.48701 4.24658 1.45813 4.23135 1.40038C4.20091 1.3282 4.23135 1.24158 4.30746 1.2127L4.44444 1.15496C4.52055 1.12608 4.61187 1.15496 4.64231 1.22714C4.67275 1.29933 4.64231 1.38595 4.56621 1.41482L4.42922 1.47257C4.39878 1.47257 4.38356 1.48701 4.36834 1.48701ZM16.0731 1.3282C16.0578 1.3282 16.0274 1.3282 16.0122 1.31376L15.8752 1.25602C15.7991 1.22714 15.7534 1.14052 15.7839 1.06833C15.8143 0.99615 15.9056 0.952839 15.9817 0.981713L16.1187 1.03946C16.1948 1.06833 16.2405 1.15496 16.21 1.22714C16.1948 1.29933 16.1339 1.3282 16.0731 1.3282ZM5.20548 1.15496C5.1446 1.15496 5.08371 1.12608 5.06849 1.0539C5.03805 0.981713 5.08371 0.895091 5.15982 0.866217L5.2968 0.822907C5.37291 0.794033 5.46423 0.837344 5.49467 0.909528C5.52511 0.981713 5.47945 1.06833 5.40335 1.09721L5.26636 1.15496C5.25114 1.15496 5.2207 1.15496 5.20548 1.15496ZM15.2207 1.02502C15.2055 1.02502 15.1903 1.02502 15.175 1.01059C15.1142 1.01059 15.0685 0.981713 15.0228 0.967276C14.9467 0.938402 14.9011 0.866217 14.9315 0.779596C14.9619 0.692974 15.0381 0.6641 15.1294 0.692974C15.175 0.707411 15.2207 0.721848 15.2816 0.736285C15.3577 0.765159 15.4033 0.837344 15.3729 0.923965C15.3425 0.981713 15.2816 1.02502 15.2207 1.02502ZM6.07306 0.880654C6.01218 0.880654 5.95129 0.837344 5.92085 0.779596C5.89041 0.707411 5.93607 0.620789 6.0274 0.606352C6.07306 0.591915 6.11872 0.577478 6.1796 0.563041C6.25571 0.534167 6.34703 0.577478 6.36225 0.6641C6.39269 0.736285 6.34703 0.822907 6.25571 0.837344L6.11872 0.880654C6.1035 0.880654 6.08828 0.880654 6.07306 0.880654ZM14.3379 0.779596C14.3227 0.779596 14.3075 0.779596 14.2922 0.779596C14.2466 0.765159 14.2009 0.750722 14.14 0.736285C14.0639 0.721848 14.003 0.635226 14.0335 0.563041C14.0639 0.47642 14.1553 0.433109 14.2314 0.447546C14.277 0.461983 14.3379 0.47642 14.3836 0.490857C14.4597 0.505293 14.5053 0.591915 14.4901 0.6641C14.4749 0.736285 14.414 0.779596 14.3379 0.779596ZM6.95586 0.649663C6.87976 0.649663 6.81887 0.606352 6.80365 0.534167C6.78843 0.461983 6.83409 0.375361 6.9102 0.360924C6.95586 0.346487 7.01674 0.33205 7.06241 0.33205C7.13851 0.317613 7.22983 0.360924 7.24505 0.447546C7.26027 0.51973 7.21461 0.606352 7.12329 0.620789C7.07763 0.635226 7.03196 0.635226 6.97108 0.649663C6.9863 0.649663 6.97108 0.649663 6.95586 0.649663ZM13.4551 0.563041C13.4399 0.563041 13.4399 0.563041 13.4247 0.563041L13.2725 0.534167C13.1963 0.51973 13.1355 0.447546 13.1507 0.360924C13.1659 0.288739 13.242 0.230991 13.3333 0.245428C13.379 0.259865 13.4399 0.259865 13.4855 0.274302C13.5616 0.288739 13.6225 0.360924 13.6073 0.447546C13.5921 0.51973 13.516 0.563041 13.4551 0.563041ZM7.85388 0.47642C7.77778 0.47642 7.71689 0.433109 7.70167 0.360924C7.68645 0.288739 7.74734 0.202117 7.82344 0.18768C7.8691 0.173243 7.92999 0.173243 7.97565 0.158807C8.06697 0.158807 8.14307 0.216554 8.15829 0.288739C8.17352 0.360924 8.11263 0.447546 8.03653 0.447546C7.99087 0.461983 7.92998 0.461983 7.88432 0.47642C7.8691 0.47642 7.85388 0.47642 7.85388 0.47642ZM12.5571 0.418672H12.5419L12.3897 0.404235C12.3135 0.389798 12.2527 0.317613 12.2527 0.245428C12.2679 0.173243 12.344 0.115496 12.4201 0.115496L12.5723 0.129933C12.6484 0.14437 12.7093 0.216554 12.6941 0.288739C12.6941 0.375361 12.6332 0.418672 12.5571 0.418672ZM8.7519 0.360924C8.6758 0.360924 8.61492 0.303176 8.5997 0.230991C8.58447 0.158807 8.64536 0.0866217 8.73668 0.0721848C8.78234 0.0721848 8.84323 0.0577478 8.88889 0.0577478C8.98021 0.0433109 9.0411 0.115496 9.05632 0.18768C9.05632 0.274302 8.99543 0.33205 8.91933 0.346487C8.87367 0.346487 8.81279 0.360924 8.76712 0.360924C8.76712 0.360924 8.76712 0.360924 8.7519 0.360924ZM11.6438 0.33205L11.4764 0.317613C11.3851 0.317613 11.3242 0.245428 11.3394 0.158807C11.3394 0.0721848 11.4155 0.014437 11.5068 0.0288739C11.5525 0.0288739 11.6134 0.0288739 11.6591 0.0433109C11.7504 0.0433109 11.8113 0.115496 11.796 0.202117C11.796 0.274302 11.7199 0.33205 11.6438 0.33205ZM9.66514 0.317613C9.58904 0.317613 9.51294 0.259865 9.51294 0.173243C9.51294 0.0866217 9.57382 0.0288739 9.66514 0.0288739C9.71081 0.0288739 9.77169 0.0288739 9.81735 0.0288739C9.89346 0.0288739 9.96956 0.0866217 9.96956 0.173243C9.96956 0.259865 9.90868 0.317613 9.81735 0.317613C9.77169 0.303176 9.72603 0.303176 9.66514 0.317613ZM10.7306 0.288739H10.5784C10.4871 0.288739 10.4262 0.230991 10.4262 0.14437C10.4262 0.0577478 10.4871 0 10.5784 0L10.7306 0C10.8219 0 10.8828 0.0721848 10.8828 0.14437C10.8828 0.230991 10.8219 0.288739 10.7306 0.288739Z" fill="black" fill-opacity="0.8"/>
<path d="M11.292 9.76603C11.292 10.3761 10.7675 10.8708 10.1206 10.8708C9.47383 10.8708 8.9493 10.3761 8.9493 9.76603L8.9493 2.30804C8.9493 1.69797 9.47383 1.20325 10.1206 1.20325C10.7675 1.20325 11.292 1.69798 11.292 2.30804L11.292 9.76603Z" fill="black" fill-opacity="0.7"/>
<path fill-rule="evenodd" clip-rule="evenodd" d="M10.1206 14.8385C9.32221 14.8385 8.67484 14.2279 8.67484 13.4749C8.67484 12.7218 9.32221 12.1112 10.1206 12.1112C10.919 12.1112 11.5664 12.7218 11.5664 13.4749C11.5664 14.2279 10.919 14.8385 10.1206 14.8385Z" fill="black" fill-opacity="0.7"/>
</svg>
