<svg width="15" height="23" viewBox="0 0 15 23" fill="none" xmlns="http://www.w3.org/2000/svg">
<path d="M7.73736 1.00088C7.86991 1.01078 7.9952 1.06715 8.09246 1.16062L14.2111 6.87377C14.2709 6.92971 14.3187 6.99786 14.3517 7.07388C14.3846 7.1499 14.4018 7.23215 14.4023 7.31541V20.8466C14.4023 21.8356 13.6126 22.6507 12.6542 22.6507H2.74772C1.7893 22.6507 0.999527 21.8356 0.999527 20.8466V7.31541C1.00004 7.23215 1.0173 7.1499 1.05021 7.07388C1.08313 6.99786 1.13098 6.92971 1.19074 6.87377L7.30941 1.16062C7.36671 1.10573 7.43413 1.0633 7.50765 1.03586C7.58117 1.00842 7.65929 0.99652 7.73736 1.00088ZM7.70094 2.41037L2.16499 7.57852V20.8466C2.16499 21.1901 2.41481 21.4479 2.74772 21.4479H12.6542C12.9871 21.4479 13.2369 21.1901 13.2369 20.8466V7.57852L7.70094 2.41037ZM7.70094 4.90987C8.82045 4.90987 9.74049 5.85937 9.74049 7.01472C9.74049 8.17007 8.82045 9.11956 7.70094 9.11956C6.58142 9.11956 5.66138 8.17007 5.66138 7.01472C5.66138 5.85937 6.58142 4.90987 7.70094 4.90987ZM7.70094 6.11264C7.21128 6.11264 6.82684 6.50939 6.82684 7.01472C6.82684 7.52004 7.21128 7.91679 7.70094 7.91679C8.19059 7.91679 8.57503 7.52004 8.57503 7.01472C8.57503 6.50939 8.19059 6.11264 7.70094 6.11264ZM11.5433 16.0355C11.6199 16.0392 11.6949 16.0584 11.7643 16.092C11.8336 16.1256 11.8959 16.173 11.9474 16.2315C11.999 16.29 12.039 16.3584 12.0649 16.4327C12.0909 16.5071 12.1024 16.5861 12.0989 16.6651C12.0953 16.744 12.0766 16.8215 12.044 16.8931C12.0114 16.9646 11.9655 17.0289 11.9088 17.0821C11.8522 17.1353 11.7859 17.1765 11.7138 17.2033C11.6417 17.2301 11.5652 17.242 11.4887 17.2382H3.91318C3.83596 17.2394 3.7593 17.2247 3.68764 17.1949C3.61598 17.1652 3.55076 17.1211 3.49577 17.0651C3.44078 17.0092 3.39711 16.9425 3.3673 16.869C3.3375 16.7955 3.32215 16.7166 3.32215 16.6369C3.32215 16.5572 3.3375 16.4783 3.3673 16.4047C3.39711 16.3312 3.44078 16.2645 3.49577 16.2086C3.55076 16.1526 3.61598 16.1085 3.68764 16.0788C3.7593 16.0491 3.83596 16.0344 3.91318 16.0355H11.4887C11.5069 16.0346 11.5251 16.0346 11.5433 16.0355ZM10.6692 18.441C10.7458 18.4447 10.8208 18.4639 10.8902 18.4975C10.9595 18.5312 11.0218 18.5786 11.0734 18.637C11.1249 18.6955 11.1649 18.7639 11.1908 18.8383C11.2168 18.9127 11.2283 18.9916 11.2248 19.0706C11.2212 19.1496 11.2025 19.2271 11.1699 19.2986C11.1373 19.3702 11.0914 19.4344 11.0347 19.4876C10.9781 19.5408 10.9118 19.582 10.8397 19.6088C10.7676 19.6356 10.6911 19.6475 10.6146 19.6438H4.78728C4.71006 19.6449 4.6334 19.6302 4.56174 19.6005C4.49008 19.5708 4.42486 19.5266 4.36987 19.4707C4.31487 19.4147 4.2712 19.348 4.2414 19.2745C4.21159 19.201 4.19624 19.1221 4.19624 19.0424C4.19624 18.9627 4.21159 18.8838 4.2414 18.8103C4.2712 18.7367 4.31487 18.6701 4.36987 18.6141C4.42486 18.5582 4.49008 18.514 4.56174 18.4843C4.6334 18.4546 4.71006 18.4399 4.78728 18.441H10.6146C10.6328 18.4401 10.651 18.4401 10.6692 18.441Z" fill="black" fill-opacity="0.7"/>
<path d="M11.7926 16.0335C11.7155 15.9961 11.6318 15.9747 11.5465 15.9706C11.5267 15.9696 11.5069 15.9696 11.4871 15.9705H3.91366H3.91318V16.0355C3.83596 16.0344 3.7593 16.0491 3.68764 16.0788C3.61598 16.1085 3.55076 16.1526 3.49577 16.2086C3.44078 16.2645 3.39711 16.3312 3.3673 16.4047C3.3375 16.4783 3.32215 16.5572 3.32215 16.6369C3.32215 16.7166 3.3375 16.7955 3.3673 16.869C3.39711 16.9425 3.44078 17.0092 3.49577 17.0651C3.55076 17.1211 3.61598 17.1652 3.68764 17.1949C3.7593 17.2247 3.83596 17.2394 3.91318 17.2382L11.7926 16.0335ZM11.7926 16.0335C11.8698 16.071 11.939 16.1237 11.9962 16.1885C12.0534 16.2533 12.0976 16.3291 12.1263 16.4113C12.155 16.4936 12.1677 16.5808 12.1638 16.668C12.1598 16.7552 12.1392 16.8409 12.1032 16.92C12.0671 16.9992 12.0162 17.0704 11.9533 17.1295C11.8904 17.1885 11.8167 17.2344 11.7364 17.2642C11.6567 17.2939 11.572 17.3071 11.4871 17.3032H3.91359L11.7926 16.0335ZM10.9186 18.4391C10.8414 18.4016 10.7577 18.3802 10.6723 18.3761C10.6526 18.3751 10.6328 18.3751 10.6131 18.376H4.78769H4.78728V18.441C4.71006 18.4399 4.6334 18.4546 4.56174 18.4843C4.49008 18.514 4.42486 18.5582 4.36987 18.6141C4.31487 18.6701 4.2712 18.7367 4.2414 18.8103C4.21159 18.8838 4.19624 18.9627 4.19624 19.0424C4.19624 19.1221 4.21159 19.201 4.2414 19.2745C4.2712 19.348 4.31487 19.4147 4.36987 19.4707C4.42486 19.5266 4.49008 19.5708 4.56174 19.6005C4.6334 19.6302 4.71006 19.6449 4.78728 19.6438L10.9186 18.4391ZM10.9186 18.4391C10.9957 18.4765 11.0649 18.5292 11.1221 18.594C11.1793 18.6589 11.2235 18.7346 11.2522 18.8169C11.2809 18.8991 11.2937 18.9863 11.2897 19.0735C11.2857 19.1608 11.2651 19.2464 11.2291 19.3256C11.193 19.4047 11.1421 19.4759 11.0792 19.535C11.0163 19.5941 10.9426 19.6399 10.8624 19.6698C10.7826 19.6994 10.6979 19.7127 10.6131 19.7088H4.78769L10.9186 18.4391ZM7.74098 0.935979L7.74098 0.935967L7.7422 0.936059C7.88992 0.947096 8.02922 1.00984 8.13715 1.11342C8.13727 1.11353 8.13738 1.11364 8.1375 1.11376L14.2555 6.82626L14.2556 6.82632C14.3219 6.88843 14.3749 6.96395 14.4113 7.04805C14.4477 7.13214 14.4668 7.22304 14.4673 7.31501V7.31541V20.8466C14.4673 21.8696 13.6504 22.7157 12.6542 22.7157H2.74772C1.75149 22.7157 0.934527 21.8696 0.934527 20.8466L0.934525 7.31541L0.934528 7.31501C0.935094 7.22304 0.954155 7.13214 0.990563 7.04805C1.02697 6.96395 1.07997 6.88843 1.14631 6.82632L1.14638 6.82626L7.26445 1.11368C7.26456 1.11358 7.26466 1.11348 7.26477 1.11338C7.32831 1.05259 7.40316 1.00548 7.48492 0.974965C7.56682 0.944392 7.65391 0.931119 7.74098 0.935979ZM13.1719 7.60676L7.70094 2.49929L2.22999 7.60676V20.8466C2.22999 21.1562 2.45262 21.3829 2.74772 21.3829H12.6542C12.9492 21.3829 13.1719 21.1562 13.1719 20.8466V7.60676ZM7.70094 4.84487C8.85826 4.84487 9.80549 5.82542 9.80549 7.01472C9.80549 8.20402 8.85826 9.18456 7.70094 9.18456C6.54361 9.18456 5.59638 8.20402 5.59638 7.01472C5.59638 5.82542 6.54361 4.84487 7.70094 4.84487ZM7.70094 6.17764C7.2491 6.17764 6.89184 6.54334 6.89184 7.01472C6.89184 7.48609 7.2491 7.85179 7.70094 7.85179C8.15277 7.85179 8.51003 7.48609 8.51003 7.01472C8.51003 6.54334 8.15277 6.17764 7.70094 6.17764Z" stroke="black" stroke-opacity="0.7" stroke-width="0.13"/>
</svg>
