<svg width="83" height="87" viewBox="0 0 83 87" fill="none" xmlns="http://www.w3.org/2000/svg">
<path d="M7.38882 0.793497C6.96922 1.17748 6.69418 1.69441 6.60933 2.25859L0.837047 37.2038C0.781055 37.5455 0.796606 37.8957 0.882715 38.2321C0.968824 38.5684 1.12362 38.8837 1.33729 39.1578L36.3409 83.4917C38.8996 86.7324 43.6608 87.3085 46.8799 84.7668L80.1539 58.4954C83.3731 55.9538 83.9174 51.1889 81.3587 47.9481L46.355 3.61426C46.1379 3.34281 45.8672 3.11911 45.56 2.95731C45.2528 2.79552 44.9158 2.69916 44.5703 2.67433L9.23944 0.182C8.90499 0.154124 8.56879 0.193896 8.25085 0.29895C7.93292 0.404004 7.63976 0.57219 7.38882 0.793497ZM11.1574 5.31502L43.1211 7.56706L77.4441 51.0389C78.3328 52.1646 78.1607 53.6718 77.0425 54.5546L43.7685 80.826C42.6503 81.7088 41.1443 81.5266 40.2555 80.401L5.9325 36.9291L11.1574 5.31502ZM17.6233 13.5045C13.863 16.4734 13.229 22.0242 16.2178 25.8097C19.2065 29.5951 24.7531 30.2661 28.5133 27.2972C32.2736 24.3283 32.9076 18.7775 29.9188 14.992C26.9301 11.2066 21.3836 10.5356 17.6233 13.5045ZM20.7347 17.4453C22.3794 16.1467 24.697 16.4271 26.0043 18.0828C27.3115 19.7385 27.0465 22.0579 25.4019 23.3564C23.7572 24.655 21.4396 24.3746 20.1324 22.7189C18.8251 21.0632 19.0901 18.7438 20.7347 17.4453ZM33.4981 60.1466C33.2506 60.3616 33.0481 60.6237 32.9022 60.9178C32.7563 61.2119 32.6699 61.5322 32.6479 61.8606C32.6258 62.189 32.6686 62.5189 32.7738 62.8315C32.879 63.1441 33.0445 63.4333 33.2609 63.6826C33.4772 63.9319 33.7402 64.1363 34.0349 64.2843C34.3295 64.4323 34.65 64.5208 34.978 64.545C35.306 64.5691 35.6351 64.5283 35.9465 64.4249C36.258 64.3216 36.5456 64.1576 36.7931 63.9425L62.2379 43.8526C62.5002 43.6515 62.7196 43.4 62.8834 43.1126C63.0472 42.8252 63.1522 42.5077 63.1921 42.1785C63.2321 41.8493 63.2063 41.5151 63.1162 41.1951C63.0261 40.8752 62.8735 40.576 62.6674 40.3148C62.4612 40.0537 62.2055 39.8359 61.9152 39.674C61.6249 39.5122 61.3057 39.4095 60.9763 39.372C60.6468 39.3345 60.3136 39.3629 59.9961 39.4556C59.6785 39.5483 59.3829 39.7034 59.1265 39.9118L33.6816 60.0017C33.6182 60.0471 33.557 60.0954 33.4981 60.1466ZM42.6569 65.7101C42.4094 65.9251 42.2069 66.1872 42.061 66.4813C41.9151 66.7754 41.8287 67.0958 41.8067 67.4241C41.7846 67.7525 41.8274 68.0824 41.9326 68.395C42.0378 68.7076 42.2033 68.9968 42.4197 69.2461C42.636 69.4954 42.899 69.6998 43.1937 69.8478C43.4883 69.9958 43.8088 70.0844 44.1368 70.1085C44.4648 70.1326 44.7939 70.0918 45.1053 69.9885C45.4168 69.8851 45.7044 69.7211 45.9519 69.506L65.5248 54.0523C65.7871 53.8512 66.0065 53.5996 66.1703 53.3122C66.3341 53.0248 66.4391 52.7073 66.479 52.3782C66.519 52.049 66.4932 51.7147 66.4031 51.3948C66.313 51.0748 66.1605 50.7756 65.9543 50.5145C65.7481 50.2533 65.4924 50.0355 65.2021 49.8737C64.9118 49.7118 64.5927 49.6092 64.2632 49.5717C63.9337 49.5342 63.6005 49.5626 63.283 49.6553C62.9654 49.7479 62.6698 49.903 62.4134 50.1115L42.8404 65.5652C42.777 65.6106 42.7158 65.6589 42.6569 65.7101Z" fill="url(#paint0_linear_219_2097)"/>
<defs>
<linearGradient id="paint0_linear_219_2097" x1="7.50888" y1="0.694034" x2="63.5169" y2="71.6311" gradientUnits="userSpaceOnUse">
<stop stop-color="#6367C8"/>
<stop offset="1" stop-color="#944DD7"/>
</linearGradient>
</defs>
</svg>
