<svg width="12" height="19" viewBox="0 0 12 19" fill="none" xmlns="http://www.w3.org/2000/svg">
<path d="M5.96739 0.000770438C5.84871 0.00946251 5.73653 0.0589247 5.64946 0.140956L0.171196 5.15464C0.117692 5.20374 0.0748497 5.26354 0.0453808 5.33025C0.0159119 5.39697 0.000458822 5.46914 0 5.54221V17.4167C0 18.2847 0.707111 19 1.56522 19H10.4348C11.2929 19 12 18.2847 12 17.4167V5.54221C11.9995 5.46914 11.9841 5.39697 11.9546 5.33025C11.9252 5.26354 11.8823 5.20374 11.8288 5.15464L6.35054 0.140956C6.29924 0.0927875 6.23888 0.0555534 6.17305 0.0314699C6.10723 0.00738652 6.03729 -0.00305378 5.96739 0.000770438ZM6 1.2377L10.9565 5.77311V17.4167C10.9565 17.7182 10.7329 17.9445 10.4348 17.9445H1.56522C1.26715 17.9445 1.04348 17.7182 1.04348 17.4167V5.77311L6 1.2377ZM6 3.43119C4.99766 3.43119 4.17391 4.26443 4.17391 5.27833C4.17391 6.29223 4.99766 7.12548 6 7.12548C7.00234 7.12548 7.82609 6.29223 7.82609 5.27833C7.82609 4.26443 7.00234 3.43119 6 3.43119ZM6 4.4867C6.4384 4.4867 6.78261 4.83488 6.78261 5.27833C6.78261 5.72179 6.4384 6.06997 6 6.06997C5.5616 6.06997 5.21739 5.72179 5.21739 5.27833C5.21739 4.83488 5.5616 4.4867 6 4.4867ZM2.55978 13.1947C2.49126 13.1979 2.42403 13.2148 2.36195 13.2443C2.29987 13.2738 2.24414 13.3154 2.19795 13.3667C2.15176 13.418 2.11602 13.478 2.09276 13.5433C2.0695 13.6086 2.05918 13.6779 2.0624 13.7472C2.06561 13.8165 2.08229 13.8845 2.11148 13.9473C2.14067 14.0101 2.18181 14.0664 2.23254 14.1131C2.28327 14.1599 2.3426 14.196 2.40714 14.2195C2.47168 14.243 2.54017 14.2535 2.6087 14.2502H9.3913C9.46044 14.2512 9.52908 14.2383 9.59324 14.2122C9.6574 14.1861 9.71579 14.1474 9.76503 14.0983C9.81427 14.0492 9.85336 13.9907 9.88005 13.9261C9.90674 13.8616 9.92048 13.7924 9.92048 13.7224C9.92048 13.6525 9.90674 13.5833 9.88005 13.5187C9.85336 13.4542 9.81427 13.3957 9.76503 13.3466C9.71579 13.2975 9.6574 13.2588 9.59324 13.2327C9.52908 13.2066 9.46044 13.1937 9.3913 13.1947H2.6087C2.5924 13.1939 2.57608 13.1939 2.55978 13.1947ZM3.34239 15.3057C3.27387 15.3089 3.20664 15.3258 3.14456 15.3553C3.08248 15.3848 3.02675 15.4264 2.98056 15.4777C2.93437 15.529 2.89863 15.5891 2.87537 15.6543C2.85211 15.7196 2.84179 15.7889 2.845 15.8582C2.84822 15.9275 2.8649 15.9955 2.89409 16.0583C2.92328 16.1211 2.96442 16.1775 3.01515 16.2242C3.06588 16.2709 3.12521 16.307 3.18975 16.3305C3.25429 16.3541 3.32278 16.3645 3.3913 16.3612H8.6087C8.67783 16.3622 8.74647 16.3493 8.81063 16.3232C8.87479 16.2971 8.93318 16.2584 8.98242 16.2093C9.03166 16.1602 9.07076 16.1017 9.09744 16.0372C9.12413 15.9726 9.13787 15.9034 9.13787 15.8335C9.13787 15.7635 9.12413 15.6943 9.09744 15.6298C9.07076 15.5652 9.03166 15.5067 8.98242 15.4576C8.93318 15.4085 8.87479 15.3698 8.81063 15.3437C8.74647 15.3176 8.67783 15.3047 8.6087 15.3057H3.3913C3.37501 15.3049 3.35869 15.3049 3.34239 15.3057Z" fill="black" fill-opacity="0.7"/>
</svg>
