<svg width="83" height="87" viewBox="0 0 83 87" fill="none" xmlns="http://www.w3.org/2000/svg">
<path d="M7.38882 0.793375C6.96922 1.17735 6.69418 1.69429 6.60933 2.25847L0.837047 37.2036C0.781055 37.5454 0.796606 37.8956 0.882715 38.2319C0.968824 38.5683 1.12362 38.8835 1.33729 39.1577L36.3409 83.4916C38.8996 86.7323 43.6608 87.3083 46.8799 84.7667L80.1539 58.4953C83.3731 55.9536 83.9173 51.1887 81.3587 47.948L46.355 3.61414C46.1379 3.34269 45.8672 3.11899 45.56 2.95719C45.2528 2.7954 44.9158 2.69903 44.5703 2.67421L9.23944 0.181878C8.90499 0.154002 8.56878 0.193775 8.25085 0.298828C7.93292 0.403881 7.63976 0.572069 7.38882 0.793375ZM11.1574 5.3149L43.1211 7.56693L77.4441 51.0388C78.3328 52.1644 78.1607 53.6717 77.0425 54.5545L43.7685 80.8259C42.6503 81.7087 41.1443 81.5265 40.2555 80.4008L5.9325 36.929L11.1574 5.3149ZM17.6233 13.5044C13.863 16.4732 13.229 22.0241 16.2178 25.8095C19.2065 29.595 24.7531 30.266 28.5133 27.2971C32.2736 24.3282 32.9076 18.7774 29.9188 14.9919C26.9301 11.2065 21.3836 10.5355 17.6233 13.5044ZM20.7347 17.4451C22.3794 16.1466 24.697 16.427 26.0043 18.0827C27.3115 19.7383 27.0465 22.0578 25.4019 23.3563C23.7572 24.6549 21.4396 24.3745 20.1324 22.7188C18.8251 21.0631 19.0901 18.7437 20.7347 17.4451ZM33.4981 60.1464C33.2506 60.3615 33.0481 60.6235 32.9022 60.9176C32.7563 61.2117 32.6699 61.5321 32.6479 61.8605C32.6258 62.1888 32.6686 62.5187 32.7738 62.8314C32.879 63.144 33.0445 63.4332 33.2609 63.6825C33.4772 63.9317 33.7402 64.1362 34.0349 64.2842C34.3295 64.4321 34.65 64.5207 34.978 64.5449C35.306 64.569 35.6351 64.5282 35.9465 64.4248C36.258 64.3214 36.5456 64.1575 36.7931 63.9424L62.2379 43.8525C62.5002 43.6514 62.7196 43.3999 62.8834 43.1125C63.0472 42.8251 63.1522 42.5076 63.1921 42.1784C63.2321 41.8492 63.2063 41.515 63.1162 41.195C63.0261 40.8751 62.8735 40.5758 62.6674 40.3147C62.4612 40.0536 62.2055 39.8358 61.9152 39.6739C61.6249 39.5121 61.3057 39.4094 60.9763 39.3719C60.6468 39.3344 60.3136 39.3628 59.9961 39.4555C59.6785 39.5482 59.3829 39.7032 59.1265 39.9117L33.6816 60.0016C33.6182 60.0469 33.557 60.0953 33.4981 60.1464ZM42.6569 65.71C42.4094 65.925 42.2069 66.1871 42.061 66.4812C41.9151 66.7753 41.8287 67.0956 41.8067 67.424C41.7846 67.7523 41.8274 68.0823 41.9326 68.3949C42.0378 68.7075 42.2033 68.9967 42.4197 69.246C42.636 69.4953 42.899 69.6997 43.1937 69.8477C43.4883 69.9957 43.8088 70.0842 44.1368 70.1084C44.4648 70.1325 44.7939 70.0917 45.1053 69.9883C45.4168 69.885 45.7044 69.721 45.9519 69.5059L65.5248 54.0521C65.7871 53.8511 66.0065 53.5995 66.1703 53.3121C66.3341 53.0247 66.4391 52.7072 66.479 52.378C66.519 52.0489 66.4932 51.7146 66.4031 51.3947C66.313 51.0747 66.1605 50.7755 65.9543 50.5144C65.7481 50.2532 65.4924 50.0354 65.2021 49.8736C64.9118 49.7117 64.5927 49.609 64.2632 49.5715C63.9337 49.534 63.6005 49.5625 63.283 49.6551C62.9654 49.7478 62.6698 49.9029 62.4134 50.1114L42.8404 65.5651C42.777 65.6105 42.7158 65.6588 42.6569 65.71Z" fill="url(#paint0_linear_2601:1068)"/>
<defs>
<linearGradient id="paint0_linear_2601:1068" x1="7.50888" y1="0.693912" x2="63.5169" y2="71.631" gradientUnits="userSpaceOnUse">
<stop stop-color="#6367C8"/>
<stop offset="1" stop-color="#944DD7"/>
</linearGradient>
</defs>
</svg>
