<svg width="28" height="28" viewBox="0 0 28 28" fill="none" xmlns="http://www.w3.org/2000/svg">
<circle cx="13.9184" cy="13.9184" r="13.9184" fill="#7B13FF" fill-opacity="0.9"/>
<path fill-rule="evenodd" clip-rule="evenodd" d="M21.5579 11.0312L13.1131 20.2231C12.849 20.5106 12.4946 20.6896 12.1146 20.7276L9.45059 20.9936C8.64529 21.074 7.96004 20.3909 8.00181 19.5493L8.14005 16.7652C8.15977 16.368 8.3159 15.9913 8.57999 15.7039L17.0248 6.51199C17.6326 5.85049 18.6394 5.82689 19.2737 6.45925L21.5098 8.68847C22.1441 9.32084 22.1657 10.3697 21.5579 11.0312ZM9.34566 16.4672C9.25764 16.5631 9.2056 16.6886 9.19902 16.821L9.06082 19.6051C9.05244 19.7734 9.18949 19.9101 9.35055 19.894L12.0146 19.6279C12.1412 19.6153 12.2594 19.5556 12.3474 19.4598L18.358 12.9174L15.385 9.89364L9.34566 16.4672ZM16.1187 9.09505L19.0917 12.1189L20.7922 10.2679C20.9948 10.0474 20.9876 9.69775 20.7762 9.48695L18.5402 7.25775C18.3287 7.04697 17.9931 7.05484 17.7905 7.27532L16.1187 9.09505Z" fill="white"/>
</svg>
