<svg width="16" height="17" viewBox="0 0 16 17" fill="none" xmlns="http://www.w3.org/2000/svg">
<path fill-rule="evenodd" clip-rule="evenodd" d="M14.5579 6.03122L6.11308 15.2231C5.849 15.5106 5.4946 15.6896 5.11461 15.7276L2.45059 15.9936C1.64529 16.074 0.960042 15.3909 1.00181 14.5493L1.14005 11.7652C1.15977 11.368 1.3159 10.9913 1.57999 10.7039L10.0248 1.51199C10.6326 0.850486 11.6394 0.826893 12.2737 1.45925L14.5098 3.68847C15.1441 4.32084 15.1657 5.36972 14.5579 6.03122ZM2.34566 11.4672C2.25764 11.5631 2.2056 11.6886 2.19902 11.821L2.06082 14.6051C2.05244 14.7734 2.18949 14.9101 2.35055 14.894L5.01457 14.6279C5.14124 14.6153 5.25936 14.5556 5.34739 14.4598L11.358 7.91744L8.38501 4.89363L2.34566 11.4672ZM9.11868 4.09505L12.0917 7.11887L13.7922 5.26787C13.9948 5.04736 13.9876 4.69775 13.7762 4.48695L11.5402 2.25775C11.3287 2.04697 10.9931 2.05484 10.7905 2.27532L9.11868 4.09505Z" fill="white" stroke="white" stroke-width="0.3"/>
</svg>
