<svg width="20" height="19" viewBox="0 0 20 19" fill="none" xmlns="http://www.w3.org/2000/svg">
<path d="M7.30149 9.03463C5.07271 9.03463 3.28418 7.2461 3.28418 5.01731C3.28418 2.78853 5.07271 1 7.30149 1C9.50276 1 11.3188 2.78853 11.3188 5.01731C11.3188 7.2461 9.50276 9.03463 7.30149 9.03463ZM7.30149 2.10063C5.70557 2.10063 4.38481 3.42139 4.38481 5.01731C4.38481 6.61323 5.70557 7.93399 7.30149 7.93399C8.89741 7.93399 10.2182 6.61323 10.2182 5.01731C10.2182 3.42139 8.89741 2.10063 7.30149 2.10063Z" fill="black" fill-opacity="0.7"/>
<path d="M3.23418 5.01731C3.23418 7.27371 5.04509 9.08463 7.30149 9.08463C9.53015 9.08463 11.3688 7.27393 11.3688 5.01731C11.3688 2.76069 9.53015 0.95 7.30149 0.95C5.04509 0.95 3.23418 2.76091 3.23418 5.01731ZM4.43481 5.01731C4.43481 3.44901 5.73319 2.15063 7.30149 2.15063C8.8698 2.15063 10.1682 3.44901 10.1682 5.01731C10.1682 6.58562 8.8698 7.88399 7.30149 7.88399C5.73319 7.88399 4.43481 6.58562 4.43481 5.01731Z" stroke="black" stroke-opacity="0.7" stroke-width="0.1"/>
<path d="M15.3074 9.36477C13.739 9.36477 12.4458 8.07153 12.4458 6.50313C12.4458 4.93472 13.739 3.64148 15.3074 3.64148C16.8759 3.64148 18.1691 4.93472 18.1691 6.50313C18.1691 8.07153 16.8759 9.36477 15.3074 9.36477ZM15.3074 4.74211C14.3444 4.74211 13.5464 5.54007 13.5464 6.50313C13.5464 7.46618 14.3444 8.26414 15.3074 8.26414C16.2705 8.26414 17.0685 7.46618 17.0685 6.50313C17.0685 5.54007 16.2705 4.74211 15.3074 4.74211Z" fill="black" fill-opacity="0.7"/>
<path d="M12.3958 6.50313C12.3958 8.09914 13.7114 9.41477 15.3074 9.41477C16.9035 9.41477 18.2191 8.09914 18.2191 6.50313C18.2191 4.90711 16.9035 3.59148 15.3074 3.59148C13.7114 3.59148 12.3958 4.90711 12.3958 6.50313ZM13.5964 6.50313C13.5964 5.56769 14.372 4.79211 15.3074 4.79211C16.2429 4.79211 17.0185 5.56769 17.0185 6.50313C17.0185 7.43857 16.2429 8.21414 15.3074 8.21414C14.372 8.21414 13.5964 7.43857 13.5964 6.50313Z" stroke="black" stroke-opacity="0.7" stroke-width="0.1"/>
<path d="M15.335 15.4459C14.2344 15.4459 13.519 15.3908 12.9412 15.3083L12.5009 15.2257V14.6479C12.5009 13.5198 12.1432 12.3916 11.4553 11.3735L11.2627 11.0984L11.4003 10.8232C12.1707 9.28232 13.6841 8.29175 15.28 8.29175C17.6464 8.29175 19.6825 10.438 19.7101 12.9694C19.7376 15.4459 17.3987 15.4459 15.335 15.4459ZM13.6015 14.2902C14.0418 14.3452 14.5921 14.3452 15.335 14.3452C18.0591 14.3452 18.6369 14.0976 18.6369 12.9694C18.6094 11.0708 17.0685 9.39238 15.3075 9.39238C14.2344 9.39238 13.1888 10.0252 12.5559 11.0433C13.1888 12.0614 13.519 13.1621 13.6015 14.2902Z" fill="black" fill-opacity="0.7"/>
<path d="M12.9319 15.3574L12.9319 15.3575L12.9341 15.3578C13.5148 15.4407 14.2327 15.4959 15.335 15.4959H15.3414C16.3686 15.4959 17.4764 15.4959 18.3241 15.1832C18.7503 15.026 19.114 14.7887 19.369 14.4301C19.6241 14.0714 19.767 13.596 19.7601 12.9689C19.7323 10.4131 17.6768 8.24175 15.28 8.24175C13.6632 8.24175 12.1336 9.2448 11.3556 10.8008L11.218 11.076L11.2047 11.1026L11.2217 11.127L11.4141 11.4019C12.0967 12.4123 12.4509 13.5306 12.4509 14.6479V15.2257V15.2672L12.4917 15.2749L12.9319 15.3574ZM15.335 14.2952C14.6137 14.2952 14.078 14.2952 13.6483 14.2455C13.561 13.134 13.2339 12.0491 12.6148 11.0435C13.2415 10.0532 14.2634 9.44238 15.3075 9.44238C17.037 9.44238 18.5596 11.0944 18.5869 12.9698C18.5869 13.2483 18.551 13.4656 18.4599 13.6369C18.3697 13.8065 18.2224 13.9363 17.9882 14.0343C17.7526 14.1328 17.4309 14.1985 16.9955 14.2391C16.5606 14.2798 16.0156 14.2952 15.335 14.2952Z" stroke="black" stroke-opacity="0.7" stroke-width="0.1"/>
<path d="M7.30113 18.0597C4.19184 18.0597 1 18.0597 1 14.6477C1 11.0706 3.9442 7.93384 7.30113 7.93384C10.6581 7.93384 13.6023 11.0706 13.6023 14.6477C13.6023 18.0597 10.4104 18.0597 7.30113 18.0597ZM7.30113 9.03447C4.52203 9.03447 2.10063 11.6485 2.10063 14.6477C2.10063 16.6288 3.33885 16.959 7.30113 16.959C11.2634 16.959 12.5016 16.6288 12.5016 14.6477C12.5016 11.6485 10.0802 9.03447 7.30113 9.03447Z" fill="black" fill-opacity="0.7"/>
<path d="M0.95 14.6477C0.95 15.5086 1.15145 16.1594 1.50683 16.6496C1.8621 17.1397 2.36775 17.4646 2.96767 17.6802C4.16249 18.1097 5.74478 18.1097 7.29428 18.1097H7.30113H7.30797C8.85748 18.1097 10.4398 18.1097 11.6346 17.6802C12.2345 17.4646 12.7402 17.1397 13.0954 16.6496C13.4508 16.1594 13.6523 15.5086 13.6523 14.6477C13.6523 11.0461 10.6886 7.88384 7.30113 7.88384C3.91364 7.88384 0.95 11.0461 0.95 14.6477ZM2.15063 14.6477C2.15063 11.6724 4.55317 9.08447 7.30113 9.08447C10.0491 9.08447 12.4516 11.6724 12.4516 14.6477C12.4516 15.1384 12.3748 15.5207 12.2029 15.8197C12.0316 16.1177 11.7628 16.3382 11.3683 16.5C10.9726 16.6624 10.4521 16.765 9.78071 16.8267C9.10978 16.8884 8.2913 16.909 7.30113 16.909C6.31095 16.909 5.49248 16.8884 4.82154 16.8267C4.1502 16.765 3.62968 16.6624 3.234 16.5C2.83949 16.3382 2.57067 16.1177 2.39936 15.8197C2.22741 15.5207 2.15063 15.1384 2.15063 14.6477Z" stroke="black" stroke-opacity="0.7" stroke-width="0.1"/>
</svg>
