<svg width="20" height="19" viewBox="0 0 20 19" fill="none" xmlns="http://www.w3.org/2000/svg">
<path fill-rule="evenodd" clip-rule="evenodd" d="M7.27556 9.03454C7.2842 9.0346 7.29284 9.03463 7.30149 9.03463C7.30997 9.03463 7.31844 9.0346 7.32691 9.03455C8.87 9.04352 10.3007 9.85757 11.2648 11.0942L11.2627 11.0984L11.4553 11.3735C12.1432 12.3916 12.5009 13.5198 12.5009 14.6479V14.729C12.4668 16.6379 11.2086 16.959 7.30113 16.959C3.33885 16.959 2.10063 16.6288 2.10063 14.6477C2.10063 11.6577 4.50719 9.05051 7.27556 9.03454ZM5.10657 8.38801C4.00715 7.67341 3.28418 6.43434 3.28418 5.01731C3.28418 2.78853 5.07271 1 7.30149 1C9.50276 1 11.3188 2.78853 11.3188 5.01731C11.3188 6.43241 10.5867 7.67003 9.48876 8.38508C10.3808 8.76134 11.1879 9.35507 11.8462 10.0982C12.2914 9.50002 12.8617 9.02538 13.499 8.71302C12.858 8.18616 12.4459 7.38848 12.4459 6.50313C12.4459 4.93472 13.7391 3.64148 15.3075 3.64148C16.8759 3.64148 18.1692 4.93472 18.1692 6.50313C18.1692 7.39746 17.7487 8.20232 17.0964 8.72896C18.6018 9.48241 19.69 11.1235 19.7101 12.9695C19.7376 15.4459 17.3987 15.4459 15.335 15.4459C14.5869 15.4459 14.0167 15.4205 13.5467 15.3782C13.1101 18.0597 10.1705 18.0597 7.30113 18.0597C4.19184 18.0597 1 18.0597 1 14.6477C1 11.8834 2.75829 9.38198 5.10657 8.38801ZM7.32544 7.93389C7.31734 7.93386 7.30923 7.93384 7.30113 7.93384C7.29318 7.93384 7.28523 7.93386 7.27729 7.93389C5.69224 7.92062 4.38481 6.60516 4.38481 5.01731C4.38481 3.42139 5.70557 2.10063 7.30149 2.10063C8.89741 2.10063 10.2182 3.42139 10.2182 5.01731C10.2182 6.60524 8.9106 7.92076 7.32544 7.93389ZM13.4784 13.3785C13.5385 13.6796 13.5791 13.9839 13.6015 14.2902C14.0418 14.3453 14.5921 14.3453 15.335 14.3453H15.335C18.0591 14.3453 18.6369 14.0976 18.6369 12.9695C18.6094 11.0709 17.0685 9.3924 15.3075 9.3924C14.2344 9.3924 13.1888 10.0253 12.5559 11.0434C12.8618 11.5354 13.097 12.0468 13.2677 12.5712C13.3539 12.8345 13.4246 13.104 13.4784 13.3785ZM13.5465 6.50313C13.5465 5.54007 14.3445 4.74211 15.3075 4.74211C16.2706 4.74211 17.0685 5.54007 17.0685 6.50313C17.0685 7.46618 16.2706 8.26414 15.3075 8.26414C14.3445 8.26414 13.5465 7.46618 13.5465 6.50313Z" fill="#454545"/>
<path d="M7.27556 9.03454L7.27664 8.85954L7.27455 8.85955L7.27556 9.03454ZM7.32691 9.03455L7.32793 8.85954L7.32581 8.85955L7.32691 9.03455ZM11.2648 11.0942L11.4213 11.1725L11.4707 11.0737L11.4028 10.9866L11.2648 11.0942ZM11.2627 11.0984L11.1062 11.0201L11.0596 11.1134L11.1193 11.1987L11.2627 11.0984ZM11.4553 11.3735L11.6003 11.2756L11.5987 11.2732L11.4553 11.3735ZM12.5009 14.729L12.6759 14.7321V14.729H12.5009ZM5.10657 8.38801L5.17478 8.54917L5.4781 8.42078L5.20194 8.24128L5.10657 8.38801ZM9.48876 8.38508L9.39326 8.23844L9.11714 8.41826L9.42075 8.54633L9.48876 8.38508ZM11.8462 10.0982L11.7152 10.2142L11.858 10.3754L11.9866 10.2026L11.8462 10.0982ZM13.499 8.71302L13.5761 8.87017L13.8203 8.75049L13.6102 8.57782L13.499 8.71302ZM17.0964 8.72896L16.9865 8.5928L16.7749 8.7637L17.0181 8.88545L17.0964 8.72896ZM19.7101 12.9695L19.5351 12.9714V12.9714L19.7101 12.9695ZM13.5467 15.3782L13.5624 15.2039L13.4002 15.1894L13.374 15.3501L13.5467 15.3782ZM7.32544 7.93389L7.32465 8.10891L7.32689 8.10889L7.32544 7.93389ZM7.27729 7.93389L7.27582 8.1089L7.27807 8.10889L7.27729 7.93389ZM13.6015 14.2902L13.427 14.303L13.4375 14.4461L13.5798 14.4639L13.6015 14.2902ZM13.4784 13.3785L13.3067 13.4122L13.3068 13.4127L13.4784 13.3785ZM18.6369 12.9695H18.812L18.8119 12.9669L18.6369 12.9695ZM12.5559 11.0434L12.4073 10.951L12.3499 11.0434L12.4073 11.1357L12.5559 11.0434ZM13.2677 12.5712L13.1013 12.6254L13.1014 12.6257L13.2677 12.5712ZM7.30149 8.85963C7.29321 8.85963 7.28493 8.8596 7.27664 8.85955L7.27448 9.20954C7.28346 9.2096 7.29247 9.20963 7.30149 9.20963V8.85963ZM7.32581 8.85955C7.31772 8.8596 7.30962 8.85963 7.30149 8.85963V9.20963C7.31032 9.20963 7.31916 9.2096 7.32801 9.20954L7.32581 8.85955ZM11.4028 10.9866C10.4114 9.71497 8.93316 8.86889 7.32793 8.85955L7.32589 9.20954C8.80684 9.21816 10.1899 10.0002 11.1268 11.2018L11.4028 10.9866ZM11.4192 11.1766L11.4213 11.1725L11.1082 11.016L11.1062 11.0201L11.4192 11.1766ZM11.5987 11.2732L11.4061 10.998L11.1193 11.1987L11.3119 11.4739L11.5987 11.2732ZM12.6759 14.6479C12.6759 13.4821 12.3062 12.3202 11.6003 11.2756L11.3103 11.4715C11.9802 12.463 12.3259 13.5574 12.3259 14.6479H12.6759ZM12.6759 14.729V14.6479H12.3259V14.729H12.6759ZM7.30113 17.134C9.24741 17.134 10.574 17.056 11.4178 16.7226C11.8478 16.5528 12.1645 16.3125 12.3726 15.9745C12.5788 15.6395 12.6671 15.2268 12.6759 14.7321L12.3259 14.7259C12.3177 15.1857 12.2359 15.5289 12.0745 15.791C11.915 16.0501 11.6665 16.2481 11.2892 16.3971C10.5186 16.7015 9.26229 16.784 7.30113 16.784V17.134ZM1.92563 14.6477C1.92563 15.1591 2.00517 15.5855 2.20431 15.9319C2.40569 16.2821 2.71853 16.5318 3.1486 16.7082C3.57462 16.883 4.12088 16.9882 4.80094 17.0508C5.48241 17.1134 6.30917 17.134 7.30113 17.134V16.784C6.31194 16.784 5.49808 16.7634 4.83299 16.7022C4.16649 16.6409 3.66027 16.5398 3.28145 16.3844C2.90668 16.2306 2.66233 16.0263 2.50772 15.7574C2.35088 15.4846 2.27563 15.1269 2.27563 14.6477H1.92563ZM7.27455 8.85955C4.39782 8.87614 1.92563 11.574 1.92563 14.6477H2.27563C2.27563 11.7414 4.61657 9.22488 7.27657 9.20954L7.27455 8.85955ZM5.20194 8.24128C4.15055 7.5579 3.45918 6.37319 3.45918 5.01731H3.10918C3.10918 6.4955 3.86374 7.78892 5.0112 8.53474L5.20194 8.24128ZM3.45918 5.01731C3.45918 2.88518 5.16936 1.175 7.30149 1.175V0.825C4.97606 0.825 3.10918 2.69188 3.10918 5.01731H3.45918ZM7.30149 1.175C9.40689 1.175 11.1438 2.88596 11.1438 5.01731H11.4938C11.4938 2.6911 9.59863 0.825 7.30149 0.825V1.175ZM11.1438 5.01731C11.1438 6.37036 10.4441 7.55408 9.39326 8.23844L9.58426 8.53173C10.7294 7.78598 11.4938 6.49446 11.4938 5.01731H11.1438ZM9.42075 8.54633C10.2871 8.91174 11.0731 9.48936 11.7152 10.2142L11.9772 9.98212C11.3027 9.22079 10.4745 8.61095 9.55677 8.22384L9.42075 8.54633ZM11.9866 10.2026C12.4156 9.62621 12.9644 9.16992 13.5761 8.87017L13.422 8.55588C12.759 8.88085 12.1671 9.37383 11.7058 9.99369L11.9866 10.2026ZM13.6102 8.57782C13.0071 8.08223 12.6209 7.33309 12.6209 6.50313H12.2709C12.2709 7.44387 12.7088 8.29009 13.3879 8.84822L13.6102 8.57782ZM12.6209 6.50313C12.6209 5.03137 13.8358 3.81648 15.3075 3.81648V3.46648C13.6425 3.46648 12.2709 4.83807 12.2709 6.50313H12.6209ZM15.3075 3.81648C16.7793 3.81648 17.9942 5.03137 17.9942 6.50313H18.3442C18.3442 4.83807 16.9726 3.46648 15.3075 3.46648V3.81648ZM17.9942 6.50313C17.9942 7.3415 17.6 8.09741 16.9865 8.5928L17.2064 8.86512C17.8973 8.30723 18.3442 7.45341 18.3442 6.50313H17.9942ZM17.0181 8.88545C18.4656 9.60991 19.5157 11.1918 19.5351 12.9714L19.885 12.9676C19.8643 11.0552 18.7381 9.35491 17.1748 8.57247L17.0181 8.88545ZM19.5351 12.9714C19.5416 13.5624 19.4072 13.9882 19.1857 14.2997C18.9637 14.6118 18.6426 14.8259 18.2462 14.9721C17.4424 15.2686 16.3768 15.2709 15.335 15.2709V15.6209C16.357 15.6209 17.4926 15.6232 18.3673 15.3005C18.8102 15.1372 19.1975 14.887 19.4709 14.5026C19.7446 14.1176 19.8922 13.6147 19.885 12.9675L19.5351 12.9714ZM15.335 15.2709C14.5908 15.2709 14.026 15.2456 13.5624 15.2039L13.5311 15.5525C14.0074 15.5953 14.583 15.6209 15.335 15.6209V15.2709ZM13.374 15.3501C13.2702 15.9875 13.0201 16.4554 12.6672 16.8039C12.3122 17.1545 11.8431 17.3942 11.2872 17.5565C10.1681 17.8832 8.74368 17.8847 7.30113 17.8847V18.2347C8.72791 18.2347 10.208 18.2361 11.3852 17.8925C11.9775 17.7196 12.5045 17.4565 12.9131 17.053C13.3238 16.6474 13.6049 16.1097 13.7195 15.4064L13.374 15.3501ZM7.30113 17.8847C5.73613 17.8847 4.19552 17.8824 3.04377 17.4685C2.47358 17.2635 2.01071 16.9613 1.689 16.5175C1.36762 16.0742 1.175 15.4729 1.175 14.6477H0.825C0.825 15.5285 1.03136 16.2067 1.40562 16.723C1.77954 17.2388 2.30896 17.5763 2.92539 17.7979C4.14688 18.2369 5.75684 18.2347 7.30113 18.2347V17.8847ZM1.175 14.6477C1.175 11.955 2.89002 9.51626 5.17478 8.54917L5.03836 8.22685C2.62657 9.24771 0.825 11.8118 0.825 14.6477H1.175ZM7.30113 8.10884C7.30897 8.10884 7.31681 8.10886 7.32465 8.10889L7.32623 7.75889C7.31786 7.75886 7.3095 7.75884 7.30113 7.75884V8.10884ZM7.27807 8.10889C7.28575 8.10885 7.29344 8.10884 7.30113 8.10884V7.75884C7.29292 7.75884 7.28472 7.75886 7.27651 7.75889L7.27807 8.10889ZM4.20981 5.01731C4.20981 6.70136 5.59483 8.09481 7.27582 8.10888L7.27875 7.7589C5.78966 7.74643 4.55981 6.50896 4.55981 5.01731H4.20981ZM7.30149 1.92563C5.60892 1.92563 4.20981 3.32474 4.20981 5.01731H4.55981C4.55981 3.51804 5.80222 2.27563 7.30149 2.27563V1.92563ZM10.3932 5.01731C10.3932 3.32474 8.99406 1.92563 7.30149 1.92563V2.27563C8.80076 2.27563 10.0432 3.51804 10.0432 5.01731H10.3932ZM7.32689 8.10889C9.00801 8.09496 10.3932 6.70145 10.3932 5.01731H10.0432C10.0432 6.50904 8.81319 7.74656 7.32399 7.7589L7.32689 8.10889ZM13.7761 14.2775C13.7532 13.9642 13.7115 13.6527 13.6501 13.3443L13.3068 13.4127C13.3654 13.7065 13.4051 14.0037 13.427 14.303L13.7761 14.2775ZM15.335 14.1703C14.5877 14.1703 14.0502 14.1699 13.6232 14.1166L13.5798 14.4639C14.0334 14.5206 14.5965 14.5203 15.335 14.5203V14.1703ZM15.335 14.1703H15.335V14.5203H15.335V14.1703ZM18.4619 12.9695C18.4619 13.2397 18.4267 13.4332 18.3496 13.5782C18.2756 13.7173 18.1533 13.8297 17.94 13.919C17.7217 14.0103 17.4147 14.0745 16.9839 14.1147C16.5549 14.1548 16.0144 14.1703 15.335 14.1703V14.5203C16.0177 14.5203 16.571 14.5048 17.0165 14.4632C17.4602 14.4217 17.8084 14.3534 18.0751 14.2419C18.3467 14.1282 18.5391 13.9671 18.6586 13.7426C18.7749 13.5238 18.8119 13.2633 18.8119 12.9695H18.4619ZM15.3075 9.5674C16.9584 9.5674 18.4356 11.1539 18.462 12.972L18.8119 12.9669C18.7832 10.9878 17.1787 9.2174 15.3075 9.2174V9.5674ZM12.7046 11.1357C13.3105 10.161 14.3037 9.5674 15.3075 9.5674V9.2174C14.1651 9.2174 13.0672 9.88949 12.4073 10.951L12.7046 11.1357ZM13.4341 12.5171C13.2591 11.9794 13.018 11.4552 12.7046 10.951L12.4073 11.1357C12.7057 11.6157 12.9349 12.1142 13.1013 12.6254L13.4341 12.5171ZM13.1014 12.6257C13.1854 12.8823 13.2543 13.1449 13.3067 13.4122L13.6502 13.3448C13.595 13.0632 13.5224 12.7867 13.434 12.5167L13.1014 12.6257ZM15.3075 4.56711C14.2478 4.56711 13.3715 5.44342 13.3715 6.50313H13.7215C13.7215 5.63672 14.4411 4.91711 15.3075 4.91711V4.56711ZM17.2435 6.50313C17.2435 5.44342 16.3672 4.56711 15.3075 4.56711V4.91711C16.1739 4.91711 16.8935 5.63672 16.8935 6.50313H17.2435ZM15.3075 8.43914C16.3672 8.43914 17.2435 7.56283 17.2435 6.50313H16.8935C16.8935 7.36953 16.1739 8.08914 15.3075 8.08914V8.43914ZM13.3715 6.50313C13.3715 7.56283 14.2478 8.43914 15.3075 8.43914V8.08914C14.4411 8.08914 13.7215 7.36953 13.7215 6.50313H13.3715Z" fill="#454545"/>
</svg>
