<svg width="14" height="14" viewBox="0 0 14 14" fill="none" xmlns="http://www.w3.org/2000/svg">
<path d="M6.59291 0C5.98607 0 5.49409 0.491978 5.49409 1.09882V5.49409H1.09882C0.491978 5.49409 0 5.98603 0 6.59291C0 7.19975 0.491978 7.69173 1.09882 7.69173H5.49409V12.087C5.49409 12.6939 5.98607 13.1858 6.59291 13.1858C7.19979 13.1858 7.69173 12.6939 7.69173 12.087V7.69173H12.087C12.6938 7.69173 13.1858 7.19975 13.1858 6.59291C13.1858 5.98603 12.6938 5.49409 12.087 5.49409H7.69173V1.09882C7.69173 0.491978 7.19979 0 6.59291 0Z" fill="#7B13FF" fill-opacity="0.9"/>
</svg>
