<svg width="20" height="21" viewBox="0 0 20 21" fill="none" xmlns="http://www.w3.org/2000/svg">
<path d="M0.206825 12.5812L1.19802 10.8833C1.21772 10.8538 1.23477 10.8227 1.24895 10.7903C1.22544 10.5383 1.21369 10.3057 1.21369 10.0809C1.21379 9.84259 1.22687 9.60448 1.25286 9.36759L0.210745 7.58052C0.0920639 7.37917 0.021534 7.15362 0.00455666 6.92113C-0.0124187 6.68864 0.0246067 6.45539 0.112801 6.23925C0.453289 5.41865 0.901123 4.6458 1.44484 3.94048C1.59118 3.75723 1.77748 3.60905 1.98982 3.50702C2.20215 3.40499 2.43504 3.35175 2.67109 3.35125H4.75925C5.14972 3.07556 5.56707 2.83921 6.00509 2.64573L7.05113 0.847032C7.1666 0.646586 7.3269 0.474948 7.51976 0.345266C7.71261 0.215585 7.93291 0.131299 8.16377 0.0988655C9.06124 -0.0329552 9.97346 -0.0329552 10.8709 0.0988655C11.1009 0.134015 11.3201 0.219394 11.5125 0.348806C11.705 0.478217 11.8659 0.648412 11.9836 0.847032L13.0179 2.62635C13.4521 2.82768 13.8654 3.07047 14.2519 3.35125H16.3754C16.6108 3.35233 16.8429 3.40586 17.0545 3.50787C17.2661 3.60987 17.4518 3.75774 17.5977 3.94048C18.1423 4.6466 18.5902 5.42086 18.9297 6.24313C19.0162 6.45881 19.0526 6.69094 19.0363 6.9224C19.0201 7.15387 18.9515 7.37877 18.8357 7.58052L17.8445 9.27843C17.8248 9.3079 17.8078 9.33904 17.7936 9.37147C17.8171 9.62344 17.8249 9.85603 17.8249 10.0809C17.8262 10.3191 17.8144 10.5572 17.7897 10.7941L18.8318 12.5812C18.9505 12.7826 19.021 13.0081 19.038 13.2406C19.055 13.4731 19.0179 13.7063 18.9297 13.9225C18.5892 14.7431 18.1414 15.5159 17.5977 16.2213C17.4514 16.4045 17.2651 16.5527 17.0527 16.6547C16.8404 16.7567 16.6075 16.81 16.3714 16.8105H14.2833C13.8928 17.0862 13.4755 17.3225 13.0374 17.516L11.9875 19.3186C11.872 19.519 11.7117 19.6907 11.5189 19.8204C11.326 19.95 11.1057 20.0343 10.8748 20.0668C9.97719 20.196 9.06535 20.196 8.16769 20.0668C7.93668 20.0317 7.71652 19.946 7.52332 19.8159C7.33012 19.6857 7.16879 19.5145 7.05113 19.3147L6.01684 17.5354C5.58262 17.3341 5.1693 17.0913 4.78275 16.8105H2.66325C2.42787 16.8094 2.19575 16.7559 1.98414 16.6539C1.77253 16.5519 1.58685 16.404 1.44092 16.2213C0.896299 15.5151 0.448408 14.7409 0.108883 13.9186C0.0230198 13.7027 -0.0127525 13.4704 0.00419807 13.2389C0.0211506 13.0074 0.0903931 12.7827 0.206825 12.5812ZM2.66717 15.2599H4.78667C5.10134 15.2608 5.40797 15.3583 5.66425 15.539C5.9862 15.7659 6.32848 15.9631 6.68678 16.1282C6.96978 16.2588 7.20512 16.4728 7.36063 16.7407L8.38708 18.5278C9.13086 18.6246 9.88425 18.6246 10.628 18.5278L11.6819 16.7252C11.8388 16.4593 12.0739 16.247 12.3558 16.1166C12.7141 15.9515 13.0563 15.7542 13.3783 15.5274C13.6346 15.3467 13.9412 15.2492 14.2559 15.2483H16.3519C16.8099 14.6601 17.188 14.015 17.4763 13.3294L16.4106 11.5035C16.2625 11.2489 16.1981 10.9549 16.2265 10.6623C16.2683 10.2577 16.2683 9.84981 16.2265 9.44512C16.2048 9.10294 16.2955 8.76299 16.4851 8.476L17.4802 6.80522C17.1983 6.11449 16.827 5.46295 16.3754 4.86697H14.2559C13.9411 4.86657 13.6343 4.769 13.3783 4.58786C13.0563 4.36099 12.7141 4.16375 12.3558 3.99863C12.0728 3.86801 11.8374 3.6541 11.6819 3.38614L10.6555 1.59907C9.91168 1.50227 9.15829 1.50227 8.41451 1.59907L7.36063 3.40165C7.2037 3.66753 6.96866 3.87982 6.68678 4.01026C6.32848 4.17538 5.9862 4.37262 5.66425 4.59949C5.40797 4.78016 5.10134 4.87768 4.78667 4.8786H2.69068C2.23202 5.46917 1.85397 6.11695 1.56628 6.80522L2.63191 8.63106C2.78008 8.88573 2.84444 9.17974 2.81605 9.47226C2.76904 9.87667 2.76904 10.2851 2.81605 10.6895C2.83775 11.0317 2.74705 11.3716 2.55747 11.6586L1.56628 13.3294C1.84749 14.0172 2.21753 14.6661 2.66717 15.2599Z" fill="black" fill-opacity="0.7"/>
<path d="M9.51913 5.66602C10.4017 5.66602 11.2644 5.92497 11.9983 6.41013C12.7321 6.8953 13.304 7.58488 13.6418 8.39168C13.9795 9.19848 14.0679 10.0863 13.8957 10.9427C13.7235 11.7992 13.2985 12.586 12.6745 13.2035C12.0504 13.821 11.2553 14.2415 10.3897 14.4119C9.52408 14.5822 8.62686 14.4948 7.81148 14.1606C6.9961 13.8264 6.29918 13.2605 5.80885 12.5344C5.31853 11.8083 5.05682 10.9546 5.05682 10.0814C5.05889 8.91096 5.52969 7.7891 6.36609 6.9615C7.20249 6.13391 8.33629 5.66807 9.51913 5.66602ZM9.51913 12.9461C10.0917 12.9461 10.6515 12.7781 11.1276 12.4633C11.6037 12.1485 11.9748 11.7011 12.194 11.1776C12.4131 10.6542 12.4704 10.0782 12.3587 9.52247C12.247 8.96677 11.9713 8.45632 11.5664 8.05568C11.1615 7.65504 10.6456 7.3822 10.084 7.27166C9.52234 7.16113 8.94021 7.21786 8.41118 7.43468C7.88215 7.65151 7.42998 8.01869 7.11185 8.48979C6.79372 8.9609 6.62392 9.51476 6.62392 10.0814C6.62495 10.8408 6.93032 11.5689 7.47305 12.1059C8.01578 12.6429 8.75159 12.9451 9.51913 12.9461Z" fill="black" fill-opacity="0.7"/>
</svg>
