<svg width="19" height="20" viewBox="0 0 19 20" fill="none" xmlns="http://www.w3.org/2000/svg">
<path d="M18.2691 12.2031L17.3077 10.5562C17.2886 10.5276 17.272 10.4974 17.2583 10.466C17.2811 10.2216 17.2925 9.99597 17.2925 9.77789C17.2924 9.54677 17.2797 9.31583 17.2545 9.08605L18.2653 7.35269C18.3804 7.15739 18.4488 6.93862 18.4653 6.71312C18.4817 6.48762 18.4458 6.26138 18.3603 6.05173C18.03 5.25579 17.5957 4.50617 17.0683 3.82205C16.9263 3.64431 16.7456 3.50058 16.5397 3.40162C16.3337 3.30266 16.1078 3.25101 15.8789 3.25053H13.8535C13.4747 2.98313 13.0699 2.75388 12.6451 2.56621L11.6305 0.821574C11.5185 0.627153 11.363 0.460674 11.1759 0.334889C10.9889 0.209105 10.7752 0.127353 10.5513 0.0958941C9.68079 -0.0319647 8.79598 -0.0319647 7.92548 0.0958941C7.70243 0.129987 7.48985 0.212801 7.30318 0.338323C7.11651 0.463844 6.96043 0.628924 6.84628 0.821574L5.84308 2.54741C5.42191 2.74269 5.02101 2.97818 4.64608 3.25053H2.58648C2.35817 3.25158 2.13303 3.3035 1.92778 3.40244C1.72252 3.50138 1.54244 3.6448 1.40088 3.82205C0.872634 4.50695 0.438205 5.25793 0.108883 6.05549C0.0250306 6.26469 -0.0103058 6.48984 0.0054783 6.71435C0.0212624 6.93886 0.0877644 7.157 0.200083 7.35269L1.16148 8.99957C1.1806 9.02816 1.19713 9.05836 1.21088 9.08981C1.18808 9.33421 1.18048 9.55981 1.18048 9.77789C1.17924 10.009 1.19065 10.2399 1.21468 10.4697L0.203883 12.2031C0.0887699 12.3984 0.0203598 12.6172 0.00389318 12.8427C-0.0125735 13.0682 0.0233402 13.2944 0.108883 13.5041C0.439139 14.3 0.873513 15.0496 1.40088 15.7337C1.54283 15.9115 1.72353 16.0552 1.92949 16.1542C2.13544 16.2531 2.36133 16.3048 2.59028 16.3053H4.61568C4.99441 16.5727 5.39923 16.8019 5.82408 16.9896L6.84248 18.738C6.95448 18.9324 7.10996 19.0989 7.29703 19.2247C7.48409 19.3504 7.69776 19.4322 7.92168 19.4637C8.79237 19.589 9.6768 19.589 10.5475 19.4637C10.7715 19.4297 10.9851 19.3465 11.1725 19.2203C11.3599 19.0941 11.5164 18.928 11.6305 18.7342L12.6337 17.0084C13.0549 16.8131 13.4558 16.5776 13.8307 16.3053H15.8865C16.1148 16.3042 16.3399 16.2523 16.5452 16.1534C16.7504 16.0544 16.9305 15.911 17.0721 15.7337C17.6003 15.0488 18.0348 14.2979 18.3641 13.5003C18.4474 13.2908 18.4821 13.0655 18.4656 12.841C18.4492 12.6165 18.382 12.3985 18.2691 12.2031ZM15.8827 14.8013H13.8269C13.5217 14.8021 13.2243 14.8967 12.9757 15.072C12.6634 15.292 12.3314 15.4833 11.9839 15.6435C11.7094 15.7702 11.4811 15.9777 11.3303 16.2376L10.3347 17.9709C9.61326 18.0648 8.88251 18.0648 8.16108 17.9709L7.13888 16.2225C6.98667 15.9646 6.75869 15.7587 6.48528 15.6322C6.13775 15.4721 5.80576 15.2808 5.49348 15.0607C5.24491 14.8855 4.9475 14.7909 4.64228 14.79H2.60928C2.16498 14.2195 1.79831 13.5937 1.51868 12.9288L2.55228 11.1578C2.696 10.9108 2.75842 10.6256 2.73088 10.3419C2.69036 9.94937 2.69036 9.55378 2.73088 9.16125C2.75194 8.82936 2.66396 8.49962 2.48008 8.22125L1.51488 6.60069C1.78823 5.93072 2.14845 5.29876 2.58648 4.72069H4.64228C4.94758 4.7203 5.24514 4.62567 5.49348 4.44998C5.80576 4.22992 6.13775 4.03861 6.48528 3.87845C6.75978 3.75176 6.98805 3.54428 7.13888 3.28437L8.13448 1.55101C8.85591 1.45712 9.58666 1.45712 10.3081 1.55101L11.3303 3.29941C11.4825 3.55731 11.7105 3.76322 11.9839 3.88973C12.3314 4.04989 12.6634 4.2412 12.9757 4.46125C13.2243 4.6365 13.5217 4.73109 13.8269 4.73198H15.8599C16.3048 5.3048 16.6714 5.93311 16.9505 6.60069L15.9169 8.37165C15.7732 8.61868 15.7107 8.90385 15.7383 9.18757C15.7839 9.57983 15.7839 9.97596 15.7383 10.3682C15.7172 10.7001 15.8052 11.0298 15.9891 11.3082L16.9505 12.9288C16.6777 13.5959 16.3188 14.2253 15.8827 14.8013Z" fill="black" fill-opacity="0.7"/>
<path d="M9.2364 5.49524C8.38037 5.49524 7.54355 5.74641 6.83179 6.21699C6.12002 6.68758 5.56526 7.35643 5.23767 8.13898C4.91008 8.92153 4.82437 9.78263 4.99137 10.6134C5.15837 11.4441 5.5706 12.2072 6.17591 12.8062C6.78121 13.4051 7.55243 13.813 8.39201 13.9782C9.2316 14.1435 10.1019 14.0587 10.8927 13.7345C11.6836 13.4104 12.3596 12.8615 12.8352 12.1572C13.3108 11.4529 13.5646 10.6249 13.5646 9.77788C13.5626 8.64266 13.1059 7.55451 12.2947 6.75179C11.4834 5.94907 10.3837 5.49723 9.2364 5.49524ZM9.2364 12.5565C8.681 12.5565 8.13806 12.3936 7.67625 12.0882C7.21445 11.7829 6.85451 11.3489 6.64197 10.8412C6.42942 10.3335 6.37381 9.7748 6.48216 9.23579C6.59052 8.69679 6.85797 8.20168 7.25071 7.81308C7.64344 7.42448 8.14381 7.15984 8.68855 7.05263C9.23329 6.94541 9.79792 7.00044 10.3111 7.21075C10.8242 7.42106 11.2628 7.7772 11.5713 8.23415C11.8799 8.69109 12.0446 9.22832 12.0446 9.77788C12.0436 10.5145 11.7474 11.2207 11.221 11.7416C10.6946 12.2625 9.98088 12.5555 9.2364 12.5565Z" fill="black" fill-opacity="0.7"/>
</svg>
