<svg width="19" height="20" viewBox="0 0 19 20" fill="none" xmlns="http://www.w3.org/2000/svg">
<path d="M9.5 6C9.17784 6 8.91667 6.26118 8.91667 6.58333V8.91667H6.58333C6.26118 8.91667 6 9.17782 6 9.5C6 9.82216 6.26118 10.0833 6.58333 10.0833H8.91667V12.4167C8.91667 12.7388 9.17784 13 9.5 13C9.82218 13 10.0833 12.7388 10.0833 12.4167V10.0833H12.4167C12.7388 10.0833 13 9.82216 13 9.5C13 9.17782 12.7388 8.91667 12.4167 8.91667H10.0833V6.58333C10.0833 6.26118 9.82218 6 9.5 6Z" fill="black" fill-opacity="0.7"/>
<path d="M14.94 2.52113C14.3875 2.30986 13.58 2.01408 12.475 1.71831C11.71 1.46479 10.69 1.21127 9.5 1C4.7825 1.84507 1 3.83099 1 3.83099C1 3.83099 1.425 11.7746 2.9975 14.6479C4.6125 17.4789 9.5 19 9.5 19C9.5 19 14.3875 17.4789 16.0025 14.6479C17.575 11.7746 18 3.83099 18 3.83099C17.745 3.70423 17.4475 3.53521 17.0225 3.3662C16.81 3.28169 16.0875 2.94366 14.94 2.52113Z" stroke="black" stroke-opacity="0.7" stroke-width="1.3" stroke-miterlimit="10" stroke-linecap="round" stroke-linejoin="round"/>
</svg>
