<svg width="32" height="32" viewBox="0 0 32 32" fill="none" xmlns="http://www.w3.org/2000/svg">
<path d="M20.402 5.33248L18.264 5.33248C18.0555 5.33248 17.8989 5.48907 17.8989 5.69749C17.8989 6.27112 17.6641 6.87074 17.2471 7.28776C16.8299 7.70498 16.2563 7.96578 15.6568 7.93959C14.4052 7.93959 13.4146 6.94891 13.4146 5.69731C13.4146 5.48888 13.258 5.33229 13.0495 5.33229L10.9115 5.33229C10.1294 5.3323 9.52962 5.9321 9.52959 6.71417V24.6003C9.52959 25.3823 10.1294 25.9821 10.9115 25.9822L13.0495 25.9822C13.258 25.9822 13.4146 25.8256 13.4146 25.6171C13.4407 24.3917 14.4314 23.401 15.6568 23.3749C16.8561 23.3749 17.8991 24.3655 17.8991 25.6171C17.8991 25.8256 18.0557 25.9822 18.2641 25.9822L20.4022 25.9822C20.7672 25.9823 21.1323 25.8258 21.3669 25.5911C21.6277 25.3303 21.7581 24.9915 21.7579 24.6265L21.7579 6.68819C21.7839 5.93215 21.1583 5.30653 20.4021 5.33234L20.402 5.33248ZM21.0278 6.68832L21.0278 19.2034C21.0018 19.1774 20.9758 19.2034 20.9496 19.1772L18.7595 19.1772C18.5511 19.1772 18.3945 19.3338 18.3945 19.5422C18.3945 19.7506 18.5511 19.9072 18.7595 19.9072L20.9496 19.9072C20.9496 19.9072 21.0017 19.9072 21.0278 19.881L21.0278 24.574C21.0278 24.9392 20.7412 25.2258 20.402 25.1998L18.6292 25.1998C18.4205 23.7396 17.1951 22.6185 15.6829 22.6187C14.1708 22.6187 12.9192 23.766 12.7366 25.1998L10.9637 25.1998C10.5985 25.1998 10.3119 24.9132 10.3379 24.574L10.3379 19.933L12.1632 19.933C12.2676 19.933 12.3718 19.8808 12.424 19.8286C12.5022 19.7504 12.5284 19.6722 12.5284 19.5678C12.5284 19.3594 12.3718 19.2028 12.1634 19.2028L10.3381 19.2028L10.3381 6.68771C10.3381 6.32251 10.6247 6.03589 10.9639 6.06191L12.7368 6.06191C12.9194 7.54817 14.1969 8.66922 15.7093 8.66922C16.4913 8.66922 17.2737 8.35639 17.8213 7.80876C18.2906 7.33954 18.6036 6.71372 18.6818 6.06189L20.4546 6.06189C20.7673 6.06244 21.0541 6.34925 21.0279 6.68827L21.0278 6.68832Z" fill="#4D4D4D" stroke="#4D4D4D" stroke-width="0.65"/>
<path d="M14.328 19.2297C14.1195 19.2297 13.963 19.3863 13.963 19.5947C13.963 19.8031 14.1196 19.9597 14.328 19.9597L16.5181 19.9597C16.6225 19.9597 16.7267 19.9075 16.7789 19.8553C16.8571 19.7771 16.8833 19.6989 16.8833 19.5945C16.8833 19.3861 16.7267 19.2295 16.5183 19.2295L14.328 19.2297Z" fill="#4D4D4D" stroke="#4D4D4D" stroke-width="0.65"/>
</svg>
