<svg width="25" height="25" viewBox="0 0 25 25" fill="none" xmlns="http://www.w3.org/2000/svg">
<circle cx="12.5" cy="12.5" r="12.5" fill="black" fill-opacity="0.1"/>
<path d="M17.7053 7.59023C17.4092 7.6001 17.1286 7.7251 16.9232 7.93865C14.7196 10.147 12.7096 12.3193 10.5808 14.4872L7.97131 12.4039C7.85459 12.3105 7.72062 12.2411 7.57706 12.1995C7.43349 12.1579 7.28314 12.145 7.13458 12.1615C6.98603 12.178 6.84217 12.2236 6.71124 12.2957C6.58031 12.3678 6.46486 12.465 6.37149 12.5817C6.27811 12.6984 6.20864 12.8324 6.16704 12.9759C6.12544 13.1195 6.11253 13.2698 6.12903 13.4184C6.16237 13.7184 6.31352 13.9929 6.54924 14.1815L9.96219 16.9119C10.1809 17.0864 10.4563 17.1741 10.7357 17.1584C11.0151 17.1427 11.2789 17.0245 11.4767 16.8265C13.9271 14.3709 16.1265 11.9544 18.5301 9.54558C18.6952 9.38603 18.8081 9.18028 18.8541 8.95534C18.9001 8.73041 18.877 8.49683 18.7877 8.28529C18.6985 8.07376 18.5474 7.89417 18.3542 7.77012C18.161 7.64606 17.9348 7.58336 17.7053 7.59023Z" fill="white"/>
</svg>
