<svg width="21" height="22" viewBox="0 0 21 22" fill="none" xmlns="http://www.w3.org/2000/svg">
<path d="M16.2154 10.3044H4.76923C4.01031 10.3044 3.28246 10.0086 2.74582 9.48223C2.20918 8.95582 1.90769 8.24187 1.90769 7.49742C1.90769 6.75297 2.20918 6.03901 2.74582 5.5126C3.28246 4.9862 4.01031 4.69047 4.76923 4.69047H17.7272L16.492 5.90213C16.313 6.0777 16.2125 6.31582 16.2125 6.56411C16.2125 6.81239 16.313 7.05051 16.492 7.22608C16.671 7.40164 16.9137 7.50028 17.1669 7.50028C17.42 7.50028 17.6627 7.40164 17.8417 7.22608L20.7032 4.41913L20.7557 4.35831C20.7794 4.33302 20.8017 4.30647 20.8225 4.27878C20.8225 4.25539 20.8511 4.22732 20.8654 4.20393C20.883 4.17518 20.8989 4.14551 20.9131 4.11504C20.9131 4.11504 20.9131 4.06826 20.9131 4.04955C20.9396 4.01382 20.9635 3.9763 20.9846 3.93727C20.9846 3.93727 20.9846 3.93727 20.9846 3.90452C21.013 3.75513 21.002 3.60112 20.9528 3.45705C20.9035 3.31298 20.8176 3.1836 20.7032 3.08115L17.8417 0.274197C17.6627 0.0986314 17.42 0 17.1669 0C16.9137 0 16.671 0.0986314 16.492 0.274197C16.313 0.449763 16.2125 0.687883 16.2125 0.93617C16.2125 1.18446 16.313 1.42258 16.492 1.59814L17.7272 2.81917H4.76923C3.50435 2.81917 2.29128 3.31205 1.39688 4.18939C0.502471 5.06674 0 6.25667 0 7.49742C0 8.73817 0.502471 9.9281 1.39688 10.8054C2.29128 11.6828 3.50435 12.1757 4.76923 12.1757H16.2154C16.9743 12.1757 17.7022 12.4714 18.2388 12.9978C18.7754 13.5242 19.0769 14.2382 19.0769 14.9826C19.0769 15.7271 18.7754 16.441 18.2388 16.9674C17.7022 17.4938 16.9743 17.7896 16.2154 17.7896H6.53862C6.3095 17.0357 5.81143 16.388 5.13548 15.9648C4.45952 15.5416 3.65085 15.3712 2.85735 15.4847C2.06384 15.5983 1.33852 15.9883 0.814009 16.5833C0.289501 17.1783 0.000856899 17.9386 0.000856899 18.7252C0.000856899 19.5118 0.289501 20.2722 0.814009 20.8672C1.33852 21.4622 2.06384 21.8521 2.85735 21.9657C3.65085 22.0792 4.45952 21.9088 5.13548 21.4856C5.81143 21.0624 6.3095 20.4147 6.53862 19.6609H16.2154C17.4803 19.6609 18.6933 19.168 19.5878 18.2906C20.4822 17.4133 20.9846 16.2234 20.9846 14.9826C20.9846 13.7419 20.4822 12.5519 19.5878 11.6746C18.6933 10.7973 17.4803 10.3044 16.2154 10.3044ZM3.33846 20.1287C3.05548 20.1287 2.77886 20.0464 2.54357 19.8922C2.30828 19.7379 2.1249 19.5188 2.01661 19.2623C1.90831 19.0059 1.87998 18.7237 1.93519 18.4514C1.99039 18.1792 2.12666 17.9291 2.32676 17.7328C2.52685 17.5365 2.78179 17.4029 3.05933 17.3487C3.33688 17.2946 3.62456 17.3224 3.88599 17.4286C4.14743 17.5348 4.37089 17.7147 4.5281 17.9455C4.68532 18.1763 4.76923 18.4476 4.76923 18.7252C4.76923 19.0974 4.61849 19.4544 4.35017 19.7176C4.08185 19.9808 3.71793 20.1287 3.33846 20.1287Z" fill="black" fill-opacity="0.5"/>
</svg>
