<svg width="32" height="40" viewBox="0 0 32 40" fill="none" xmlns="http://www.w3.org/2000/svg">
<path d="M30.6706 17.3787L5.01119 0.527138C4.52778 0.210178 3.97064 0.0294297 3.39646 0.0032999C2.82228 -0.0228299 2.25156 0.106589 1.74237 0.378378C1.23319 0.650168 0.803716 1.05463 0.497661 1.5506C0.191605 2.04658 0.0198985 2.61637 0 3.20198V36.798C0.0198985 37.3836 0.191605 37.9534 0.497661 38.4494C0.803716 38.9454 1.23319 39.3498 1.74237 39.6216C2.25156 39.8934 2.82228 40.0228 3.39646 39.9967C3.97064 39.9706 4.52778 39.7898 5.01119 39.4729L30.6706 22.7551C31.0829 22.4442 31.4179 22.039 31.6488 21.5722C31.8797 21.1053 32 20.5897 32 20.0669C32 19.544 31.8797 19.0285 31.6488 18.5616C31.4179 18.0947 31.0829 17.6896 30.6706 17.3787Z" fill="#7B13FF" fill-opacity="0.9"/>
</svg>
