<svg width="22" height="27" viewBox="0 0 22 27" fill="none" xmlns="http://www.w3.org/2000/svg">
<path d="M11 26.5C8.82441 26.5 6.69767 25.8549 4.88873 24.6462C3.07979 23.4375 1.66989 21.7195 0.83733 19.7095C0.00476617 17.6995 -0.213071 15.4878 0.211367 13.354C0.635804 11.2202 1.68345 9.26021 3.22183 7.72183C4.76021 6.18345 6.72022 5.1358 8.85401 4.71137C10.9878 4.28693 13.1995 4.50477 15.2095 5.33733C17.2195 6.16989 18.9375 7.57979 20.1462 9.38873C21.3549 11.1977 22 13.3244 22 15.5C22 18.4174 20.8411 21.2153 18.7782 23.2782C16.7153 25.3411 13.9174 26.5 11 26.5ZM11 6.5C9.21997 6.5 7.47991 7.02784 5.99987 8.01678C4.51983 9.00571 3.36628 10.4113 2.68509 12.0559C2.0039 13.7004 1.82567 15.51 2.17294 17.2558C2.5202 19.0016 3.37737 20.6053 4.63604 21.864C5.89472 23.1226 7.49836 23.9798 9.24419 24.3271C10.99 24.6743 12.7996 24.4961 14.4442 23.8149C16.0887 23.1337 17.4943 21.9802 18.4832 20.5001C19.4722 19.0201 20 17.28 20 15.5C20 13.1131 19.0518 10.8239 17.364 9.13604C15.6761 7.44822 13.3869 6.5 11 6.5Z" fill="#7B13FF"/>
<path d="M11 16.5C10.7348 16.5 10.4804 16.3946 10.2929 16.2071C10.1054 16.0196 10 15.7652 10 15.5V10.5C10 10.2348 10.1054 9.98043 10.2929 9.79289C10.4804 9.60536 10.7348 9.5 11 9.5C11.2652 9.5 11.5196 9.60536 11.7071 9.79289C11.8946 9.98043 12 10.2348 12 10.5V15.5C12 15.7652 11.8946 16.0196 11.7071 16.2071C11.5196 16.3946 11.2652 16.5 11 16.5Z" fill="#7B13FF"/>
<path d="M14.5 2H7.5C7.23478 2 6.98043 1.89464 6.79289 1.70711C6.60536 1.51957 6.5 1.26522 6.5 1C6.5 0.734783 6.60536 0.48043 6.79289 0.292893C6.98043 0.105357 7.23478 0 7.5 0H14.5C14.7652 0 15.0196 0.105357 15.2071 0.292893C15.3946 0.48043 15.5 0.734783 15.5 1C15.5 1.26522 15.3946 1.51957 15.2071 1.70711C15.0196 1.89464 14.7652 2 14.5 2Z" fill="#7B13FF"/>
<path d="M17.3145 8.66999C17.12 8.67247 16.929 8.61816 16.7649 8.51373C16.6008 8.4093 16.4707 8.25927 16.3906 8.08203C16.3104 7.90478 16.2837 7.70802 16.3137 7.51583C16.3437 7.32365 16.4291 7.14438 16.5595 6.99999L19.7545 3.305C19.8359 3.19226 19.94 3.09776 20.0601 3.02752C20.1801 2.95729 20.3135 2.91287 20.4517 2.8971C20.5899 2.88133 20.7298 2.89457 20.8626 2.93595C20.9954 2.97734 21.1181 3.04597 21.2228 3.13746C21.3276 3.22895 21.4121 3.34128 21.471 3.46728C21.5299 3.59329 21.5618 3.73019 21.5648 3.86924C21.5678 4.00829 21.5417 4.14643 21.4883 4.27484C21.4348 4.40325 21.3552 4.5191 21.2545 4.61499L18.0595 8.30999C17.9682 8.41969 17.8545 8.50857 17.726 8.57066C17.5975 8.63275 17.4571 8.66662 17.3145 8.66999Z" fill="#7B13FF"/>
</svg>
