<svg width="25" height="24" viewBox="0 0 25 24" fill="none" xmlns="http://www.w3.org/2000/svg">
<g clip-path="url(#clip0)">
<path d="M12.0704 0C5.40375 0 0 5.37224 0 12C0 18.6278 5.40375 24 12.0704 24C18.7363 24 24.1408 18.627 24.1408 12C24.1408 5.37224 18.7363 0 12.0704 0ZM12.0704 22.5C6.23739 22.5 1.50882 17.799 1.50882 12C1.50882 6.20102 6.23739 1.50002 12.0704 1.50002C17.9034 1.50002 22.6319 6.20102 22.6319 12C22.6319 17.799 17.9034 22.5 12.0704 22.5Z" fill="black" fill-opacity="0.5"/>
<path d="M12.936 6.48C13.1813 6.48 13.3787 6.53333 13.528 6.64C13.688 6.74667 13.768 6.92267 13.768 7.168V17.344C13.768 17.5787 13.688 17.7493 13.528 17.856C13.368 17.9627 13.1813 18.016 12.968 18.016C12.7547 18.016 12.568 17.9627 12.408 17.856C12.248 17.7493 12.168 17.5787 12.168 17.344V8.368L9.768 9.84C9.56533 9.95733 9.37333 9.97867 9.192 9.904C9.01067 9.82933 8.86667 9.70133 8.76 9.52C8.67467 9.34933 8.64267 9.17333 8.664 8.992C8.696 8.8 8.808 8.65067 9 8.544L11.864 6.832C12.0773 6.71467 12.2693 6.62933 12.44 6.576C12.6107 6.512 12.776 6.48 12.936 6.48Z" fill="black" fill-opacity="0.5"/>
</g>
<defs>
<clipPath id="clip0">
<rect width="24.1408" height="24" fill="white"/>
</clipPath>
</defs>
</svg>
