<svg width="25" height="24" viewBox="0 0 25 24" fill="none" xmlns="http://www.w3.org/2000/svg">
<g clip-path="url(#clip0)">
<path d="M12.0704 0C5.40375 0 0 5.37224 0 12C0 18.6278 5.40375 24 12.0704 24C18.7363 24 24.1408 18.627 24.1408 12C24.1408 5.37224 18.7363 0 12.0704 0ZM12.0704 22.5C6.23739 22.5 1.50882 17.799 1.50882 12C1.50882 6.20102 6.23739 1.50002 12.0704 1.50002C17.9034 1.50002 22.6319 6.20102 22.6319 12C22.6319 17.799 17.9034 22.5 12.0704 22.5Z" fill="black" fill-opacity="0.5"/>
<path d="M11.8 6.384C12.408 6.384 12.9307 6.45867 13.368 6.608C13.816 6.75733 14.1893 6.96533 14.488 7.232C14.7867 7.488 15.0053 7.792 15.144 8.144C15.2933 8.496 15.368 8.86933 15.368 9.264V9.424C15.368 10.032 15.24 10.592 14.984 11.104C14.728 11.616 14.328 12.1547 13.784 12.72L10.104 16.592H15.32C15.512 16.592 15.6507 16.6613 15.736 16.8C15.832 16.928 15.88 17.0827 15.88 17.264C15.88 17.4453 15.832 17.6053 15.736 17.744C15.6507 17.872 15.512 17.936 15.32 17.936H9.16C8.744 17.936 8.44533 17.8667 8.264 17.728C8.08267 17.5893 7.992 17.3707 7.992 17.072C7.992 16.9333 8.02933 16.8 8.104 16.672C8.17867 16.544 8.30133 16.3893 8.472 16.208L12.376 12.08C12.664 11.7813 12.8933 11.52 13.064 11.296C13.2453 11.0613 13.3893 10.8427 13.496 10.64C13.6027 10.4373 13.672 10.24 13.704 10.048C13.7467 9.856 13.768 9.65333 13.768 9.44V9.36C13.768 8.89067 13.6027 8.51733 13.272 8.24C12.952 7.96267 12.472 7.824 11.832 7.824C11.2987 7.824 10.8507 7.936 10.488 8.16C10.1253 8.37333 9.8 8.688 9.512 9.104C9.39467 9.264 9.24533 9.36 9.064 9.392C8.89333 9.41333 8.72267 9.36533 8.552 9.248C8.38133 9.13067 8.26933 8.98133 8.216 8.8C8.17333 8.61867 8.21067 8.43733 8.328 8.256C8.66933 7.72267 9.12267 7.28 9.688 6.928C10.264 6.56533 10.968 6.384 11.8 6.384Z" fill="black" fill-opacity="0.5"/>
</g>
<defs>
<clipPath id="clip0">
<rect width="24.1408" height="24" fill="white"/>
</clipPath>
</defs>
</svg>
