<svg width="25" height="24" viewBox="0 0 25 24" fill="none" xmlns="http://www.w3.org/2000/svg">
<g clip-path="url(#clip0)">
<path d="M12.0704 0C5.40375 0 0 5.37224 0 12C0 18.6278 5.40375 24 12.0704 24C18.7363 24 24.1408 18.627 24.1408 12C24.1408 5.37224 18.7363 0 12.0704 0ZM12.0704 22.5C6.23739 22.5 1.50882 17.799 1.50882 12C1.50882 6.20102 6.23739 1.50002 12.0704 1.50002C17.9034 1.50002 22.6319 6.20102 22.6319 12C22.6319 17.799 17.9034 22.5 12.0704 22.5Z" fill="black" fill-opacity="0.5"/>
<path d="M11.592 6.384C12.2 6.384 12.7333 6.45867 13.192 6.608C13.6507 6.75733 14.0293 6.96533 14.328 7.232C14.6373 7.49867 14.8667 7.808 15.016 8.16C15.176 8.512 15.256 8.88533 15.256 9.28V9.36C15.256 9.63733 15.2133 9.90933 15.128 10.176C15.0533 10.4427 14.936 10.6987 14.776 10.944C14.616 11.1787 14.408 11.392 14.152 11.584C13.9067 11.7653 13.6133 11.9093 13.272 12.016C13.6133 12.0693 13.9333 12.1653 14.232 12.304C14.5307 12.432 14.7867 12.6027 15 12.816C15.224 13.0293 15.4 13.2907 15.528 13.6C15.656 13.8987 15.72 14.24 15.72 14.624V14.784C15.72 15.2213 15.6347 15.6427 15.464 16.048C15.304 16.4533 15.0533 16.8107 14.712 17.12C14.3813 17.4187 13.96 17.6587 13.448 17.84C12.9467 18.0213 12.36 18.112 11.688 18.112C10.408 18.112 9.31467 17.8027 8.408 17.184C8.20533 17.056 8.088 16.896 8.056 16.704C8.024 16.5013 8.06667 16.3093 8.184 16.128C8.30133 15.936 8.44533 15.8187 8.616 15.776C8.79733 15.7333 8.984 15.7707 9.176 15.888C9.57067 16.1547 9.96 16.352 10.344 16.48C10.728 16.608 11.1493 16.672 11.608 16.672C12.056 16.672 12.44 16.6187 12.76 16.512C13.08 16.4053 13.336 16.2667 13.528 16.096C13.7307 15.9147 13.8747 15.7067 13.96 15.472C14.056 15.2373 14.104 14.992 14.104 14.736V14.608C14.104 14.256 14.04 13.9627 13.912 13.728C13.784 13.4933 13.608 13.3067 13.384 13.168C13.16 13.0187 12.8933 12.912 12.584 12.848C12.2747 12.784 11.9387 12.752 11.576 12.752H10.664C10.4613 12.752 10.312 12.6827 10.216 12.544C10.1307 12.4053 10.088 12.24 10.088 12.048C10.088 11.856 10.1307 11.696 10.216 11.568C10.312 11.4293 10.4613 11.36 10.664 11.36H11.448C12.0987 11.36 12.632 11.2107 13.048 10.912C13.4747 10.6133 13.688 10.1333 13.688 9.472V9.424C13.688 8.93333 13.512 8.53867 13.16 8.24C12.8187 7.94133 12.296 7.792 11.592 7.792C11.144 7.792 10.7547 7.872 10.424 8.032C10.104 8.192 9.80533 8.42667 9.528 8.736C9.37867 8.88533 9.208 8.95467 9.016 8.944C8.83467 8.92267 8.68 8.83733 8.552 8.688C8.41333 8.53867 8.34933 8.37867 8.36 8.208C8.37067 8.02667 8.43467 7.86133 8.552 7.712C8.86133 7.328 9.272 7.01333 9.784 6.768C10.3067 6.512 10.9093 6.384 11.592 6.384Z" fill="black" fill-opacity="0.5"/>
</g>
<defs>
<clipPath id="clip0">
<rect width="24.1408" height="24" fill="white"/>
</clipPath>
</defs>
</svg>
