<svg width="11" height="11" viewBox="0 0 11 11" fill="none" xmlns="http://www.w3.org/2000/svg">
<path d="M0.661892 0.661838C0.232791 1.09094 0.232791 1.7867 0.661892 2.2158L3.76982 5.32373L0.661892 8.43166C0.232791 8.86076 0.232765 9.5565 0.661892 9.98562C1.09099 10.4147 1.78675 10.4147 2.21586 9.98562L5.32378 6.87769L8.43171 9.98562C8.86084 10.4147 9.55658 10.4147 9.98568 9.98562C10.4148 9.5565 10.4148 8.86079 9.98568 8.43166L6.87775 5.32373L9.98568 2.2158C10.4148 1.7867 10.4148 1.09094 9.98568 0.661838C9.55655 0.232711 8.86081 0.232737 8.43171 0.661838L5.32378 3.76977L2.21586 0.661838C1.78675 0.232737 1.09102 0.232711 0.661892 0.661838Z" fill="#333333"/>
</svg>
