<svg width="28" height="28" viewBox="0 0 28 28" fill="none" xmlns="http://www.w3.org/2000/svg">
<circle cx="13.9594" cy="14.0815" r="13.9184" fill="#7B13FF" fill-opacity="0.9"/>
<path d="M14.2257 7.75488C13.6189 7.75488 13.1269 8.24686 13.1269 8.8537V13.249H8.73163C8.12479 13.249 7.63281 13.7409 7.63281 14.3478C7.63281 14.9546 8.12479 15.4466 8.73163 15.4466H13.1269V19.8419C13.1269 20.4488 13.6189 20.9407 14.2257 20.9407C14.8326 20.9407 15.3245 20.4488 15.3245 19.8419V15.4466H19.7198C20.3267 15.4466 20.8186 14.9546 20.8186 14.3478C20.8186 13.7409 20.3267 13.249 19.7198 13.249H15.3245V8.8537C15.3245 8.24686 14.8326 7.75488 14.2257 7.75488Z" fill="white"/>
</svg>
