<svg width="30" height="30" viewBox="0 0 30 30" fill="none" xmlns="http://www.w3.org/2000/svg">
<g clip-path="url(#clip0_33_1630)">
<path d="M15 22.2998C18.0376 22.2998 20.5 19.8374 20.5 16.7998C20.5 13.7622 18.0376 11.2998 15 11.2998C11.9624 11.2998 9.5 13.7622 9.5 16.7998C9.5 19.8374 11.9624 22.2998 15 22.2998Z" stroke="white" stroke-width="2" stroke-miterlimit="10"/>
<path d="M24.1 4.8H20.9L18.8 1H11.3L9.1 4.8H5.9C3.2 4.8 1 7 1 9.7V23.8C1 26.5 3.2 28.7 5.9 28.7H24C26.7 28.7 28.9 26.5 28.9 23.8V9.7C29 7 26.8 4.8 24.1 4.8Z" stroke="white" stroke-width="2" stroke-miterlimit="10" stroke-linecap="round" stroke-linejoin="round"/>
</g>
<defs>
<clipPath id="clip0_33_1630">
<rect width="30" height="29.8" fill="white"/>
</clipPath>
</defs>
</svg>
