<svg width="24" height="27" viewBox="0 0 24 27" fill="none" xmlns="http://www.w3.org/2000/svg">
<path d="M23.6746 22.3974L21.0519 17.6263V12.5607C21.0519 8.22047 18.1098 4.5788 14.1598 3.58446V2.60946C14.1601 1.44445 13.1911 0.495972 12.0001 0.495972C10.809 0.495972 9.84008 1.44445 9.84008 2.60977V3.58477C5.89032 4.5788 2.94792 8.22078 2.94792 12.561V17.6266L0.325201 22.3977C0.0692007 22.8636 0.415761 23.4314 0.959761 23.4314H8.42568C8.56104 25.2554 10.1031 26.704 12.0001 26.704C13.897 26.704 15.4391 25.2554 15.5742 23.4311H23.0401C23.5844 23.4311 23.9306 22.8632 23.6746 22.3974ZM11.2801 2.60977C11.2801 2.21852 11.603 1.89997 12.0001 1.89997C12.3972 1.89997 12.7201 2.21852 12.7201 2.60977V3.34453C12.1066 3.29492 11.8935 3.29492 11.2801 3.34453V2.60977ZM12.0001 25.3C10.897 25.3 9.99496 24.4807 9.866 23.4311H14.1342C14.0052 24.4807 13.1031 25.3 12.0001 25.3ZM2.16296 22.0271C2.30312 21.7722 4.38824 18.0906 4.38824 17.8026V12.5607C4.38792 8.23263 7.80296 4.71109 12.0001 4.71109C16.1972 4.71109 19.6122 8.23263 19.6122 12.5607V17.8029C19.6122 18.0909 21.6974 21.7725 21.8375 22.0274H2.16296V22.0271Z" fill="black" fill-opacity="0.7"/>
<path d="M12.0003 6.11511C8.59708 6.11511 5.82812 9.00673 5.82812 12.5607C5.82812 13.4899 7.26812 13.4899 7.26812 12.5607C7.26812 9.78049 9.391 7.51911 12.0003 7.51911C12.9532 7.51911 12.9532 6.11511 12.0003 6.11511Z" fill="black" fill-opacity="0.7"/>
</svg>
