<svg width="23" height="23" viewBox="0 0 23 23" fill="none" xmlns="http://www.w3.org/2000/svg">
<path d="M20.5451 0.788025H2.45455C1.22605 0.788025 0.227051 1.79442 0.227051 3.03202V20.168C0.227051 21.4056 1.22605 22.412 2.45455 22.412H20.5451C21.7736 22.412 22.7726 21.4056 22.7726 20.168V3.03202C22.7726 1.79442 21.7736 0.788025 20.5451 0.788025ZM2.45455 2.01202H20.5451C21.1034 2.01202 21.5576 2.46953 21.5576 3.03202V14.6385H11.0573C10.3602 14.0973 9.59902 13.6014 8.78524 13.1518L6.80992 3.80015C6.67465 3.1566 5.75719 3.1566 5.62192 3.80015L4.02757 11.3484C3.1552 11.1588 2.29039 11.0451 1.44205 11.0082V3.03202C1.44205 2.46953 1.89619 2.01202 2.45455 2.01202ZM4.21144 16.3598L6.21592 6.86804L8.2204 16.3598H4.21144ZM1.44205 20.168V12.2324C2.20615 12.2686 2.98618 12.3736 3.77485 12.5447L2.86657 16.8442C2.78584 17.2291 3.07852 17.5838 3.46057 17.5838H5.60815V19.6469C5.60815 20.4569 6.82315 20.4569 6.82315 19.6469V17.5838H8.97073C9.35278 17.5838 9.64546 17.2291 9.56473 16.8442L9.12625 14.7677C11.7704 16.4555 13.645 18.7229 14.4488 21.188H2.45455C1.89619 21.188 1.44205 20.7305 1.44205 20.168ZM20.5451 21.188H15.7175C15.1688 19.2582 14.0492 17.4347 12.4559 15.8625H21.5576V20.168C21.5576 20.7305 21.1034 21.188 20.5451 21.188Z" fill="black" fill-opacity="0.7"/>
<path d="M16.3883 9.95197C18.0596 9.95197 19.4196 8.58218 19.4196 6.89823C19.4196 5.21427 18.0598 3.84448 16.3883 3.84448C14.7162 3.84448 13.3564 5.21427 13.3564 6.89823C13.3564 8.58218 14.7162 9.95197 16.3883 9.95197ZM16.3883 5.06875C17.3897 5.06875 18.2046 5.88965 18.2046 6.8985C18.2046 7.90735 17.3897 8.72824 16.3883 8.72824C15.386 8.72824 14.5714 7.90735 14.5714 6.8985C14.5714 5.88965 15.3863 5.06875 16.3883 5.06875Z" fill="black" fill-opacity="0.7"/>
</svg>
