<svg width="80" height="80" viewBox="0 0 80 80" fill="none" xmlns="http://www.w3.org/2000/svg">
<g clip-path="url(#clip0)">
<path d="M70.2943 16.1977L40.2268 0.176158C39.7807 -0.0619093 39.2461 -0.0585682 38.8034 0.184511L9.56787 16.206C9.08839 16.4692 8.79102 16.972 8.79102 17.5192V38.4474C8.80856 55.6509 19.0012 71.2146 34.7638 78.1069L38.8218 79.8753C39.201 80.0407 39.6329 80.0415 40.0129 79.8769L44.5855 77.9022C60.6404 71.1595 71.0853 55.4454 71.087 38.0322V17.5192C71.087 16.9662 70.7821 16.4575 70.2943 16.1977ZM68.0932 38.0322C68.0898 54.245 58.3625 68.8741 43.4135 75.1482L43.4035 75.1532L39.4215 76.8723L35.9616 75.3629C21.2891 68.9476 11.8007 54.4614 11.784 38.4474V18.4054L39.5326 3.19753L68.0932 18.4163V38.0322Z" fill="black"/>
<path d="M28.4885 37.4768C27.9513 36.8478 27.0066 36.7734 26.3776 37.3105C25.7486 37.8468 25.6742 38.7924 26.2114 39.4205L34.1185 48.6801C34.6465 49.2983 35.5712 49.3826 36.201 48.8697L54.6166 33.8874C55.2581 33.3661 55.355 32.423 54.8329 31.7815C54.3117 31.1408 53.3686 31.0431 52.727 31.5652L35.4459 45.6237L28.4885 37.4768Z" fill="black"/>
</g>
<defs>
<clipPath id="clip0">
<rect width="80" height="80" fill="white"/>
</clipPath>
</defs>
</svg>
