<svg width="106" height="112" viewBox="0 0 106 112" fill="none" xmlns="http://www.w3.org/2000/svg">
<g clip-path="url(#clip0)">
<path d="M71.0002 64.5004C69.1002 62.8004 68.0002 60.9004 67.5002 58.4004C66.9002 55.5004 65.5002 53.2004 63.4002 51.6004C61.2002 49.9004 58.5002 48.9004 55.6002 48.5004H55.1002C54.6002 48.5004 54.1002 48.4004 53.6002 48.4004C53.0002 48.4004 52.4002 48.4004 51.8002 48.5004C48.8002 48.9004 46.1002 49.9004 43.9002 51.6004C41.8002 53.2004 40.4002 55.5004 39.8002 58.4004C39.2002 60.9004 38.1002 62.8004 36.3002 64.5004C32.6002 67.8004 31.1002 72.7004 32.7002 77.0004C33.9002 80.2004 36.4002 82.9004 39.7002 84.6004C41.5002 85.5004 43.5002 85.9004 45.5002 85.9004C47.2002 85.9004 48.8002 85.6004 50.3002 85.0004C51.4002 84.6004 52.5002 84.3004 53.7002 84.3004C54.9002 84.3004 56.0002 84.6004 57.1002 85.0004C58.6002 85.6004 60.2002 85.9004 61.9002 85.9004C63.9002 85.9004 65.9002 85.4004 67.7002 84.6004C71.0002 82.9004 73.5002 80.3004 74.7002 77.0004C76.2002 72.7004 74.8002 67.8004 71.0002 64.5004ZM53.6002 49.2004C54.1002 49.2004 54.6002 49.2004 55.0002 49.3004C54.5002 49.2004 54.0002 49.2004 53.6002 49.2004C53.5002 49.2004 53.5002 49.2004 53.6002 49.2004ZM61.8002 85.1004C61.7002 85.1004 61.5002 85.1004 61.4002 85.1004C61.6002 85.1004 61.8002 85.1004 62.1002 85.1004C62.0002 85.1004 61.9002 85.1004 61.8002 85.1004ZM70.4002 75.3004C69.6002 77.4004 67.9002 79.2004 65.6002 80.4004C64.5002 81.0004 63.2002 81.3004 61.8002 81.3004C60.7002 81.3004 59.6002 81.1004 58.7002 80.7004C57.1002 80.1004 55.4002 79.7004 53.6002 79.7004C51.8002 79.7004 50.1002 80.1004 48.5002 80.7004C47.6002 81.1004 46.5002 81.3004 45.4002 81.3004C44.0002 81.3004 42.7002 81.0004 41.6002 80.4004C39.3002 79.3004 37.6002 77.5004 36.8002 75.3004C35.9002 72.8004 36.8002 69.9004 39.2002 67.8004C41.8002 65.5004 43.4002 62.7004 44.1002 59.3004C44.4002 58.1004 45.0002 56.3004 46.5002 55.2004C48.3002 53.8004 50.7002 53.0004 53.3002 52.9004H53.5002H53.8002C56.4002 53.0004 58.8002 53.8004 60.6002 55.2004C62.1002 56.3004 62.7002 58.1004 63.0002 59.3004C63.8002 62.7004 65.4002 65.5004 68.0002 67.8004C70.4002 69.9004 71.3002 72.9004 70.4002 75.3004Z" fill="url(#paint0_linear)"/>
<path d="M36.7002 51.1C35.5002 45.6 31.9002 41.5 28.0002 41.5C27.6002 41.5 27.2002 41.5 26.8002 41.6C24.7002 42 23.0002 43.6 22.1002 46.1C21.2002 48.4 21.0002 51.3 21.7002 54.3C22.9002 59.8 26.5002 63.9 30.4002 63.9C30.8002 63.9 31.2002 63.9 31.6002 63.8C35.7002 62.9 38.0002 57.3 36.7002 51.1ZM28.0002 42.3C28.1002 42.3 28.2002 42.3 28.2002 42.3C28.1002 42.3 28.0002 42.3 27.9002 42.3C27.9002 42.3 27.9002 42.3 28.0002 42.3ZM30.3002 63.1C30.2002 63.1 30.1002 63.1 30.1002 63.1C30.2002 63.1 30.3002 63.1 30.4002 63.1C30.4002 63.1 30.4002 63.1 30.3002 63.1ZM30.6002 59.3C30.5002 59.3 30.5002 59.3 30.4002 59.3C29.1002 59.3 27.0002 57.2 26.1002 53.3C25.7002 51.4 25.7002 49.6 26.2002 48.1C26.6002 46.9 27.2002 46.2 27.8002 46C27.9002 46 27.9002 46 28.0002 46C29.3002 46 31.4002 48.1 32.3002 52C33.1002 56.1 31.8002 59.1 30.6002 59.3Z" fill="url(#paint1_linear)"/>
<path d="M51.0001 34.3002C50.3001 27.7002 46.4001 22.7002 42.0001 22.7002C41.8001 22.7002 41.6001 22.7002 41.4001 22.7002C36.7001 23.2002 33.6001 29.0002 34.4001 36.0002C35.1001 42.6002 39.0001 47.6002 43.4001 47.6002C43.6001 47.6002 43.8001 47.6002 44.0001 47.6002C46.3001 47.4002 48.3001 45.8002 49.6001 43.2002C50.9001 40.8002 51.4001 37.6002 51.0001 34.3002ZM42.0001 23.5002H42.1001C41.9001 23.5002 41.6001 23.5002 41.4001 23.5002C41.6001 23.5002 41.8001 23.5002 42.0001 23.5002ZM43.3001 46.9002H43.2001C43.4001 46.9002 43.7001 46.9002 43.9001 46.9002C43.7001 46.9002 43.5001 46.9002 43.3001 46.9002ZM45.7001 40.8002C45.1001 42.1002 44.3001 43.0002 43.5001 43.1002H43.4001C41.9001 43.1002 39.4001 40.4002 38.9001 35.6002C38.7001 33.4002 38.9001 31.2002 39.7001 29.6002C40.3001 28.3002 41.1001 27.4002 41.9001 27.3002H42.0001C43.5001 27.3002 46.0001 30.0002 46.5001 34.8002C46.7001 37.0002 46.5001 39.1002 45.7001 40.8002Z" fill="url(#paint2_linear)"/>
<path d="M80.4001 41.7001C80.0001 41.6001 79.6001 41.6001 79.2001 41.6001C75.3001 41.6001 71.7001 45.6001 70.5001 51.2001C69.2001 57.4001 71.4001 62.9001 75.7001 63.8001C76.1001 63.9001 76.5001 63.9001 76.9001 63.9001C80.8001 63.9001 84.4001 59.9001 85.6001 54.3001C86.8001 48.2001 84.6001 42.6001 80.4001 41.7001ZM79.2001 42.3001H79.3001C79.2001 42.3001 79.1001 42.3001 79.0001 42.3001C79.0001 42.3001 79.1001 42.3001 79.2001 42.3001ZM76.8001 63.1001H76.7001C76.8001 63.1001 76.9001 63.1001 77.0001 63.1001C77.0001 63.1001 76.9001 63.1001 76.8001 63.1001ZM81.1001 53.4001C80.3001 57.3001 78.1001 59.4001 76.8001 59.4001C76.7001 59.4001 76.7001 59.4001 76.6001 59.4001C75.4001 59.1001 74.1001 56.2001 74.9001 52.2001C75.7001 48.3001 77.9001 46.2001 79.2001 46.2001C79.3001 46.2001 79.3001 46.2001 79.4001 46.2001C80.0001 46.3001 80.6001 47.1001 81.0001 48.3001C81.4001 49.7001 81.5001 51.5001 81.1001 53.4001Z" fill="url(#paint3_linear)"/>
<path d="M65.8004 22.8003C65.6004 22.8003 65.4004 22.8003 65.2004 22.8003C60.7004 22.8003 56.9004 27.8003 56.2004 34.4003C55.8004 37.7003 56.3004 40.9003 57.6004 43.3003C58.9004 45.9003 60.9004 47.4003 63.2004 47.7003C63.4004 47.7003 63.6004 47.7003 63.8004 47.7003C68.3004 47.7003 72.1004 42.7003 72.8004 36.1003C73.6004 29.1003 70.5004 23.3003 65.8004 22.8003ZM65.2004 23.5003C65.4004 23.5003 65.6004 23.5003 65.8004 23.5003C65.6004 23.5003 65.3004 23.5003 65.1004 23.5003H65.2004ZM63.8004 46.9003C63.6004 46.9003 63.4004 46.9003 63.2004 46.9003C63.4004 46.9003 63.7004 46.9003 63.9004 46.9003C63.9004 46.9003 63.9004 46.9003 63.8004 46.9003ZM68.4004 35.6003C67.9004 40.4003 65.4004 43.1003 63.9004 43.1003H63.8004C63.0004 43.0003 62.1004 42.1003 61.6004 40.8003C60.9004 39.2003 60.6004 37.0003 60.8004 34.8003C61.3004 30.0003 63.8004 27.3003 65.3004 27.3003H65.4004C66.2004 27.4003 67.1004 28.3003 67.6004 29.6003C68.3004 31.2003 68.6004 33.4003 68.4004 35.6003Z" fill="url(#paint4_linear)"/>
<path d="M85 11.5C76.5 8.3 65.7 4.8 52.8 2.5C24.8 7.5 2.5 19.3 2.5 19.3C2.5 19.3 5 66.7 14.4 83.6C23.8 100.5 52.8 109.5 52.8 109.5C52.8 109.5 81.8 100.5 91.2 83.6C100.6 66.7 103.1 19.3 103.1 19.3C103.1 19.3 101 18.2 97.4 16.6" stroke="url(#paint5_linear)" stroke-width="5" stroke-miterlimit="10" stroke-linecap="round" stroke-linejoin="round"/>
</g>
<defs>
<linearGradient id="paint0_linear" x1="32.0133" y1="67.1338" x2="75.2789" y2="67.1338" gradientUnits="userSpaceOnUse">
<stop stop-color="#6367C8"/>
<stop offset="1" stop-color="#944DD7"/>
</linearGradient>
<linearGradient id="paint1_linear" x1="21.2605" y1="52.7369" x2="37.0452" y2="52.7369" gradientUnits="userSpaceOnUse">
<stop stop-color="#6367C8"/>
<stop offset="1" stop-color="#944DD7"/>
</linearGradient>
<linearGradient id="paint2_linear" x1="34.177" y1="35.2075" x2="51.11" y2="35.2075" gradientUnits="userSpaceOnUse">
<stop stop-color="#6367C8"/>
<stop offset="1" stop-color="#944DD7"/>
</linearGradient>
<linearGradient id="paint3_linear" x1="70.1191" y1="52.737" x2="85.9004" y2="52.737" gradientUnits="userSpaceOnUse">
<stop stop-color="#6367C8"/>
<stop offset="1" stop-color="#944DD7"/>
</linearGradient>
<linearGradient id="paint4_linear" x1="56.0544" y1="35.2076" x2="72.9875" y2="35.2076" gradientUnits="userSpaceOnUse">
<stop stop-color="#6367C8"/>
<stop offset="1" stop-color="#944DD7"/>
</linearGradient>
<linearGradient id="paint5_linear" x1="52.7909" y1="112" x2="52.7909" y2="2.83874e-06" gradientUnits="userSpaceOnUse">
<stop stop-color="#6367C8"/>
<stop offset="1" stop-color="#944DD7"/>
</linearGradient>
<clipPath id="clip0">
<rect width="105.6" height="112" fill="white"/>
</clipPath>
</defs>
</svg>
