<svg width="106" height="112" viewBox="0 0 106 112" fill="none" xmlns="http://www.w3.org/2000/svg">
<g clip-path="url(#clip0_1143_714)">
<path d="M70.1999 64.4999C68.2999 62.7999 67.1999 60.8999 66.6999 58.3999C66.0999 55.4999 64.6999 53.1999 62.5999 51.5999C60.3999 49.8999 57.6999 48.8999 54.7999 48.4999H54.2999C53.7999 48.4999 53.2999 48.3999 52.7999 48.3999C52.1999 48.3999 51.5999 48.3999 50.9999 48.4999C47.9999 48.8999 45.2999 49.8999 43.0999 51.5999C40.9999 53.1999 39.5999 55.4999 38.9999 58.3999C38.3999 60.8999 37.2999 62.7999 35.4999 64.4999C31.7999 67.7999 30.2999 72.6999 31.8999 76.9999C33.0999 80.1999 35.5999 82.8999 38.8999 84.5999C40.6999 85.4999 42.6999 85.8999 44.6999 85.8999C46.3999 85.8999 47.9999 85.5999 49.4999 84.9999C50.5999 84.5999 51.6999 84.2999 52.8999 84.2999C54.0999 84.2999 55.1999 84.5999 56.2999 84.9999C57.7999 85.5999 59.3999 85.8999 61.0999 85.8999C63.0999 85.8999 65.0999 85.3999 66.8999 84.5999C70.1999 82.8999 72.6999 80.2999 73.8999 76.9999C75.3999 72.6999 73.9999 67.7999 70.1999 64.4999ZM52.7999 49.1999C53.2999 49.1999 53.7999 49.1999 54.1999 49.2999C53.6999 49.1999 53.1999 49.1999 52.7999 49.1999C52.6999 49.1999 52.6999 49.1999 52.7999 49.1999ZM60.9999 85.0999C60.8999 85.0999 60.6999 85.0999 60.5999 85.0999C60.7999 85.0999 60.9999 85.0999 61.2999 85.0999C61.1999 85.0999 61.0999 85.0999 60.9999 85.0999ZM69.5999 75.2999C68.7999 77.3999 67.0999 79.1999 64.7999 80.3999C63.6999 80.9999 62.3999 81.2999 60.9999 81.2999C59.8999 81.2999 58.7999 81.0999 57.8999 80.6999C56.2999 80.0999 54.5999 79.6999 52.7999 79.6999C50.9999 79.6999 49.2999 80.0999 47.6999 80.6999C46.7999 81.0999 45.6999 81.2999 44.5999 81.2999C43.1999 81.2999 41.8999 80.9999 40.7999 80.3999C38.4999 79.2999 36.7999 77.4999 35.9999 75.2999C35.0999 72.7999 35.9999 69.8999 38.3999 67.7999C40.9999 65.4999 42.5999 62.6999 43.2999 59.2999C43.5999 58.0999 44.1999 56.2999 45.6999 55.1999C47.4999 53.7999 49.8999 52.9999 52.4999 52.8999H52.6999H52.9999C55.5999 52.9999 57.9999 53.7999 59.7999 55.1999C61.2999 56.2999 61.8999 58.0999 62.1999 59.2999C62.9999 62.6999 64.5999 65.4999 67.1999 67.7999C69.5999 69.8999 70.4999 72.8999 69.5999 75.2999Z" fill="url(#paint0_linear_1143_714)"/>
<path d="M35.8999 51.1C34.6999 45.6 31.0999 41.5 27.1999 41.5C26.7999 41.5 26.3999 41.5 25.9999 41.6C23.8999 42 22.1999 43.6 21.2999 46.1C20.3999 48.4 20.1999 51.3 20.8999 54.3C22.0999 59.8 25.6999 63.9 29.5999 63.9C29.9999 63.9 30.3999 63.9 30.7999 63.8C34.8999 62.9 37.1999 57.3 35.8999 51.1ZM27.1999 42.3C27.2999 42.3 27.3999 42.3 27.3999 42.3C27.2999 42.3 27.1999 42.3 27.0999 42.3C27.0999 42.3 27.0999 42.3 27.1999 42.3ZM29.4999 63.1C29.3999 63.1 29.2999 63.1 29.2999 63.1C29.3999 63.1 29.4999 63.1 29.4999 63.1C29.5999 63.1 29.5999 63.1 29.4999 63.1ZM29.7999 59.3C29.6999 59.3 29.6999 59.3 29.5999 59.3C28.2999 59.3 26.1999 57.2 25.2999 53.3C24.8999 51.4 24.8999 49.6 25.3999 48.1C25.7999 46.9 26.3999 46.2 26.9999 46C27.0999 46 27.0999 46 27.1999 46C28.4999 46 30.5999 48.1 31.4999 52C32.2999 56.1 30.9999 59.1 29.7999 59.3Z" fill="url(#paint1_linear_1143_714)"/>
<path d="M50.1998 34.3002C49.4998 27.7002 45.5998 22.7002 41.1998 22.7002C40.9998 22.7002 40.7998 22.7002 40.5998 22.7002C35.8998 23.2002 32.7998 29.0002 33.5998 36.0002C34.2998 42.6002 38.1998 47.6002 42.5998 47.6002C42.7998 47.6002 42.9998 47.6002 43.1998 47.6002C45.4998 47.4002 47.4998 45.8002 48.7998 43.2002C50.0998 40.8002 50.5998 37.6002 50.1998 34.3002ZM41.1998 23.5002H41.2998C41.0998 23.5002 40.7998 23.5002 40.5998 23.5002C40.7998 23.5002 40.9998 23.5002 41.1998 23.5002ZM42.4998 46.9002H42.3998C42.5998 46.9002 42.8998 46.9002 43.0998 46.9002C42.8998 46.9002 42.6998 46.9002 42.4998 46.9002ZM44.8998 40.8002C44.2998 42.1002 43.4998 43.0002 42.6998 43.1002H42.5998C41.0998 43.1002 38.5998 40.4002 38.0998 35.6002C37.8998 33.4002 38.0998 31.2002 38.8998 29.6002C39.4998 28.3002 40.2998 27.4002 41.0998 27.3002H41.1998C42.6998 27.3002 45.1998 30.0002 45.6998 34.8002C45.8998 37.0002 45.6998 39.1002 44.8998 40.8002Z" fill="url(#paint2_linear_1143_714)"/>
<path d="M79.5998 41.7001C79.1998 41.6001 78.7998 41.6001 78.3998 41.6001C74.4998 41.6001 70.8998 45.6001 69.6998 51.2001C68.3998 57.4001 70.5998 62.9001 74.8998 63.8001C75.2998 63.9001 75.6998 63.9001 76.0998 63.9001C79.9998 63.9001 83.5998 59.9001 84.7998 54.3001C85.9998 48.2001 83.7998 42.6001 79.5998 41.7001ZM78.3998 42.3001C78.3998 42.3001 78.2998 42.3001 78.1998 42.3001C78.1998 42.3001 78.2998 42.3001 78.3998 42.3001ZM75.9998 63.1001C75.9998 63.1001 76.0998 63.1001 76.1998 63.1001C76.1998 63.1001 76.0998 63.1001 75.9998 63.1001ZM80.2998 53.4001C79.4998 57.3001 77.2998 59.4001 75.9998 59.4001C75.8998 59.4001 75.8998 59.4001 75.7998 59.4001C74.5998 59.1001 73.2998 56.2001 74.0998 52.2001C74.8998 48.3001 77.0998 46.2001 78.3998 46.2001C78.4998 46.2001 78.4998 46.2001 78.5998 46.2001C79.1998 46.3001 79.7998 47.1001 80.1998 48.3001C80.5998 49.7001 80.6998 51.5001 80.2998 53.4001Z" fill="url(#paint3_linear_1143_714)"/>
<path d="M65.0001 22.7998C64.8001 22.7998 64.6001 22.7998 64.4001 22.7998C59.9001 22.7998 56.1001 27.7998 55.4001 34.3998C55.0001 37.6998 55.5001 40.8998 56.8001 43.2998C58.1001 45.8998 60.1001 47.3998 62.4001 47.6998C62.6001 47.6998 62.8001 47.6998 63.0001 47.6998C67.5001 47.6998 71.3001 42.6998 72.0001 36.0998C72.8001 29.0998 69.7001 23.2998 65.0001 22.7998ZM64.4001 23.4998C64.6001 23.4998 64.8001 23.4998 65.0001 23.4998C64.8001 23.4998 64.5001 23.4998 64.4001 23.4998ZM63.0001 46.8998C62.8001 46.8998 62.6001 46.8998 62.4001 46.8998C62.6001 46.8998 62.9001 46.8998 63.1001 46.8998C63.1001 46.8998 63.1001 46.8998 63.0001 46.8998ZM67.6001 35.5998C67.1001 40.3998 64.6001 43.0998 63.1001 43.0998H63.0001C62.2001 42.9998 61.3001 42.0998 60.8001 40.7998C60.1001 39.1998 59.8001 36.9998 60.0001 34.7998C60.5001 29.9998 63.0001 27.2998 64.5001 27.2998H64.6001C65.4001 27.3998 66.3001 28.2998 66.8001 29.5998C67.5001 31.1998 67.8001 33.3998 67.6001 35.5998Z" fill="url(#paint4_linear_1143_714)"/>
<path d="M98.5 59.4C102 40.3 103.1 19.3 103.1 19.3C103.1 19.3 101 18.2 97.4 16.6L85 11.5C76.5 8.3 65.7 4.8 52.8 2.5C24.8 7.5 2.5 19.3 2.5 19.3C2.5 19.3 5 66.7 14.4 83.6C23.8 100.5 52.8 109.5 52.8 109.5C52.8 109.5 65.2 105.6 76.5 98.2" stroke="url(#paint5_linear_1143_714)" stroke-width="5" stroke-miterlimit="10" stroke-linecap="round" stroke-linejoin="round"/>
<path d="M96 73C97.3807 73 98.5 71.8807 98.5 70.5C98.5 69.1193 97.3807 68 96 68C94.6193 68 93.5 69.1193 93.5 70.5C93.5 71.8807 94.6193 73 96 73Z" fill="url(#paint6_linear_1143_714)"/>
<path d="M93 84.5C94.3807 84.5 95.5 83.3807 95.5 82C95.5 80.6193 94.3807 79.5 93 79.5C91.6193 79.5 90.5 80.6193 90.5 82C90.5 83.3807 91.6193 84.5 93 84.5Z" fill="url(#paint7_linear_1143_714)"/>
<path d="M86 94C87.3807 94 88.5 92.8807 88.5 91.5C88.5 90.1193 87.3807 89 86 89C84.6193 89 83.5 90.1193 83.5 91.5C83.5 92.8807 84.6193 94 86 94Z" fill="url(#paint8_linear_1143_714)"/>
</g>
<defs>
<linearGradient id="paint0_linear_1143_714" x1="31.2339" y1="67.1503" x2="74.4605" y2="67.1503" gradientUnits="userSpaceOnUse">
<stop stop-color="#6367C8"/>
<stop offset="1" stop-color="#944DD7"/>
</linearGradient>
<linearGradient id="paint1_linear_1143_714" x1="20.4811" y1="52.7" x2="36.2655" y2="52.7" gradientUnits="userSpaceOnUse">
<stop stop-color="#6367C8"/>
<stop offset="1" stop-color="#944DD7"/>
</linearGradient>
<linearGradient id="paint2_linear_1143_714" x1="33.3975" y1="35.1504" x2="50.3305" y2="35.1504" gradientUnits="userSpaceOnUse">
<stop stop-color="#6367C8"/>
<stop offset="1" stop-color="#944DD7"/>
</linearGradient>
<linearGradient id="paint3_linear_1143_714" x1="69.349" y1="52.7502" x2="85.1302" y2="52.7502" gradientUnits="userSpaceOnUse">
<stop stop-color="#6367C8"/>
<stop offset="1" stop-color="#944DD7"/>
</linearGradient>
<linearGradient id="paint4_linear_1143_714" x1="55.2868" y1="35.2501" x2="72.2198" y2="35.2501" gradientUnits="userSpaceOnUse">
<stop stop-color="#6367C8"/>
<stop offset="1" stop-color="#944DD7"/>
</linearGradient>
<linearGradient id="paint5_linear_1143_714" x1="52.8" y1="112" x2="52.8" y2="2.83874e-06" gradientUnits="userSpaceOnUse">
<stop stop-color="#6367C8"/>
<stop offset="1" stop-color="#944DD7"/>
</linearGradient>
<linearGradient id="paint6_linear_1143_714" x1="96" y1="68" x2="96" y2="73" gradientUnits="userSpaceOnUse">
<stop stop-color="#6367C8"/>
<stop offset="1" stop-color="#944DD7"/>
</linearGradient>
<linearGradient id="paint7_linear_1143_714" x1="93" y1="79.5" x2="93" y2="84.5" gradientUnits="userSpaceOnUse">
<stop stop-color="#6367C8"/>
<stop offset="1" stop-color="#944DD7"/>
</linearGradient>
<linearGradient id="paint8_linear_1143_714" x1="86" y1="89" x2="86" y2="94" gradientUnits="userSpaceOnUse">
<stop stop-color="#6367C8"/>
<stop offset="1" stop-color="#944DD7"/>
</linearGradient>
<clipPath id="clip0_1143_714">
<rect width="105.6" height="112" fill="white"/>
</clipPath>
</defs>
</svg>
