<svg width="137" height="47" viewBox="0 0 137 47" fill="none" xmlns="http://www.w3.org/2000/svg">
<path d="M15 30.7998C13.6 30.7998 12.3 30.5998 11 30.2998L9.8 29.9998L10.5 27.5998L11.7 27.8998C12.8 28.1998 13.9 28.3998 15.1 28.3998C22 28.3998 27.6 22.7998 27.6 15.8998C27.6 8.9998 22 3.3998 15.1 3.3998C8.2 3.3998 2.5 8.89981 2.5 15.7998V16.9998H0V15.7998C0 7.4998 6.7 0.799805 15 0.799805C23.3 0.799805 30 7.4998 30 15.7998C30 24.0998 23.3 30.7998 15 30.7998Z" fill="white"/>
<path d="M38.9 15.2002H29.5V17.7002H38.9V15.2002Z" fill="white"/>
<path d="M40.5 0H38V46.4H40.5V0Z" fill="white"/>
<path d="M135.1 15.2002H125.7V17.7002H135.1V15.2002Z" fill="white"/>
<path d="M137 0H134.5V46.4H137V0Z" fill="white"/>
<path d="M126.9 0H124.4V46.4H126.9V0Z" fill="white"/>
<path d="M86.2002 0H83.7002V46.4H86.2002V0Z" fill="white"/>
<path d="M98.7999 32.7998L98.6999 30.2998C102.6 30.1998 105.8 28.6998 108.4 25.8998C112.2 21.7998 113.8 15.5998 114.4 10.9998C114.9 7.5998 115 4.69981 115 3.09981H97.3999V0.799805H117.4L117.5 1.9998C117.5 2.1998 117.7 6.2998 116.9 11.4998C116.4 14.5998 115.7 17.3998 114.8 19.8998C113.6 23.0998 112.1 25.6998 110.2 27.6998C107.2 30.8998 103.4 32.6998 98.7999 32.7998Z" fill="white"/>
<path d="M73.7001 33.2001C65.3001 33.2001 59.1001 30.7001 55.3001 25.8001C53.6001 23.7001 52.4001 21.1001 51.7001 18.1001C51.1001 15.7001 50.9001 13.2001 51.0001 10.4001C51.1001 5.70009 52.1001 2.20009 52.1001 2.00009L52.4001 1.1001H74.2001V3.6001H54.4001C54.1001 4.9001 53.6001 7.50009 53.6001 10.5001C53.5001 14.5001 54.1001 20.1001 57.4001 24.3001C60.9001 28.8001 66.8001 30.9001 75.0001 30.7001L75.1001 33.2001C74.5001 33.2001 74.1001 33.2001 73.7001 33.2001Z" fill="white"/>
<path d="M7.0999 28.9C7.76264 28.9 8.2999 28.3627 8.2999 27.7C8.2999 27.0373 7.76264 26.5 7.0999 26.5C6.43716 26.5 5.8999 27.0373 5.8999 27.7C5.8999 28.3627 6.43716 28.9 7.0999 28.9Z" fill="white"/>
<path d="M2.9998 26.1002C3.66255 26.1002 4.1998 25.5629 4.1998 24.9002C4.1998 24.2375 3.66255 23.7002 2.9998 23.7002C2.33706 23.7002 1.7998 24.2375 1.7998 24.9002C1.7998 25.5629 2.33706 26.1002 2.9998 26.1002Z" fill="white"/>
<path d="M1.5999 21.2999C2.26264 21.2999 2.7999 20.7626 2.7999 20.0999C2.7999 19.4372 2.26264 18.8999 1.5999 18.8999C0.937161 18.8999 0.399902 19.4372 0.399902 20.0999C0.399902 20.7626 0.937161 21.2999 1.5999 21.2999Z" fill="white"/>
</svg>
