<svg width="14" height="14" viewBox="0 0 14 14" fill="none" xmlns="http://www.w3.org/2000/svg">
<path d="M12.25 13.6667H1.75C0.921573 13.6667 0.25 13.0697 0.25 12.3333V2.99999C0.25 2.26362 0.921573 1.66666 1.75 1.66666H3.25V0.333328H4.75V1.66666H9.25V0.333328H10.75V1.66666H12.25C13.0784 1.66666 13.75 2.26362 13.75 2.99999V12.3333C13.75 13.0697 13.0784 13.6667 12.25 13.6667ZM1.75 5.66666V12.3333H12.25V5.66666H1.75ZM1.75 2.99999V4.33333H12.25V2.99999H1.75ZM10.75 11H9.25V9.66666H10.75V11ZM7.75 11H6.25V9.66666H7.75V11ZM4.75 11H3.25V9.66666H4.75V11ZM10.75 8.33333H9.25V7H10.75V8.33333ZM7.75 8.33333H6.25V7H7.75V8.33333ZM4.75 8.33333H3.25V7H4.75V8.33333Z" fill="#2E3A59"/>
</svg>
