<svg width="18" height="18" viewBox="0 0 18 18" fill="none" xmlns="http://www.w3.org/2000/svg">
<path d="M9 17.75C4.16751 17.75 0.25 13.8325 0.25 9C0.25 4.16751 4.16751 0.25 9 0.25C13.8325 0.25 17.75 4.16751 17.75 9C17.7445 13.8302 13.8302 17.7445 9 17.75ZM9 2.75C5.54822 2.75 2.75 5.54822 2.75 9C2.75 12.4518 5.54822 15.25 9 15.25C12.4518 15.25 15.25 12.4518 15.25 9C15.25 5.54822 12.4518 2.75 9 2.75ZM9 12.75C6.92893 12.75 5.25 11.0711 5.25 9C5.25 6.92893 6.92893 5.25 9 5.25C11.0711 5.25 12.75 6.92893 12.75 9C12.75 9.99456 12.3549 10.9484 11.6517 11.6517C10.9484 12.3549 9.99456 12.75 9 12.75Z" fill="white"/>
</svg>
