<svg width="21" height="21" viewBox="0 0 21 21" fill="none" xmlns="http://www.w3.org/2000/svg">
<path d="M8.37834 19.565C6.46501 21.4783 3.34825 21.4783 1.43496 19.565C-0.478344 17.6517 -0.478313 14.535 1.43501 12.6217L5.29248 8.76419C7.2058 6.85087 10.3226 6.85085 12.2359 8.76414C12.3136 8.83974 12.3755 8.93002 12.418 9.02975C12.4605 9.12948 12.4828 9.23667 12.4836 9.34508C12.4843 9.4535 12.4635 9.56098 12.4223 9.66128C12.3812 9.76159 12.3205 9.85272 12.2439 9.92938C12.1672 10.006 12.0761 10.0667 11.9758 10.1079C11.8755 10.149 11.768 10.1698 11.6596 10.1691C11.5512 10.1683 11.444 10.146 11.3442 10.1035C11.2445 10.061 11.1542 9.9991 11.0786 9.92139C9.78641 8.62917 7.74193 8.62919 6.4497 9.92143L2.59223 13.7789C1.3 15.0711 1.29999 17.1156 2.5922 18.4078C3.88441 19.7 5.92888 19.7 7.22113 18.4078L10.8857 14.7432C10.9613 14.6655 11.0516 14.6036 11.1513 14.561C11.2511 14.5185 11.3582 14.4962 11.4667 14.4955C11.5751 14.4948 11.6826 14.5156 11.7829 14.5567C11.8832 14.5978 11.9743 14.6585 12.051 14.7352C12.1276 14.8118 12.1883 14.903 12.2294 15.0033C12.2706 15.1036 12.2914 15.211 12.2906 15.3195C12.2899 15.4279 12.2676 15.5351 12.2251 15.6348C12.1826 15.7345 12.1206 15.8248 12.0429 15.9004L8.37834 19.565ZM15.7075 12.2358C13.7942 14.1491 10.6774 14.1492 8.76415 12.2359C8.68646 12.1603 8.62456 12.07 8.58206 11.9703C8.53955 11.8705 8.51729 11.7634 8.51655 11.655C8.51581 11.5465 8.53662 11.4391 8.57777 11.3388C8.61891 11.2385 8.67957 11.1474 8.75623 11.0707C8.83288 10.9941 8.924 10.9334 9.0243 10.8922C9.12459 10.8511 9.23206 10.8303 9.34047 10.831C9.44887 10.8318 9.55605 10.854 9.65577 10.8965C9.7555 10.939 9.84579 11.0009 9.92139 11.0786C11.2136 12.3708 13.2581 12.3708 14.5503 11.0786L18.4078 7.22112C19.7 5.92888 19.7 3.88442 18.4078 2.59221C17.1156 1.29999 15.0711 1.29999 13.7789 2.59222L10.1143 6.25683C10.0387 6.33457 9.94841 6.39652 9.84867 6.43907C9.74893 6.48162 9.64173 6.50392 9.53329 6.50468C9.42486 6.50545 9.31735 6.48466 9.21702 6.44352C9.1167 6.40237 9.02555 6.34169 8.94887 6.26502C8.8722 6.18834 8.81152 6.09719 8.77038 5.99686C8.72924 5.89654 8.70844 5.78903 8.7092 5.6806C8.70997 5.57216 8.73227 5.46495 8.77482 5.36521C8.81737 5.26547 8.87932 5.17518 8.95707 5.09959L12.6217 1.43501C14.535 -0.478315 17.6518 -0.47834 19.5651 1.43496C21.4783 3.34824 21.4783 6.46501 19.565 8.37834L15.7075 12.2358Z" fill="#7B13FF"/>
</svg>
