<svg width="41" height="67" viewBox="0 0 41 67" fill="none" xmlns="http://www.w3.org/2000/svg">
<path fill-rule="evenodd" clip-rule="evenodd" d="M20.1909 66.6345C18.6991 59.1465 16.0687 52.9149 12.8831 47.1398C10.5199 42.856 7.78254 38.9019 5.2496 34.7475C4.40406 33.3607 3.67435 31.8957 2.86186 30.4566C1.23727 27.5788 -0.0799198 24.2419 0.00378035 19.914C0.0855563 15.6853 1.28172 12.293 3.00659 9.51939C5.84351 4.95736 10.5954 1.21732 16.9712 0.234399C22.1845 -0.569248 27.0722 0.7885 30.538 2.86081C33.3702 4.55428 35.5638 6.81648 37.2309 9.48232C38.9711 12.2649 40.1694 15.5522 40.2699 19.8399C40.3215 22.0368 39.9697 24.0711 39.4741 25.7587C38.9726 27.4668 38.166 28.8946 37.4483 30.4195C36.0472 33.3965 34.2908 36.1242 32.5279 38.8534C27.2773 46.9831 22.3492 55.2738 20.1911 66.6344L20.1909 66.6345Z" fill="#6E41E2"/>
<path d="M26.2262 22.9079C24.4768 20.6403 22.2657 19.3914 20 19.3914C17.7342 19.3914 15.523 20.6403 13.7738 22.9079C12.2015 24.9462 11.2628 27.5151 11.2628 29.7796C11.2628 30.8796 11.576 31.7175 12.1937 32.2701C12.8034 32.8156 13.6083 33.0001 14.5063 33C15.4619 33 16.5229 32.7911 17.5654 32.5857C18.4764 32.4063 19.3368 32.2369 20 32.2369C20.5724 32.2369 21.3795 32.3977 22.2338 32.568C24.2303 32.966 26.4934 33.417 27.8006 32.25C28.4221 31.6952 28.7372 30.864 28.7372 29.7796C28.7372 27.5151 27.7986 24.9462 26.2262 22.9079Z" fill="white"/>
<path d="M26.405 10.5943C25.765 9.5811 24.8485 9.00006 23.8905 9.00006C22.9325 9.00006 22.016 9.58116 21.376 10.5943C20.788 11.525 20.4642 12.7473 20.4642 14.036C20.4642 15.3247 20.788 16.5469 21.376 17.4777C22.016 18.4908 22.9325 19.0719 23.8905 19.0719C24.8485 19.0719 25.765 18.4908 26.405 17.4777C26.993 16.5469 27.3168 15.3247 27.3168 14.036C27.3168 12.7473 26.993 11.525 26.405 10.5943Z" fill="white"/>
<path d="M18.624 10.5942C17.9839 9.58104 17.0675 9 16.1094 9C15.1514 9 14.2349 9.58109 13.5949 10.5942C13.0069 11.525 12.6831 12.7472 12.6831 14.0359C12.6831 15.3246 13.0069 16.5469 13.5949 17.4776C14.2349 18.4908 15.1514 19.0719 16.1094 19.0719C17.0675 19.0719 17.9839 18.4908 18.624 17.4776C19.2119 16.5469 19.5358 15.3246 19.5358 14.0359C19.5357 12.7472 19.2119 11.5249 18.624 10.5942Z" fill="white"/>
<path d="M32.8486 18.4992C32.5906 17.5569 32.0375 16.8721 31.2914 16.5712C30.691 16.3291 30.0132 16.3702 29.3829 16.6869C28.5143 17.1233 27.8043 18.0244 27.4351 19.1592C27.1334 20.0865 27.0958 21.0666 27.3293 21.9192C27.5873 22.8615 28.1403 23.5463 28.8865 23.8472C29.1447 23.9513 29.4172 24.0031 29.694 24.0031C30.061 24.0031 30.4358 23.9121 30.7951 23.7315C31.6637 23.2952 32.3737 22.394 32.7429 21.2593V21.2593C33.0445 20.332 33.0821 19.3518 32.8486 18.4992Z" fill="white"/>
<path d="M12.5649 19.1591C12.1957 18.0243 11.4857 17.1232 10.6172 16.6868C9.98682 16.3701 9.30899 16.3291 8.7086 16.5712C7.96242 16.8721 7.40936 17.5569 7.15134 18.4992C6.9179 19.3517 6.95553 20.3319 7.25722 21.2592V21.2593C7.6265 22.394 8.33643 23.2951 9.20499 23.7315C9.56432 23.912 9.93904 24.003 10.306 24.003C10.5829 24.003 10.8554 23.9512 11.1136 23.8471C11.8598 23.5462 12.4129 22.8614 12.6709 21.9191C12.9042 21.0666 12.8666 20.0864 12.5649 19.1591Z" fill="white"/>
</svg>
