<svg width="20" height="20" viewBox="0 0 20 20" fill="none" xmlns="http://www.w3.org/2000/svg">
<g clip-path="url(#clip0)">
<path fill-rule="evenodd" clip-rule="evenodd" d="M9.965 9.16667C7.40417 9.16667 4.31583 13.8875 3.67083 16.43C3.17333 18.3892 4.31583 20 6.01333 20C7.31583 20 8.90667 18.8008 10.0033 18.7808H10.0192C10.9558 18.7808 12.9492 19.9467 14.1225 19.9467C15.7808 19.9467 16.7508 18.3367 16.3267 16.43C15.8475 14.2692 12.7408 9.16667 9.965 9.16667V9.16667ZM1.4575 5.87333C1.1425 5.87333 0.865833 5.945 0.649167 6.09583C0.220833 6.39583 0 7.00583 0 7.76833C0 8.555 0.234167 9.50333 0.7175 10.4417C1.3525 11.6742 2.28333 12.5 3.34167 12.5C3.8 12.5 4.28333 12.3442 4.77583 12C6.19 11.0133 6.03 9.14 4.7075 7.655C3.7075 6.53167 2.41 5.87333 1.4575 5.87333V5.87333ZM18.4383 5.40167C17.4342 5.40167 16.0575 6.36083 15.1642 7.8375C14.11 9.58083 14.3 11.4992 15.9092 12.23C16.3167 12.4142 16.7008 12.5 17.0575 12.5C18.3233 12.5 19.25 11.4217 19.7067 9.9C20.3242 7.8475 19.9983 5.40167 18.4383 5.40167V5.40167ZM13.4725 0C12.3992 0 11.0475 1.3925 10.4542 3.28C9.82333 5.28417 10.4808 7.15917 12.2725 7.49833C15.3975 8.08833 15.5025 4.34 15.5075 4.2375C15.6667 1.2475 14.3167 0 13.4725 0V0ZM5.525 0C4.0675 0 3.49833 2.32417 3.95917 4.515C4.31417 6.2 5.24167 7.42667 6.655 7.42667C6.96667 7.42667 7.30083 7.36667 7.65833 7.24C9.37583 6.63 9.7375 4.67583 8.80583 2.7925C7.98417 1.13 6.5725 0 5.525 0V0ZM9.965 10C12.1158 10 15.0425 14.49 15.5133 16.6108C15.7875 17.8517 15.3025 19.4642 13.6233 19.0475C12.765 18.8367 10.955 17.9475 9.98917 17.9475H9.98833C9.00083 17.9658 7.76 18.6867 6.74083 19.0367C5.13083 19.5917 4.06083 18.285 4.47917 16.635C5.09667 14.1975 8.04083 10 9.965 10V10ZM4.085 8.20917C4.68583 8.88417 5 9.6675 4.925 10.3042C4.82083 11.1875 3.9 11.6667 3.34167 11.6667C2.67083 11.6667 1.985 11.0817 1.45833 10.06C0.585833 8.36417 0.778333 7.0225 1.12667 6.77917C1.25917 6.68667 2.53833 6.47333 4.085 8.20917V8.20917ZM18.4383 6.235L18.6175 6.26667C19.02 6.44917 19.4742 7.77583 18.9075 9.66C18.7275 10.2633 18.1833 11.6667 17.0575 11.6667C16.4767 11.6667 15.66 11.3242 15.4217 10.5542C15.2225 9.91083 15.3883 9.0775 15.8775 8.26917C16.6483 6.99583 17.7842 6.235 18.4383 6.235V6.235ZM13.4725 0.833333C13.6783 0.833333 14.8142 1.57667 14.6758 4.19333C14.5933 5.73833 13.97 6.9725 12.4275 6.68C10.8183 6.37417 10.9475 4.48917 11.25 3.53C11.7742 1.85917 12.8983 0.833333 13.4725 0.833333V0.833333ZM5.525 0.833333C6.18917 0.833333 7.3475 1.72333 8.05833 3.16167C8.49417 4.0425 8.5925 4.92083 8.32917 5.57167C8.00333 6.37333 7.14333 6.59333 6.655 6.59333C5.385 6.59333 4.9175 5.02 4.775 4.34333C4.3775 2.455 4.89167 0.833333 5.525 0.833333Z" fill="#808080"/>
</g>
<defs>
<clipPath id="clip0">
<rect width="20" height="20" fill="white"/>
</clipPath>
</defs>
</svg>
