<svg width="20" height="20" viewBox="0 0 20 20" fill="none" xmlns="http://www.w3.org/2000/svg">
<path fill-rule="evenodd" clip-rule="evenodd" d="M9.96169 9.16688C12.7367 9.16688 15.8426 14.2693 16.3217 16.4301C16.8009 18.5918 15.4917 20.3709 13.4184 19.8568C12.5084 19.631 10.7084 18.7676 10 18.781C9.22918 18.7943 8.0175 19.4776 7.01083 19.8243C4.79665 20.5876 3.07997 18.7551 3.66914 16.4301C4.31415 13.8877 7.4025 9.16688 9.96169 9.16688ZM18.9559 5.50858C19.9459 5.95774 20.3134 7.85855 19.7009 9.9002C19.1143 11.851 17.7592 13.0718 15.9042 12.2302C14.295 11.4994 14.1059 9.58187 15.1592 7.83856C16.2209 6.08274 17.9651 5.05858 18.9559 5.50858ZM0.649119 6.0969C-0.220888 6.7044 -0.234221 8.59355 0.717453 10.4427C1.62746 12.2094 3.14497 13.1393 4.77415 12.001C6.18749 11.0135 6.02749 9.14021 4.70581 7.65522C3.3758 6.16107 1.51912 5.48941 0.649119 6.0969ZM13.685 0.0202892C14.7876 0.229454 15.6192 2.0436 15.5034 4.23859C15.3917 6.33607 14.3326 7.89022 12.2684 7.49856C10.4775 7.15939 9.82002 5.28441 10.4509 3.28109C11.085 1.26361 12.5834 -0.188876 13.685 0.0202892ZM5.10582 0.0686221C4.04914 0.444452 3.50581 2.36527 3.95831 4.51608C4.39081 6.5719 5.67665 7.94439 7.65584 7.24023C9.37251 6.63023 9.73418 4.67608 8.80334 2.7936C7.86584 0.896948 6.16249 -0.307208 5.10582 0.0686221Z" fill="#6E41E2"/>
</svg>
