<svg width="21" height="19" viewBox="0 0 21 19" fill="none" xmlns="http://www.w3.org/2000/svg">
<path d="M1.48401 6.33285V6.33276C1.48379 5.02891 2.00781 3.77973 2.93819 2.86627C3.86857 1.95281 5.12716 1.45179 6.43078 1.47593L6.43078 1.47607L6.4427 1.47601C8.00296 1.46772 9.49177 2.12941 10.5312 3.2931L10.9041 3.71061L11.277 3.2931C12.3164 2.12941 13.8052 1.46772 15.3654 1.47601L15.3654 1.47615L15.3774 1.47593C16.681 1.45179 17.9396 1.95281 18.8699 2.86627C19.8003 3.77973 20.3243 5.02892 20.3241 6.33276V6.33285C20.3241 8.78617 18.8611 10.995 16.8547 13.0338C15.858 14.0467 14.7465 14.9985 13.6514 15.9013C13.3379 16.1597 13.0245 16.4151 12.7156 16.6669C12.0816 17.1836 11.466 17.6853 10.9057 18.1675C10.3204 17.6591 9.67479 17.1313 9.01036 16.588C8.72934 16.3582 8.44495 16.1257 8.16033 15.8907C7.06514 14.9866 5.95332 14.036 4.95596 13.0248C2.94844 10.9896 1.48401 8.78765 1.48401 6.33285Z" fill="white" stroke="#2E3A59"/>
</svg>
