<svg width="127" height="23" viewBox="0 0 127 23" fill="none" xmlns="http://www.w3.org/2000/svg">
<path d="M21.8004 8.50461H16.4714L19.1358 3.80941C19.8242 2.59471 19.4161 1.04287 18.222 0.341314C17.0244 -0.360238 15.5026 0.0587105 14.813 1.27093L12.1484 5.96628L9.48384 1.27093C8.79181 0.0537524 7.27127 -0.360238 6.07483 0.341314C4.88082 1.04287 4.47266 2.59471 5.16104 3.80941L7.82548 8.50461H2.49524C1.11725 8.50461 0 9.63998 0 11.0431C0 12.4462 1.11725 13.5816 2.49524 13.5816H7.82685L5.16104 18.2792C4.47266 19.4939 4.88082 21.0458 6.07483 21.7473C6.46836 21.9779 6.89723 22.087 7.32001 22.087C8.18262 22.087 9.02086 21.6308 9.48384 20.8177L12.1484 16.1224L14.813 20.8177C15.276 21.6333 16.1143 22.087 16.9769 22.087C17.3996 22.087 17.8285 21.9779 18.222 21.7473C19.4161 21.0458 19.8242 19.4939 19.1358 18.2792L16.47 13.5816H21.8004C23.1784 13.5816 24.2957 12.4462 24.2957 11.0431C24.2957 9.63998 23.1784 8.50461 21.8004 8.50461Z" fill="url(#paint0_linear_37_3114)"/>
<path d="M57.0257 8.50461H51.4532L54.2387 3.80941C54.9584 2.59471 54.5317 1.04287 53.2834 0.341314C52.03 -0.360238 50.4404 0.0587105 49.7194 1.27093L46.9337 5.96628L44.148 1.27093C43.4258 0.0537524 41.8323 -0.360238 40.5841 0.341314C39.3358 1.04287 38.9091 2.59471 39.6287 3.80941L42.4143 8.50461H36.843C35.4024 8.50461 34.2344 9.63998 34.2344 11.0431C34.2344 12.4462 35.4024 13.5816 36.843 13.5816H42.4157L39.6287 18.2792C38.9091 19.4939 39.3358 21.0458 40.5841 21.7473C40.9955 21.9779 41.4438 22.087 41.8858 22.087C42.7877 22.087 43.664 21.6308 44.148 20.8177L46.9337 16.1224L49.7194 20.8177C50.2035 21.6333 51.0798 22.087 51.9816 22.087C52.4236 22.087 52.872 21.9779 53.2834 21.7473C54.5317 21.0458 54.9584 19.4939 54.2387 18.2792L51.4518 13.5816H57.0257C58.4663 13.5816 59.6344 12.4462 59.6344 11.0431C59.6344 9.63998 58.4663 8.50461 57.0257 8.50461Z" fill="url(#paint1_linear_37_3114)"/>
<path d="M90.1566 8.50461H84.585L87.3709 3.80941C88.0905 2.59471 87.6638 1.04287 86.4156 0.341314C85.166 -0.360238 83.5725 0.0537524 82.8516 1.27093L80.0652 5.9669L77.2789 1.27093C76.5567 0.0537524 74.9581 -0.360238 73.7149 0.341314C72.4666 1.04287 72.0399 2.59471 72.7596 3.80941L75.5455 8.50461H69.9739C68.5333 8.50461 67.3652 9.63998 67.3652 11.0431C67.3652 12.4462 68.5333 13.5816 69.9739 13.5816H75.5471L72.7596 18.2792C72.0399 19.4939 72.4666 21.0458 73.7149 21.7473C74.1251 21.9779 74.5747 22.087 75.0167 22.087C75.9185 22.087 76.7949 21.6333 77.2789 20.8177L80.0652 16.1217L82.8516 20.8177C83.3356 21.6333 84.212 22.087 85.1138 22.087C85.5558 22.087 86.0054 21.9779 86.4156 21.7473C87.6638 21.0458 88.0905 19.4939 87.3709 18.2792L84.5834 13.5816H90.1566C91.5972 13.5816 92.7652 12.4462 92.7652 11.0431C92.7652 9.63998 91.5972 8.50461 90.1566 8.50461Z" fill="url(#paint2_linear_37_3114)"/>
<path d="M124.505 8.50461H119.175L121.84 3.80941C122.528 2.59471 122.12 1.04287 120.926 0.341314C119.73 -0.360238 118.207 0.0537524 117.517 1.27093L114.852 5.9669L112.187 1.27093C111.497 0.0537524 109.969 -0.360238 108.778 0.341314C107.584 1.04287 107.176 2.59471 107.864 3.80941L110.529 8.50461H105.199C103.821 8.50461 102.704 9.63998 102.704 11.0431C102.704 12.4462 103.821 13.5816 105.199 13.5816H110.53L107.864 18.2792C107.176 19.4939 107.584 21.0458 108.778 21.7473C109.17 21.9779 109.6 22.087 110.023 22.087C110.886 22.087 111.724 21.6333 112.187 20.8177L114.852 16.1217L117.517 20.8177C117.98 21.6333 118.818 22.087 119.681 22.087C120.104 22.087 120.534 21.9779 120.926 21.7473C122.12 21.0458 122.528 19.4939 121.84 18.2792L119.174 13.5816H124.505C125.883 13.5816 127 12.4462 127 11.0431C127 9.63998 125.883 8.50461 124.505 8.50461Z" fill="url(#paint3_linear_37_3114)"/>
<defs>
<linearGradient id="paint0_linear_37_3114" x1="12.1478" y1="0" x2="12.1478" y2="22.087" gradientUnits="userSpaceOnUse">
<stop stop-color="#6367C8"/>
<stop offset="1" stop-color="#944DD7"/>
</linearGradient>
<linearGradient id="paint1_linear_37_3114" x1="46.9344" y1="0" x2="46.9344" y2="22.087" gradientUnits="userSpaceOnUse">
<stop stop-color="#6367C8"/>
<stop offset="1" stop-color="#944DD7"/>
</linearGradient>
<linearGradient id="paint2_linear_37_3114" x1="80.0652" y1="0" x2="80.0652" y2="22.087" gradientUnits="userSpaceOnUse">
<stop stop-color="#6367C8"/>
<stop offset="1" stop-color="#944DD7"/>
</linearGradient>
<linearGradient id="paint3_linear_37_3114" x1="114.852" y1="0" x2="114.852" y2="22.087" gradientUnits="userSpaceOnUse">
<stop stop-color="#6367C8"/>
<stop offset="1" stop-color="#944DD7"/>
</linearGradient>
</defs>
</svg>
