<svg width="18" height="18" viewBox="0 0 18 18" fill="none" xmlns="http://www.w3.org/2000/svg">
<path d="M5.00008 17.056C2.97792 17.056 1.15486 15.8379 0.38088 13.9698C-0.393096 12.1016 0.0344101 9.95112 1.46408 8.52102L3.58608 6.39902L5.00008 7.81302L2.87908 9.93402C2.12114 10.692 1.82513 11.7967 2.10256 12.832C2.37998 13.8674 3.18869 14.6761 4.22406 14.9535C5.25942 15.231 6.36414 14.935 7.12208 14.177L9.24308 12.056L10.6571 13.471L8.53608 15.592C7.60015 16.5325 6.32693 17.0597 5.00008 17.056ZM5.70708 12.763L4.29308 11.349L11.3641 4.27802L12.7781 5.69202L5.70808 12.762L5.70708 12.763ZM13.4861 10.642L12.0711 9.22802L14.1921 7.10702C14.9603 6.35135 15.2643 5.24168 14.9883 4.2C14.7124 3.15831 13.8989 2.34467 12.8573 2.06846C11.8157 1.79226 10.7059 2.09594 9.95008 2.86402L7.82808 4.98502L6.41408 3.57102L8.53608 1.44902C10.4912 -0.489017 13.6451 -0.482111 15.5916 1.46447C17.5382 3.41104 17.5451 6.56493 15.6071 8.52002L13.4861 10.641V10.642Z" fill="#2E3A59"/>
</svg>
