<svg width="32" height="21" viewBox="0 0 32 21" fill="none" xmlns="http://www.w3.org/2000/svg">
<path d="M16.7882 9.08956C16.9376 9.05357 17.0678 8.96122 17.1509 8.84031C17.2432 8.70077 17.2789 8.52323 17.2351 8.34959L17.2303 8.34486L17.2256 8.34013C16.924 7.17621 16.4755 6.31046 15.8515 5.68642C15.8231 5.65806 15.79 5.62496 15.7569 5.59187C15.114 4.94893 14.1825 4.48106 13 4.19799L12.9859 4.19317L12.9672 4.19299C12.6578 4.15252 12.3604 4.37432 12.2794 4.71059L12.2749 4.72459L12.2703 4.73859C12.2443 4.95368 12.3023 5.1415 12.4442 5.28333C12.5293 5.36842 12.6375 5.43034 12.7736 5.46444L12.783 5.46453L12.7924 5.46462C13.4068 5.58765 14.271 5.87697 14.9091 6.50583L14.9139 6.51055L14.9186 6.51528C14.947 6.54365 14.9753 6.57201 14.999 6.59565C15.4812 7.07786 15.8392 7.78824 15.9969 8.59498L16.0018 8.61843L16.0113 8.63725C16.0498 8.74062 16.1116 8.83953 16.1873 8.91517C16.3196 9.04754 16.4936 9.11946 16.6714 9.11183" fill="#7B13FF"/>
<path d="M17.8377 3.43631L17.814 3.41267C16.7882 2.3868 15.3068 1.69354 13.4027 1.33789C13.2572 1.3037 13.0984 1.3396 12.9683 1.44132C12.8196 1.55222 12.7324 1.73394 12.7295 1.91649C12.7173 2.10831 12.7848 2.30558 12.9266 2.44741C13.0117 2.5325 13.1153 2.58969 13.2326 2.62361L13.2467 2.62843L13.2608 2.63325C14.8737 2.89242 16.1292 3.46176 16.9896 4.32218L17.0133 4.34581L17.018 4.35054L17.0227 4.35527C17.0653 4.39782 17.1125 4.43573 17.155 4.47828C18.2376 5.56088 18.7205 7.073 18.9417 8.14719C18.9616 8.2691 19.0189 8.38201 19.1087 8.47184C19.241 8.60421 19.429 8.67158 19.6114 8.65932L19.6208 8.65941L19.6301 8.6595C19.8031 8.63778 19.9567 8.54097 20.0536 8.3968C20.1459 8.25726 20.1769 8.08435 20.1425 7.9108C19.8774 6.65361 19.289 4.88766 17.9795 3.57814" fill="#7B13FF"/>
<path d="M3.47525 20H9.76125V18.264H5.54725V9.626H3.47525V20ZM11.121 20H13.179V12.16H11.121V20ZM12.157 10.9C12.857 10.9 13.347 10.452 13.347 9.766C13.347 9.094 12.857 8.646 12.157 8.646C11.443 8.646 10.953 9.094 10.953 9.766C10.953 10.452 11.443 10.9 12.157 10.9ZM16.857 20H19.237L21.855 12.16H19.881L18.733 16.066C18.523 16.836 18.313 17.648 18.103 18.446H18.033C17.823 17.648 17.613 16.836 17.403 16.066L16.255 12.16H14.183L16.857 20ZM26.186 20.196C27.152 20.196 28.146 19.86 28.916 19.328L28.216 18.068C27.656 18.418 27.096 18.614 26.452 18.614C25.29 18.614 24.45 17.942 24.282 16.654H29.112C29.168 16.472 29.21 16.094 29.21 15.702C29.21 13.546 28.09 11.964 25.934 11.964C24.072 11.964 22.28 13.546 22.28 16.08C22.28 18.67 23.988 20.196 26.186 20.196ZM24.254 15.282C24.408 14.148 25.136 13.56 25.962 13.56C26.97 13.56 27.446 14.232 27.446 15.282H24.254Z" fill="#7B13FF"/>
</svg>
