<svg width="41" height="67" viewBox="0 0 41 67" fill="none" xmlns="http://www.w3.org/2000/svg">
<path fill-rule="evenodd" clip-rule="evenodd" d="M20.916 66.6345C19.4242 59.1465 16.7938 52.9149 13.6082 47.1398C11.245 42.856 8.50764 38.9019 5.9747 34.7475C5.12916 33.3607 4.39945 31.8957 3.58696 30.4566C1.96237 27.5788 0.645178 24.2419 0.728878 19.914C0.810654 15.6853 2.00682 12.293 3.73169 9.51939C6.56861 4.95736 11.3205 1.21732 17.6963 0.234399C22.9096 -0.569248 27.7973 0.7885 31.2631 2.86081C34.0952 4.55428 36.2889 6.81648 37.956 9.48232C39.6962 12.2649 40.8945 15.5522 40.995 19.8399C41.0466 22.0368 40.6948 24.0711 40.1992 25.7587C39.6977 27.4668 38.8911 28.8946 38.1734 30.4195C36.7723 33.3965 35.0159 36.1242 33.253 38.8534C28.0024 46.9831 23.0743 55.2738 20.9162 66.6344L20.916 66.6345Z" fill="#C92A2A"/>
<path d="M20.8627 27.081C24.7591 27.081 27.9177 23.8513 27.9177 19.8673C27.9177 15.8832 24.7591 12.6536 20.8627 12.6536C16.9663 12.6536 13.8076 15.8832 13.8076 19.8673C13.8076 23.8513 16.9663 27.081 20.8627 27.081Z" fill="white"/>
</svg>
