<svg width="18" height="5" viewBox="0 0 18 5" fill="none" xmlns="http://www.w3.org/2000/svg">
<path d="M2.17802 4.07097C1.12752 3.72964 0.552614 2.60133 0.893945 1.55082C1.23528 0.500313 2.36358 -0.0745884 3.41409 0.266742C4.4646 0.608073 5.0395 1.73638 4.69817 2.78689C4.53426 3.29136 4.17666 3.71006 3.70404 3.95087C3.23142 4.19168 2.6825 4.23488 2.17802 4.07097ZM8.5024 4.02296C7.45189 3.68163 6.87699 2.55332 7.21832 1.50281C7.55965 0.452302 8.68796 -0.122599 9.73846 0.218731C10.789 0.560062 11.3639 1.68837 11.0225 2.73888C10.8586 3.24335 10.501 3.66205 10.0284 3.90286C9.55579 4.14367 9.00687 4.18687 8.5024 4.02296ZM14.8268 3.97495C13.7763 3.63362 13.2014 2.50531 13.5427 1.4548C13.884 0.404291 15.0123 -0.17061 16.0628 0.17072C17.1133 0.512051 17.6882 1.64036 17.3469 2.69087C17.183 3.19534 16.8254 3.61403 16.3528 3.85485C15.8802 4.09566 15.3312 4.13886 14.8268 3.97495Z" fill="black" fill-opacity="0.95"/>
</svg>
