<svg width="27" height="27" viewBox="0 0 27 27" fill="none" xmlns="http://www.w3.org/2000/svg">
<path d="M13.5003 8.70969C12.5528 8.70969 11.6267 8.99063 10.8389 9.517C10.0512 10.0434 9.43717 10.7915 9.07461 11.6668C8.71204 12.5421 8.61717 13.5053 8.80201 14.4346C8.98684 15.3638 9.44308 16.2173 10.113 16.8873C10.783 17.5572 11.6365 18.0134 12.5657 18.1983C13.495 18.3831 14.4581 18.2883 15.3335 17.9257C16.2088 17.5631 16.9569 16.9491 17.4833 16.1614C18.0097 15.3736 18.2906 14.4474 18.2906 13.5C18.2906 12.2295 17.7859 11.0111 16.8876 10.1127C15.9892 9.21438 14.7708 8.70969 13.5003 8.70969ZM13.5003 16.1613C12.9739 16.1613 12.4594 16.0052 12.0218 15.7128C11.5841 15.4204 11.243 15.0047 11.0416 14.5184C10.8401 14.0322 10.7874 13.4971 10.8901 12.9808C10.9928 12.4646 11.2463 11.9904 11.6185 11.6182C11.9907 11.246 12.4649 10.9925 12.9811 10.8899C13.4973 10.7872 14.0324 10.8399 14.5187 11.0413C15.005 11.2427 15.4206 11.5838 15.7131 12.0215C16.0055 12.4591 16.1616 12.9737 16.1616 13.5C16.1616 14.2058 15.8812 14.8827 15.3821 15.3818C14.883 15.8809 14.2061 16.1613 13.5003 16.1613Z" fill="#7B13FF"/>
<path d="M25.92 12.42H23.1552C22.9094 10.2303 21.927 8.18913 20.3689 6.63107C18.8109 5.07302 16.7697 4.09056 14.58 3.8448V1.08C14.58 0.793566 14.4662 0.518864 14.2637 0.316325C14.0611 0.113786 13.7864 0 13.5 0C13.2136 0 12.9389 0.113786 12.7363 0.316325C12.5338 0.518864 12.42 0.793566 12.42 1.08V3.8448C10.2303 4.09056 8.18913 5.07302 6.63107 6.63107C5.07302 8.18913 4.09056 10.2303 3.8448 12.42H1.08C0.793566 12.42 0.518864 12.5338 0.316325 12.7363C0.113786 12.9389 0 13.2136 0 13.5C0 13.7864 0.113786 14.0611 0.316325 14.2637C0.518864 14.4662 0.793566 14.58 1.08 14.58H3.8448C4.09056 16.7697 5.07302 18.8109 6.63107 20.3689C8.18913 21.927 10.2303 22.9094 12.42 23.1552V25.92C12.42 26.2064 12.5338 26.4811 12.7363 26.6837C12.9389 26.8862 13.2136 27 13.5 27C13.7864 27 14.0611 26.8862 14.2637 26.6837C14.4662 26.4811 14.58 26.2064 14.58 25.92V23.1552C16.7697 22.9094 18.8109 21.927 20.3689 20.3689C21.927 18.8109 22.9094 16.7697 23.1552 14.58H25.92C26.2064 14.58 26.4811 14.4662 26.6837 14.2637C26.8862 14.0611 27 13.7864 27 13.5C27 13.2136 26.8862 12.9389 26.6837 12.7363C26.4811 12.5338 26.2064 12.42 25.92 12.42ZM13.5 21.06C12.0048 21.06 10.5431 20.6166 9.29989 19.7859C8.05665 18.9552 7.08767 17.7745 6.51547 16.3931C5.94327 15.0117 5.79356 13.4916 6.08526 12.0251C6.37697 10.5586 7.09699 9.21156 8.15427 8.15427C9.21156 7.09699 10.5586 6.37697 12.0251 6.08526C13.4916 5.79356 15.0117 5.94327 16.3931 6.51547C17.7745 7.08767 18.9552 8.05665 19.7859 9.29989C20.6166 10.5431 21.06 12.0048 21.06 13.5C21.06 15.505 20.2635 17.428 18.8457 18.8457C17.428 20.2635 15.505 21.06 13.5 21.06Z" fill="#7B13FF"/>
</svg>
