<svg width="20" height="20" viewBox="0 0 20 20" fill="none" xmlns="http://www.w3.org/2000/svg">
<g clip-path="url(#clip0)">
<path d="M20 9.16667H18.2908C17.9 5.22917 14.7708 2.1 10.8333 1.70833V0H9.16667V1.70833C5.22917 2.1 2.1 5.22917 1.70917 9.16667H0V10.8333H1.70917C2.1 14.7708 5.22917 17.9 9.16667 18.2917V20H10.8333V18.2917C14.7708 17.9008 17.9 14.7708 18.2908 10.8333H20V9.16667ZM10.8333 16.6092V13.3333H9.16667V16.6092C6.1575 16.2308 3.76833 13.8425 3.39083 10.8333H6.66667V9.16667H3.39083C3.76833 6.1575 6.1575 3.76917 9.16667 3.39083V6.66667H10.8333V3.39083C13.8425 3.76917 16.2317 6.15667 16.6092 9.16667H13.3333V10.8333H16.6092C16.2317 13.8425 13.8425 16.2308 10.8333 16.6092ZM11.6667 10C11.6667 10.92 10.92 11.6667 10 11.6667C9.08 11.6667 8.33333 10.92 8.33333 10C8.33333 9.08 9.08 8.33333 10 8.33333C10.92 8.33333 11.6667 9.08 11.6667 10Z" fill="#6E41E2"/>
</g>
<defs>
<clipPath id="clip0">
<rect width="20" height="20" fill="white"/>
</clipPath>
</defs>
</svg>
