<svg width="28" height="28" viewBox="0 0 28 28" fill="none" xmlns="http://www.w3.org/2000/svg">
<g clip-path="url(#clip0)">
<path d="M28 12.8333H25.6072C25.06 7.32083 20.6792 2.94 15.1667 2.39167V0H12.8333V2.39167C7.32083 2.94 2.94 7.32083 2.39283 12.8333H0V15.1667H2.39283C2.94 20.6792 7.32083 25.06 12.8333 25.6083V28H15.1667V25.6083C20.6792 25.0612 25.06 20.6792 25.6072 15.1667H28V12.8333ZM15.1667 23.2528V18.6667H12.8333V23.2528C8.6205 22.7232 5.27567 19.3795 4.74717 15.1667H9.33333V12.8333H4.74717C5.27567 8.6205 8.6205 5.27683 12.8333 4.74717V9.33333H15.1667V4.74717C19.3795 5.27683 22.7243 8.61933 23.2528 12.8333H18.6667V15.1667H23.2528C22.7243 19.3795 19.3795 22.7232 15.1667 23.2528ZM16.3333 14C16.3333 15.288 15.288 16.3333 14 16.3333C12.712 16.3333 11.6667 15.288 11.6667 14C11.6667 12.712 12.712 11.6667 14 11.6667C15.288 11.6667 16.3333 12.712 16.3333 14Z" fill="#6E41E2"/>
</g>
<defs>
<clipPath id="clip0">
<rect width="28" height="28" fill="white"/>
</clipPath>
</defs>
</svg>
