<svg width="26" height="26" viewBox="0 0 26 26" fill="none" xmlns="http://www.w3.org/2000/svg">
<path d="M18.9497 16.718C18.4806 16.718 18.0234 16.6238 17.5923 16.4374L18.0982 15.2653C18.369 15.3812 18.655 15.4408 18.9497 15.4408C19.1902 15.4408 19.4274 15.4007 19.6549 15.3216L20.0753 16.5263C19.7134 16.6541 19.3353 16.718 18.9497 16.718ZM7.1175 16.6942C6.71342 16.6942 6.31475 16.6227 5.93342 16.4829L6.37433 15.2858C6.61375 15.3736 6.86292 15.418 7.1175 15.418C7.39917 15.418 7.67433 15.3638 7.93433 15.2577L8.41858 16.4385C8.00475 16.6086 7.56708 16.6942 7.1175 16.6942ZM16.51 15.8459L14.7128 14.8222L15.3443 13.7128L17.1427 14.7366L16.51 15.8459ZM9.51708 15.8243L8.86167 14.729L10.6373 13.6663L11.2927 14.7615L9.51708 15.8243ZM13.7616 14.2989C13.4983 14.1895 13.2199 14.1332 12.9339 14.1332C12.6848 14.1332 12.4388 14.1765 12.2038 14.2621L11.7693 13.0618C12.1442 12.9263 12.5363 12.8581 12.9339 12.8581C13.3889 12.8581 13.8331 12.9469 14.2523 13.1224L13.7616 14.2989ZM21.6992 14.1223C21.1207 14.1223 20.6505 14.5914 20.6505 15.171C20.6505 15.7506 21.1207 16.2197 21.6992 16.2197C22.2788 16.2197 22.7489 15.7495 22.7489 15.171C22.7489 14.5914 22.2788 14.1223 21.6992 14.1223ZM4.29975 14.1223C3.72017 14.1223 3.25 14.5914 3.25 15.171C3.25 15.7506 3.72017 16.2197 4.29975 16.2197C4.87933 16.2197 5.3495 15.7495 5.3495 15.171C5.3495 14.5914 4.87933 14.1223 4.29975 14.1223ZM23.8333 13.221V20.4609L19.5 23.1465V18.4167H18.4167V22.9028L14.0833 19.7773V16.25H11.9167V19.7762L7.58333 22.9017V18.4167H6.5V23.1454L2.16667 20.4598V6.058L6.5 8.74358V13H7.58333V8.74575L11.9167 5.61925V10.8333H14.0833V5.61925L15.7917 6.85208C15.4245 6.09267 15.1667 5.20758 15.1667 4.11775L15.1873 3.744L13 2.16667L6.99292 6.5L0 2.16667V21.6667L6.99292 26L13 21.6667L19.0071 26L26 21.6667V9.0805L25.9578 9.13142C25.0575 10.1953 24.2093 11.2093 23.8333 13.221ZM26 4.11775C26 1.84383 23.9417 0 21.6667 0C19.3917 0 17.3333 1.84383 17.3333 4.11775C17.3333 7.49883 20.787 7.85633 21.6667 13C22.5463 7.85633 26 7.49883 26 4.11775ZM20.0417 4.33333C20.0417 3.43525 20.7697 2.70833 21.6667 2.70833C22.5637 2.70833 23.2917 3.43525 23.2917 4.33333C23.2917 5.23142 22.5637 5.95833 21.6667 5.95833C20.7697 5.95833 20.0417 5.23142 20.0417 4.33333ZM19.448 13C19.2183 11.9253 18.8554 11.1323 18.4167 10.4715V13H19.448Z" fill="white"/>
</svg>
