<svg width="46" height="46" viewBox="0 0 46 46" fill="none" xmlns="http://www.w3.org/2000/svg">
<path d="M22.6689 45.1665C10.2469 45.1529 0.180268 35.0873 0.166626 22.6665V22.2165C0.413997 9.85173 10.5955 0.00444619 22.9629 0.168525C35.3303 0.332604 45.2469 10.4465 45.1661 22.8135C45.0853 35.1805 35.0374 45.164 22.6689 45.1665ZM22.6329 40.6665H22.6689C32.6075 40.6566 40.6576 32.5951 40.6527 22.6575C40.6477 12.7199 32.5895 4.66655 22.6509 4.66655C12.7123 4.66655 4.65404 12.7199 4.64907 22.6575C4.64411 32.5951 12.6943 40.6566 22.6329 40.6665ZM29.4195 31.6665H24.9191V13.6665H29.4195V31.6665ZM20.4186 31.6665H15.9182V13.6665H20.4186V31.6665Z" fill="#F2F2F2"/>
</svg>
