<svg width="22" height="22" viewBox="0 0 22 22" fill="none" xmlns="http://www.w3.org/2000/svg">
<path fill-rule="evenodd" clip-rule="evenodd" d="M14.5319 15.18C12.9892 16.5706 10.9468 17.4167 8.70833 17.4167C3.90225 17.4167 0 13.5144 0 8.70833C0 3.90225 3.90225 0 8.70833 0C13.5144 0 17.4167 3.90225 17.4167 8.70833C17.4167 10.9468 16.5706 12.9892 15.18 14.5319L22 21.3519L21.3519 22L14.5319 15.18ZM8.70833 0.916667C13.0084 0.916667 16.5 4.40825 16.5 8.70833C16.5 13.0084 13.0084 16.5 8.70833 16.5C4.40825 16.5 0.916667 13.0084 0.916667 8.70833C0.916667 4.40825 4.40825 0.916667 8.70833 0.916667Z" fill="#808080"/>
</svg>
