<svg width="24" height="24" viewBox="0 0 24 24" fill="none" xmlns="http://www.w3.org/2000/svg">
<path fill-rule="evenodd" clip-rule="evenodd" d="M15.5319 16.18C13.9892 17.5706 11.9468 18.4167 9.70833 18.4167C4.90225 18.4167 1 14.5144 1 9.70833C1 4.90225 4.90225 1 9.70833 1C14.5144 1 18.4167 4.90225 18.4167 9.70833C18.4167 11.9468 17.5706 13.9892 16.18 15.5319L23 22.3519L22.3519 23L15.5319 16.18ZM9.70833 1.91667C14.0084 1.91667 17.5 5.40825 17.5 9.70833C17.5 14.0084 14.0084 17.5 9.70833 17.5C5.40825 17.5 1.91667 14.0084 1.91667 9.70833C1.91667 5.40825 5.40825 1.91667 9.70833 1.91667Z" fill="#6E41E2" stroke="#6E41E2"/>
</svg>
