<svg width="21" height="21" viewBox="0 0 21 21" fill="none" xmlns="http://www.w3.org/2000/svg">
<path d="M4.4999 13C5.37455 12.9974 6.21612 12.6653 6.85689 12.07L13.1169 15.647C12.6833 17.3413 13.5594 19.0969 15.1739 19.7692C16.7883 20.4415 18.6516 19.8265 19.5486 18.3253C20.4457 16.824 20.1046 14.8918 18.7476 13.7885C17.3907 12.6852 15.4295 12.7455 14.1429 13.93L7.88289 10.353C7.94852 10.1021 7.98477 9.84432 7.9909 9.585L14.1419 6.07C15.3628 7.17994 17.1943 7.28285 18.5319 6.31668C19.8694 5.35051 20.3473 3.57944 19.6773 2.07159C19.0072 0.563735 17.3725 -0.268594 15.759 0.0765662C14.1455 0.421727 12.9944 1.85 12.9999 3.5C13.0035 3.78808 13.0428 4.0746 13.1169 4.353L7.4329 7.6C6.52239 6.19142 4.74062 5.62676 3.185 6.25381C1.62939 6.88086 0.737287 8.52333 1.05816 10.1696C1.37903 11.8158 2.82266 13.0031 4.4999 13Z" fill="#2E3A59"/>
</svg>
