<svg width="19" height="18" viewBox="0 0 19 18" fill="none" xmlns="http://www.w3.org/2000/svg">
<path d="M9.14734 1.36129L9.14756 1.36177C9.14749 1.36161 9.14741 1.36145 9.14734 1.36129L9.51056 1.19375L9.14734 1.36129ZM9.51056 2.14876L11.3975 6.23953C11.6014 6.68166 12.0204 6.98608 12.5039 7.04341L16.9775 7.57383L13.6701 10.6325C13.3126 10.9631 13.1525 11.4556 13.2474 11.9332L14.1254 16.3518L10.1944 14.1514C9.76952 13.9135 9.25161 13.9135 8.82674 14.1514L4.89572 16.3518L5.77369 11.9332C5.86858 11.4556 5.70854 10.9631 5.35107 10.6325L4.74001 11.2933L5.35107 10.6325L2.04359 7.57383L6.51723 7.04341C7.00074 6.98608 7.41974 6.68166 7.62367 6.23953L9.51056 2.14876Z" stroke="white" stroke-width="1.8"/>
</svg>
