<svg width="22" height="24" viewBox="0 0 22 24" fill="none" xmlns="http://www.w3.org/2000/svg">
<path d="M20.3077 3.69231H15.2308V2.76923C15.2308 2.03479 14.939 1.33042 14.4197 0.811089C13.9004 0.291757 13.196 0 12.4615 0H8.76923C8.03479 0 7.33042 0.291757 6.81109 0.811089C6.29176 1.33042 6 2.03479 6 2.76923V3.69231H0.923077C0.678262 3.69231 0.443474 3.78956 0.270363 3.96267C0.0972527 4.13578 0 4.37057 0 4.61538C0 4.8602 0.0972527 5.09499 0.270363 5.2681C0.443474 5.44121 0.678262 5.53846 0.923077 5.53846H2.30769V21.2308C2.30769 21.9652 2.59945 22.6696 3.11878 23.1889C3.63811 23.7082 4.34248 24 5.07692 24H16.1538C16.8883 24 17.5927 23.7082 18.112 23.1889C18.6313 22.6696 18.9231 21.9652 18.9231 21.2308V5.53846H20.3077C20.5525 5.53846 20.7873 5.44121 20.9604 5.2681C21.1335 5.09499 21.2308 4.8602 21.2308 4.61538C21.2308 4.37057 21.1335 4.13578 20.9604 3.96267C20.7873 3.78956 20.5525 3.69231 20.3077 3.69231ZM7.84615 2.76923C7.84615 2.52442 7.94341 2.28963 8.11652 2.11652C8.28963 1.94341 8.52442 1.84615 8.76923 1.84615H12.4615C12.7064 1.84615 12.9411 1.94341 13.1143 2.11652C13.2874 2.28963 13.3846 2.52442 13.3846 2.76923V3.69231H7.84615V2.76923ZM17.0769 21.2308C17.0769 21.4756 16.9797 21.7104 16.8066 21.8835C16.6335 22.0566 16.3987 22.1538 16.1538 22.1538H5.07692C4.83211 22.1538 4.59732 22.0566 4.42421 21.8835C4.2511 21.7104 4.15385 21.4756 4.15385 21.2308V5.53846H17.0769V21.2308Z" fill="white"/>
<path d="M6.92308 19.8461C7.16789 19.8461 7.40268 19.7489 7.57579 19.5758C7.7489 19.4027 7.84615 19.1679 7.84615 18.9231V8.76921C7.84615 8.52439 7.7489 8.2896 7.57579 8.11649C7.40268 7.94338 7.16789 7.84613 6.92308 7.84613C6.67826 7.84613 6.44347 7.94338 6.27036 8.11649C6.09725 8.2896 6 8.52439 6 8.76921V18.9231C6 19.1679 6.09725 19.4027 6.27036 19.5758C6.44347 19.7489 6.67826 19.8461 6.92308 19.8461Z" fill="white"/>
<path d="M14.3078 19.8461C14.5527 19.8461 14.7874 19.7489 14.9606 19.5758C15.1337 19.4027 15.2309 19.1679 15.2309 18.9231V8.76921C15.2309 8.52439 15.1337 8.2896 14.9606 8.11649C14.7874 7.94338 14.5527 7.84613 14.3078 7.84613C14.063 7.84613 13.8282 7.94338 13.6551 8.11649C13.482 8.2896 13.3848 8.52439 13.3848 8.76921V18.9231C13.3848 19.1679 13.482 19.4027 13.6551 19.5758C13.8282 19.7489 14.063 19.8461 14.3078 19.8461Z" fill="white"/>
<path d="M10.6155 19.8461C10.8603 19.8461 11.0951 19.7489 11.2682 19.5758C11.4413 19.4027 11.5385 19.1679 11.5385 18.9231V8.76921C11.5385 8.52439 11.4413 8.2896 11.2682 8.11649C11.0951 7.94338 10.8603 7.84613 10.6155 7.84613C10.3706 7.84613 10.1359 7.94338 9.96275 8.11649C9.78963 8.2896 9.69238 8.52439 9.69238 8.76921V18.9231C9.69238 19.1679 9.78963 19.4027 9.96275 19.5758C10.1359 19.7489 10.3706 19.8461 10.6155 19.8461Z" fill="white"/>
</svg>
