<svg width="22" height="22" viewBox="0 0 22 22" fill="none" xmlns="http://www.w3.org/2000/svg">
<g clip-path="url(#clip0)">
<path d="M10.8598 9.273C13.4205 9.273 15.4964 7.19707 15.4964 4.6364C15.4964 2.07574 13.4205 0 10.8598 0C8.29912 0 6.22339 2.07593 6.22339 4.6366C6.22627 7.19592 8.30047 9.27012 10.8598 9.273ZM10.8598 0.982143C12.8782 0.982143 14.5142 2.61822 14.5142 4.6366C14.5142 6.65479 12.8782 8.29086 10.8598 8.29086C8.8416 8.29086 7.20553 6.65479 7.20553 4.6366C7.20783 2.61918 8.84256 0.984445 10.8598 0.982143Z" fill="#808080"/>
<path d="M10.9809 10.9062C6.21727 10.9042 2.35526 14.7664 2.35718 19.5298V21.5089C2.35718 21.7801 2.57701 22 2.84825 22H19.1135C19.3847 22 19.6045 21.7801 19.6045 21.5089V19.5298C19.6066 14.7664 15.7444 10.9042 10.9809 10.9062ZM18.6224 21.0178H3.33932V19.5298C3.33242 16.7952 4.78741 14.2654 7.15452 12.896C9.52164 11.5267 12.4401 11.5267 14.8074 12.896C17.1745 14.2654 18.6295 16.7952 18.6224 19.5298V21.0178Z" fill="#808080"/>
</g>
<defs>
<clipPath id="clip0">
<rect width="22" height="22" fill="white"/>
</clipPath>
</defs>
</svg>
