<svg width="88" height="116" viewBox="0 0 88 116" fill="none" xmlns="http://www.w3.org/2000/svg">
<path d="M68.3 102.6C61.5 109.4 53.1 113.5 44 113.5C21.4 113.5 3 88.7 3 58C3 27.3 21.3 2.5 44 2.5C66.7 2.5 85 27.3 85 58" stroke="url(#paint0_linear)" stroke-width="5" stroke-miterlimit="10" stroke-linecap="round" stroke-linejoin="round"/>
<path d="M47.7 58L64.6 40.8C65.7 39.7 65.6 37.9 64.5 36.9L45.7 20C44 18.5 41.3 19.8 41.3 22V51.5L27 37C24.5 34.5 20.7 38.3 23.2 40.8L40.2 58L23.3 75.2C20.8 77.7 24.6 81.5 27.1 79L41.4 64.5V94C41.4 96.3 44.1 97.6 45.8 96L64.5 79.1C65.6 78.1 65.7 76.3 64.6 75.2L47.7 58ZM46.6 51.5V28L58.9 39L46.6 51.5ZM46.6 88V64.5L58.9 77L46.6 88Z" fill="url(#paint1_linear)"/>
<path d="M83.7002 74.3C85.0809 74.3 86.2002 73.1807 86.2002 71.8C86.2002 70.4193 85.0809 69.3 83.7002 69.3C82.3195 69.3 81.2002 70.4193 81.2002 71.8C81.2002 73.1807 82.3195 74.3 83.7002 74.3Z" fill="url(#paint2_linear)"/>
<path d="M80.7002 84.8C82.0809 84.8 83.2002 83.6807 83.2002 82.3C83.2002 80.9193 82.0809 79.8 80.7002 79.8C79.3195 79.8 78.2002 80.9193 78.2002 82.3C78.2002 83.6807 79.3195 84.8 80.7002 84.8Z" fill="url(#paint3_linear)"/>
<path d="M76.7002 95.3C78.0809 95.3 79.2002 94.1807 79.2002 92.8C79.2002 91.4193 78.0809 90.3 76.7002 90.3C75.3195 90.3 74.2002 91.4193 74.2002 92.8C74.2002 94.1807 75.3195 95.3 76.7002 95.3Z" fill="url(#paint4_linear)"/>
<defs>
<linearGradient id="paint0_linear" x1="43.9515" y1="-6.61826e-08" x2="43.9515" y2="116" gradientUnits="userSpaceOnUse">
<stop stop-color="#6367C8"/>
<stop offset="1" stop-color="#944DD7"/>
</linearGradient>
<linearGradient id="paint1_linear" x1="43.9515" y1="19.2901" x2="43.9515" y2="96.71" gradientUnits="userSpaceOnUse">
<stop stop-color="#6367C8"/>
<stop offset="1" stop-color="#944DD7"/>
</linearGradient>
<linearGradient id="paint2_linear" x1="83.7247" y1="69.29" x2="83.7247" y2="74.29" gradientUnits="userSpaceOnUse">
<stop stop-color="#6367C8"/>
<stop offset="1" stop-color="#944DD7"/>
</linearGradient>
<linearGradient id="paint3_linear" x1="80.7247" y1="79.79" x2="80.7247" y2="84.79" gradientUnits="userSpaceOnUse">
<stop stop-color="#6367C8"/>
<stop offset="1" stop-color="#944DD7"/>
</linearGradient>
<linearGradient id="paint4_linear" x1="76.7247" y1="90.29" x2="76.7247" y2="95.29" gradientUnits="userSpaceOnUse">
<stop stop-color="#6367C8"/>
<stop offset="1" stop-color="#944DD7"/>
</linearGradient>
</defs>
</svg>
