<svg width="166" height="41" viewBox="0 0 166 41" fill="none" xmlns="http://www.w3.org/2000/svg">
<path d="M30.4996 26.8C30.9967 26.8 31.3996 26.3971 31.3996 25.9C31.3996 25.403 30.9967 25 30.4996 25C30.0026 25 29.5996 25.403 29.5996 25.9C29.5996 26.3971 30.0026 26.8 30.4996 26.8Z" fill="white" stroke="white" stroke-width="0.6574" stroke-miterlimit="10"/>
<path d="M33.4 23.7004C33.8971 23.7004 34.3 23.2974 34.3 22.8004C34.3 22.3033 33.8971 21.9004 33.4 21.9004C32.9029 21.9004 32.5 22.3033 32.5 22.8004C32.5 23.2974 32.9029 23.7004 33.4 23.7004Z" fill="white" stroke="white" stroke-width="0.6574" stroke-miterlimit="10"/>
<path d="M36.4996 20.7004C36.9967 20.7004 37.3996 20.2974 37.3996 19.8004C37.3996 19.3033 36.9967 18.9004 36.4996 18.9004C36.0026 18.9004 35.5996 19.3033 35.5996 19.8004C35.5996 20.2974 36.0026 20.7004 36.4996 20.7004Z" fill="white" stroke="white" stroke-width="0.6574" stroke-miterlimit="10"/>
<path d="M38.9004 16.3003C38.9004 16.3003 38.9004 16.2003 38.9004 16.3003V16.3003Z" fill="white" stroke="white" stroke-width="0.6574" stroke-miterlimit="10"/>
<path d="M10.7 12.9004C9 12.9004 7.4 13.4004 5.8 14.3004C4.2 15.2004 3.1 16.4004 2.3 17.9004V13.4004H1V40.2004H2.3V27.5004C3.1 29.0004 4.3 30.2004 5.9 31.1004C7.5 32.0004 9.1 32.4004 10.7 32.4004C13.4 32.4004 15.7 31.4004 17.6 29.5004C19.5 27.6004 20.5 25.3004 20.5 22.6004C20.5 19.9004 19.5 17.6004 17.6 15.7004C15.8 13.8004 13.4 12.9004 10.7 12.9004ZM16.7 28.6004C15 30.3004 13.1 31.1004 10.7 31.1004C8.4 31.1004 6.4 30.3004 4.7 28.6004C3 26.9004 2.2 24.9004 2.2 22.6004C2.2 20.3004 3 18.3004 4.7 16.6004C6.4 14.9004 8.4 14.0004 10.7 14.0004C13 14.0004 15 14.9004 16.7 16.6004C18.4 18.3004 19.2 20.3004 19.2 22.6004C19.2 24.9004 18.4 26.9004 16.7 28.6004Z" fill="white" stroke="white" stroke-width="0.6574" stroke-miterlimit="10"/>
<path d="M38.9004 16.3004L39.8004 17.2004L40.7004 16.3004C38.7004 14.0004 36.2004 12.9004 33.4004 12.9004C30.6004 12.9004 28.2004 13.9004 26.3004 15.8004C24.4004 17.7004 23.4004 20.0004 23.4004 22.6004C23.4004 25.2004 24.4004 27.5004 26.3004 29.5004C28.2004 31.5004 30.5004 32.4004 33.1004 32.4004H33.5004C36.3004 32.4004 38.6004 31.3004 40.6004 29.2004V27.1004C39.7004 28.4004 38.7004 29.4004 37.4004 30.1004C36.1004 30.9004 34.6004 31.2004 33.0004 31.2004C31.3004 31.2004 29.6004 30.5004 27.8004 29.1004L26.9004 28.2004C25.4004 26.6004 24.7004 24.6004 24.7004 22.4004C24.7004 20.2004 25.5004 18.3004 27.2004 16.6004C28.9004 14.9004 30.8004 14.1004 33.0004 14.1004C35.1004 14.1004 37.0004 14.8004 38.7004 16.2004" fill="white"/>
<path d="M38.9004 16.3004L39.8004 17.2004L40.7004 16.3004C38.7004 14.0004 36.2004 12.9004 33.4004 12.9004C30.6004 12.9004 28.2004 13.9004 26.3004 15.8004C24.4004 17.7004 23.4004 20.0004 23.4004 22.6004C23.4004 25.2004 24.4004 27.5004 26.3004 29.5004C28.2004 31.5004 30.5004 32.4004 33.1004 32.4004H33.5004C36.3004 32.4004 38.6004 31.3004 40.6004 29.2004V27.1004C39.7004 28.4004 38.7004 29.4004 37.4004 30.1004C36.1004 30.9004 34.6004 31.2004 33.0004 31.2004C31.3004 31.2004 29.6004 30.5004 27.8004 29.1004L26.9004 28.2004C25.4004 26.6004 24.7004 24.6004 24.7004 22.4004C24.7004 20.2004 25.5004 18.3004 27.2004 16.6004C28.9004 14.9004 30.8004 14.1004 33.0004 14.1004C35.1004 14.1004 37.0004 14.8004 38.7004 16.2004" stroke="white" stroke-width="0.6574" stroke-miterlimit="10"/>
<path d="M46.5002 25.0998V14.4998H52.2002V13.2998H46.5002V5.7998H45.2002V25.0998C45.2002 27.0998 45.9002 28.7998 47.3002 30.0998C48.7002 31.3998 50.3002 32.0998 52.3002 32.0998V30.8998C50.7002 30.8998 49.4002 30.3998 48.2002 29.2998C47.1002 28.1998 46.5002 26.7998 46.5002 25.0998Z" fill="white" stroke="white" stroke-width="0.6574" stroke-miterlimit="10"/>
<path d="M67.9002 12.9C66.2002 12.9 64.6002 13.4 63.0002 14.3C61.4002 15.2 60.3002 16.4 59.5002 17.9V1H58.2002V31.9H59.5002V27.4C60.3002 28.9 61.5002 30.1 63.1002 31C64.7002 31.9 66.3002 32.3 67.9002 32.3C70.6002 32.3 72.9002 31.3 74.8002 29.4C76.7002 27.5 77.7002 25.2 77.7002 22.5C77.7002 19.8 76.7002 17.5 74.8002 15.6C73.0002 13.8 70.7002 12.9 67.9002 12.9ZM74.0002 28.6C72.3002 30.3 70.4002 31.1 68.0002 31.1C65.7002 31.1 63.7002 30.3 62.0002 28.6C60.3002 26.9 59.5002 24.9 59.5002 22.6C59.5002 20.3 60.3002 18.3 62.0002 16.6C63.7002 14.9 65.7002 14 68.0002 14C70.3002 14 72.3002 14.9 74.0002 16.6C75.7002 18.3 76.5002 20.3 76.5002 22.6C76.4002 24.9 75.6002 26.9 74.0002 28.6Z" fill="white" stroke="white" stroke-width="0.6574" stroke-miterlimit="10"/>
<path d="M84.5004 13.8004C83.5004 14.4004 82.7004 15.2004 82.2004 16.1004V13.3004H80.9004V31.9004H82.2004V19.5004C82.2004 18.0004 82.8004 16.8004 83.9004 15.7004C85.0004 14.6004 86.3004 14.1004 87.8004 14.1004C89.3004 14.1004 90.6004 14.7004 91.8004 15.9004V14.2004C90.6004 13.3004 89.4004 12.9004 88.1004 12.9004C86.7004 12.9004 85.6004 13.2004 84.5004 13.8004Z" fill="white" stroke="white" stroke-width="0.6574" stroke-miterlimit="10"/>
<path d="M103.1 12.9004C100.3 12.9004 97.8996 13.9004 95.9996 15.8004C94.0996 17.7004 93.0996 20.0004 93.0996 22.6004C93.0996 25.2004 94.0996 27.5004 95.9996 29.5004C97.8996 31.5004 100.2 32.4004 102.8 32.4004H103.2C106 32.4004 108.3 31.3004 110.3 29.2004V27.1004C109.4 28.4004 108.4 29.4004 107.1 30.1004C105.8 30.9004 104.3 31.2004 102.7 31.2004C101 31.2004 99.2996 30.5004 97.4996 29.1004L110.5 16.3004C108.4 14.0004 105.9 12.9004 103.1 12.9004ZM96.5996 28.2004C95.0996 26.6004 94.3996 24.6004 94.3996 22.4004C94.3996 20.2004 95.1996 18.3004 96.8996 16.6004C98.5996 14.9004 100.5 14.1004 102.7 14.1004C104.9 14.1004 106.8 14.8004 108.5 16.3004L96.5996 28.2004Z" fill="white" stroke="white" stroke-width="0.6574" stroke-miterlimit="10"/>
<path d="M123.3 12.9004C120.5 12.9004 118.1 13.9004 116.2 15.8004C114.3 17.7004 113.3 20.0004 113.3 22.6004C113.3 25.2004 114.3 27.5004 116.2 29.5004C118.1 31.5004 120.4 32.4004 123 32.4004H123.4C126.2 32.4004 128.5 31.3004 130.5 29.2004V27.1004C129.6 28.4004 128.6 29.4004 127.3 30.1004C126 30.9004 124.5 31.2004 122.9 31.2004C121.2 31.2004 119.5 30.5004 117.7 29.1004L130.7 16.3004C128.6 14.0004 126.1 12.9004 123.3 12.9004ZM116.8 28.2004C115.3 26.6004 114.6 24.6004 114.6 22.4004C114.6 20.2004 115.4 18.3004 117.1 16.6004C118.8 14.9004 120.7 14.1004 122.9 14.1004C125.1 14.1004 127 14.8004 128.7 16.3004L116.8 28.2004Z" fill="white" stroke="white" stroke-width="0.6574" stroke-miterlimit="10"/>
<path d="M161.6 30.1004C160.3 30.9004 158.8 31.2004 157.2 31.2004C155.6 31.2004 153.8 30.5004 152 29.1004L165 16.3004C163 14.0004 160.5 12.9004 157.7 12.9004C154.9 12.9004 152.5 13.9004 150.6 15.8004C148.7 17.7004 147.7 20.0004 147.7 22.6004C147.7 25.2004 148.7 27.5004 150.6 29.5004C152.5 31.5004 154.8 32.4004 157.4 32.4004H157.8C160.6 32.4004 162.9 31.3004 164.9 29.2004V27.1004C164 28.3004 162.9 29.3004 161.6 30.1004ZM149 22.4004C149 20.2004 149.8 18.3004 151.5 16.6004C153.2 14.9004 155.1 14.1004 157.3 14.1004C159.5 14.1004 161.4 14.8004 163.1 16.3004L151.1 28.2004C149.7 26.6004 149 24.6004 149 22.4004Z" fill="white" stroke="white" stroke-width="0.6574" stroke-miterlimit="10"/>
<path d="M145.5 30.3996C145.5 30.3996 143.6 32.0996 140.5 30.4996C138.9 29.5996 137.5 29.5996 136.4 29.7996L144.8 16.0996C145.1 15.5996 145.5 15.1996 145.9 14.7996L146.4 14.2996L145.5 13.2996L145 13.7996C145 13.7996 143.1 15.4996 140 13.8996C137.3 12.4996 135.1 13.1996 134 13.9996V15.7996L134.4 15.2996C134.5 15.1996 136.3 13.3996 139.4 14.9996C140.6 15.6996 141.7 15.8996 142.6 15.8996C142.8 15.8996 143 15.8996 143.2 15.8996L134 31.0996L133.6 31.5996L134.6 32.4996L135.1 31.9996C135.2 31.8996 137 30.0996 140.1 31.6996C141.3 32.3996 142.4 32.5996 143.3 32.5996C144.6 32.5996 145.6 32.0996 146.1 31.7996V30.0996L145.5 30.3996Z" fill="white" stroke="white" stroke-width="0.6574" stroke-miterlimit="10"/>
</svg>
