<svg width="22" height="17" viewBox="0 0 22 17" fill="none" xmlns="http://www.w3.org/2000/svg">
<path d="M15.8665 12.182C15.9906 11.9791 16.0319 11.7357 15.9906 11.5126C15.9389 11.259 15.7837 11.0257 15.5458 10.8837H15.5355H15.5251C13.9219 9.94036 12.4842 9.48392 11.1189 9.48392C11.0569 9.48392 10.9845 9.48392 10.9121 9.48392C9.50538 9.48392 7.97459 9.99108 6.37139 10.975L6.35071 10.9851L6.33002 11.0054C5.94732 11.2995 5.86458 11.8676 6.14384 12.324L6.15418 12.3443L6.16453 12.3646C6.37139 12.6283 6.64032 12.7703 6.95061 12.7703C7.13679 12.7703 7.32297 12.7196 7.50914 12.608L7.51949 12.5979L7.52983 12.5877C8.3366 12.0501 9.59847 11.4213 10.9845 11.4111H10.9948H11.0051C11.0672 11.4111 11.1293 11.4111 11.181 11.4111C12.236 11.4111 13.4048 11.7966 14.4598 12.5066L14.4908 12.5269L14.5218 12.537C14.677 12.608 14.8528 12.6486 15.0183 12.6486C15.3079 12.6486 15.5768 12.537 15.763 12.3342" fill="black" fill-opacity="0.8"/>
<path d="M10.8297 4.84848H10.778C8.53352 4.84848 6.15458 5.71065 3.68256 7.40457C3.48604 7.52628 3.35158 7.73929 3.32055 7.99287C3.27917 8.27688 3.38261 8.57103 3.57913 8.7739C3.77565 8.99705 4.06526 9.13905 4.37555 9.13905C4.56173 9.13905 4.73757 9.08834 4.90306 8.99705L4.92374 8.98691L4.94443 8.97676C6.99238 7.49586 8.98862 6.74526 10.8711 6.74526H10.9228H10.9331H10.9435C11.0366 6.74526 11.1297 6.73512 11.2228 6.73512C13.5914 6.73512 15.7738 7.86101 17.1908 8.79418C17.3459 8.90576 17.5321 8.96662 17.7286 8.96662C18.0182 8.96662 18.2975 8.83476 18.4837 8.62175L18.494 8.61161L18.5044 8.60146C18.6699 8.38846 18.7319 8.11459 18.6802 7.85087C18.6285 7.59729 18.4733 7.37414 18.2458 7.22199C16.5805 6.13667 14.0051 4.84848 11.14 4.84848" fill="black" fill-opacity="0.8"/>
<path d="M21.9806 3.85442C21.9289 3.60084 21.7841 3.37768 21.5565 3.22554C20.0774 2.21122 18.5053 1.42005 16.8607 0.872315C15.1437 0.294153 13.3957 0 11.6788 0C11.4098 0 11.1306 0.0101432 10.8616 0.0202864C6.43475 0.0710024 2.69051 2.1605 0.342599 3.91527C0.166765 4.02685 0.0529896 4.23986 0.0116168 4.49344C-0.029756 4.79773 0.0633328 5.10203 0.259854 5.31504C0.446032 5.55847 0.745985 5.71062 1.06662 5.71062C1.26314 5.71062 1.44932 5.64976 1.62516 5.54833H1.6355L1.64584 5.53819C4.56263 3.24582 7.77937 2.0185 10.9547 1.98807C11.203 1.97792 11.4615 1.96778 11.7098 1.96778C14.6679 1.96778 17.7812 3.00239 20.4808 4.89916C20.6256 5.01074 20.8118 5.0716 20.998 5.0716C21.2876 5.0716 21.5875 4.92959 21.7841 4.6963V4.68616V4.67601C21.9702 4.43258 22.0323 4.12828 21.9806 3.85442Z" fill="black" fill-opacity="0.8"/>
<path d="M10.995 17C11.8633 17 12.5672 16.3097 12.5672 15.4582C12.5672 14.6067 11.8633 13.9164 10.995 13.9164C10.1267 13.9164 9.42285 14.6067 9.42285 15.4582C9.42285 16.3097 10.1267 17 10.995 17Z" fill="black" fill-opacity="0.8"/>
</svg>
