<svg width="22" height="17" viewBox="0 0 22 17" fill="none" xmlns="http://www.w3.org/2000/svg">
<path d="M15.8665 12.1825C15.9906 11.9796 16.0319 11.7362 15.9906 11.513C15.9389 11.2594 15.7837 11.0261 15.5458 10.8841H15.5355H15.5251C13.9219 9.94082 12.4842 9.48438 11.1189 9.48438C11.0569 9.48438 10.9845 9.48438 10.9121 9.48438C9.50538 9.48438 7.97459 9.99153 6.37139 10.9754L6.35071 10.9856L6.33002 11.0059C5.94732 11.3 5.86458 11.868 6.14384 12.3245L6.15418 12.3448L6.16453 12.365C6.37139 12.6288 6.64032 12.7708 6.95061 12.7708C7.13679 12.7708 7.32297 12.7201 7.50914 12.6085L7.51949 12.5983L7.52983 12.5882C8.3366 12.0506 9.59847 11.4217 10.9845 11.4116H10.9948H11.0051C11.0672 11.4116 11.1293 11.4116 11.181 11.4116C12.236 11.4116 13.4048 11.797 14.4598 12.507L14.4908 12.5273L14.5218 12.5375C14.677 12.6085 14.8528 12.6491 15.0183 12.6491C15.3079 12.6491 15.5768 12.5375 15.763 12.3346" fill="black" fill-opacity="0.8"/>
<path d="M10.8287 4.84863H10.777C8.53255 4.84863 6.15361 5.7108 3.68158 7.40472C3.48506 7.52644 3.3506 7.73944 3.31957 7.99302C3.2782 8.27703 3.38163 8.57119 3.57815 8.77405C3.77467 8.9972 4.06428 9.13921 4.37458 9.13921C4.56075 9.13921 4.73659 9.08849 4.90208 8.9972L4.92277 8.98706L4.94345 8.97691C6.99141 7.49601 8.98765 6.74541 10.8701 6.74541H10.9218H10.9322H10.9425C11.0356 6.74541 11.1287 6.73527 11.2218 6.73527C13.5904 6.73527 15.7728 7.86116 17.1898 8.79434C17.345 8.90591 17.5311 8.96677 17.7277 8.96677C18.0173 8.96677 18.2965 8.83491 18.4827 8.6219L18.4931 8.61176L18.5034 8.60162C18.6689 8.38861 18.7309 8.11474 18.6792 7.85102C18.6275 7.59744 18.4724 7.37429 18.2448 7.22214C16.5796 6.13682 14.0041 4.84863 11.139 4.84863" fill="black" fill-opacity="0.8"/>
<path d="M21.9806 3.85442C21.9289 3.60084 21.7841 3.37768 21.5565 3.22554C20.0774 2.21122 18.5053 1.42005 16.8607 0.872315C15.1437 0.294153 13.3957 0 11.6788 0C11.4098 0 11.1306 0.0101432 10.8616 0.0202864C6.43475 0.0710024 2.69051 2.1605 0.342599 3.91527C0.166765 4.02685 0.0529896 4.23986 0.0116168 4.49344C-0.029756 4.79773 0.0633328 5.10203 0.259854 5.31504C0.446032 5.55847 0.745985 5.71062 1.06662 5.71062C1.26314 5.71062 1.44932 5.64976 1.62516 5.54833H1.6355L1.64584 5.53819C4.56263 3.24582 7.77937 2.0185 10.9547 1.98807C11.203 1.97792 11.4615 1.96778 11.7098 1.96778C14.6679 1.96778 17.7812 3.00239 20.4808 4.89916C20.6256 5.01074 20.8118 5.0716 20.998 5.0716C21.2876 5.0716 21.5875 4.92959 21.7841 4.6963V4.68616V4.67601C21.9702 4.43258 22.0323 4.12828 21.9806 3.85442Z" fill="black" fill-opacity="0.8"/>
<path d="M10.994 16.9995C11.8623 16.9995 12.5662 16.3093 12.5662 15.4578C12.5662 14.6063 11.8623 13.916 10.994 13.916C10.1258 13.916 9.42188 14.6063 9.42188 15.4578C9.42188 16.3093 10.1258 16.9995 10.994 16.9995Z" fill="black" fill-opacity="0.8"/>
</svg>
