<svg width="82" height="64" viewBox="0 0 82 64" fill="none" xmlns="http://www.w3.org/2000/svg">
<path d="M59.1387 45.8616C59.6014 45.0979 59.7556 44.1814 59.6014 43.3413C59.4086 42.3867 58.8303 41.5084 57.9436 40.9738H57.9051H57.8665C51.891 37.4225 46.5323 35.7041 41.4434 35.7041C41.2121 35.7041 40.9422 35.7041 40.6724 35.7041C35.4293 35.7041 29.7236 37.6134 23.748 41.3175L23.6709 41.3557L23.5938 41.432C22.1674 42.5394 21.859 44.6778 22.8999 46.3962L22.9385 46.4726L22.977 46.549C23.748 47.5418 24.7504 48.0764 25.907 48.0764C26.6009 48.0764 27.2948 47.8855 27.9888 47.4654L28.0273 47.4272L28.0659 47.3891C31.0729 45.3652 35.7763 42.9977 40.9422 42.9595H40.9808H41.0193C41.2506 42.9595 41.482 42.9595 41.6747 42.9595C45.607 42.9595 49.9634 44.4105 53.8957 47.0836L54.0113 47.1599L54.127 47.1981C54.7053 47.4654 55.3607 47.6182 55.9775 47.6182C57.0569 47.6182 58.0593 47.1981 58.7532 46.4344" fill="url(#paint0_linear_3_1424)"/>
<path d="M40.3641 18.2532H40.1714C31.8056 18.2532 22.9387 21.499 13.7247 27.8761C12.9923 28.3343 12.4911 29.1362 12.3754 30.0909C12.2212 31.1601 12.6067 32.2675 13.3392 33.0312C14.0717 33.8713 15.1512 34.4059 16.3077 34.4059C17.0017 34.4059 17.657 34.215 18.2739 33.8713L18.351 33.8331L18.4281 33.7949C26.0614 28.2198 33.5019 25.394 40.5184 25.394H40.7111H40.7497H40.7882C41.1352 25.394 41.4822 25.3558 41.8291 25.3558C50.6575 25.3558 58.792 29.5945 64.0736 33.1076C64.6519 33.5276 65.3458 33.7568 66.0783 33.7568C67.1577 33.7568 68.1986 33.2603 68.8926 32.4584L68.9311 32.4202L68.9697 32.3821C69.5865 31.5801 69.8178 30.5491 69.6251 29.5563C69.4323 28.6016 68.854 27.7615 68.0059 27.1887C61.799 23.1028 52.1996 18.2532 41.5207 18.2532" fill="url(#paint1_linear_3_1424)"/>
<path d="M81.9243 14.5107C81.7315 13.5561 81.1918 12.716 80.3436 12.1432C74.8307 8.32458 68.9708 5.34606 62.8411 3.28401C56.4414 1.1074 49.9262 0 43.5265 0C42.5242 0 41.4833 0.0381862 40.4809 0.0763723C23.9807 0.267303 10.0249 8.13365 1.27359 14.7399C0.618205 15.1599 0.194133 15.9618 0.0399254 16.9165C-0.114282 18.0621 0.232685 19.2076 0.965172 20.0095C1.65911 20.926 2.77711 21.4988 3.97222 21.4988C4.70471 21.4988 5.39865 21.2697 6.05403 20.8878H6.09258L6.13113 20.8496C17.0028 12.2196 28.9924 7.59905 40.8279 7.48449C41.7531 7.4463 42.7169 7.40811 43.6422 7.40811C54.668 7.40811 66.2722 11.3031 76.3342 18.4439C76.874 18.864 77.5679 19.0931 78.2618 19.0931C79.3413 19.0931 80.4593 18.5585 81.1918 17.6802V17.642V17.6038C81.8857 16.6873 82.117 15.5418 81.9243 14.5107Z" fill="url(#paint2_linear_3_1424)"/>
<path d="M40.981 64C44.2173 64 46.8409 61.4013 46.8409 58.1957C46.8409 54.99 44.2173 52.3914 40.981 52.3914C37.7447 52.3914 35.1211 54.99 35.1211 58.1957C35.1211 61.4013 37.7447 64 40.981 64Z" fill="url(#paint3_linear_3_1424)"/>
<defs>
<linearGradient id="paint0_linear_3_1424" x1="23.5803" y1="38.948" x2="58.7163" y2="48.0695" gradientUnits="userSpaceOnUse">
<stop stop-color="#6367C8"/>
<stop offset="1" stop-color="#944DD7"/>
</linearGradient>
<linearGradient id="paint1_linear_3_1424" x1="14.4092" y1="22.0681" x2="68.2558" y2="36.0471" gradientUnits="userSpaceOnUse">
<stop stop-color="#6367C8"/>
<stop offset="1" stop-color="#944DD7"/>
</linearGradient>
<linearGradient id="paint2_linear_3_1424" x1="3.18688" y1="4.63022" x2="79.7222" y2="24.4994" gradientUnits="userSpaceOnUse">
<stop stop-color="#6367C8"/>
<stop offset="1" stop-color="#944DD7"/>
</linearGradient>
<linearGradient id="paint3_linear_3_1424" x1="40.9999" y1="63.9963" x2="40.9999" y2="52.3748" gradientUnits="userSpaceOnUse">
<stop stop-color="#6367C8"/>
<stop offset="1" stop-color="#944DD7"/>
</linearGradient>
</defs>
</svg>
