<svg width="106" height="112" viewBox="0 0 106 112" fill="none" xmlns="http://www.w3.org/2000/svg">
<g clip-path="url(#clip0_1_1314)">
<path d="M70.2004 64.4999C68.3004 62.7999 67.2004 60.8999 66.7004 58.3999C66.1004 55.4999 64.7004 53.1999 62.6004 51.5999C60.4004 49.8999 57.7004 48.8999 54.8004 48.4999H54.3004C53.8004 48.4999 53.3004 48.3999 52.8004 48.3999C52.2004 48.3999 51.6004 48.3999 51.0004 48.4999C48.0004 48.8999 45.3004 49.8999 43.1004 51.5999C41.0004 53.1999 39.6004 55.4999 39.0004 58.3999C38.4004 60.8999 37.3004 62.7999 35.5004 64.4999C31.8004 67.7999 30.3004 72.6999 31.9004 76.9999C33.1004 80.1999 35.6004 82.8999 38.9004 84.5999C40.7004 85.4999 42.7004 85.8999 44.7004 85.8999C46.4004 85.8999 48.0004 85.5999 49.5004 84.9999C50.6004 84.5999 51.7004 84.2999 52.9004 84.2999C54.1004 84.2999 55.2004 84.5999 56.3004 84.9999C57.8004 85.5999 59.4004 85.8999 61.1004 85.8999C63.1004 85.8999 65.1004 85.3999 66.9004 84.5999C70.2004 82.8999 72.7004 80.2999 73.9004 76.9999C75.4004 72.6999 74.0004 67.7999 70.2004 64.4999ZM52.8004 49.1999C53.3004 49.1999 53.8004 49.1999 54.2004 49.2999C53.7004 49.1999 53.2004 49.1999 52.8004 49.1999C52.7004 49.1999 52.7004 49.1999 52.8004 49.1999ZM61.0004 85.0999C60.9004 85.0999 60.7004 85.0999 60.6004 85.0999C60.8004 85.0999 61.0004 85.0999 61.3004 85.0999C61.2004 85.0999 61.1004 85.0999 61.0004 85.0999ZM69.6004 75.2999C68.8004 77.3999 67.1004 79.1999 64.8004 80.3999C63.7004 80.9999 62.4004 81.2999 61.0004 81.2999C59.9004 81.2999 58.8004 81.0999 57.9004 80.6999C56.3004 80.0999 54.6004 79.6999 52.8004 79.6999C51.0004 79.6999 49.3004 80.0999 47.7004 80.6999C46.8004 81.0999 45.7004 81.2999 44.6004 81.2999C43.2004 81.2999 41.9004 80.9999 40.8004 80.3999C38.5004 79.2999 36.8004 77.4999 36.0004 75.2999C35.1004 72.7999 36.0004 69.8999 38.4004 67.7999C41.0004 65.4999 42.6004 62.6999 43.3004 59.2999C43.6004 58.0999 44.2004 56.2999 45.7004 55.1999C47.5004 53.7999 49.9004 52.9999 52.5004 52.8999H52.7004H53.0004C55.6004 52.9999 58.0004 53.7999 59.8004 55.1999C61.3004 56.2999 61.9004 58.0999 62.2004 59.2999C63.0004 62.6999 64.6004 65.4999 67.2004 67.7999C69.6004 69.8999 70.5004 72.8999 69.6004 75.2999Z" fill="url(#paint0_linear_1_1314)"/>
<path d="M35.9004 51.1C34.7004 45.6 31.1004 41.5 27.2004 41.5C26.8004 41.5 26.4004 41.5 26.0004 41.6C23.9004 42 22.2004 43.6 21.3004 46.1C20.4004 48.4 20.2004 51.3 20.9004 54.3C22.1004 59.8 25.7004 63.9 29.6004 63.9C30.0004 63.9 30.4004 63.9 30.8004 63.8C34.9004 62.9 37.2004 57.3 35.9004 51.1ZM27.2004 42.3C27.3004 42.3 27.4004 42.3 27.4004 42.3C27.3004 42.3 27.2004 42.3 27.1004 42.3C27.1004 42.3 27.1004 42.3 27.2004 42.3ZM29.5004 63.1C29.4004 63.1 29.3004 63.1 29.3004 63.1C29.4004 63.1 29.5004 63.1 29.5004 63.1C29.6004 63.1 29.6004 63.1 29.5004 63.1ZM29.8004 59.3C29.7004 59.3 29.7004 59.3 29.6004 59.3C28.3004 59.3 26.2004 57.2 25.3004 53.3C24.9004 51.4 24.9004 49.6 25.4004 48.1C25.8004 46.9 26.4004 46.2 27.0004 46C27.1004 46 27.1004 46 27.2004 46C28.5004 46 30.6004 48.1 31.5004 52C32.3004 56.1 31.0004 59.1 29.8004 59.3Z" fill="url(#paint1_linear_1_1314)"/>
<path d="M50.2003 34.3002C49.5003 27.7002 45.6003 22.7002 41.2003 22.7002C41.0003 22.7002 40.8003 22.7002 40.6003 22.7002C35.9003 23.2002 32.8003 29.0002 33.6003 36.0002C34.3003 42.6002 38.2003 47.6002 42.6003 47.6002C42.8003 47.6002 43.0003 47.6002 43.2003 47.6002C45.5003 47.4002 47.5003 45.8002 48.8003 43.2002C50.1003 40.8002 50.6003 37.6002 50.2003 34.3002ZM41.2003 23.5002H41.3003C41.1003 23.5002 40.8003 23.5002 40.6003 23.5002C40.8003 23.5002 41.0003 23.5002 41.2003 23.5002ZM42.5003 46.9002H42.4003C42.6003 46.9002 42.9003 46.9002 43.1003 46.9002C42.9003 46.9002 42.7003 46.9002 42.5003 46.9002ZM44.9003 40.8002C44.3003 42.1002 43.5003 43.0002 42.7003 43.1002H42.6003C41.1003 43.1002 38.6003 40.4002 38.1003 35.6002C37.9003 33.4002 38.1003 31.2002 38.9003 29.6002C39.5003 28.3002 40.3003 27.4002 41.1003 27.3002H41.2003C42.7003 27.3002 45.2003 30.0002 45.7003 34.8002C45.9003 37.0002 45.7003 39.1002 44.9003 40.8002Z" fill="url(#paint2_linear_1_1314)"/>
<path d="M79.5998 41.7001C79.1998 41.6001 78.7998 41.6001 78.3998 41.6001C74.4998 41.6001 70.8998 45.6001 69.6998 51.2001C68.3998 57.4001 70.5998 62.9001 74.8998 63.8001C75.2998 63.9001 75.6998 63.9001 76.0998 63.9001C79.9998 63.9001 83.5998 59.9001 84.7998 54.3001C85.9998 48.2001 83.7998 42.6001 79.5998 41.7001ZM78.3998 42.3001C78.3998 42.3001 78.2998 42.3001 78.1998 42.3001C78.1998 42.3001 78.2998 42.3001 78.3998 42.3001ZM75.9998 63.1001C75.9998 63.1001 76.0998 63.1001 76.1998 63.1001C76.1998 63.1001 76.0998 63.1001 75.9998 63.1001ZM80.2998 53.4001C79.4998 57.3001 77.2998 59.4001 75.9998 59.4001C75.8998 59.4001 75.8998 59.4001 75.7998 59.4001C74.5998 59.1001 73.2998 56.2001 74.0998 52.2001C74.8998 48.3001 77.0998 46.2001 78.3998 46.2001C78.4998 46.2001 78.4998 46.2001 78.5998 46.2001C79.1998 46.3001 79.7998 47.1001 80.1998 48.3001C80.5998 49.7001 80.6998 51.5001 80.2998 53.4001Z" fill="url(#paint3_linear_1_1314)"/>
<path d="M65.0001 22.7998C64.8001 22.7998 64.6001 22.7998 64.4001 22.7998C59.9001 22.7998 56.1001 27.7998 55.4001 34.3998C55.0001 37.6998 55.5001 40.8998 56.8001 43.2998C58.1001 45.8998 60.1001 47.3998 62.4001 47.6998C62.6001 47.6998 62.8001 47.6998 63.0001 47.6998C67.5001 47.6998 71.3001 42.6998 72.0001 36.0998C72.8001 29.0998 69.7001 23.2998 65.0001 22.7998ZM64.4001 23.4998C64.6001 23.4998 64.8001 23.4998 65.0001 23.4998C64.8001 23.4998 64.5001 23.4998 64.4001 23.4998ZM63.0001 46.8998C62.8001 46.8998 62.6001 46.8998 62.4001 46.8998C62.6001 46.8998 62.9001 46.8998 63.1001 46.8998C63.1001 46.8998 63.1001 46.8998 63.0001 46.8998ZM67.6001 35.5998C67.1001 40.3998 64.6001 43.0998 63.1001 43.0998H63.0001C62.2001 42.9998 61.3001 42.0998 60.8001 40.7998C60.1001 39.1998 59.8001 36.9998 60.0001 34.7998C60.5001 29.9998 63.0001 27.2998 64.5001 27.2998H64.6001C65.4001 27.3998 66.3001 28.2998 66.8001 29.5998C67.5001 31.1998 67.8001 33.3998 67.6001 35.5998Z" fill="url(#paint4_linear_1_1314)"/>
<path d="M98.5 59.4C102 40.3 103.1 19.3 103.1 19.3C103.1 19.3 101 18.2 97.4 16.6L85 11.5C76.5 8.3 65.7 4.8 52.8 2.5C24.8 7.5 2.5 19.3 2.5 19.3C2.5 19.3 5 66.7 14.4 83.6C23.8 100.5 52.8 109.5 52.8 109.5C52.8 109.5 65.2 105.6 76.5 98.2" stroke="url(#paint5_linear_1_1314)" stroke-width="5" stroke-miterlimit="10" stroke-linecap="round" stroke-linejoin="round"/>
<path d="M96 73C97.3807 73 98.5 71.8807 98.5 70.5C98.5 69.1193 97.3807 68 96 68C94.6193 68 93.5 69.1193 93.5 70.5C93.5 71.8807 94.6193 73 96 73Z" fill="url(#paint6_linear_1_1314)"/>
<path d="M93 84.5C94.3807 84.5 95.5 83.3807 95.5 82C95.5 80.6193 94.3807 79.5 93 79.5C91.6193 79.5 90.5 80.6193 90.5 82C90.5 83.3807 91.6193 84.5 93 84.5Z" fill="url(#paint7_linear_1_1314)"/>
<path d="M86 94C87.3807 94 88.5 92.8807 88.5 91.5C88.5 90.1193 87.3807 89 86 89C84.6193 89 83.5 90.1193 83.5 91.5C83.5 92.8807 84.6193 94 86 94Z" fill="url(#paint8_linear_1_1314)"/>
</g>
<defs>
<linearGradient id="paint0_linear_1_1314" x1="31.2344" y1="67.1503" x2="74.461" y2="67.1503" gradientUnits="userSpaceOnUse">
<stop stop-color="#6367C8"/>
<stop offset="1" stop-color="#944DD7"/>
</linearGradient>
<linearGradient id="paint1_linear_1_1314" x1="20.4816" y1="52.7" x2="36.266" y2="52.7" gradientUnits="userSpaceOnUse">
<stop stop-color="#6367C8"/>
<stop offset="1" stop-color="#944DD7"/>
</linearGradient>
<linearGradient id="paint2_linear_1_1314" x1="33.398" y1="35.1504" x2="50.331" y2="35.1504" gradientUnits="userSpaceOnUse">
<stop stop-color="#6367C8"/>
<stop offset="1" stop-color="#944DD7"/>
</linearGradient>
<linearGradient id="paint3_linear_1_1314" x1="69.349" y1="52.7502" x2="85.1302" y2="52.7502" gradientUnits="userSpaceOnUse">
<stop stop-color="#6367C8"/>
<stop offset="1" stop-color="#944DD7"/>
</linearGradient>
<linearGradient id="paint4_linear_1_1314" x1="55.2868" y1="35.2501" x2="72.2198" y2="35.2501" gradientUnits="userSpaceOnUse">
<stop stop-color="#6367C8"/>
<stop offset="1" stop-color="#944DD7"/>
</linearGradient>
<linearGradient id="paint5_linear_1_1314" x1="52.8" y1="112" x2="52.8" y2="2.83874e-06" gradientUnits="userSpaceOnUse">
<stop stop-color="#6367C8"/>
<stop offset="1" stop-color="#944DD7"/>
</linearGradient>
<linearGradient id="paint6_linear_1_1314" x1="96" y1="68" x2="96" y2="73" gradientUnits="userSpaceOnUse">
<stop stop-color="#6367C8"/>
<stop offset="1" stop-color="#944DD7"/>
</linearGradient>
<linearGradient id="paint7_linear_1_1314" x1="93" y1="79.5" x2="93" y2="84.5" gradientUnits="userSpaceOnUse">
<stop stop-color="#6367C8"/>
<stop offset="1" stop-color="#944DD7"/>
</linearGradient>
<linearGradient id="paint8_linear_1_1314" x1="86" y1="89" x2="86" y2="94" gradientUnits="userSpaceOnUse">
<stop stop-color="#6367C8"/>
<stop offset="1" stop-color="#944DD7"/>
</linearGradient>
<clipPath id="clip0_1_1314">
<rect width="105.6" height="112" fill="white"/>
</clipPath>
</defs>
</svg>
