<svg width="18" height="19" viewBox="0 0 18 19" fill="none" xmlns="http://www.w3.org/2000/svg">
<path fill-rule="evenodd" clip-rule="evenodd" d="M3.35328 13.8186C4.59406 14.6477 6.05283 15.0902 7.54511 15.0902C9.15775 15.0902 10.7172 14.574 12.0024 13.633L16.5657 18.1963C16.7222 18.3538 16.9348 18.4427 17.1568 18.4436C17.3233 18.4446 17.4863 18.396 17.6251 18.3039C17.7638 18.2119 17.872 18.0806 17.9359 17.9268C17.9997 17.773 18.0163 17.6037 17.9836 17.4404C17.9508 17.2771 17.8702 17.1273 17.752 17.0101L13.2384 12.4964C14.4287 11.1279 15.0902 9.3706 15.0902 7.54511C15.0902 6.05283 14.6477 4.59406 13.8186 3.35327C12.9896 2.11249 11.8112 1.14541 10.4325 0.574341C9.05381 0.00326914 7.53674 -0.146149 6.07313 0.144981C4.60953 0.43611 3.26512 1.15471 2.20992 2.20992C1.15471 3.26512 0.43611 4.60953 0.144981 6.07313C-0.146149 7.53674 0.00326914 9.05381 0.574341 10.4325C1.14541 11.8112 2.11249 12.9896 3.35328 13.8186ZM4.28479 2.6657C5.24985 2.02087 6.38445 1.67669 7.54511 1.67669C9.10151 1.67669 10.5942 2.29497 11.6947 3.39551C12.7953 4.49606 13.4135 5.98871 13.4135 7.54511C13.4135 8.70578 13.0694 9.84037 12.4245 10.8054C11.7797 11.7705 10.8632 12.5227 9.79086 12.9668C8.71854 13.411 7.5386 13.5272 6.40024 13.3008C5.26188 13.0743 4.21623 12.5154 3.39552 11.6947C2.5748 10.874 2.01589 9.82835 1.78945 8.68998C1.56302 7.55162 1.67923 6.37168 2.1234 5.29937C2.56757 4.22705 3.31974 3.31053 4.28479 2.6657Z" fill="black" fill-opacity="0.3"/>
</svg>
