<svg width="44" height="80" viewBox="0 0 44 80" fill="none" xmlns="http://www.w3.org/2000/svg">
<path d="M21.6728 80C20.7524 80 20.0061 79.2538 20.0061 78.3333V43.7913L2.80005 59.564C2.12164 60.1862 1.0673 60.1407 0.445139 59.4623C-0.177025 58.7839 -0.131559 57.7296 0.546853 57.1074L19.2062 40.0013L0.540135 22.8988C-0.138278 22.2767 -0.183745 21.2223 0.438419 20.5439C1.06058 19.8655 2.11492 19.82 2.79333 20.4422L20.006 36.2116V1.66963C20.0044 0.749193 20.7492 0.00172127 21.6697 2.5861e-06C22.1134 -0.000778635 22.5392 0.175465 22.8526 0.489672L42.8518 20.4889C43.5023 21.1402 43.5017 22.1954 42.8504 22.8459C42.8336 22.8627 42.8162 22.8793 42.7986 22.8956L24.1393 40.0015L42.8053 57.1041C43.484 57.726 43.5301 58.7802 42.9083 59.4589C42.8922 59.4765 42.8756 59.4939 42.8586 59.5108L22.8593 79.51C22.5451 79.8253 22.1178 80.0017 21.6728 80ZM23.3393 43.7913V74.3102L39.262 58.3875L23.3393 43.7913ZM23.3393 5.69276V36.2116L39.262 21.6154L23.3393 5.69276Z" fill="black"/>
</svg>
