<svg width="51" height="80" viewBox="0 0 51 80" fill="none" xmlns="http://www.w3.org/2000/svg">
<path d="M36.8248 13.9682H8.88951C3.98791 13.9682 0 17.96 0 22.867V57.133C0 62.04 3.98791 66.0318 8.88951 66.0318H36.8248C41.7264 66.0318 45.7143 62.04 45.7143 57.133V22.867C45.7143 17.96 41.7264 13.9682 36.8248 13.9682ZM43.1745 57.133C43.1745 60.6401 40.3259 63.492 36.8246 63.492H8.88933C5.38802 63.492 2.53943 60.6399 2.53943 57.133V22.867C2.53943 19.3599 5.38802 16.508 8.88933 16.508H36.8246C40.3259 16.508 43.1745 19.3601 43.1745 22.867V57.133Z" fill="black"/>
<path d="M39.3441 15.0112L37.4855 4.78664C36.9968 2.10193 34.4793 0 31.753 0H13.9602C11.2345 0 8.71631 2.10193 8.22784 4.78664L6.36921 15.0112C6.3015 15.3819 6.40288 15.7623 6.64376 16.0515C6.88465 16.3408 7.24179 16.508 7.61847 16.508H38.0947C38.4712 16.508 38.8283 16.3404 39.0696 16.0515C39.3108 15.7625 39.4118 15.3819 39.3441 15.0112ZM9.14005 13.9682L10.7264 5.24051C10.9931 3.77604 12.4736 2.53962 13.96 2.53962H31.7528C33.2392 2.53962 34.7198 3.77734 34.9864 5.24051L36.5731 13.9682H9.14005Z" fill="black"/>
<path d="M39.0696 63.9487C38.8287 63.6594 38.4716 63.4922 38.0949 63.4922H7.61869C7.2422 63.4922 6.88506 63.6598 6.6438 63.9487C6.40254 64.2375 6.30154 64.6181 6.36925 64.989L8.22806 75.2135C8.71672 77.8982 11.2348 80.0002 13.9604 80.0002H31.7532C34.4796 80.0002 36.997 77.8982 37.4855 75.2135L39.3441 64.989C39.4118 64.6181 39.3106 64.2377 39.0696 63.9487ZM34.987 74.7593C34.7203 76.2228 33.2398 77.4602 31.7534 77.4602H13.9606C12.4742 77.4602 10.9935 76.2238 10.7269 74.7593L9.14027 66.0316H36.5733L34.987 74.7593Z" fill="black"/>
<path d="M47.172 26.6667H44.4437C43.7425 26.6667 43.1738 27.2346 43.1738 27.9366V39.3652C43.1738 40.067 43.7425 40.6351 44.4437 40.6351H47.172C49.1684 40.6351 50.7929 39.0106 50.7929 37.0142V30.2878C50.7929 28.2911 49.1684 26.6667 47.172 26.6667ZM48.2533 37.014C48.2533 37.6105 47.7685 38.0953 47.172 38.0953H45.7136V29.2063H47.172C47.7685 29.2063 48.2533 29.6911 48.2533 30.2876V37.014Z" fill="black"/>
<path d="M9.7865 19.4197C9.2906 18.9238 8.48684 18.9238 7.99093 19.4197L4.81627 22.5943C4.32036 23.0902 4.32036 23.894 4.81627 24.3899C5.06422 24.6379 5.38937 24.7619 5.71396 24.7619C6.03874 24.7619 6.36389 24.6379 6.61165 24.3899L9.78632 21.2152C10.2824 20.7193 10.2824 19.9156 9.7865 19.4197Z" fill="black"/>
<path d="M14.8656 19.4197C14.3697 18.9238 13.5659 18.9238 13.07 19.4197L6.0858 26.4039C5.58989 26.8998 5.58989 27.7035 6.0858 28.1994C6.33375 28.4474 6.6589 28.5715 6.98349 28.5715C7.30827 28.5715 7.63342 28.4474 7.88119 28.1994L14.8654 21.2152C15.3615 20.7193 15.3615 19.9156 14.8656 19.4197Z" fill="black"/>
</svg>
