<svg width="80" height="80" viewBox="0 0 80 80" fill="none" xmlns="http://www.w3.org/2000/svg">
<path d="M73.1103 80H60.4528C58.3591 80 56.6556 78.4228 56.6556 76.4844V66.3408C54.6371 67.8962 52.496 69.2695 50.631 70.3676C45.9448 73.127 40.5343 75.5573 36.8468 76.5589C36.4466 76.6678 36.023 76.6678 35.6226 76.5589C31.9353 75.5573 26.5249 73.127 21.8387 70.3676C17.7686 67.9708 12.3812 64.2634 9.83065 60.2117C2.56086 48.6643 0 18.7229 0 13.1766C0 12.3181 0.448413 11.5508 1.1704 11.1741C7.77305 7.72783 19.0387 4.07438 34.6543 0.315782C35.119 0.203907 35.8841 0 36.235 0C36.5859 0 37.3509 0.203907 37.8155 0.315782C50.5658 3.38485 60.4891 6.41033 67.3096 9.30814C67.9451 9.57814 68.2237 10.2738 67.9321 10.8619C67.6404 11.45 66.8891 11.7078 66.2538 11.4381C59.5678 8.59752 49.7854 5.61861 37.1786 2.58391C36.7641 2.48422 36.4453 2.40735 36.235 2.35516C36.0244 2.4075 35.7056 2.48422 35.2913 2.58391C16.2755 7.16126 6.98811 10.8486 2.53251 13.1539C2.53184 13.161 2.5315 13.1686 2.5315 13.1767C2.5315 18.3997 5.11514 48.0673 12.0177 59.0318C13.808 61.8758 17.7785 65.1993 23.1973 68.3903C27.6568 71.0162 32.7577 73.3208 36.2348 74.2828C39.7121 73.3206 44.8132 71.0161 49.2724 68.3903C54.6911 65.1993 58.6615 61.8759 60.452 59.0318C60.478 58.9903 60.5041 58.9486 60.5301 58.9064H60.4528C59.5558 58.9064 58.7304 58.6168 58.0798 58.1336C54.5663 63.2928 43.1684 69.5617 36.6665 71.6869C36.566 71.7208 36.4593 71.743 36.3488 71.7523C36.3484 71.7523 36.3477 71.7525 36.3467 71.7525C36.3081 71.7558 36.2698 71.7567 36.2303 71.757C36.2294 71.757 36.2288 71.757 36.2279 71.757C36.0683 71.7562 35.9155 71.7283 35.7751 71.6776C30.8075 70.0484 22.7825 65.9679 17.6488 61.5911C17.1344 61.1525 17.1014 60.4112 17.5748 59.9351C18.0487 59.4587 18.8492 59.4284 19.3634 59.8667C23.5633 63.4473 30.1834 67.027 34.9683 68.8753L34.9686 37.8123H10.4676C11.898 45.3849 13.8675 52.661 16.392 56.6711C16.744 57.2301 16.5398 57.9476 15.9358 58.2736C15.3319 58.5995 14.557 58.4106 14.2049 57.8512C7.95751 47.9276 5.45605 21.7688 5.12814 15.3067C5.10451 14.8407 5.38196 14.4058 5.83443 14.2C12.3439 11.2385 22.4554 8.09658 35.8892 4.86173C35.9895 4.83548 36.0948 4.82032 36.2035 4.81782H36.2063H36.2065C36.2252 4.81751 36.2446 4.81751 36.2634 4.81782H36.2661C36.3751 4.82032 36.4807 4.83548 36.5813 4.86188C50.015 8.09674 60.1261 11.2385 66.6356 14.2C67.0881 14.4058 67.3653 14.8408 67.3419 15.3069C67.2862 16.401 67.1973 17.6811 67.081 19.0624H69.603C69.8482 16.1171 69.9384 14.1136 69.9384 13.1766C69.9384 13.1649 69.9375 13.1539 69.9363 13.1447C69.4202 12.8003 69.2555 12.1444 69.5752 11.6192C69.9184 11.0556 70.6899 10.8561 71.2995 11.1739C72.0213 11.5506 72.4699 12.318 72.4699 13.1764C72.4699 14.1385 72.3811 16.153 72.1404 19.0785C72.739 19.1716 73.1949 19.6535 73.1949 20.2341C73.1949 20.8814 72.6283 21.406 71.9291 21.406H60.453C59.755 21.406 59.1873 21.9316 59.1873 22.5779V34.2966C59.1873 34.9429 59.755 35.4685 60.453 35.4685H73.1105C73.8085 35.4685 74.3762 34.9429 74.3762 34.2966V25.9261L68.104 31.7333C67.6094 32.191 66.8081 32.1907 66.3139 31.7333L62.0895 27.8222C61.5952 27.3644 61.5952 26.6226 62.0895 26.1649C62.5839 25.7076 63.3852 25.7072 63.8796 26.1649L67.2091 29.2476L77.8392 19.4057C78.3336 18.9482 79.1349 18.9482 79.6293 19.4057C80.1236 19.8635 80.1236 20.6054 79.6293 21.063L76.9077 23.5825V34.2968C76.9077 36.2352 75.2042 37.8124 73.1105 37.8124H69.7034C69.5598 38.607 69.4123 39.3899 69.2618 40.1562H71.9291C72.6283 40.1562 73.1949 40.6807 73.1949 41.328C73.1949 41.9754 72.6283 42.4999 71.9291 42.4999H60.453C59.755 42.4999 59.1873 43.0256 59.1873 43.6718C59.1873 43.6718 59.1938 55.5278 59.2063 55.5939C59.2109 55.6131 59.2153 55.6325 59.219 55.652C59.3476 56.1728 59.852 56.5625 60.453 56.5625H73.1105C73.8085 56.5625 74.3762 56.0368 74.3762 55.3906V47.0201L68.104 52.8273C67.6094 53.2848 66.8081 53.2848 66.3139 52.8273L62.0895 48.9162C61.5952 48.4584 61.5952 47.7165 62.0895 47.2588C62.5839 46.8013 63.3852 46.8012 63.8796 47.2588L67.2091 50.3415L77.8392 40.4996C78.3336 40.0421 79.1349 40.0421 79.6293 40.4996C80.1236 40.9574 80.1236 41.6993 79.6293 42.157L76.9077 44.6765V55.3907C76.9077 57.3292 75.2042 58.9064 73.1105 58.9064H63.401C63.1506 59.3679 62.8954 59.8051 62.6392 60.2118C62.4196 60.5606 62.1788 60.907 61.9201 61.2501H71.9291C72.6283 61.2501 73.1949 61.7747 73.1949 62.422C73.1949 63.0693 72.6283 63.5939 71.9291 63.5939H60.453C59.755 63.5939 59.1873 64.1195 59.1873 64.7658V76.4845C59.1873 77.1308 59.755 77.6564 60.453 77.6564H73.1105C73.8085 77.6564 74.3762 77.1308 74.3762 76.4845V68.114L68.104 73.9212C67.6094 74.3789 66.8081 74.3786 66.3139 73.9212L62.0895 70.0101C61.5952 69.5523 61.5952 68.8104 62.0895 68.3528C62.5839 67.8953 63.3852 67.8951 63.8796 68.3528L67.2091 71.4355L77.8392 61.5936C78.3336 61.1361 79.1349 61.1361 79.6293 61.5936C80.1236 62.0514 80.1236 62.7933 79.6293 63.2509L76.9077 65.7704V76.4847C76.9076 78.4228 75.2042 80 73.1103 80ZM37.5003 37.8124L37.4999 68.8801C44.3712 66.252 53.5709 60.6532 56.0777 56.6711C56.2743 56.3586 56.4716 56.0189 56.6664 55.6579C56.6591 55.5698 56.6556 55.4804 56.6556 55.3906V43.6718C56.6556 41.7334 58.3591 40.1562 60.4528 40.1562H61.5331C61.6904 39.3935 61.845 38.6104 61.9955 37.8124H37.5003ZM64.1097 40.1562H66.6879C66.8405 39.3913 66.9903 38.6085 67.1362 37.8124H64.565C64.4168 38.6088 64.2646 39.3916 64.1097 40.1562ZM37.5003 35.4687H56.8725C56.732 35.1019 56.6556 34.7074 56.6556 34.2968V22.578C56.6556 20.6396 58.3591 19.0624 60.4528 19.0624H64.5415C64.6364 17.9519 64.7135 16.906 64.7699 15.9696C60.3393 14.0328 52.151 11.1002 37.5008 7.50845L37.5003 35.4687ZM10.043 35.4687H34.9688L34.9691 7.50845C20.319 11.1002 12.1303 14.0332 7.69963 15.9697C7.97557 20.6049 8.75189 28.0313 10.043 35.4687ZM70.055 13.215C70.0555 13.2152 70.0558 13.2155 70.0562 13.2157C70.0558 13.2155 70.0555 13.2152 70.055 13.215Z" fill="black"/>
</svg>
