<svg width="80" height="80" viewBox="0 0 80 80" fill="none" xmlns="http://www.w3.org/2000/svg">
<path d="M58.0796 50.4313H53.5304C53.3728 50.4313 53.2172 50.3969 53.0743 50.3304C52.9314 50.2639 52.8048 50.167 52.7034 50.0464C50.9182 47.85 48.7589 45.9864 46.325 44.5416L45.7682 44.2313C41.1077 41.6432 35.8223 38.7092 35.2655 31.8789C35.2354 31.3428 35.0451 30.828 34.7191 30.4013C34.3932 29.9746 33.9467 29.6555 33.4374 29.4854L33.1704 29.4043C32.8128 29.2886 32.4343 29.252 32.0611 29.297C31.6879 29.342 31.329 29.4676 31.0091 29.665C30.6893 29.8624 30.4161 30.1269 30.2086 30.4403C30.001 30.7537 29.8641 31.1084 29.8071 31.48C29.0147 36.4702 29.3336 42.9762 35.3455 45.6205C35.5722 45.7204 35.7576 45.8952 35.8709 46.1155C35.9841 46.3358 36.0183 46.5883 35.9676 46.8307C35.917 47.0732 35.7846 47.2909 35.5926 47.4475C35.4007 47.604 35.1608 47.6899 34.9131 47.6908H29.7585C29.4718 47.6908 29.1968 47.5769 28.9941 47.3741C28.7913 47.1714 28.6774 46.8964 28.6774 46.6097C28.6774 46.323 28.7913 46.048 28.9941 45.8453C29.1968 45.6425 29.4718 45.5286 29.7585 45.5286H31.272C27.9347 42.4778 26.6655 37.5135 27.6763 31.1351C27.7821 30.4574 28.0332 29.8105 28.4123 29.2389C28.7915 28.6673 29.2898 28.1845 29.8731 27.8236C30.4564 27.4626 31.1108 27.2321 31.7915 27.1478C32.4723 27.0635 33.1632 27.1274 33.8169 27.3351L34.0807 27.4162C35.0029 27.7128 35.8147 28.2796 36.411 29.0431C37.0072 29.8067 37.3603 30.7317 37.4244 31.6983C37.8904 37.3751 42.2288 39.7859 46.8234 42.3373L47.3844 42.6497C49.906 44.1248 52.1539 46.0245 54.0288 48.2648H58.0796C58.3663 48.2648 58.6413 48.3787 58.844 48.5815C59.0468 48.7842 59.1607 49.0592 59.1607 49.3459C59.1607 49.6326 59.0468 49.9076 58.844 50.1103C58.6413 50.3131 58.3663 50.427 58.0796 50.427V50.4313Z" fill="black"/>
<path d="M51.6227 77.5709H26.1621C25.8754 77.5709 25.6004 77.457 25.3977 77.2542C25.195 77.0515 25.0811 76.7765 25.0811 76.4898C25.0811 76.2031 25.195 75.9281 25.3977 75.7253C25.6004 75.5226 25.8754 75.4087 26.1621 75.4087H51.6227C53.005 75.409 54.3792 75.1971 55.6973 74.7806L57.7513 74.1319C57.8868 74.0894 58.0293 74.0739 58.1707 74.0863C58.3121 74.0988 58.4497 74.139 58.5756 74.2047C58.7015 74.2703 58.8132 74.3602 58.9044 74.469C58.9956 74.5778 59.0644 74.7035 59.107 74.839C59.1496 74.9744 59.1651 75.1169 59.1526 75.2583C59.1401 75.3998 59.0999 75.5374 59.0343 75.6632C58.9686 75.7891 58.8788 75.9009 58.77 75.992C58.6612 76.0832 58.5354 76.1521 58.4 76.1947L56.3459 76.8433C54.818 77.3258 53.225 77.5712 51.6227 77.5709V77.5709Z" fill="black"/>
<path d="M68.6987 78.6681H60.2663C59.3994 78.667 58.5684 78.322 57.9555 77.709C57.3426 77.0959 56.9979 76.2647 56.9971 75.3979V48.813C56.9979 47.9461 57.3426 47.115 57.9555 46.5019C58.5684 45.8888 59.3994 45.5439 60.2663 45.5427H68.6987C69.5658 45.5436 70.3971 45.8884 71.0102 46.5015C71.6233 47.1146 71.9681 47.9459 71.969 48.813V75.3979C71.9681 76.2649 71.6233 77.0962 71.0102 77.7093C70.3971 78.3225 69.5658 78.6673 68.6987 78.6681V78.6681ZM60.2663 47.7049C59.9726 47.7055 59.6912 47.8224 59.4837 48.0301C59.2762 48.2379 59.1595 48.5194 59.1592 48.813V75.3979C59.1595 75.6915 59.2762 75.973 59.4837 76.1807C59.6912 76.3884 59.9726 76.5054 60.2663 76.506H68.6987C68.9925 76.5057 69.2742 76.3888 69.4819 76.1811C69.6897 75.9734 69.8065 75.6917 69.8068 75.3979V48.813C69.8065 48.5192 69.6897 48.2375 69.4819 48.0298C69.2742 47.822 68.9925 47.7052 68.6987 47.7049H60.2663Z" fill="black"/>
<path d="M29.199 55.1719H17.1893C15.9249 55.153 14.7186 54.6374 13.8312 53.7365C12.9437 52.8357 12.4463 51.6219 12.4463 50.3573C12.4463 49.0928 12.9437 47.879 13.8312 46.9781C14.7186 46.0773 15.9249 45.5617 17.1893 45.5427H29.2001C30.4645 45.5617 31.6707 46.0773 32.5582 46.9781C33.4456 47.879 33.9431 49.0928 33.9431 50.3573C33.9431 51.6219 33.4456 52.8357 32.5582 53.7365C31.6707 54.6374 30.4645 55.153 29.2001 55.1719H29.199ZM17.1893 47.7049C16.4951 47.7189 15.834 48.0045 15.3481 48.5004C14.8621 48.9963 14.5899 49.663 14.5899 50.3573C14.5899 51.0517 14.8621 51.7183 15.3481 52.2142C15.834 52.7101 16.4951 52.9957 17.1893 53.0098H29.2001C29.8943 52.9957 30.5553 52.7101 31.0413 52.2142C31.5273 51.7183 31.7995 51.0517 31.7995 50.3573C31.7995 49.663 31.5273 48.9963 31.0413 48.5004C30.5553 48.0045 29.8943 47.7189 29.2001 47.7049H17.1893Z" fill="black"/>
<path d="M30.508 62.639H18.8885C17.6241 62.6201 16.4179 62.1045 15.5304 61.2036C14.643 60.3028 14.1455 59.089 14.1455 57.8244C14.1455 56.5599 14.643 55.346 15.5304 54.4452C16.4179 53.5443 17.6241 53.0288 18.8885 53.0098H30.508C31.1463 53.0003 31.7801 53.1177 32.3727 53.3554C32.9652 53.593 33.5045 53.9462 33.9593 54.3942C34.4141 54.8422 34.7753 55.3762 35.0218 55.9651C35.2683 56.554 35.3952 57.186 35.3952 57.8244C35.3952 58.4628 35.2683 59.0948 35.0218 59.6837C34.7753 60.2726 34.4141 60.8066 33.9593 61.2546C33.5045 61.7027 32.9652 62.0558 32.3727 62.2934C31.7801 62.5311 31.1463 62.6486 30.508 62.639V62.639ZM18.8885 55.172C18.1943 55.186 17.5333 55.4716 17.0473 55.9675C16.5613 56.4634 16.2891 57.1301 16.2891 57.8244C16.2891 58.5187 16.5613 59.1854 17.0473 59.6813C17.5333 60.1772 18.1943 60.4628 18.8885 60.4768H30.508C30.8608 60.484 31.2115 60.4206 31.5395 60.2905C31.8676 60.1604 32.1664 59.9662 32.4184 59.7192C32.6705 59.4722 32.8707 59.1774 33.0074 58.852C33.1441 58.5267 33.2145 58.1773 33.2145 57.8244C33.2145 57.4715 33.1441 57.1222 33.0074 56.7968C32.8707 56.4715 32.6705 56.1766 32.4184 55.9296C32.1664 55.6826 31.8676 55.4884 31.5395 55.3583C31.2115 55.2282 30.8608 55.1649 30.508 55.172H18.8885Z" fill="black"/>
<path d="M31.2701 70.1059H20.4722C19.8339 70.1155 19.2001 69.998 18.6075 69.7604C18.015 69.5227 17.4757 69.1696 17.0209 68.7216C16.5661 68.2735 16.2049 67.7395 15.9584 67.1507C15.7119 66.5618 15.585 65.9297 15.585 65.2913C15.585 64.6529 15.7119 64.0209 15.9584 63.432C16.2049 62.8431 16.5661 62.3091 17.0209 61.8611C17.4757 61.4131 18.015 61.06 18.6075 60.8223C19.2001 60.5846 19.8339 60.4672 20.4722 60.4767H31.2701C31.9084 60.4672 32.5423 60.5846 33.1348 60.8223C33.7273 61.06 34.2667 61.4131 34.7214 61.8611C35.1762 62.3091 35.5374 62.8431 35.7839 63.432C36.0304 64.0209 36.1574 64.6529 36.1574 65.2913C36.1574 65.9297 36.0304 66.5618 35.7839 67.1507C35.5374 67.7395 35.1762 68.2735 34.7214 68.7216C34.2667 69.1696 33.7273 69.5227 33.1348 69.7604C32.5423 69.998 31.9084 70.1155 31.2701 70.1059V70.1059ZM20.4722 62.6389C20.1194 62.6318 19.7687 62.6951 19.4407 62.8252C19.1126 62.9553 18.8138 63.1496 18.5618 63.3966C18.3097 63.6436 18.1095 63.9384 17.9728 64.2637C17.8361 64.5891 17.7657 64.9384 17.7657 65.2913C17.7657 65.6442 17.8361 65.9936 17.9728 66.3189C18.1095 66.6443 18.3097 66.9391 18.5618 67.1861C18.8138 67.4331 19.1126 67.6274 19.4407 67.7575C19.7687 67.8876 20.1194 67.9509 20.4722 67.9438H31.2701C31.6229 67.9509 31.9736 67.8876 32.3017 67.7575C32.6297 67.6274 32.9285 67.4331 33.1805 67.1861C33.4326 66.9391 33.6328 66.6443 33.7695 66.3189C33.9062 65.9936 33.9766 65.6442 33.9766 65.2913C33.9766 64.9384 33.9062 64.5891 33.7695 64.2637C33.6328 63.9384 33.4326 63.6436 33.1805 63.3966C32.9285 63.1496 32.6297 62.9553 32.3017 62.8252C31.9736 62.6951 31.6229 62.6318 31.2701 62.6389H20.4722Z" fill="black"/>
<path d="M31.7989 77.573H22.5416C21.9032 77.5825 21.2694 77.4651 20.6769 77.2274C20.0844 76.9897 19.545 76.6366 19.0902 76.1886C18.6354 75.7406 18.2743 75.2066 18.0278 74.6177C17.7812 74.0288 17.6543 73.3968 17.6543 72.7584C17.6543 72.12 17.7812 71.4879 18.0278 70.899C18.2743 70.3102 18.6354 69.7762 19.0902 69.3281C19.545 68.8801 20.0844 68.527 20.6769 68.2893C21.2694 68.0517 21.9032 67.9342 22.5416 67.9438H31.7989C33.0633 67.9627 34.2695 68.4783 35.157 69.3792C36.0444 70.28 36.5419 71.4938 36.5419 72.7584C36.5419 74.0229 36.0444 75.2367 35.157 76.1376C34.2695 77.0384 33.0633 77.554 31.7989 77.573V77.573ZM22.5416 70.1059C22.1887 70.0988 21.838 70.1622 21.51 70.2923C21.182 70.4224 20.8832 70.6166 20.6311 70.8636C20.3791 71.1106 20.1788 71.4054 20.0422 71.7308C19.9055 72.0561 19.8351 72.4055 19.8351 72.7584C19.8351 73.1113 19.9055 73.4606 20.0422 73.786C20.1788 74.1113 20.3791 74.4061 20.6311 74.6531C20.8832 74.9002 21.182 75.0944 21.51 75.2245C21.838 75.3546 22.1887 75.4179 22.5416 75.4108H31.7989C32.4931 75.3968 33.1541 75.1112 33.6401 74.6153C34.1261 74.1194 34.3983 73.4527 34.3983 72.7584C34.3983 72.064 34.1261 71.3974 33.6401 70.9015C33.1541 70.4056 32.4931 70.12 31.7989 70.1059H22.5416Z" fill="black"/>
<path d="M9.59397 25.5719C9.43659 25.5718 9.28113 25.5373 9.13845 25.4709C8.99577 25.4045 8.86931 25.3078 8.7679 25.1874C8.6665 25.0671 8.59259 24.926 8.55134 24.7741C8.51009 24.6223 8.5025 24.4632 8.5291 24.3081L9.4437 18.9751L5.5691 15.1978C5.42645 15.0568 5.32584 14.8789 5.27854 14.6839C5.23123 14.489 5.2391 14.2848 5.30125 14.094C5.3634 13.9033 5.47739 13.7336 5.63047 13.604C5.78354 13.4744 5.96967 13.3899 6.16802 13.36L11.5226 12.5816L13.9172 7.72972C14.0165 7.5609 14.1581 7.42094 14.3281 7.32369C14.4981 7.22645 14.6906 7.17529 14.8864 7.17529C15.0822 7.17529 15.2747 7.22645 15.4447 7.32369C15.6147 7.42094 15.7563 7.5609 15.8556 7.72972L18.2513 12.5816L23.6059 13.36C23.8054 13.389 23.9929 13.4732 24.1471 13.6031C24.3013 13.733 24.416 13.9035 24.4785 14.0952C24.5409 14.287 24.5484 14.4923 24.5002 14.6881C24.4521 14.8839 24.3501 15.0623 24.2059 15.2032L20.3313 18.9805L21.2459 24.3135C21.2792 24.5123 21.2564 24.7164 21.1799 24.9029C21.1034 25.0894 20.9763 25.2508 20.8129 25.3688C20.6495 25.4869 20.4564 25.5569 20.2554 25.571C20.0543 25.5851 19.8533 25.5427 19.675 25.4486L14.8848 22.9297L10.0956 25.4486C9.94061 25.5292 9.76861 25.5714 9.59397 25.5719ZM14.8913 20.6281C15.0663 20.6279 15.2388 20.6702 15.394 20.7513L18.7453 22.5146L18.1042 18.7805C18.0747 18.6078 18.0876 18.4304 18.1418 18.2637C18.1961 18.0971 18.29 17.9461 18.4156 17.8238L21.128 15.1795L17.3788 14.6389C17.2054 14.6134 17.0409 14.5462 16.8992 14.443C16.7576 14.3398 16.6432 14.2037 16.5659 14.0465L14.8869 10.6443L13.2102 14.0422C13.1327 14.1995 13.0182 14.3357 12.8763 14.4389C12.7345 14.5421 12.5697 14.6093 12.3961 14.6346L8.64802 15.1795L11.3615 17.8238C11.4869 17.9462 11.5807 18.0972 11.6347 18.2639C11.6888 18.4305 11.7015 18.6079 11.6718 18.7805L11.0264 22.5146L14.3777 20.7513C14.5348 20.6691 14.7097 20.6268 14.8869 20.6281H14.8913Z" fill="black"/>
<path d="M64.3247 25.5719C64.1493 25.5718 63.9765 25.5295 63.8209 25.4487L59.0274 22.9297L54.2382 25.4487C54.0596 25.5426 53.8582 25.5847 53.6569 25.5702C53.4556 25.5556 53.2624 25.485 53.0992 25.3663C52.9359 25.2476 52.8092 25.0856 52.7332 24.8986C52.6573 24.7116 52.6353 24.507 52.6696 24.3081L53.5842 18.9752L49.7085 15.1989C49.5639 15.0581 49.4617 14.8796 49.4133 14.6836C49.365 14.4877 49.3724 14.2821 49.4349 14.0902C49.4973 13.8982 49.6122 13.7276 49.7666 13.5976C49.921 13.4676 50.1087 13.3834 50.3085 13.3546L55.6631 12.5762L58.0577 7.72434C58.1571 7.55554 58.2988 7.41561 58.4689 7.3184C58.639 7.22118 58.8315 7.17004 59.0274 7.17004C59.2233 7.17004 59.4158 7.22118 59.5859 7.3184C59.756 7.41561 59.8977 7.55554 59.9971 7.72434L62.3917 12.5762L67.7463 13.3546C67.9461 13.3834 68.1338 13.4676 68.2882 13.5976C68.4426 13.7276 68.5575 13.8982 68.6199 14.0902C68.6824 14.2821 68.6899 14.4877 68.6415 14.6836C68.5931 14.8796 68.4909 15.0581 68.3463 15.1989L64.4706 18.9752L65.3852 24.3081C65.4118 24.4632 65.4043 24.6223 65.363 24.7742C65.3218 24.926 65.2478 25.0671 65.1464 25.1874C65.045 25.3078 64.9186 25.4045 64.7759 25.471C64.6332 25.5374 64.4778 25.5718 64.3204 25.5719H64.3247ZM59.0274 20.6281C59.2025 20.6279 59.375 20.6702 59.5301 20.7514L62.8815 22.5146L62.2415 18.7806C62.2118 18.6079 62.2245 18.4306 62.2786 18.2639C62.3326 18.0972 62.4264 17.9462 62.5517 17.8238L65.2663 15.1795L61.5161 14.6389C61.3425 14.6136 61.1777 14.5465 61.0359 14.4433C60.894 14.3401 60.7794 14.2039 60.702 14.0465L59.0274 10.6454L57.3507 14.0422C57.2732 14.1996 57.1586 14.3357 57.0168 14.4389C56.875 14.5422 56.7102 14.6093 56.5366 14.6346L52.7874 15.1752L55.5009 17.8195C55.6263 17.9419 55.7201 18.0929 55.7741 18.2596C55.8282 18.4262 55.8409 18.6036 55.8112 18.7762L55.1712 22.5103L58.5225 20.747C58.6787 20.667 58.852 20.6262 59.0274 20.6281Z" fill="black"/>
<path d="M42.2511 21.4432C42.0761 21.4431 41.9036 21.4008 41.7484 21.3199L36.9592 18.8021L32.1689 21.3199C31.9904 21.4138 31.7892 21.4559 31.588 21.4413C31.3868 21.4268 31.1937 21.3563 31.0305 21.2377C30.8673 21.1192 30.7405 20.9573 30.6645 20.7705C30.5885 20.5837 30.5662 20.3793 30.6003 20.1805L31.5149 14.8464L27.6403 11.0702C27.4957 10.9294 27.3935 10.751 27.3451 10.5551C27.2966 10.3593 27.304 10.1538 27.3663 9.96185C27.4287 9.76994 27.5434 9.59931 27.6977 9.46924C27.8519 9.33918 28.0395 9.25489 28.2392 9.22589L33.5949 8.44751L35.9895 3.59562C36.089 3.42707 36.2307 3.28737 36.4006 3.19033C36.5706 3.09328 36.7629 3.04224 36.9587 3.04224C37.1544 3.04224 37.3467 3.09328 37.5167 3.19033C37.6867 3.28737 37.8284 3.42707 37.9279 3.59562L40.3246 8.44751L45.6803 9.22589C45.8797 9.25504 46.0671 9.33937 46.2211 9.46936C46.3752 9.59935 46.4898 9.76982 46.5521 9.96153C46.6144 10.1532 46.6219 10.3585 46.5737 10.5543C46.5254 10.75 46.4234 10.9283 46.2792 11.0691L42.4046 14.8464L43.3192 20.1805C43.3456 20.3356 43.3379 20.4946 43.2965 20.6464C43.2551 20.7983 43.1811 20.9392 43.0796 21.0595C42.9781 21.1797 42.8515 21.2763 42.7088 21.3426C42.5661 21.4089 42.4106 21.4432 42.2533 21.4432H42.2511ZM36.9538 16.4994C37.1288 16.4995 37.3013 16.5418 37.4565 16.6226L40.8079 18.3859L40.1679 14.6518C40.1382 14.4792 40.1509 14.3018 40.2049 14.1352C40.259 13.9685 40.3527 13.8175 40.4781 13.6951L43.1916 11.0508L39.4414 10.5102C39.2678 10.4849 39.103 10.4178 38.9612 10.3145C38.8193 10.2113 38.7048 10.0752 38.6273 9.91778L36.9516 6.52102L35.2824 9.91346C35.205 10.0708 35.0904 10.207 34.9486 10.3102C34.8068 10.4134 34.642 10.4806 34.4684 10.5059L30.7181 11.0464L33.4316 13.6908C33.5572 13.813 33.6512 13.964 33.7054 14.1307C33.7596 14.2974 33.7725 14.4747 33.743 14.6475L33.1019 18.3816L36.4533 16.6183C36.6099 16.5385 36.7834 16.4977 36.9592 16.4994H36.9538Z" fill="black"/>
</svg>
