<svg width="22" height="29" viewBox="0 0 22 29" fill="none" xmlns="http://www.w3.org/2000/svg">
<path d="M11.0002 0.624023C5.30962 0.624023 0.680176 6.80387 0.680176 14.4C0.680176 21.9962 5.30962 28.176 11.0002 28.176C16.6907 28.176 21.3202 21.9962 21.3202 14.4C21.3202 6.80387 16.6907 0.624023 11.0002 0.624023ZM11.0002 26.7C6.10354 26.7 2.12018 21.1824 2.12018 14.4C2.12018 7.61764 6.10354 2.10002 11.0002 2.10002C15.8968 2.10002 19.8802 7.61764 19.8802 14.4C19.8802 21.1824 15.8968 26.7 11.0002 26.7Z" fill="black" fill-opacity="0.7"/>
<path d="M12.0182 14.4L16.6006 9.70341C16.8934 9.40428 16.8797 8.91064 16.5686 8.62921L11.4771 4.0077C11.0211 3.59343 10.28 3.94078 10.28 4.56005V12.6187L6.41757 8.66005C5.74365 7.96928 4.72573 9.01297 5.39933 9.70374L9.98174 14.4L5.39933 19.0967C4.72541 19.7874 5.74909 20.8252 6.41757 20.1404L10.28 16.1817V24.24C10.28 24.8678 11.0054 25.2221 11.4771 24.7927L16.5686 20.1712C16.8797 19.8895 16.8931 19.3958 16.6006 19.097L12.0182 14.4ZM11.72 12.6187V6.19939L15.0416 9.21437L11.72 12.6187ZM11.72 22.6007V16.1814L15.0416 19.5857L11.72 22.6007Z" fill="black" fill-opacity="0.7"/>
</svg>
