<svg width="21" height="30" viewBox="0 0 21 30" fill="none" xmlns="http://www.w3.org/2000/svg">
<path d="M10.0031 25.7766C10.2826 26.0391 10.7129 26.0432 10.9971 25.7766C11.3663 25.4298 20.0513 17.2117 20.0513 10.7083C20.0509 5.21811 15.7662 0.751953 10.5001 0.751953C5.23394 0.751953 0.949219 5.21811 0.949219 10.708C0.949219 17.2117 9.63383 25.4298 10.0031 25.7766ZM10.5001 2.29995C14.9475 2.29995 18.5659 6.07157 18.5659 10.708C18.5659 15.697 12.3273 22.3101 10.5001 24.1391C8.67188 22.3104 2.43422 15.7019 2.43422 10.708C2.43422 6.07157 6.05267 2.29995 10.5001 2.29995Z" fill="black" fill-opacity="0.7"/>
<path d="M14.2126 10.708C14.2126 8.57384 12.5468 6.83801 10.5001 6.83801C8.45344 6.83801 6.7876 8.57384 6.7876 10.708C6.7876 12.8422 8.45344 14.578 10.5001 14.578C12.5468 14.578 14.2126 12.8422 14.2126 10.708ZM8.2726 10.708C8.2726 9.42765 9.27217 8.38601 10.5001 8.38601C11.728 8.38601 12.7276 9.42765 12.7276 10.708C12.7276 11.9884 11.728 13.03 10.5001 13.03C9.27217 13.03 8.2726 11.9887 8.2726 10.708Z" fill="black" fill-opacity="0.7"/>
<path d="M16.6556 21.7466C15.7302 21.4016 15.2306 22.8554 16.151 23.2028C17.6409 23.7642 18.5659 24.5296 18.5659 25.2007C18.5659 26.4113 15.4973 28.0996 10.5001 28.0996C5.50289 28.0996 2.43422 26.4109 2.43422 25.2007C2.43422 24.5296 3.35954 23.7642 4.84916 23.2028C5.76755 22.856 5.27255 21.4026 4.34459 21.7466C2.15471 22.5719 0.949219 23.7986 0.949219 25.2011C0.949219 28.0893 5.87018 29.648 10.5001 29.648C15.13 29.648 20.0509 28.0893 20.0509 25.2011C20.0509 23.7986 18.8454 22.5722 16.6556 21.7466Z" fill="black" fill-opacity="0.7"/>
</svg>
