<svg width="114" height="114" viewBox="0 0 114 114" fill="none" xmlns="http://www.w3.org/2000/svg">
<path d="M104.182 114H86.1453C83.1617 114 80.7342 111.753 80.7342 108.99V94.5356C77.8579 96.7521 74.8068 98.709 72.1491 100.274C65.4714 104.206 57.7614 107.669 52.5067 109.096C51.9365 109.252 51.3328 109.252 50.7621 109.096C45.5079 107.669 37.7979 104.206 31.1202 100.274C25.3202 96.8583 17.6432 91.5754 14.0087 85.8016C3.64923 69.3466 0 26.6801 0 18.7766C0 17.5534 0.638988 16.4599 1.66781 15.9231C11.0766 11.0122 27.1302 5.806 49.3824 0.449989C50.0445 0.290567 51.1349 0 51.6349 0C52.1349 0 53.225 0.290567 53.8871 0.449989C72.0563 4.82341 86.197 9.13471 95.9163 13.2641C96.8217 13.6489 97.2188 14.6401 96.8032 15.4782C96.3876 16.3163 95.3169 16.6837 94.4117 16.2994C84.8841 12.2515 70.9443 8.00651 52.9795 3.68207C52.3888 3.54002 51.9345 3.43047 51.6349 3.3561C51.3348 3.43069 50.8805 3.54002 50.2901 3.68207C23.1926 10.2048 9.95806 15.4593 3.60883 18.7444C3.60786 18.7544 3.60738 18.7653 3.60738 18.7769C3.60738 26.2196 7.28908 68.4959 17.1252 84.1204C19.6764 88.1729 25.3344 92.9091 33.0561 97.4562C39.4109 101.198 46.6798 104.482 51.6347 105.853C56.5898 104.482 63.8589 101.198 70.2132 97.4562C77.9349 92.9091 83.5927 88.1732 86.1441 84.1204C86.1811 84.0611 86.2184 84.0017 86.2554 83.9416H86.1453C84.8671 83.9416 83.6908 83.529 82.7637 82.8403C77.7569 90.1922 61.515 99.1254 52.2498 102.154C52.1065 102.202 51.9545 102.234 51.797 102.247C51.7965 102.247 51.7955 102.247 51.7941 102.247C51.739 102.252 51.6844 102.253 51.6282 102.254C51.627 102.254 51.626 102.254 51.6248 102.254C51.3973 102.253 51.1796 102.213 50.9795 102.141C43.9007 99.819 32.465 94.0043 25.1495 87.7673C24.4165 87.1423 24.3696 86.086 25.0441 85.4075C25.7194 84.7287 26.8601 84.6855 27.5929 85.31C33.5778 90.4124 43.0113 95.5135 49.8298 98.1473L49.8302 53.8825H14.9163C16.9547 64.6735 19.7612 75.042 23.3585 80.7562C23.8602 81.5529 23.5692 82.5753 22.7085 83.0398C21.848 83.5043 20.7437 83.2351 20.242 82.438C11.3394 68.2968 7.77487 31.0205 7.3076 21.8121C7.27393 21.1479 7.6693 20.5283 8.31406 20.235C17.5901 16.0148 31.9989 11.5376 51.1421 6.92796C51.285 6.89056 51.435 6.86896 51.5899 6.8654H51.594H51.5942C51.6209 6.86495 51.6486 6.86495 51.6753 6.8654H51.6791C51.8345 6.86896 51.985 6.89056 52.1284 6.92818C71.2713 11.5378 85.6797 16.0148 94.9557 20.235C95.6005 20.5283 95.9956 21.1482 95.9622 21.8123C95.8828 23.3714 95.7561 25.1956 95.5904 27.1639H99.1843C99.5337 22.9668 99.6622 20.1119 99.6622 18.7766C99.6622 18.7599 99.6609 18.7444 99.6593 18.7312C98.9238 18.2405 98.6891 17.3058 99.1446 16.5574C99.6338 15.7543 100.733 15.47 101.602 15.9228C102.63 16.4597 103.27 17.5531 103.27 18.7764C103.27 20.1473 103.143 23.018 102.8 27.1868C103.653 27.3195 104.303 28.0062 104.303 28.8336C104.303 29.7561 103.495 30.5035 102.499 30.5035H86.1455C85.1509 30.5035 84.3418 31.2525 84.3418 32.1734V48.8727C84.3418 49.7936 85.1509 50.5426 86.1455 50.5426H104.182C105.177 50.5426 105.986 49.7936 105.986 48.8727V36.9448L97.0482 45.22C96.3434 45.8722 95.2015 45.8717 94.4973 45.22L88.4776 39.6467C87.7732 38.9943 87.7732 37.9371 88.4776 37.285C89.182 36.6333 90.3238 36.6328 91.0285 37.285L95.7729 41.6778L110.921 27.6531C111.625 27.0011 112.767 27.0011 113.472 27.6531C114.176 28.3055 114.176 29.3626 113.472 30.0148L109.594 33.6051V48.8729C109.594 51.6352 107.166 53.8827 104.182 53.8827H99.3274C99.1227 55.0149 98.9125 56.1306 98.698 57.2225H102.499C103.495 57.2225 104.303 57.97 104.303 58.8925C104.303 59.8149 103.495 60.5624 102.499 60.5624H86.1455C85.1509 60.5624 84.3418 61.3114 84.3418 62.2323C84.3418 62.2323 84.3512 79.1271 84.369 79.2212C84.3755 79.2486 84.3818 79.2762 84.387 79.3041C84.5703 80.0462 85.2891 80.6015 86.1455 80.6015H104.182C105.177 80.6015 105.986 79.8525 105.986 78.9316V67.0036L97.0482 75.2789C96.3434 75.9308 95.2015 75.9308 94.4973 75.2789L88.4776 69.7056C87.7732 69.0532 87.7732 67.996 88.4776 67.3438C89.182 66.6919 90.3238 66.6917 91.0285 67.3438L95.7729 71.7366L110.921 57.7119C111.625 57.06 112.767 57.06 113.472 57.7119C114.176 58.3643 114.176 59.4215 113.472 60.0737L109.594 63.664V78.9318C109.594 81.6941 107.166 83.9416 104.182 83.9416H90.3465C89.9896 84.5993 89.6259 85.2223 89.2609 85.8019C88.948 86.2988 88.6048 86.7925 88.2361 87.2814H102.499C103.495 87.2814 104.303 88.0289 104.303 88.9513C104.303 89.8738 103.495 90.6213 102.499 90.6213H86.1455C85.1509 90.6213 84.3418 91.3703 84.3418 92.2912V108.99C84.3418 109.911 85.1509 110.66 86.1455 110.66H104.182C105.177 110.66 105.986 109.911 105.986 108.99V97.0625L97.0482 105.338C96.3434 105.99 95.2015 105.989 94.4973 105.338L88.4776 99.7644C87.7732 99.1121 87.7732 98.0549 88.4776 97.4027C89.182 96.7508 90.3238 96.7506 91.0285 97.4027L95.7729 101.796L110.921 87.7708C111.625 87.1189 112.767 87.1189 113.472 87.7708C114.176 88.4232 114.176 89.4804 113.472 90.1325L109.594 93.7229V108.991C109.593 111.753 107.166 114 104.182 114ZM53.4379 53.8827L53.4374 98.1542C63.229 94.4091 76.3385 86.4309 79.9108 80.7562C80.1909 80.3109 80.4721 79.8269 80.7496 79.3125C80.7393 79.187 80.7342 79.0596 80.7342 78.9316V62.2323C80.7342 59.47 83.1617 57.2225 86.1453 57.2225H87.6847C87.9088 56.1358 88.1291 55.0198 88.3436 53.8827H53.4379ZM91.3563 57.2225H95.0303C95.2477 56.1326 95.4612 55.0171 95.669 53.8827H92.0051C91.794 55.0176 91.577 56.1331 91.3563 57.2225ZM53.4379 50.5428H81.0433C80.8432 50.0203 80.7342 49.4581 80.7342 48.8729V32.1737C80.7342 29.4114 83.1617 27.1639 86.1453 27.1639H91.9717C92.1068 25.5815 92.2168 24.091 92.2971 22.7566C85.9834 19.9968 74.3152 15.8178 53.4386 10.6995L53.4379 50.5428ZM14.3112 50.5428H49.8305L49.831 10.6995C28.9545 15.8178 17.2856 19.9972 10.972 22.7568C11.3652 29.362 12.4714 39.9446 14.3112 50.5428ZM99.8283 18.8314C99.8291 18.8316 99.8295 18.8321 99.83 18.8323C99.8295 18.8321 99.8291 18.8316 99.8283 18.8314Z" fill="url(#paint0_linear)"/>
<defs>
<linearGradient id="paint0_linear" x1="57" y1="0" x2="57" y2="114" gradientUnits="userSpaceOnUse">
<stop stop-color="#6367C8"/>
<stop offset="1" stop-color="#944DD7"/>
</linearGradient>
</defs>
</svg>
