<svg width="25" height="24" viewBox="0 0 25 24" fill="none" xmlns="http://www.w3.org/2000/svg">
<g clip-path="url(#clip0)">
<path d="M12.0704 0C5.40375 0 0 5.37224 0 12C0 18.6278 5.40375 24 12.0704 24C18.7363 24 24.1408 18.627 24.1408 12C24.1408 5.37224 18.7363 0 12.0704 0ZM12.0704 22.5C6.23739 22.5 1.50882 17.799 1.50882 12C1.50882 6.20102 6.23739 1.50002 12.0704 1.50002C17.9034 1.50002 22.6319 6.20102 22.6319 12C22.6319 17.799 17.9034 22.5 12.0704 22.5Z" fill="white" fill-opacity="0.8"/>
<path d="M17.5773 7.79458L9.816 15.4416L6.5864 12.2946C6.28916 12.0013 5.80637 12.0013 5.50914 12.2946C5.21115 12.5878 5.21115 13.0626 5.50914 13.3551L9.28034 17.0293C9.58962 17.3001 10.0521 17.3301 10.3576 17.0293L18.6552 8.85509C18.9524 8.56258 18.9524 8.08709 18.6552 7.79458C18.3573 7.50207 17.8752 7.50207 17.5773 7.79458Z" fill="white" fill-opacity="0.8"/>
</g>
<defs>
<clipPath id="clip0">
<rect width="24.1408" height="24" fill="white"/>
</clipPath>
</defs>
</svg>
