<svg width="13" height="11" viewBox="0 0 13 11" fill="none" xmlns="http://www.w3.org/2000/svg">
<path d="M11.7053 0.590232C11.4092 0.600099 11.1286 0.725101 10.9232 0.938652C8.71957 3.14704 6.70955 5.31933 4.58079 7.48724L1.97131 5.40391C1.85459 5.31054 1.72062 5.24108 1.57706 5.19948C1.43349 5.15788 1.28314 5.14496 1.13458 5.16147C0.986025 5.17798 0.842174 5.22358 0.711242 5.29568C0.58031 5.36778 0.46486 5.46496 0.371486 5.58167C0.278113 5.69839 0.208642 5.83235 0.167042 5.97592C0.125442 6.11949 0.112526 6.26984 0.129032 6.4184C0.162368 6.71842 0.313523 6.99292 0.549244 7.18149L3.96219 9.91185C4.18095 10.0864 4.45634 10.1741 4.73574 10.1584C5.01513 10.1427 5.27892 10.0245 5.47669 9.82653C7.92707 7.37089 10.1265 4.95436 12.5301 2.54558C12.6952 2.38603 12.8081 2.18028 12.8541 1.95534C12.9001 1.73041 12.877 1.49683 12.7877 1.28529C12.6985 1.07376 12.5474 0.894166 12.3542 0.770115C12.161 0.646064 11.9348 0.583355 11.7053 0.590232Z" fill="white"/>
</svg>
