<svg width="25" height="24" viewBox="0 0 25 24" fill="none" xmlns="http://www.w3.org/2000/svg">
<g clip-path="url(#clip0)">
<path d="M12.1876 0C5.52094 0 0.117188 5.37224 0.117188 12C0.117188 18.6278 5.52094 24 12.1876 24C18.8534 24 24.2579 18.627 24.2579 12C24.2579 5.37224 18.8534 0 12.1876 0ZM12.1876 22.5C6.35458 22.5 1.62601 17.799 1.62601 12C1.62601 6.20102 6.35458 1.50002 12.1876 1.50002C18.0206 1.50002 22.7491 6.20102 22.7491 12C22.7491 17.799 18.0206 22.5 12.1876 22.5Z" fill="black" fill-opacity="0.5"/>
<path d="M17.6944 7.79458L9.93318 15.4416L6.70359 12.2946C6.40635 12.0013 5.92356 12.0013 5.62632 12.2946C5.32833 12.5878 5.32833 13.0626 5.62632 13.3551L9.39753 17.0293C9.70681 17.3001 10.1693 17.3301 10.4748 17.0293L18.7724 8.85509C19.0696 8.56258 19.0696 8.08709 18.7724 7.79458C18.4745 7.50207 17.9924 7.50207 17.6944 7.79458Z" fill="black" fill-opacity="0.5"/>
</g>
<defs>
<clipPath id="clip0">
<rect width="24.1408" height="24" fill="white" transform="translate(0.117188)"/>
</clipPath>
</defs>
</svg>
