<svg width="111" height="127" viewBox="0 0 111 127" fill="none" xmlns="http://www.w3.org/2000/svg">
<path d="M84.5981 29.0315C79.3274 23.2514 72.9194 19.3758 65.4179 17.3384C65.0898 17.2498 64.9805 17.1391 64.9805 16.7847C65.0023 15.4117 64.9805 14.0165 64.9805 12.6213C64.9805 11.0711 64.6743 9.60942 63.9744 8.23637C62.1155 4.56013 57.982 2.2348 53.3892 3.23137C49.3651 4.11721 46.1501 7.94847 46.0845 12.1119C46.0408 13.6843 46.0627 15.2567 46.0627 16.829C46.0627 17.1169 46.0189 17.2498 45.6909 17.3384C38.2112 19.3537 31.7813 23.1849 26.5325 28.965C19.0747 37.1812 15.3349 46.9033 15.1818 58.0206C15.0943 65.8603 15.1818 73.7221 15.1599 81.5618C15.1599 81.8719 15.0724 82.2041 14.9193 82.492C14.2195 83.8872 13.4759 85.2602 12.7323 86.6333C11.0045 89.8666 9.27678 93.1221 7.54903 96.3554C6.1712 98.9465 4.7715 101.56 3.39367 104.151C2.86878 105.125 2.86878 106.122 3.39367 107.074C4.0279 108.226 5.03394 108.669 6.28055 108.669C17.2376 108.669 28.1727 108.669 39.1298 108.669C39.3266 108.669 39.5016 108.669 39.6547 108.669C39.8734 109.754 40.0046 110.795 40.2014 111.791C41.8198 118.258 47.6373 123.728 55.5544 123.75C59.163 123.75 62.4216 122.598 65.2648 120.317C68.764 117.505 70.7105 113.829 71.2573 109.355C71.3447 108.646 71.3229 108.646 72.0227 108.646C82.8267 108.646 93.6525 108.646 104.456 108.646C104.763 108.646 105.047 108.624 105.353 108.602C106.031 108.536 106.6 108.248 107.103 107.783C107.934 107.008 108.415 105.524 107.518 103.841C103.691 96.7319 99.9074 89.6008 96.1238 82.4698C95.9926 82.2262 95.9051 81.894 95.9051 81.584C95.9051 74.0765 95.9051 77.5075 95.9051 70" stroke="url(#paint0_linear_112_1115)" stroke-width="5" stroke-linecap="round"/>
<path d="M91.5 40C92.8807 40 94 38.8807 94 37.5C94 36.1193 92.8807 35 91.5 35C90.1193 35 89 36.1193 89 37.5C89 38.8807 90.1193 40 91.5 40Z" fill="url(#paint1_linear_112_1115)"/>
<path d="M95.5 51C96.8807 51 98 49.8807 98 48.5C98 47.1193 96.8807 46 95.5 46C94.1193 46 93 47.1193 93 48.5C93 49.8807 94.1193 51 95.5 51Z" fill="url(#paint2_linear_112_1115)"/>
<path d="M95.5 62C96.8807 62 98 60.8807 98 59.5C98 58.1193 96.8807 57 95.5 57C94.1193 57 93 58.1193 93 59.5C93 60.8807 94.1193 62 95.5 62Z" fill="url(#paint3_linear_112_1115)"/>
<defs>
<linearGradient id="paint0_linear_112_1115" x1="55.5" y1="3" x2="55.5" y2="123.75" gradientUnits="userSpaceOnUse">
<stop stop-color="#6367C8"/>
<stop offset="1" stop-color="#944DD7"/>
</linearGradient>
<linearGradient id="paint1_linear_112_1115" x1="91.5" y1="35" x2="91.5" y2="40" gradientUnits="userSpaceOnUse">
<stop stop-color="#6367C8"/>
<stop offset="1" stop-color="#944DD7"/>
</linearGradient>
<linearGradient id="paint2_linear_112_1115" x1="95.5" y1="46" x2="95.5" y2="51" gradientUnits="userSpaceOnUse">
<stop stop-color="#6367C8"/>
<stop offset="1" stop-color="#944DD7"/>
</linearGradient>
<linearGradient id="paint3_linear_112_1115" x1="95.5" y1="57" x2="95.5" y2="62" gradientUnits="userSpaceOnUse">
<stop stop-color="#6367C8"/>
<stop offset="1" stop-color="#944DD7"/>
</linearGradient>
</defs>
</svg>
