<svg width="100" height="156" viewBox="0 0 100 156" fill="none" xmlns="http://www.w3.org/2000/svg">
<g clip-path="url(#clip0_132_985)">
<path d="M92.9 62.2998H87.5C86.1 62.2998 85 63.3998 85 64.7998V87.2998C85 88.6998 86.1 89.7998 87.5 89.7998H92.9C96.8 89.7998 100 86.5998 100 82.6998V69.3998C100 65.4998 96.8 62.2998 92.9 62.2998ZM95 82.6998C95 83.8998 94 84.7998 92.9 84.7998H90V67.2998H92.9C94.1 67.2998 95 68.2998 95 69.3998V82.6998Z" fill="url(#paint0_linear_132_985)"/>
<path d="M72.1005 128.6C73.7005 128.6 75.3005 128.4 76.8005 127.9L77.0005 126.6C77.1005 125.9 76.9005 125.1 76.5005 124.6C76.0005 124 75.3005 123.7 74.6005 123.7H14.9005C14.2005 123.7 13.5005 124 13.0005 124.6C12.5005 125.2 12.3005 125.9 12.5005 126.6L12.7005 127.9C14.2005 128.3 15.8005 128.6 17.4005 128.6H72.1005Z" fill="url(#paint1_linear_132_985)"/>
<path d="M71.6005 27.2002H17.9005H17.4005C15.8005 27.2002 14.2005 27.4002 12.7005 27.9002L12.4005 29.3002C12.3005 30.0002 12.5005 30.8002 12.9005 31.3002C13.4005 31.9002 14.1005 32.2002 14.8005 32.2002H17.1005C17.2005 32.2002 17.2005 32.2002 17.3005 32.2002H72.0005C72.1005 32.2002 72.1005 32.2002 72.2005 32.2002H74.5005C75.2005 32.2002 75.9005 31.9002 76.4005 31.3002C76.9005 30.7002 77.1005 30.0002 76.9005 29.3002L76.6005 27.9002C75.1005 27.5002 73.5005 27.2002 71.9005 27.2002H71.6005Z" fill="url(#paint2_linear_132_985)"/>
<path d="M0 111.2V110.3C0 110.2 0 110.2 0 110.1V114H0.3C0.1 113.1 0 112.2 0 111.2Z" fill="white"/>
<path d="M76.8 27.9L73.4 9.3C72.4 4.1 67.5 0 62.2 0H58H57.8H27.3C22 0 17.1 4.1 16.1 9.3L12.7 27.8C5.4 29.9 0 36.6 0 44.5V76C0 77.4 1.1 78.5 2.5 78.5C3.9 78.5 5 77.4 5 76V44.5C5 37.7 10.5 32.2 17.2 32.1C17.3 32.1 17.3 32.1 17.4 32.1H72.1C72.2 32.1 72.2 32.1 72.3 32.1C79.1 32.2 84.5 37.7 84.5 44.5V111.2C84.5 118 78.9 123.6 72.1 123.6H17.4C11.5 123.6 6.6 119.5 5.3 114C5.2 112.7 4.1 111.6 2.8 111.6C1.4 111.6 0.3 112.7 0.3 114C0.3 114 0.3 114 0.3 114.1C0.3 114.1 0.3 114.1 0.3 114.2C1.4 120.8 6.3 126.2 12.7 128L16.1 146.6C17 151.8 21.9 155.8 27.1 155.9H62.3C67.6 155.8 72.4 151.8 73.3 146.6L76.7 128C84 126 89.4 119.3 89.4 111.3V44.5C89.5 36.6 84.1 29.9 76.8 27.9ZM17.9 27.2L21 10.2C21.5 7.4 24.4 5 27.3 5H57.4C57.5 5 57.6 5 57.7 5H57.8C57.9 5 58 5 58.1 5H62C64.9 5 67.8 7.4 68.3 10.3L71.4 27.3H17.9V27.2ZM68.5 145.6C68 148.5 65.1 150.9 62.2 150.9H27.3C24.4 150.9 21.5 148.5 21 145.6L17.9 128.6H71.6L68.5 145.6Z" fill="url(#paint3_linear_132_985)"/>
<path d="M2.5 98C3.88071 98 5 96.8807 5 95.5C5 94.1193 3.88071 93 2.5 93C1.11929 93 0 94.1193 0 95.5C0 96.8807 1.11929 98 2.5 98Z" fill="url(#paint4_linear_132_985)"/>
<path d="M2.5 88C3.88071 88 5 86.8807 5 85.5C5 84.1193 3.88071 83 2.5 83C1.11929 83 0 84.1193 0 85.5C0 86.8807 1.11929 88 2.5 88Z" fill="url(#paint5_linear_132_985)"/>
<path d="M2.5 108C3.88071 108 5 106.881 5 105.5C5 104.119 3.88071 103 2.5 103C1.11929 103 0 104.119 0 105.5C0 106.881 1.11929 108 2.5 108Z" fill="url(#paint6_linear_132_985)"/>
</g>
<defs>
<linearGradient id="paint0_linear_132_985" x1="92.4996" y1="62.29" x2="92.4996" y2="89.7906" gradientUnits="userSpaceOnUse">
<stop stop-color="#6367C8"/>
<stop offset="1" stop-color="#944DD7"/>
</linearGradient>
<linearGradient id="paint1_linear_132_985" x1="44.7395" y1="123.643" x2="44.7395" y2="155.798" gradientUnits="userSpaceOnUse">
<stop stop-color="#6367C8"/>
<stop offset="1" stop-color="#944DD7"/>
</linearGradient>
<linearGradient id="paint2_linear_132_985" x1="44.7372" y1="0.000195159" x2="44.7372" y2="32.1551" gradientUnits="userSpaceOnUse">
<stop stop-color="#6367C8"/>
<stop offset="1" stop-color="#944DD7"/>
</linearGradient>
<linearGradient id="paint3_linear_132_985" x1="44.7415" y1="0" x2="44.7415" y2="155.789" gradientUnits="userSpaceOnUse">
<stop stop-color="#6367C8"/>
<stop offset="1" stop-color="#944DD7"/>
</linearGradient>
<linearGradient id="paint4_linear_132_985" x1="2.5" y1="93" x2="2.5" y2="98" gradientUnits="userSpaceOnUse">
<stop stop-color="#6367C8"/>
<stop offset="1" stop-color="#944DD7"/>
</linearGradient>
<linearGradient id="paint5_linear_132_985" x1="2.5" y1="83" x2="2.5" y2="88" gradientUnits="userSpaceOnUse">
<stop stop-color="#6367C8"/>
<stop offset="1" stop-color="#944DD7"/>
</linearGradient>
<linearGradient id="paint6_linear_132_985" x1="2.5" y1="103" x2="2.5" y2="108" gradientUnits="userSpaceOnUse">
<stop stop-color="#6367C8"/>
<stop offset="1" stop-color="#944DD7"/>
</linearGradient>
<clipPath id="clip0_132_985">
<rect width="100" height="155.8" fill="white"/>
</clipPath>
</defs>
</svg>
