<svg width="100" height="156" viewBox="0 0 100 156" fill="none" xmlns="http://www.w3.org/2000/svg">
<g clip-path="url(#clip0)">
<path d="M92.9 62.3H87.5C86.1 62.3 85 63.4 85 64.8V87.3C85 88.7 86.1 89.8 87.5 89.8H92.9C96.8 89.8 100 86.6 100 82.7V69.4C100 65.5 96.8 62.3 92.9 62.3ZM95 82.7C95 83.9 94 84.8 92.9 84.8H90V67.3H92.9C94.1 67.3 95 68.3 95 69.4V82.7Z" fill="url(#paint0_linear)"/>
<path d="M72.1 128.6C73.7 128.6 75.3 128.4 76.8 127.9L77 126.6C77.1 125.9 76.9 125.1 76.5 124.6C76 124 75.3 123.7 74.6 123.7H14.9C14.2 123.7 13.5 124 13 124.6C12.5 125.2 12.3 125.9 12.5 126.6L12.7 127.9C14.2 128.3 15.8 128.6 17.4 128.6H72.1Z" fill="url(#paint1_linear)"/>
<path d="M71.6 27.2H17.9H17.4C15.8 27.2 14.2 27.4 12.7 27.9L12.4 29.3C12.3 30 12.5 30.8 12.9 31.3C13.4 31.9 14.1 32.2 14.8 32.2H17.1C17.2 32.2 17.2 32.2 17.3 32.2H72C72.1 32.2 72.1 32.2 72.2 32.2H74.5C75.2 32.2 75.9 31.9 76.4 31.3C76.9 30.7 77.1 30 76.9 29.3L76.6 27.9C75.1 27.5 73.5 27.2 71.9 27.2H71.6Z" fill="url(#paint2_linear)"/>
<path d="M0 111.2V110.3C0 110.2 0 110.2 0 110.1V114H0.3C0.1 113.1 0 112.2 0 111.2Z" fill="white"/>
<path d="M76.8 27.9L73.4 9.3C72.4 4.1 67.5 0 62.2 0H58H57.8H27.3C22 0 17.1 4.1 16.1 9.3L12.7 27.8C5.4 29.9 0 36.6 0 44.5V76C0 77.4 1.1 78.5 2.5 78.5C3.9 78.5 5 77.4 5 76V44.5C5 37.7 10.5 32.2 17.2 32.1C17.3 32.1 17.3 32.1 17.4 32.1H72.1C72.2 32.1 72.2 32.1 72.3 32.1C79.1 32.2 84.5 37.7 84.5 44.5V111.2C84.5 118 78.9 123.6 72.1 123.6H17.4C11.5 123.6 6.6 119.5 5.3 114C5.2 112.7 4.1 111.6 2.8 111.6C1.4 111.6 0.3 112.7 0.3 114C0.3 114 0.3 114 0.3 114.1C0.3 114.1 0.3 114.1 0.3 114.2C1.4 120.8 6.3 126.2 12.7 128L16.1 146.6C17 151.8 21.9 155.8 27.1 155.9H62.3C67.6 155.8 72.4 151.8 73.3 146.6L76.7 128C84 126 89.4 119.3 89.4 111.3V44.5C89.5 36.6 84.1 29.9 76.8 27.9ZM17.9 27.2L21 10.2C21.5 7.4 24.4 5 27.3 5H57.4C57.5 5 57.6 5 57.7 5H57.8C57.9 5 58 5 58.1 5H62C64.9 5 67.8 7.4 68.3 10.3L71.4 27.3H17.9V27.2ZM68.5 145.6C68 148.5 65.1 150.9 62.2 150.9H27.3C24.4 150.9 21.5 148.5 21 145.6L17.9 128.6H71.6L68.5 145.6Z" fill="url(#paint3_linear)"/>
<path d="M2.5 98C3.88071 98 5 96.8807 5 95.5C5 94.1193 3.88071 93 2.5 93C1.11929 93 0 94.1193 0 95.5C0 96.8807 1.11929 98 2.5 98Z" fill="url(#paint4_linear)"/>
<path d="M2.5 88C3.88071 88 5 86.8807 5 85.5C5 84.1193 3.88071 83 2.5 83C1.11929 83 0 84.1193 0 85.5C0 86.8807 1.11929 88 2.5 88Z" fill="url(#paint5_linear)"/>
<path d="M2.5 108C3.88071 108 5 106.881 5 105.5C5 104.119 3.88071 103 2.5 103C1.11929 103 0 104.119 0 105.5C0 106.881 1.11929 108 2.5 108Z" fill="url(#paint6_linear)"/>
</g>
<path d="M57.9105 72.1427C57.776 71.8908 57.5819 71.682 57.3482 71.5377C57.1145 71.3934 56.8495 71.3187 56.5803 71.3213H49.3138L51.2596 60.9635C51.3042 60.7255 51.2993 60.4798 51.2455 60.244C51.1916 60.0082 51.09 59.7883 50.948 59.6C50.8018 59.4077 50.617 59.2537 50.4076 59.1498C50.1982 59.046 49.9698 58.9949 49.7394 59.0004H37.5778C37.2112 58.9959 36.8554 59.1348 36.5761 59.3914C36.2967 59.648 36.1126 60.0051 36.0576 60.3968L33.0172 81.753C32.9841 81.9885 32.9988 82.2289 33.0603 82.4576C33.1217 82.6863 33.2284 82.8978 33.373 83.0775C33.5177 83.2572 33.6967 83.4008 33.8977 83.4983C34.0988 83.5958 34.3171 83.6449 34.5374 83.6422H41.1503L39.7593 94.4928C39.667 95.1465 39.7879 95.8145 40.1013 96.3825C40.4147 96.9504 40.9011 97.3829 41.4771 97.6059C41.7851 97.7346 42.1123 97.8014 42.4425 97.8031C42.8886 97.7983 43.3266 97.6733 43.7168 97.4395C44.107 97.2058 44.4371 96.8705 44.6772 96.4642L57.8649 73.843C58.0154 73.5911 58.0992 73.2994 58.1072 72.9997C58.1153 72.7 58.0472 72.4036 57.9105 72.1427Z" fill="url(#paint7_linear)"/>
<defs>
<linearGradient id="paint0_linear" x1="92.4996" y1="62.2902" x2="92.4996" y2="89.7908" gradientUnits="userSpaceOnUse">
<stop stop-color="#6367C8"/>
<stop offset="1" stop-color="#944DD7"/>
</linearGradient>
<linearGradient id="paint1_linear" x1="44.739" y1="123.643" x2="44.739" y2="155.798" gradientUnits="userSpaceOnUse">
<stop stop-color="#6367C8"/>
<stop offset="1" stop-color="#944DD7"/>
</linearGradient>
<linearGradient id="paint2_linear" x1="44.7367" y1="1.20537e-05" x2="44.7367" y2="32.1549" gradientUnits="userSpaceOnUse">
<stop stop-color="#6367C8"/>
<stop offset="1" stop-color="#944DD7"/>
</linearGradient>
<linearGradient id="paint3_linear" x1="44.7415" y1="0" x2="44.7415" y2="155.789" gradientUnits="userSpaceOnUse">
<stop stop-color="#6367C8"/>
<stop offset="1" stop-color="#944DD7"/>
</linearGradient>
<linearGradient id="paint4_linear" x1="2.5" y1="93" x2="2.5" y2="98" gradientUnits="userSpaceOnUse">
<stop stop-color="#6367C8"/>
<stop offset="1" stop-color="#944DD7"/>
</linearGradient>
<linearGradient id="paint5_linear" x1="2.5" y1="83" x2="2.5" y2="88" gradientUnits="userSpaceOnUse">
<stop stop-color="#6367C8"/>
<stop offset="1" stop-color="#944DD7"/>
</linearGradient>
<linearGradient id="paint6_linear" x1="2.5" y1="103" x2="2.5" y2="108" gradientUnits="userSpaceOnUse">
<stop stop-color="#6367C8"/>
<stop offset="1" stop-color="#944DD7"/>
</linearGradient>
<linearGradient id="paint7_linear" x1="45.5539" y1="59" x2="45.5539" y2="97.8031" gradientUnits="userSpaceOnUse">
<stop stop-color="#6467C8"/>
<stop offset="1" stop-color="#944DD7"/>
</linearGradient>
<clipPath id="clip0">
<rect width="100" height="155.8" fill="white"/>
</clipPath>
</defs>
</svg>
