<svg width="12" height="58" viewBox="0 0 12 58" fill="none" xmlns="http://www.w3.org/2000/svg">
<path d="M10.0103 34.7245C10.0103 37.1985 8.00399 39.2047 5.53002 39.2047C3.05605 39.2047 1.04979 37.1985 1.04979 34.7245L1.04979 4.48031C1.04979 2.00634 3.05606 7.5686e-05 5.53002 7.59023e-05C8.00399 7.61186e-05 10.0103 2.00634 10.0103 4.48031L10.0103 34.7245Z" fill="black" fill-opacity="0.3"/>
<path fill-rule="evenodd" clip-rule="evenodd" d="M5.53014 57.1323C2.47631 57.1323 0.000232913 54.6562 0.00023318 51.6024C0.000233447 48.5486 2.47631 46.0725 5.53015 46.0725C8.58398 46.0725 11.0601 48.5486 11.0601 51.6024C11.0601 54.6562 8.58398 57.1323 5.53014 57.1323Z" fill="black" fill-opacity="0.3"/>
</svg>
