<svg width="12" height="58" viewBox="0 0 12 58" fill="none" xmlns="http://www.w3.org/2000/svg">
<path d="M10.9502 34.7244C10.9502 37.1984 8.94393 39.2046 6.46996 39.2046C3.99599 39.2046 1.98973 37.1984 1.98973 34.7244L1.98973 4.48022C1.98974 2.00625 3.996 -1.58667e-05 6.46997 -1.56505e-05C8.94393 -1.54342e-05 10.9502 2.00625 10.9502 4.48022L10.9502 34.7244Z" fill="white"/>
<path fill-rule="evenodd" clip-rule="evenodd" d="M6.47009 57.1322C3.41625 57.1322 0.940174 54.6561 0.940175 51.6023C0.940175 48.5484 3.41625 46.0724 6.47009 46.0724C9.52392 46.0724 12 48.5484 12 51.6023C12 54.6561 9.52392 57.1322 6.47009 57.1322Z" fill="white"/>
</svg>
