<svg width="21" height="24" viewBox="0 0 21 24" fill="none" xmlns="http://www.w3.org/2000/svg">
<path d="M7.33093 21.0024C7.30031 21.0024 7.26532 21.0024 7.22595 21.0024C5.03455 21.0024 2.84752 21.0024 0.65611 21.0024C0.406788 21.0024 0.205581 20.9144 0.0787332 20.6855C-0.0262444 20.4963 -0.0262444 20.2982 0.0787332 20.1045C0.354299 19.5895 0.634239 19.0701 0.909805 18.5551C1.25536 17.9125 1.60091 17.2654 1.94646 16.6228C2.09518 16.3499 2.24389 16.077 2.38386 15.7996C2.41448 15.7424 2.43198 15.6764 2.43198 15.6148C2.43635 14.0566 2.41886 12.494 2.43635 10.9358C2.46697 8.72612 3.21494 6.79378 4.70649 5.16075C5.75627 4.01191 7.04224 3.25042 8.53817 2.84986C8.60378 2.83226 8.61253 2.80585 8.61253 2.74863C8.61253 2.43611 8.60816 2.12359 8.61691 1.81107C8.63003 0.983547 9.27302 0.222054 10.0778 0.0459863C10.9964 -0.15209 11.8231 0.310088 12.1949 1.04077C12.3349 1.31367 12.3961 1.60419 12.3961 1.9123C12.3961 2.18961 12.4005 2.46692 12.3961 2.73982C12.3961 2.81025 12.418 2.83226 12.4836 2.84986C13.9839 3.25482 15.2655 4.02512 16.3196 5.17396C17.3475 6.29199 18.0255 7.59929 18.3623 9.08266C18.5154 9.76052 18.581 10.4472 18.581 11.1427C18.581 12.6348 18.581 14.127 18.581 15.6192C18.581 15.6808 18.5985 15.7468 18.6248 15.7952C19.3815 17.2126 20.1382 18.6299 20.9037 20.0429C21.083 20.3774 20.9868 20.6723 20.8205 20.8264C20.7199 20.9188 20.6062 20.976 20.4706 20.9892C20.4094 20.9936 20.3525 20.998 20.2913 20.998C18.1305 20.998 15.9653 20.998 13.8045 20.998C13.6646 20.998 13.6689 20.998 13.6515 21.1389C13.5421 22.028 13.1528 22.7587 12.453 23.3177C11.8843 23.7711 11.2326 24 10.5109 24C8.92746 23.9956 7.76396 22.9084 7.44028 21.6231C7.40092 21.425 7.37467 21.2181 7.33093 21.0024Z" fill="#7B13FF" fill-opacity="0.9"/>
</svg>
