<svg width="22" height="22" viewBox="0 0 22 22" fill="none" xmlns="http://www.w3.org/2000/svg">
<g clip-path="url(#clip0)">
<path d="M19.5974 15.5036C18.2114 14.3321 17.4167 12.6197 17.4167 10.8057V8.25C17.4167 5.02425 15.0205 2.354 11.9167 1.90667V0.916667C11.9167 0.40975 11.506 0 11 0C10.494 0 10.0833 0.40975 10.0833 0.916667V1.90667C6.97859 2.354 4.58334 5.02425 4.58334 8.25V10.8057C4.58334 12.6197 3.78859 14.3321 2.39434 15.5109C2.03776 15.8162 1.83334 16.2598 1.83334 16.7292C1.83334 17.6137 2.55293 18.3333 3.43751 18.3333H18.5625C19.4471 18.3333 20.1667 17.6137 20.1667 16.7292C20.1667 16.2598 19.9623 15.8162 19.5974 15.5036Z" fill="#6E41E2"/>
<path d="M11 22C12.6601 22 14.0488 20.8166 14.3678 19.25H7.63217C7.95117 20.8166 9.33992 22 11 22Z" fill="#6E41E2"/>
</g>
<defs>
<clipPath id="clip0">
<rect width="22" height="22" fill="white"/>
</clipPath>
</defs>
</svg>
