<svg width="22" height="22" viewBox="0 0 22 22" fill="none" xmlns="http://www.w3.org/2000/svg">
<g clip-path="url(#clip0)">
<path d="M12.375 3.83167C12.122 3.83167 11.9167 3.62633 11.9167 3.37333V1.83333C11.9167 1.32825 11.5051 0.916667 11 0.916667C10.4949 0.916667 10.0833 1.32825 10.0833 1.83333V3.37333C10.0833 3.62633 9.87799 3.83167 9.62499 3.83167C9.37199 3.83167 9.16666 3.62725 9.16666 3.37333V1.83333C9.16666 0.82225 9.98891 0 11 0C12.0111 0 12.8333 0.82225 12.8333 1.83333V3.37333C12.8333 3.62725 12.628 3.83167 12.375 3.83167Z" fill="#808080"/>
<path d="M11 22C9.23082 22 7.79166 20.5608 7.79166 18.7917C7.79166 18.5387 7.99699 18.3333 8.24999 18.3333C8.50299 18.3333 8.70832 18.5387 8.70832 18.7917C8.70832 20.0548 9.73682 21.0833 11 21.0833C12.2631 21.0833 13.2916 20.0548 13.2916 18.7917C13.2916 18.5387 13.497 18.3333 13.75 18.3333C14.003 18.3333 14.2083 18.5387 14.2083 18.7917C14.2083 20.5608 12.7691 22 11 22Z" fill="#808080"/>
<path d="M18.7917 19.25H3.20834C2.45026 19.25 1.83334 18.6331 1.83334 17.875C1.83334 17.4726 2.00843 17.0922 2.31459 16.83C3.75926 15.609 4.58334 13.8325 4.58334 11.9515V9.16667C4.58334 5.62833 7.46168 2.75 11 2.75C14.5383 2.75 17.4167 5.62833 17.4167 9.16667V11.9515C17.4167 13.8334 18.2408 15.609 19.6781 16.8236C19.9916 17.0922 20.1667 17.4726 20.1667 17.875C20.1667 18.6331 19.5507 19.25 18.7917 19.25ZM11 3.66667C7.96676 3.66667 5.50001 6.13342 5.50001 9.16667V11.9515C5.50001 14.1038 4.55768 16.1343 2.91409 17.5239C2.80868 17.6138 2.75001 17.7412 2.75001 17.875C2.75001 18.128 2.95534 18.3333 3.20834 18.3333H18.7917C19.0447 18.3333 19.25 18.128 19.25 17.875C19.25 17.7412 19.1913 17.6138 19.0896 17.5267C17.4433 16.1343 16.5 14.1029 16.5 11.9515V9.16667C16.5 6.13342 14.0333 3.66667 11 3.66667Z" fill="#808080"/>
</g>
<defs>
<clipPath id="clip0">
<rect width="22" height="22" fill="white"/>
</clipPath>
</defs>
</svg>
