<svg width="21" height="24" viewBox="0 0 21 24" fill="none" xmlns="http://www.w3.org/2000/svg">
<path d="M7.33093 21.0024C7.30031 21.0024 7.26532 21.0024 7.22595 21.0024C5.03455 21.0024 2.84752 21.0024 0.65611 21.0024C0.406788 21.0024 0.205581 20.9144 0.0787332 20.6855C-0.0262444 20.4963 -0.0262444 20.2982 0.0787332 20.1045C0.354299 19.5895 0.634239 19.0701 0.909805 18.5551C1.25536 17.9125 1.60091 17.2654 1.94646 16.6228C2.09518 16.3499 2.24389 16.077 2.38386 15.7996C2.41448 15.7424 2.43198 15.6764 2.43198 15.6148C2.43635 14.0566 2.41886 12.494 2.43635 10.9358C2.46697 8.72612 3.21494 6.79378 4.70649 5.16075C5.75627 4.01191 7.04224 3.25042 8.53817 2.84986C8.60378 2.83226 8.61253 2.80585 8.61253 2.74863C8.61253 2.43611 8.60816 2.12359 8.61691 1.81107C8.63003 0.983547 9.27302 0.222054 10.0778 0.0459863C10.9964 -0.15209 11.8231 0.310088 12.1949 1.04077C12.3349 1.31367 12.3961 1.60419 12.3961 1.9123C12.3961 2.18961 12.4005 2.46692 12.3961 2.73982C12.3961 2.81025 12.418 2.83226 12.4836 2.84986C13.9839 3.25482 15.2655 4.02512 16.3196 5.17396C17.3475 6.29199 18.0255 7.59929 18.3623 9.08266C18.5154 9.76052 18.581 10.4472 18.581 11.1427C18.581 12.6348 18.581 14.127 18.581 15.6192C18.581 15.6808 18.5985 15.7468 18.6248 15.7952C19.3815 17.2126 20.1382 18.6299 20.9037 20.0429C21.083 20.3774 20.9868 20.6723 20.8205 20.8264C20.7199 20.9188 20.6062 20.976 20.4706 20.9892C20.4094 20.9936 20.3525 20.998 20.2913 20.998C18.1305 20.998 15.9653 20.998 13.8045 20.998C13.6646 20.998 13.6689 20.998 13.6515 21.1389C13.5421 22.028 13.1528 22.7587 12.453 23.3177C11.8843 23.7711 11.2326 24 10.5109 24C8.92746 23.9956 7.76396 22.9084 7.44028 21.6231C7.40092 21.425 7.37467 21.2181 7.33093 21.0024ZM19.399 19.7876C19.3902 19.7612 19.3815 19.7436 19.3727 19.7304C19.0709 19.1713 18.7647 18.6167 18.4717 18.0577C18.1524 17.4547 17.8418 16.8428 17.5269 16.2354C17.4263 16.0417 17.3782 15.8349 17.3825 15.6104C17.3913 14.1094 17.3869 12.604 17.3869 11.103C17.3869 10.6409 17.3475 10.1831 17.2688 9.72971C16.9582 7.98224 16.1447 6.52088 14.7931 5.37644C13.3015 4.11315 11.5694 3.60696 9.63169 3.84905C8.27573 4.02072 7.08598 4.58853 6.07995 5.50409C4.50966 6.93464 3.70046 8.73053 3.65234 10.8565C3.61735 12.5028 3.64359 14.1446 3.63922 15.7908C3.63922 15.8525 3.6261 15.9141 3.60423 15.9713C3.56049 16.0858 3.51237 16.2046 3.45114 16.3146C2.86064 17.4371 2.26576 18.5551 1.67089 19.6775C1.6534 19.7083 1.64465 19.7436 1.62715 19.7876C7.56276 19.7876 13.4765 19.7876 19.399 19.7876ZM8.55567 21.0024C8.63003 21.918 9.39549 22.8071 10.5196 22.8027C11.6875 22.7939 12.4048 21.8652 12.4661 21.0024C11.167 21.0024 9.86351 21.0024 8.55567 21.0024ZM11.1976 2.60337C11.1976 2.35247 11.2151 2.09277 11.1932 1.83748C11.167 1.46773 10.8521 1.19483 10.4978 1.20363C10.1303 1.21244 9.84602 1.49414 9.82852 1.87269C9.81977 2.08397 9.82415 2.29525 9.82415 2.50213C9.82415 2.53734 9.82415 2.57696 9.82415 2.60337C10.2878 2.60337 10.7383 2.60337 11.1976 2.60337Z" fill="black" fill-opacity="0.3"/>
</svg>
