<svg width="20" height="23" viewBox="0 0 20 23" fill="none" xmlns="http://www.w3.org/2000/svg">
<path d="M6.98184 20.1273C6.95268 20.1273 6.91935 20.1273 6.88186 20.1273C4.79481 20.1273 2.71192 20.1273 0.624866 20.1273C0.387417 20.1273 0.195791 20.043 0.074984 19.8236C-0.0249946 19.6422 -0.0249946 19.4524 0.074984 19.2668C0.337428 18.7733 0.604037 18.2755 0.866481 17.782C1.19558 17.1661 1.52467 16.546 1.85377 15.9301C1.99541 15.6686 2.13704 15.4071 2.27035 15.1413C2.29951 15.0865 2.31617 15.0232 2.31617 14.9642C2.32034 13.4709 2.30367 11.9734 2.32034 10.4801C2.3495 8.36254 3.06184 6.51071 4.48237 4.94572C5.48216 3.84475 6.7069 3.11498 8.13159 2.73112C8.19408 2.71425 8.20241 2.68894 8.20241 2.6341C8.20241 2.3346 8.19824 2.0351 8.20658 1.7356C8.21907 0.942566 8.83144 0.212802 9.59795 0.0440702C10.4728 -0.145753 11.2601 0.297168 11.6142 0.997404C11.7475 1.25894 11.8058 1.53734 11.8058 1.83262C11.8058 2.09838 11.81 2.36413 11.8058 2.62566C11.8058 2.69316 11.8266 2.71425 11.8891 2.73112C13.318 3.1192 14.5386 3.8574 15.5425 4.95838C16.5215 6.02982 17.1672 7.28265 17.4879 8.70422C17.6337 9.35383 17.6962 10.0119 17.6962 10.6784C17.6962 12.1084 17.6962 13.5384 17.6962 14.9684C17.6962 15.0274 17.7129 15.0907 17.7379 15.1371C18.4585 16.4954 19.1792 17.8537 19.9082 19.2078C20.079 19.5283 19.9874 19.811 19.8291 19.9586C19.7333 20.0472 19.625 20.102 19.4958 20.1147C19.4375 20.1189 19.3834 20.1231 19.325 20.1231C17.2671 20.1231 15.2051 20.1231 13.1472 20.1231C13.0139 20.1231 13.018 20.1231 13.0014 20.2581C12.8972 21.1102 12.5265 21.8104 11.86 22.3462C11.3184 22.7806 10.6977 23 10.0104 23C8.50235 22.9958 7.39425 21.9539 7.08598 20.7221C7.04849 20.5323 7.0235 20.334 6.98184 20.1273Z" fill="#7B13FF"/>
</svg>
