<svg width="24" height="23" viewBox="0 0 24 23" fill="none" xmlns="http://www.w3.org/2000/svg">
<path fill-rule="evenodd" clip-rule="evenodd" d="M18.6766 4.56742C18.4233 6.96994 16.9598 8.70969 15.3837 8.544C13.7795 8.37831 12.7381 6.39002 12.9914 3.9875C13.2447 1.58499 14.7082 -0.154767 16.2843 0.0109242C17.8885 0.176615 18.9299 2.19252 18.6766 4.56742ZM7.22176 0.0109537C8.82598 -0.154737 10.2613 1.61263 10.5146 3.98753C10.7961 6.39005 9.75475 8.37834 8.15052 8.54403C6.57444 8.70972 5.11094 6.96997 4.85764 4.56745C4.60434 2.19255 5.64568 0.176645 7.22176 0.0109537ZM11.1055 9.40049C11.4995 9.37288 11.8935 9.37288 12.2875 9.40049L12.4846 9.42811C13.5259 9.56618 14.5109 9.92518 15.2708 10.5051C16.0026 11.0574 16.481 11.8582 16.7062 12.8248C16.9314 13.7913 17.3817 14.5645 18.1134 15.1997C19.4081 16.3595 19.9146 18.0164 19.3799 19.4524C18.9577 20.5846 18.0853 21.4959 16.9032 22.0758C15.7493 22.6281 14.3702 22.6834 13.1882 22.2139C12.766 22.0482 12.2875 21.9378 11.8091 21.9378C11.3588 21.9654 10.8803 22.0482 10.4582 22.2139C9.92343 22.4072 9.3324 22.5177 8.76951 22.5177C8.0659 22.5177 7.33415 22.352 6.71498 22.0482C5.53292 21.4683 4.66045 20.5294 4.23828 19.4248C3.70354 17.9888 4.18199 16.3043 5.47663 15.1721C6.20838 14.5093 6.65869 13.7637 6.88384 12.7972C7.109 11.803 7.6156 11.0022 8.3192 10.4775C9.0791 9.89756 10.0641 9.53857 11.1055 9.40049ZM5.19552 10.1461C4.74521 8.04731 3.28171 6.63894 1.84635 6.91509C0.439137 7.21885 -0.320759 9.09668 0.12955 11.1954C0.579859 13.2942 2.07151 14.7302 3.47872 14.4264C4.91408 14.1503 5.64583 12.2724 5.19552 10.1461ZM20.0283 14.4542C21.4355 14.758 22.899 13.322 23.3774 11.2232C23.8559 9.12449 23.096 7.21905 21.6606 6.91529C20.2534 6.61152 18.7899 8.04751 18.3115 10.1463C17.833 12.245 18.6211 14.1504 20.0283 14.4542Z" fill="#882BFF"/>
</svg>
