<svg width="25" height="24" viewBox="0 0 25 24" fill="none" xmlns="http://www.w3.org/2000/svg">
<path fill-rule="evenodd" clip-rule="evenodd" d="M19.4544 4.75768C19.1905 7.26028 17.666 9.07251 16.0243 8.89991C14.3533 8.72732 13.2685 6.6562 13.5324 4.1536C13.7962 1.651 15.3207 -0.161228 16.9624 0.0113648C18.6335 0.183958 19.7182 2.28384 19.4544 4.75768ZM7.52258 0.011454C9.19363 -0.161139 10.6888 1.67985 10.9526 4.15369C11.2458 6.65629 10.1611 8.72741 8.49003 8.9C6.8483 9.0726 5.32383 7.26037 5.05998 4.75777C4.79612 2.28393 5.88084 0.184047 7.52258 0.011454ZM11.5681 9.79217C11.9785 9.76341 12.3889 9.76341 12.7994 9.79217L13.0046 9.82094C14.0893 9.96476 15.1154 10.3387 15.9069 10.9428C16.6692 11.5181 17.1676 12.3523 17.4021 13.3591C17.6366 14.3659 18.1057 15.1713 18.8679 15.8329C20.2165 17.0411 20.7442 18.767 20.1872 20.2628C19.7474 21.4422 18.8386 22.3915 17.6073 22.9956C16.4053 23.5709 14.9688 23.6284 13.7375 23.1394C13.2978 22.9668 12.7994 22.8517 12.301 22.8517C11.8319 22.8805 11.3335 22.9668 10.8938 23.1394C10.3368 23.3407 9.72112 23.4558 9.13478 23.4558C8.40186 23.4558 7.63963 23.2832 6.99466 22.9668C5.76336 22.3627 4.85454 21.3847 4.41479 20.2341C3.85777 18.7383 4.35616 16.9836 5.70473 15.8042C6.46696 15.1138 6.93603 14.3371 7.17056 13.3303C7.40509 12.2948 7.9328 11.4606 8.66571 10.914C9.45726 10.31 10.4833 9.936 11.5681 9.79217ZM5.41196 10.5687C4.94289 8.38252 3.41842 6.91548 1.92327 7.20314C0.457431 7.51956 -0.334121 9.47561 0.134947 11.6618C0.604015 13.848 2.1578 15.3438 3.62364 15.0274C5.11879 14.7397 5.88102 12.7836 5.41196 10.5687ZM20.8622 15.0562C22.328 15.3726 23.8525 13.8768 24.3508 11.6906C24.8492 9.50441 24.0577 7.51959 22.5625 7.20317C21.0967 6.88675 19.5722 8.38255 19.0738 10.5687C18.5755 12.7549 19.3963 14.7397 20.8622 15.0562Z" fill="#7B13FF" fill-opacity="0.9"/>
</svg>
