<svg width="22" height="22" viewBox="0 0 22 22" fill="none" xmlns="http://www.w3.org/2000/svg">
<path fill-rule="evenodd" clip-rule="evenodd" d="M10.9615 10.0833C8.14459 10.0833 4.74741 15.2763 4.03791 18.073C3.49066 20.2281 4.74741 22 6.61466 22C8.04741 22 9.79734 20.6809 11.0036 20.6589H11.0211C12.0514 20.6589 14.2441 21.9414 15.5348 21.9414C17.3589 21.9414 18.4259 20.1704 17.9594 18.073C17.4323 15.6961 14.0149 10.0833 10.9615 10.0833ZM1.60325 6.46066C1.25675 6.46066 0.952416 6.5395 0.714084 6.70541C0.242916 7.03541 0 7.70641 0 8.54516C0 9.4105 0.257584 10.4537 0.78925 11.4859C1.48775 12.8416 2.51166 13.75 3.67584 13.75C4.18 13.75 4.71166 13.5786 5.25341 13.2C6.809 12.1146 6.633 10.054 5.17825 8.4205C4.07825 7.18484 2.651 6.46066 1.60325 6.46066ZM20.2821 5.94184C19.1776 5.94184 17.6632 6.99691 16.6806 8.62125C15.521 10.5389 15.73 12.6491 17.5001 13.453C17.9484 13.6556 18.3709 13.75 18.7633 13.75C20.1556 13.75 21.175 12.5639 21.6774 10.89C22.3566 8.63225 21.9981 5.94184 20.2821 5.94184ZM14.8197 0C13.6391 0 12.1523 1.53175 11.4996 3.608C10.8057 5.81259 11.5289 7.87509 13.4998 8.24816C16.9373 8.89716 17.0527 4.774 17.0583 4.66125C17.2334 1.37225 15.7484 0 14.8197 0ZM6.0775 0C4.47425 0 3.84816 2.55659 4.35509 4.9665C4.74559 6.82 5.76584 8.16934 7.3205 8.16934C7.66334 8.16934 8.03091 8.10334 8.42416 7.964C10.3134 7.293 10.7113 5.14341 9.68641 3.07175C8.78259 1.243 7.22975 0 6.0775 0ZM10.9615 11C13.3274 11 16.5468 15.939 17.0646 18.2719C17.3663 19.6369 16.8328 21.4106 14.9856 20.9523C14.0415 20.7204 12.0505 19.7423 10.9881 19.7423H10.9872C9.90091 19.7624 8.536 20.5554 7.41491 20.9404C5.64391 21.5509 4.46691 20.1135 4.92709 18.2985C5.60634 15.6173 8.84491 11 10.9615 11ZM4.4935 9.03009C5.15441 9.77259 5.5 10.6343 5.4175 11.3346C5.30291 12.3063 4.29 12.8334 3.67584 12.8334C2.93791 12.8334 2.1835 12.1899 1.60416 11.066C0.644416 9.20059 0.856166 7.72475 1.23934 7.45709C1.38509 7.35534 2.79216 7.12066 4.4935 9.03009ZM20.2821 6.8585L20.4792 6.89334C20.922 7.09409 21.4216 8.55341 20.7983 10.626C20.6003 11.2896 20.0016 12.8334 18.7633 12.8334C18.1244 12.8334 17.226 12.4566 16.9639 11.6096C16.7447 10.9019 16.9271 9.98525 17.4653 9.09609C18.3131 7.69541 19.5626 6.8585 20.2821 6.8585ZM14.8197 0.916666C15.0461 0.916666 16.2956 1.73434 16.1434 4.61266C16.0526 6.31216 15.367 7.66975 13.6702 7.348C11.9001 7.01159 12.0423 4.93809 12.375 3.883C12.9516 2.04509 14.1881 0.916666 14.8197 0.916666ZM6.0775 0.916666C6.80809 0.916666 8.08225 1.89566 8.86416 3.47784C9.34359 4.44675 9.45175 5.41291 9.16209 6.12884C8.80366 7.01066 7.85766 7.25266 7.3205 7.25266C5.9235 7.25266 5.40925 5.522 5.2525 4.77766C4.81525 2.7005 5.38084 0.916666 6.0775 0.916666Z" fill="#808080"/>
</svg>
