<svg width="22" height="22" viewBox="0 0 22 22" fill="none" xmlns="http://www.w3.org/2000/svg">
<path fill-rule="evenodd" clip-rule="evenodd" d="M10.9579 10.0836C14.0104 10.0836 17.4269 15.6962 17.9539 18.0731C18.481 20.451 17.0409 22.408 14.7603 21.8425C13.7593 21.5941 11.7793 20.6444 11 20.6591C10.1521 20.6737 8.81926 21.4254 7.71192 21.8067C5.27632 22.6464 3.38797 20.6306 4.03606 18.0731C4.74557 15.2765 8.14276 10.0836 10.9579 10.0836ZM20.8515 6.05944C21.9405 6.55351 22.3448 8.6444 21.671 10.8902C21.0258 13.0361 19.5351 14.379 17.4946 13.4532C15.7245 12.6493 15.5165 10.5401 16.6751 8.62241C17.843 6.69101 19.7616 5.56444 20.8515 6.05944ZM0.714032 6.70659C-0.242977 7.37484 -0.257643 9.4529 0.789199 11.487C1.79021 13.4303 3.45947 14.4532 5.25157 13.2011C6.80625 12.1148 6.63025 10.0542 5.1764 8.42074C3.71338 6.77718 1.67103 6.03835 0.714032 6.70659ZM15.0535 0.0223182C16.2664 0.252399 17.1811 2.24796 17.0538 4.66245C16.9309 6.96968 15.7659 8.67924 13.4953 8.24841C11.5253 7.87533 10.802 5.81285 11.496 3.6092C12.1935 1.38997 13.8418 -0.207764 15.0535 0.0223182ZM5.61641 0.0754844C4.45406 0.488897 3.8564 2.6018 4.35415 4.96769C4.8299 7.22909 6.24432 8.73883 8.42143 7.96425C10.3098 7.29325 10.7076 5.14369 9.68369 3.07296C8.65243 0.986643 6.77875 -0.337929 5.61641 0.0754844Z" fill="#6E41E2"/>
</svg>
