<svg width="25" height="24" viewBox="0 0 25 24" fill="none" xmlns="http://www.w3.org/2000/svg">
<path d="M12.7998 9.79257C12.3894 9.7638 11.9789 9.7638 11.5685 9.79257C10.4837 9.93641 9.45756 10.3104 8.66597 10.9145C7.93302 11.461 7.40529 12.2953 7.17075 13.3309C6.9362 14.3377 6.46711 15.1144 5.70485 15.8048C4.35621 16.9843 3.85781 18.7391 4.41485 20.2349C4.85462 21.3856 5.76348 22.3637 6.99484 22.9678C7.63984 23.2842 8.40211 23.4568 9.13506 23.4568C9.72142 23.4568 10.3371 23.3418 10.8941 23.1404C11.3339 22.9678 11.8323 22.8815 12.3014 22.8527C12.7998 22.8527 13.2982 22.9678 13.738 23.1404C14.9694 23.6294 16.4059 23.5719 17.608 22.9966C18.8393 22.3925 19.7482 21.4431 20.188 20.2637C20.745 18.7678 20.2173 17.0418 18.8687 15.8336C18.1064 15.172 17.6373 14.3665 17.4028 13.3597C17.1682 12.3528 16.6698 11.5186 15.9075 10.9432C15.1159 10.3391 14.0898 9.96517 13.005 9.82134L12.7998 9.79257ZM9.39892 11.835C10.1319 11.2884 11.1287 10.9432 12.1841 10.9145H12.2428H12.36C13.4155 10.9432 14.4123 11.2884 15.1453 11.835C15.7903 12.3241 16.0834 13.0432 16.2007 13.561C16.4939 14.798 17.0803 15.8048 18.0184 16.6391C19.0152 17.5021 19.3964 18.7391 19.0152 19.8034C18.6927 20.6952 17.9891 21.4144 17.0216 21.8746C16.1421 22.3062 15.028 22.3637 14.1191 21.9897C13.5328 21.7596 12.9171 21.6445 12.2428 21.6445C11.5978 21.6445 10.9821 21.7883 10.3957 21.9897C9.48688 22.3349 8.37279 22.3062 7.49325 21.8746C6.52575 21.4144 5.82212 20.6664 5.49962 19.8034C5.11848 18.7678 5.49962 17.5309 6.49643 16.6391C7.43461 15.8048 8.05029 14.798 8.31415 13.561C8.46074 13.072 8.75392 12.3241 9.39892 11.835Z" fill="black" fill-opacity="0.3"/>
<path d="M5.41221 10.5691C4.94312 8.38282 3.41858 6.91571 1.92336 7.20338C0.457452 7.51982 -0.334136 9.47596 0.134953 11.6622C0.604042 13.8485 2.1579 15.3444 3.6238 15.028C5.11902 14.7403 5.88129 12.7841 5.41221 10.5691ZM4.2688 10.828C4.62062 12.4677 4.09289 13.7622 3.38926 13.9061C2.68563 14.0499 1.65949 13.0718 1.30768 11.4321C0.955859 9.7924 1.48358 8.49789 2.18722 8.35405C2.89085 8.21022 3.88767 9.18829 4.2688 10.828Z" fill="black" fill-opacity="0.3"/>
<path d="M10.9529 4.15388C10.6891 1.67993 9.19385 -0.16115 7.52272 0.0114511C5.88091 0.184052 4.79614 2.28403 5.06 4.75798C5.32386 7.2607 6.8484 9.07301 8.49022 8.90041C10.1613 8.7278 11.2461 6.65659 10.9529 4.15388ZM9.78021 4.26894C9.98544 6.19632 9.19385 7.66343 8.34363 7.74973C7.4934 7.83603 6.40863 6.59906 6.20341 4.64291C5.99818 2.71553 6.78977 1.24843 7.63999 1.16212C8.49022 1.07582 9.57498 2.34157 9.78021 4.26894Z" fill="black" fill-opacity="0.3"/>
<path d="M20.8623 15.0568C22.3282 15.3733 23.8527 13.8774 24.3511 11.6911C24.8495 9.50482 24.0579 7.51991 22.5627 7.20347C21.0968 6.88704 19.5723 8.38291 19.0739 10.5692C18.5755 12.7555 19.3964 14.7404 20.8623 15.0568ZM22.3282 8.35414C23.0318 8.49798 23.5595 9.79249 23.2077 11.4322C22.8559 13.0719 21.8298 14.05 21.1261 13.9061C20.4225 13.7623 19.8948 12.4678 20.2466 10.8281C20.5984 9.18838 21.6245 8.21031 22.3282 8.35414Z" fill="black" fill-opacity="0.3"/>
<path d="M16.0256 8.90032C17.6675 9.07292 19.192 7.26061 19.4559 4.7579C19.7197 2.28395 18.635 0.183966 16.9638 0.0113653C15.322 -0.161236 13.7975 1.65108 13.5336 4.15379C13.2697 6.65651 14.3545 8.72772 16.0256 8.90032ZM16.8465 1.16204C17.6968 1.24834 18.4884 2.68668 18.2831 4.64283C18.0779 6.57021 16.9931 7.83595 16.1429 7.74965C15.2927 7.66335 14.5011 6.22501 14.7063 4.26886C14.9409 2.34148 16.0256 1.07574 16.8465 1.16204Z" fill="black" fill-opacity="0.3"/>
</svg>
