<svg width="25" height="24" viewBox="0 0 25 24" fill="none" xmlns="http://www.w3.org/2000/svg">
<mask id="path-1-outside-1_297_1243" maskUnits="userSpaceOnUse" x="-0.000976562" y="0" width="25" height="24" fill="black">
<rect fill="white" x="-0.000976562" width="25" height="24"/>
<path fill-rule="evenodd" clip-rule="evenodd" d="M8.21945 1.01076C9.82348 0.845086 11.2587 2.61225 11.5119 4.98687C11.7934 7.3891 10.7521 9.37716 9.1481 9.54283C7.5722 9.7085 6.10887 7.96895 5.85561 5.56672C5.60234 3.1921 6.64355 1.17643 8.21945 1.01076ZM9.00739 8.43835C9.82348 8.35552 10.5833 6.94731 10.3863 5.09732C10.1893 3.24732 9.1481 2.0324 8.33201 2.11523C7.51592 2.19807 6.75612 3.60627 6.9531 5.45627C7.15009 7.33388 8.19131 8.52119 9.00739 8.43835ZM6.19394 11.1445C5.74368 9.04604 4.28035 7.63784 2.84516 7.91396C1.43811 8.21769 0.678306 10.0953 1.12856 12.1938C1.57882 14.2923 3.07029 15.7281 4.47734 15.4244C5.91253 15.1483 6.64419 13.2707 6.19394 11.1445ZM5.09644 11.3931C5.43413 12.9669 4.92759 14.2095 4.25221 14.3475C3.57683 14.4856 2.59189 13.5468 2.2542 11.9729C1.91651 10.399 2.42305 9.15649 3.09843 9.01843C3.77381 8.88037 4.73061 9.81918 5.09644 11.3931ZM13.2852 10.3996C12.8912 10.372 12.4973 10.372 12.1033 10.3996C11.0621 10.5377 10.0771 10.8966 9.31734 11.4765C8.61381 12.0011 8.10728 12.8018 7.88215 13.7959C7.65702 14.7623 7.20677 15.5078 6.4751 16.1705C5.18062 17.3026 4.70222 18.9869 5.2369 20.4227C5.65901 21.5272 6.53138 22.466 7.7133 23.0459C8.3324 23.3496 9.06407 23.5153 9.76759 23.5153C10.3304 23.5153 10.9214 23.4048 11.4561 23.2115C11.8782 23.0459 12.3566 22.963 12.8068 22.9354C13.2852 22.9354 13.7636 23.0459 14.1857 23.2115C15.3676 23.6809 16.7466 23.6257 17.9003 23.0735C19.0823 22.4936 19.9546 21.5824 20.3767 20.4503C20.9114 19.0145 20.4049 17.3578 19.1104 16.1981C18.3787 15.563 17.9285 14.7899 17.7033 13.8235C17.4782 12.8571 16.9998 12.0563 16.2682 11.5041C15.5084 10.9242 14.5234 10.5653 13.4822 10.4272L13.2852 10.3996ZM10.0209 12.3601C10.7244 11.8354 11.6812 11.5041 12.6943 11.4765H12.7505H12.8631C13.8762 11.5041 14.833 11.8354 15.5365 12.3601C16.1556 12.8295 16.437 13.5198 16.5496 14.0168C16.831 15.2041 17.3938 16.1705 18.2943 16.9712C19.2511 17.7996 19.6169 18.9869 19.2511 20.0086C18.9416 20.8645 18.2662 21.5548 17.3375 21.9966C16.4933 22.4108 15.4239 22.466 14.5516 22.1071C13.9887 21.8862 13.3978 21.7757 12.7505 21.7757C12.1314 21.7757 11.5405 21.9138 10.9777 22.1071C10.1053 22.4384 9.03593 22.4108 8.1917 21.9966C7.26305 21.5548 6.58766 20.8369 6.27811 20.0086C5.91228 19.0145 6.27811 17.8272 7.23491 16.9712C8.13542 16.1705 8.72638 15.2041 8.97965 14.0168C9.12035 13.5474 9.40176 12.8295 10.0209 12.3601ZM21.0235 15.4525C22.4305 15.7562 23.8939 14.3204 24.3723 12.2219C24.8507 10.1234 24.0909 8.21819 22.6557 7.91446C21.2486 7.61073 19.7853 9.04654 19.3069 11.145C18.8285 13.2435 19.6164 15.1488 21.0235 15.4525ZM22.4305 9.01893C23.1059 9.15699 23.6125 10.3995 23.2748 11.9734C22.9371 13.5473 21.9522 14.4861 21.2768 14.348C20.6014 14.21 20.0948 12.9674 20.4325 11.3936C20.7702 9.81968 21.7552 8.88087 22.4305 9.01893ZM19.6735 5.56687C19.4203 7.96911 17.9569 9.70866 16.381 9.54298C14.777 9.37731 13.7358 7.38926 13.9891 4.98702C14.2423 2.58479 15.7057 0.845238 17.2816 1.01091C18.8856 1.17658 19.9268 3.19225 19.6735 5.56687ZM18.5479 5.45642C18.7449 3.57882 17.9851 2.19822 17.169 2.11538C16.381 2.03255 15.3398 3.24747 15.1147 5.09747C14.9177 6.97508 15.6775 8.35567 16.4936 8.43851C17.3097 8.52134 18.3509 7.30642 18.5479 5.45642Z"/>
</mask>
<path fill-rule="evenodd" clip-rule="evenodd" d="M8.21945 1.01076C9.82348 0.845086 11.2587 2.61225 11.5119 4.98687C11.7934 7.3891 10.7521 9.37716 9.1481 9.54283C7.5722 9.7085 6.10887 7.96895 5.85561 5.56672C5.60234 3.1921 6.64355 1.17643 8.21945 1.01076ZM9.00739 8.43835C9.82348 8.35552 10.5833 6.94731 10.3863 5.09732C10.1893 3.24732 9.1481 2.0324 8.33201 2.11523C7.51592 2.19807 6.75612 3.60627 6.9531 5.45627C7.15009 7.33388 8.19131 8.52119 9.00739 8.43835ZM6.19394 11.1445C5.74368 9.04604 4.28035 7.63784 2.84516 7.91396C1.43811 8.21769 0.678306 10.0953 1.12856 12.1938C1.57882 14.2923 3.07029 15.7281 4.47734 15.4244C5.91253 15.1483 6.64419 13.2707 6.19394 11.1445ZM5.09644 11.3931C5.43413 12.9669 4.92759 14.2095 4.25221 14.3475C3.57683 14.4856 2.59189 13.5468 2.2542 11.9729C1.91651 10.399 2.42305 9.15649 3.09843 9.01843C3.77381 8.88037 4.73061 9.81918 5.09644 11.3931ZM13.2852 10.3996C12.8912 10.372 12.4973 10.372 12.1033 10.3996C11.0621 10.5377 10.0771 10.8966 9.31734 11.4765C8.61381 12.0011 8.10728 12.8018 7.88215 13.7959C7.65702 14.7623 7.20677 15.5078 6.4751 16.1705C5.18062 17.3026 4.70222 18.9869 5.2369 20.4227C5.65901 21.5272 6.53138 22.466 7.7133 23.0459C8.3324 23.3496 9.06407 23.5153 9.76759 23.5153C10.3304 23.5153 10.9214 23.4048 11.4561 23.2115C11.8782 23.0459 12.3566 22.963 12.8068 22.9354C13.2852 22.9354 13.7636 23.0459 14.1857 23.2115C15.3676 23.6809 16.7466 23.6257 17.9003 23.0735C19.0823 22.4936 19.9546 21.5824 20.3767 20.4503C20.9114 19.0145 20.4049 17.3578 19.1104 16.1981C18.3787 15.563 17.9285 14.7899 17.7033 13.8235C17.4782 12.8571 16.9998 12.0563 16.2682 11.5041C15.5084 10.9242 14.5234 10.5653 13.4822 10.4272L13.2852 10.3996ZM10.0209 12.3601C10.7244 11.8354 11.6812 11.5041 12.6943 11.4765H12.7505H12.8631C13.8762 11.5041 14.833 11.8354 15.5365 12.3601C16.1556 12.8295 16.437 13.5198 16.5496 14.0168C16.831 15.2041 17.3938 16.1705 18.2943 16.9712C19.2511 17.7996 19.6169 18.9869 19.2511 20.0086C18.9416 20.8645 18.2662 21.5548 17.3375 21.9966C16.4933 22.4108 15.4239 22.466 14.5516 22.1071C13.9887 21.8862 13.3978 21.7757 12.7505 21.7757C12.1314 21.7757 11.5405 21.9138 10.9777 22.1071C10.1053 22.4384 9.03593 22.4108 8.1917 21.9966C7.26305 21.5548 6.58766 20.8369 6.27811 20.0086C5.91228 19.0145 6.27811 17.8272 7.23491 16.9712C8.13542 16.1705 8.72638 15.2041 8.97965 14.0168C9.12035 13.5474 9.40176 12.8295 10.0209 12.3601ZM21.0235 15.4525C22.4305 15.7562 23.8939 14.3204 24.3723 12.2219C24.8507 10.1234 24.0909 8.21819 22.6557 7.91446C21.2486 7.61073 19.7853 9.04654 19.3069 11.145C18.8285 13.2435 19.6164 15.1488 21.0235 15.4525ZM22.4305 9.01893C23.1059 9.15699 23.6125 10.3995 23.2748 11.9734C22.9371 13.5473 21.9522 14.4861 21.2768 14.348C20.6014 14.21 20.0948 12.9674 20.4325 11.3936C20.7702 9.81968 21.7552 8.88087 22.4305 9.01893ZM19.6735 5.56687C19.4203 7.96911 17.9569 9.70866 16.381 9.54298C14.777 9.37731 13.7358 7.38926 13.9891 4.98702C14.2423 2.58479 15.7057 0.845238 17.2816 1.01091C18.8856 1.17658 19.9268 3.19225 19.6735 5.56687ZM18.5479 5.45642C18.7449 3.57882 17.9851 2.19822 17.169 2.11538C16.381 2.03255 15.3398 3.24747 15.1147 5.09747C14.9177 6.97508 15.6775 8.35567 16.4936 8.43851C17.3097 8.52134 18.3509 7.30642 18.5479 5.45642Z" fill="black" fill-opacity="0.3"/>
<path d="M11.5119 4.98687L11.4722 4.99111L11.4722 4.99152L11.5119 4.98687ZM8.21945 1.01076L8.21534 0.970969L8.21527 0.970976L8.21945 1.01076ZM9.1481 9.54283L9.14399 9.50304L9.14392 9.50305L9.1481 9.54283ZM5.85561 5.56672L5.89538 5.56252L5.89538 5.56248L5.85561 5.56672ZM10.3863 5.09732L10.4261 5.09308L10.4261 5.09308L10.3863 5.09732ZM8.33201 2.11523L8.32797 2.07544L8.32797 2.07544L8.33201 2.11523ZM6.9531 5.45627L6.99288 5.4521L6.99288 5.45203L6.9531 5.45627ZM2.84516 7.91396L2.8376 7.87467L2.83672 7.87486L2.84516 7.91396ZM6.19394 11.1445L6.23307 11.1363L6.23305 11.1362L6.19394 11.1445ZM1.12856 12.1938L1.08945 12.2022L1.08945 12.2022L1.12856 12.1938ZM4.47734 15.4244L4.46978 15.3851L4.4689 15.3853L4.47734 15.4244ZM5.09644 11.3931L5.13556 11.3847L5.1354 11.384L5.09644 11.3931ZM2.2542 11.9729L2.21509 11.9813L2.21509 11.9813L2.2542 11.9729ZM3.09843 9.01843L3.10644 9.05762L3.10644 9.05762L3.09843 9.01843ZM12.1033 10.3996L12.1005 10.3596L12.098 10.36L12.1033 10.3996ZM13.2852 10.3996L13.2908 10.3599L13.288 10.3597L13.2852 10.3996ZM9.31734 11.4765L9.34125 11.5085L9.34161 11.5083L9.31734 11.4765ZM7.88215 13.7959L7.92111 13.805L7.92116 13.8047L7.88215 13.7959ZM6.4751 16.1705L6.50144 16.2006L6.50195 16.2001L6.4751 16.1705ZM5.2369 20.4227L5.19941 20.4367L5.19953 20.437L5.2369 20.4227ZM7.7133 23.0459L7.73092 23.01L7.73092 23.01L7.7133 23.0459ZM11.4561 23.2115L11.4697 23.2492L11.4707 23.2488L11.4561 23.2115ZM12.8068 22.9354V22.8953L12.8044 22.8955L12.8068 22.9354ZM14.1857 23.2115L14.2005 23.1744L14.2003 23.1743L14.1857 23.2115ZM17.9003 23.0735L17.9176 23.1096L17.918 23.1094L17.9003 23.0735ZM20.3767 20.4503L20.4142 20.4643L20.4142 20.4643L20.3767 20.4503ZM19.1104 16.1981L19.1371 16.1683L19.1366 16.1679L19.1104 16.1981ZM17.7033 13.8235L17.6644 13.8326L17.6644 13.8326L17.7033 13.8235ZM16.2682 11.5041L16.2439 11.5359L16.2441 11.536L16.2682 11.5041ZM13.4822 10.4272L13.4766 10.4668L13.4769 10.4669L13.4822 10.4272ZM12.6943 11.4765V11.4365L12.6932 11.4365L12.6943 11.4765ZM10.0209 12.3601L9.99695 12.328L9.9967 12.3282L10.0209 12.3601ZM12.8631 11.4765L12.8642 11.4365H12.8631V11.4765ZM15.5365 12.3601L15.5607 12.3282L15.5604 12.328L15.5365 12.3601ZM16.5496 14.0168L16.5106 14.0256L16.5106 14.026L16.5496 14.0168ZM18.2943 16.9712L18.2677 17.0011L18.2681 17.0015L18.2943 16.9712ZM19.2511 20.0086L19.2887 20.0222L19.2888 20.022L19.2511 20.0086ZM17.3375 21.9966L17.3203 21.9605L17.3199 21.9607L17.3375 21.9966ZM14.5516 22.1071L14.5668 22.0701L14.5662 22.0698L14.5516 22.1071ZM10.9777 22.1071L10.9647 22.0692L10.9635 22.0697L10.9777 22.1071ZM8.1917 21.9966L8.20932 21.9607L8.20888 21.9605L8.1917 21.9966ZM6.27811 20.0086L6.24057 20.0224L6.24064 20.0226L6.27811 20.0086ZM7.23491 16.9712L7.20833 16.9414L7.20824 16.9414L7.23491 16.9712ZM8.97965 14.0168L8.94121 14.0053L8.94053 14.0084L8.97965 14.0168ZM22.6557 7.91446L22.6472 7.95356L22.6474 7.95359L22.6557 7.91446ZM19.3069 11.145L19.2679 11.1362L19.2679 11.1362L19.3069 11.145ZM23.2748 11.9734L23.2357 11.965L23.2357 11.965L23.2748 11.9734ZM21.2768 14.348L21.2848 14.3088L21.2848 14.3088L21.2768 14.348ZM16.381 9.54298L16.3852 9.5032L16.3851 9.5032L16.381 9.54298ZM19.6735 5.56687L19.6338 5.56263L19.6338 5.56268L19.6735 5.56687ZM13.9891 4.98702L14.0288 4.99122L14.0288 4.99122L13.9891 4.98702ZM17.2816 1.01091L17.2774 1.05069L17.2774 1.0507L17.2816 1.01091ZM17.169 2.11538L17.1648 2.15517L17.1649 2.15518L17.169 2.11538ZM18.5479 5.45642L18.5877 5.46066L18.5877 5.4606L18.5479 5.45642ZM15.1147 5.09747L15.075 5.09264L15.0749 5.0933L15.1147 5.09747ZM16.4936 8.43851L16.4896 8.4783L16.4896 8.4783L16.4936 8.43851ZM11.5517 4.98263C11.4244 3.78887 10.9998 2.74569 10.4031 2.02078C9.80643 1.29592 9.03454 0.886358 8.21534 0.970969L8.22356 1.05055C9.00839 0.969485 9.75611 1.36067 10.3413 2.07162C10.9266 2.78254 11.3462 3.81024 11.4722 4.99111L11.5517 4.98263ZM9.15221 9.58262C9.97116 9.49803 10.6426 8.9484 11.0725 8.12202C11.5025 7.29572 11.6931 6.18984 11.5517 4.98221L11.4722 4.99152C11.6122 6.18613 11.4229 7.27539 11.0016 8.0851C10.5803 8.89473 9.92908 9.42195 9.14399 9.50304L9.15221 9.58262ZM5.81583 5.57091C5.94315 6.77861 6.37482 7.82186 6.97512 8.54332C7.57532 9.26465 8.34719 9.66725 9.15228 9.58261L9.14392 9.50305C8.37311 9.58408 7.62537 9.19974 7.03662 8.49215C6.44796 7.7847 6.02132 6.75706 5.89538 5.56252L5.81583 5.57091ZM8.21527 0.970976C7.40998 1.05563 6.7458 1.61262 6.31607 2.44198C5.88628 3.27147 5.6885 4.37714 5.81583 5.57096L5.89538 5.56248C5.76944 4.38167 5.96564 3.2922 6.38711 2.47878C6.80864 1.66523 7.45302 1.13155 8.22363 1.05054L8.21527 0.970976ZM10.3465 5.10155C10.4444 6.02042 10.3043 6.82771 10.0403 7.4141C9.7751 8.00296 9.39006 8.35931 9.00336 8.39856L9.01143 8.47815C9.44082 8.43456 9.84373 8.04539 10.1132 7.44694C10.3838 6.84601 10.5252 6.02421 10.4261 5.09308L10.3465 5.10155ZM8.33605 2.15503C8.72303 2.11575 9.17533 2.38484 9.55913 2.9052C9.94134 3.42342 10.2487 4.1827 10.3465 5.10155L10.4261 5.09308C10.3269 4.16193 10.0152 3.38875 9.62351 2.85772C9.23343 2.32884 8.75708 2.03188 8.32797 2.07544L8.33605 2.15503ZM6.99288 5.45203C6.89504 4.53316 7.03506 3.72587 7.29913 3.13949C7.56431 2.55063 7.94935 2.19428 8.33605 2.15503L8.32797 2.07544C7.89859 2.11902 7.49568 2.50819 7.22618 3.10664C6.95557 3.70757 6.81418 4.52938 6.91333 5.46051L6.99288 5.45203ZM9.00336 8.39856C8.61605 8.43787 8.16376 8.17525 7.7802 7.65863C7.39811 7.14398 7.09074 6.3848 6.99288 5.4521L6.91332 5.46044C7.01246 6.40535 7.32419 7.17862 7.71597 7.70632C8.10629 8.23206 8.58265 8.52167 9.01143 8.47815L9.00336 8.39856ZM2.85272 7.95324C3.55417 7.81828 4.26622 8.09407 4.86114 8.66757C5.45606 9.24106 5.9311 10.1102 6.15483 11.1529L6.23305 11.1362C6.00652 10.0804 5.52477 9.19617 4.91666 8.60997C4.30856 8.02377 3.57134 7.73351 2.8376 7.87468L2.85272 7.95324ZM1.16767 12.1854C0.94394 11.1427 1.02136 10.1569 1.32748 9.39576C1.63362 8.63458 2.16662 8.10135 2.8536 7.95306L2.83672 7.87486C2.11665 8.03029 1.56623 8.58774 1.25326 9.36591C0.940278 10.1441 0.862927 11.1464 1.08945 12.2022L1.16767 12.1854ZM4.4689 15.3853C3.78225 15.5335 3.07058 15.2583 2.47191 14.6811C1.8734 14.1041 1.39138 13.228 1.16767 12.1854L1.08945 12.2022C1.316 13.2581 1.80484 14.1491 2.41639 14.7387C3.02778 15.3282 3.76537 15.619 4.48578 15.4635L4.4689 15.3853ZM6.15481 11.1528C6.37863 12.2097 6.3081 13.2024 6.00551 13.9634C5.70299 14.7243 5.17036 15.2503 4.46978 15.3851L4.4849 15.4637C5.21951 15.3223 5.7703 14.7715 6.07985 13.993C6.38933 13.2146 6.4595 12.2055 6.23307 11.1363L6.15481 11.1528ZM4.26022 14.3867C4.61917 14.3133 4.92183 13.9507 5.09231 13.421C5.26361 12.8887 5.30564 12.1774 5.13555 11.3847L5.05733 11.4014C5.22493 12.1826 5.18254 12.8795 5.01615 13.3965C4.84894 13.916 4.56063 14.2437 4.2442 14.3083L4.26022 14.3867ZM2.21509 11.9813C2.3852 12.7741 2.71869 13.4089 3.09684 13.829C3.47313 14.2469 3.9016 14.46 4.26022 14.3867L4.2442 14.3083C3.92744 14.3731 3.52574 14.1858 3.1563 13.7754C2.78872 13.3671 2.46089 12.7456 2.29331 11.9645L2.21509 11.9813ZM3.09042 8.97924C2.73147 9.05262 2.42881 9.41529 2.25834 9.94498C2.08703 10.4772 2.045 11.1886 2.21509 11.9813L2.29331 11.9645C2.12571 11.1834 2.1681 10.4865 2.33449 9.96949C2.50171 9.44993 2.79001 9.12231 3.10644 9.05762L3.09042 8.97924ZM5.1354 11.384C4.95122 10.5916 4.61787 9.9571 4.24337 9.53714C3.87068 9.11922 3.44922 8.9059 3.09042 8.97924L3.10644 9.05762C3.42303 8.99291 3.81765 9.17995 4.18366 9.59039C4.54786 9.99879 4.87583 10.6206 5.05748 11.4021L5.1354 11.384ZM12.1061 10.4395C12.4982 10.412 12.8903 10.412 13.2824 10.4395L13.288 10.3597C12.8922 10.332 12.4963 10.332 12.1005 10.3597L12.1061 10.4395ZM9.34161 11.5083C10.0947 10.9335 11.0726 10.5766 12.1086 10.4393L12.098 10.36C11.0515 10.4987 10.0596 10.8597 9.29307 11.4447L9.34161 11.5083ZM7.92116 13.8047C8.14444 12.8189 8.64624 12.0268 9.34125 11.5085L9.29343 11.4444C8.58139 11.9754 8.07012 12.7848 7.84314 13.787L7.92116 13.8047ZM6.50195 16.2001C7.23944 15.5322 7.69407 14.7796 7.92111 13.805L7.84319 13.7868C7.61998 14.745 7.17409 15.4834 6.44825 16.1409L6.50195 16.2001ZM5.27438 20.4088C4.74625 18.9905 5.21778 17.3232 6.50143 16.2006L6.44877 16.1404C5.14345 17.282 4.65819 18.9833 5.19941 20.4367L5.27438 20.4088ZM7.73092 23.01C6.55731 22.4342 5.69247 21.5027 5.27426 20.4085L5.19953 20.437C5.62555 21.5517 6.50545 22.4978 7.69569 23.0818L7.73092 23.01ZM9.76759 23.4753C9.06996 23.4753 8.34435 23.3109 7.73092 23.01L7.69569 23.0818C8.32046 23.3883 9.05818 23.5553 9.76759 23.5553V23.4753ZM11.4425 23.1739C10.9118 23.3657 10.3254 23.4753 9.76759 23.4753V23.5553C10.3354 23.5553 10.9309 23.4439 11.4697 23.2492L11.4425 23.1739ZM12.8044 22.8955C12.3513 22.9233 11.8686 23.0067 11.4414 23.1743L11.4707 23.2488C11.8878 23.0851 12.3618 23.0028 12.8093 22.9753L12.8044 22.8955ZM14.2003 23.1743C13.7745 23.0072 13.2912 22.8954 12.8068 22.8954V22.9754C13.2793 22.9754 13.7527 23.0845 14.1711 23.2488L14.2003 23.1743ZM17.8831 23.0374C16.7391 23.5849 15.3718 23.6396 14.2005 23.1744L14.171 23.2487C15.3634 23.7223 16.754 23.6665 17.9176 23.1096L17.8831 23.0374ZM20.3393 20.4364C19.9212 21.5577 19.0567 22.4616 17.8827 23.0376L17.918 23.1094C19.1079 22.5256 19.9881 21.6072 20.4142 20.4643L20.3393 20.4364ZM19.0837 16.2279C20.3684 17.3788 20.8671 19.0189 20.3393 20.4364L20.4142 20.4643C20.9557 19.0102 20.4414 17.3368 19.1371 16.1683L19.0837 16.2279ZM17.6644 13.8326C17.8913 14.8067 18.3458 15.5874 19.0842 16.2283L19.1366 16.1679C18.4117 15.5387 17.9656 14.7731 17.7423 13.8144L17.6644 13.8326ZM16.2441 11.536C16.9671 12.0817 17.441 12.8738 17.6644 13.8326L17.7423 13.8144C17.5154 12.8404 17.0326 12.0309 16.2923 11.4722L16.2441 11.536ZM13.4769 10.4669C14.5129 10.6042 15.4908 10.9612 16.2439 11.5359L16.2924 11.4723C15.5259 10.8873 14.534 10.5263 13.4875 10.3876L13.4769 10.4669ZM13.2797 10.4392L13.4767 10.4668L13.4878 10.3876L13.2908 10.36L13.2797 10.4392ZM12.6932 11.4365C11.6725 11.4643 10.7076 11.7981 9.99695 12.328L10.0448 12.3921C10.7412 11.8728 11.6899 11.5439 12.6953 11.5165L12.6932 11.4365ZM12.7505 11.4365H12.6943V11.5165H12.7505V11.4365ZM12.8631 11.4365H12.7505V11.5165H12.8631V11.4365ZM15.5604 12.328C14.8498 11.7981 13.8849 11.4643 12.8642 11.4365L12.862 11.5165C13.8675 11.5439 14.8162 11.8728 15.5126 12.3921L15.5604 12.328ZM16.5886 14.0079C16.4749 13.5059 16.1901 12.8054 15.5607 12.3282L15.5123 12.3919C16.1211 12.8535 16.3991 13.5336 16.5106 14.0256L16.5886 14.0079ZM18.3209 16.9414C17.4268 16.1463 16.8681 15.1872 16.5885 14.0075L16.5106 14.026C16.7939 15.221 17.3608 16.1947 18.2677 17.0011L18.3209 16.9414ZM19.2888 20.022C19.6611 18.9821 19.2874 17.7781 18.3205 16.941L18.2681 17.0015C19.2148 17.8211 19.5727 18.9917 19.2134 19.9951L19.2888 20.022ZM17.3547 22.0327C18.2912 21.5872 18.975 20.8897 19.2887 20.0222L19.2135 19.995C18.9081 20.8394 18.2412 21.5224 17.3203 21.9605L17.3547 22.0327ZM14.5363 22.144C15.4198 22.5076 16.5012 22.4515 17.3551 22.0325L17.3199 21.9607C16.4854 22.3701 15.428 22.4244 14.5668 22.0701L14.5363 22.144ZM12.7505 21.8157C13.393 21.8157 13.979 21.9253 14.5369 22.1443L14.5662 22.0698C13.9985 21.847 13.4025 21.7357 12.7505 21.7357V21.8157ZM10.9906 22.1449C11.551 21.9525 12.1374 21.8157 12.7505 21.8157V21.7357C12.1255 21.7357 11.53 21.8751 10.9647 22.0692L10.9906 22.1449ZM8.17408 22.0325C9.02881 22.4519 10.1097 22.4795 10.9919 22.1445L10.9635 22.0697C10.1008 22.3973 9.04305 22.3697 8.20932 21.9607L8.17408 22.0325ZM6.24064 20.0226C6.55424 20.8617 7.23761 21.587 8.17452 22.0327L8.20888 21.9605C7.28848 21.5226 6.62108 20.8121 6.31558 19.9946L6.24064 20.0226ZM7.20824 16.9414C6.24219 17.8057 5.86782 19.0095 6.24058 20.0224L6.31565 19.9947C5.95675 19.0195 6.31404 17.8487 7.26158 17.0011L7.20824 16.9414ZM8.94053 14.0084C8.68915 15.1869 8.1029 16.1459 7.20833 16.9414L7.26149 17.0011C8.16793 16.1951 8.7636 15.2213 9.01877 14.0251L8.94053 14.0084ZM9.9967 12.3282C9.36711 12.8055 9.08265 13.5338 8.94133 14.0053L9.01796 14.0283C9.15805 13.5609 9.43642 12.8534 10.045 12.3919L9.9967 12.3282ZM24.3333 12.213C24.0955 13.256 23.6134 14.1323 23.0183 14.7093C22.4231 15.2865 21.7185 15.5616 21.0319 15.4134L21.0151 15.4916C21.7355 15.6471 22.4661 15.3562 23.074 14.7668C23.6819 14.1772 24.1706 13.2863 24.4113 12.2308L24.3333 12.213ZM22.6474 7.95359C23.3484 8.10194 23.8883 8.64203 24.1944 9.40995C24.5005 10.1779 24.571 11.1704 24.3333 12.213L24.4113 12.2308C24.652 11.1749 24.5817 10.1656 24.2687 9.38033C23.9557 8.59509 23.3982 8.0307 22.664 7.87532L22.6474 7.95359ZM19.3459 11.1539C19.5837 10.1109 20.0658 9.23469 20.6609 8.65763C21.2561 8.08048 21.9607 7.80535 22.6472 7.95356L22.6641 7.87536C21.9436 7.71983 21.2131 8.01074 20.6052 8.6002C19.9972 9.18974 19.5085 10.0806 19.2679 11.1362L19.3459 11.1539ZM21.0319 15.4134C20.345 15.2651 19.8049 14.725 19.4953 13.9569C19.1856 13.1888 19.1083 12.1963 19.3459 11.1539L19.2679 11.1362C19.0271 12.1922 19.1045 13.2016 19.4211 13.9868C19.7375 14.7717 20.2949 15.3361 21.0151 15.4916L21.0319 15.4134ZM23.3139 11.9818C23.484 11.1891 23.4419 10.4777 23.2706 9.94548C23.1002 9.41579 22.7975 9.05312 22.4386 8.97974L22.4225 9.05812C22.739 9.1228 23.0273 9.45043 23.1945 9.96999C23.3609 10.487 23.4033 11.1839 23.2357 11.965L23.3139 11.9818ZM21.2688 14.3872C21.6274 14.4605 22.0558 14.2474 22.4321 13.8295C22.8103 13.4094 23.1438 12.7746 23.3139 11.9818L23.2357 11.965C23.0681 12.7461 22.7403 13.3676 22.3727 13.7759C22.0032 14.1863 21.6015 14.3736 21.2848 14.3088L21.2688 14.3872ZM20.3934 11.3852C20.2233 12.1779 20.2654 12.8892 20.4367 13.4215C20.6071 13.9512 20.9098 14.3138 21.2688 14.3872L21.2848 14.3088C20.9683 14.2442 20.68 13.9165 20.5128 13.397C20.3464 12.88 20.304 12.1831 20.4716 11.4019L20.3934 11.3852ZM22.4386 8.97974C22.0799 8.90643 21.6515 9.11952 21.2752 9.5375C20.897 9.95755 20.5635 10.5923 20.3934 11.3852L20.4716 11.4019C20.6392 10.6209 20.9671 9.99934 21.3346 9.59103C21.7041 9.18065 22.1058 8.99337 22.4225 9.05812L22.4386 8.97974ZM16.3769 9.58277C17.1819 9.6674 17.9538 9.26481 18.554 8.54348C19.1543 7.82202 19.586 6.77877 19.7133 5.57107L19.6338 5.56268C19.5078 6.75721 19.0812 7.78485 18.4925 8.49231C17.9038 9.19989 17.156 9.58424 16.3852 9.5032L16.3769 9.58277ZM13.9493 4.98283C13.822 6.19034 14.0197 7.29611 14.4531 8.1223C14.8866 8.94856 15.558 9.49819 16.3769 9.58277L16.3851 9.5032C15.6001 9.42211 14.9488 8.89488 14.524 8.08513C14.0991 7.27532 13.9029 6.18594 14.0288 4.99122L13.9493 4.98283ZM17.2857 0.971128C16.4806 0.88649 15.7088 1.28908 15.1086 2.01042C14.5083 2.73187 14.0766 3.77513 13.9493 4.98283L14.0288 4.99122C14.1548 3.79668 14.5814 2.76904 15.1701 2.06159C15.7588 1.354 16.5066 0.969656 17.2774 1.05069L17.2857 0.971128ZM19.7133 5.57111C19.8406 4.3773 19.6429 3.27157 19.2095 2.44201C18.7761 1.61248 18.1048 1.05573 17.2857 0.971121L17.2774 1.0507C18.0623 1.13176 18.7137 1.66568 19.1386 2.47906C19.5635 3.2924 19.7597 4.38182 19.6338 5.56263L19.7133 5.57111ZM17.1649 2.15518C17.5519 2.19446 17.9369 2.54428 18.2019 3.12937C18.4659 3.71219 18.606 4.51945 18.5081 5.45225L18.5877 5.4606C18.6868 4.51579 18.5455 3.69395 18.2748 3.09636C18.0051 2.50104 17.6021 2.11914 17.173 2.07559L17.1649 2.15518ZM15.1544 5.1023C15.2662 4.18329 15.5806 3.42377 15.963 2.90536C16.3472 2.38447 16.7924 2.11601 17.1648 2.15517L17.1732 2.0756C16.7577 2.03192 16.2883 2.32951 15.8986 2.85787C15.5071 3.38871 15.1883 4.16165 15.075 5.09264L15.1544 5.1023ZM16.4976 8.39871C16.1107 8.35943 15.7257 8.00961 15.4607 7.42453C15.1967 6.84171 15.0566 6.03445 15.1545 5.10164L15.0749 5.0933C14.9758 6.0381 15.1171 6.85994 15.3878 7.45753C15.6575 8.05285 16.0605 8.43475 16.4896 8.4783L16.4976 8.39871ZM18.5081 5.45219C18.4103 6.37104 18.1029 7.13032 17.7207 7.64854C17.3369 8.16891 16.8846 8.43799 16.4976 8.39871L16.4896 8.4783C16.9187 8.52186 17.395 8.2249 17.7851 7.69602C18.1768 7.16499 18.4885 6.39181 18.5877 5.46066L18.5081 5.45219Z" fill="#A1A1A1" mask="url(#path-1-outside-1_297_1243)"/>
</svg>
