<svg width="20" height="24" viewBox="0 0 20 24" fill="none" xmlns="http://www.w3.org/2000/svg">
<path d="M0.71975 9.46959L0.719803 9.46954L9.46975 0.71959C9.46977 0.719572 9.46979 0.719554 9.4698 0.719536C9.76266 0.426821 10.2373 0.426821 10.5302 0.719536C10.5302 0.719554 10.5302 0.719572 10.5302 0.71959L19.2802 9.46954L19.2802 9.46959C19.421 9.61026 19.5 9.80099 19.5 9.99973V21.9822C19.5 22.3964 19.1642 22.7322 18.75 22.7322H13V14.4822V13.9822H12.5H7.5H7V14.4822V22.7322H1.25C0.835786 22.7322 0.5 22.3964 0.5 21.9822V9.99973C0.5 9.80099 0.579034 9.61026 0.71975 9.46959Z" stroke="#808080"/>
</svg>
