<svg width="24" height="23" viewBox="0 0 24 23" fill="none" xmlns="http://www.w3.org/2000/svg">
<g clip-path="url(#clip0)">
<path d="M12.0222 1.22071L22.7735 11.0725H21.1198C20.9761 11.0725 20.8338 11.1006 20.701 11.1551C20.5683 11.2096 20.4476 11.2894 20.346 11.3901C20.2444 11.4908 20.1638 11.6103 20.1088 11.7419C20.0538 11.8735 20.0255 12.0145 20.0255 12.1569V21.7593H15.0876V15.2532C15.0876 14.9657 14.9723 14.6899 14.7671 14.4865C14.5618 14.2831 14.2835 14.1689 13.9933 14.1689H9.99286C9.70281 14.1755 9.42729 14.296 9.22687 14.5039C9.02645 14.7117 8.91753 14.9899 8.92406 15.2773V21.7834L3.98739 21.7641V12.1569C3.98739 11.8693 3.8721 11.5935 3.66687 11.3901C3.46164 11.1868 3.18329 11.0725 2.89305 11.0725H1.23209L12.0222 1.21951V1.22071ZM12.0222 -0.000975425C11.7127 -0.00139439 11.4144 0.113914 11.1869 0.321916L0.400397 10.1761C0.217588 10.3425 0.0897897 10.5598 0.0337498 10.7994C-0.0222902 11.039 -0.00395004 11.2898 0.0863585 11.5189C0.176667 11.7481 0.334733 11.9448 0.539836 12.0833C0.74494 12.2219 0.987508 12.2958 1.23574 12.2954H2.76052V21.7593C2.76051 22.0823 2.88979 22.3922 3.11999 22.621C3.3502 22.8498 3.66256 22.9788 3.98861 22.9797L8.92406 22.999C9.08581 22.999 9.24598 22.9675 9.39542 22.9061C9.54486 22.8448 9.68065 22.7549 9.79503 22.6416C9.90941 22.5282 10.0001 22.3937 10.062 22.2456C10.1239 22.0975 10.1558 21.9388 10.1558 21.7785V15.393H13.8546V21.7593C13.8546 21.9196 13.8865 22.0784 13.9485 22.2266C14.0105 22.3748 14.1013 22.5094 14.2158 22.6227C14.3303 22.736 14.4663 22.8259 14.6159 22.8872C14.7654 22.9485 14.9257 22.9799 15.0876 22.9797H20.0158C20.1776 22.9799 20.3379 22.9485 20.4875 22.8872C20.6371 22.8259 20.773 22.736 20.8875 22.6227C21.002 22.5094 21.0929 22.3748 21.1548 22.2266C21.2168 22.0784 21.2487 21.9196 21.2487 21.7593V12.2954H22.7735C23.0213 12.2952 23.2632 12.221 23.4678 12.0825C23.6724 11.944 23.8302 11.7476 23.9205 11.519C24.0108 11.2903 24.0295 11.04 23.9741 10.8007C23.9187 10.5614 23.7919 10.3442 23.61 10.1773L12.8588 0.324326C12.6313 0.115499 12.3324 -0.000284414 12.0222 0.000229882V-0.000975425Z" fill="black" fill-opacity="0.3"/>
</g>
<defs>
<clipPath id="clip0">
<rect width="24" height="23" fill="white"/>
</clipPath>
</defs>
</svg>
