<svg width="25" height="23" viewBox="0 0 25 23" fill="none" xmlns="http://www.w3.org/2000/svg">
<path fill-rule="evenodd" clip-rule="evenodd" d="M11.1849 0.322869C11.4124 0.114867 11.7107 -0.000441215 12.0203 -2.22458e-05V0.00118306C12.3304 0.000668765 12.6293 0.116452 12.8568 0.325279L23.6081 10.1783C23.7899 10.3451 23.9168 10.5623 23.9721 10.8017C24.0275 11.041 24.0088 11.2913 23.9185 11.5199C23.8282 11.7485 23.6705 11.9449 23.4659 12.0834C23.2613 12.2219 23.0193 12.2961 22.7715 12.2964H21.2468V21.7602C21.2468 21.9206 21.2149 22.0794 21.1529 22.2276C21.0909 22.3757 21.0001 22.5103 20.8856 22.6237C20.7711 22.737 20.6351 22.8269 20.4855 22.8881C20.336 22.9494 20.1757 22.9809 20.0138 22.9807H15.0856C14.9238 22.9809 14.7635 22.9494 14.6139 22.8881C14.4643 22.8269 14.3284 22.737 14.2139 22.6237C14.0994 22.5103 14.0085 22.3757 13.9466 22.2276C13.8846 22.0794 13.8527 21.9206 13.8527 21.7602V15.394H10.1538V21.7795C10.1538 21.9398 10.122 22.0985 10.0601 22.2466C9.99818 22.3946 9.90745 22.5292 9.79308 22.6425C9.6787 22.7558 9.54291 22.8457 9.39347 22.9071C9.24403 22.9684 9.08386 23 8.92211 23L3.98665 22.9807C3.66061 22.9797 3.34825 22.8507 3.11804 22.622C2.88783 22.3932 2.75856 22.0833 2.75856 21.7602V12.2964H1.23379C0.985555 12.2968 0.742987 12.2229 0.537883 12.0843C0.332779 11.9457 0.174714 11.749 0.0844053 11.5199C-0.00590327 11.2908 -0.0242434 11.04 0.0317965 10.8004C0.0878365 10.5607 0.215635 10.3435 0.398443 10.1771L11.1849 0.322869Z" fill="#882BFF"/>
</svg>
