<svg width="25" height="23" viewBox="0 0 25 23" fill="none" xmlns="http://www.w3.org/2000/svg">
<path fill-rule="evenodd" clip-rule="evenodd" d="M11.1869 0.321916C11.4144 0.113914 11.7127 -0.00139439 12.0222 -0.000975425V0.000229882C12.3324 -0.000284414 12.6313 0.115499 12.8588 0.324326L23.61 10.1773C23.7919 10.3442 23.9187 10.5614 23.9741 10.8007C24.0295 11.04 24.0108 11.2903 23.9205 11.519C23.8302 11.7476 23.6724 11.944 23.4678 12.0825C23.2632 12.221 23.0213 12.2952 22.7735 12.2954H21.2487V21.7593C21.2487 21.9196 21.2168 22.0784 21.1548 22.2266C21.0929 22.3748 21.002 22.5094 20.8875 22.6227C20.773 22.736 20.6371 22.8259 20.4875 22.8872C20.3379 22.9485 20.1776 22.9799 20.0158 22.9797H15.0876C14.9257 22.9799 14.7654 22.9485 14.6159 22.8872C14.4663 22.8259 14.3303 22.736 14.2158 22.6227C14.1013 22.5094 14.0105 22.3748 13.9485 22.2266C13.8865 22.0784 13.8546 21.9196 13.8546 21.7593V15.393H10.1558V21.7785C10.1558 21.9388 10.1239 22.0975 10.062 22.2456C10.0001 22.3937 9.90941 22.5282 9.79503 22.6416C9.68065 22.7549 9.54486 22.8448 9.39542 22.9061C9.24598 22.9675 9.08581 22.999 8.92406 22.999L3.98861 22.9797C3.66256 22.9788 3.3502 22.8498 3.11999 22.621C2.88979 22.3922 2.76051 22.0823 2.76052 21.7593V12.2954H1.23574C0.987508 12.2958 0.74494 12.2219 0.539836 12.0833C0.334733 11.9448 0.176667 11.7481 0.0863585 11.5189C-0.00395005 11.2898 -0.0222902 11.039 0.0337498 10.7994C0.0897897 10.5598 0.217588 10.3425 0.400397 10.1761L11.1869 0.321916Z" fill="#7B13FF" fill-opacity="0.9"/>
</svg>
