<svg width="26" height="25" viewBox="0 0 26 25" fill="none" xmlns="http://www.w3.org/2000/svg">
<mask id="path-1-outside-1_3_2238" maskUnits="userSpaceOnUse" x="0.000244141" y="0" width="26" height="25" fill="black">
<rect fill="white" x="0.000244141" width="26" height="25"/>
<path d="M13.0205 2.22169L23.7718 12.0735H22.1181C21.9744 12.0735 21.8321 12.1015 21.6993 12.156C21.5666 12.2105 21.4459 12.2904 21.3443 12.3911C21.2427 12.4918 21.1621 12.6113 21.1071 12.7429C21.0521 12.8744 21.0238 13.0154 21.0238 13.1578V22.7602H16.0859V16.2542C16.0859 15.9666 15.9706 15.6908 15.7654 15.4875C15.5601 15.2841 15.2818 15.1699 14.9916 15.1699H10.9911C10.7011 15.1765 10.4256 15.297 10.2252 15.5049C10.0247 15.7127 9.91582 15.9909 9.92235 16.2783V22.7843L4.98568 22.7651V13.1578C4.98568 12.8702 4.87039 12.5944 4.66516 12.3911C4.45993 12.1877 4.18158 12.0735 3.89134 12.0735H2.23038L13.0205 2.22048V2.22169ZM13.0205 1C12.711 0.999582 12.4127 1.11489 12.1852 1.32289L1.39869 11.1771C1.21588 11.3435 1.08808 11.5608 1.03204 11.8004C0.976001 12.04 0.994341 12.2908 1.08465 12.5199C1.17496 12.749 1.33302 12.9458 1.53813 13.0843C1.74323 13.2229 1.9858 13.2968 2.23404 13.2964H3.75881V22.7602C3.75881 23.0833 3.88808 23.3932 4.11828 23.622C4.34849 23.8508 4.66085 23.9798 4.9869 23.9807L9.92235 24C10.0841 24 10.2443 23.9684 10.3937 23.9071C10.5432 23.8458 10.6789 23.7559 10.7933 23.6425C10.9077 23.5292 10.9984 23.3947 11.0603 23.2466C11.1222 23.0985 11.1541 22.9398 11.1541 22.7795V16.394H14.8529V22.7602C14.8529 22.9206 14.8848 23.0794 14.9468 23.2276C15.0088 23.3757 15.0996 23.5103 15.2141 23.6237C15.3286 23.737 15.4646 23.8269 15.6141 23.8882C15.7637 23.9494 15.924 23.9809 16.0859 23.9807H21.0141C21.1759 23.9809 21.3362 23.9494 21.4858 23.8882C21.6354 23.8269 21.7713 23.737 21.8858 23.6237C22.0003 23.5103 22.0911 23.3757 22.1531 23.2276C22.2151 23.0794 22.247 22.9206 22.247 22.7602V13.2964H23.7718C24.0196 13.2962 24.2615 13.2219 24.4661 13.0834C24.6707 12.9449 24.8285 12.7486 24.9188 12.5199C25.0091 12.2913 25.0278 12.041 24.9724 11.8017C24.917 11.5624 24.7901 11.3451 24.6083 11.1783L13.8571 1.3253C13.6295 1.11648 13.3307 1.00069 13.0205 1.00121V1Z"/>
</mask>
<path d="M13.0205 2.22169L23.7718 12.0735H22.1181C21.9744 12.0735 21.8321 12.1015 21.6993 12.156C21.5666 12.2105 21.4459 12.2904 21.3443 12.3911C21.2427 12.4918 21.1621 12.6113 21.1071 12.7429C21.0521 12.8744 21.0238 13.0154 21.0238 13.1578V22.7602H16.0859V16.2542C16.0859 15.9666 15.9706 15.6908 15.7654 15.4875C15.5601 15.2841 15.2818 15.1699 14.9916 15.1699H10.9911C10.7011 15.1765 10.4256 15.297 10.2252 15.5049C10.0247 15.7127 9.91582 15.9909 9.92235 16.2783V22.7843L4.98568 22.7651V13.1578C4.98568 12.8702 4.87039 12.5944 4.66516 12.3911C4.45993 12.1877 4.18158 12.0735 3.89134 12.0735H2.23038L13.0205 2.22048V2.22169ZM13.0205 1C12.711 0.999582 12.4127 1.11489 12.1852 1.32289L1.39869 11.1771C1.21588 11.3435 1.08808 11.5608 1.03204 11.8004C0.976001 12.04 0.994341 12.2908 1.08465 12.5199C1.17496 12.749 1.33302 12.9458 1.53813 13.0843C1.74323 13.2229 1.9858 13.2968 2.23404 13.2964H3.75881V22.7602C3.75881 23.0833 3.88808 23.3932 4.11828 23.622C4.34849 23.8508 4.66085 23.9798 4.9869 23.9807L9.92235 24C10.0841 24 10.2443 23.9684 10.3937 23.9071C10.5432 23.8458 10.6789 23.7559 10.7933 23.6425C10.9077 23.5292 10.9984 23.3947 11.0603 23.2466C11.1222 23.0985 11.1541 22.9398 11.1541 22.7795V16.394H14.8529V22.7602C14.8529 22.9206 14.8848 23.0794 14.9468 23.2276C15.0088 23.3757 15.0996 23.5103 15.2141 23.6237C15.3286 23.737 15.4646 23.8269 15.6141 23.8882C15.7637 23.9494 15.924 23.9809 16.0859 23.9807H21.0141C21.1759 23.9809 21.3362 23.9494 21.4858 23.8882C21.6354 23.8269 21.7713 23.737 21.8858 23.6237C22.0003 23.5103 22.0911 23.3757 22.1531 23.2276C22.2151 23.0794 22.247 22.9206 22.247 22.7602V13.2964H23.7718C24.0196 13.2962 24.2615 13.2219 24.4661 13.0834C24.6707 12.9449 24.8285 12.7486 24.9188 12.5199C25.0091 12.2913 25.0278 12.041 24.9724 11.8017C24.917 11.5624 24.7901 11.3451 24.6083 11.1783L13.8571 1.3253C13.6295 1.11648 13.3307 1.00069 13.0205 1.00121V1Z" fill="black" fill-opacity="0.3"/>
<path d="M13.0205 2.22169H13.0057L13.0138 2.22906L13.0205 2.22169ZM23.7718 12.0735V12.0835H23.7975L23.7785 12.0661L23.7718 12.0735ZM22.1181 12.0735V12.0835V12.0735ZM21.0238 13.1578H21.0138H21.0238ZM16.0859 16.2542H16.0959H16.0859ZM14.9916 15.1699V15.1799V15.1699ZM10.9911 15.1699V15.1599L10.9909 15.1599L10.9911 15.1699ZM9.92235 16.2783H9.93235L9.93235 16.2781L9.92235 16.2783ZM9.92235 22.7843L9.92231 22.7943L9.93235 22.7944V22.7843H9.92235ZM4.98568 22.7651H2.42489L4.98564 22.7751L4.98568 22.7651ZM2.23038 12.0735L2.22364 12.0661L2.2046 12.0835H2.23038V12.0735ZM13.0205 2.22048H13.0305V2.19781L13.0138 2.2131L13.0205 2.22048ZM13.0205 1H20.4088L13.0205 0.990001L13.0205 1ZM12.1852 1.32289L12.1919 1.33028L12.1919 1.33027L12.1852 1.32289ZM1.39869 11.1771L1.40542 11.1845L1.40543 11.1845L1.39869 11.1771ZM2.23404 13.2964V13.2864H2.23402L2.23404 13.2964ZM3.75881 22.7602H3.76881H3.75881ZM4.9869 23.9807L4.98694 23.9707H4.98693L4.9869 23.9807ZM9.92235 24L9.92231 24.01H9.92235V24ZM14.8529 22.7602H14.8629H14.8529ZM16.0859 23.9807V23.9707H16.0859L16.0859 23.9807ZM21.0141 23.9807L21.0141 23.9707H21.0141V23.9807ZM22.247 22.7602H22.237H22.247ZM23.7718 13.2964V13.3064H23.7718L23.7718 13.2964ZM24.6083 11.1783L24.6151 11.1709L24.6151 11.1709L24.6083 11.1783ZM13.8571 1.3253L13.8503 1.33267L13.8503 1.33267L13.8571 1.3253ZM13.0205 1.00121H13.0105V1.01122L13.0205 1.01121L13.0205 1.00121ZM13.0138 2.22906L23.765 12.0809L23.7785 12.0661L13.0273 2.21432L13.0138 2.22906ZM23.7718 12.0635H22.1181V12.0835H23.7718V12.0635ZM22.1181 12.0635C21.9731 12.0635 21.8295 12.0918 21.6955 12.1468L21.7031 12.1653C21.8347 12.1113 21.9757 12.0835 22.1181 12.0835V12.0635ZM21.6955 12.1468C21.5616 12.2018 21.4398 12.2824 21.3373 12.384L21.3513 12.3982C21.452 12.2984 21.5716 12.2193 21.7031 12.1653L21.6955 12.1468ZM21.3373 12.384C21.2347 12.4856 21.1534 12.6062 21.0979 12.739L21.1163 12.7467C21.1708 12.6164 21.2506 12.498 21.3513 12.3982L21.3373 12.384ZM21.0979 12.739C21.0423 12.8718 21.0138 13.0141 21.0138 13.1578H21.0338C21.0338 13.0168 21.0618 12.8771 21.1163 12.7467L21.0979 12.739ZM21.0138 13.1578V22.7602H21.0338V13.1578H21.0138ZM21.0238 22.7502H16.0859V22.7702H21.0238V22.7502ZM16.0959 22.7602V16.2542H16.0759V22.7602H16.0959ZM16.0959 16.2542C16.0959 15.964 15.9795 15.6856 15.7724 15.4804L15.7583 15.4946C15.9617 15.6961 16.0759 15.9693 16.0759 16.2542H16.0959ZM15.7724 15.4804C15.5653 15.2752 15.2844 15.1599 14.9916 15.1599V15.1799C15.2792 15.1799 15.555 15.2931 15.7583 15.4946L15.7724 15.4804ZM14.9916 15.1599H10.9911V15.1799H14.9916V15.1599ZM10.9909 15.1599C10.6983 15.1666 10.4202 15.2882 10.218 15.4979L10.2324 15.5118C10.4309 15.3059 10.704 15.1865 10.9914 15.1799L10.9909 15.1599ZM10.218 15.4979C10.0157 15.7077 9.90577 15.9885 9.91235 16.2785L9.93235 16.2781C9.92588 15.9934 10.0338 15.7177 10.2324 15.5118L10.218 15.4979ZM9.91235 16.2783V22.7843H9.93235V16.2783H9.91235ZM9.92239 22.7743L4.98572 22.7551L4.98564 22.7751L9.92231 22.7943L9.92239 22.7743ZM4.99568 22.7651V13.1578H4.97568V22.7651H4.99568ZM4.99568 13.1578C4.99568 12.8676 4.87931 12.5892 4.6722 12.384L4.65812 12.3982C4.86146 12.5997 4.97568 12.8729 4.97568 13.1578H4.99568ZM4.6722 12.384C4.46509 12.1788 4.1842 12.0635 3.89134 12.0635V12.0835C4.17896 12.0835 4.45478 12.1967 4.65812 12.3982L4.6722 12.384ZM3.89134 12.0635H2.23038V12.0835H3.89134V12.0635ZM2.23712 12.0809L13.0273 2.22787L13.0138 2.2131L2.22364 12.0661L2.23712 12.0809ZM13.0105 2.22048V2.22169H13.0305V2.22048H13.0105ZM13.0205 0.990001C12.7085 0.989579 12.4078 1.10581 12.1784 1.31551L12.1919 1.33027C12.4176 1.12397 12.7135 1.00959 13.0205 1.01L13.0205 0.990001ZM12.1784 1.31551L1.39194 11.1697L1.40543 11.1845L12.1919 1.33028L12.1784 1.31551ZM1.39196 11.1697C1.20766 11.3375 1.07881 11.5565 1.0223 11.7981L1.04178 11.8027C1.09735 11.565 1.2241 11.3496 1.40542 11.1845L1.39196 11.1697ZM1.0223 11.7981C0.9658 12.0397 0.984293 12.2926 1.07535 12.5236L1.09395 12.5163C1.00439 12.289 0.986201 12.0403 1.04178 11.8027L1.0223 11.7981ZM1.07535 12.5236C1.1664 12.7546 1.32576 12.9529 1.53253 13.0926L1.54373 13.076C1.34029 12.9386 1.18352 12.7435 1.09395 12.5163L1.07535 12.5236ZM1.53253 13.0926C1.7393 13.2323 1.98382 13.3068 2.23405 13.3064L2.23402 13.2864C1.98778 13.2868 1.74717 13.2135 1.54373 13.076L1.53253 13.0926ZM2.23404 13.3064H3.75881V13.2864H2.23404V13.3064ZM3.74881 13.2964V22.7602H3.76881V13.2964H3.74881ZM3.74881 22.7602C3.74881 23.086 3.87915 23.3984 4.11123 23.6291L4.12533 23.6149C3.897 23.388 3.76881 23.0806 3.76881 22.7602H3.74881ZM4.11123 23.6291C4.34332 23.8597 4.65821 23.9898 4.98687 23.9907L4.98693 23.9707C4.6635 23.9698 4.35366 23.8418 4.12533 23.6149L4.11123 23.6291ZM4.98686 23.9907L9.92231 24.01L9.92239 23.99L4.98694 23.9707L4.98686 23.9907ZM9.92235 24.01C10.0854 24.01 10.2469 23.9782 10.3975 23.9163L10.3899 23.8978C10.2417 23.9587 10.0828 23.99 9.92235 23.99V24.01ZM10.3975 23.9163C10.5482 23.8545 10.685 23.7639 10.8004 23.6496L10.7863 23.6354C10.6728 23.7478 10.5382 23.837 10.3899 23.8978L10.3975 23.9163ZM10.8004 23.6496C10.9157 23.5354 11.0071 23.3997 11.0696 23.2504L11.0511 23.2427C10.9897 23.3896 10.8997 23.523 10.7863 23.6354L10.8004 23.6496ZM11.0696 23.2504C11.132 23.1011 11.1641 22.9411 11.1641 22.7795H11.1441C11.1441 22.9385 11.1125 23.0959 11.0511 23.2427L11.0696 23.2504ZM11.1641 22.7795V16.394H11.1441V22.7795H11.1641ZM11.1541 16.404H14.8529V16.384H11.1541V16.404ZM14.8429 16.394V22.7602H14.8629V16.394H14.8429ZM14.8429 22.7602C14.8429 22.9219 14.8751 23.0821 14.9376 23.2314L14.956 23.2237C14.8946 23.0768 14.8629 22.9193 14.8629 22.7602H14.8429ZM14.9376 23.2314C15.0001 23.3808 15.0917 23.5165 15.2071 23.6308L15.2212 23.6166C15.1076 23.5041 15.0175 23.3707 14.956 23.2237L14.9376 23.2314ZM15.2071 23.6308C15.3225 23.7451 15.4596 23.8357 15.6104 23.8974L15.6179 23.8789C15.4696 23.8181 15.3347 23.729 15.2212 23.6166L15.2071 23.6308ZM15.6104 23.8974C15.7611 23.9592 15.9227 23.9909 16.0859 23.9907L16.0859 23.9707C15.9253 23.9709 15.7663 23.9397 15.6179 23.8789L15.6104 23.8974ZM16.0859 23.9907H21.0141V23.9707H16.0859V23.9907ZM21.014 23.9907C21.1772 23.9909 21.3388 23.9592 21.4896 23.8974L21.482 23.8789C21.3336 23.9397 21.1746 23.9709 21.0141 23.9707L21.014 23.9907ZM21.4896 23.8974C21.6404 23.8357 21.7774 23.7451 21.8928 23.6308L21.8788 23.6166C21.7652 23.729 21.6304 23.8181 21.482 23.8789L21.4896 23.8974ZM21.8928 23.6308C22.0083 23.5165 22.0999 23.3808 22.1623 23.2314L22.1439 23.2237C22.0824 23.3707 21.9923 23.5041 21.8788 23.6166L21.8928 23.6308ZM22.1623 23.2314C22.2248 23.0821 22.257 22.9219 22.257 22.7602H22.237C22.237 22.9193 22.2054 23.0768 22.1439 23.2237L22.1623 23.2314ZM22.257 22.7602V13.2964H22.237V22.7602H22.257ZM22.247 13.3064H23.7718V13.2864H22.247V13.3064ZM23.7718 13.3064C24.0216 13.3062 24.2655 13.2314 24.4717 13.0917L24.4605 13.0752C24.2576 13.2125 24.0176 13.2862 23.7718 13.2864L23.7718 13.3064ZM24.4717 13.0917C24.678 12.9521 24.837 12.7541 24.9281 12.5236L24.9095 12.5163C24.8199 12.743 24.6635 12.9378 24.4605 13.0752L24.4717 13.0917ZM24.9281 12.5236C25.0191 12.2931 25.038 12.0407 24.9821 11.7994L24.9626 11.8039C25.0176 12.0413 24.999 12.2895 24.9095 12.5163L24.9281 12.5236ZM24.9821 11.7994C24.9263 11.5581 24.7984 11.3391 24.6151 11.1709L24.6016 11.1857C24.7819 11.3511 24.9077 11.5666 24.9626 11.8039L24.9821 11.7994ZM24.6151 11.1709L13.8639 1.31793L13.8503 1.33267L24.6016 11.1857L24.6151 11.1709ZM13.8639 1.31793C13.6345 1.1074 13.3332 0.990688 13.0205 0.991206L13.0205 1.01121C13.3282 1.0107 13.6246 1.12555 13.8503 1.33267L13.8639 1.31793ZM13.0305 1.00121V1H13.0105V1.00121H13.0305Z" fill="#A1A1A1" mask="url(#path-1-outside-1_3_2238)"/>
</svg>
