<svg width="22" height="22" viewBox="0 0 22 22" fill="none" xmlns="http://www.w3.org/2000/svg">
<circle cx="10.9604" cy="5.25" r="4.6" stroke="black" stroke-opacity="0.3" stroke-width="1.3"/>
<g clip-path="url(#clip0_3_2249)">
<path d="M9.42955 12.65H12.5724C17.4122 12.65 21.351 16.5258 21.351 21.2308C21.351 21.2722 21.344 21.2965 21.3395 21.308C21.3352 21.3189 21.3315 21.3227 21.3302 21.324C21.3288 21.3254 21.3231 21.3307 21.3079 21.3364C21.292 21.3424 21.2624 21.35 21.2153 21.35H0.786691C0.739554 21.35 0.709912 21.3424 0.694094 21.3364C0.678854 21.3307 0.673201 21.3254 0.67177 21.324C0.670438 21.3227 0.66672 21.3189 0.662438 21.308C0.657928 21.2965 0.650977 21.2722 0.650977 21.2308C0.650977 16.5258 4.58976 12.65 9.42955 12.65Z" stroke="black" stroke-opacity="0.3" stroke-width="1.3"/>
</g>
<defs>
<clipPath id="clip0_3_2249">
<rect width="22" height="10" fill="white" transform="translate(0.000976562 12)"/>
</clipPath>
</defs>
</svg>
