<svg width="22" height="23" viewBox="0 0 22 23" fill="none" xmlns="http://www.w3.org/2000/svg">
<circle cx="10.96" cy="5.25" r="4.65" stroke="black" stroke-opacity="0.3" stroke-width="1.2"/>
<path d="M9.42857 13.65H12.5714C17.4112 13.65 21.35 17.5258 21.35 22.2308C21.35 22.2722 21.343 22.2965 21.3385 22.308C21.3343 22.3189 21.3305 22.3227 21.3292 22.324C21.3278 22.3254 21.3221 22.3307 21.3069 22.3364C21.2911 22.3424 21.2614 22.35 21.2143 22.35H0.785714C0.738577 22.35 0.708935 22.3424 0.693117 22.3364C0.677878 22.3307 0.672224 22.3254 0.670793 22.324C0.669462 22.3227 0.665744 22.3189 0.661462 22.308C0.656951 22.2965 0.65 22.2722 0.65 22.2308C0.65 17.5258 4.58878 13.65 9.42857 13.65Z" stroke="black" stroke-opacity="0.3" stroke-width="1.3"/>
</svg>
