<svg width="25" height="24" viewBox="0 0 25 24" fill="none" xmlns="http://www.w3.org/2000/svg">
<path d="M7.10253 13.2151C6.90253 14.2151 6.40253 15.0151 5.70253 15.6151C4.30253 16.8151 3.90253 18.5151 4.40253 20.0151C4.80253 21.1151 5.70253 22.1151 6.90253 22.7151C7.50253 23.0151 8.20253 23.1151 9.00253 23.1151C9.60253 23.1151 10.2025 23.0151 10.7025 22.8151C11.1025 22.6151 11.6025 22.5151 12.1025 22.5151C12.6025 22.5151 13.1025 22.6151 13.5025 22.8151C14.7025 23.3151 16.1025 23.2151 17.3025 22.7151C18.5025 22.1151 19.4025 21.2151 19.8025 20.0151C20.3025 18.5151 19.8025 16.8151 18.5025 15.6151C17.8025 15.0151 17.3025 14.2151 17.1025 13.2151C16.9025 12.2151 16.4025 11.4151 15.6025 10.8151C14.8025 10.2151 13.8025 9.81511 12.8025 9.71511L12.2025 9.61511H12.1025H12.0025H11.4025C10.3025 9.71511 9.30253 10.1151 8.60253 10.7151C7.80253 11.4151 7.30253 12.2151 7.10253 13.2151ZM9.20253 11.7151C9.90253 11.2151 10.9025 10.8151 11.9025 10.8151H12.0025H12.1025C13.1025 10.8151 14.1025 11.2151 14.8025 11.7151C15.4025 12.2151 15.7025 12.9151 15.8025 13.4151C16.1025 14.6151 16.7025 15.6151 17.6025 16.4151C18.6025 17.2151 19.0025 18.5151 18.6025 19.5151C18.3025 20.4151 17.6025 21.1151 16.6025 21.5151C15.7025 21.9151 14.6025 22.0151 13.8025 21.6151C13.2025 21.4151 12.6025 21.3151 12.0025 21.3151C11.4025 21.3151 10.8025 21.4151 10.2025 21.6151C9.30253 21.9151 8.20253 21.9151 7.40253 21.5151C6.50253 21.0151 5.80253 20.3151 5.40253 19.5151C5.00253 18.5151 5.40253 17.3151 6.40253 16.4151C7.30253 15.6151 7.90253 14.6151 8.20253 13.4151C8.30253 12.9151 8.60253 12.2151 9.20253 11.7151Z" fill="#7B13FF"/>
<path d="M5.30297 10.5152C4.80297 8.41523 3.30297 6.91523 1.90297 7.21523C0.502967 7.51523 -0.297033 9.41523 0.102967 11.6152C0.502967 13.8152 2.10297 15.2152 3.50297 14.9152C5.00297 14.6152 5.80297 12.7152 5.30297 10.5152ZM4.20297 10.7152C4.50297 12.3152 4.00297 13.6152 3.30297 13.7152C2.60297 13.8152 1.60297 12.9152 1.30297 11.3152C1.00297 9.71523 1.50297 8.41523 2.20297 8.31523C2.80297 8.21523 3.80297 9.11523 4.20297 10.7152Z" fill="#7B13FF"/>
<path d="M10.7025 4.21517C10.5025 1.81517 9.00251 -0.0848286 7.40251 0.115171C5.80251 0.315171 4.70251 2.31517 5.00251 4.81517C5.30251 7.31517 6.80251 9.01517 8.40251 8.91517C10.0025 8.71517 11.0025 6.61517 10.7025 4.21517ZM9.60251 4.31517C9.80251 6.21517 9.00251 7.61517 8.20251 7.71517C7.30251 7.81517 6.30251 6.61517 6.10251 4.71517C5.90251 2.81517 6.70251 1.31517 7.50251 1.21517C8.30251 1.21517 9.40251 2.41517 9.60251 4.31517Z" fill="#7B13FF"/>
<path d="M20.5025 14.9152C21.9025 15.2152 23.4025 13.7152 23.9025 11.6152C24.4025 9.51523 23.6025 7.51523 22.1025 7.21523C20.7025 6.91523 19.2025 8.41523 18.7025 10.5152C18.2025 12.6152 19.0025 14.6152 20.5025 14.9152ZM21.9025 8.31523C22.6025 8.41523 23.1025 9.71523 22.8025 11.3152C22.5025 12.9152 21.4025 13.9152 20.8025 13.7152C20.2025 13.5152 19.6025 12.3152 19.9025 10.7152C20.2025 9.11523 21.2025 8.21523 21.9025 8.31523Z" fill="#7B13FF"/>
<path d="M15.7033 8.81517C17.3033 9.01517 18.8033 7.21517 19.1033 4.71517C19.4033 2.31517 18.3033 0.215167 16.7033 0.0151666C15.1033 -0.184833 13.6033 1.61517 13.3033 4.11517C13.0033 6.61517 14.1033 8.71517 15.7033 8.81517ZM16.5033 1.21517C17.3033 1.31517 18.1033 2.71517 17.9033 4.61517C17.7033 6.51517 16.6033 7.71517 15.8033 7.71517C15.0033 7.61517 14.2033 6.21517 14.4033 4.31517C14.6033 2.41517 15.7033 1.21517 16.5033 1.21517Z" fill="#7B13FF"/>
<path d="M11.0029 10.1151L8.10293 11.9151L7.20293 14.4151L5.00293 17.1151L4.50293 19.0151L5.30293 21.1151L7.00293 22.1151L9.00293 23.1151L11.0029 22.1151H13.0029H14.0029L16.0029 23.1151L17.0029 22.1151L19.0029 21.1151V19.1151V17.1151L17.0029 15.1151L16.0029 13.1151L15.0029 11.1151L13.0029 10.1151H11.0029Z" fill="#7B13FF"/>
<path d="M2.00293 8.11511L1.00293 9.11511V11.1151V13.1151L2.00293 14.1151H4.00293L5.00293 12.1151L4.00293 9.11511L3.00293 8.11511H2.00293Z" fill="#7B13FF"/>
<path d="M7.00293 1.11511L6.00293 2.11511V3.11511V5.11511V7.11511L8.00293 8.11511H9.00293L10.0029 5.11511V2.11511L8.00293 1.11511H7.00293Z" fill="#7B13FF"/>
<path d="M16.0029 1.11511H15.0029L14.0029 3.11511V5.11511V7.11511L16.0029 8.11511L17.0029 7.11511H18.0029V5.11511V2.11511L17.0029 1.11511H16.0029Z" fill="#7B13FF"/>
<path d="M22.0029 8.11511H21.0029L20.0029 9.11511L19.0029 10.1151V12.1151V13.1151L21.0029 14.1151H22.0029L23.0029 12.1151V10.1151V9.11511L22.0029 8.11511Z" fill="#7B13FF"/>
</svg>
