<svg width="88" height="116" viewBox="0 0 88 116" fill="none" xmlns="http://www.w3.org/2000/svg">
<path d="M48.2946 57.8994L67.6056 38.2957C68.8376 37.044 68.7822 34.9856 67.4741 33.8104L46.0174 14.5197C44.0932 12.7881 40.9716 14.2415 40.9716 16.8284V50.4585L24.6854 33.9355C21.8475 31.0496 17.5562 35.4098 20.394 38.2957L39.705 57.8994L20.394 77.503C17.5562 80.3889 21.8683 84.7213 24.6854 81.8632L40.9647 65.3402V98.9772C40.9647 101.599 44.024 103.08 46.0105 101.286L67.4671 81.9953C68.7753 80.8201 68.8376 78.7617 67.5986 77.5099L48.2946 57.8994ZM47.0349 50.4585V23.6643L61.0301 36.2512L47.0349 50.4585ZM47.0349 92.1274V65.3333L61.0301 79.5475L47.0349 92.1274Z" fill="url(#paint0_linear)"/>
<path d="M68.8932 10.7575C68.7617 10.6114 68.6232 10.4862 68.464 10.368C68.4364 10.3402 68.4087 10.3124 68.381 10.2915L68.3741 10.3054C67.8826 9.96468 67.2874 9.76301 66.6437 9.76301C64.9618 9.76301 63.5982 11.133 63.5982 12.8228C63.5982 13.8798 64.1312 14.8117 64.9479 15.3611C74.8872 24.6031 81.428 40.222 81.428 57.8924C81.428 86.2025 64.6434 109.241 44.0035 109.241C23.3636 109.241 6.57894 86.2095 6.57894 57.8924C6.57894 29.5822 23.3636 6.54327 44.0035 6.54327C48.1564 6.54327 52.157 7.47511 55.8946 9.19973C56.4137 9.58916 57.0505 9.8256 57.7496 9.8256C59.4523 9.8256 60.8296 8.44174 60.8296 6.73103C60.8296 5.40279 59.9991 4.27623 58.8293 3.83117V3.82421C54.1988 1.60585 49.2084 0.388885 44.0035 0.388885C20.0205 0.388885 0.508789 26.1886 0.508789 57.8993C0.508789 89.61 20.0205 115.41 44.0035 115.41C67.9865 115.41 87.4982 89.61 87.4982 57.8993C87.4912 38.4139 80.1337 21.1677 68.8932 10.7575Z" fill="url(#paint1_linear)"/>
<defs>
<linearGradient id="paint0_linear" x1="43.9783" y1="13.7658" x2="43.9783" y2="102.074" gradientUnits="userSpaceOnUse">
<stop stop-color="#6367C8"/>
<stop offset="1" stop-color="#944DD7"/>
</linearGradient>
<linearGradient id="paint1_linear" x1="44.0035" y1="0.388885" x2="44.0035" y2="115.41" gradientUnits="userSpaceOnUse">
<stop stop-color="#6367C8"/>
<stop offset="1" stop-color="#944DD7"/>
</linearGradient>
</defs>
</svg>
