<svg width="15" height="15" viewBox="0 0 15 15" fill="none" xmlns="http://www.w3.org/2000/svg">
<path d="M14.3182 6.81818C14.1374 6.81818 13.9639 6.89002 13.8361 7.01788C13.7082 7.14575 13.6364 7.31917 13.6364 7.5V12.9545C13.6364 13.1354 13.5645 13.3088 13.4367 13.4367C13.3088 13.5645 13.1354 13.6364 12.9545 13.6364H2.04545C1.86463 13.6364 1.6912 13.5645 1.56334 13.4367C1.43547 13.3088 1.36364 13.1354 1.36364 12.9545V2.04545C1.36364 1.86463 1.43547 1.6912 1.56334 1.56334C1.6912 1.43547 1.86463 1.36364 2.04545 1.36364H7.5C7.68083 1.36364 7.85425 1.2918 7.98212 1.16394C8.10998 1.03607 8.18182 0.862648 8.18182 0.681818C8.18182 0.500989 8.10998 0.327566 7.98212 0.1997C7.85425 0.0718343 7.68083 0 7.5 0H2.04545C1.50297 0 0.982697 0.215502 0.5991 0.5991C0.215502 0.982697 0 1.50297 0 2.04545V12.9545C0 13.497 0.215502 14.0173 0.5991 14.4009C0.982697 14.7845 1.50297 15 2.04545 15H12.9545C13.497 15 14.0173 14.7845 14.4009 14.4009C14.7845 14.0173 15 13.497 15 12.9545V7.5C15 7.31917 14.9282 7.14575 14.8003 7.01788C14.6724 6.89002 14.499 6.81818 14.3182 6.81818Z" fill="white"/>
<path d="M10.9077 1.36364H12.7146L7.72366 6.36136C7.59667 6.48911 7.52539 6.66192 7.52539 6.84205C7.52539 7.02217 7.59667 7.19498 7.72366 7.32273C7.85141 7.44972 8.02421 7.52099 8.20434 7.52099C8.38447 7.52099 8.55727 7.44972 8.68502 7.32273L13.635 2.38636V4.09091C13.635 4.27174 13.7069 4.44516 13.8347 4.57303C13.9626 4.70089 14.136 4.77273 14.3168 4.77273C14.4977 4.77273 14.6711 4.70089 14.799 4.57303C14.9268 4.44516 14.9987 4.27174 14.9987 4.09091V0.681818C14.9987 0.500989 14.9268 0.327566 14.799 0.1997C14.6711 0.0718343 14.4977 0 14.3168 0H10.9077C10.7269 0 10.5535 0.0718343 10.4256 0.1997C10.2978 0.327566 10.2259 0.500989 10.2259 0.681818C10.2259 0.862648 10.2978 1.03607 10.4256 1.16394C10.5535 1.2918 10.7269 1.36364 10.9077 1.36364Z" fill="white"/>
</svg>
